#N canvas 644 23 543 470 10;
#X declare -stdlib Gem;
#N canvas 413 140 402 279 ARGO 0;
#X obj 101 101 cnv 10 95 41 \$0-A \$0-B empty 20 12 0 14 -1 -1 1.04858e+06
;
#X obj 101 109 nbx 4 12 0 1e+37 0 0 \$0 \$0-ReceiveCpuPeak CPUPeak
45 7 1 11 -24198 -1 -24198 6 256;
#X obj 101 122 nbx 4 12 0 1e+37 0 0 \$0 \$0-ReceiveCpuMean CPUMean
45 7 1 11 -24198 -1 -24198 4.62 256;
#X obj 145 -55 cputime;
#X obj 145 -76 t b b;
#X text 188 24 (c) musil@iem.kug.ac.at;
#X text 230 37 IEM KUG;
#X text 78 18 CPU-load;
#X obj 144 -125 loadbang;
#X text 205 48 graz \, austria 2001;
#X obj 145 -100 metro 500;
#X obj 145 -34 * 0.2;
#X text 237 -88 -dsp-load in %;
#X text 228 -101 measure average- and peak-;
#X obj 37 18 * 100;
#X obj 37 63 int;
#X obj 37 41 + 0.499;
#X obj 37 86 * 0.01;
#N canvas 524 162 422 273 1p1zmodif 0;
#X text 134 89 (c) musil@iem.kug.ac.at;
#X text 179 99 IEM KUG;
#X obj 14 195 +;
#X text 151 108 graz \, austria 2001;
#X text 135 71 y[n] = a0*x[n] + a1*x[n-1] + b1*y[n-1];
#X text 18 13 x[n];
#X text 16 244 y[n];
#X text 84 111 y[n-1];
#X text 134 56 <float> control-IIR-filter 1.order;
#X obj 15 28 inlet;
#X obj 14 228 outlet;
#X obj 15 112 * 0.1;
#X obj 59 156 * 0.9;
#X text 139 144 a1 = 0;
#X text 139 155 b1 = 0.9;
#X text 139 133 a0 = 0.1;
#X obj 15 50 t f b;
#X text 135 40 Inspiré de 1p1z;
#X obj 59 112 f 0;
#X connect 2 0 10 0;
#X connect 2 0 18 1;
#X connect 9 0 16 0;
#X connect 11 0 2 0;
#X connect 12 0 2 1;
#X connect 16 0 11 0;
#X connect 16 1 18 0;
#X connect 18 0 12 0;
#X restore 37 -8 pd 1p1zmodif;
#X text 146 9 Inspiré de 5.reference/iemabs/help-dsp.pd;
#X text 141 83 25 3 2010;
#X connect 3 0 11 0;
#X connect 4 0 3 0;
#X connect 4 1 3 1;
#X connect 8 0 10 0;
#X connect 10 0 4 0;
#X connect 11 0 18 0;
#X connect 11 0 1 0;
#X connect 14 0 16 0;
#X connect 15 0 17 0;
#X connect 16 0 15 0;
#X connect 17 0 2 0;
#X connect 18 0 14 0;
#X coords 0 -1 1 1 97 43 1 100 100;
#X restore 299 55 pd ARGO;
#X obj 6 8 cnv 15 15 15 empty empty ExMM165a-GEM-Chaos4-Lorenz.pd 0
8 1 14 -262144 -66577 0;
#X obj 19 288 gemhead;
#N canvas 382 135 452 375 ARGO 0;
#X obj 101 101 cnv 10 164 15 empty ColorForm empty 20 12 0 14 -228856
-1 1.04858e+06;
#X obj 101 101 cnv 4 10 4 empty empty empty 20 12 0 14 -128992 -66577
0;
#X obj 140 105 cnv 10 20 10 empty ColorGEM GEM-AlphaEnable 1 5 1 14
-228856 -1 1.04858e+06;
#X obj 92 36 inlet;
#X obj 101 112 cnv 4 10 4 empty empty empty 20 12 0 14 -128992 -66577
0;
#X text 92 180 gemlist;
#X obj 93 164 outlet;
#X obj 112 103 tgl 12 1 \$0-A \$0-B empty 0 0 1 9 -262144 -1 -1 1 1
;
#X obj 124 103 tgl 12 1 \$0-A \$0-B empty 0 0 1 9 -262144 -1 -1 0 1
;
#X obj 93 136 alpha;
#X obj 7 -163 cnv 15 430 185 empty empty empty 20 12 0 14 -233017 -66577
0;
#X text 16 -147 [alpha] turns on and off alpha blending. [alpha] automatically
uses the glBlendFunc(GL_SRC_ALPHA \, GL_ONE_MINUS_SRC_ALPHA) function
from OpenGL. If you want a different blending technique \, you will
need to make your own external. The blending that [alpha] does is the
stereotypical blending which you will usually want. In a nutshell \,
any pixel which has an alpha component will be blended with the pixel
that is in the frame buffer \, producing the usual colored glass effect.
Be aware that the rendering order matters \, so you probably want to
set the gemhead order number high so that the object is rendered after
all of the non-alpha blended ones.;
#X text 8 -165 Citation;
#X text 131 127 ->Inlet 2: blending function: 0=GL_ONE \, 1=GL_ONE_MINUS_SOURCE_ALPHA
;
#X text 269 100 25 3 2010;
#X text 114 76 |;
#X text 114 84 v;
#X text 111 53 Alpha On/Off;
#X text 114 66 |;
#X text 125 76 |;
#X text 125 84 v;
#X text 124 65 Blending function;
#X text 87 18 gemlist;
#X connect 3 0 9 0;
#X connect 7 0 9 0;
#X connect 8 0 9 1;
#X connect 9 0 6 0;
#X coords 0 -1 1 1 166 17 1 100 100;
#X restore 19 389 pd ARGO;
#X obj 151 259 t b b b;
#X obj 95 208 cnv 15 54 20 empty empty empty 20 12 0 14 -24198 -66577
0;
#X text 96 209 Start ->;
#X obj 167 141 cnv 15 54 20 empty empty empty 20 12 0 14 -24198 -66577
0;
#X text 172 140 ^ Clear;
#X text 172 146 !;
#X msg 278 321 param 0.02 10 28 2.667;
#X text 260 303 Reset To Initial Conditions;
#X text 278 339 Modify Parameters;
#X msg 261 285 reset 0.1 0 0;
#X obj 190 347 chaos/lorenz;
#N canvas 534 84 344 406 ARGO 0;
#X obj 101 101 cnv 10 216 33 empty ColorForm empty 20 12 0 14 -228856
-1 1.04858e+06;
#X obj 230 121 cnv 10 20 10 empty ColorForm GEMglLineTo 1 5 1 14 -228856
-1 1.04858e+06;
#X obj 101 130 cnv 4 10 4 empty empty empty 20 12 0 14 -128992 -66577
0;
#X obj 83 371 outlet;
#X obj 101 101 cnv 4 10 4 empty empty empty 20 12 0 14 -128992 -66577
0;
#X obj 83 70 inlet;
#X text 81 384 gemlist;
#X text 76 50 gemlist;
#X obj 11 116 cnv 15 60 30 empty empty empty 20 12 0 14 -24198 -66577
0;
#N canvas 486 115 436 437 Help 0;
#X obj 16 55 cnv 15 400 230 empty empty empty 20 12 0 14 -233017 -66577
0;
#X text 19 54 Citation;
#X text 12 -35 Fenetre GEM Hor / Vert;
#X text 69 -4 480/640 = 3/4 = 6 / 8 = -3 .. +3 / -4 .. +4;
#X text 69 7 320/240 = 4/3 = 10.666 / 8 = -5.333 .. +5.333 / -4 ..
+4;
#X text 69 19 640/480 = 4/3 = 10.666 / 8 = -5.333 .. +5.333 / -4 ..
+4;
#X text 58 31 1280/720 = 16/9 = 14.222 / 8 = -7.111 .. +7.111 / -4
.. +4;
#X text -3 -75 Unites de distance dans la fenetre GEM:;
#X text 12 -61 Quelquesoit la taille en pixels de la fenetre GEM \,
sa hauteur mesure 8: les coordonnees verticales vont de -4 a +4;
#X text 72 -19 Pixels;
#X text 131 -19 Proportion;
#X text 247 -19 Coordonnees X1 Y1 X2 Y2;
#X text 29 71 GEMglBegin - delimit the vertices of a primitive or a
group of like primitives;
#X text 30 100 Parameters;
#X text 40 114 mode;
#X text 50 129 Specifies the primitive or primitives that will be created
from vertices presented between glBegin and the subsequent glEnd. Ten
symbolic constants are accepted: GL_POINTS \, GL_LINES \, GL_LINE_STRIP
\, GL_LINE_LOOP \, GL_TRIANGLES \, GL_TRIANGLE_STRIP \, GL_TRIANGLE_FAN
\, GL_QUADS \, GL_QUAD_STRIP \, and GL_POLYGON.;
#X text 30 211 OpenGL Reference page:;
#X obj 53 224 pddp/pddplink http://www.glprogramming.com/blue/ch05.html#id5450783
;
#X text 2 -144 MM GEMglLineTo;
#X text 32 242 "each openGL-command is wrapped into a pd-object with
a prefixed "GEM" for instance "glVertex3fv" becomes [GEMglVertex3fv]"
;
#X text 17 -130 Trace une ligne droite dans la fenetre GEM;
#X restore 18 122 pd Help;
#X obj 100 106 tgl 12 1 \$0-A ColorGEM On/Off 15 6 1 9 -262144 -1 -1
1 1;
#X obj 83 170 spigot;
#X obj 307 101 cnv 4 10 4 empty empty empty 20 12 0 14 -260097 -66577
0;
#X obj 203 106 nbx 5 12 -10 10 0 1 \$0-A ColorGEM X -8 7 1 9 -262144
-1 -1 0.884483 256;
#X obj 83 349 GEMglEnd;
#X obj 83 301 GEMglVertex2f 0 0;
#X obj 203 101 cnv 4 10 4 empty empty empty 20 12 0 14 -260097 -66577
0;
#X obj 275 106 nbx 5 12 -10 10 0 1 \$0-A ColorGEM Y -8 7 1 9 -262144
-1 -1 0.443076 256;
#X obj 194 70 inlet;
#X obj 302 70 inlet;
#X text 184 40 -10..10;
#X text 293 40 -10..10;
#X obj 83 326 GEMglVertex2f 0 0;
#X obj 182 273 f;
#X obj 132 272 f;
#X obj 155 229 t f b;
#X obj 105 229 t f b;
#X obj 83 196 GEMglBegin GL_POINTS;
#X obj 143 118 hradio 12 1 1 2 \$0-A \$0-B Ligne 26 7 1 11 -262144
-1 -1 1;
#N canvas 636 315 414 201 define 0;
#X obj -17 7 inlet;
#X obj 130 152 outlet;
#X obj -77 152 outlet;
#X msg 40 117 label Point;
#X msg 126 117 label Ligne;
#X obj -197 117 GLdefine GL_POINTS;
#X obj -78 117 GLdefine GL_LINES;
#X obj -17 55 sel 0 1;
#X connect 0 0 7 0;
#X connect 3 0 1 0;
#X connect 4 0 1 0;
#X connect 5 0 2 0;
#X connect 6 0 2 0;
#X connect 7 0 3 0;
#X connect 7 0 5 0;
#X connect 7 1 4 0;
#X connect 7 1 6 0;
#X restore 200 160 pd define;
#X obj 276 369 cnv 15 54 25 empty empty empty 20 12 0 14 -24198 -66577
0;
#N canvas 350 196 313 131 ???? 0;
#X obj 3 83 cnv 15 300 38 empty empty empty 20 12 0 14 -224896 -66577
0;
#X obj 3 6 cnv 18 300 70 empty empty ARGOPdMiniModules 3 10 1 14 -4033
-1 1.04858e+06;
#X obj 26 26 cnv 10 10 10 empty empty Gerard 0 5 1 11 -4033 -1 1.04858e+06
;
#X obj 64 26 cnv 10 10 10 empty empty Paresys 0 5 1 11 -4033 -1 1.04858e+06
;
#X obj 7 37 pddp/pddplink http://gerard.paresys.free.fr/ARGOPd/;
#X text 8 85 Construit sous / Build under Pd 0.43.4-extended;
#X obj 17 100 pddp/pddplink http://puredata.info/downloads/pd-extended
;
#X obj 7 50 pddp/pddplink http://paresys.pagesperso-orange.fr/ARGOPd/
;
#X restore 280 373 pd ????;
#X text 204 54 X;
#X text 312 54 Y;
#X text 264 148 26 5 2015;
#X connect 5 0 11 0;
#X connect 10 0 11 1;
#X connect 11 0 27 0;
#X connect 13 0 26 0;
#X connect 14 0 3 0;
#X connect 15 0 22 0;
#X connect 17 0 25 0;
#X connect 18 0 13 0;
#X connect 19 0 17 0;
#X connect 22 0 14 0;
#X connect 23 0 15 2;
#X connect 24 0 15 1;
#X connect 25 0 23 1;
#X connect 25 0 22 2;
#X connect 25 1 23 0;
#X connect 26 0 24 1;
#X connect 26 0 22 1;
#X connect 26 1 24 0;
#X connect 27 0 15 0;
#X connect 28 0 29 0;
#X connect 29 0 27 1;
#X connect 29 1 28 0;
#X coords 0 -1 1 1 218 35 1 100 100;
#X restore 85 418 pd ARGO;
#X obj 293 236 loadbang;
#X obj 190 389 / 8;
#X obj 296 392 / 8;
#X text 29 166 Lorenz Attractor based on Ben Bogart library chaos;
#X obj 172 193 pddp/pddplink http://en.wikipedia.org/wiki/Lorenz_system
;
#X obj 31 180 pddp/pddplink http://fr.wikipedia.org/wiki/Attracteur_de_Lorenz
;
#N canvas 531 170 383 357 ARGO 0;
#X obj 101 101 cnv 10 144 66 empty ColorForm empty 20 12 0 14 -228856
-1 1.04858e+06;
#X obj 101 101 cnv 4 10 4 empty empty empty 20 12 0 14 -128992 -66577
0;
#X obj 132 109 cnv 10 20 10 empty ColorForm GEM-ColorAlpha. 1 5 1 14
-228856 -1 1.04858e+06;
#X text 76 57 gemlist;
#X obj 101 163 cnv 4 10 4 empty empty empty 20 12 0 14 -128992 -66577
0;
#X text 86 167 gemlist;
#X obj 82 306 outlet;
#X obj 82 286 color;
#X obj 82 77 inlet;
#X obj 115 156 hsl 129 12 0 10 0 1 \$0-A \$0-B 100 0 8 1 12 -262144
-1 -1 12800 0;
#X text 268 49 Control;
#X text 276 61 Alpha;
#X obj 271 77 inlet;
#X obj 202 101 cnv 4 10 4 empty empty empty 20 12 0 14 -260097 -66577
0;
#X obj 167 101 cnv 4 10 4 empty empty empty 20 12 0 14 -260097 -66577
0;
#X obj 132 101 cnv 4 10 4 empty empty empty 20 12 0 14 -260097 -66577
0;
#X obj 235 101 cnv 4 10 4 empty empty empty 20 12 0 14 -260097 -66577
0;
#X obj 267 217 t b f;
#X obj 207 217 t b f;
#X text 127 49 Control;
#X text 137 60 Red;
#X text 176 49 Control;
#X text 180 60 Green;
#X text 222 49 Control;
#X text 230 61 Blue;
#X obj 115 120 hsl 129 12 0 100 0 1 \$0-A \$0-B 100 0 8 1 12 -258049
-262144 -262144 12800 0;
#X obj 115 132 hsl 129 12 0 100 0 1 \$0-A \$0-B 72 0 8 1 12 -4033 -262144
-262144 9300 0;
#X obj 115 144 hsl 129 12 0 100 0 1 \$0-A \$0-B 0 0 8 1 12 -64 -262144
-262144 0 0;
#X obj 127 77 inlet;
#X obj 176 77 inlet;
#X obj 225 77 inlet;
#N canvas 795 278 198 218 color 0;
#X obj 68 186 outlet;
#X obj 68 10 inlet;
#X msg 68 141 label \$1;
#X obj 68 96 int;
#X obj 131 95 / 100;
#X obj 131 185 outlet;
#X obj 68 119 cyclone/tosymbol;
#X connect 1 0 3 0;
#X connect 1 0 4 0;
#X connect 2 0 0 0;
#X connect 3 0 6 0;
#X connect 4 0 5 0;
#X connect 6 0 2 0;
#X restore 101 189 pd color;
#N canvas 795 278 198 218 color 0;
#X obj 68 186 outlet;
#X obj 68 10 inlet;
#X msg 68 141 label \$1;
#X obj 68 96 int;
#X obj 131 95 / 100;
#X obj 131 185 outlet;
#X obj 68 119 cyclone/tosymbol;
#X connect 1 0 3 0;
#X connect 1 0 4 0;
#X connect 2 0 0 0;
#X connect 3 0 6 0;
#X connect 4 0 5 0;
#X connect 6 0 2 0;
#X restore 162 189 pd color;
#N canvas 795 278 198 218 color 0;
#X obj 68 186 outlet;
#X obj 68 10 inlet;
#X msg 68 141 label \$1;
#X obj 68 96 int;
#X obj 131 95 / 100;
#X obj 131 185 outlet;
#X obj 68 119 cyclone/tosymbol;
#X connect 1 0 3 0;
#X connect 1 0 4 0;
#X connect 2 0 0 0;
#X connect 3 0 6 0;
#X connect 4 0 5 0;
#X connect 6 0 2 0;
#X restore 222 189 pd color;
#X obj 44 22 cnv 15 60 30 empty empty empty 20 12 0 14 -24198 -66577
0;
#N canvas 312 59 421 380 Help 0;
#X obj 8 113 cnv 15 400 150 empty empty empty 20 12 0 14 -258113 -66577
0;
#X text 11 116 - Erreur dans la fenêtre Pd:;
#X obj 7 -95 cnv 15 400 200 empty empty empty 20 12 0 14 -233017 -66577
0;
#X text 10 -96 Citation;
#X text 19 -59 [color] sets the colour of all subsequent shape and
vertex operations until reset by another [color]/[colorRGB] object.
If you set the alpha-value \, you will beed an [alpha] object to enable
alpha-blending;
#X text 9 -73 Description: colouring;
#X restore 51 28 pd Help;
#X obj 219 248 pack 0 0 0 0;
#X obj 326 217 t b f;
#X obj 271 100 sqrt;
#N canvas 804 206 219 249 alpha 0;
#X obj 68 214 outlet;
#X obj 115 10 inlet;
#X msg 68 191 label \$1;
#X obj 68 125 int;
#X obj 131 102 / 100;
#X obj 131 213 outlet;
#X obj 115 61 *;
#X obj 115 35 t f f;
#X obj 68 101 * 10;
#X obj 68 147 / 10;
#X obj 68 169 cyclone/tosymbol;
#X connect 1 0 7 0;
#X connect 2 0 0 0;
#X connect 3 0 9 0;
#X connect 4 0 5 0;
#X connect 6 0 4 0;
#X connect 6 0 8 0;
#X connect 7 0 6 0;
#X connect 7 1 6 1;
#X connect 8 0 3 0;
#X connect 9 0 10 0;
#X connect 10 0 2 0;
#X restore 281 189 pd alpha;
#X text 250 127 13 8 2019;
#X obj 301 293 cnv 15 52 22 empty empty empty 20 12 0 14 -24198 -66577
0;
#N canvas 353 174 321 152 ?... 0;
#X obj 8 84 cnv 15 300 56 empty empty empty 20 12 0 14 -224896 -66577
0;
#X obj 8 7 cnv 18 300 70 empty empty ARGOPdMiniModules 3 10 1 14 -4033
-1 1.04858e+06;
#X obj 31 27 cnv 10 10 10 empty empty Gerard 0 5 1 11 -4033 -1 1.04858e+06
;
#X obj 69 27 cnv 10 10 10 empty empty Paresys 0 5 1 11 -4033 -1 1.04858e+06
;
#X obj 12 40 pddp/pddplink http://gerard.paresys.free.fr/ARGOPd/;
#X obj 13 121 pddp/pddplink http://puredata.info/downloads/pd-extended
;
#X obj 13 97 pddp/pddplink http://puredata.info/downloads/pure-data
;
#X text 13 85 Construit sous / Build under Pd-0.49...;
#X text 12 109 or Pd 0.43.4-extended;
#X obj 12 53 pddp/pddplink https://paresys.pagesperso-orange.fr/ARGOPd/
;
#X restore 304 296 pd ?...;
#X connect 7 0 6 0;
#X connect 8 0 7 0;
#X connect 9 0 39 0;
#X connect 12 0 38 0;
#X connect 17 0 36 0;
#X connect 17 1 36 2;
#X connect 18 0 36 0;
#X connect 18 1 36 1;
#X connect 25 0 31 0;
#X connect 26 0 32 0;
#X connect 27 0 33 0;
#X connect 28 0 25 0;
#X connect 29 0 26 0;
#X connect 30 0 27 0;
#X connect 31 0 25 0;
#X connect 31 1 36 0;
#X connect 32 0 26 0;
#X connect 32 1 18 0;
#X connect 33 0 27 0;
#X connect 33 1 17 0;
#X connect 36 0 7 1;
#X connect 37 0 36 0;
#X connect 37 1 36 3;
#X connect 38 0 9 0;
#X connect 39 0 9 0;
#X connect 39 1 37 0;
#X coords 0 -1 1 1 146 68 1 100 100;
#X restore 19 311 pd ARGO;
#X obj 297 18 declare -stdlib Gem;
#X obj 427 58 cnv 15 100 100 empty empty empty 20 12 0 14 -24198 -66577
0;
#X text 450 60 library:;
#X text 431 72 pddp;
#X text 431 83 cyclone;
#X text 431 94 zexy;
#X text 431 105 chaos;
#X text 432 115 Gem;
#X text 431 126 iemlib;
#X text 432 136 ggee;
#N canvas 255 35 367 262 ARGO 0;
#X obj 272 45 cnv 15 60 30 empty empty empty 20 12 0 14 -24198 -66577
0;
#N canvas 424 180 418 133 Help 0;
#X text 10 51 Un "Bang" sort chaque X msec.;
#X text 8 83 A "Bang" outputs every X msec.;
#X restore 279 51 pd Help;
#X obj 95 198 cnv 15 170 24 empty empty empty 20 12 0 14 -261682 -66577
0;
#X obj 100 202 outlet;
#X obj 101 101 cnv 10 132 36 empty ColorForm Oscill. 80 9 1 14 -208064
-1 1.04858e+06;
#X obj 100 125 bng 12 50 50 0 \$0-A \$0-B empty 14 6 1 9 -262144 -1
-1;
#X obj 101 133 cnv 4 10 4 empty empty empty 20 12 0 14 -260097 -66577
0;
#X obj 100 113 nbx 6 12 1 999999 0 1 \$0-A ColorTime ms 40 17 1 9 -208064
-1 -1 20 256;
#X text 146 206 -> Bang;
#X text 145 196 -> Bang;
#X obj 100 100 tgl 12 1 \$0-A \$0-B empty 17 7 0 10 -262144 -1 -1 1
1;
#X obj 68 8 cnv 15 90 60 empty empty empty 20 12 0 14 -261682 -66577
0;
#X obj 101 101 cnv 4 10 4 empty empty empty 20 12 0 14 -260097 -66577
0;
#X obj 28 145 metro 300;
#X obj 223 101 cnv 4 10 4 empty empty empty 20 12 0 14 -260097 -66577
0;
#X obj 215 45 inlet;
#X text 238 95 <- ms;
#X obj 270 202 cnv 15 52 22 empty empty empty 20 12 0 14 -24198 -66577
0;
#N canvas 353 174 321 152 ?... 0;
#X obj 8 84 cnv 15 300 56 empty empty empty 20 12 0 14 -224896 -66577
0;
#X obj 8 7 cnv 18 300 70 empty empty ARGOPdMiniModules 3 10 1 14 -4033
-1 1.04858e+06;
#X obj 31 27 cnv 10 10 10 empty empty Gerard 0 5 1 11 -4033 -1 1.04858e+06
;
#X obj 69 27 cnv 10 10 10 empty empty Paresys 0 5 1 11 -4033 -1 1.04858e+06
;
#X obj 12 40 pddp/pddplink http://gerard.paresys.free.fr/ARGOPd/;
#X obj 13 121 pddp/pddplink http://puredata.info/downloads/pd-extended
;
#X obj 13 97 pddp/pddplink http://puredata.info/downloads/pure-data
;
#X text 13 85 Construit sous / Build under Pd-0.49...;
#X text 12 109 or Pd 0.43.4-extended;
#X obj 12 53 pddp/pddplink https://paresys.pagesperso-orange.fr/ARGOPd/
;
#X restore 273 205 pd ?...;
#X text 177 83 21 8 2019;
#X text 89 10 1: Play;
#X text 89 20 0: Stop;
#X text 71 30 bang: Change;
#X obj 100 45 inlet;
#X text 222 26 ms;
#X connect 5 0 3 0;
#X connect 7 0 13 1;
#X connect 10 0 13 0;
#X connect 13 0 5 0;
#X connect 15 0 7 0;
#X connect 23 0 10 0;
#X coords 0 -1 1 1 134 38 2 100 100;
#X restore 151 213 pd ARGO;
#N canvas 222 55 1072 759 ARGO 0;
#X obj 401 151 cnv 22 183 112 empty empty GEM. 5 12 1 18 -1 -262144
1.04858e+06;
#X obj 505 204 tgl 12 1 \$0-A \$0-ColorGEM (F)ullScreen 15 7 1 11 -24198
-1 -24198 0 1;
#X obj 403 174 tgl 12 1 \$0-A \$0-ColorGEM (G)EM 15 7 1 11 -24198 -1
-24198 1 1;
#X obj 505 189 tgl 12 1 \$0-A \$0-ColorGEM KeyShortCut 15 7 1 11 -24198
-1 -24198 0 1;
#X msg 391 307 set \$1;
#X msg 370 335 1;
#X msg 287 658 frame \$1;
#X obj 948 539 select 0 1;
#X msg 976 658 color 16 22 16;
#X msg 948 634 color 0 22 0;
#X obj 505 174 tgl 12 1 SendMode \$0-ColorGEM Compatible 15 7 1 11
-24198 -1 -24198 1 1;
#X obj 403 234 hradio 12 1 1 5 \$0-A \$0-ColorGEM 640x480 62 7 1 11
-24198 -1 -24198 2;
#X obj 184 279 t b f;
#N canvas 206 161 332 336 Dimension 0;
#X msg 120 175 set dimen 640 480;
#X msg 102 217 set dimen 320 240;
#X msg 131 154 label 640x480;
#X msg 112 196 label 320x240;
#X obj 102 17 inlet;
#X obj 25 299 outlet;
#X obj 246 299 outlet;
#X msg 82 260 set dimen 480 640;
#X msg 92 239 label 480x640;
#X msg 161 90 set dimen 1280 720;
#X msg 136 133 set dimen 1280 480;
#X msg 167 67 label 1280x720;
#X msg 146 112 label 1280x480;
#X obj 102 43 sel 0 1 2 3 4;
#X connect 0 0 6 0;
#X connect 1 0 6 0;
#X connect 2 0 5 0;
#X connect 3 0 5 0;
#X connect 4 0 13 0;
#X connect 7 0 6 0;
#X connect 8 0 5 0;
#X connect 9 0 6 0;
#X connect 10 0 6 0;
#X connect 11 0 5 0;
#X connect 12 0 5 0;
#X connect 13 0 8 0;
#X connect 13 0 7 0;
#X connect 13 1 3 0;
#X connect 13 1 1 0;
#X connect 13 2 2 0;
#X connect 13 2 0 0;
#X connect 13 3 12 0;
#X connect 13 3 10 0;
#X connect 13 4 11 0;
#X connect 13 4 9 0;
#X restore 211 304 pd Dimension;
#X obj 140 279 t b f;
#X obj 403 189 tgl 12 1 \$0-A \$0-ColorGEM (B)arMenu 15 7 1 11 -24198
-1 -24198 1 1;
#X obj 403 204 tgl 12 1 \$0-A \$0-ColorGEM (L)ight 15 7 1 11 -24198
-1 -24198 0 1;
#X obj 403 219 nbx 3 12 0 100 0 1 \$0-A \$0-ColorGEM BackGround 37
7 1 11 -24198 -1 -24198 0 256;
#X obj 522 234 tgl 12 1 \$0-A \$0-ColorGEM Screen2 15 7 1 11 -24198
-1 -24198 0 1;
#X obj 461 174 bng 12 250 50 0 \$0-A \$0-ColorGEM Info 15 7 1 11 -24198
-1 -24198;
#X obj 559 279 t b f;
#X obj 637 411 + 1;
#X msg 217 658 print;
#X msg 45 658 lighting \$1;
#X msg 123 658 color \$1 \$1 \$1;
#X obj 173 634 / 100;
#X obj 620 634 * 2;
#X obj 90 634 int;
#X obj 708 169 cnv 15 60 30 empty empty empty 20 12 0 14 -24198 -66577
0;
#N canvas 510 159 430 463 Help 0;
#X obj 16 35 cnv 15 380 90 empty empty empty 20 12 0 14 -233017 -66577
0;
#X text 21 33 Citation;
#X text 20 46 "GEM is the Graphics Environment for Multimedia. It was
originally written by Mark Danks to generate real-time computer graphics
\, especially for audio-visual compositions.";
#X text 20 96 "GEM is a collection of externals which allow the user
to create OpenGL graphics within Pd";
#X text 15 133 - Raccourcis clavier;
#X text 17 189 - En "FullScreen" taper F ou Pomme + Tab sous MacOSX...
;
#X text 125 202 taper F ou Alt + Tab sous Windows...;
#X text 125 214 taper F ou Alt + F4 sous Linux...;
#X text 40 358 Inconvenient: Charge CPU => la texture est calculée
(objet pix_texture) par le processeur de l'ordinateur et pas par la
carte video);
#X text 17 306 Il faut cocher compatible avec certaines cartes video
\, de certains PC \, sous Windows...;
#X text 18 332 Compatible Off -> mode 1: TEXTURE_RECTANGLE;
#X text 18 344 Compatible On -> mode 0: TEXTURE_2D;
#X text 13 10 - GEM On ouvre une fenetre;
#X text 139 132 g / G -> GEM On/Off;
#X text 140 146 f / F -> FullScreen On/Off;
#X text 141 159 b /B -> Menu bar On/Off;
#X text 141 173 Echap / Esc -> FullScreen Off;
#X text 20 432 16/9 = 512/288 = 1024/576 = 1152/648 = 1280/720 = 1440/810
;
#X text 14 420 16/10 = 512/320 = 1024/640 = 1152/720 = 1280x800 = 1440/900
;
#X text 348 407 = 1280/960;
#X text 25 408 4/3 = 160/120 = 320/240 = 512/384 = 640/480 = 1024x768
;
#X text 126 227 ou Echap / Esc...;
#X text 16 272 - Compatible envoie le message rectangle 1 ou rectangle
0 à tous les objets pix_texture des autres modules;
#X restore 715 175 pd Help;
#X msg 346 658 create;
#X msg 620 658 fullscreen \$1;
#X obj 370 360 sel 1;
#X msg 588 411 set \$1;
#X msg 393 658 dimen 640 480;
#X msg 258 658 1;
#X obj 370 438 select linux macos windows;
#X msg 201 334 set \$1;
#X msg 483 584 1;
#X msg 483 658 border \$1 \, menubar \$1;
#X msg 620 584 0;
#X obj 421 466 t b b b;
#X obj 370 466 t b b b;
#X obj 405 584 spigot;
#X obj 555 411 == 0;
#X obj 370 415 zexy/operating_system;
#X msg 711 634 1;
#X obj 403 249 tgl 12 1 \$0-A \$0-ColorGEM SingleBuffer 15 7 1 11 -24198
-1 -24198 1 1;
#X obj 487 249 bng 12 50 50 0 \$0-A \$0-ColorGEM Clear 15 7 1 11 -24198
-1 -24198;
#X obj 712 539 sel 0 1;
#X msg 711 584 set 2;
#X msg 756 584 set 1;
#X obj 536 249 bng 12 50 50 0 \$0-A \$0-ColorGEM Grade 15 7 1 11 -24198
-1 -24198;
#N canvas 1071 188 366 385 Graduation 0;
#X obj 161 78 until;
#X obj 161 100 f;
#X obj 209 100 + 1;
#X obj 237 101 sel 0;
#X obj 161 176 gemhead;
#X obj 161 350 GEMglEnd;
#X obj 161 224 GEMglBegin GL_LINES;
#X obj 161 122 t b f;
#X obj 161 249 GEMglVertex2f -10 0;
#X obj 161 272 GEMglVertex2f 10 0;
#X obj 161 294 GEMglVertex2f 0 -4;
#X obj 161 316 GEMglVertex2f 0 4;
#X obj 35 316 GEMglVertex2f 0 4;
#X obj 35 294 GEMglVertex2f 0 -4;
#X obj 161 198 color 0.8 0.8 0.8;
#X obj 127 17 inlet;
#X text 164 17 <- bang;
#X obj 34 175 gemhead;
#X obj 35 224 GEMglBegin GL_LINES;
#X msg 306 116 1;
#X msg 34 116 0;
#X obj 127 41 t b b b b;
#X obj 35 198 color 0.2 0.2 0.2;
#X obj 195 40 cnv 15 130 20 empty empty empty 20 12 0 14 -24198 -66577
0;
#X text 200 41 en mode SingleBuffer;
#X obj 34 18 loadbang;
#X obj 226 13 bng 15 250 50 0 empty empty empty 17 7 0 10 -262144 -1
-1;
#X obj 209 122 mod 23;
#X obj 274 198 - 12;
#X obj 35 249 GEMglVertex2f -10 0;
#X obj 35 272 GEMglVertex2f 10 0;
#X obj 294 13 bng 15 250 50 0 empty empty empty 17 7 0 10 -262144 -1
-1;
#X obj 259 11 bng 15 250 50 0 empty empty empty 17 7 0 10 -262144 -1
-1;
#X obj 333 16 bng 15 250 50 0 empty empty empty 17 7 0 10 -262144 -1
-1;
#X connect 0 0 1 0;
#X connect 1 0 2 0;
#X connect 1 0 7 0;
#X connect 2 0 27 0;
#X connect 3 0 0 1;
#X connect 4 0 14 0;
#X connect 6 0 8 0;
#X connect 7 0 4 0;
#X connect 7 1 28 0;
#X connect 8 0 9 0;
#X connect 9 0 10 0;
#X connect 10 0 11 0;
#X connect 11 0 5 0;
#X connect 12 0 5 0;
#X connect 13 0 12 0;
#X connect 14 0 6 0;
#X connect 15 0 21 0;
#X connect 17 0 22 0;
#X connect 18 0 29 0;
#X connect 19 0 4 0;
#X connect 19 0 17 0;
#X connect 20 0 17 0;
#X connect 20 0 4 0;
#X connect 21 0 20 0;
#X connect 21 1 17 0;
#X connect 21 2 0 0;
#X connect 21 3 19 0;
#X connect 22 0 18 0;
#X connect 25 0 20 0;
#X connect 26 0 21 0;
#X connect 27 0 1 1;
#X connect 27 0 3 0;
#X connect 28 0 8 2;
#X connect 28 0 9 2;
#X connect 28 0 10 1;
#X connect 28 0 11 1;
#X connect 29 0 30 0;
#X connect 30 0 13 0;
#X connect 31 0 4 0;
#X connect 32 0 17 0;
#X restore 639 315 pd Graduation;
#X obj 461 204 bng 12 250 50 0 \$0-A \$0-ColorGEM Save 15 7 1 11 -24198
-1 -24198;
#X obj 586 224 cnv 15 390 50 empty empty empty 20 12 0 14 -24198 -66577
0;
#X msg 738 339 0;
#X msg 769 339 2;
#X msg 798 339 4;
#X msg 859 339 8;
#X msg 829 339 5;
#X msg 738 367 destroy \, FSAA \$1 \, buffer 1 \, create \, 1;
#N canvas 669 277 404 282 SaveJpeg 0;
#X obj 207 46 loadbang;
#X obj 73 46 inlet;
#X text 6 242 Sauve la fenetre GEM au format JPEG dans le dossier du
patch;
#X obj 207 128 cyclone/tosymbol;
#X obj 207 103 cyclone/sprintf %s/GEMWindow;
#X obj 207 77 ggee/getdir;
#X text 7 229 Save the GEM window in JPEG format in the patch folder
;
#X obj 100 199 pix_write;
#X msg 110 153 color_format 3;
#X msg 207 153 file \$1 90;
#X obj 73 77 t b b;
#X obj 33 129 delay 100;
#X obj 33 153 gemhead 90;
#X connect 0 0 5 0;
#X connect 1 0 10 0;
#X connect 3 0 9 0;
#X connect 4 0 3 0;
#X connect 5 0 4 0;
#X connect 8 0 7 0;
#X connect 9 0 7 0;
#X connect 10 0 11 0;
#X connect 10 1 7 0;
#X connect 11 0 12 0;
#X connect 12 0 7 0;
#X restore 639 294 pd SaveJpeg;
#X obj 491 155 nbx 2 12 1 30 0 1 \$0-A \$0-ColorGEM Frames/sec 29 7
1 11 -24198 -1 -24198 10 256;
#X obj 880 105 cnv 15 100 80 empty empty empty 20 12 0 14 -24198 -66577
0;
#X text 903 107 library:;
#X text 884 119 pddp;
#X text 884 130 cyclone;
#X text 884 141 zexy;
#X text 884 153 Gem;
#X text 884 164 ggee;
#X obj 888 718 cnv 15 34 16 empty empty empty 20 12 0 14 -24198 -66577
0;
#N canvas 353 174 333 161 ?? 0;
#X obj 17 89 cnv 15 300 56 empty empty empty 20 12 0 14 -224896 -66577
0;
#X obj 17 12 cnv 18 300 70 empty empty ARGOPdMiniModules 3 10 1 14
-4033 -1 1.04858e+06;
#X obj 40 32 cnv 10 10 10 empty empty Gerard 0 5 1 11 -4033 -1 1.04858e+06
;
#X obj 78 32 cnv 10 10 10 empty empty Paresys 0 5 1 11 -4033 -1 1.04858e+06
;
#X obj 20 54 pddp/pddplink http://gerard.paresys.free.fr/ARGOPd/;
#X obj 22 126 pddp/pddplink http://puredata.info/downloads/pd-extended
;
#X obj 22 102 pddp/pddplink http://puredata.info/downloads/pure-data
;
#X text 22 90 Construit sous / Build under Pd-0.49...;
#X text 21 114 or Pd 0.43.4-extended;
#X obj 20 66 pddp/pddplink https://paresys.pagesperso-orange.fr/ARGOPd/
;
#X obj 20 42 pddp/pddplink https://github.com/gerardparesys/ARGOPd
;
#X restore 888 718 pd ??;
#X obj 866 391 tgl 15 0 empty empty empty 0 -6 0 10 -262144 -1 -1 0
1;
#X msg 866 410 topmost \$1;
#X obj 870 584 spigot 0;
#X msg 883 539 1;
#X obj 142 359 spigot 0;
#X obj 142 382 t b b b;
#X obj 142 334 spigot 0;
#X obj 505 279 t b f f;
#X obj 393 498 delay 30;
#X obj 280 527 delay 30;
#X obj 7 584 delay 30;
#X obj 700 99 receive Sendgemwin;
#X obj 258 718 send RenderGEM;
#X obj 948 718 send \$0-ColorGEM;
#X text 604 232 Sauve la fenetre GEM au format JPEG dans le dossier
du patch;
#X text 586 223 <- Save the GEM window in JPEG format in the patch
folder;
#X text 587 247 <- Clear and Grade only work in SingleBuffer;
#X text 606 258 Clear et Grade ne fonctionne qu'en SingleBuffer;
#X obj 741 287 cnv 15 150 20 empty empty empty 20 12 0 14 -258113 -66577
0;
#X text 746 289 Pb Save Red Gem 0.94;
#X obj 7 606 t b b b b;
#X obj 7 634 delay 300;
#X msg 7 658 bang;
#X msg 871 658 0 \, destroy;
#X msg 711 658 reset \, FSAA 4 \, buffer \$1;
#X obj 370 388 t b b b;
#X obj 448 279 t b f b;
#X obj 372 279 t b f f;
#X msg 914 539 0;
#X obj 461 718 gemwin;
#X obj 505 219 nbx 3 12 -100 1000 0 1 \$0-A \$0-ColorGEM Offset 37
7 1 11 -24198 -1 -24198 30 256;
#X msg 370 623 offset \$1 \$1;
#X obj 916 632 bng 15 250 50 0 empty empty empty 17 7 0 10 -262144
-1 -1;
#X obj 280 550 t b b b b;
#N canvas 275 146 715 493 KeyShortCut 0;
#X obj 467 22 key;
#X obj 467 70 spigot;
#X obj 335 22 gemkeyname;
#X obj 238 137 select 27;
#X msg 173 227 0;
#X obj 302 70 spigot;
#X obj 335 45 == 0;
#X obj 173 202 t b b;
#X msg 206 227 set 1;
#X obj 467 137 select 70 102 71 103 66 98 76 108;
#X obj 69 22 receive SendGEM;
#X obj 302 137 sel f F g G b B l L Escape;
#X obj 173 22 gemkeyboard;
#X obj 173 137 select 53;
#X text 7 136 Quit fullscreen with Esc ->;
#X text 166 351 (G)EM;
#X obj 168 335 outlet;
#X text 293 351 (B)arMenu;
#X obj 304 335 outlet;
#X text 389 351 (L)ight;
#X obj 389 335 outlet;
#X text 449 351 (F)ullScreen;
#X obj 467 335 outlet;
#X text 495 5 KeyShortCut;
#X obj 515 22 inlet;
#X obj 232 335 outlet;
#X text 137 399 esc key -> gemkeyboard -> 27 Windows & MacOS Pd-ceammc
;
#X text 137 411 esc key -> gemkeyboard -> 53 MacOS Pd-extended & Pd-Vanilla
;
#X text 137 423 esc key -> gemkeyboard -> 9 Ubuntu20.04 Pd0.50.2 GEM0.94
;
#X text 137 435 esc key -> gemkeyboard -> nothing MacOS Pd0.50.2 GEM0.94
;
#X connect 0 0 1 0;
#X connect 0 0 3 0;
#X connect 1 0 9 0;
#X connect 2 0 6 0;
#X connect 2 1 5 0;
#X connect 3 0 7 0;
#X connect 4 0 22 0;
#X connect 5 0 11 0;
#X connect 6 0 5 1;
#X connect 7 0 4 0;
#X connect 7 1 8 0;
#X connect 8 0 18 0;
#X connect 8 0 25 0;
#X connect 9 0 22 0;
#X connect 9 1 22 0;
#X connect 9 2 16 0;
#X connect 9 3 16 0;
#X connect 9 4 18 0;
#X connect 9 5 18 0;
#X connect 9 6 20 0;
#X connect 9 7 20 0;
#X connect 10 0 16 0;
#X connect 11 0 22 0;
#X connect 11 1 22 0;
#X connect 11 2 16 0;
#X connect 11 3 16 0;
#X connect 11 4 18 0;
#X connect 11 5 18 0;
#X connect 11 6 20 0;
#X connect 11 7 20 0;
#X connect 11 8 7 0;
#X connect 12 0 13 0;
#X connect 12 0 3 0;
#X connect 13 0 7 0;
#X connect 24 0 1 1;
#X restore 307 99 pd KeyShortCut;
#X text 590 165 14 4 2021;
#X connect 1 0 80 0;
#X connect 2 0 100 0;
#X connect 3 0 107 0;
#X connect 4 0 5 0;
#X connect 5 0 32 0;
#X connect 5 0 77 1;
#X connect 6 0 102 0;
#X connect 7 0 9 0;
#X connect 7 1 8 0;
#X connect 8 0 86 0;
#X connect 9 0 86 0;
#X connect 11 0 12 0;
#X connect 12 0 79 0;
#X connect 12 1 13 0;
#X connect 13 0 11 0;
#X connect 13 1 34 0;
#X connect 14 0 79 0;
#X connect 14 1 37 0;
#X connect 15 0 14 0;
#X connect 16 0 27 0;
#X connect 17 0 25 0;
#X connect 18 0 20 0;
#X connect 19 0 22 0;
#X connect 20 0 5 0;
#X connect 20 1 21 0;
#X connect 21 0 26 1;
#X connect 22 0 102 0;
#X connect 23 0 102 0;
#X connect 24 0 102 0;
#X connect 25 0 24 0;
#X connect 26 0 31 0;
#X connect 27 0 23 0;
#X connect 30 0 76 0;
#X connect 30 0 102 0;
#X connect 31 0 102 0;
#X connect 32 0 98 0;
#X connect 32 1 75 0;
#X connect 33 0 40 0;
#X connect 34 0 102 0;
#X connect 35 0 79 1;
#X connect 35 0 85 0;
#X connect 35 0 102 0;
#X connect 36 0 42 0;
#X connect 36 1 41 0;
#X connect 36 2 42 0;
#X connect 37 0 38 0;
#X connect 38 0 39 0;
#X connect 39 0 102 0;
#X connect 40 0 26 0;
#X connect 41 0 81 0;
#X connect 41 1 38 0;
#X connect 41 2 40 0;
#X connect 42 0 82 0;
#X connect 42 1 40 0;
#X connect 42 2 43 0;
#X connect 43 0 34 0;
#X connect 44 0 43 1;
#X connect 45 0 36 0;
#X connect 46 0 97 0;
#X connect 47 0 99 0;
#X connect 48 0 95 0;
#X connect 49 0 50 0;
#X connect 49 1 51 0;
#X connect 50 0 46 0;
#X connect 51 0 46 0;
#X connect 52 0 53 0;
#X connect 54 0 62 0;
#X connect 56 0 61 0;
#X connect 57 0 61 0;
#X connect 58 0 61 0;
#X connect 59 0 61 0;
#X connect 60 0 61 0;
#X connect 61 0 102 0;
#X connect 63 0 6 0;
#X connect 73 0 74 0;
#X connect 74 0 102 0;
#X connect 75 0 96 0;
#X connect 76 0 75 1;
#X connect 77 0 78 0;
#X connect 78 0 45 0;
#X connect 78 1 46 0;
#X connect 78 2 75 0;
#X connect 79 0 77 0;
#X connect 80 0 79 0;
#X connect 80 1 44 0;
#X connect 80 2 33 0;
#X connect 81 0 34 0;
#X connect 81 0 82 0;
#X connect 82 0 106 0;
#X connect 83 0 93 0;
#X connect 84 0 102 0;
#X connect 93 0 94 0;
#X connect 93 1 27 0;
#X connect 93 2 25 0;
#X connect 93 3 35 0;
#X connect 94 0 95 0;
#X connect 95 0 102 0;
#X connect 96 0 101 0;
#X connect 96 0 102 0;
#X connect 97 0 102 0;
#X connect 98 0 45 0;
#X connect 98 1 46 0;
#X connect 99 0 5 0;
#X connect 99 1 49 0;
#X connect 99 2 75 0;
#X connect 100 0 5 0;
#X connect 100 1 4 0;
#X connect 100 2 7 0;
#X connect 101 0 75 1;
#X connect 103 0 104 0;
#X connect 104 0 102 0;
#X connect 105 0 96 0;
#X connect 106 0 83 0;
#X connect 106 1 63 0;
#X connect 106 2 30 0;
#X connect 106 3 103 0;
#X connect 107 0 2 0;
#X connect 107 1 38 0;
#X connect 107 2 15 0;
#X connect 107 3 16 0;
#X connect 107 4 1 0;
#X coords 0 -1 1 1 185 114 1 400 150;
#X restore 82 27 pd ARGO;
#X obj 428 435 cnv 15 34 16 empty empty empty 20 12 0 14 -24198 -66577
0;
#N canvas 353 174 333 161 ?? 0;
#X obj 17 89 cnv 15 300 56 empty empty empty 20 12 0 14 -224896 -66577
0;
#X obj 17 12 cnv 18 300 70 empty empty ARGOPdMiniModules 3 10 1 14
-4033 -1 1.04858e+06;
#X obj 40 32 cnv 10 10 10 empty empty Gerard 0 5 1 11 -4033 -1 1.04858e+06
;
#X obj 78 32 cnv 10 10 10 empty empty Paresys 0 5 1 11 -4033 -1 1.04858e+06
;
#X obj 20 54 pddp/pddplink http://gerard.paresys.free.fr/ARGOPd/;
#X obj 22 126 pddp/pddplink http://puredata.info/downloads/pd-extended
;
#X obj 22 102 pddp/pddplink http://puredata.info/downloads/pure-data
;
#X text 22 90 Construit sous / Build under Pd-0.49...;
#X text 21 114 or Pd 0.43.4-extended;
#X obj 20 66 pddp/pddplink https://paresys.pagesperso-orange.fr/ARGOPd/
;
#X obj 20 42 pddp/pddplink https://github.com/gerardparesys/ARGOPd
;
#X restore 428 435 pd ??;
#X connect 2 0 22 0;
#X connect 3 0 15 0;
#X connect 4 0 2 0;
#X connect 4 2 14 0;
#X connect 10 0 14 0;
#X connect 13 0 14 0;
#X connect 14 0 17 0;
#X connect 14 1 18 0;
#X connect 16 0 13 0;
#X connect 17 0 15 1;
#X connect 18 0 15 2;
#X connect 22 0 3 0;
#X connect 33 0 4 0;
