#N canvas 525 23 454 506 10;
#X obj 28 226 switch~;
#N canvas 608 166 228 173 ARGOnOff 0;
#X obj 100 100 tgl 18 1 \$0-SendOnOff \$0-ReceiveOnOff On/Off 20 11
1 14 -4033 -1 -1 1 1;
#X obj 99 10 loadbang;
#X msg 99 33 \; pd dsp 1;
#X obj 100 129 outlet;
#X text -50 99 Audio On/Off du patch ->;
#X text -22 45 Audio General On ->;
#X text 107 82 17 3 2010;
#X connect 0 0 3 0;
#X connect 1 0 2 0;
#X coords 0 -1 1 1 65 18 2 100 100;
#X restore 28 208 pd ARGOnOff;
#X text 33 192 V;
#X text 33 185 |;
#X text 21 174 On/Off Patch;
#N canvas 362 44 498 321 ARGO 0;
#X obj 101 101 cnv 10 275 125 empty ColorForm Equalizer-13b. 182 11
1 14 -188398 -1 1.04858e+06;
#X obj 101 222 cnv 4 10 4 empty empty empty 20 12 0 14 -1 -66577 0
;
#X obj 101 101 cnv 4 10 4 empty empty empty 20 12 0 14 -1 -66577 0
;
#X obj 84 19 inlet~;
#X obj 49 289 outlet~;
#X obj 12 17 cnv 15 60 30 empty empty empty 20 12 0 14 -24198 -66577
0;
#N canvas 419 202 372 229 Help 0;
#X text 22 12 Equalizer-13b;
#X text 23 34 Reference & inspiration:;
#X text 23 47 output2~.pd;
#X text 38 60 By ShawnPD;
#X text 38 73 By Zero Response;
#X obj 23 86 pddp/pddplink http://puredata.info/author/ShawnPD;
#X text 24 115 utilise para_bp2~ (library iemlib);
#X text 24 128 parametric bandpass 2.order;
#X text 88 166 IEM KUG;
#X text 64 154 musil;
#X text 102 154 @;
#X text 111 154 iem.at;
#X text 71 176 Graz \, Austria;
#X text 23 143 (c) Thomas Musil 2000 - 2011;
#X restore 19 23 pd Help;
#X obj 348 19 inlet~;
#X obj 366 101 cnv 4 10 4 empty empty empty 20 12 0 14 -1 -66577 0
;
#X obj 258 289 outlet~;
#X obj 101 106 cnv 5 30 12 empty ColorForm empty 0 0 1 9 -188398 -1
1.04858e+06;
#X obj 366 222 cnv 4 10 4 empty empty empty 20 12 0 14 -1 -66577 0
;
#X obj 184 104 bng 12 250 50 0 \$0-A \$0-B Normal 14 6 1 9 -188398
-1 -1;
#X obj 100 122 vsl 20 96 0 1.5 0 1 \$0-A \$0-B empty 0 -9 0 10 -133152
-1 -262144 1000 0;
#X obj 120 122 vsl 20 96 0 1.5 0 1 \$0-A \$0-B empty 0 -9 0 10 -137314
-1 -262144 1000 0;
#X obj 140 122 vsl 20 96 0 1.5 0 1 \$0-A \$0-B empty 0 -9 0 10 -149797
-1 -262144 8500 0;
#X obj 160 122 vsl 20 96 0 1.5 0 1 \$0-A \$0-B empty 0 -9 0 10 -153958
-1 -262144 0 0;
#X msg 258 65 0.157895;
#X msg 258 41 set \$1;
#X obj 231 17 t b f;
#X obj 180 122 vsl 20 96 0 1.5 0 1 \$0-A \$0-B empty 0 -9 0 10 -170602
-1 -262144 1000 0;
#X obj 200 122 vsl 20 96 0 1.5 0 1 \$0-A \$0-B empty 0 -9 0 10 -174763
-1 -262144 1000 0;
#X obj 220 122 vsl 20 96 0 1.5 0 1 \$0-A \$0-B empty 0 -9 0 10 -183085
-1 -262144 1000 0;
#X obj 239 122 vsl 20 96 0 1.5 0 1 \$0-A \$0-B empty 0 -9 0 10 -195568
-1 -262144 8500 0;
#X obj 257 122 vsl 20 96 0 1.5 0 1 \$0-A \$0-B empty 0 -9 0 10 -203890
-1 -262144 1200 0;
#X obj 277 122 vsl 20 96 0 1.5 0 1 \$0-A \$0-B empty 0 -9 0 10 -216373
-1 -262144 8400 0;
#X obj 297 122 vsl 20 96 0 1.5 0 1 \$0-A \$0-B empty 0 -9 0 10 -237178
-1 -262144 1000 0;
#X obj 317 122 vsl 20 96 0 1.5 0 1 \$0-A \$0-B empty 0 -9 0 10 -257983
-1 -262144 1000 0;
#X obj 337 122 vsl 20 96 0 1.5 0 1 \$0-A \$0-B empty 0 -9 0 10 -262144
-1 -262144 1000 0;
#X obj 357 122 vsl 20 96 0 1.5 0 0 \$0-A \$0-B empty 0 -9 0 10 -258113
-1 -1 0 0;
#X msg 358 76 0.5;
#N canvas 410 200 647 479 equalizer13bands-------------- 0;
#X obj 21 27 inlet~;
#X obj 14 453 outlet~;
#X obj 17 199 iemlib/para_bp2~ 150 0.4 0 10;
#X obj 17 220 iemlib/para_bp2~ 300 0.5 0 10;
#X obj 16 241 iemlib/para_bp2~ 600 1 0 10;
#X obj 17 263 iemlib/para_bp2~ 1000 2 0 10;
#X obj 16 283 iemlib/para_bp2~ 1500 2 0 10;
#X obj 16 304 iemlib/para_bp2~ 2500 1.5 0 10;
#X obj 15 325 iemlib/para_bp2~ 4000 1.5 0 10;
#X obj 97 27 inlet;
#X obj 136 27 inlet;
#X obj 172 27 inlet;
#X obj 211 27 inlet;
#X obj 248 26 inlet;
#X obj 287 26 inlet;
#X obj 323 26 inlet;
#X obj 362 26 inlet;
#X obj 400 26 inlet;
#X obj 439 26 inlet;
#X obj 475 26 inlet;
#X obj 97 50 expr if ($f1<0.5 \, ($f1-0.5)*80 \, ($f1-0.5)*20);
#X obj 113 72 expr if ($f1<0.5 \, ($f1-0.5)*80 \, ($f1-0.5)*20);
#X obj 132 93 expr if ($f1<0.5 \, ($f1-0.5)*80 \, ($f1-0.5)*20);
#X obj 148 115 expr if ($f1<0.5 \, ($f1-0.5)*80 \, ($f1-0.5)*20);
#X obj 166 136 expr if ($f1<0.5 \, ($f1-0.5)*80 \, ($f1-0.5)*20);
#X obj 182 158 expr if ($f1<0.5 \, ($f1-0.5)*80 \, ($f1-0.5)*20);
#X obj 201 179 expr if ($f1<0.5 \, ($f1-0.5)*80 \, ($f1-0.5)*20);
#X obj 217 201 expr if ($f1<0.5 \, ($f1-0.5)*80 \, ($f1-0.5)*20);
#X obj 227 222 expr if ($f1<0.5 \, ($f1-0.5)*80 \, ($f1-0.5)*20);
#X obj 246 243 expr if ($f1<0.5 \, ($f1-0.5)*80 \, ($f1-0.5)*20);
#X obj 262 265 expr if ($f1<0.5 \, ($f1-0.5)*80 \, ($f1-0.5)*20);
#X obj 14 366 iemlib/para_bp2~ 7000 1 0 10;
#X obj 15 346 iemlib/para_bp2~ 5500 1.5 0 10;
#X obj 13 386 iemlib/para_bp2~ 10000 0.5 0 10;
#X obj 19 154 hip~ 20;
#X obj 13 407 iemlib/para_bp2~ 15000 0.5 0 10;
#X obj 274 288 expr if ($f1<0.5 \, ($f1-0.5)*80 \, ($f1-0.5)*20);
#X obj 516 26 inlet;
#X obj 280 313 expr if ($f1<0.5 \, ($f1-0.5)*80 \, ($f1-0.5)*20);
#X obj 553 26 inlet;
#X obj 14 427 iemlib/para_bp2~ 20000 0.2 0 10;
#X text 259 4 0 ... 1.5 = -40dB ... + 20dB;
#X obj 18 178 iemlib/para_bp2~ 20 0.2 0 10;
#X connect 0 0 34 0;
#X connect 2 0 3 0;
#X connect 3 0 4 0;
#X connect 4 0 5 0;
#X connect 5 0 6 0;
#X connect 6 0 7 0;
#X connect 7 0 8 0;
#X connect 8 0 32 0;
#X connect 9 0 20 0;
#X connect 10 0 21 0;
#X connect 11 0 22 0;
#X connect 12 0 23 0;
#X connect 13 0 24 0;
#X connect 14 0 25 0;
#X connect 15 0 26 0;
#X connect 16 0 27 0;
#X connect 17 0 28 0;
#X connect 18 0 29 0;
#X connect 19 0 30 0;
#X connect 20 0 42 3;
#X connect 21 0 2 3;
#X connect 22 0 3 3;
#X connect 23 0 4 3;
#X connect 24 0 5 3;
#X connect 25 0 6 3;
#X connect 26 0 7 3;
#X connect 27 0 8 3;
#X connect 28 0 32 3;
#X connect 29 0 31 3;
#X connect 30 0 33 3;
#X connect 31 0 33 0;
#X connect 32 0 31 0;
#X connect 33 0 35 0;
#X connect 34 0 42 0;
#X connect 35 0 40 0;
#X connect 36 0 35 3;
#X connect 37 0 36 0;
#X connect 38 0 40 3;
#X connect 39 0 38 0;
#X connect 40 0 1 0;
#X connect 42 0 2 0;
#X restore 49 260 pd equalizer13bands--------------;
#N canvas 361 23 632 488 equalizer13bands-------------- 0;
#X obj 35 22 inlet~;
#X obj 25 455 outlet~;
#X obj 30 173 iemlib/para_bp2~ 20 0.2 0 10;
#X obj 29 194 iemlib/para_bp2~ 150 0.4 0 10;
#X obj 29 215 iemlib/para_bp2~ 300 0.5 0 10;
#X obj 28 236 iemlib/para_bp2~ 600 1 0 10;
#X obj 29 258 iemlib/para_bp2~ 1000 2 0 10;
#X obj 28 278 iemlib/para_bp2~ 1500 2 0 10;
#X obj 28 299 iemlib/para_bp2~ 2500 1.5 0 10;
#X obj 27 320 iemlib/para_bp2~ 4000 1.5 0 10;
#X obj 109 22 inlet;
#X obj 148 22 inlet;
#X obj 184 22 inlet;
#X obj 223 22 inlet;
#X obj 260 21 inlet;
#X obj 299 21 inlet;
#X obj 335 21 inlet;
#X obj 374 21 inlet;
#X obj 412 21 inlet;
#X obj 451 21 inlet;
#X obj 487 21 inlet;
#X obj 109 45 expr if ($f1<0.5 \, ($f1-0.5)*80 \, ($f1-0.5)*20);
#X obj 125 67 expr if ($f1<0.5 \, ($f1-0.5)*80 \, ($f1-0.5)*20);
#X obj 144 88 expr if ($f1<0.5 \, ($f1-0.5)*80 \, ($f1-0.5)*20);
#X obj 160 110 expr if ($f1<0.5 \, ($f1-0.5)*80 \, ($f1-0.5)*20);
#X obj 178 131 expr if ($f1<0.5 \, ($f1-0.5)*80 \, ($f1-0.5)*20);
#X obj 194 153 expr if ($f1<0.5 \, ($f1-0.5)*80 \, ($f1-0.5)*20);
#X obj 213 174 expr if ($f1<0.5 \, ($f1-0.5)*80 \, ($f1-0.5)*20);
#X obj 229 196 expr if ($f1<0.5 \, ($f1-0.5)*80 \, ($f1-0.5)*20);
#X obj 239 217 expr if ($f1<0.5 \, ($f1-0.5)*80 \, ($f1-0.5)*20);
#X obj 258 238 expr if ($f1<0.5 \, ($f1-0.5)*80 \, ($f1-0.5)*20);
#X obj 274 260 expr if ($f1<0.5 \, ($f1-0.5)*80 \, ($f1-0.5)*20);
#X obj 26 361 iemlib/para_bp2~ 7000 1 0 10;
#X obj 27 341 iemlib/para_bp2~ 5500 1.5 0 10;
#X obj 25 381 iemlib/para_bp2~ 10000 0.5 0 10;
#X obj 31 149 hip~ 20;
#X obj 25 402 iemlib/para_bp2~ 15000 0.5 0 10;
#X obj 286 283 expr if ($f1<0.5 \, ($f1-0.5)*80 \, ($f1-0.5)*20);
#X obj 528 21 inlet;
#X obj 292 308 expr if ($f1<0.5 \, ($f1-0.5)*80 \, ($f1-0.5)*20);
#X obj 565 21 inlet;
#X obj 26 422 iemlib/para_bp2~ 20000 0.2 0 10;
#X connect 0 0 35 0;
#X connect 2 0 3 0;
#X connect 3 0 4 0;
#X connect 4 0 5 0;
#X connect 5 0 6 0;
#X connect 6 0 7 0;
#X connect 7 0 8 0;
#X connect 8 0 9 0;
#X connect 9 0 33 0;
#X connect 10 0 21 0;
#X connect 11 0 22 0;
#X connect 12 0 23 0;
#X connect 13 0 24 0;
#X connect 14 0 25 0;
#X connect 15 0 26 0;
#X connect 16 0 27 0;
#X connect 17 0 28 0;
#X connect 18 0 29 0;
#X connect 19 0 30 0;
#X connect 20 0 31 0;
#X connect 21 0 2 3;
#X connect 22 0 3 3;
#X connect 23 0 4 3;
#X connect 24 0 5 3;
#X connect 25 0 6 3;
#X connect 26 0 7 3;
#X connect 27 0 8 3;
#X connect 28 0 9 3;
#X connect 29 0 33 3;
#X connect 30 0 32 3;
#X connect 31 0 34 3;
#X connect 32 0 34 0;
#X connect 33 0 32 0;
#X connect 34 0 36 0;
#X connect 35 0 2 0;
#X connect 36 0 41 0;
#X connect 37 0 36 3;
#X connect 38 0 37 0;
#X connect 39 0 41 3;
#X connect 40 0 39 0;
#X connect 41 0 1 0;
#X restore 258 260 pd equalizer13bands--------------;
#X obj 416 282 cnv 15 52 22 empty empty empty 20 12 0 14 -24198 -66577
0;
#N canvas 353 174 321 152 ?... 0;
#X obj 8 84 cnv 15 300 56 empty empty empty 20 12 0 14 -224896 -66577
0;
#X obj 8 7 cnv 18 300 70 empty empty ARGOPdMiniModules 3 10 1 14 -4033
-1 1.04858e+06;
#X obj 31 27 cnv 10 10 10 empty empty Gerard 0 5 1 11 -4033 -1 1.04858e+06
;
#X obj 69 27 cnv 10 10 10 empty empty Paresys 0 5 1 11 -4033 -1 1.04858e+06
;
#X obj 12 40 pddp/pddplink http://gerard.paresys.free.fr/ARGOPd/;
#X obj 13 121 pddp/pddplink http://puredata.info/downloads/pd-extended
;
#X obj 13 97 pddp/pddplink http://puredata.info/downloads/pure-data
;
#X text 13 85 Construit sous / Build under Pd-0.49...;
#X text 12 109 or Pd 0.43.4-extended;
#X obj 12 53 pddp/pddplink https://paresys.pagesperso-orange.fr/ARGOPd/
;
#X restore 419 285 pd ?...;
#X text 381 102 24 8 2019;
#X connect 3 0 31 0;
#X connect 7 0 32 0;
#X connect 12 0 30 0;
#X connect 13 0 31 1;
#X connect 13 0 32 1;
#X connect 14 0 31 2;
#X connect 14 0 32 2;
#X connect 15 0 31 3;
#X connect 15 0 32 3;
#X connect 16 0 31 4;
#X connect 16 0 32 4;
#X connect 17 0 28 0;
#X connect 17 0 27 0;
#X connect 17 0 26 0;
#X connect 17 0 25 0;
#X connect 17 0 24 0;
#X connect 17 0 23 0;
#X connect 17 0 22 0;
#X connect 17 0 21 0;
#X connect 17 0 20 0;
#X connect 17 0 16 0;
#X connect 17 0 15 0;
#X connect 17 0 14 0;
#X connect 17 0 13 0;
#X connect 18 0 17 0;
#X connect 19 0 17 0;
#X connect 19 1 18 0;
#X connect 20 0 31 5;
#X connect 20 0 32 5;
#X connect 21 0 31 6;
#X connect 21 0 32 6;
#X connect 22 0 31 7;
#X connect 22 0 32 7;
#X connect 23 0 31 8;
#X connect 23 0 32 8;
#X connect 24 0 31 9;
#X connect 24 0 32 9;
#X connect 25 0 31 10;
#X connect 25 0 32 10;
#X connect 26 0 31 11;
#X connect 26 0 32 11;
#X connect 27 0 31 12;
#X connect 27 0 32 12;
#X connect 28 0 31 13;
#X connect 28 0 32 13;
#X connect 29 0 19 0;
#X connect 30 0 29 0;
#X connect 31 0 4 0;
#X connect 32 0 9 0;
#X coords 0 -1 1 1 277 127 1 100 100;
#X restore 158 146 pd ARGO;
#N canvas 295 212 217 197 ARGO 0;
#X obj 110 105 cnv 10 20 10 empty empty WhiteNoise 1 5 1 14 -262144
-1 1.04858e+06;
#X obj 101 113 cnv 4 10 4 empty empty empty 20 12 0 14 -1 -66577 0
;
#X obj 87 153 outlet~;
#X obj 87 124 noise~;
#X connect 3 0 2 0;
#X coords 0 -1 1 1 95 18 2 100 100;
#X restore 19 33 pd ARGO;
#N canvas 295 212 217 197 ARGO 0;
#X obj 110 105 cnv 10 20 10 empty empty WhiteNoise 1 5 1 14 -262144
-1 1.04858e+06;
#X obj 101 113 cnv 4 10 4 empty empty empty 20 12 0 14 -1 -66577 0
;
#X obj 87 153 outlet~;
#X obj 87 124 noise~;
#X connect 3 0 2 0;
#X coords 0 -1 1 1 95 18 2 100 100;
#X restore 42 58 pd ARGO;
#X obj 10 10 cnv 15 15 15 empty empty ExMM175a-Filter-Equalizer.pd
0 8 1 14 -262144 -66577 0;
#N canvas 293 120 776 424 ARGO 0;
#X obj 319 104 cnv 10 20 10 empty empty Audio-Play. 1 5 1 14 -262144
-1 1.04858e+06;
#X obj 101 131 cnv 4 10 4 empty empty empty 20 12 0 14 -1 -66577 0
;
#X obj 111 317 outlet~;
#X obj -14 44 openpanel;
#X msg 25 100 set \$1;
#X obj -67 -45 loadbang;
#X text 14 260 avec espace;
#X obj 194 101 tgl 12 1 \$0-A \$0-B Play-4.8sec 14 6 1 9 -262144 -1
-1 1 1;
#X obj 158 101 bng 12 250 50 0 \$0-A \$0-B Stop 14 6 1 9 -262144 -1
-1;
#X obj 121 101 tgl 12 1 \$0-A \$0-B Loop 14 6 1 9 -262144 -1 -1 0 1
;
#X obj 100 101 bng 12 250 50 0 \$0-A \$0-B empty 14 6 1 9 -262144 -1
-1;
#X obj -14 22 bang;
#X obj -5 146 cnv 15 400 50 empty empty empty 20 12 0 14 -260097 -66577
0;
#X text -3 145 Nom du fichier / File name;
#X obj 101 101 cnv 4 10 4 empty empty empty 20 12 0 14 -260097 -66577
0;
#X obj 388 123 bng 12 50 20 0 \$0-A \$0-B empty 0 0 1 9 -262144 -1
-1;
#X obj 389 131 cnv 4 10 4 empty empty empty 20 12 0 14 -260097 -66577
0;
#X obj -7 -48 cnv 15 240 24 empty empty empty 20 12 0 14 -261682 -66577
0;
#X obj -6 -45 inlet;
#X obj 382 313 cnv 15 240 24 empty empty empty 20 12 0 14 -261682 -66577
0;
#X text 432 311 -> Bang à la fin du fichier;
#X text 433 321 -> Bang at the end of the file;
#X obj 387 317 outlet;
#X obj 97 -18 r \$0-SendOnOff;
#X obj 97 5 select 0;
#X obj 507 80 cnv 15 60 30 empty empty empty 20 12 0 14 -24198 -66577
0;
#N canvas 274 41 583 622 Help 0;
#X obj 15 147 cnv 15 400 100 empty empty empty 20 12 0 14 -233017 -66577
0;
#X text 18 146 Citation;
#X obj 14 392 cnv 15 550 310 empty empty empty 20 12 0 14 -258113 -66577
0;
#X text 26 399 - Ne lit pas un fichier au format mp3 \, SoundDesigner
II (.SDII ou .SD2);
#X text 29 499 Solution: ouvrir puis sauver le fichier au format aiff
avec Audacity;
#X text 42 486 error: dsp: xxx.aiff: unknown or bad header format;
#X text 37 162 READSF~ - read a soundfile;
#X text 36 180 The wave \, aiff \, and nextstep formats are parsed
automatically \, although only 2- 3- and 4- byte samples are accepted
(4 bytes implies floating point and is not available in aiff format.)
;
#X text 19 254 - Si le Patch est sauvé avec 1 Player contenant un nom
de fichier Audio \, ce fichier sera lu automatiquement à la prochaine
ouverture s'il n'a pas changé d'emplacement.;
#X text 27 538 - ATTENTION Le taux d'échantillonnage de la lecture
du fichier dépends du taux d'échantillonnage de Pd.;
#X text 39 565 Si le taux d'échantillonnage de Pd est de 44100 (Menu
Preferences -> Audio Settings...) \, les fichiers échantillonnés à
44100 Hz sont lus correctement \, sinon ils sont transposés.;
#X text 18 300 - Peut Ouvrir automatiquement 1 fichier qui se trouve
dans le même dossier que lui \, quelquesoit l'emplacement du dossier.
Pour cela ouvrir le module et taper le nom du fichier (sans chemin
d'accés) dans le message. Le dossier contenant le patch et le fichier
Audio est ainsi transportable.;
#X text 27 447 - Ne lit pas un fichier au format aiff "Entier petit
boutien" comme les pistes d'un CD Audio copiées avec le finder du Mac.
Le message d'erreur s'affichent:;
#X text 5 4 MM Audio-Play;
#X text 199 622 WARNING The sample rate of the output depends on the
system sample rate of Pd:;
#X text 197 649 If the sample rate of Pd is set to 44100 \, files having
the sample rates of 44100 are correctly played \, other files will
be transposed.;
#X text 200 99 A Mono Audio file is read on the left output.;
#X text 30 37 Le canal d'un fichier Audio Mono est lu sur la sortie
1;
#X text 30 24 Lit un fichier Audio 2 canaux au format aiff \, wav.
;
#X text 30 50 Les canaux 3 \, 4... d'un fichier Audio de plus de 2
canaux ne sont pas lus.;
#X text 199 72 Reads a 2 channels Audio file with aiff \, wav format..
;
#X text 200 113 Channels 3 \, 4... of an Audio file of more than 2
channels are not read.;
#X restore 514 86 pd Help;
#X obj -14 67 t b b s;
#X obj 389 101 cnv 4 10 4 empty empty empty 20 12 0 14 -260097 -66577
0;
#X obj 481 -48 cnv 15 200 24 empty empty empty 20 12 0 14 -261682 -66577
0;
#X obj 485 -45 inlet;
#X text 522 -50 <- Nom d'un fichier Audio;
#X text 523 -40 <- Name of an Audio file;
#X text 12 239 list2symbol pour;
#X text 12 250 les noms de fichier;
#X obj 293 101 cnv 4 10 4 empty empty empty 20 12 0 14 -260097 -66577
0;
#X obj 237 -48 cnv 15 240 24 empty empty empty 20 12 0 14 -261682 -66577
0;
#X obj 241 -45 inlet;
#X text 278 -50 <- Nom d'un fichier Audio + Play;
#X text 279 -40 <- Name of an Audio file + Play;
#X text 415 172 ../ before the name goes up one level;
#X text 31 -51 <- N'importe quel message -> Play;
#X text 31 -40 <- Any message -> Play;
#X obj 193 -19 cnv 15 100 24 empty empty empty 20 12 0 14 -261682 -66577
0;
#X obj 194 -16 inlet;
#X text 231 -22 <- 1 Play;
#X text 231 -11 <- 0 Stop;
#X obj 195 102 cnv 4 10 4 empty empty empty 20 12 0 14 -260097 -66577
0;
#N canvas 238 155 791 372 player 0;
#X msg 235 158 1;
#X msg 204 158 0;
#X msg 120 158 open \$1;
#X obj 189 93 t b b;
#X msg 321 95 set 0;
#X obj 188 59 sel 1 0;
#X obj 263 95 sel 1;
#X msg 276 158 set 1;
#X obj 263 56 f;
#X obj 188 34 f;
#X obj 235 295 outlet;
#X text 237 311 readsf;
#X obj 321 9 inlet;
#X text 323 -20 bang;
#X obj 321 295 outlet;
#X text 331 324 Play;
#X obj 253 9 inlet;
#X text 258 -8 Loop;
#X obj 127 9 inlet;
#X text 132 -9 Stop;
#X obj 15 9 inlet;
#X text 20 -8 Open;
#X text 144 324 Trig Decl;
#X text 157 311 bang;
#X obj 149 295 outlet;
#X text 305 -8 End of file;
#X obj 188 9 inlet;
#X text 193 -8 Play;
#X obj 68 295 outlet;
#X text 46 311 Nom du fichier;
#X text 52 324 File name;
#X text 57 -8 Trig Decl;
#X text 70 -20 bang;
#X obj 72 9 inlet;
#X obj 258 128 delay 2;
#X text 189 -20 Toggle;
#X text 327 311 Toggle;
#N canvas 448 247 285 285 chrono 0;
#X obj 65 116 metro 100;
#X obj 112 173 float;
#X obj 161 143 + 1;
#X msg 128 116 0;
#X obj 84 85 t b b;
#X obj 84 61 inlet;
#X obj 112 230 outlet;
#X obj 112 198 / 10;
#X text 82 14 chrono;
#X obj 218 61 inlet;
#X msg 218 88 0;
#X obj 161 117 * 10;
#X text 113 245 number;
#X text 80 39 Start;
#X text 218 41 Stop;
#X connect 0 0 1 0;
#X connect 1 0 7 0;
#X connect 2 0 1 1;
#X connect 3 0 1 0;
#X connect 4 0 0 0;
#X connect 4 1 3 0;
#X connect 5 0 4 0;
#X connect 7 0 6 0;
#X connect 7 0 11 0;
#X connect 9 0 10 0;
#X connect 10 0 0 0;
#X connect 11 0 2 0;
#X restore 331 199 pd chrono;
#X msg 330 264 label \$1;
#X obj 330 242 cyclone/tosymbol;
#X obj 331 221 cyclone/sprintf Play-%ssec;
#X connect 0 0 10 0;
#X connect 0 0 37 0;
#X connect 1 0 10 0;
#X connect 1 0 37 1;
#X connect 2 0 10 0;
#X connect 3 0 34 0;
#X connect 3 1 28 0;
#X connect 4 0 14 0;
#X connect 5 0 3 0;
#X connect 5 1 4 0;
#X connect 5 1 1 0;
#X connect 6 0 24 0;
#X connect 7 0 14 0;
#X connect 8 0 6 0;
#X connect 9 0 5 0;
#X connect 12 0 8 0;
#X connect 12 0 4 0;
#X connect 12 0 37 1;
#X connect 16 0 8 1;
#X connect 18 0 4 0;
#X connect 18 0 1 0;
#X connect 20 0 2 0;
#X connect 26 0 9 0;
#X connect 33 0 3 0;
#X connect 34 0 0 0;
#X connect 34 0 7 0;
#X connect 37 0 40 0;
#X connect 38 0 14 0;
#X connect 39 0 38 0;
#X connect 40 0 39 0;
#X restore 171 246 pd player;
#X obj 289 315 outlet~;
#X obj 243 131 cnv 4 10 4 empty empty empty 20 12 0 14 -1 -66577 0
;
#X obj 241 12 t b b a;
#X obj 485 12 t b b a;
#X text 397 160 <- ../ devant le nom remonte d'un dossier;
#X obj 0 201 zexy/list2symbol;
#X obj 280 52 zexy/list2symbol;
#X obj 103 116 hsl 279 14 0 127 0 0 \$0-A \$0-B empty -2 -8 0 10 -262144
-262144 -1 0 1;
#X symbolatom 100 116 47 0 0 0 - - -;
#X obj 629 314 cnv 15 42 25 empty empty empty 20 12 0 14 -24198 -66577
0;
#N canvas 336 174 309 137 ?. 0;
#X obj 3 83 cnv 15 300 46 empty empty empty 20 12 0 14 -224896 -66577
0;
#X obj 3 6 cnv 18 300 70 empty empty ARGOPdMiniModules 3 10 1 14 -4033
-1 1.04858e+06;
#X obj 26 26 cnv 10 10 10 empty empty Gerard 0 5 1 11 -4033 -1 1.04858e+06
;
#X obj 64 26 cnv 10 10 10 empty empty Paresys 0 5 1 11 -4033 -1 1.04858e+06
;
#X obj 7 37 pddp/pddplink http://gerard.paresys.free.fr/ARGOPd/;
#X text 8 85 Construit sous / Build under Pd 0.43.4-extended;
#X obj 8 111 pddp/pddplink http://puredata.info/downloads/pd-extended
;
#X obj 7 50 pddp/pddplink http://paresys.pagesperso-orange.fr/ARGOPd/
;
#X text 7 98 or Pd-0.46-7 + deken;
#X restore 633 318 pd ?.;
#X text 403 96 27 3 2017;
#X obj 214 274 readsf~ 2;
#X msg 0 162 BWV536.wav;
#X connect 3 0 27 0;
#X connect 4 0 62 0;
#X connect 5 0 62 0;
#X connect 7 0 48 3;
#X connect 8 0 48 2;
#X connect 9 0 48 4;
#X connect 10 0 48 1;
#X connect 11 0 3 0;
#X connect 15 0 22 0;
#X connect 18 0 10 0;
#X connect 23 0 24 0;
#X connect 24 0 8 0;
#X connect 27 0 48 3;
#X connect 27 1 62 0;
#X connect 27 2 4 0;
#X connect 30 0 52 0;
#X connect 37 0 51 0;
#X connect 44 0 7 0;
#X connect 48 0 62 0;
#X connect 48 1 10 0;
#X connect 48 2 61 0;
#X connect 48 3 7 0;
#X connect 51 0 10 0;
#X connect 51 1 62 0;
#X connect 51 2 55 0;
#X connect 52 0 48 2;
#X connect 52 1 62 0;
#X connect 52 2 55 0;
#X connect 54 0 48 0;
#X connect 54 0 57 0;
#X connect 55 0 4 0;
#X connect 56 0 11 0;
#X connect 61 0 2 0;
#X connect 61 1 49 0;
#X connect 61 2 48 5;
#X connect 61 2 15 0;
#X connect 62 0 54 0;
#X coords 0 -1 1 1 300 36 2 100 100;
#X restore 141 42 pd ARGO;
#X obj 233 472 dac~ 1 2;
#N canvas 175 68 381 386 ARGO 0;
#X obj 101 101 cnv 20 116 34 empty ColorAmpli empty 20 12 0 14 -261299
-1 1.04858e+06;
#X obj 85 353 outlet~;
#X obj 157 104 cnv 10 20 10 empty ColorAmpli Ampli. 1 5 1 14 -261299
-1 1.04858e+06;
#X obj 85 43 inlet~;
#X obj 85 330 *~;
#X obj 115 118 hsl 101 12 -80 20 0 1 \$0-A ColorAmpli -10dB 0 7 1 9
-261299 -1 -1 7000 0;
#X obj 101 101 cnv 4 10 4 empty empty empty 20 12 0 14 -1 -66577 0
;
#X obj 101 131 cnv 4 10 4 empty empty empty 20 12 0 14 -1 -66577 0
;
#X obj 207 101 cnv 4 10 4 empty empty empty 20 12 0 14 -1 -66577 0
;
#X obj 207 131 cnv 4 10 4 empty empty empty 20 12 0 14 -1 -66577 0
;
#X obj 222 352 outlet~;
#X obj 222 42 inlet~;
#X obj 222 329 *~;
#X msg -42 138 label \$1;
#X text 148 194 -> 0.0001..10 = -80dB..20dB;
#X obj 142 175 expr (pow(10 \, $f1 / 20));
#X obj 142 215 sel 0.0001;
#X msg 100 244 0;
#X obj 100 118 tgl 12 1 \$0-A \$0-B Mute 2 -5 1 9 -261299 -1 -1 0 1
;
#X obj 99 146 select 0 1;
#X obj 140 295 line~;
#X obj 140 275 pack 0 10;
#X msg 123 74 set 0;
#X obj -42 92 cyclone/sprintf %ddB;
#X text 228 110 6 3 2016;
#X obj -42 115 cyclone/tosymbol;
#X obj 273 344 cnv 15 42 25 empty empty empty 20 12 0 14 -24198 -66577
0;
#N canvas 336 174 309 137 ?. 0;
#X obj 3 83 cnv 15 300 46 empty empty empty 20 12 0 14 -224896 -66577
0;
#X obj 3 6 cnv 18 300 70 empty empty ARGOPdMiniModules 3 10 1 14 -4033
-1 1.04858e+06;
#X obj 26 26 cnv 10 10 10 empty empty Gerard 0 5 1 11 -4033 -1 1.04858e+06
;
#X obj 64 26 cnv 10 10 10 empty empty Paresys 0 5 1 11 -4033 -1 1.04858e+06
;
#X obj 7 37 pddp/pddplink http://gerard.paresys.free.fr/ARGOPd/;
#X text 8 85 Construit sous / Build under Pd 0.43.4-extended;
#X obj 8 111 pddp/pddplink http://puredata.info/downloads/pd-extended
;
#X obj 7 50 pddp/pddplink http://paresys.pagesperso-orange.fr/ARGOPd/
;
#X text 7 98 or Pd-0.46-7 + deken;
#X restore 277 348 pd ?.;
#X connect 3 0 4 0;
#X connect 4 0 1 0;
#X connect 5 0 15 0;
#X connect 5 0 23 0;
#X connect 11 0 12 0;
#X connect 12 0 10 0;
#X connect 13 0 5 0;
#X connect 15 0 16 0;
#X connect 16 0 17 0;
#X connect 16 1 21 0;
#X connect 16 1 22 0;
#X connect 17 0 21 0;
#X connect 17 0 25 0;
#X connect 18 0 19 0;
#X connect 19 0 5 0;
#X connect 19 1 17 0;
#X connect 20 0 12 1;
#X connect 20 0 4 1;
#X connect 21 0 20 0;
#X connect 22 0 18 0;
#X connect 23 0 25 0;
#X connect 25 0 13 0;
#X coords 0 -1 1 1 118 36 1 100 100;
#X restore 218 291 pd ARGO;
#N canvas 446 64 251 267 ARGO 0;
#X obj 101 104 cnv 30 49 130 empty ColorAmpli empty 20 12 0 14 -1 -258113
0;
#X obj 102 110 vu 8 120 \$0-B empty 0 0 1 11 -1 -4034 0 0;
#X obj 49 35 inlet~;
#X obj 22 108 cnv 15 60 30 empty empty empty 20 12 0 14 -24198 -66577
0;
#N canvas 300 65 442 264 Help 0;
#X obj 12 48 cnv 15 400 150 empty empty empty 20 12 0 14 -233017 -66577
0;
#X text 16 50 Citation;
#X text 28 67 peakamp~ tracks and outputs the absolute value of the
peak amplitude of the incoming signal. It outputs when banged or using
its own internal clock. The peak value is reset each time peakamp~
outputs a value.;
#X text 29 123 cyclone library;
#X text 28 135 http://suita.chopin.edu.pl/~czaja/miXed/externs/cyclone.html
;
#X text 29 155 Voir doc Max/MSP MSP46ReferenceManual.pdf;
#X text 18 14 MM-Vumetre;
#X restore 29 114 pd Help;
#N canvas 541 112 317 265 VuMetre 0;
#X obj 48 19 inlet~;
#X obj 41 54 *~;
#X obj -25 132 snapshot~;
#X obj -25 155 sqrt;
#X obj -25 100 lop~ 10;
#X obj -25 179 rmstodb;
#X obj -88 19 loadbang;
#X obj -25 202 - 100;
#X obj 58 156 sqrt;
#X obj 58 180 rmstodb;
#X obj 58 203 - 100;
#X obj -89 102 metro 200;
#X obj -28 19 r SendFluid;
#X obj 58 102 cyclone/peakamp~ 1000;
#X obj -25 228 outlet;
#X obj 58 227 outlet;
#X connect 0 0 1 0;
#X connect 0 0 1 1;
#X connect 1 0 4 0;
#X connect 1 0 13 0;
#X connect 2 0 3 0;
#X connect 3 0 5 0;
#X connect 4 0 2 0;
#X connect 5 0 7 0;
#X connect 6 0 11 0;
#X connect 7 0 14 0;
#X connect 8 0 9 0;
#X connect 9 0 10 0;
#X connect 10 0 15 0;
#X connect 11 0 2 0;
#X connect 12 0 11 1;
#X connect 13 0 8 0;
#X restore 49 63 pd VuMetre;
#X obj 172 211 cnv 15 42 25 empty empty empty 20 12 0 14 -24198 -66577
0;
#N canvas 336 174 309 137 ?. 0;
#X obj 3 83 cnv 15 300 46 empty empty empty 20 12 0 14 -224896 -66577
0;
#X obj 3 6 cnv 18 300 70 empty empty ARGOPdMiniModules 3 10 1 14 -4033
-1 1.04858e+06;
#X obj 26 26 cnv 10 10 10 empty empty Gerard 0 5 1 11 -4033 -1 1.04858e+06
;
#X obj 64 26 cnv 10 10 10 empty empty Paresys 0 5 1 11 -4033 -1 1.04858e+06
;
#X obj 7 37 pddp/pddplink http://gerard.paresys.free.fr/ARGOPd/;
#X text 8 85 Construit sous / Build under Pd 0.43.4-extended;
#X obj 8 111 pddp/pddplink http://puredata.info/downloads/pd-extended
;
#X obj 7 50 pddp/pddplink http://paresys.pagesperso-orange.fr/ARGOPd/
;
#X text 7 98 or Pd-0.46-7 + deken;
#X restore 176 215 pd ?.;
#X obj 113 110 vu 8 120 \$0-B empty 0 0 1 11 -1 -4034 1 0;
#X obj 126 35 inlet~;
#N canvas 541 112 317 265 VuMetre 0;
#X obj 48 19 inlet~;
#X obj 41 54 *~;
#X obj -25 132 snapshot~;
#X obj -25 155 sqrt;
#X obj -25 100 lop~ 10;
#X obj -25 179 rmstodb;
#X obj -88 19 loadbang;
#X obj -25 202 - 100;
#X obj 58 156 sqrt;
#X obj 58 180 rmstodb;
#X obj 58 203 - 100;
#X obj -89 102 metro 200;
#X obj -28 19 r SendFluid;
#X obj 58 102 cyclone/peakamp~ 1000;
#X obj -25 228 outlet;
#X obj 58 227 outlet;
#X connect 0 0 1 0;
#X connect 0 0 1 1;
#X connect 1 0 4 0;
#X connect 1 0 13 0;
#X connect 2 0 3 0;
#X connect 3 0 5 0;
#X connect 4 0 2 0;
#X connect 5 0 7 0;
#X connect 6 0 11 0;
#X connect 7 0 14 0;
#X connect 8 0 9 0;
#X connect 9 0 10 0;
#X connect 10 0 15 0;
#X connect 11 0 2 0;
#X connect 12 0 11 1;
#X connect 13 0 8 0;
#X restore 126 63 pd VuMetre;
#X text 153 87 3 3 2019;
#X connect 2 0 5 0;
#X connect 5 0 1 0;
#X connect 5 1 1 1;
#X connect 9 0 10 0;
#X connect 10 0 8 0;
#X connect 10 1 8 1;
#X coords 0 -1 1 1 51 135 2 100 100;
#X restore 327 354 pd ARGO;
#X obj 387 468 cnv 15 52 22 empty empty empty 20 12 0 14 -24198 -66577
0;
#N canvas 353 174 321 152 ?... 0;
#X obj 8 84 cnv 15 300 56 empty empty empty 20 12 0 14 -224896 -66577
0;
#X obj 8 7 cnv 18 300 70 empty empty ARGOPdMiniModules 3 10 1 14 -4033
-1 1.04858e+06;
#X obj 31 27 cnv 10 10 10 empty empty Gerard 0 5 1 11 -4033 -1 1.04858e+06
;
#X obj 69 27 cnv 10 10 10 empty empty Paresys 0 5 1 11 -4033 -1 1.04858e+06
;
#X obj 12 40 pddp/pddplink http://gerard.paresys.free.fr/ARGOPd/;
#X obj 13 121 pddp/pddplink http://puredata.info/downloads/pd-extended
;
#X obj 13 97 pddp/pddplink http://puredata.info/downloads/pure-data
;
#X text 13 85 Construit sous / Build under Pd-0.49...;
#X text 12 109 or Pd 0.43.4-extended;
#X obj 12 53 pddp/pddplink https://paresys.pagesperso-orange.fr/ARGOPd/
;
#X restore 390 471 pd ?...;
#X text 112 302 Niveau general ->;
#X text 118 312 General level ->;
#N canvas 175 68 381 386 ARGO 0;
#X obj 101 101 cnv 20 116 34 empty ColorAmpli empty 20 12 0 14 -261299
-1 1.04858e+06;
#X obj 85 353 outlet~;
#X obj 157 104 cnv 10 20 10 empty ColorAmpli Ampli. 1 5 1 14 -261299
-1 1.04858e+06;
#X obj 85 43 inlet~;
#X obj 85 330 *~;
#X obj 115 118 hsl 101 12 -80 20 0 1 \$0-A ColorAmpli -80dB 0 7 1 9
-261299 -1 -1 0 0;
#X obj 101 101 cnv 4 10 4 empty empty empty 20 12 0 14 -1 -66577 0
;
#X obj 101 131 cnv 4 10 4 empty empty empty 20 12 0 14 -1 -66577 0
;
#X obj 207 101 cnv 4 10 4 empty empty empty 20 12 0 14 -1 -66577 0
;
#X obj 207 131 cnv 4 10 4 empty empty empty 20 12 0 14 -1 -66577 0
;
#X obj 222 352 outlet~;
#X obj 222 42 inlet~;
#X obj 222 329 *~;
#X msg -42 138 label \$1;
#X text 148 194 -> 0.0001..10 = -80dB..20dB;
#X obj 142 175 expr (pow(10 \, $f1 / 20));
#X obj 142 215 sel 0.0001;
#X msg 100 244 0;
#X obj 100 118 tgl 12 1 \$0-A \$0-B Mute 2 -5 1 9 -261299 -1 -1 0 1
;
#X obj 99 146 select 0 1;
#X obj 140 295 line~;
#X obj 140 275 pack 0 10;
#X msg 123 74 set 0;
#X obj -42 92 cyclone/sprintf %ddB;
#X text 228 110 6 3 2016;
#X obj -42 115 cyclone/tosymbol;
#X obj 273 344 cnv 15 42 25 empty empty empty 20 12 0 14 -24198 -66577
0;
#N canvas 336 174 309 137 ?. 0;
#X obj 3 83 cnv 15 300 46 empty empty empty 20 12 0 14 -224896 -66577
0;
#X obj 3 6 cnv 18 300 70 empty empty ARGOPdMiniModules 3 10 1 14 -4033
-1 1.04858e+06;
#X obj 26 26 cnv 10 10 10 empty empty Gerard 0 5 1 11 -4033 -1 1.04858e+06
;
#X obj 64 26 cnv 10 10 10 empty empty Paresys 0 5 1 11 -4033 -1 1.04858e+06
;
#X obj 7 37 pddp/pddplink http://gerard.paresys.free.fr/ARGOPd/;
#X text 8 85 Construit sous / Build under Pd 0.43.4-extended;
#X obj 8 111 pddp/pddplink http://puredata.info/downloads/pd-extended
;
#X obj 7 50 pddp/pddplink http://paresys.pagesperso-orange.fr/ARGOPd/
;
#X text 7 98 or Pd-0.46-7 + deken;
#X restore 277 348 pd ?.;
#X connect 3 0 4 0;
#X connect 4 0 1 0;
#X connect 5 0 15 0;
#X connect 5 0 23 0;
#X connect 11 0 12 0;
#X connect 12 0 10 0;
#X connect 13 0 5 0;
#X connect 15 0 16 0;
#X connect 16 0 17 0;
#X connect 16 1 21 0;
#X connect 16 1 22 0;
#X connect 17 0 21 0;
#X connect 17 0 25 0;
#X connect 18 0 19 0;
#X connect 19 0 5 0;
#X connect 19 1 17 0;
#X connect 20 0 12 1;
#X connect 20 0 4 1;
#X connect 21 0 20 0;
#X connect 22 0 18 0;
#X connect 23 0 25 0;
#X connect 25 0 13 0;
#X coords 0 -1 1 1 118 36 1 100 100;
#X restore 19 91 pd ARGO;
#N canvas 114 395 558 385 ARGO 0;
#X obj 261 100 rfft~;
#X msg 23 131 slide 10 10;
#X msg 381 130 range 0 512 \, 2 \, bufsize 512;
#X obj 261 27 inlet~;
#X msg 4 158 slide 1 1;
#X obj 103 131 *~ 0.361;
#X obj 201 201 cnv 12 196 34 empty empty empty 20 12 0 14 -262144 -1
1.04858e+06;
#X obj 269 205 cnv 10 44 10 empty empty Spectrum(2kHz/div). 1 5 1 14
-262144 -1 1.04858e+06;
#X obj 201 201 cnv 4 10 4 empty empty empty 20 12 0 14 -1 -66577 0
;
#X obj 231 206 tgl 12 1 \$0-SendLoop \$0-ReceiveLoop Gliss 15 6 1 9
-262144 -1 -1 0 1;
#X obj 4 104 sel 0 1;
#X msg 380 86 frgb 255 0 0;
#X msg 381 108 brgb 255 255 255;
#X obj 261 78 *~ 10;
#X obj 103 173 cyclone/vectral~ 1024;
#X obj 103 99 cyclone/count~ 0 1024 1 1;
#X obj 261 127 cyclone/cartopol~;
#X obj 201 220 cyclone/scope~ 198 129 4 3 256 0 512 0 0 0 0 255 0 0
255 252 255 0 98 102 0 empty;
#X obj 423 205 cnv 15 100 70 empty empty empty 20 12 0 14 -24198 -66577
0;
#X text 446 207 library:;
#X text 427 218 pddp;
#X text 427 231 cyclone;
#X obj 200 206 tgl 12 1 \$0-A \$0-B On 15 7 1 9 -262144 -1 -1 1 1;
#X obj 116 361 switch~ 1024 1 1;
#X msg 382 151 range 0 512 \, 4 \, bufsize 256;
#X msg 385 172 range 0 512 \, 8 \, bufsize 128;
#X obj 57 231 cnv 15 60 30 empty empty empty 20 12 0 14 -24198 -66577
0;
#N canvas 391 109 410 134 Help 0;
#X text 37 57 Voir MSP46ReferenceManual.pdf;
#X text 38 20 Spectrum;
#X text 37 41 utilise l'objet scope~ de la library cyclone;
#X restore 64 237 pd Help;
#X text 129 222 18 3 2021;
#X obj 498 336 cnv 15 34 16 empty empty empty 20 12 0 14 -24198 -66577
0;
#N canvas 353 174 333 161 ?? 0;
#X obj 17 89 cnv 15 300 56 empty empty empty 20 12 0 14 -224896 -66577
0;
#X obj 17 12 cnv 18 300 70 empty empty ARGOPdMiniModules 3 10 1 14
-4033 -1 1.04858e+06;
#X obj 40 32 cnv 10 10 10 empty empty Gerard 0 5 1 11 -4033 -1 1.04858e+06
;
#X obj 78 32 cnv 10 10 10 empty empty Paresys 0 5 1 11 -4033 -1 1.04858e+06
;
#X obj 20 54 pddp/pddplink http://gerard.paresys.free.fr/ARGOPd/;
#X obj 22 126 pddp/pddplink http://puredata.info/downloads/pd-extended
;
#X obj 22 102 pddp/pddplink http://puredata.info/downloads/pure-data
;
#X text 22 90 Construit sous / Build under Pd-0.49...;
#X text 21 114 or Pd 0.43.4-extended;
#X obj 20 66 pddp/pddplink https://paresys.pagesperso-orange.fr/ARGOPd/
;
#X obj 20 42 pddp/pddplink https://github.com/gerardparesys/ARGOPd
;
#X restore 498 336 pd ??;
#X connect 0 0 16 0;
#X connect 0 1 16 1;
#X connect 1 0 14 0;
#X connect 2 0 17 0;
#X connect 3 0 13 0;
#X connect 4 0 14 0;
#X connect 5 0 14 0;
#X connect 9 0 10 0;
#X connect 10 0 4 0;
#X connect 10 1 1 0;
#X connect 11 0 17 0;
#X connect 12 0 17 0;
#X connect 13 0 0 0;
#X connect 14 0 17 0;
#X connect 15 0 14 1;
#X connect 15 0 5 0;
#X connect 16 0 14 2;
#X connect 22 0 23 0;
#X connect 24 0 17 0;
#X connect 25 0 17 0;
#X coords 0 -1 1 1 200 150 2 200 200;
#X restore 19 338 pd ARGO;
#X connect 1 0 0 0;
#X connect 5 0 11 0;
#X connect 5 0 18 0;
#X connect 5 1 11 1;
#X connect 6 0 17 0;
#X connect 7 0 17 1;
#X connect 9 0 5 0;
#X connect 9 1 5 1;
#X connect 11 0 10 0;
#X connect 11 0 12 0;
#X connect 11 1 10 1;
#X connect 11 1 12 1;
#X connect 17 0 5 0;
#X connect 17 1 5 1;
