#N canvas 274 23 693 415 10;
#X obj 8 8 cnv 15 15 15 empty empty ExMM142c-Text-Sonification-MIDI.pd
0 8 1 14 -262144 -66577 0;
#X text 189 155 V;
#X text 189 148 |;
#X text 132 146 Next Line;
#X text 112 134 Ligne suivante;
#X obj 139 290 nbx 5 14 -1e+37 1e+37 0 0 empty empty empty 0 -8 0 10
-262144 -1 -1 0 256;
#X msg 523 93 0;
#X text 473 92 Stop ->;
#X text 497 165 <- Caractère suivant;
#X text 497 175 <- Next Character;
#X text 55 289 Code ASCII <-;
#X text 28 185 Ouvrir un fichier texte ->;
#X text 33 23 Sonification d'un fichier texte;
#X text 34 38 Lettre A -> Code ASCII = 65 -> Code MIDI Note = 65 ->
F3;
#X text 34 51 Lettre Z -> Code ASCII = 90 -> Code MIDI Note = 90 ->
Gb5;
#X obj 426 115 cnv 15 52 25 empty empty empty 20 12 0 14 -24198 -66577
0;
#X text 427 118 Start ->;
#X obj 34 64 pddp/pddplink http://fr.wikipedia.org/wiki/American_Standard_Code_for_Information_Interchange
;
#X obj 35 76 pddp/pddplink http://fr.wikipedia.org/wiki/Musical_Instrument_Digital_Interface
;
#X obj 212 135 cnv 15 70 25 empty empty empty 20 12 0 14 -24198 -66577
0;
#X text 212 138 Début/Begin;
#X text 242 156 V;
#X text 242 149 |;
#X obj 492 214 cnv 15 180 25 empty empty empty 20 12 0 14 -24198 -66577
0;
#X text 490 213 -> Bang à la fin du fichier;
#X text 490 222 -> Bang at the end of the file;
#X obj 266 285 cnv 15 210 45 empty empty empty 20 12 0 14 -261682 -66577
0;
#X text 274 302 Pitch;
#X text 270 314 0..127 ->;
#X text 460 351 <- Note Duration;
#X obj 119 344 cnv 15 210 25 empty empty empty 20 12 0 14 -24198 -66577
0;
#X text 126 352 Choisir Canal MIDI & Port MIDI ->;
#X text 120 343 Choose MIDI Channel & MIDI Port ->;
#X obj 285 245 select 0;
#X text 342 246 <- 0 = New line;
#X obj 606 363 cnv 15 52 22 empty empty empty 20 12 0 14 -24198 -66577
0;
#N canvas 353 174 321 152 ?... 0;
#X obj 8 84 cnv 15 300 56 empty empty empty 20 12 0 14 -224896 -66577
0;
#X obj 8 7 cnv 18 300 70 empty empty ARGOPdMiniModules 3 10 1 14 -4033
-1 1.04858e+06;
#X obj 31 27 cnv 10 10 10 empty empty Gerard 0 5 1 11 -4033 -1 1.04858e+06
;
#X obj 69 27 cnv 10 10 10 empty empty Paresys 0 5 1 11 -4033 -1 1.04858e+06
;
#X obj 12 40 pddp/pddplink http://gerard.paresys.free.fr/ARGOPd/;
#X obj 13 121 pddp/pddplink http://puredata.info/downloads/pd-extended
;
#X obj 13 97 pddp/pddplink http://puredata.info/downloads/pure-data
;
#X text 13 85 Construit sous / Build under Pd-0.49...;
#X text 12 109 or Pd 0.43.4-extended;
#X obj 12 53 pddp/pddplink https://paresys.pagesperso-orange.fr/ARGOPd/
;
#X restore 609 366 pd ?...;
#N canvas 37 262 349 279 MIDICtrlChange 0;
#X obj 101 101 cnv 10 125 43 empty ColorMIDI OutNote. 63 25 1 14 -262103
-1 1.04858e+06;
#X obj 204 106 nbx 2 12 1 16 0 1 \$0-A ColorMIDI empty 0 0 1 9 -262103
-1 -1 1 256;
#X obj 112 133 nbx 2 12 1 4 0 1 \$0-A ColorMIDI empty 0 0 1 9 -262103
-1 -1 1 256;
#X obj 137 134 cnv 9 9 9 empty ColorMIDI Port 0 5 1 9 -262103 -1 1.04858e+06
;
#X obj 100 106 nbx 3 12 0 127 0 1 \$0-A ColorMIDI empty 0 0 1 9 -208064
-1 -1 86 256;
#X text 92 30 Pitch;
#X text 141 28 Velocity;
#X obj 101 101 cnv 4 10 4 empty empty empty 20 12 0 14 -260097 -66577
0;
#X obj 216 101 cnv 4 10 4 empty empty empty 20 12 0 14 -260097 -66577
0;
#X obj 151 106 nbx 3 12 0 127 0 1 \$0-A ColorMIDI empty 0 0 1 9 -261299
-1 -1 100 256;
#X obj 100 133 bng 12 50 50 0 \$0-A \$0-B empty 6 9 0 9 -257985 -260097
-1;
#X text 88 45 0..127;
#X obj 143 233 noteout;
#X obj 117 195 makenote;
#X text 236 132 Duration;
#X obj 91 64 inlet;
#X text 148 42 0..127;
#X obj 151 61 inlet;
#X obj 162 133 nbx 4 12 5 9999 0 1 \$0-A \$0-B ms 41 6 1 9 -208064
-1 -1 5000 256;
#X obj 182 195 expr 16*($f1-1) + ($f2);
#X obj 204 157 t b f;
#X obj 42 93 t b f;
#X obj 54 172 int;
#X obj 209 61 inlet;
#X text 204 29 Channel;
#X text 207 42 1..16;
#X obj 159 101 cnv 4 10 4 empty empty empty 20 12 0 14 -260097 -66577
0;
#X obj 13 38 cnv 15 60 30 empty empty empty 20 12 0 14 -24198 -66577
0;
#N canvas 539 88 425 435 Help 0;
#X obj 10 37 cnv 15 400 360 empty empty empty 20 12 0 14 -233017 -66577
0;
#X text 13 39 Citation;
#X text 10 14 MM MIDI-OutNote;
#X text 26 58 - send note-on messages and schedule note-off for later
;
#X text 40 83 Makenote makes MIDI-style note-on/note-off pairs \, which
you can use for MIDI output or to drive note-like processes within
Pd.;
#X text 41 133 numbers at left are "pitches" which may be integers
or not.;
#X restore 20 44 pd Help;
#X text 237 113 8 6 2018;
#X obj 285 225 cnv 15 42 25 empty empty empty 20 12 0 14 -24198 -66577
0;
#N canvas 336 174 316 152 ?. 0;
#X obj 8 84 cnv 15 300 56 empty empty empty 20 12 0 14 -224896 -66577
0;
#X obj 8 7 cnv 18 300 70 empty empty ARGOPdMiniModules 3 10 1 14 -4033
-1 1.04858e+06;
#X obj 31 27 cnv 10 10 10 empty empty Gerard 0 5 1 11 -4033 -1 1.04858e+06
;
#X obj 69 27 cnv 10 10 10 empty empty Paresys 0 5 1 11 -4033 -1 1.04858e+06
;
#X obj 12 40 pddp/pddplink http://gerard.paresys.free.fr/ARGOPd/;
#X text 13 85 Construit sous / Build under Pd 0.43.4-extended;
#X obj 13 111 pddp/pddplink http://puredata.info/downloads/pd-extended
;
#X obj 12 53 pddp/pddplink http://paresys.pagesperso-orange.fr/ARGOPd/
;
#X text 12 98 or Pd-0.48;
#X obj 13 124 pddp/pddplink http://puredata.info/downloads/pure-data
;
#X restore 289 229 pd ?.;
#X connect 1 0 20 0;
#X connect 2 0 19 0;
#X connect 4 0 13 0;
#X connect 9 0 13 1;
#X connect 10 0 22 0;
#X connect 13 0 12 0;
#X connect 13 1 12 1;
#X connect 15 0 21 0;
#X connect 17 0 9 0;
#X connect 18 0 13 2;
#X connect 19 0 12 2;
#X connect 20 0 19 0;
#X connect 20 1 19 1;
#X connect 21 0 10 0;
#X connect 21 1 22 1;
#X connect 22 0 4 0;
#X connect 23 0 1 0;
#X coords 0 -1 1 1 127 45 1 100 100;
#X restore 330 320 pd MIDICtrlChange;
#N canvas 435 86 357 221 MIDICtrlChange 0;
#X obj 101 101 cnv 5 125 22 empty ColorMIDI Silence. 75 8 1 14 -262103
-1 1.04858e+06;
#X obj 160 101 cnv 9 9 9 empty ColorMIDI Ch 0 5 1 9 -262103 -1 1.04858e+06
;
#X obj 153 112 nbx 2 12 1 16 0 1 \$0-A ColorMIDI empty 0 0 1 9 -262103
-1 -1 1 256;
#X obj 130 112 nbx 2 12 1 4 0 1 \$0-A ColorMIDI empty 0 0 1 9 -262103
-1 -1 1 256;
#X obj 134 101 cnv 9 9 9 empty ColorMIDI Port 0 5 1 9 -262103 -1 1.04858e+06
;
#X obj 170 158 expr 16*($f1-1) + ($f2);
#X obj 170 133 t b f;
#N canvas 506 239 187 273 silence 0;
#X obj 106 145 + 1;
#X obj 49 146 float;
#X obj 49 120 until;
#X msg 93 94 0;
#X obj 66 65 t b b;
#X msg 49 172 \$1 0;
#X obj 67 31 inlet;
#X obj 49 211 outlet;
#X text 70 13 bang;
#X text 45 230 noteout;
#X msg 49 94 128;
#X connect 0 0 1 1;
#X connect 1 0 0 0;
#X connect 1 0 5 0;
#X connect 2 0 1 0;
#X connect 3 0 1 1;
#X connect 4 0 10 0;
#X connect 4 1 3 0;
#X connect 5 0 7 0;
#X connect 6 0 4 0;
#X connect 10 0 2 0;
#X restore 100 159 pd silence;
#X obj 100 196 noteout;
#X obj 100 100 bng 24 50 50 0 \$0-A \$0-B empty 14 7 1 9 -257985 -260097
-1;
#X text 241 105 Silence = "Panic";
#X text 46 71 MM MIDI-Silence;
#X text 176 81 8 6 2018;
#X obj 294 183 cnv 15 42 25 empty empty empty 20 12 0 14 -24198 -66577
0;
#N canvas 336 174 316 152 ?. 0;
#X obj 8 84 cnv 15 300 56 empty empty empty 20 12 0 14 -224896 -66577
0;
#X obj 8 7 cnv 18 300 70 empty empty ARGOPdMiniModules 3 10 1 14 -4033
-1 1.04858e+06;
#X obj 31 27 cnv 10 10 10 empty empty Gerard 0 5 1 11 -4033 -1 1.04858e+06
;
#X obj 69 27 cnv 10 10 10 empty empty Paresys 0 5 1 11 -4033 -1 1.04858e+06
;
#X obj 12 40 pddp/pddplink http://gerard.paresys.free.fr/ARGOPd/;
#X text 13 85 Construit sous / Build under Pd 0.43.4-extended;
#X obj 13 111 pddp/pddplink http://puredata.info/downloads/pd-extended
;
#X obj 12 53 pddp/pddplink http://paresys.pagesperso-orange.fr/ARGOPd/
;
#X text 12 98 or Pd-0.48;
#X obj 13 124 pddp/pddplink http://puredata.info/downloads/pure-data
;
#X restore 298 187 pd ?.;
#X connect 2 0 6 0;
#X connect 3 0 5 0;
#X connect 5 0 8 2;
#X connect 6 0 5 0;
#X connect 6 1 5 1;
#X connect 7 0 8 0;
#X connect 9 0 7 0;
#X coords 0 -1 1 1 127 24 1 100 100;
#X restore 332 372 pd MIDICtrlChange;
#X obj 33 99 pddp/pddplink http://gerard.paresys.free.fr/Theme/Theme3.html
;
#X text 367 288 Velocity;
#X text 374 302 0..127;
#X text 430 289 Channel;
#X text 433 302 1..16;
#X obj 558 19 cnv 15 100 70 empty empty empty 20 12 0 14 -24198 -66577
0;
#X text 581 20 library:;
#X text 562 29 pddp;
#X text 562 40 cyclone;
#X text 562 51 zexy;
#X text 562 62 moocow;
#X text 562 73 tof;
#N canvas 288 99 803 582 ARGO 0;
#X obj 350 103 cnv 10 20 10 empty empty Text. 1 5 1 14 -262144 -1 1.04858e+06
;
#X obj 58 88 openpanel;
#X msg 93 144 set \$1;
#X obj 248 39 loadbang;
#X obj 58 66 bang;
#X text 450 113 <- Click the name to change;
#X obj 80 174 cnv 15 400 50 empty empty empty 20 12 0 14 -260097 -66577
0;
#X text 82 173 Nom du fichier / File name;
#X text 484 180 <- Ajouter ../ devant le nom du fichier \; pour remonter
d'un dossier;
#X obj 620 45 cnv 15 60 30 empty empty empty 20 12 0 14 -24198 -66577
0;
#N canvas 447 110 428 226 Help 0;
#X obj 13 73 cnv 15 400 100 empty empty empty 20 12 0 14 -233017 -66577
0;
#X text 18 75 Citation;
#X text 12 17 MM Text;
#X text 23 33 Lit un fichier texte ligne par ligne et caractère par
caractère;
#X text 37 90 The textfile object reads and writes text files to and
from memory. You can read a file and output sequential lines as lists
\, or collect lines and write them out.;
#X restore 627 51 pd Help;
#X obj 59 108 t b b s;
#X obj 438 148 bng 12 50 20 0 \$0-A \$0-B empty 14 6 1 9 -262144 -1
-1;
#X obj 439 156 cnv 4 10 4 empty empty empty 20 12 0 14 -260097 -66577
0;
#X obj 433 530 cnv 15 240 24 empty empty empty 20 12 0 14 -261682 -66577
0;
#X text 483 528 -> Bang à la fin du fichier;
#X text 484 538 -> Bang at the end of the file;
#X obj 438 534 outlet;
#X obj 157 534 outlet;
#X obj 157 345 textfile;
#X msg 171 304 rewind;
#X msg 95 304 read \$1 cr;
#X obj 56 276 t b b a;
#X msg 22 398 set \$1;
#X symbolatom 150 129 49 0 0 0 - - -;
#X obj 202 101 bng 12 250 50 0 \$0-A \$0-B Begin 14 7 1 9 -262144 -1
-1;
#X obj 150 101 bng 12 250 50 0 \$0-A \$0-B Line 14 7 1 9 -262144 -1
-1;
#X obj 151 101 cnv 4 10 4 empty empty empty 20 12 0 14 -260097 -66577
0;
#X obj 50 36 cnv 15 170 24 empty empty empty 20 12 0 14 -261682 -66577
0;
#X text 50 33 N'importe quel message ->;
#X obj 204 39 inlet;
#X text 454 128 <- Ligne;
#X msg 30 135 set ...;
#X msg 260 304 print;
#X obj 260 101 bng 12 250 50 0 \$0-A \$0-B Print-Console 14 7 1 9 -262144
-1 -1;
#X obj 300 534 outlet;
#X symbolatom 328 145 2 0 0 0 - - -;
#X obj 300 480 moocow/bytes2any 128 0;
#X obj 438 101 bng 12 250 50 0 \$0-A \$0-B Character -45 7 1 9 -262144
-1 -1;
#X obj 439 101 cnv 4 10 4 empty empty empty 20 12 0 14 -260097 -66577
0;
#X obj 481 369 spigot 1;
#X msg 585 342 0;
#X msg 506 342 1;
#X msg 527 258 0;
#X msg 558 257 1;
#X obj 501 287 spigot 0;
#X obj 501 315 t b b b;
#X obj 462 257 t b b b;
#X obj 343 156 cnv 4 10 4 empty empty empty 20 12 0 14 -260097 -66577
0;
#X text 80 43 Input any message ->;
#X obj 308 36 cnv 15 170 24 empty empty empty 20 12 0 14 -261682 -66577
0;
#X text 308 33 N'importe quel message ->;
#X text 338 43 Input any message ->;
#X obj 464 39 inlet;
#X text 145 549 Ligne/Line;
#X obj 558 233 t b b;
#X text 407 394 Watch out! ASCII characters 123 and 125 (curly braces)
lock up Pd. Also \, reserved characters that Pd uses show up with a
backslash in front of them (comma \, semi-colon \, and backslash).
;
#X obj 57 252 zexy/list2symbol;
#X obj 22 374 cyclone/tosymbol;
#X obj 328 506 cyclone/tosymbol;
#X obj 154 114 hsl 275 15 0 127 0 0 \$0-A \$0-B empty -2 -8 0 10 -262144
-262144 -1 0 1;
#X symbolatom 150 114 49 0 0 0 - - -;
#X obj 157 376 moocow/any2bytes;
#X obj 180 420 tof/list_unfold wait;
#X obj 207 458 select 123 125 0;
#X msg 84 192 Prion.txt;
#X text 190 20 Next Line;
#X text 170 8 Ligne suivante;
#X text 419 8 Caractère suivant;
#X text 426 20 Next Character;
#X text 361 83 4 8 2019;
#X obj 233 534 outlet;
#X obj 233 144 nbx 3 12 0 255 0 0 \$0-A \$0-B ASCII -27 7 1 9 -262144
-1 -1 0 256;
#X obj 245 156 cnv 4 10 4 empty empty empty 20 12 0 14 -260097 -66577
0;
#X text 290 559 Character;
#X text 290 549 Caractere;
#X text 237 549 ASCII;
#X text 239 561 Code;
#X obj 150 148 bng 12 250 50 0 \$0-A \$0-B Line 14 7 1 9 -262144 -1
-1;
#X obj 151 156 cnv 4 10 4 empty empty empty 20 12 0 14 -260097 -66577
0;
#X msg 269 506 set _;
#X obj 719 531 cnv 15 52 22 empty empty empty 20 12 0 14 -24198 -66577
0;
#N canvas 353 174 321 152 ?... 0;
#X obj 8 84 cnv 15 300 56 empty empty empty 20 12 0 14 -224896 -66577
0;
#X obj 8 7 cnv 18 300 70 empty empty ARGOPdMiniModules 3 10 1 14 -4033
-1 1.04858e+06;
#X obj 31 27 cnv 10 10 10 empty empty Gerard 0 5 1 11 -4033 -1 1.04858e+06
;
#X obj 69 27 cnv 10 10 10 empty empty Paresys 0 5 1 11 -4033 -1 1.04858e+06
;
#X obj 12 40 pddp/pddplink http://gerard.paresys.free.fr/ARGOPd/;
#X obj 13 121 pddp/pddplink http://puredata.info/downloads/pd-extended
;
#X obj 13 97 pddp/pddplink http://puredata.info/downloads/pure-data
;
#X text 13 85 Construit sous / Build under Pd-0.49...;
#X text 12 109 or Pd 0.43.4-extended;
#X obj 12 53 pddp/pddplink https://paresys.pagesperso-orange.fr/ARGOPd/
;
#X restore 722 534 pd ?...;
#X obj 604 285 cnv 15 170 25 empty empty empty 20 12 0 14 -258113 -66577
0;
#X text 608 290 MODIF without mrpeach/str;
#X obj 653 93 cnv 15 100 70 empty empty empty 20 12 0 14 -24198 -66577
0;
#X text 676 94 library:;
#X text 657 103 pddp;
#X text 657 114 cyclone;
#X text 657 125 zexy;
#X text 657 136 moocow;
#X text 657 147 tof;
#X connect 1 0 11 0;
#X connect 2 0 65 0;
#X connect 3 0 65 0;
#X connect 4 0 1 0;
#X connect 11 0 32 0;
#X connect 11 1 65 0;
#X connect 11 2 2 0;
#X connect 12 0 17 0;
#X connect 19 0 58 0;
#X connect 19 0 62 0;
#X connect 19 0 18 0;
#X connect 19 1 12 0;
#X connect 20 0 19 0;
#X connect 21 0 19 0;
#X connect 22 1 25 0;
#X connect 22 2 21 0;
#X connect 23 0 24 0;
#X connect 25 0 20 0;
#X connect 25 0 55 0;
#X connect 26 0 19 0;
#X connect 30 0 26 0;
#X connect 32 0 24 0;
#X connect 33 0 19 0;
#X connect 34 0 33 0;
#X connect 37 0 35 0;
#X connect 37 0 59 0;
#X connect 38 0 47 0;
#X connect 40 0 63 0;
#X connect 41 0 40 1;
#X connect 42 0 40 1;
#X connect 43 0 45 1;
#X connect 44 0 45 1;
#X connect 45 0 46 0;
#X connect 46 0 41 0;
#X connect 46 1 43 0;
#X connect 46 2 26 0;
#X connect 47 0 42 0;
#X connect 47 1 40 0;
#X connect 47 2 45 0;
#X connect 53 0 38 0;
#X connect 55 0 44 0;
#X connect 55 1 41 0;
#X connect 57 0 22 0;
#X connect 57 0 61 0;
#X connect 58 0 23 0;
#X connect 59 0 36 0;
#X connect 60 0 4 0;
#X connect 62 0 63 0;
#X connect 62 0 78 0;
#X connect 63 0 72 0;
#X connect 64 2 19 0;
#X connect 64 2 80 0;
#X connect 64 3 37 0;
#X connect 65 0 57 0;
#X connect 72 0 71 0;
#X connect 72 0 64 0;
#X connect 80 0 36 0;
#X coords 0 -1 1 1 300 61 2 150 100;
#X restore 188 171 pd ARGO;
#N canvas 332 229 339 183 ARGO 0;
#X obj 100 40 change;
#X obj 100 17 inlet;
#N canvas 220 243 583 317 pitchb-11-2010 0;
#X obj 70 111 mod 12;
#X obj 70 135 sel 0 1 2 3 4 5 6 7 8 9 10 11;
#X msg 246 170 A;
#X msg 300 170 B;
#X msg 192 170 G;
#X msg 3 170 C;
#X msg 57 170 D;
#X msg 111 170 E;
#X msg 138 170 F;
#X obj 204 1 inlet;
#X obj 377 115 div 12;
#X obj 204 79 t f f;
#X text 382 163 -> Numero de l'octave;
#X text 213 64 -> Numero MIDI de la note (69 = A3 = 440Hz);
#X msg 260 260 label \$1;
#X obj 260 283 outlet;
#X msg 30 170 Db;
#X msg 84 170 Eb;
#X msg 165 170 Gb;
#X msg 219 170 Ab;
#X msg 273 170 Bb;
#X text 369 78 (70 = A#3 = Bb3);
#X obj 260 238 symbol;
#X text 11 231 Impossible d'afficher # dans un label;
#X text 11 243 donc j'affiche b;
#X obj 204 51 int;
#X text 255 23 -> pour corriger certaines erreurs de calcul;
#X obj 377 144 - 12;
#X text 255 35 et le pb du passage a zero de mod 12;
#X obj 204 25 + 120.5;
#X obj 260 213 cyclone/sprintf %s%d;
#X connect 0 0 1 0;
#X connect 1 0 5 0;
#X connect 1 1 16 0;
#X connect 1 2 6 0;
#X connect 1 3 17 0;
#X connect 1 4 7 0;
#X connect 1 5 8 0;
#X connect 1 6 18 0;
#X connect 1 7 4 0;
#X connect 1 8 19 0;
#X connect 1 9 2 0;
#X connect 1 10 20 0;
#X connect 1 11 3 0;
#X connect 2 0 30 0;
#X connect 3 0 30 0;
#X connect 4 0 30 0;
#X connect 5 0 30 0;
#X connect 6 0 30 0;
#X connect 7 0 30 0;
#X connect 8 0 30 0;
#X connect 9 0 29 0;
#X connect 10 0 27 0;
#X connect 11 0 0 0;
#X connect 11 1 10 0;
#X connect 14 0 15 0;
#X connect 16 0 30 0;
#X connect 17 0 30 0;
#X connect 18 0 30 0;
#X connect 19 0 30 0;
#X connect 20 0 30 0;
#X connect 22 0 14 0;
#X connect 25 0 11 0;
#X connect 27 0 30 1;
#X connect 29 0 25 0;
#X connect 30 0 22 0;
#X restore 100 63 pd pitchb-11-2010;
#X obj 103 100 hsl 90 18 0 127 0 0 \$0-A \$0-B Eb5 12 9 0 14 -208064
-208064 -1 0 1;
#X obj 158 103 cnv 5 10 10 empty ColorAmpli Note. 0 7 1 14 -208064
-1 0;
#X obj 101 101 cnv 4 10 4 empty empty empty 20 12 0 14 -260097 -66577
0;
#X obj 233 136 cnv 15 52 22 empty empty empty 20 12 0 14 -24198 -66577
0;
#N canvas 353 174 321 152 ?... 0;
#X obj 8 84 cnv 15 300 56 empty empty empty 20 12 0 14 -224896 -66577
0;
#X obj 8 7 cnv 18 300 70 empty empty ARGOPdMiniModules 3 10 1 14 -4033
-1 1.04858e+06;
#X obj 31 27 cnv 10 10 10 empty empty Gerard 0 5 1 11 -4033 -1 1.04858e+06
;
#X obj 69 27 cnv 10 10 10 empty empty Paresys 0 5 1 11 -4033 -1 1.04858e+06
;
#X obj 12 40 pddp/pddplink http://gerard.paresys.free.fr/ARGOPd/;
#X obj 13 121 pddp/pddplink http://puredata.info/downloads/pd-extended
;
#X obj 13 97 pddp/pddplink http://puredata.info/downloads/pure-data
;
#X text 13 85 Construit sous / Build under Pd-0.49...;
#X text 12 109 or Pd 0.43.4-extended;
#X obj 12 53 pddp/pddplink https://paresys.pagesperso-orange.fr/ARGOPd/
;
#X restore 236 139 pd ?...;
#X text 138 84 19 8 2019;
#X connect 0 0 2 0;
#X connect 1 0 0 0;
#X connect 2 0 3 0;
#X coords 0 -1 1 1 95 18 2 100 100;
#X restore 139 313 pd ARGO;
#N canvas 358 45 466 323 ARGO 0;
#X obj 263 45 cnv 15 60 30 empty empty empty 20 12 0 14 -24198 -66577
0;
#N canvas 537 176 286 105 Help 0;
#X text 15 20 Un "Bang" sort X fois par minute.;
#X text 13 52 A "Bang" outputs X times per minute.;
#X restore 270 51 pd Help;
#X obj 200 32 inlet;
#X obj 195 249 cnv 15 170 24 empty empty empty 20 12 0 14 -261682 -66577
0;
#X obj 200 253 outlet;
#X obj 201 101 cnv 10 132 35 empty ColorForm Metronome. 53 9 1 14 -208064
-1 1.04858e+06;
#X obj 200 124 bng 12 50 10 0 \$0-A \$0-B empty 14 6 1 9 -262144 -1
-1;
#X obj 201 132 cnv 4 10 4 empty empty empty 20 12 0 14 -260097 -66577
0;
#X obj 200 112 nbx 3 12 1 999 0 1 \$0-A ColorTime BPM 36 8 1 11 -208064
-1 -1 400 256;
#X obj 200 100 tgl 12 1 \$0-A \$0-B empty 17 7 0 10 -262144 -1 -1 0
1;
#X obj 7 96 cnv 15 190 20 empty empty empty 20 12 0 14 -261682 -66577
0;
#X text 8 97 1: Play 0: Stop bang: Change ->;
#X obj 201 101 cnv 4 10 4 empty empty empty 20 12 0 14 -260097 -66577
0;
#X obj 120 183 metro 300;
#X obj 171 160 expr 60000 / $f1;
#X text 205 286 Bang;
#X text 213 272 |;
#X text 213 277 v;
#X obj 376 235 cnv 15 42 25 empty empty empty 20 12 0 14 -24198 -66577
0;
#N canvas 336 174 316 152 ?. 0;
#X obj 8 84 cnv 15 300 56 empty empty empty 20 12 0 14 -224896 -66577
0;
#X obj 8 7 cnv 18 300 70 empty empty ARGOPdMiniModules 3 10 1 14 -4033
-1 1.04858e+06;
#X obj 31 27 cnv 10 10 10 empty empty Gerard 0 5 1 11 -4033 -1 1.04858e+06
;
#X obj 69 27 cnv 10 10 10 empty empty Paresys 0 5 1 11 -4033 -1 1.04858e+06
;
#X obj 12 40 pddp/pddplink http://gerard.paresys.free.fr/ARGOPd/;
#X text 13 85 Construit sous / Build under Pd 0.43.4-extended;
#X obj 13 111 pddp/pddplink http://puredata.info/downloads/pd-extended
;
#X obj 12 53 pddp/pddplink http://paresys.pagesperso-orange.fr/ARGOPd/
;
#X text 12 98 or Pd-0.48;
#X obj 13 124 pddp/pddplink http://puredata.info/downloads/pure-data
;
#X restore 380 239 pd ?.;
#X text 277 83 8 6 2018;
#X connect 2 0 9 0;
#X connect 6 0 4 0;
#X connect 8 0 14 0;
#X connect 9 0 13 0;
#X connect 13 0 6 0;
#X connect 14 0 13 1;
#X coords 0 -1 1 1 134 37 2 200 100;
#X restore 481 121 pd ARGO;
#X connect 5 0 52 0;
#X connect 6 0 53 0;
#X connect 33 1 5 0;
#X connect 33 1 37 0;
#X connect 51 1 33 0;
#X connect 51 3 6 0;
#X connect 53 0 51 1;
