#N canvas 525 23 708 647 10;
#X obj 9 5 cnv 15 15 15 empty empty ExMM69e-Chaos-Audio.pd 0 8 1 14
-262144 -66577 0;
#N canvas 413 140 402 279 ARGO 0;
#X obj 101 101 cnv 10 88 41 \$0-A \$0-B empty 20 12 0 14 -1 -1 1.04858e+06
;
#X obj 101 109 nbx 4 12 0 1e+37 0 0 \$0 \$0-ReceiveCpuPeak CPUPeak
42 7 1 10 -24198 -1 -24198 4 256;
#X obj 101 122 nbx 4 12 0 1e+37 0 0 \$0 \$0-ReceiveCpuMean CPUMean
42 7 1 10 -24198 -1 -24198 4.13 256;
#X text 141 83 5 3 2009;
#X obj 145 -55 cputime;
#X obj 145 -76 t b b;
#X text 188 24 (c) musil@iem.kug.ac.at;
#X text 230 37 IEM KUG;
#X text 78 18 CPU-load;
#X obj 144 -125 loadbang;
#X text 205 48 graz \, austria 2001;
#X obj 145 -100 metro 500;
#X obj 145 -34 * 0.2;
#X text 237 -88 -dsp-load in %;
#X text 228 -101 measure average- and peak-;
#X obj 37 18 * 100;
#X obj 37 63 int;
#X obj 37 41 + 0.499;
#X obj 37 86 * 0.01;
#N canvas 524 162 422 273 1p1zmodif 0;
#X text 134 89 (c) musil@iem.kug.ac.at;
#X text 179 99 IEM KUG;
#X obj 14 195 +;
#X text 151 108 graz \, austria 2001;
#X text 135 71 y[n] = a0*x[n] + a1*x[n-1] + b1*y[n-1];
#X text 18 13 x[n];
#X text 16 244 y[n];
#X text 84 111 y[n-1];
#X text 134 56 <float> control-IIR-filter 1.order;
#X obj 15 28 inlet;
#X obj 14 228 outlet;
#X obj 15 112 * 0.1;
#X obj 59 156 * 0.9;
#X text 139 144 a1 = 0;
#X text 139 155 b1 = 0.9;
#X text 139 133 a0 = 0.1;
#X obj 15 50 t f b;
#X text 135 40 Inspiré de 1p1z;
#X obj 59 112 f 0;
#X connect 2 0 10 0;
#X connect 2 0 18 1;
#X connect 9 0 16 0;
#X connect 11 0 2 0;
#X connect 12 0 2 1;
#X connect 16 0 11 0;
#X connect 16 1 18 0;
#X connect 18 0 12 0;
#X restore 37 -8 pd 1p1zmodif;
#X text 146 9 Inspiré de 5.reference/iemabs/help-dsp.pd;
#X connect 4 0 12 0;
#X connect 5 0 4 0;
#X connect 5 1 4 1;
#X connect 9 0 11 0;
#X connect 11 0 5 0;
#X connect 12 0 19 0;
#X connect 12 0 1 0;
#X connect 15 0 17 0;
#X connect 16 0 18 0;
#X connect 17 0 16 0;
#X connect 18 0 2 0;
#X connect 19 0 15 0;
#X coords 0 -1 1 1 90 43 1 100 100;
#X restore 40 406 pd ARGO;
#X text 562 148 <- Stop / Play;
#X obj 19 174 cnv 15 190 110 empty empty empty 20 12 0 14 -208064 -66577
0;
#X obj 27 225 zexy/pack~;
#X obj 27 246 zexy/unpack~;
#X text 24 265 pack~ + unpack~ to loop Audio;
#X text 409 85 <- Change;
#N canvas 397 68 469 375 ARGO 0;
#X obj 101 101 cnv 20 244 34 empty ColorTime Oscill-TriRectangle. 79
9 1 14 -208064 -1 1.04858e+06;
#X obj 110 341 outlet~;
#X obj 101 131 cnv 4 10 4 empty empty empty 20 12 0 14 -1 -66577 0
;
#X obj 101 101 cnv 4 10 4 empty empty empty 20 12 0 14 -1728 -66577
0;
#X obj 163 341 outlet~;
#X obj 335 131 cnv 4 10 4 empty empty empty 0 0 0 9 -1 -66577 0;
#X obj 92 154 phasor~;
#X obj 167 187 -~ 0.5;
#X obj 187 246 *~;
#X obj 268 292 +~ 0.125;
#X obj 217 341 outlet~;
#X obj 110 316 *~ 2;
#X obj 164 315 *~ -2;
#X obj 218 316 *~ 2;
#X obj 268 316 *~ 8;
#X obj 268 341 outlet~;
#X obj 256 131 cnv 4 10 4 empty empty empty 0 0 0 9 -1 -66577 0;
#X obj 177 131 cnv 4 10 4 empty empty empty 0 0 0 9 -1 -66577 0;
#X text 84 134 Ramp up;
#X text 155 135 Ramp down;
#X text 233 136 Rectangle;
#X text 313 136 Triangle;
#X obj 100 106 nbx 7 12 0 20000 0 1 \$0-A ColorTime Hz 60 7 1 9 -208064
-1 -1 6.875 256;
#X obj 87 26 inlet~;
#X obj 103 118 hsl 241 12 0 1 0 0 \$0-A ColorTime empty 0 7 1 9 -262144
-1 -1 10500 0;
#X obj 103 118 hsl 241 12 0 1 0 0 \$0-A ColorTime A-3 0 7 1 9 -208064
-1728 -1 10092 0;
#X obj 70 193 cnv 15 60 30 empty empty empty 20 12 0 14 -24198 -66577
0;
#N canvas 371 90 425 238 Help 0;
#X obj 8 85 cnv 15 400 100 empty empty empty 20 12 0 14 -233017 -66577
0;
#X text 12 87 Citation;
#X text 10 45 Sensibilitée de l'entrée de contrôle de la fréquence:
;
#X text 10 57 1 = 240 1/2 ton = 20 octaves;
#X text 21 103 The phasor~ object outputs a sawtooth signal...;
#X text 11 6 Oscillateur en forme de Rampes Rectangle Triangle;
#X text 11 23 Rampe = Dent de scie = Sawtooth;
#X restore 77 199 pd Help;
#X text 196 62 2 HSLIDER superposés;
#X text 220 51 ATTENTION;
#N canvas 686 258 344 337 Freq-v7-sig- 0;
#X obj 228 58 ftom;
#X obj 281 217 mtof;
#X obj 143 142 +~;
#X obj 11 172 snapshot~;
#X obj 11 194 change;
#X msg 11 219 set \$1;
#X obj 143 245 clip~ 0 20000;
#X obj 143 222 mtof~;
#X obj 143 274 outlet~;
#X obj 281 35 inlet;
#X obj 228 34 inlet;
#X obj 66 274 outlet;
#X obj 281 274 outlet;
#X text 63 292 Hslider;
#X obj 143 39 inlet~;
#X obj 10 38 loadbang;
#X obj 231 274 outlet;
#X obj 281 156 * 240;
#X obj 281 179 - 108;
#X obj 143 170 *~ 240;
#X obj 143 192 -~ 108;
#X obj 228 81 + 108;
#X obj 228 103 / 240;
#X obj 11 87 metro 200;
#X obj 66 38 r SendFluid;
#X text 72 303 Over;
#X text 283 292 Number;
#X text 224 17 Number;
#X text 230 291 Hslider;
#X text 232 302 Under;
#X text 283 5 Hslider;
#X text 288 16 Under;
#X msg 231 244 set \$1;
#N canvas 459 170 558 314 pitchb 0;
#X obj 77 119 mod 12;
#X obj 77 143 sel 0 1 2 3 4 5 6 7 8 9 10 11;
#X msg 253 178 A;
#X msg 307 178 B;
#X msg 199 178 G;
#X msg 10 178 C;
#X msg 64 178 D;
#X msg 118 178 E;
#X msg 145 178 F;
#X obj 211 9 inlet;
#X obj 384 123 div 12;
#X obj 211 87 t f f;
#X text 390 195 -> Numero de l'octave;
#X text 220 72 -> Numero MIDI de la note (69 = A3 = 440Hz);
#X msg 267 268 label \$1;
#X obj 267 291 outlet;
#X msg 37 178 Db;
#X msg 91 178 Eb;
#X msg 172 178 Gb;
#X msg 226 178 Ab;
#X msg 280 178 Bb;
#X text 376 86 (70 = A#3 = Bb3);
#X obj 267 246 symbol;
#X text 18 239 Impossible d'afficher # dans un label;
#X text 18 251 donc j'affiche b;
#X obj 211 59 int;
#X text 262 31 -> pour corriger certaines erreurs de calcul;
#X obj 211 33 + 120.1;
#X obj 384 152 - 12;
#X text 262 43 et le pb du passage a zero de mod 12;
#X obj 267 221 cyclone/sprintf %s%d;
#X connect 0 0 1 0;
#X connect 1 0 5 0;
#X connect 1 1 16 0;
#X connect 1 2 6 0;
#X connect 1 3 17 0;
#X connect 1 4 7 0;
#X connect 1 5 8 0;
#X connect 1 6 18 0;
#X connect 1 7 4 0;
#X connect 1 8 19 0;
#X connect 1 9 2 0;
#X connect 1 10 20 0;
#X connect 1 11 3 0;
#X connect 2 0 30 0;
#X connect 3 0 30 0;
#X connect 4 0 30 0;
#X connect 5 0 30 0;
#X connect 6 0 30 0;
#X connect 7 0 30 0;
#X connect 8 0 30 0;
#X connect 9 0 27 0;
#X connect 10 0 28 0;
#X connect 11 0 0 0;
#X connect 11 1 10 0;
#X connect 14 0 15 0;
#X connect 16 0 30 0;
#X connect 17 0 30 0;
#X connect 18 0 30 0;
#X connect 19 0 30 0;
#X connect 20 0 30 0;
#X connect 22 0 14 0;
#X connect 25 0 11 0;
#X connect 27 0 25 0;
#X connect 28 0 30 1;
#X connect 30 0 22 0;
#X restore 79 142 pd pitchb;
#X connect 0 0 21 0;
#X connect 0 0 33 0;
#X connect 1 0 12 0;
#X connect 2 0 3 0;
#X connect 2 0 19 0;
#X connect 3 0 4 0;
#X connect 4 0 5 0;
#X connect 5 0 11 0;
#X connect 6 0 8 0;
#X connect 7 0 6 0;
#X connect 9 0 17 0;
#X connect 10 0 0 0;
#X connect 14 0 2 0;
#X connect 15 0 23 0;
#X connect 17 0 18 0;
#X connect 18 0 1 0;
#X connect 19 0 20 0;
#X connect 20 0 7 0;
#X connect 21 0 22 0;
#X connect 22 0 2 1;
#X connect 22 0 32 0;
#X connect 23 0 3 0;
#X connect 24 0 23 1;
#X connect 32 0 16 0;
#X connect 33 0 11 0;
#X restore 62 63 pd Freq-v7-sig-;
#X obj 221 216 expr~ ($v1 < 0) - 0.5;
#X obj 353 46 cnv 15 100 70 empty empty empty 20 12 0 14 -24198 -66577
0;
#X text 376 48 library:;
#X text 357 59 pddp;
#X obj 365 331 cnv 15 42 25 empty empty empty 20 12 0 14 -24198 -66577
0;
#N canvas 336 174 316 152 ?. 0;
#X obj 8 84 cnv 15 300 56 empty empty empty 20 12 0 14 -224896 -66577
0;
#X obj 8 7 cnv 18 300 70 empty empty ARGOPdMiniModules 3 10 1 14 -4033
-1 1.04858e+06;
#X obj 31 27 cnv 10 10 10 empty empty Gerard 0 5 1 11 -4033 -1 1.04858e+06
;
#X obj 69 27 cnv 10 10 10 empty empty Paresys 0 5 1 11 -4033 -1 1.04858e+06
;
#X obj 12 40 pddp/pddplink http://gerard.paresys.free.fr/ARGOPd/;
#X text 13 85 Construit sous / Build under Pd 0.43.4-extended;
#X obj 13 111 pddp/pddplink http://puredata.info/downloads/pd-extended
;
#X obj 12 53 pddp/pddplink http://paresys.pagesperso-orange.fr/ARGOPd/
;
#X text 12 98 or Pd-0.48;
#X obj 13 124 pddp/pddplink http://puredata.info/downloads/pure-data
;
#X restore 369 335 pd ?.;
#X text 357 72 cyclone;
#X text 280 81 12 3 2018;
#X connect 6 0 7 0;
#X connect 7 0 11 0;
#X connect 7 0 12 0;
#X connect 7 0 8 0;
#X connect 7 0 31 0;
#X connect 8 0 9 0;
#X connect 9 0 14 0;
#X connect 11 0 1 0;
#X connect 12 0 4 0;
#X connect 13 0 10 0;
#X connect 14 0 15 0;
#X connect 22 0 30 1;
#X connect 23 0 30 0;
#X connect 24 0 30 2;
#X connect 30 0 25 0;
#X connect 30 1 6 0;
#X connect 30 2 24 0;
#X connect 30 3 22 0;
#X connect 31 0 8 1;
#X connect 31 0 13 0;
#X coords 0 -1 1 1 246 36 1 100 100;
#X restore 160 67 pd ARGO;
#N canvas 397 68 469 375 ARGO 0;
#X obj 101 101 cnv 20 244 34 empty ColorTime Oscill-TriRectangle. 79
9 1 14 -208064 -1 1.04858e+06;
#X obj 110 341 outlet~;
#X obj 101 131 cnv 4 10 4 empty empty empty 20 12 0 14 -1 -66577 0
;
#X obj 101 101 cnv 4 10 4 empty empty empty 20 12 0 14 -1728 -66577
0;
#X obj 163 341 outlet~;
#X obj 335 131 cnv 4 10 4 empty empty empty 0 0 0 9 -1 -66577 0;
#X obj 92 154 phasor~;
#X obj 167 187 -~ 0.5;
#X obj 187 246 *~;
#X obj 268 292 +~ 0.125;
#X obj 217 341 outlet~;
#X obj 110 316 *~ 2;
#X obj 164 315 *~ -2;
#X obj 218 316 *~ 2;
#X obj 268 316 *~ 8;
#X obj 268 341 outlet~;
#X obj 256 131 cnv 4 10 4 empty empty empty 0 0 0 9 -1 -66577 0;
#X obj 177 131 cnv 4 10 4 empty empty empty 0 0 0 9 -1 -66577 0;
#X text 84 134 Ramp up;
#X text 155 135 Ramp down;
#X text 233 136 Rectangle;
#X text 313 136 Triangle;
#X obj 100 106 nbx 7 12 0 20000 0 1 \$0-A ColorTime Hz 60 7 1 9 -208064
-1 -1 2217.46 256;
#X obj 87 26 inlet~;
#X obj 103 118 hsl 241 12 0 1 0 0 \$0-A ColorTime empty 0 7 1 9 -262144
-1 -1 20500 0;
#X obj 103 118 hsl 241 12 0 1 0 0 \$0-A ColorTime Db6 0 7 1 9 -208064
-1728 -1 20400 0;
#X obj 70 193 cnv 15 60 30 empty empty empty 20 12 0 14 -24198 -66577
0;
#N canvas 371 90 425 238 Help 0;
#X obj 8 85 cnv 15 400 100 empty empty empty 20 12 0 14 -233017 -66577
0;
#X text 12 87 Citation;
#X text 10 45 Sensibilitée de l'entrée de contrôle de la fréquence:
;
#X text 10 57 1 = 240 1/2 ton = 20 octaves;
#X text 21 103 The phasor~ object outputs a sawtooth signal...;
#X text 11 6 Oscillateur en forme de Rampes Rectangle Triangle;
#X text 11 23 Rampe = Dent de scie = Sawtooth;
#X restore 77 199 pd Help;
#X text 196 62 2 HSLIDER superposés;
#X text 220 51 ATTENTION;
#N canvas 686 258 344 337 Freq-v7-sig- 0;
#X obj 228 58 ftom;
#X obj 281 217 mtof;
#X obj 143 142 +~;
#X obj 11 172 snapshot~;
#X obj 11 194 change;
#X msg 11 219 set \$1;
#X obj 143 245 clip~ 0 20000;
#X obj 143 222 mtof~;
#X obj 143 274 outlet~;
#X obj 281 35 inlet;
#X obj 228 34 inlet;
#X obj 66 274 outlet;
#X obj 281 274 outlet;
#X text 63 292 Hslider;
#X obj 143 39 inlet~;
#X obj 10 38 loadbang;
#X obj 231 274 outlet;
#X obj 281 156 * 240;
#X obj 281 179 - 108;
#X obj 143 170 *~ 240;
#X obj 143 192 -~ 108;
#X obj 228 81 + 108;
#X obj 228 103 / 240;
#X obj 11 87 metro 200;
#X obj 66 38 r SendFluid;
#X text 72 303 Over;
#X text 283 292 Number;
#X text 224 17 Number;
#X text 230 291 Hslider;
#X text 232 302 Under;
#X text 283 5 Hslider;
#X text 288 16 Under;
#X msg 231 244 set \$1;
#N canvas 459 170 558 314 pitchb 0;
#X obj 77 119 mod 12;
#X obj 77 143 sel 0 1 2 3 4 5 6 7 8 9 10 11;
#X msg 253 178 A;
#X msg 307 178 B;
#X msg 199 178 G;
#X msg 10 178 C;
#X msg 64 178 D;
#X msg 118 178 E;
#X msg 145 178 F;
#X obj 211 9 inlet;
#X obj 384 123 div 12;
#X obj 211 87 t f f;
#X text 390 195 -> Numero de l'octave;
#X text 220 72 -> Numero MIDI de la note (69 = A3 = 440Hz);
#X msg 267 268 label \$1;
#X obj 267 291 outlet;
#X msg 37 178 Db;
#X msg 91 178 Eb;
#X msg 172 178 Gb;
#X msg 226 178 Ab;
#X msg 280 178 Bb;
#X text 376 86 (70 = A#3 = Bb3);
#X obj 267 246 symbol;
#X text 18 239 Impossible d'afficher # dans un label;
#X text 18 251 donc j'affiche b;
#X obj 211 59 int;
#X text 262 31 -> pour corriger certaines erreurs de calcul;
#X obj 211 33 + 120.1;
#X obj 384 152 - 12;
#X text 262 43 et le pb du passage a zero de mod 12;
#X obj 267 221 cyclone/sprintf %s%d;
#X connect 0 0 1 0;
#X connect 1 0 5 0;
#X connect 1 1 16 0;
#X connect 1 2 6 0;
#X connect 1 3 17 0;
#X connect 1 4 7 0;
#X connect 1 5 8 0;
#X connect 1 6 18 0;
#X connect 1 7 4 0;
#X connect 1 8 19 0;
#X connect 1 9 2 0;
#X connect 1 10 20 0;
#X connect 1 11 3 0;
#X connect 2 0 30 0;
#X connect 3 0 30 0;
#X connect 4 0 30 0;
#X connect 5 0 30 0;
#X connect 6 0 30 0;
#X connect 7 0 30 0;
#X connect 8 0 30 0;
#X connect 9 0 27 0;
#X connect 10 0 28 0;
#X connect 11 0 0 0;
#X connect 11 1 10 0;
#X connect 14 0 15 0;
#X connect 16 0 30 0;
#X connect 17 0 30 0;
#X connect 18 0 30 0;
#X connect 19 0 30 0;
#X connect 20 0 30 0;
#X connect 22 0 14 0;
#X connect 25 0 11 0;
#X connect 27 0 25 0;
#X connect 28 0 30 1;
#X connect 30 0 22 0;
#X restore 79 142 pd pitchb;
#X connect 0 0 21 0;
#X connect 0 0 33 0;
#X connect 1 0 12 0;
#X connect 2 0 3 0;
#X connect 2 0 19 0;
#X connect 3 0 4 0;
#X connect 4 0 5 0;
#X connect 5 0 11 0;
#X connect 6 0 8 0;
#X connect 7 0 6 0;
#X connect 9 0 17 0;
#X connect 10 0 0 0;
#X connect 14 0 2 0;
#X connect 15 0 23 0;
#X connect 17 0 18 0;
#X connect 18 0 1 0;
#X connect 19 0 20 0;
#X connect 20 0 7 0;
#X connect 21 0 22 0;
#X connect 22 0 2 1;
#X connect 22 0 32 0;
#X connect 23 0 3 0;
#X connect 24 0 23 1;
#X connect 32 0 16 0;
#X connect 33 0 11 0;
#X restore 62 63 pd Freq-v7-sig-;
#X obj 221 216 expr~ ($v1 < 0) - 0.5;
#X obj 353 46 cnv 15 100 70 empty empty empty 20 12 0 14 -24198 -66577
0;
#X text 376 48 library:;
#X text 357 59 pddp;
#X obj 365 331 cnv 15 42 25 empty empty empty 20 12 0 14 -24198 -66577
0;
#N canvas 336 174 316 152 ?. 0;
#X obj 8 84 cnv 15 300 56 empty empty empty 20 12 0 14 -224896 -66577
0;
#X obj 8 7 cnv 18 300 70 empty empty ARGOPdMiniModules 3 10 1 14 -4033
-1 1.04858e+06;
#X obj 31 27 cnv 10 10 10 empty empty Gerard 0 5 1 11 -4033 -1 1.04858e+06
;
#X obj 69 27 cnv 10 10 10 empty empty Paresys 0 5 1 11 -4033 -1 1.04858e+06
;
#X obj 12 40 pddp/pddplink http://gerard.paresys.free.fr/ARGOPd/;
#X text 13 85 Construit sous / Build under Pd 0.43.4-extended;
#X obj 13 111 pddp/pddplink http://puredata.info/downloads/pd-extended
;
#X obj 12 53 pddp/pddplink http://paresys.pagesperso-orange.fr/ARGOPd/
;
#X text 12 98 or Pd-0.48;
#X obj 13 124 pddp/pddplink http://puredata.info/downloads/pure-data
;
#X restore 369 335 pd ?.;
#X text 357 72 cyclone;
#X text 280 81 12 3 2018;
#X connect 6 0 7 0;
#X connect 7 0 11 0;
#X connect 7 0 12 0;
#X connect 7 0 8 0;
#X connect 7 0 31 0;
#X connect 8 0 9 0;
#X connect 9 0 14 0;
#X connect 11 0 1 0;
#X connect 12 0 4 0;
#X connect 13 0 10 0;
#X connect 14 0 15 0;
#X connect 22 0 30 1;
#X connect 23 0 30 0;
#X connect 24 0 30 2;
#X connect 30 0 25 0;
#X connect 30 1 6 0;
#X connect 30 2 24 0;
#X connect 30 3 22 0;
#X connect 31 0 8 1;
#X connect 31 0 13 0;
#X coords 0 -1 1 1 246 36 1 100 100;
#X restore 225 250 pd ARGO;
#X obj 32 84 switch~;
#N canvas 608 166 228 173 ARGOnOff 0;
#X obj 100 100 tgl 18 1 \$0-SendOnOff \$0-ReceiveOnOff On/Off 20 11
1 14 -4033 -1 -1 1 1;
#X obj 99 10 loadbang;
#X msg 99 33 \; pd dsp 1;
#X obj 100 129 outlet;
#X text -50 99 Audio On/Off du patch ->;
#X text -22 45 Audio General On ->;
#X text 107 82 17 3 2010;
#X connect 0 0 3 0;
#X connect 1 0 2 0;
#X coords 0 -1 1 1 65 18 2 100 100;
#X restore 32 66 pd ARGOnOff;
#X text 37 50 V;
#X text 37 43 |;
#X text 25 32 On/Off Patch;
#X text 55 44 (Audio);
#N canvas 175 68 374 396 ARGO 0;
#X obj 101 101 cnv 20 116 34 empty ColorAmpli empty 20 12 0 14 -261299
-1 1.04858e+06;
#X obj 85 353 outlet~;
#X obj 157 104 cnv 10 20 10 empty ColorAmpli Ampli. 1 5 1 14 -261299
-1 1.04858e+06;
#X obj 85 43 inlet~;
#X obj 85 330 *~;
#X obj 115 118 hsl 101 12 -80 20 0 1 \$0-A ColorAmpli -19dB 0 7 1 9
-261299 -1 -1 6100 0;
#X obj 101 101 cnv 4 10 4 empty empty empty 20 12 0 14 -1 -66577 0
;
#X obj 101 131 cnv 4 10 4 empty empty empty 20 12 0 14 -1 -66577 0
;
#X msg -42 139 label \$1;
#X text 148 194 -> 0.0001..10 = -80dB..20dB;
#X obj 142 175 expr (pow(10 \, $f1 / 20));
#X obj 142 215 sel 0.0001;
#X msg 100 244 0;
#X obj 100 118 tgl 12 1 \$0-A \$0-B Mute 2 -5 1 9 -261299 -1 -1 0 1
;
#X obj 99 146 select 0 1;
#X obj 140 295 line~;
#X obj 140 275 pack 0 10;
#X msg 123 74 set 0;
#X obj -42 93 cyclone/sprintf %ddB;
#X obj -42 116 cyclone/tosymbol;
#X obj 261 342 cnv 15 42 25 empty empty empty 20 12 0 14 -24198 -66577
0;
#N canvas 336 174 309 137 ?. 0;
#X obj 3 83 cnv 15 300 46 empty empty empty 20 12 0 14 -224896 -66577
0;
#X obj 3 6 cnv 18 300 70 empty empty ARGOPdMiniModules 3 10 1 14 -4033
-1 1.04858e+06;
#X obj 26 26 cnv 10 10 10 empty empty Gerard 0 5 1 11 -4033 -1 1.04858e+06
;
#X obj 64 26 cnv 10 10 10 empty empty Paresys 0 5 1 11 -4033 -1 1.04858e+06
;
#X obj 7 37 pddp/pddplink http://gerard.paresys.free.fr/ARGOPd/;
#X text 8 85 Construit sous / Build under Pd 0.43.4-extended;
#X obj 8 111 pddp/pddplink http://puredata.info/downloads/pd-extended
;
#X obj 7 50 pddp/pddplink http://paresys.pagesperso-orange.fr/ARGOPd/
;
#X text 7 98 or Pd-0.46-7 + deken;
#X restore 265 346 pd ?.;
#X text 228 110 17 3 2016;
#X connect 3 0 4 0;
#X connect 4 0 1 0;
#X connect 5 0 10 0;
#X connect 5 0 18 0;
#X connect 8 0 5 0;
#X connect 10 0 11 0;
#X connect 11 0 12 0;
#X connect 11 1 16 0;
#X connect 11 1 17 0;
#X connect 12 0 16 0;
#X connect 12 0 19 0;
#X connect 13 0 14 0;
#X connect 14 0 5 0;
#X connect 14 1 12 0;
#X connect 15 0 4 1;
#X connect 16 0 15 0;
#X connect 17 0 13 0;
#X connect 18 0 19 0;
#X connect 19 0 8 0;
#X coords 0 -1 1 1 118 36 1 100 100;
#X restore 27 183 pd ARGO;
#N canvas 175 68 374 396 ARGO 0;
#X obj 101 101 cnv 20 116 34 empty ColorAmpli empty 20 12 0 14 -261299
-1 1.04858e+06;
#X obj 85 353 outlet~;
#X obj 157 104 cnv 10 20 10 empty ColorAmpli Ampli. 1 5 1 14 -261299
-1 1.04858e+06;
#X obj 85 43 inlet~;
#X obj 85 330 *~;
#X obj 115 118 hsl 101 12 -80 20 0 1 \$0-A ColorAmpli -28dB 0 7 1 9
-261299 -1 -1 5200 0;
#X obj 101 101 cnv 4 10 4 empty empty empty 20 12 0 14 -1 -66577 0
;
#X obj 101 131 cnv 4 10 4 empty empty empty 20 12 0 14 -1 -66577 0
;
#X msg -42 139 label \$1;
#X text 148 194 -> 0.0001..10 = -80dB..20dB;
#X obj 142 175 expr (pow(10 \, $f1 / 20));
#X obj 142 215 sel 0.0001;
#X msg 100 244 0;
#X obj 100 118 tgl 12 1 \$0-A \$0-B Mute 2 -5 1 9 -261299 -1 -1 0 1
;
#X obj 99 146 select 0 1;
#X obj 140 295 line~;
#X obj 140 275 pack 0 10;
#X msg 123 74 set 0;
#X obj -42 93 cyclone/sprintf %ddB;
#X obj -42 116 cyclone/tosymbol;
#X obj 261 342 cnv 15 42 25 empty empty empty 20 12 0 14 -24198 -66577
0;
#N canvas 336 174 309 137 ?. 0;
#X obj 3 83 cnv 15 300 46 empty empty empty 20 12 0 14 -224896 -66577
0;
#X obj 3 6 cnv 18 300 70 empty empty ARGOPdMiniModules 3 10 1 14 -4033
-1 1.04858e+06;
#X obj 26 26 cnv 10 10 10 empty empty Gerard 0 5 1 11 -4033 -1 1.04858e+06
;
#X obj 64 26 cnv 10 10 10 empty empty Paresys 0 5 1 11 -4033 -1 1.04858e+06
;
#X obj 7 37 pddp/pddplink http://gerard.paresys.free.fr/ARGOPd/;
#X text 8 85 Construit sous / Build under Pd 0.43.4-extended;
#X obj 8 111 pddp/pddplink http://puredata.info/downloads/pd-extended
;
#X obj 7 50 pddp/pddplink http://paresys.pagesperso-orange.fr/ARGOPd/
;
#X text 7 98 or Pd-0.46-7 + deken;
#X restore 265 346 pd ?.;
#X text 228 110 17 3 2016;
#X connect 3 0 4 0;
#X connect 4 0 1 0;
#X connect 5 0 10 0;
#X connect 5 0 18 0;
#X connect 8 0 5 0;
#X connect 10 0 11 0;
#X connect 11 0 12 0;
#X connect 11 1 16 0;
#X connect 11 1 17 0;
#X connect 12 0 16 0;
#X connect 12 0 19 0;
#X connect 13 0 14 0;
#X connect 14 0 5 0;
#X connect 14 1 12 0;
#X connect 15 0 4 1;
#X connect 16 0 15 0;
#X connect 17 0 13 0;
#X connect 18 0 19 0;
#X connect 19 0 8 0;
#X coords 0 -1 1 1 118 36 1 100 100;
#X restore 225 176 pd ARGO;
#X obj 534 606 dac~ 1 2;
#X text 324 609 .wav file format recorder;
#X text 322 597 Enregistreur audio au format .wav;
#X text 365 444 Niveau general ->;
#X text 371 454 General level ->;
#X text 418 586 |;
#X text 418 581 ^;
#N canvas 175 68 381 386 ARGO 0;
#X obj 101 101 cnv 20 116 34 empty ColorAmpli empty 20 12 0 14 -261299
-1 1.04858e+06;
#X obj 85 353 outlet~;
#X obj 157 104 cnv 10 20 10 empty ColorAmpli Ampli. 1 5 1 14 -261299
-1 1.04858e+06;
#X obj 85 43 inlet~;
#X obj 85 330 *~;
#X obj 115 118 hsl 101 12 -80 20 0 1 \$0-A ColorAmpli 0dB 0 7 1 9 -261299
-1 -1 8000 0;
#X obj 101 101 cnv 4 10 4 empty empty empty 20 12 0 14 -1 -66577 0
;
#X obj 101 131 cnv 4 10 4 empty empty empty 20 12 0 14 -1 -66577 0
;
#X obj 207 101 cnv 4 10 4 empty empty empty 20 12 0 14 -1 -66577 0
;
#X obj 207 131 cnv 4 10 4 empty empty empty 20 12 0 14 -1 -66577 0
;
#X obj 222 352 outlet~;
#X obj 222 42 inlet~;
#X obj 222 329 *~;
#X msg -42 138 label \$1;
#X text 148 194 -> 0.0001..10 = -80dB..20dB;
#X obj 142 175 expr (pow(10 \, $f1 / 20));
#X obj 142 215 sel 0.0001;
#X msg 100 244 0;
#X obj 100 118 tgl 12 1 \$0-A \$0-B Mute 2 -5 1 9 -261299 -1 -1 0 1
;
#X obj 99 146 select 0 1;
#X obj 140 295 line~;
#X obj 140 275 pack 0 10;
#X msg 123 74 set 0;
#X obj -42 92 cyclone/sprintf %ddB;
#X text 228 110 6 3 2016;
#X obj -42 115 cyclone/tosymbol;
#X obj 273 344 cnv 15 42 25 empty empty empty 20 12 0 14 -24198 -66577
0;
#N canvas 336 174 309 137 ?. 0;
#X obj 3 83 cnv 15 300 46 empty empty empty 20 12 0 14 -224896 -66577
0;
#X obj 3 6 cnv 18 300 70 empty empty ARGOPdMiniModules 3 10 1 14 -4033
-1 1.04858e+06;
#X obj 26 26 cnv 10 10 10 empty empty Gerard 0 5 1 11 -4033 -1 1.04858e+06
;
#X obj 64 26 cnv 10 10 10 empty empty Paresys 0 5 1 11 -4033 -1 1.04858e+06
;
#X obj 7 37 pddp/pddplink http://gerard.paresys.free.fr/ARGOPd/;
#X text 8 85 Construit sous / Build under Pd 0.43.4-extended;
#X obj 8 111 pddp/pddplink http://puredata.info/downloads/pd-extended
;
#X obj 7 50 pddp/pddplink http://paresys.pagesperso-orange.fr/ARGOPd/
;
#X text 7 98 or Pd-0.46-7 + deken;
#X restore 277 348 pd ?.;
#X connect 3 0 4 0;
#X connect 4 0 1 0;
#X connect 5 0 15 0;
#X connect 5 0 23 0;
#X connect 11 0 12 0;
#X connect 12 0 10 0;
#X connect 13 0 5 0;
#X connect 15 0 16 0;
#X connect 16 0 17 0;
#X connect 16 1 21 0;
#X connect 16 1 22 0;
#X connect 17 0 21 0;
#X connect 17 0 25 0;
#X connect 18 0 19 0;
#X connect 19 0 5 0;
#X connect 19 1 17 0;
#X connect 20 0 12 1;
#X connect 20 0 4 1;
#X connect 21 0 20 0;
#X connect 22 0 18 0;
#X connect 23 0 25 0;
#X connect 25 0 13 0;
#X coords 0 -1 1 1 118 36 1 100 100;
#X restore 473 439 pd ARGO;
#N canvas 286 45 728 239 ARGO 0;
#X obj 239 36 inlet~;
#X text 77 17 Left input;
#X text 224 17 Right input;
#X text 356 37 Stereo wav file format recorder;
#X text 356 52 Enregistreur de fichier audio wav à 2 canaux (stereo)
;
#X obj 88 36 inlet~;
#X obj 171 198 writesf~ 2;
#X text 356 67 L'extension .wav est ajoutée au nom du fichier automatiquement
;
#X obj 103 100 hsl 161 17 0 127 0 0 \$0-A \$0-B Record. 103 10 1 14
-261299 -261299 -1 0 1;
#X obj 255 101 cnv 4 10 4 empty empty empty 20 12 0 14 -1 -66577 0
;
#X obj 101 101 cnv 4 10 4 empty empty empty 20 12 0 14 -1 -66577 0
;
#X obj 112 100 nbx 4 17 0 9999 0 0 \$0-A ColorTime sec 59 9 1 15 -208064
-1 -1 0 256;
#X text 355 103 Clic n'importe où pour commencer un enregistrement
Audio -> Clic encore pour arrêter l'enregistrement;
#X text 456 130 Click anywhere to start recording Audio ->;
#X text 455 142 Click again to stop recording;
#X text 121 122 Hslider caché transformé en bouton;
#N canvas 415 66 351 399 record2 0;
#X obj 136 95 sel 0 1;
#X msg 171 260 start;
#X msg 107 259 stop;
#X msg 155 150 open \$1;
#X obj 155 126 savepanel;
#X obj 165 203 delay 1000;
#X obj 245 323 float;
#X obj 291 322 + 1;
#X obj 223 295 metro 1000;
#X msg 291 296 -1;
#X msg 11 257 0;
#X msg 42 257 1;
#X obj 66 210 t b b;
#X obj 165 229 t b b b b;
#N canvas 317 143 290 366 CouleurRecord2 0;
#X obj 122 -19 +;
#X obj 122 37 +;
#X obj 61 -75 * -65536;
#X obj 117 -75 * -256;
#X obj 163 -77 * -1;
#X obj 122 68 - 1;
#X obj 115 -202 inlet;
#X text 77 -97 R;
#X text 123 -99 G;
#X text 172 -98 B;
#X obj 122 123 outlet;
#X text 170 -169 Rouge;
#X msg 134 -121 255;
#X msg 167 -121 0;
#X obj 115 -178 sel 0 1;
#X text 56 -170 Rose;
#X msg 73 -121 200;
#X msg 40 -121 252;
#X obj 134 -148 t b b b;
#X msg 198 -121 0;
#X msg 104 -121 200;
#X obj 40 -148 t b b b;
#X msg 122 96 color \$1 \$1 -1;
#X connect 0 0 1 1;
#X connect 1 0 5 0;
#X connect 2 0 1 0;
#X connect 3 0 0 0;
#X connect 4 0 0 1;
#X connect 5 0 22 0;
#X connect 6 0 14 0;
#X connect 12 0 2 0;
#X connect 13 0 3 0;
#X connect 14 0 21 0;
#X connect 14 1 18 0;
#X connect 16 0 3 0;
#X connect 17 0 2 0;
#X connect 18 0 12 0;
#X connect 18 1 13 0;
#X connect 18 2 19 0;
#X connect 19 0 4 0;
#X connect 20 0 4 0;
#X connect 21 0 17 0;
#X connect 21 1 16 0;
#X connect 21 2 20 0;
#X connect 22 0 10 0;
#X restore 25 326 pd CouleurRecord2;
#X obj 136 75 tgl 15 0 \$0-A \$0-B empty 19 9 1 12 -262144 -258113
-1 0 1;
#X obj 136 30 b;
#X obj 136 52 delay 200;
#X obj 136 8 inlet;
#X obj 25 356 outlet;
#X text 22 372 Couleur;
#X obj 291 356 outlet;
#X text 288 372 Compteur;
#X obj 155 356 outlet;
#X text 152 372 writesf;
#X obj 199 176 t b b;
#X msg 72 33 0;
#X obj 72 8 loadbang;
#X msg 260 124 set 0;
#X msg 261 173 set 1;
#X obj 261 149 b;
#X connect 0 0 12 0;
#X connect 0 1 4 0;
#X connect 0 1 28 0;
#X connect 1 0 23 0;
#X connect 2 0 8 0;
#X connect 2 0 23 0;
#X connect 3 0 23 0;
#X connect 3 0 25 0;
#X connect 4 0 3 0;
#X connect 4 0 30 0;
#X connect 5 0 13 0;
#X connect 6 0 7 0;
#X connect 7 0 6 1;
#X connect 7 0 21 0;
#X connect 8 0 6 0;
#X connect 9 0 7 0;
#X connect 10 0 14 0;
#X connect 11 0 14 0;
#X connect 12 0 10 0;
#X connect 12 1 2 0;
#X connect 13 0 11 0;
#X connect 13 1 1 0;
#X connect 13 2 8 0;
#X connect 13 3 9 0;
#X connect 14 0 19 0;
#X connect 15 0 0 0;
#X connect 16 0 17 0;
#X connect 17 0 15 0;
#X connect 18 0 16 0;
#X connect 25 0 5 0;
#X connect 25 1 9 0;
#X connect 26 0 15 0;
#X connect 27 0 26 0;
#X connect 28 0 15 0;
#X connect 29 0 15 0;
#X connect 30 0 29 0;
#X restore 56 147 pd record2;
#X obj 636 186 cnv 15 42 25 empty empty empty 20 12 0 14 -24198 -66577
0;
#N canvas 336 174 309 137 ?. 0;
#X obj 3 83 cnv 15 300 46 empty empty empty 20 12 0 14 -224896 -66577
0;
#X obj 3 6 cnv 18 300 70 empty empty ARGOPdMiniModules 3 10 1 14 -4033
-1 1.04858e+06;
#X obj 26 26 cnv 10 10 10 empty empty Gerard 0 5 1 11 -4033 -1 1.04858e+06
;
#X obj 64 26 cnv 10 10 10 empty empty Paresys 0 5 1 11 -4033 -1 1.04858e+06
;
#X obj 7 37 pddp/pddplink http://gerard.paresys.free.fr/ARGOPd/;
#X text 8 85 Construit sous / Build under Pd 0.43.4-extended;
#X obj 8 111 pddp/pddplink http://puredata.info/downloads/pd-extended
;
#X obj 7 50 pddp/pddplink http://paresys.pagesperso-orange.fr/ARGOPd/
;
#X text 7 98 or Pd-0.46-7 + deken;
#X restore 640 190 pd ?.;
#X text 175 81 7 3 2016;
#X connect 0 0 6 1;
#X connect 5 0 6 0;
#X connect 8 0 16 0;
#X connect 16 0 8 0;
#X connect 16 1 6 0;
#X connect 16 2 11 0;
#X coords 0 -1 1 1 166 17 1 100 100;
#X restore 328 565 pd ARGO;
#N canvas 446 64 251 267 ARGO 0;
#X obj 101 104 cnv 30 49 130 empty ColorAmpli empty 20 12 0 14 -1 -258113
0;
#X obj 102 110 vu 8 120 \$0-B empty 0 0 1 11 -1 -4034 0 0;
#X obj 49 35 inlet~;
#X obj 22 108 cnv 15 60 30 empty empty empty 20 12 0 14 -24198 -66577
0;
#N canvas 300 65 442 264 Help 0;
#X obj 12 48 cnv 15 400 150 empty empty empty 20 12 0 14 -233017 -66577
0;
#X text 16 50 Citation;
#X text 28 67 peakamp~ tracks and outputs the absolute value of the
peak amplitude of the incoming signal. It outputs when banged or using
its own internal clock. The peak value is reset each time peakamp~
outputs a value.;
#X text 29 123 cyclone library;
#X text 28 135 http://suita.chopin.edu.pl/~czaja/miXed/externs/cyclone.html
;
#X text 29 155 Voir doc Max/MSP MSP46ReferenceManual.pdf;
#X text 18 14 MM-Vumetre;
#X restore 29 114 pd Help;
#N canvas 541 112 317 265 VuMetre 0;
#X obj 48 19 inlet~;
#X obj 41 54 *~;
#X obj -25 132 snapshot~;
#X obj -25 155 sqrt;
#X obj -25 100 lop~ 10;
#X obj -25 179 rmstodb;
#X obj -88 19 loadbang;
#X obj -25 202 - 100;
#X obj 58 156 sqrt;
#X obj 58 180 rmstodb;
#X obj 58 203 - 100;
#X obj -89 102 metro 200;
#X obj -28 19 r SendFluid;
#X obj 58 102 cyclone/peakamp~ 1000;
#X obj -25 228 outlet;
#X obj 58 227 outlet;
#X connect 0 0 1 0;
#X connect 0 0 1 1;
#X connect 1 0 4 0;
#X connect 1 0 13 0;
#X connect 2 0 3 0;
#X connect 3 0 5 0;
#X connect 4 0 2 0;
#X connect 5 0 7 0;
#X connect 6 0 11 0;
#X connect 7 0 14 0;
#X connect 8 0 9 0;
#X connect 9 0 10 0;
#X connect 10 0 15 0;
#X connect 11 0 2 0;
#X connect 12 0 11 1;
#X connect 13 0 8 0;
#X restore 49 63 pd VuMetre;
#X obj 172 211 cnv 15 42 25 empty empty empty 20 12 0 14 -24198 -66577
0;
#N canvas 336 174 309 137 ?. 0;
#X obj 3 83 cnv 15 300 46 empty empty empty 20 12 0 14 -224896 -66577
0;
#X obj 3 6 cnv 18 300 70 empty empty ARGOPdMiniModules 3 10 1 14 -4033
-1 1.04858e+06;
#X obj 26 26 cnv 10 10 10 empty empty Gerard 0 5 1 11 -4033 -1 1.04858e+06
;
#X obj 64 26 cnv 10 10 10 empty empty Paresys 0 5 1 11 -4033 -1 1.04858e+06
;
#X obj 7 37 pddp/pddplink http://gerard.paresys.free.fr/ARGOPd/;
#X text 8 85 Construit sous / Build under Pd 0.43.4-extended;
#X obj 8 111 pddp/pddplink http://puredata.info/downloads/pd-extended
;
#X obj 7 50 pddp/pddplink http://paresys.pagesperso-orange.fr/ARGOPd/
;
#X text 7 98 or Pd-0.46-7 + deken;
#X restore 176 215 pd ?.;
#X obj 113 110 vu 8 120 \$0-B empty 0 0 1 11 -1 -4034 1 0;
#X obj 126 35 inlet~;
#N canvas 541 112 317 265 VuMetre 0;
#X obj 48 19 inlet~;
#X obj 41 54 *~;
#X obj -25 132 snapshot~;
#X obj -25 155 sqrt;
#X obj -25 100 lop~ 10;
#X obj -25 179 rmstodb;
#X obj -88 19 loadbang;
#X obj -25 202 - 100;
#X obj 58 156 sqrt;
#X obj 58 180 rmstodb;
#X obj 58 203 - 100;
#X obj -89 102 metro 200;
#X obj -28 19 r SendFluid;
#X obj 58 102 cyclone/peakamp~ 1000;
#X obj -25 228 outlet;
#X obj 58 227 outlet;
#X connect 0 0 1 0;
#X connect 0 0 1 1;
#X connect 1 0 4 0;
#X connect 1 0 13 0;
#X connect 2 0 3 0;
#X connect 3 0 5 0;
#X connect 4 0 2 0;
#X connect 5 0 7 0;
#X connect 6 0 11 0;
#X connect 7 0 14 0;
#X connect 8 0 9 0;
#X connect 9 0 10 0;
#X connect 10 0 15 0;
#X connect 11 0 2 0;
#X connect 12 0 11 1;
#X connect 13 0 8 0;
#X restore 126 63 pd VuMetre;
#X text 153 87 3 3 2019;
#X connect 2 0 5 0;
#X connect 5 0 1 0;
#X connect 5 1 1 1;
#X connect 9 0 10 0;
#X connect 10 0 8 0;
#X connect 10 1 8 1;
#X coords 0 -1 1 1 51 135 2 100 100;
#X restore 591 488 pd ARGO;
#N canvas 240 127 443 197 ARGO 0;
#X obj 101 101 cnv 12 92 15 empty ColorAmpli empty 20 12 0 14 -261299
-1 1.04858e+06;
#X obj 143 104 cnv 8 8 10 empty ColorAmpli Quanta. 1 5 1 14 -261299
-1 1.04858e+06;
#X obj 101 101 cnv 4 10 4 empty empty empty 20 12 0 14 -1 -66577 0
;
#X obj 101 112 cnv 4 10 4 empty empty empty 20 12 0 14 -1 -66577 0
;
#X obj 84 66 inlet~;
#X obj 112 102 nbx 3 12 0 999 0 1 \$0-A ColorAmpli empty 0 0 1 9 -261299
-1 -1 240 256;
#X obj 83 168 outlet~;
#X text 202 60 Quanta;
#X text 256 61 Echelle;
#X text 313 61 Notes dans l'octave;
#X text 212 73 120;
#X text 212 85 180;
#X text 212 97 240;
#X text 212 109 360;
#X text 212 121 480;
#X text 256 85 2/3 ton;
#X text 256 97 1/2 ton;
#X text 256 109 1/3 ton;
#X text 256 121 1/4 ton;
#X text 270 73 1 ton;
#X text 370 73 6;
#X text 370 85 9;
#X text 363 97 12;
#X text 363 109 18;
#X text 363 121 24;
#X text 80 -1 - "quantize a signal with a variable step-number";
#X text 211 140 0 = Off;
#X text 80 16 - Avec 240 \, Quanta sort des 1/2 tons tempérés (pour
le contrôle de la fréquence d'un oscillateur ou d'un filtre par exemple):
;
#X text 210 166 quantize~ (library zexy);
#X obj 83 135 zexy/quantize~ 16;
#X connect 4 0 29 0;
#X connect 5 0 29 0;
#X connect 29 0 6 0;
#X coords 0 -1 1 1 94 17 1 100 100;
#X restore 225 221 pd ARGO;
#N canvas 723 227 349 246 ARGO 0;
#X obj 101 101 cnv 20 104 34 empty ColorAmpli empty 20 12 0 14 -261299
-1 1.04858e+06;
#X obj 88 200 outlet~;
#X obj 134 104 cnv 10 20 10 empty ColorAmpli Ampli. 1 5 1 14 -261299
-1 1.04858e+06;
#X obj 88 74 inlet~;
#X obj 185 74 inlet~;
#X obj 87 173 *~;
#X obj 195 101 cnv 4 10 4 empty empty empty 20 12 0 14 -258113 -66577
0;
#X obj 101 101 cnv 4 10 4 empty empty empty 20 12 0 14 -1 -66577 0
;
#X obj 101 131 cnv 4 10 4 empty empty empty 20 12 0 14 -1 -66577 0
;
#X obj 103 118 hsl 101 12 0 1.25 0 1 \$0-A ColorAmpli empty 0 7 1 9
-262144 -1 -1 0 0;
#X obj 103 118 hsl 101 12 0 1.25 0 0 \$0-A ColorAmpli -80dB 0 7 1 9
-261299 -258049 -1 0 0;
#X text 211 127 2 HSLIDER superposés;
#X text 210 116 <-- ATTENTION;
#X obj 215 154 cnv 15 60 30 empty empty empty 20 12 0 14 -24198 -66577
0;
#N canvas 346 353 425 238 Help 0;
#X text 11 19 Amplificateur à gain controlé logarithmiquement;
#X text 10 45 Sensibilitée de l'entrée de contrôle du gain:;
#X text 10 60 1 = +80 dB;
#X text 11 74 Cela signifie par exemple:;
#X text 189 86 1 = 0 dB;
#X text 171 98 0.75 = -20 dB;
#X text 171 111 0.5 = -40 dB;
#X text 171 124 0.25 = -60 dB;
#X text 171 74 1.25 = +20 dB (slider à droite);
#X text 189 137 0 = -80 dB (slider à gauche);
#X restore 222 160 pd Help;
#X text 22 33 Logarithmic Gain Controlled Amplifier;
#X text 209 97 30 3 2021;
#X text 22 49 Amplificateur à gain controlé logarithmiquement;
#X obj 271 199 cnv 15 34 16 empty empty empty 20 12 0 14 -24198 -66577
0;
#N canvas 353 174 333 161 ?? 0;
#X obj 17 89 cnv 15 300 56 empty empty empty 20 12 0 14 -224896 -66577
0;
#X obj 17 12 cnv 18 300 70 empty empty ARGOPdMiniModules 3 10 1 14
-4033 -1 1.04858e+06;
#X obj 40 32 cnv 10 10 10 empty empty Gerard 0 5 1 11 -4033 -1 1.04858e+06
;
#X obj 78 32 cnv 10 10 10 empty empty Paresys 0 5 1 11 -4033 -1 1.04858e+06
;
#X obj 20 54 pddp/pddplink http://gerard.paresys.free.fr/ARGOPd/;
#X obj 22 126 pddp/pddplink http://puredata.info/downloads/pd-extended
;
#X obj 22 102 pddp/pddplink http://puredata.info/downloads/pure-data
;
#X text 22 90 Construit sous / Build under Pd-0.49...;
#X text 21 114 or Pd 0.43.4-extended;
#X obj 20 66 pddp/pddplink https://paresys.pagesperso-orange.fr/ARGOPd/
;
#X obj 20 42 pddp/pddplink https://github.com/gerardparesys/ARGOPd
;
#X restore 271 199 pd ??;
#N canvas 593 326 583 314 Ampli-v2-log 0;
#X obj 253 60 loadbang;
#X msg 360 209 set \$1;
#X obj 181 99 +~;
#X obj 360 151 snapshot~;
#X obj 360 184 change;
#X obj 429 60 inlet;
#X obj 384 241 outlet;
#X obj 181 60 inlet~;
#X msg 429 209 label \$1;
#X obj 360 112 metro 200;
#X obj 312 60 r SendFluid;
#X text 381 257 Hslider;
#X text 424 33 Hslider;
#X text 389 269 Over;
#X text 429 44 Under;
#X obj 181 241 outlet~;
#X text 119 135 0..1.25 ->;
#X text 17 201 0.0001..10 = -80dB..20dB ->;
#X obj 429 88 * 80;
#X obj 429 112 - 80;
#X text 438 167 -> -80dB..20dB;
#X text 435 128 -> -80 .. 20;
#X text 377 282 0 .. 1.25;
#X text 416 21 0 .. 1.25;
#X text 315 8 Fluidité de;
#X text 314 19 l'affichage;
#X text 315 30 des sliders;
#X text 293 41 (200ms par défaut);
#X obj 429 184 cyclone/tosymbol;
#X obj 429 151 cyclone/sprintf %ddB;
#X obj 181 151 expr~ pow(10000 \, $v1)/10000;
#X connect 0 0 9 0;
#X connect 1 0 6 0;
#X connect 2 0 3 0;
#X connect 2 0 30 0;
#X connect 3 0 4 0;
#X connect 4 0 1 0;
#X connect 5 0 2 1;
#X connect 5 0 18 0;
#X connect 7 0 2 0;
#X connect 8 0 6 0;
#X connect 9 0 3 0;
#X connect 10 0 9 1;
#X connect 18 0 19 0;
#X connect 19 0 29 0;
#X connect 28 0 8 0;
#X connect 29 0 28 0;
#X connect 30 0 15 0;
#X restore 102 149 pd Ampli-v2-log;
#X connect 3 0 5 0;
#X connect 4 0 20 0;
#X connect 5 0 1 0;
#X connect 9 0 20 1;
#X connect 20 0 5 1;
#X connect 20 1 10 0;
#X coords 0 -1 1 1 106 36 1 100 100;
#X restore 464 295 pd ARGO;
#X text 42 136 Change ->;
#N canvas 370 149 631 465 ARGO 0;
#X obj 301 101 cnv 20 130 30 empty ColorForm Chaos. 75 7 1 14 -188398
-1 1.04858e+06;
#X obj 301 127 cnv 4 10 4 empty empty empty 20 12 0 14 -1 -66577 0
;
#X obj 274 41 inlet~;
#X obj 301 101 cnv 4 10 4 empty empty empty 20 12 0 14 -1 -66577 0
;
#X obj 249 244 outlet~;
#X obj 303 114 hsl 127 12 3 4 1 1 \$0-A ColorForm P=3.76 0 7 1 9 -208064
-1 -1 9900 0;
#X obj 481 93 cnv 15 60 30 empty empty empty 20 12 0 14 -24198 -66577
0;
#N canvas 205 346 512 170 Help 0;
#X text 36 27 n+1;
#X text 106 27 n;
#X text 159 27 n;
#X text 63 22 = P * X * (1 - X );
#X text 14 21 - X;
#X text 13 45 - Voir ->;
#X text 15 113 - Voir ->;
#X text 193 21 chaotique si 0 < X < 1 et 3.57 < P < 4;
#X text 13 73 - En faisant varier P de 3 à 4 \, on passe d'une oscillation
régulière \, stable \, à une variation chaotique... La limite est P
= 3.57. C'est le "scénario de Feigenbaum".;
#X obj 74 46 pddp/pddplink http://fr.wikipedia.org/wiki/Fichier:LogisticMap_BifurcationDiagram.png
;
#X obj 75 115 pddp/pddplink http://fr.wikipedia.org/wiki/Théorie_du_chaos
;
#X obj 77 129 pddp/pddplink http://en.wikipedia.org/wiki/Chaos_theory
;
#X restore 488 100 pd Help;
#X obj 249 196 -~ 0.5;
#X obj 249 220 *~ 2;
#X text 166 245 -1 < out < 1;
#X obj 324 101 tgl 12 1 \$0-A \$0-B On 15 7 1 9 -262144 -1 -1 1 1;
#X obj 324 244 switch~;
#X obj 558 428 cnv 15 52 22 empty empty empty 20 12 0 14 -24198 -66577
0;
#N canvas 353 174 321 152 ?... 0;
#X obj 8 84 cnv 15 300 56 empty empty empty 20 12 0 14 -224896 -66577
0;
#X obj 8 7 cnv 18 300 70 empty empty ARGOPdMiniModules 3 10 1 14 -4033
-1 1.04858e+06;
#X obj 31 27 cnv 10 10 10 empty empty Gerard 0 5 1 11 -4033 -1 1.04858e+06
;
#X obj 69 27 cnv 10 10 10 empty empty Paresys 0 5 1 11 -4033 -1 1.04858e+06
;
#X obj 12 40 pddp/pddplink http://gerard.paresys.free.fr/ARGOPd/;
#X obj 13 121 pddp/pddplink http://puredata.info/downloads/pd-extended
;
#X obj 13 97 pddp/pddplink http://puredata.info/downloads/pure-data
;
#X text 13 85 Construit sous / Build under Pd-0.49...;
#X text 12 109 or Pd 0.43.4-extended;
#X obj 12 53 pddp/pddplink https://paresys.pagesperso-orange.fr/ARGOPd/
;
#X restore 561 431 pd ?...;
#X text 268 22 Ramp up;
#X obj 466 41 inlet~;
#X obj 441 244 outlet~;
#X obj 441 196 -~ 0.5;
#X obj 441 220 *~ 2;
#X text 460 22 Ramp up;
#X obj 421 127 cnv 4 10 4 empty empty empty 20 12 0 14 -1 -66577 0
;
#X obj 421 101 cnv 4 10 4 empty empty empty 20 12 0 14 -1 -66577 0
;
#X obj 492 146 pipe 100;
#X obj 360 101 cnv 4 10 4 empty empty empty 20 12 0 14 -260097 -66577
0;
#X obj 375 41 inlet;
#X text 358 24 3 < P < 4;
#N canvas 216 447 516 282 Chaos1 0;
#X obj 206 228 outlet~;
#X obj 257 17 inlet~;
#X obj 311 17 inlet;
#X obj 206 183 samphold~;
#X obj 221 102 *~;
#X obj 206 131 *~;
#X obj 146 79 -~ 1;
#X obj 146 102 *~ -1;
#X text 322 0 P;
#X text 191 36 X;
#X text 179 246 P * X * (1 - X);
#X text 294 157 0 < X < 1;
#X text 1 140 Voir: G05.execution.order.pd;
#N canvas 598 345 235 150 delay-reader 0;
#X obj 65 91 outlet~;
#X obj 65 28 inlet;
#X obj 65 59 tabreceive~;
#X connect 1 0 2 0;
#X connect 2 0 0 0;
#X restore 146 52 pd delay-reader;
#N canvas 545 233 259 230 delay-writer 0;
#X obj 85 73 inlet~;
#X obj 26 72 inlet;
#X obj 85 108 tabsend~;
#X connect 0 0 2 0;
#X connect 1 0 2 0;
#X restore 75 228 pd delay-writer;
#X obj 330 228 block~ 1;
#X obj 206 158 clip~ 1e-09 1;
#X obj 75 17 inlet;
#X connect 1 0 3 1;
#X connect 2 0 4 1;
#X connect 3 0 14 1;
#X connect 3 0 0 0;
#X connect 4 0 5 1;
#X connect 5 0 16 0;
#X connect 6 0 7 0;
#X connect 7 0 5 0;
#X connect 13 0 6 0;
#X connect 13 0 4 0;
#X connect 16 0 3 0;
#X connect 17 0 14 0;
#X connect 17 0 13 0;
#X restore 249 172 pd Chaos1;
#X text 338 83 12 8 2019;
#X obj 66 41 loadbang;
#N canvas 256 129 753 425 RenameArrays2 0;
#X obj 118 56 realtime;
#X obj 118 80 * 100;
#X obj 118 103 int;
#X obj 87 290 pack s s;
#X msg 87 315 \; \$1 rename \$2;
#X msg 22 208 set \$1;
#X text 66 319 (1);
#X text -1 207 (2);
#X text 65 241 (3);
#X text 443 14 array -> Voir:;
#X text 443 27 Help Browser/2.control.examples/15.array.pd;
#X text 443 40 Help Browser/2.control.examples/16.more.arrays.pd;
#X text 443 52 Help Browser/5.reference/all_about_arrays.pd;
#X obj 234 289 pack s s;
#X msg 234 314 \; \$1 rename \$2;
#X msg 186 208 set \$1;
#X text 213 319 (1);
#X text 161 207 (2);
#X text 213 241 (3);
#X obj 163 32 inlet;
#X text 357 186 Démarrer en nommant les arrays (graph) A et B et en
mettant A et B dans (3);
#X text 353 137 SOLUTION:;
#X text 358 153 (1) Renommer les 2 arrays;
#X obj 19 377 outlet;
#X obj 183 378 outlet;
#X text 355 109 PROBLEME: Comment dupliquer un MiniModule comportant
un ou plusieurs arrays;
#X text 357 168 (2) Renommer le message qui renomme les 2 arrays;
#X obj 53 180 t a a b a;
#X obj 213 179 t a a b a;
#X msg 87 242 A320;
#X msg 234 241 B320;
#N canvas 0 23 1149 303 (subpatch) 0;
#X array B320 10 float 2;
#X coords 0 0 10 1 300 40 0;
#X restore 256 352 graph;
#N canvas 0 23 844 357 (subpatch) 0;
#X array A320 10 float 2;
#X coords 0 0 10 1 300 40 0;
#X restore 108 351 graph;
#X text 155 10 loadbang;
#X obj 53 131 cyclone/sprintf A%d;
#X obj 213 130 cyclone/sprintf B%d;
#X obj 213 152 cyclone/tosymbol;
#X obj 53 153 cyclone/tosymbol;
#X obj 234 263 cyclone/tosymbol;
#X obj 87 264 cyclone/tosymbol;
#X connect 0 0 1 0;
#X connect 1 0 2 0;
#X connect 2 0 34 0;
#X connect 2 0 35 0;
#X connect 3 0 4 0;
#X connect 5 0 29 0;
#X connect 5 0 23 0;
#X connect 13 0 14 0;
#X connect 15 0 30 0;
#X connect 15 0 24 0;
#X connect 19 0 0 1;
#X connect 27 0 5 0;
#X connect 27 2 29 0;
#X connect 27 3 3 1;
#X connect 28 0 15 0;
#X connect 28 2 30 0;
#X connect 28 3 13 1;
#X connect 29 0 39 0;
#X connect 30 0 38 0;
#X connect 34 0 37 0;
#X connect 35 0 36 0;
#X connect 36 0 28 0;
#X connect 37 0 27 0;
#X connect 38 0 13 0;
#X connect 39 0 3 0;
#X restore 66 122 pd RenameArrays2;
#N canvas 216 447 516 282 Chaos1 0;
#X obj 206 228 outlet~;
#X obj 257 17 inlet~;
#X obj 311 17 inlet;
#X obj 206 183 samphold~;
#X obj 221 102 *~;
#X obj 206 131 *~;
#X obj 146 79 -~ 1;
#X obj 146 102 *~ -1;
#X text 322 0 P;
#X text 191 36 X;
#X text 179 246 P * X * (1 - X);
#X text 294 157 0 < X < 1;
#X text 1 140 Voir: G05.execution.order.pd;
#N canvas 598 345 235 150 delay-reader 0;
#X obj 65 91 outlet~;
#X obj 65 28 inlet;
#X obj 65 59 tabreceive~;
#X connect 1 0 2 0;
#X connect 2 0 0 0;
#X restore 146 52 pd delay-reader;
#N canvas 545 233 259 230 delay-writer 0;
#X obj 85 73 inlet~;
#X obj 26 72 inlet;
#X obj 85 108 tabsend~;
#X connect 0 0 2 0;
#X connect 1 0 2 0;
#X restore 75 228 pd delay-writer;
#X obj 330 228 block~ 1;
#X obj 206 158 clip~ 1e-09 1;
#X obj 75 17 inlet;
#X connect 1 0 3 1;
#X connect 2 0 4 1;
#X connect 3 0 14 1;
#X connect 3 0 0 0;
#X connect 4 0 5 1;
#X connect 5 0 16 0;
#X connect 6 0 7 0;
#X connect 7 0 5 0;
#X connect 13 0 6 0;
#X connect 13 0 4 0;
#X connect 16 0 3 0;
#X connect 17 0 14 0;
#X connect 17 0 13 0;
#X restore 441 172 pd Chaos1;
#X obj 9 272 cnv 15 600 150 empty empty empty 20 12 0 14 -258113 -66577
0;
#X text 12 326 Cela crash Pd...;
#X text 13 395 4 Coller le MiniModule dans le patch;
#X text 13 369 2 Fermer le patch d'où il a été copié;
#X text 285 345 SOLUTION;
#X text 12 302 Ces MiniModules ne sont pas duplicables directement
;
#X text 333 314 (by doing: Duplicate or Copy + Paste);
#X text 333 326 This crash Pd ...;
#X text 13 357 1 Copier le MiniModule;
#X text 333 357 1 Copy the MiniModule;
#X text 333 369 2 Close the patch where it was copied;
#X text 13 382 3 Ré-ouvrir le patch;
#X text 333 382 3 Re-open the patch;
#X text 333 395 4 Paste the MiniModule in the patch;
#X text 236 272 ATTENTION;
#X text 12 289 Bug sous MacOSX;
#X text 333 289 Bug under MacOSX;
#X text 12 314 (en faisant: Dupliquer ou Copier + Coller);
#X text 333 302 These MiniModules are not directly duplicable;
#N canvas 295 182 301 243 label 0;
#X obj 71 50 inlet;
#X obj 71 172 outlet;
#X msg 71 146 label \$1;
#X obj 71 79 expr (int(1000 * $f1) / 1000) \;;
#X obj 71 102 cyclone/sprintf P=%s;
#X obj 71 124 cyclone/tosymbol;
#X connect 0 0 3 0;
#X connect 2 0 1 0;
#X connect 3 0 4 0;
#X connect 4 0 5 0;
#X connect 5 0 2 0;
#X restore 203 109 pd label;
#X connect 2 0 27 1;
#X connect 5 0 27 2;
#X connect 5 0 23 0;
#X connect 5 0 51 0;
#X connect 8 0 9 0;
#X connect 9 0 4 0;
#X connect 11 0 12 0;
#X connect 16 0 31 1;
#X connect 18 0 19 0;
#X connect 19 0 17 0;
#X connect 23 0 31 2;
#X connect 25 0 5 0;
#X connect 27 0 8 0;
#X connect 29 0 30 0;
#X connect 30 0 27 0;
#X connect 30 1 31 0;
#X connect 31 0 18 0;
#X connect 51 0 5 0;
#X coords 0 -1 1 1 132 32 1 300 100;
#X restore 100 125 pd ARGO;
#N canvas 384 205 337 283 ARGO 0;
#X obj 113 104 cnv 10 20 10 empty empty Switch 1 5 1 14 -262144 -1
1.04858e+06;
#X obj 101 101 cnv 4 10 4 empty empty empty 20 12 0 14 -1 -66577 0
;
#X obj 101 112 cnv 4 10 4 empty empty empty 20 12 0 14 -1 -66577 0
;
#X obj 18 41 inlet~;
#X obj 89 228 outlet~;
#X obj 88 200 *~;
#X obj 103 173 line~;
#X msg 103 150 \$1 20;
#X obj 257 41 inlet;
#X obj 194 100 tgl 12 1 \$0-A \$0-B empty 17 7 0 10 -262144 -1 -1 1
1;
#X text 65 40 1: Play 0: Stop bang: Change ->;
#X obj 195 101 cnv 4 10 4 empty empty empty 20 12 0 14 -260097 -66577
0;
#X text 131 84 19 8 2019;
#X obj 212 209 cnv 15 52 22 empty empty empty 20 12 0 14 -24198 -66577
0;
#N canvas 353 174 321 152 ?... 0;
#X obj 8 84 cnv 15 300 56 empty empty empty 20 12 0 14 -224896 -66577
0;
#X obj 8 7 cnv 18 300 70 empty empty ARGOPdMiniModules 3 10 1 14 -4033
-1 1.04858e+06;
#X obj 31 27 cnv 10 10 10 empty empty Gerard 0 5 1 11 -4033 -1 1.04858e+06
;
#X obj 69 27 cnv 10 10 10 empty empty Paresys 0 5 1 11 -4033 -1 1.04858e+06
;
#X obj 12 40 pddp/pddplink http://gerard.paresys.free.fr/ARGOPd/;
#X obj 13 121 pddp/pddplink http://puredata.info/downloads/pd-extended
;
#X obj 13 97 pddp/pddplink http://puredata.info/downloads/pure-data
;
#X text 13 85 Construit sous / Build under Pd-0.49...;
#X text 12 109 or Pd 0.43.4-extended;
#X obj 12 53 pddp/pddplink https://paresys.pagesperso-orange.fr/ARGOPd/
;
#X restore 215 212 pd ?...;
#X connect 3 0 5 0;
#X connect 5 0 4 0;
#X connect 6 0 5 1;
#X connect 7 0 6 0;
#X connect 8 0 9 0;
#X connect 9 0 7 0;
#X coords 0 -1 1 1 106 17 2 100 100;
#X restore 453 150 pd ARGO;
#N canvas 462 219 430 320 ARGO 0;
#X obj 40 -35 inlet~;
#X obj 251 108 cnv 10 44 10 empty empty Scope. 1 5 1 14 -262144 -1
1.04858e+06;
#X obj 101 101 cnv 4 10 4 empty empty empty 20 12 0 14 -1 -66577 0
;
#X msg -36 168 frgb 255 0 0;
#X obj 124 105 nbx 4 12 1 2000 0 1 \$0-A ColorTime ms/div 40 7 1 9
-208064 -1 -1 50 256;
#X obj 205 105 tgl 12 1 \$0-A \$0-B Sync 15 6 1 9 -262144 -1 -1 0 1
;
#X msg 128 52 delay 0 \, triglevel 0 \, trigger 0;
#X obj 126 5 sel 0 1;
#X msg -39 192 brgb 255 255 255;
#X obj 85 64 * 2;
#X msg 146 28 delay 1 \, triglevel 0.1 \, trigger 1;
#X obj 277 -36 inlet~;
#X obj 289 101 cnv 4 10 4 empty empty empty 20 12 0 14 -1 -66577 0
;
#X obj -14 80 t b b b b;
#X obj -15 57 bng 15 250 50 0 empty empty empty 17 7 0 10 -262144 -1
-1;
#X obj 196 -34 cnv 15 60 30 empty empty empty 20 12 0 14 -24198 -66577
0;
#N canvas 374 104 413 135 Help 0;
#X text 24 54 Voir MSP46ReferenceManual.pdf;
#X text 23 1 utilise l'objet Scope~ de la library cyclone;
#X text 24 26 Voir Browser -> Pure Data/examples/cyclone/scope-test.pd
;
#X text 24 40 Voir Browser -> Pure Data/examples/cyclone/pink-test.pd
;
#X text 24 -20 Scope;
#X restore 203 -28 pd Help;
#X obj 101 121 cnv 15 199 129 empty empty empty 20 12 0 14 -1 -66577
0;
#X obj 40 -11 clip~ -1 1;
#X obj 277 -12 clip~ -1 1;
#X msg -24 136 range -1 1;
#X msg -33 111 bufsize 176;
#X obj 101 123 cyclone/scope~ 198 61 100 3 176 -1 1 0 0 0 0 255 0 0
255 255 255 0 98 102 0 empty;
#X obj 101 187 cyclone/scope~ 198 61 100 3 176 -1 1 0 0 0 0 255 0 0
255 255 255 0 98 102 0 empty;
#X text 243 85 29 3 2021;
#X obj 307 233 cnv 15 34 16 empty empty empty 20 12 0 14 -24198 -66577
0;
#N canvas 353 174 333 161 ?? 0;
#X obj 17 89 cnv 15 300 56 empty empty empty 20 12 0 14 -224896 -66577
0;
#X obj 17 12 cnv 18 300 70 empty empty ARGOPdMiniModules 3 10 1 14
-4033 -1 1.04858e+06;
#X obj 40 32 cnv 10 10 10 empty empty Gerard 0 5 1 11 -4033 -1 1.04858e+06
;
#X obj 78 32 cnv 10 10 10 empty empty Paresys 0 5 1 11 -4033 -1 1.04858e+06
;
#X obj 20 54 pddp/pddplink http://gerard.paresys.free.fr/ARGOPd/;
#X obj 22 126 pddp/pddplink http://puredata.info/downloads/pd-extended
;
#X obj 22 102 pddp/pddplink http://puredata.info/downloads/pure-data
;
#X text 22 90 Construit sous / Build under Pd-0.49...;
#X text 21 114 or Pd 0.43.4-extended;
#X obj 20 66 pddp/pddplink https://paresys.pagesperso-orange.fr/ARGOPd/
;
#X obj 20 42 pddp/pddplink https://github.com/gerardparesys/ARGOPd
;
#X restore 307 233 pd ??;
#X connect 0 0 18 0;
#X connect 3 0 22 0;
#X connect 3 0 23 0;
#X connect 4 0 9 0;
#X connect 5 0 7 0;
#X connect 6 0 22 0;
#X connect 6 0 23 0;
#X connect 7 0 6 0;
#X connect 7 1 10 0;
#X connect 8 0 22 0;
#X connect 8 0 23 0;
#X connect 9 0 22 0;
#X connect 9 0 23 0;
#X connect 10 0 22 0;
#X connect 10 0 23 0;
#X connect 11 0 19 0;
#X connect 13 0 21 0;
#X connect 13 1 20 0;
#X connect 13 2 3 0;
#X connect 13 3 8 0;
#X connect 14 0 13 0;
#X connect 18 0 22 0;
#X connect 19 0 23 0;
#X connect 20 0 22 0;
#X connect 20 0 23 0;
#X connect 21 0 22 0;
#X connect 21 0 23 0;
#X coords 0 -1 1 1 200 150 2 100 100;
#X restore 157 300 pd ARGO;
#X obj 648 607 cnv 15 34 16 empty empty empty 20 12 0 14 -24198 -66577
0;
#N canvas 353 174 333 161 ?? 0;
#X obj 17 89 cnv 15 300 56 empty empty empty 20 12 0 14 -224896 -66577
0;
#X obj 17 12 cnv 18 300 70 empty empty ARGOPdMiniModules 3 10 1 14
-4033 -1 1.04858e+06;
#X obj 40 32 cnv 10 10 10 empty empty Gerard 0 5 1 11 -4033 -1 1.04858e+06
;
#X obj 78 32 cnv 10 10 10 empty empty Paresys 0 5 1 11 -4033 -1 1.04858e+06
;
#X obj 20 54 pddp/pddplink http://gerard.paresys.free.fr/ARGOPd/;
#X obj 22 126 pddp/pddplink http://puredata.info/downloads/pd-extended
;
#X obj 22 102 pddp/pddplink http://puredata.info/downloads/pure-data
;
#X text 22 90 Construit sous / Build under Pd-0.49...;
#X text 21 114 or Pd 0.43.4-extended;
#X obj 20 66 pddp/pddplink https://paresys.pagesperso-orange.fr/ARGOPd/
;
#X obj 20 42 pddp/pddplink https://github.com/gerardparesys/ARGOPd
;
#X restore 648 607 pd ??;
#N canvas 436 80 481 379 ARGO 0;
#X obj 101 101 cnv 20 130 84 empty ColorForm Reverb2/2. 57 12 1 14
-188398 -1 1.04858e+06;
#X obj 101 181 cnv 4 10 4 empty empty empty 20 12 0 14 -1 -66577 0
;
#X obj 221 181 cnv 4 10 4 empty empty empty 0 0 0 9 -1 -66577 0;
#X obj 88 28 inlet~;
#X obj 416 28 inlet~;
#X obj 101 101 cnv 4 10 4 empty empty empty 20 12 0 14 -1 -66577 0
;
#X obj 88 339 outlet~;
#X obj 217 339 outlet~;
#X obj 221 101 cnv 4 10 4 empty empty empty 0 0 0 9 -1 -66577 0;
#N canvas 438 430 301 243 DirEffect 0;
#X obj 20 25 inlet~;
#X obj 193 25 inlet~;
#X obj 133 25 inlet~;
#X obj 68 25 inlet~;
#X obj 20 207 outlet~;
#X obj 193 207 outlet~;
#X text 26 9 Dir1;
#X text 76 9 Dir2;
#X text 189 9 Effect2;
#X text 129 9 Effect1;
#X obj 68 146 *~;
#X obj 133 146 *~;
#X obj 193 146 *~;
#X obj 20 146 *~;
#X obj 248 25 inlet;
#X text 247 9 0...100;
#X obj 208 82 * 0.002;
#X obj 83 82 - 100;
#X obj 83 108 * -0.01;
#X connect 0 0 13 0;
#X connect 1 0 12 0;
#X connect 2 0 11 0;
#X connect 3 0 10 0;
#X connect 10 0 5 0;
#X connect 11 0 4 0;
#X connect 12 0 5 0;
#X connect 13 0 4 0;
#X connect 14 0 16 0;
#X connect 14 0 17 0;
#X connect 16 0 11 1;
#X connect 16 0 12 1;
#X connect 17 0 18 0;
#X connect 18 0 10 1;
#X connect 18 0 13 1;
#X restore 88 304 pd DirEffect;
#X f 22;
#X obj 109 120 bng 12 2000 50 0 \$0-A \$0-B Silence 14 6 1 9 -188398
-1 -1;
#N canvas 155 302 339 214 BrillanceStereo 0;
#X msg 61 47 clear;
#X obj 104 140 lop~ 5;
#X obj 243 116 line;
#X obj 104 19 inlet~;
#X obj 104 169 outlet~;
#X obj 61 18 inlet;
#X obj 243 16 inlet;
#X msg 243 92 \$1 10;
#X obj 167 141 lop~ 5;
#X obj 167 20 inlet~;
#X obj 167 170 outlet~;
#X obj 243 66 mtof;
#X obj 243 40 + 35;
#X connect 0 0 1 0;
#X connect 0 0 8 0;
#X connect 1 0 4 0;
#X connect 2 0 1 1;
#X connect 2 0 8 1;
#X connect 3 0 1 0;
#X connect 5 0 0 0;
#X connect 6 0 12 0;
#X connect 7 0 2 0;
#X connect 8 0 10 0;
#X connect 9 0 8 0;
#X connect 11 0 7 0;
#X connect 12 0 11 0;
#X restore 199 208 pd BrillanceStereo;
#X msg 167 207 0;
#X obj 21 28 loadbang;
#X obj 103 156 hsl 127 12 0 100 0 1 \$0-A ColorForm Brill=67 0 7 1
9 -188398 -1 -1 8500 0;
#X obj 103 144 hsl 127 12 0 100 0 1 \$0-A ColorForm Size=76 0 7 1 9
-188398 -1 -1 9700 0;
#X obj 103 168 hsl 127 12 0 100 0 1 \$0-A ColorAmpli Effect=19 0 7
1 9 -261299 -1 -1 2500 0;
#X obj 103 132 hsl 127 12 0 100 0 1 \$0-A ColorAmpli Time=67 0 7 1
9 -191424 -1 -1 8500 0;
#X obj 174 101 cnv 4 10 4 empty empty empty 20 12 0 14 -260097 -66577
0;
#X obj 198 101 cnv 4 10 4 empty empty empty 20 12 0 14 -260097 -66577
0;
#X obj 148 101 cnv 4 10 4 empty empty empty 20 12 0 14 -260097 -66577
0;
#X obj 208 28 inlet;
#X obj 280 28 inlet;
#X obj 136 28 inlet;
#X obj 352 28 inlet;
#X obj 208 56 clip 0 100;
#X obj 280 56 clip 0 100;
#X obj 136 56 clip 0 100;
#X obj 352 56 clip 0 100;
#X obj 124 101 cnv 4 10 4 empty empty empty 20 12 0 14 -260097 -66577
0;
#N canvas 465 101 242 205 label 0;
#X msg 34 136 label \$1;
#X obj 34 41 inlet;
#X obj 34 163 outlet;
#X obj 34 114 cyclone/tosymbol;
#X obj 34 92 cyclone/sprintf Size=%s;
#X obj 34 68 expr (int($f1)) \;;
#X connect 0 0 2 0;
#X connect 1 0 5 0;
#X connect 3 0 0 0;
#X connect 4 0 3 0;
#X connect 5 0 4 0;
#X restore 19 165 pd label;
#N canvas 465 101 242 205 label 0;
#X msg 34 136 label \$1;
#X obj 34 41 inlet;
#X obj 34 163 outlet;
#X obj 34 114 cyclone/tosymbol;
#X obj 34 68 expr (int($f1)) \;;
#X obj 34 92 cyclone/sprintf Brill=%s;
#X connect 0 0 2 0;
#X connect 1 0 4 0;
#X connect 3 0 0 0;
#X connect 4 0 5 0;
#X connect 5 0 3 0;
#X restore 19 187 pd label;
#N canvas 465 101 242 205 label 0;
#X msg 34 136 label \$1;
#X obj 34 41 inlet;
#X obj 34 163 outlet;
#X obj 34 114 cyclone/tosymbol;
#X obj 34 68 expr (int($f1)) \;;
#X obj 34 92 cyclone/sprintf Time=%s;
#X connect 0 0 2 0;
#X connect 1 0 4 0;
#X connect 3 0 0 0;
#X connect 4 0 5 0;
#X connect 5 0 3 0;
#X restore 18 144 pd label;
#N canvas 465 101 242 205 label 0;
#X msg 34 136 label \$1;
#X obj 34 41 inlet;
#X obj 34 163 outlet;
#X obj 34 114 cyclone/tosymbol;
#X obj 34 68 expr (int($f1)) \;;
#X obj 34 92 cyclone/sprintf Effect=%s;
#X connect 0 0 2 0;
#X connect 1 0 4 0;
#X connect 3 0 0 0;
#X connect 4 0 5 0;
#X connect 5 0 3 0;
#X restore 18 207 pd label;
#X text 205 13 0..100;
#X text 276 13 0..100;
#X text 133 12 0..100;
#X text 349 14 0..100;
#X text 209 2 Size;
#X text 269 2 Brillance;
#X text 349 3 Effect;
#X text 133 1 Time;
#X obj 402 336 cnv 15 34 16 empty empty empty 20 12 0 14 -24198 -66577
0;
#N canvas 353 174 333 161 ?? 0;
#X obj 17 89 cnv 15 300 56 empty empty empty 20 12 0 14 -224896 -66577
0;
#X obj 17 12 cnv 18 300 70 empty empty ARGOPdMiniModules 3 10 1 14
-4033 -1 1.04858e+06;
#X obj 40 32 cnv 10 10 10 empty empty Gerard 0 5 1 11 -4033 -1 1.04858e+06
;
#X obj 78 32 cnv 10 10 10 empty empty Paresys 0 5 1 11 -4033 -1 1.04858e+06
;
#X obj 20 54 pddp/pddplink http://gerard.paresys.free.fr/ARGOPd/;
#X obj 22 126 pddp/pddplink http://puredata.info/downloads/pd-extended
;
#X obj 22 102 pddp/pddplink http://puredata.info/downloads/pure-data
;
#X text 22 90 Construit sous / Build under Pd-0.49...;
#X text 21 114 or Pd 0.43.4-extended;
#X obj 20 66 pddp/pddplink https://paresys.pagesperso-orange.fr/ARGOPd/
;
#X obj 20 42 pddp/pddplink https://github.com/gerardparesys/ARGOPd
;
#X restore 402 336 pd ??;
#X obj 160 120 bng 12 200 50 0 \$0-A \$0-B Reset 14 6 1 9 -188398 -1
-1;
#X msg 32 112 50;
#X obj 20 56 delay 2000;
#X obj 354 154 cnv 15 60 30 empty empty empty 20 12 0 14 -24198 -66577
0;
#N canvas 443 157 456 399 Help 0;
#X obj 9 58 cnv 15 440 80 empty empty empty 20 12 0 14 -228856 -66577
0;
#X text 12 58 Citation;
#X text 13 144 Comme MM-Reverb sauf:;
#X text 27 156 - Pas de "Early Echo";
#X text 28 167 - Sorties apres le delay \, sinon la reverb contient
le signal direct c'est a dire sans retard.;
#X text 30 192 - La sortie gauche est alors toujours + intense que
la droite (G vient d'un + et D vient d'un -) Donc on double la reverb
à gauche et a droite en inversant les 2 entrées.;
#X text 34 229 - Temps différents a gauche et a droite pour avoir une
vraie stereo. Un signal Mono \, envoyé sur les 2 entrees a bien alors
une reverb Stereo.;
#X text 35 267 - Temps réglables (* 0.01 ... * 10 de MM-Reverb).;
#X text 17 304 Contrairement à sa version précédente \, ce MM peut
être présent à 2 exemplaires dans un même patch.;
#X text 10 22 - Voir Pure Documentation Browser -> Pure Data/ -> 3.audio.examples
-> G08.reverb.pd;
#X text 28 74 "Here is a simple recirculating reverberator. "Feedback"
should be between 0 and 100 - if 100 \, the reverberation lasts forever."
;
#X text 31 114 "Feedback" = Size;
#X text 10 6 MM Reverb2/2;
#X text 15 341 iem_delay/n_delay1p_line~ replace by cyclone/delay~
;
#X restore 361 161 pd Help;
#X obj 337 228 cnv 15 100 70 empty empty empty 20 12 0 14 -24198 -66577
0;
#X text 360 230 library:;
#X text 341 241 pddp;
#X text 341 252 cyclone;
#X text 341 263 zexy;
#N canvas 170 163 862 515 reverbR 0;
#X obj 113 55 inlet~;
#X obj 11 189 +~;
#X obj 164 189 +~;
#X obj 56 483 outlet~;
#X obj 112 485 outlet~;
#X obj 11 236 +~;
#X obj 300 189 +~;
#X obj 149 236 -~;
#X obj 437 189 -~;
#X obj 11 296 +~;
#X obj 149 296 +~;
#X obj 285 296 -~;
#X obj 422 296 -~;
#X text 309 39 time.;
#X text 307 11 feedback gain on a scale of;
#X obj 327 123 + 0.005;
#X obj 327 55 inlet;
#X text 623 286 cf "Recirculating schroeder reverb extract from the
book Designing Sound Andy Farnell Page 85", f 27;
#X obj 11 376 *~ 0;
#X obj 149 376 *~ 0;
#X obj 285 376 *~ 0;
#X obj 422 376 *~ 0;
#X obj 499 55 inlet;
#X text 502 12 Time;
#X obj 11 415 zexy/pack~;
#X obj 26 440 zexy/unpack~;
#X obj 149 415 zexy/pack~;
#X obj 179 440 zexy/unpack~;
#X obj 285 415 zexy/pack~;
#X obj 300 440 zexy/unpack~;
#X obj 422 415 zexy/pack~;
#X obj 452 440 zexy/unpack~;
#X obj 327 100 * 0.00495;
#X text 309 25 0 to 100 to control reverb;
#X text 494 25 0..100;
#X obj 766 55 loadbang;
#X obj 766 79 samplerate~;
#X obj 499 121 expr pow(10 \, (3 * $f1 / 100)) * $f2 / 100000 \;;
#X obj 11 350 cyclone/delay~ 100000;
#X obj 149 350 cyclone/delay~ 100000;
#X obj 285 350 cyclone/delay~ 100000;
#X obj 422 350 cyclone/delay~ 100000;
#X obj 499 221 * 101;
#X obj 547 221 * 143;
#X obj 592 221 * 165;
#X obj 641 221 * 177;
#X text 529 146 -> 0.01...10 * 44.1;
#X connect 0 0 1 0;
#X connect 0 0 2 0;
#X connect 1 0 5 0;
#X connect 1 0 7 0;
#X connect 2 0 5 1;
#X connect 2 0 7 1;
#X connect 5 0 9 0;
#X connect 5 0 11 0;
#X connect 6 0 11 1;
#X connect 6 0 9 1;
#X connect 7 0 10 0;
#X connect 7 0 12 0;
#X connect 8 0 10 1;
#X connect 8 0 12 1;
#X connect 9 0 38 0;
#X connect 10 0 39 0;
#X connect 11 0 40 0;
#X connect 12 0 41 0;
#X connect 15 0 18 1;
#X connect 15 0 19 1;
#X connect 15 0 20 1;
#X connect 15 0 21 1;
#X connect 16 0 32 0;
#X connect 18 0 24 0;
#X connect 19 0 26 0;
#X connect 20 0 28 0;
#X connect 21 0 30 0;
#X connect 22 0 37 0;
#X connect 24 0 25 0;
#X connect 25 0 1 1;
#X connect 26 0 27 0;
#X connect 27 0 2 1;
#X connect 28 0 29 0;
#X connect 29 0 6 0;
#X connect 29 0 8 0;
#X connect 30 0 31 0;
#X connect 31 0 8 1;
#X connect 31 0 6 1;
#X connect 32 0 15 0;
#X connect 35 0 36 0;
#X connect 36 0 37 1;
#X connect 37 0 42 0;
#X connect 37 0 43 0;
#X connect 37 0 44 0;
#X connect 37 0 45 0;
#X connect 38 0 18 0;
#X connect 38 0 3 0;
#X connect 39 0 19 0;
#X connect 39 0 4 0;
#X connect 40 0 20 0;
#X connect 41 0 21 0;
#X connect 42 0 38 1;
#X connect 43 0 39 1;
#X connect 44 0 40 1;
#X connect 45 0 41 1;
#X restore 202 256 pd reverbR;
#N canvas 170 163 862 515 reverbL 0;
#X obj 113 55 inlet~;
#X obj 11 189 +~;
#X obj 164 189 +~;
#X obj 56 483 outlet~;
#X obj 112 485 outlet~;
#X obj 11 236 +~;
#X obj 300 189 +~;
#X obj 149 236 -~;
#X obj 437 189 -~;
#X obj 11 296 +~;
#X obj 149 296 +~;
#X obj 285 296 -~;
#X obj 422 296 -~;
#X text 309 39 time.;
#X text 307 11 feedback gain on a scale of;
#X obj 327 123 + 0.005;
#X obj 327 55 inlet;
#X text 623 286 cf "Recirculating schroeder reverb extract from the
book Designing Sound Andy Farnell Page 85", f 27;
#X obj 11 376 *~ 0;
#X obj 149 376 *~ 0;
#X obj 285 376 *~ 0;
#X obj 422 376 *~ 0;
#X obj 499 55 inlet;
#X text 502 12 Time;
#X obj 11 415 zexy/pack~;
#X obj 26 440 zexy/unpack~;
#X obj 149 415 zexy/pack~;
#X obj 179 440 zexy/unpack~;
#X obj 285 415 zexy/pack~;
#X obj 300 440 zexy/unpack~;
#X obj 422 415 zexy/pack~;
#X obj 452 440 zexy/unpack~;
#X obj 327 100 * 0.00495;
#X text 309 25 0 to 100 to control reverb;
#X text 494 25 0..100;
#X obj 766 55 loadbang;
#X obj 766 79 samplerate~;
#X obj 499 121 expr pow(10 \, (3 * $f1 / 100)) * $f2 / 100000 \;;
#X obj 11 350 cyclone/delay~ 100000;
#X obj 149 350 cyclone/delay~ 100000;
#X obj 285 350 cyclone/delay~ 100000;
#X obj 422 350 cyclone/delay~ 100000;
#X text 529 146 -> 0.01...10 * 44.1;
#X obj 499 221 * 113;
#X obj 547 221 * 131;
#X obj 592 221 * 151;
#X obj 641 221 * 187;
#X connect 0 0 1 0;
#X connect 0 0 2 0;
#X connect 1 0 5 0;
#X connect 1 0 7 0;
#X connect 2 0 5 1;
#X connect 2 0 7 1;
#X connect 5 0 9 0;
#X connect 5 0 11 0;
#X connect 6 0 11 1;
#X connect 6 0 9 1;
#X connect 7 0 10 0;
#X connect 7 0 12 0;
#X connect 8 0 10 1;
#X connect 8 0 12 1;
#X connect 9 0 38 0;
#X connect 10 0 39 0;
#X connect 11 0 40 0;
#X connect 12 0 41 0;
#X connect 15 0 18 1;
#X connect 15 0 19 1;
#X connect 15 0 20 1;
#X connect 15 0 21 1;
#X connect 16 0 32 0;
#X connect 18 0 24 0;
#X connect 19 0 26 0;
#X connect 20 0 28 0;
#X connect 21 0 30 0;
#X connect 22 0 37 0;
#X connect 24 0 25 0;
#X connect 25 0 1 1;
#X connect 26 0 27 0;
#X connect 27 0 2 1;
#X connect 28 0 29 0;
#X connect 29 0 6 0;
#X connect 29 0 8 0;
#X connect 30 0 31 0;
#X connect 31 0 8 1;
#X connect 31 0 6 1;
#X connect 32 0 15 0;
#X connect 35 0 36 0;
#X connect 36 0 37 1;
#X connect 37 0 43 0;
#X connect 37 0 44 0;
#X connect 37 0 45 0;
#X connect 37 0 46 0;
#X connect 38 0 18 0;
#X connect 38 0 3 0;
#X connect 39 0 19 0;
#X connect 39 0 4 0;
#X connect 40 0 20 0;
#X connect 41 0 21 0;
#X connect 43 0 38 1;
#X connect 44 0 39 1;
#X connect 45 0 40 1;
#X connect 46 0 41 1;
#X restore 131 256 pd reverbL;
#X text 233 132 3 4 2021;
#X connect 3 0 11 1;
#X connect 3 0 9 0;
#X connect 4 0 9 1;
#X connect 4 0 11 2;
#X connect 9 0 6 0;
#X connect 9 1 7 0;
#X connect 10 0 11 0;
#X connect 10 0 12 0;
#X connect 10 0 46 0;
#X connect 11 0 55 0;
#X connect 11 1 54 0;
#X connect 12 0 54 2;
#X connect 12 0 54 1;
#X connect 12 0 55 2;
#X connect 12 0 55 1;
#X connect 13 0 10 0;
#X connect 14 0 31 0;
#X connect 14 0 11 3;
#X connect 15 0 30 0;
#X connect 15 0 54 1;
#X connect 15 0 55 1;
#X connect 16 0 33 0;
#X connect 16 0 9 4;
#X connect 17 0 32 0;
#X connect 17 0 54 2;
#X connect 17 0 55 2;
#X connect 21 0 25 0;
#X connect 22 0 26 0;
#X connect 23 0 27 0;
#X connect 24 0 28 0;
#X connect 25 0 15 0;
#X connect 26 0 14 0;
#X connect 27 0 17 0;
#X connect 28 0 16 0;
#X connect 30 0 15 0;
#X connect 31 0 14 0;
#X connect 32 0 17 0;
#X connect 33 0 16 0;
#X connect 44 0 45 0;
#X connect 45 0 17 0;
#X connect 45 0 15 0;
#X connect 45 0 14 0;
#X connect 45 0 16 0;
#X connect 46 0 15 0;
#X connect 46 0 17 0;
#X connect 54 0 9 3;
#X connect 54 1 9 2;
#X connect 55 0 9 2;
#X connect 55 1 9 3;
#X coords 0 -1 1 1 132 86 1 100 100;
#X restore 464 341 pd ARGO;
#X connect 4 0 5 0;
#X connect 5 0 8 0;
#X connect 8 0 31 2;
#X connect 8 0 31 0;
#X connect 8 1 32 0;
#X connect 8 1 33 1;
#X connect 9 3 29 0;
#X connect 11 0 10 0;
#X connect 16 0 4 0;
#X connect 17 0 28 0;
#X connect 25 0 18 0;
#X connect 25 0 26 0;
#X connect 25 0 27 0;
#X connect 25 1 18 1;
#X connect 25 1 26 1;
#X connect 25 1 27 1;
#X connect 28 0 9 0;
#X connect 29 0 36 0;
#X connect 31 0 16 0;
#X connect 31 1 17 0;
#X connect 31 1 33 0;
#X connect 32 0 29 1;
#X connect 36 0 25 0;
#X connect 36 1 25 1;
