#N canvas 524 23 504 603 10;
#X obj 12 11 cnv 15 15 15 empty empty ExMM69d+-Chaos-Crible-Message.pd
0 8 1 14 -262144 -66577 0;
#X text 281 82 Change ->;
#X obj 61 98 switch~;
#N canvas 608 166 228 173 ARGOnOff 0;
#X obj 100 100 tgl 18 1 \$0-SendOnOff \$0-ReceiveOnOff On/Off 20 11
1 14 -4033 -1 -1 1 1;
#X obj 99 10 loadbang;
#X msg 99 33 \; pd dsp 1;
#X obj 100 129 outlet;
#X text -50 99 Audio On/Off du patch ->;
#X text -22 45 Audio General On ->;
#X text 107 82 17 3 2010;
#X connect 0 0 3 0;
#X connect 1 0 2 0;
#X coords 0 -1 1 1 65 18 2 100 100;
#X restore 61 80 pd ARGOnOff;
#X text 66 64 V;
#X text 66 57 |;
#X text 54 46 On/Off Patch;
#X text 265 19 Play/Stop ->;
#X obj 39 153 + 5;
#X obj 342 153 + 7;
#X obj 267 572 dac~ 1 2;
#X text 57 575 .wav file format recorder;
#X text 55 563 Enregistreur audio au format .wav;
#X text 93 412 Niveau general ->;
#X text 99 422 General level ->;
#X text 151 552 |;
#X text 151 547 ^;
#N canvas 175 68 381 386 ARGO 0;
#X obj 101 101 cnv 20 116 34 empty ColorAmpli empty 20 12 0 14 -261299
-1 1.04858e+06;
#X obj 85 353 outlet~;
#X obj 157 104 cnv 10 20 10 empty ColorAmpli Ampli. 1 5 1 14 -261299
-1 1.04858e+06;
#X obj 85 43 inlet~;
#X obj 85 330 *~;
#X obj 115 118 hsl 101 12 -80 20 0 1 \$0-A ColorAmpli 6dB 0 7 1 9 -261299
-1 -1 8600 0;
#X obj 101 101 cnv 4 10 4 empty empty empty 20 12 0 14 -1 -66577 0
;
#X obj 101 131 cnv 4 10 4 empty empty empty 20 12 0 14 -1 -66577 0
;
#X obj 207 101 cnv 4 10 4 empty empty empty 20 12 0 14 -1 -66577 0
;
#X obj 207 131 cnv 4 10 4 empty empty empty 20 12 0 14 -1 -66577 0
;
#X obj 222 352 outlet~;
#X obj 222 42 inlet~;
#X obj 222 329 *~;
#X msg -42 138 label \$1;
#X text 148 194 -> 0.0001..10 = -80dB..20dB;
#X obj 142 175 expr (pow(10 \, $f1 / 20));
#X obj 142 215 sel 0.0001;
#X msg 100 244 0;
#X obj 100 118 tgl 12 1 \$0-A \$0-B Mute 2 -5 1 9 -261299 -1 -1 0 1
;
#X obj 99 146 select 0 1;
#X obj 140 295 line~;
#X obj 140 275 pack 0 10;
#X msg 123 74 set 0;
#X obj -42 92 cyclone/sprintf %ddB;
#X text 228 110 6 3 2016;
#X obj -42 115 cyclone/tosymbol;
#X obj 273 344 cnv 15 42 25 empty empty empty 20 12 0 14 -24198 -66577
0;
#N canvas 336 174 309 137 ?. 0;
#X obj 3 83 cnv 15 300 46 empty empty empty 20 12 0 14 -224896 -66577
0;
#X obj 3 6 cnv 18 300 70 empty empty ARGOPdMiniModules 3 10 1 14 -4033
-1 1.04858e+06;
#X obj 26 26 cnv 10 10 10 empty empty Gerard 0 5 1 11 -4033 -1 1.04858e+06
;
#X obj 64 26 cnv 10 10 10 empty empty Paresys 0 5 1 11 -4033 -1 1.04858e+06
;
#X obj 7 37 pddp/pddplink http://gerard.paresys.free.fr/ARGOPd/;
#X text 8 85 Construit sous / Build under Pd 0.43.4-extended;
#X obj 8 111 pddp/pddplink http://puredata.info/downloads/pd-extended
;
#X obj 7 50 pddp/pddplink http://paresys.pagesperso-orange.fr/ARGOPd/
;
#X text 7 98 or Pd-0.46-7 + deken;
#X restore 277 348 pd ?.;
#X connect 3 0 4 0;
#X connect 4 0 1 0;
#X connect 5 0 15 0;
#X connect 5 0 23 0;
#X connect 11 0 12 0;
#X connect 12 0 10 0;
#X connect 13 0 5 0;
#X connect 15 0 16 0;
#X connect 16 0 17 0;
#X connect 16 1 21 0;
#X connect 16 1 22 0;
#X connect 17 0 21 0;
#X connect 17 0 25 0;
#X connect 18 0 19 0;
#X connect 19 0 5 0;
#X connect 19 1 17 0;
#X connect 20 0 12 1;
#X connect 20 0 4 1;
#X connect 21 0 20 0;
#X connect 22 0 18 0;
#X connect 23 0 25 0;
#X connect 25 0 13 0;
#X coords 0 -1 1 1 118 36 1 100 100;
#X restore 201 407 pd ARGO;
#N canvas 286 45 728 239 ARGO 0;
#X obj 239 36 inlet~;
#X text 77 17 Left input;
#X text 224 17 Right input;
#X text 356 37 Stereo wav file format recorder;
#X text 356 52 Enregistreur de fichier audio wav à 2 canaux (stereo)
;
#X obj 88 36 inlet~;
#X obj 171 198 writesf~ 2;
#X text 356 67 L'extension .wav est ajoutée au nom du fichier automatiquement
;
#X obj 103 100 hsl 161 17 0 127 0 0 \$0-A \$0-B Record. 103 10 1 14
-261299 -261299 -1 0 1;
#X obj 255 101 cnv 4 10 4 empty empty empty 20 12 0 14 -1 -66577 0
;
#X obj 101 101 cnv 4 10 4 empty empty empty 20 12 0 14 -1 -66577 0
;
#X obj 112 100 nbx 4 17 0 9999 0 0 \$0-A ColorTime sec 59 9 1 15 -208064
-1 -1 0 256;
#X text 355 103 Clic n'importe où pour commencer un enregistrement
Audio -> Clic encore pour arrêter l'enregistrement;
#X text 456 130 Click anywhere to start recording Audio ->;
#X text 455 142 Click again to stop recording;
#X text 121 122 Hslider caché transformé en bouton;
#N canvas 415 66 351 399 record2 0;
#X obj 136 95 sel 0 1;
#X msg 171 260 start;
#X msg 107 259 stop;
#X msg 155 150 open \$1;
#X obj 155 126 savepanel;
#X obj 165 203 delay 1000;
#X obj 245 323 float;
#X obj 291 322 + 1;
#X obj 223 295 metro 1000;
#X msg 291 296 -1;
#X msg 11 257 0;
#X msg 42 257 1;
#X obj 66 210 t b b;
#X obj 165 229 t b b b b;
#N canvas 317 143 290 366 CouleurRecord2 0;
#X obj 122 -19 +;
#X obj 122 37 +;
#X obj 61 -75 * -65536;
#X obj 117 -75 * -256;
#X obj 163 -77 * -1;
#X obj 122 68 - 1;
#X obj 115 -202 inlet;
#X text 77 -97 R;
#X text 123 -99 G;
#X text 172 -98 B;
#X obj 122 123 outlet;
#X text 170 -169 Rouge;
#X msg 134 -121 255;
#X msg 167 -121 0;
#X obj 115 -178 sel 0 1;
#X text 56 -170 Rose;
#X msg 73 -121 200;
#X msg 40 -121 252;
#X obj 134 -148 t b b b;
#X msg 198 -121 0;
#X msg 104 -121 200;
#X obj 40 -148 t b b b;
#X msg 122 96 color \$1 \$1 -1;
#X connect 0 0 1 1;
#X connect 1 0 5 0;
#X connect 2 0 1 0;
#X connect 3 0 0 0;
#X connect 4 0 0 1;
#X connect 5 0 22 0;
#X connect 6 0 14 0;
#X connect 12 0 2 0;
#X connect 13 0 3 0;
#X connect 14 0 21 0;
#X connect 14 1 18 0;
#X connect 16 0 3 0;
#X connect 17 0 2 0;
#X connect 18 0 12 0;
#X connect 18 1 13 0;
#X connect 18 2 19 0;
#X connect 19 0 4 0;
#X connect 20 0 4 0;
#X connect 21 0 17 0;
#X connect 21 1 16 0;
#X connect 21 2 20 0;
#X connect 22 0 10 0;
#X restore 25 326 pd CouleurRecord2;
#X obj 136 75 tgl 15 0 \$0-A \$0-B empty 19 9 1 12 -262144 -258113
-1 0 1;
#X obj 136 30 b;
#X obj 136 52 delay 200;
#X obj 136 8 inlet;
#X obj 25 356 outlet;
#X text 22 372 Couleur;
#X obj 291 356 outlet;
#X text 288 372 Compteur;
#X obj 155 356 outlet;
#X text 152 372 writesf;
#X obj 199 176 t b b;
#X msg 72 33 0;
#X obj 72 8 loadbang;
#X msg 260 124 set 0;
#X msg 261 173 set 1;
#X obj 261 149 b;
#X connect 0 0 12 0;
#X connect 0 1 4 0;
#X connect 0 1 28 0;
#X connect 1 0 23 0;
#X connect 2 0 8 0;
#X connect 2 0 23 0;
#X connect 3 0 23 0;
#X connect 3 0 25 0;
#X connect 4 0 3 0;
#X connect 4 0 30 0;
#X connect 5 0 13 0;
#X connect 6 0 7 0;
#X connect 7 0 6 1;
#X connect 7 0 21 0;
#X connect 8 0 6 0;
#X connect 9 0 7 0;
#X connect 10 0 14 0;
#X connect 11 0 14 0;
#X connect 12 0 10 0;
#X connect 12 1 2 0;
#X connect 13 0 11 0;
#X connect 13 1 1 0;
#X connect 13 2 8 0;
#X connect 13 3 9 0;
#X connect 14 0 19 0;
#X connect 15 0 0 0;
#X connect 16 0 17 0;
#X connect 17 0 15 0;
#X connect 18 0 16 0;
#X connect 25 0 5 0;
#X connect 25 1 9 0;
#X connect 26 0 15 0;
#X connect 27 0 26 0;
#X connect 28 0 15 0;
#X connect 29 0 15 0;
#X connect 30 0 29 0;
#X restore 56 147 pd record2;
#X obj 636 186 cnv 15 42 25 empty empty empty 20 12 0 14 -24198 -66577
0;
#N canvas 336 174 309 137 ?. 0;
#X obj 3 83 cnv 15 300 46 empty empty empty 20 12 0 14 -224896 -66577
0;
#X obj 3 6 cnv 18 300 70 empty empty ARGOPdMiniModules 3 10 1 14 -4033
-1 1.04858e+06;
#X obj 26 26 cnv 10 10 10 empty empty Gerard 0 5 1 11 -4033 -1 1.04858e+06
;
#X obj 64 26 cnv 10 10 10 empty empty Paresys 0 5 1 11 -4033 -1 1.04858e+06
;
#X obj 7 37 pddp/pddplink http://gerard.paresys.free.fr/ARGOPd/;
#X text 8 85 Construit sous / Build under Pd 0.43.4-extended;
#X obj 8 111 pddp/pddplink http://puredata.info/downloads/pd-extended
;
#X obj 7 50 pddp/pddplink http://paresys.pagesperso-orange.fr/ARGOPd/
;
#X text 7 98 or Pd-0.46-7 + deken;
#X restore 640 190 pd ?.;
#X text 175 81 7 3 2016;
#X connect 0 0 6 1;
#X connect 5 0 6 0;
#X connect 8 0 16 0;
#X connect 16 0 8 0;
#X connect 16 1 6 0;
#X connect 16 2 11 0;
#X coords 0 -1 1 1 166 17 1 100 100;
#X restore 61 531 pd ARGO;
#N canvas 446 64 251 267 ARGO 0;
#X obj 101 104 cnv 30 49 130 empty ColorAmpli empty 20 12 0 14 -1 -258113
0;
#X obj 102 110 vu 8 120 \$0-B empty 0 0 1 11 -1 -4034 0 0;
#X obj 49 35 inlet~;
#X obj 22 108 cnv 15 60 30 empty empty empty 20 12 0 14 -24198 -66577
0;
#N canvas 300 65 442 264 Help 0;
#X obj 12 48 cnv 15 400 150 empty empty empty 20 12 0 14 -233017 -66577
0;
#X text 16 50 Citation;
#X text 28 67 peakamp~ tracks and outputs the absolute value of the
peak amplitude of the incoming signal. It outputs when banged or using
its own internal clock. The peak value is reset each time peakamp~
outputs a value.;
#X text 29 123 cyclone library;
#X text 28 135 http://suita.chopin.edu.pl/~czaja/miXed/externs/cyclone.html
;
#X text 29 155 Voir doc Max/MSP MSP46ReferenceManual.pdf;
#X text 18 14 MM-Vumetre;
#X restore 29 114 pd Help;
#N canvas 541 112 317 265 VuMetre 0;
#X obj 48 19 inlet~;
#X obj 41 54 *~;
#X obj -25 132 snapshot~;
#X obj -25 155 sqrt;
#X obj -25 100 lop~ 10;
#X obj -25 179 rmstodb;
#X obj -88 19 loadbang;
#X obj -25 202 - 100;
#X obj 58 156 sqrt;
#X obj 58 180 rmstodb;
#X obj 58 203 - 100;
#X obj -89 102 metro 200;
#X obj -28 19 r SendFluid;
#X obj 58 102 cyclone/peakamp~ 1000;
#X obj -25 228 outlet;
#X obj 58 227 outlet;
#X connect 0 0 1 0;
#X connect 0 0 1 1;
#X connect 1 0 4 0;
#X connect 1 0 13 0;
#X connect 2 0 3 0;
#X connect 3 0 5 0;
#X connect 4 0 2 0;
#X connect 5 0 7 0;
#X connect 6 0 11 0;
#X connect 7 0 14 0;
#X connect 8 0 9 0;
#X connect 9 0 10 0;
#X connect 10 0 15 0;
#X connect 11 0 2 0;
#X connect 12 0 11 1;
#X connect 13 0 8 0;
#X restore 49 63 pd VuMetre;
#X obj 172 211 cnv 15 42 25 empty empty empty 20 12 0 14 -24198 -66577
0;
#N canvas 336 174 309 137 ?. 0;
#X obj 3 83 cnv 15 300 46 empty empty empty 20 12 0 14 -224896 -66577
0;
#X obj 3 6 cnv 18 300 70 empty empty ARGOPdMiniModules 3 10 1 14 -4033
-1 1.04858e+06;
#X obj 26 26 cnv 10 10 10 empty empty Gerard 0 5 1 11 -4033 -1 1.04858e+06
;
#X obj 64 26 cnv 10 10 10 empty empty Paresys 0 5 1 11 -4033 -1 1.04858e+06
;
#X obj 7 37 pddp/pddplink http://gerard.paresys.free.fr/ARGOPd/;
#X text 8 85 Construit sous / Build under Pd 0.43.4-extended;
#X obj 8 111 pddp/pddplink http://puredata.info/downloads/pd-extended
;
#X obj 7 50 pddp/pddplink http://paresys.pagesperso-orange.fr/ARGOPd/
;
#X text 7 98 or Pd-0.46-7 + deken;
#X restore 176 215 pd ?.;
#X obj 113 110 vu 8 120 \$0-B empty 0 0 1 11 -1 -4034 1 0;
#X obj 126 35 inlet~;
#N canvas 541 112 317 265 VuMetre 0;
#X obj 48 19 inlet~;
#X obj 41 54 *~;
#X obj -25 132 snapshot~;
#X obj -25 155 sqrt;
#X obj -25 100 lop~ 10;
#X obj -25 179 rmstodb;
#X obj -88 19 loadbang;
#X obj -25 202 - 100;
#X obj 58 156 sqrt;
#X obj 58 180 rmstodb;
#X obj 58 203 - 100;
#X obj -89 102 metro 200;
#X obj -28 19 r SendFluid;
#X obj 58 102 cyclone/peakamp~ 1000;
#X obj -25 228 outlet;
#X obj 58 227 outlet;
#X connect 0 0 1 0;
#X connect 0 0 1 1;
#X connect 1 0 4 0;
#X connect 1 0 13 0;
#X connect 2 0 3 0;
#X connect 3 0 5 0;
#X connect 4 0 2 0;
#X connect 5 0 7 0;
#X connect 6 0 11 0;
#X connect 7 0 14 0;
#X connect 8 0 9 0;
#X connect 9 0 10 0;
#X connect 10 0 15 0;
#X connect 11 0 2 0;
#X connect 12 0 11 1;
#X connect 13 0 8 0;
#X restore 126 63 pd VuMetre;
#X text 153 87 3 3 2019;
#X connect 2 0 5 0;
#X connect 5 0 1 0;
#X connect 5 1 1 1;
#X connect 9 0 10 0;
#X connect 10 0 8 0;
#X connect 10 1 8 1;
#X coords 0 -1 1 1 51 135 2 100 100;
#X restore 324 454 pd ARGO;
#X obj 385 568 cnv 15 52 22 empty empty empty 20 12 0 14 -24198 -66577
0;
#N canvas 353 174 321 152 ?... 0;
#X obj 8 84 cnv 15 300 56 empty empty empty 20 12 0 14 -224896 -66577
0;
#X obj 8 7 cnv 18 300 70 empty empty ARGOPdMiniModules 3 10 1 14 -4033
-1 1.04858e+06;
#X obj 31 27 cnv 10 10 10 empty empty Gerard 0 5 1 11 -4033 -1 1.04858e+06
;
#X obj 69 27 cnv 10 10 10 empty empty Paresys 0 5 1 11 -4033 -1 1.04858e+06
;
#X obj 12 40 pddp/pddplink http://gerard.paresys.free.fr/ARGOPd/;
#X obj 13 121 pddp/pddplink http://puredata.info/downloads/pd-extended
;
#X obj 13 97 pddp/pddplink http://puredata.info/downloads/pure-data
;
#X text 13 85 Construit sous / Build under Pd-0.49...;
#X text 12 109 or Pd 0.43.4-extended;
#X obj 12 53 pddp/pddplink https://paresys.pagesperso-orange.fr/ARGOPd/
;
#X restore 388 571 pd ?...;
#N canvas 565 45 303 322 ARGO 0;
#X obj 101 101 cnv 20 130 66 empty ColorForm Reverb2/2. 53 7 1 14 -188398
-1 1.04858e+06;
#X obj 101 163 cnv 4 10 4 empty empty empty 20 12 0 14 -1 -66577 0
;
#X obj 221 163 cnv 4 10 4 empty empty empty 0 0 0 9 -1 -66577 0;
#X obj 87 74 inlet~;
#X obj 211 74 inlet~;
#X obj 101 101 cnv 4 10 4 empty empty empty 20 12 0 14 -1 -66577 0
;
#X obj 89 294 outlet~;
#X obj 188 295 outlet~;
#X obj 221 101 cnv 4 10 4 empty empty empty 0 0 0 9 -1 -66577 0;
#X obj 103 138 hsl 127 12 0.001 1 1 1 \$0-A ColorForm Brill 0 7 1 9
-188398 -1 -1 9500 0;
#X obj 103 126 hsl 127 12 0 1 0 1 \$0-A ColorForm Size 0 7 1 9 -188398
-1 -1 11500 0;
#X obj 103 150 hsl 127 12 0 1 0 1 \$0-A ColorAmpli Dir 0 7 1 9 -261299
-1 -1 4200 0;
#X obj 47 24 cnv 15 60 30 empty empty empty 20 12 0 14 -24198 -66577
0;
#N canvas 331 65 447 335 Help 0;
#X obj -169 -78 cnv 15 440 80 empty empty empty 20 12 0 14 -228856
-66577 0;
#X text -166 -78 Citation;
#X text -165 8 Comme MM-Reverb sauf:;
#X text -151 20 - Pas de "Early Echo";
#X text -150 31 - Sorties apres le delay \, sinon la reverb contient
le signal direct c'est a dire sans retard.;
#X text -148 56 - La sortie gauche est alors toujours + intense que
la droite (G vient d'un + et D vient d'un -) Donc on double la reverb
à gauche et a droite en inversant les 2 entrées.;
#X text -144 93 - Temps différents a gauche et a droite pour avoir
une vraie stereo. Un signal Mono \, envoyé sur les 2 entrees a bien
alors une reverb Stereo.;
#X text -143 131 - Temps réglables (* 0.01 ... * 10 de MM-Reverb).
;
#X text -161 168 Contrairement à sa version précédente \, ce MM peut
être présent à 2 exemplaires dans un même patch.;
#X text -168 -114 - Voir Pure Documentation Browser -> Pure Data/ ->
3.audio.examples -> G08.reverb.pd;
#X text -150 -62 "Here is a simple recirculating reverberator. "Feedback"
should be between 0 and 100 - if 100 \, the reverberation lasts forever."
;
#X text -147 -22 "Feedback" = Size;
#X text -168 -130 MM Reverb2/2;
#X restore 54 31 pd Help;
#N canvas 399 412 301 243 DirEffect 0;
#X obj 30 25 inlet~;
#X obj 186 25 inlet~;
#X obj 135 25 inlet~;
#X obj 80 25 inlet~;
#X obj 34 207 outlet~;
#X obj 193 203 outlet~;
#X text 242 7 0...1;
#X text 38 11 Dir1;
#X text 90 9 Dir2;
#X text 184 6 Effect2;
#X text 133 6 Effect1;
#X obj 81 146 *~;
#X obj 133 146 *~;
#X obj 193 147 *~;
#X obj 98 82 - 1;
#X obj 97 108 * -1;
#X obj 33 146 *~;
#X obj 218 107 * 0.2;
#X obj 241 26 inlet;
#X connect 0 0 16 0;
#X connect 1 0 13 0;
#X connect 2 0 12 0;
#X connect 3 0 11 0;
#X connect 11 0 5 0;
#X connect 12 0 4 0;
#X connect 13 0 5 0;
#X connect 14 0 15 0;
#X connect 15 0 11 1;
#X connect 15 0 16 1;
#X connect 16 0 4 0;
#X connect 17 0 12 1;
#X connect 17 0 13 1;
#X connect 18 0 17 0;
#X connect 18 0 14 0;
#X restore 96 259 pd DirEffect;
#X obj 114 102 bng 12 2000 50 0 \$0-A \$0-B Reset 14 6 1 9 -188398
-1 -1;
#N canvas 155 302 314 167 BrillanceStereo 0;
#X msg 79 42 clear;
#X obj 122 102 lop~ 5;
#X obj 261 78 line;
#X obj 122 14 inlet~;
#X obj 122 131 outlet~;
#X obj 260 35 * 20000;
#X obj 79 13 inlet;
#X obj 261 11 inlet;
#X msg 261 58 \$1 10;
#X obj 185 103 lop~ 5;
#X obj 185 15 inlet~;
#X obj 185 132 outlet~;
#X connect 0 0 1 0;
#X connect 0 0 9 0;
#X connect 1 0 4 0;
#X connect 2 0 1 1;
#X connect 2 0 9 1;
#X connect 3 0 1 0;
#X connect 5 0 8 0;
#X connect 6 0 0 0;
#X connect 7 0 5 0;
#X connect 8 0 2 0;
#X connect 9 0 11 0;
#X connect 10 0 9 0;
#X restore 130 181 pd BrillanceStereo;
#X obj 103 114 hsl 127 12 0.01 10 1 1 \$0-A ColorForm Time 0 7 1 9
-188398 -1 -1 9300 0;
#N canvas 4 70 682 544 reverbG 0;
#X obj 113 55 inlet~;
#X obj 46 189 +~;
#X obj 164 183 +~;
#X obj 21 512 outlet~;
#X obj 132 507 outlet~;
#X obj 46 269 +~;
#X obj 289 266 +~;
#X obj 149 258 -~;
#X obj 414 266 -~;
#X obj 47 323 +~;
#X obj 148 323 +~;
#X obj 277 323 -~;
#X obj 399 325 -~;
#X text 387 39 time.;
#X text 385 11 feedback gain on a scale of;
#X obj 393 100 * 0.495;
#X obj 394 123 + 0.005;
#X obj 393 60 inlet;
#X text 387 26 0 to 1 to control reverb;
#X text 18 13 cf "Recirculating schroeder reverb extract from the book
Designing Sound Andy Farnell Page 85";
#X obj 46 390 *~ 0;
#X obj 149 409 *~ 0;
#X obj 277 433 *~ 0;
#X obj 403 455 *~ 0;
#X obj 499 281 pack 0;
#X obj 547 282 pack 0;
#X obj 592 280 pack 0;
#X obj 640 281 pack 0;
#X obj 572 55 inlet;
#X obj 46 350 iem_delay/n_delay1p_line~ 1 1130 0;
#X obj 147 382 iem_delay/n_delay1p_line~ 1 1310 0;
#X obj 278 406 iem_delay/n_delay1p_line~ 1 1510 0;
#X obj 403 430 iem_delay/n_delay1p_line~ 1 1670 0;
#X obj 499 255 * 113;
#X obj 547 256 * 131;
#X obj 592 254 * 151;
#X obj 640 255 * 187;
#X text 566 36 0.01...10;
#X text 567 23 Time;
#X obj 46 415 zexy/pack~;
#X obj 59 437 zexy/unpack~;
#X obj 149 437 zexy/pack~;
#X obj 162 459 zexy/unpack~;
#X obj 277 458 zexy/pack~;
#X obj 290 480 zexy/unpack~;
#X obj 403 479 zexy/pack~;
#X obj 416 501 zexy/unpack~;
#X connect 0 0 1 0;
#X connect 0 0 2 0;
#X connect 1 0 5 0;
#X connect 1 0 7 0;
#X connect 2 0 5 1;
#X connect 2 0 7 1;
#X connect 5 0 9 0;
#X connect 5 0 11 0;
#X connect 6 0 11 1;
#X connect 6 0 9 1;
#X connect 7 0 10 0;
#X connect 7 0 12 0;
#X connect 8 0 10 1;
#X connect 8 0 12 1;
#X connect 9 0 29 0;
#X connect 10 0 30 0;
#X connect 11 0 31 0;
#X connect 12 0 32 0;
#X connect 15 0 16 0;
#X connect 16 0 20 1;
#X connect 16 0 21 1;
#X connect 16 0 22 1;
#X connect 16 0 23 1;
#X connect 17 0 15 0;
#X connect 20 0 39 0;
#X connect 21 0 41 0;
#X connect 22 0 43 0;
#X connect 23 0 45 0;
#X connect 24 0 29 0;
#X connect 25 0 30 0;
#X connect 26 0 31 0;
#X connect 27 0 32 0;
#X connect 28 0 33 0;
#X connect 28 0 34 0;
#X connect 28 0 35 0;
#X connect 28 0 36 0;
#X connect 29 0 20 0;
#X connect 29 0 3 0;
#X connect 30 0 21 0;
#X connect 30 0 4 0;
#X connect 31 0 22 0;
#X connect 32 0 23 0;
#X connect 33 0 24 0;
#X connect 34 0 25 0;
#X connect 35 0 26 0;
#X connect 36 0 27 0;
#X connect 39 0 40 0;
#X connect 40 0 1 1;
#X connect 41 0 42 0;
#X connect 42 0 2 1;
#X connect 43 0 44 0;
#X connect 44 0 6 0;
#X connect 44 0 8 0;
#X connect 45 0 46 0;
#X connect 46 0 8 1;
#X connect 46 0 6 1;
#X restore 35 221 pd reverbG;
#N canvas 470 65 682 544 reverbD 0;
#X obj 113 55 inlet~;
#X obj 46 189 +~;
#X obj 164 183 +~;
#X obj 21 512 outlet~;
#X obj 122 512 outlet~;
#X obj 46 269 +~;
#X obj 289 266 +~;
#X obj 149 258 -~;
#X obj 414 266 -~;
#X obj 47 323 +~;
#X obj 148 323 +~;
#X obj 277 323 -~;
#X obj 399 325 -~;
#X text 387 39 time.;
#X text 385 11 feedback gain on a scale of;
#X obj 394 100 * 0.495;
#X obj 395 123 + 0.005;
#X obj 393 60 inlet;
#X text 387 26 0 to 1 to control reverb;
#X text 18 13 cf "Recirculating schroeder reverb extract from the book
Designing Sound Andy Farnell Page 85";
#X obj 46 390 *~ 0;
#X obj 149 409 *~ 0;
#X obj 276 445 *~ 0;
#X obj 404 465 *~ 0;
#X obj 499 281 pack 0;
#X obj 499 255 * 101;
#X obj 547 282 pack 0;
#X obj 592 280 pack 0;
#X obj 640 281 pack 0;
#X obj 547 256 * 143;
#X obj 592 254 * 165;
#X obj 640 255 * 177;
#X obj 46 350 iem_delay/n_delay1p_line~ 1 1010 0;
#X obj 147 382 iem_delay/n_delay1p_line~ 1 1430 0;
#X obj 278 406 iem_delay/n_delay1p_line~ 1 1650 0;
#X obj 403 430 iem_delay/n_delay1p_line~ 1 1770 0;
#X obj 572 55 inlet;
#X text 561 38 0.01...10;
#X text 562 25 Time;
#X obj 46 419 zexy/pack~;
#X obj 59 441 zexy/unpack~;
#X obj 149 439 zexy/pack~;
#X obj 162 461 zexy/unpack~;
#X obj 276 469 zexy/pack~;
#X obj 289 491 zexy/unpack~;
#X obj 404 490 zexy/pack~;
#X obj 417 512 zexy/unpack~;
#X connect 0 0 1 0;
#X connect 0 0 2 0;
#X connect 1 0 5 0;
#X connect 1 0 7 0;
#X connect 2 0 5 1;
#X connect 2 0 7 1;
#X connect 5 0 9 0;
#X connect 5 0 11 0;
#X connect 6 0 11 1;
#X connect 6 0 9 1;
#X connect 7 0 10 0;
#X connect 7 0 12 0;
#X connect 8 0 10 1;
#X connect 8 0 12 1;
#X connect 9 0 32 0;
#X connect 10 0 33 0;
#X connect 11 0 34 0;
#X connect 12 0 35 0;
#X connect 15 0 16 0;
#X connect 16 0 20 1;
#X connect 16 0 21 1;
#X connect 16 0 22 1;
#X connect 16 0 23 1;
#X connect 17 0 15 0;
#X connect 20 0 39 0;
#X connect 21 0 41 0;
#X connect 22 0 43 0;
#X connect 23 0 45 0;
#X connect 24 0 32 0;
#X connect 25 0 24 0;
#X connect 26 0 33 0;
#X connect 27 0 34 0;
#X connect 28 0 35 0;
#X connect 29 0 26 0;
#X connect 30 0 27 0;
#X connect 31 0 28 0;
#X connect 32 0 20 0;
#X connect 32 0 3 0;
#X connect 33 0 21 0;
#X connect 33 0 4 0;
#X connect 34 0 22 0;
#X connect 35 0 23 0;
#X connect 36 0 25 0;
#X connect 36 0 29 0;
#X connect 36 0 30 0;
#X connect 36 0 31 0;
#X connect 39 0 40 0;
#X connect 40 0 1 1;
#X connect 41 0 42 0;
#X connect 42 0 2 1;
#X connect 43 0 44 0;
#X connect 44 0 6 0;
#X connect 44 0 8 0;
#X connect 45 0 46 0;
#X connect 46 0 8 1;
#X connect 46 0 6 1;
#X restore 168 216 pd reverbD;
#X msg 30 123 0;
#X obj 6 82 delay 2000;
#X obj 151 16 loadbang;
#X text 145 83 17 3 2016;
#X obj 244 286 cnv 15 42 25 empty empty empty 20 12 0 14 -24198 -66577
0;
#N canvas 336 174 309 137 ?. 0;
#X obj 3 83 cnv 15 300 46 empty empty empty 20 12 0 14 -224896 -66577
0;
#X obj 3 6 cnv 18 300 70 empty empty ARGOPdMiniModules 3 10 1 14 -4033
-1 1.04858e+06;
#X obj 26 26 cnv 10 10 10 empty empty Gerard 0 5 1 11 -4033 -1 1.04858e+06
;
#X obj 64 26 cnv 10 10 10 empty empty Paresys 0 5 1 11 -4033 -1 1.04858e+06
;
#X obj 7 37 pddp/pddplink http://gerard.paresys.free.fr/ARGOPd/;
#X text 8 85 Construit sous / Build under Pd 0.43.4-extended;
#X obj 8 111 pddp/pddplink http://puredata.info/downloads/pd-extended
;
#X obj 7 50 pddp/pddplink http://paresys.pagesperso-orange.fr/ARGOPd/
;
#X text 7 98 or Pd-0.46-7 + deken;
#X restore 248 290 pd ?.;
#X connect 3 0 16 1;
#X connect 3 0 14 0;
#X connect 4 0 14 1;
#X connect 4 0 16 2;
#X connect 9 0 16 3;
#X connect 10 0 19 1;
#X connect 10 0 18 1;
#X connect 11 0 14 4;
#X connect 14 0 6 0;
#X connect 14 1 7 0;
#X connect 15 0 16 0;
#X connect 15 0 20 0;
#X connect 15 0 21 0;
#X connect 16 0 18 0;
#X connect 16 1 19 0;
#X connect 17 0 19 2;
#X connect 17 0 18 2;
#X connect 18 0 14 2;
#X connect 18 1 14 3;
#X connect 19 0 14 3;
#X connect 19 1 14 2;
#X connect 20 0 19 2;
#X connect 20 0 18 2;
#X connect 20 0 18 1;
#X connect 20 0 19 1;
#X connect 21 0 10 0;
#X connect 21 0 17 0;
#X connect 22 0 15 0;
#X coords 0 -1 1 1 132 68 1 100 100;
#X restore 191 327 pd ARGO;
#N canvas 358 45 466 323 ARGO 0;
#X obj 263 45 cnv 15 60 30 empty empty empty 20 12 0 14 -24198 -66577
0;
#N canvas 537 176 286 105 Help 0;
#X text 15 20 Un "Bang" sort X fois par minute.;
#X text 13 52 A "Bang" outputs X times per minute.;
#X restore 270 51 pd Help;
#X obj 200 32 inlet;
#X obj 195 249 cnv 15 170 24 empty empty empty 20 12 0 14 -261682 -66577
0;
#X obj 200 253 outlet;
#X obj 201 101 cnv 10 132 35 empty ColorForm Metronome. 53 9 1 14 -208064
-1 1.04858e+06;
#X obj 200 124 bng 12 50 10 0 \$0-A \$0-B empty 14 6 1 9 -262144 -1
-1;
#X obj 201 132 cnv 4 10 4 empty empty empty 20 12 0 14 -260097 -66577
0;
#X obj 200 112 nbx 3 12 1 999 0 1 \$0-A ColorTime BPM 36 8 1 11 -208064
-1 -1 600 256;
#X obj 200 100 tgl 12 1 \$0-A \$0-B empty 17 7 0 10 -262144 -1 -1 1
1;
#X obj 7 96 cnv 15 190 20 empty empty empty 20 12 0 14 -261682 -66577
0;
#X text 8 97 1: Play 0: Stop bang: Change ->;
#X obj 201 101 cnv 4 10 4 empty empty empty 20 12 0 14 -260097 -66577
0;
#X obj 120 183 metro 300;
#X obj 171 160 expr 60000 / $f1;
#X text 205 286 Bang;
#X text 213 272 |;
#X text 213 277 v;
#X obj 376 235 cnv 15 42 25 empty empty empty 20 12 0 14 -24198 -66577
0;
#N canvas 336 174 316 152 ?. 0;
#X obj 8 84 cnv 15 300 56 empty empty empty 20 12 0 14 -224896 -66577
0;
#X obj 8 7 cnv 18 300 70 empty empty ARGOPdMiniModules 3 10 1 14 -4033
-1 1.04858e+06;
#X obj 31 27 cnv 10 10 10 empty empty Gerard 0 5 1 11 -4033 -1 1.04858e+06
;
#X obj 69 27 cnv 10 10 10 empty empty Paresys 0 5 1 11 -4033 -1 1.04858e+06
;
#X obj 12 40 pddp/pddplink http://gerard.paresys.free.fr/ARGOPd/;
#X text 13 85 Construit sous / Build under Pd 0.43.4-extended;
#X obj 13 111 pddp/pddplink http://puredata.info/downloads/pd-extended
;
#X obj 12 53 pddp/pddplink http://paresys.pagesperso-orange.fr/ARGOPd/
;
#X text 12 98 or Pd-0.48;
#X obj 13 124 pddp/pddplink http://puredata.info/downloads/pure-data
;
#X restore 380 239 pd ?.;
#X text 277 83 8 6 2018;
#X connect 2 0 9 0;
#X connect 6 0 4 0;
#X connect 8 0 14 0;
#X connect 9 0 13 0;
#X connect 13 0 6 0;
#X connect 14 0 13 1;
#X coords 0 -1 1 1 134 37 2 200 100;
#X restore 344 22 pd ARGO;
#N canvas 64 92 441 457 ARGO 0;
#X obj 176 428 outlet~;
#X obj 68 117 cnv 15 60 30 empty empty empty 20 12 0 14 -24198 -66577
0;
#N canvas 387 113 445 156 Help 0;
#X text 40 122 + Enveloppe Decay/Sustain;
#X text 16 7 Synth3 = Synthétiseur 3 = Synthesizer 3;
#X text 44 64 Bruit blanc + 2 x Filtre Passe-bande;
#X text 42 90 cyclone/tanh~ a la sortie bp~ pour eviter enorme saturation
au changement brusque de frequence;
#X text 42 43 Filtered noise;
#X text 42 27 Bruit filtré;
#X restore 75 123 pd Help;
#N canvas 499 145 264 245 Freq-v6 0;
#X obj 34 35 inlet;
#X obj 34 189 outlet;
#X text 31 206 Hslider;
#X text 29 14 Hslider;
#X obj 158 161 clip 0 20000;
#X obj 158 137 mtof;
#X obj 158 188 outlet;
#X text 155 206 Freq Hz;
#N canvas 73 193 583 317 pitchb-11-2010 0;
#X obj 70 111 mod 12;
#X obj 70 135 sel 0 1 2 3 4 5 6 7 8 9 10 11;
#X msg 246 170 A;
#X msg 300 170 B;
#X msg 192 170 G;
#X msg 3 170 C;
#X msg 57 170 D;
#X msg 111 170 E;
#X msg 138 170 F;
#X obj 204 1 inlet;
#X obj 363 131 div 12;
#X obj 204 79 t f f;
#X text 366 186 -> Numero de l'octave;
#X text 213 64 -> Numero MIDI de la note (69 = A3 = 440Hz);
#X msg 246 260 label \$1;
#X obj 246 283 outlet;
#X msg 30 170 Db;
#X msg 84 170 Eb;
#X msg 165 170 Gb;
#X msg 219 170 Ab;
#X msg 273 170 Bb;
#X text 369 78 (70 = A#3 = Bb3);
#X obj 246 238 symbol;
#X text 11 231 Impossible d'afficher # dans un label;
#X text 11 243 donc j'affiche b;
#X obj 204 51 int;
#X text 255 23 -> pour corriger certaines erreurs de calcul;
#X obj 363 160 - 12;
#X text 255 35 et le pb du passage a zero de mod 12;
#X obj 204 25 + 120.5;
#X obj 246 213 cyclone/sprintf %s%d;
#X connect 0 0 1 0;
#X connect 1 0 5 0;
#X connect 1 1 16 0;
#X connect 1 2 6 0;
#X connect 1 3 17 0;
#X connect 1 4 7 0;
#X connect 1 5 8 0;
#X connect 1 6 18 0;
#X connect 1 7 4 0;
#X connect 1 8 19 0;
#X connect 1 9 2 0;
#X connect 1 10 20 0;
#X connect 1 11 3 0;
#X connect 2 0 30 0;
#X connect 3 0 30 0;
#X connect 4 0 30 0;
#X connect 5 0 30 0;
#X connect 6 0 30 0;
#X connect 7 0 30 0;
#X connect 8 0 30 0;
#X connect 9 0 29 0;
#X connect 10 0 27 0;
#X connect 11 0 0 0;
#X connect 11 1 10 0;
#X connect 14 0 15 0;
#X connect 16 0 30 0;
#X connect 17 0 30 0;
#X connect 18 0 30 0;
#X connect 19 0 30 0;
#X connect 20 0 30 0;
#X connect 22 0 14 0;
#X connect 25 0 11 0;
#X connect 27 0 30 1;
#X connect 29 0 25 0;
#X connect 30 0 22 0;
#X restore 34 100 pd pitchb-11-2010;
#X connect 0 0 5 0;
#X connect 0 0 8 0;
#X connect 4 0 6 0;
#X connect 5 0 4 0;
#X connect 8 0 1 0;
#X restore 213 202 pd Freq-v6;
#X obj 176 398 *~;
#X obj 201 101 cnv 6 132 68 empty ColorForm Synth3. 83 8 1 14 -262144
-1 1.04858e+06;
#X obj 200 101 bng 12 50 50 0 \$0-A \$0-B empty 14 6 1 9 -262144 -1
-1;
#X obj 201 101 cnv 4 10 4 empty empty empty 20 12 0 14 -260097 -66577
0;
#X obj 201 165 cnv 4 10 4 empty empty empty 20 12 0 14 -1 -66577 0
;
#X obj 203 117 hsl 129 12 0 128 0 1 \$0-A ColorTime G4 0 7 1 9 -208064
-1 -1 7900 0;
#X obj 246 69 t b f;
#X obj 202 143 cnv 6 2 2 empty ColorForm Decay 0 4 1 9 -262144 -1 1.04858e+06
;
#X obj 202 132 cnv 6 2 2 empty ColorForm Attack 0 4 1 9 -262144 -1
1.04858e+06;
#X obj 323 165 cnv 4 10 4 empty empty empty 0 0 0 9 -1 -66577 0;
#X obj 126 48 noise~;
#X obj 176 273 bp~;
#X obj 263 346 bp~;
#X obj 263 428 outlet~;
#X obj 263 398 *~;
#N canvas 178 189 285 327 Q 0;
#X obj 19 278 line;
#X obj 22 215 + 1;
#X obj 21 236 clip 1 200;
#X msg 20 257 \$1 100;
#X obj 22 173 * 1;
#X obj 23 152 * 1;
#X obj 24 129 t f f f;
#X obj 19 300 outlet;
#X obj 21 194 * 200;
#X obj 70 9 inlet;
#X obj 94 300 outlet;
#X msg 164 162 label \$1;
#X obj 164 88 * 100;
#X obj 164 112 int;
#X obj 164 140 cyclone/tosymbol;
#X connect 0 0 7 0;
#X connect 1 0 2 0;
#X connect 2 0 3 0;
#X connect 3 0 0 0;
#X connect 4 0 8 0;
#X connect 5 0 4 0;
#X connect 6 0 5 0;
#X connect 6 1 5 1;
#X connect 6 2 4 1;
#X connect 8 0 1 0;
#X connect 9 0 12 0;
#X connect 9 0 6 0;
#X connect 11 0 10 0;
#X connect 12 0 13 0;
#X connect 13 0 14 0;
#X connect 14 0 11 0;
#X restore 172 203 pd Q;
#X obj 233 153 hsl 99 12 0 1 0 1 \$0-A ColorForm 100 0 7 1 9 -188398
-1 -1 9800 0;
#X obj 221 156 cnv 6 2 2 empty ColorForm Q 0 4 1 9 -262144 -1 1.04858e+06
;
#X text 189 173 Noise;
#X text 313 173 Noise;
#X obj 203 154 cnv 6 2 2 empty ColorForm ms 0 4 1 9 -262144 -1 1.04858e+06
;
#X obj 233 129 hsl 99 12 0.1 10000 1 1 \$0-A ColorForm 1.32 0 7 1 9
-208064 -1 -1 2200 0;
#X obj 233 141 hsl 99 12 0.1 10000 1 1 \$0-A ColorForm 44.98 0 7 1
9 -208064 -1 -1 5200 0;
#N canvas 283 162 450 300 label-ms 0;
#X msg 154 171 label \$1;
#X obj 154 111 expr (int(100 * $f1) / 100) \;;
#X obj 154 84 inlet;
#X obj 154 196 outlet;
#X obj 154 151 cyclone/tosymbol;
#X obj 154 131 cyclone/sprintf %s;
#X connect 0 0 3 0;
#X connect 1 0 5 0;
#X connect 2 0 1 0;
#X connect 4 0 0 0;
#X connect 5 0 4 0;
#X restore 344 120 pd label-ms;
#N canvas 285 156 450 300 label-ms 0;
#X msg 154 171 label \$1;
#X obj 154 111 expr (int(100 * $f1) / 100) \;;
#X obj 154 84 inlet;
#X obj 154 196 outlet;
#X obj 153 131 cyclone/sprintf %s;
#X obj 154 151 cyclone/tosymbol;
#X connect 0 0 3 0;
#X connect 1 0 4 0;
#X connect 2 0 1 0;
#X connect 4 0 5 0;
#X connect 5 0 0 0;
#X restore 345 142 pd label-ms;
#X obj 323 307 vline~;
#X obj 362 230 pack 1 2;
#X obj 380 206 t b f;
#X obj 299 346 *~;
#X obj 323 259 list append 0 0;
#X obj 176 300 cyclone/tanh~;
#X obj 263 371 cyclone/tanh~;
#X obj 200 44 route bang float;
#X obj 14 8 cnv 15 240 30 empty empty empty 20 12 0 14 -261682 -66577
0;
#X obj 200 15 inlet;
#X text 22 9 NoteMIDI;
#X text 77 9 0..127 = C-2..G8 ->;
#X text 150 23 Bang ->;
#X msg 323 283 1 \$1 \, 0 \$2 \$1;
#X text 168 185 1 x filtered;
#X text 292 185 2 x filtered;
#X obj 383 405 cnv 15 42 25 empty empty empty 20 12 0 14 -24198 -66577
0;
#N canvas 336 174 309 137 ?. 0;
#X obj 3 83 cnv 15 300 46 empty empty empty 20 12 0 14 -224896 -66577
0;
#X obj 3 6 cnv 18 300 70 empty empty ARGOPdMiniModules 3 10 1 14 -4033
-1 1.04858e+06;
#X obj 26 26 cnv 10 10 10 empty empty Gerard 0 5 1 11 -4033 -1 1.04858e+06
;
#X obj 64 26 cnv 10 10 10 empty empty Paresys 0 5 1 11 -4033 -1 1.04858e+06
;
#X obj 7 37 pddp/pddplink http://gerard.paresys.free.fr/ARGOPd/;
#X text 8 85 Construit sous / Build under Pd 0.43.4-extended;
#X obj 8 111 pddp/pddplink http://puredata.info/downloads/pd-extended
;
#X obj 7 50 pddp/pddplink http://paresys.pagesperso-orange.fr/ARGOPd/
;
#X text 7 98 or Pd-0.46-7 + deken;
#X restore 387 409 pd ?.;
#X text 304 80 13 1 2018;
#X obj 316 7 cnv 15 100 70 empty empty empty 20 12 0 14 -24198 -66577
0;
#X text 320 9 library:;
#X text 320 20 pddp;
#X text 320 31 cyclone;
#X connect 3 0 9 0;
#X connect 3 1 15 1;
#X connect 3 1 16 1;
#X connect 4 0 0 0;
#X connect 6 0 33 0;
#X connect 9 0 3 0;
#X connect 10 0 6 0;
#X connect 10 1 9 0;
#X connect 14 0 15 0;
#X connect 15 0 34 0;
#X connect 16 0 35 0;
#X connect 18 0 17 0;
#X connect 19 0 15 2;
#X connect 19 0 16 2;
#X connect 19 1 20 0;
#X connect 20 0 19 0;
#X connect 25 0 27 0;
#X connect 25 0 30 0;
#X connect 26 0 28 0;
#X connect 26 0 31 0;
#X connect 27 0 25 0;
#X connect 28 0 26 0;
#X connect 29 0 32 0;
#X connect 29 0 32 1;
#X connect 30 0 33 1;
#X connect 31 0 30 0;
#X connect 31 1 30 1;
#X connect 32 0 18 1;
#X connect 32 0 4 1;
#X connect 33 0 42 0;
#X connect 34 0 4 0;
#X connect 34 0 16 0;
#X connect 35 0 18 0;
#X connect 36 0 6 0;
#X connect 36 1 10 0;
#X connect 38 0 36 0;
#X connect 42 0 29 0;
#X coords 0 -1 1 1 134 70 2 200 100;
#X restore 190 239 pd ARGO;
#N canvas 64 92 441 457 ARGO 0;
#X obj 176 428 outlet~;
#X obj 68 117 cnv 15 60 30 empty empty empty 20 12 0 14 -24198 -66577
0;
#N canvas 387 113 445 156 Help 0;
#X text 40 122 + Enveloppe Decay/Sustain;
#X text 16 7 Synth3 = Synthétiseur 3 = Synthesizer 3;
#X text 44 64 Bruit blanc + 2 x Filtre Passe-bande;
#X text 42 90 cyclone/tanh~ a la sortie bp~ pour eviter enorme saturation
au changement brusque de frequence;
#X text 42 43 Filtered noise;
#X text 42 27 Bruit filtré;
#X restore 75 123 pd Help;
#N canvas 499 145 264 245 Freq-v6 0;
#X obj 34 35 inlet;
#X obj 34 189 outlet;
#X text 31 206 Hslider;
#X text 29 14 Hslider;
#X obj 158 161 clip 0 20000;
#X obj 158 137 mtof;
#X obj 158 188 outlet;
#X text 155 206 Freq Hz;
#N canvas 73 193 583 317 pitchb-11-2010 0;
#X obj 70 111 mod 12;
#X obj 70 135 sel 0 1 2 3 4 5 6 7 8 9 10 11;
#X msg 246 170 A;
#X msg 300 170 B;
#X msg 192 170 G;
#X msg 3 170 C;
#X msg 57 170 D;
#X msg 111 170 E;
#X msg 138 170 F;
#X obj 204 1 inlet;
#X obj 363 131 div 12;
#X obj 204 79 t f f;
#X text 366 186 -> Numero de l'octave;
#X text 213 64 -> Numero MIDI de la note (69 = A3 = 440Hz);
#X msg 246 260 label \$1;
#X obj 246 283 outlet;
#X msg 30 170 Db;
#X msg 84 170 Eb;
#X msg 165 170 Gb;
#X msg 219 170 Ab;
#X msg 273 170 Bb;
#X text 369 78 (70 = A#3 = Bb3);
#X obj 246 238 symbol;
#X text 11 231 Impossible d'afficher # dans un label;
#X text 11 243 donc j'affiche b;
#X obj 204 51 int;
#X text 255 23 -> pour corriger certaines erreurs de calcul;
#X obj 363 160 - 12;
#X text 255 35 et le pb du passage a zero de mod 12;
#X obj 204 25 + 120.5;
#X obj 246 213 cyclone/sprintf %s%d;
#X connect 0 0 1 0;
#X connect 1 0 5 0;
#X connect 1 1 16 0;
#X connect 1 2 6 0;
#X connect 1 3 17 0;
#X connect 1 4 7 0;
#X connect 1 5 8 0;
#X connect 1 6 18 0;
#X connect 1 7 4 0;
#X connect 1 8 19 0;
#X connect 1 9 2 0;
#X connect 1 10 20 0;
#X connect 1 11 3 0;
#X connect 2 0 30 0;
#X connect 3 0 30 0;
#X connect 4 0 30 0;
#X connect 5 0 30 0;
#X connect 6 0 30 0;
#X connect 7 0 30 0;
#X connect 8 0 30 0;
#X connect 9 0 29 0;
#X connect 10 0 27 0;
#X connect 11 0 0 0;
#X connect 11 1 10 0;
#X connect 14 0 15 0;
#X connect 16 0 30 0;
#X connect 17 0 30 0;
#X connect 18 0 30 0;
#X connect 19 0 30 0;
#X connect 20 0 30 0;
#X connect 22 0 14 0;
#X connect 25 0 11 0;
#X connect 27 0 30 1;
#X connect 29 0 25 0;
#X connect 30 0 22 0;
#X restore 34 100 pd pitchb-11-2010;
#X connect 0 0 5 0;
#X connect 0 0 8 0;
#X connect 4 0 6 0;
#X connect 5 0 4 0;
#X connect 8 0 1 0;
#X restore 213 202 pd Freq-v6;
#X obj 176 398 *~;
#X obj 201 101 cnv 6 132 68 empty ColorForm Synth3. 83 8 1 14 -262144
-1 1.04858e+06;
#X obj 200 101 bng 12 50 50 0 \$0-A \$0-B empty 14 6 1 9 -262144 -1
-1;
#X obj 201 101 cnv 4 10 4 empty empty empty 20 12 0 14 -260097 -66577
0;
#X obj 201 165 cnv 4 10 4 empty empty empty 20 12 0 14 -1 -66577 0
;
#X obj 203 117 hsl 129 12 0 128 0 1 \$0-A ColorTime B5 0 7 1 9 -208064
-1 -1 9500 0;
#X obj 246 69 t b f;
#X obj 202 143 cnv 6 2 2 empty ColorForm Decay 0 4 1 9 -262144 -1 1.04858e+06
;
#X obj 202 132 cnv 6 2 2 empty ColorForm Attack 0 4 1 9 -262144 -1
1.04858e+06;
#X obj 323 165 cnv 4 10 4 empty empty empty 0 0 0 9 -1 -66577 0;
#X obj 126 48 noise~;
#X obj 176 273 bp~;
#X obj 263 346 bp~;
#X obj 263 428 outlet~;
#X obj 263 398 *~;
#N canvas 178 189 285 327 Q 0;
#X obj 19 278 line;
#X obj 22 215 + 1;
#X obj 21 236 clip 1 200;
#X msg 20 257 \$1 100;
#X obj 22 173 * 1;
#X obj 23 152 * 1;
#X obj 24 129 t f f f;
#X obj 19 300 outlet;
#X obj 21 194 * 200;
#X obj 70 9 inlet;
#X obj 94 300 outlet;
#X msg 164 162 label \$1;
#X obj 164 88 * 100;
#X obj 164 112 int;
#X obj 164 140 cyclone/tosymbol;
#X connect 0 0 7 0;
#X connect 1 0 2 0;
#X connect 2 0 3 0;
#X connect 3 0 0 0;
#X connect 4 0 8 0;
#X connect 5 0 4 0;
#X connect 6 0 5 0;
#X connect 6 1 5 1;
#X connect 6 2 4 1;
#X connect 8 0 1 0;
#X connect 9 0 12 0;
#X connect 9 0 6 0;
#X connect 11 0 10 0;
#X connect 12 0 13 0;
#X connect 13 0 14 0;
#X connect 14 0 11 0;
#X restore 172 203 pd Q;
#X obj 233 153 hsl 99 12 0 1 0 1 \$0-A ColorForm 100 0 7 1 9 -188398
-1 -1 9800 0;
#X obj 221 156 cnv 6 2 2 empty ColorForm Q 0 4 1 9 -262144 -1 1.04858e+06
;
#X text 189 173 Noise;
#X text 313 173 Noise;
#X obj 203 154 cnv 6 2 2 empty ColorForm ms 0 4 1 9 -262144 -1 1.04858e+06
;
#X obj 233 129 hsl 99 12 0.1 10000 1 1 \$0-A ColorForm 1.49 0 7 1 9
-208064 -1 -1 2300 0;
#X obj 233 141 hsl 99 12 0.1 10000 1 1 \$0-A ColorForm 163.78 0 7 1
9 -208064 -1 -1 6300 0;
#N canvas 283 162 450 300 label-ms 0;
#X msg 154 171 label \$1;
#X obj 154 111 expr (int(100 * $f1) / 100) \;;
#X obj 154 84 inlet;
#X obj 154 196 outlet;
#X obj 154 151 cyclone/tosymbol;
#X obj 154 131 cyclone/sprintf %s;
#X connect 0 0 3 0;
#X connect 1 0 5 0;
#X connect 2 0 1 0;
#X connect 4 0 0 0;
#X connect 5 0 4 0;
#X restore 344 120 pd label-ms;
#N canvas 285 156 450 300 label-ms 0;
#X msg 154 171 label \$1;
#X obj 154 111 expr (int(100 * $f1) / 100) \;;
#X obj 154 84 inlet;
#X obj 154 196 outlet;
#X obj 153 131 cyclone/sprintf %s;
#X obj 154 151 cyclone/tosymbol;
#X connect 0 0 3 0;
#X connect 1 0 4 0;
#X connect 2 0 1 0;
#X connect 4 0 5 0;
#X connect 5 0 0 0;
#X restore 345 142 pd label-ms;
#X obj 323 307 vline~;
#X obj 362 230 pack 1 2;
#X obj 380 206 t b f;
#X obj 299 346 *~;
#X obj 323 259 list append 0 0;
#X obj 176 300 cyclone/tanh~;
#X obj 263 371 cyclone/tanh~;
#X obj 200 44 route bang float;
#X obj 14 8 cnv 15 240 30 empty empty empty 20 12 0 14 -261682 -66577
0;
#X obj 200 15 inlet;
#X text 22 9 NoteMIDI;
#X text 77 9 0..127 = C-2..G8 ->;
#X text 150 23 Bang ->;
#X msg 323 283 1 \$1 \, 0 \$2 \$1;
#X text 168 185 1 x filtered;
#X text 292 185 2 x filtered;
#X obj 383 405 cnv 15 42 25 empty empty empty 20 12 0 14 -24198 -66577
0;
#N canvas 336 174 309 137 ?. 0;
#X obj 3 83 cnv 15 300 46 empty empty empty 20 12 0 14 -224896 -66577
0;
#X obj 3 6 cnv 18 300 70 empty empty ARGOPdMiniModules 3 10 1 14 -4033
-1 1.04858e+06;
#X obj 26 26 cnv 10 10 10 empty empty Gerard 0 5 1 11 -4033 -1 1.04858e+06
;
#X obj 64 26 cnv 10 10 10 empty empty Paresys 0 5 1 11 -4033 -1 1.04858e+06
;
#X obj 7 37 pddp/pddplink http://gerard.paresys.free.fr/ARGOPd/;
#X text 8 85 Construit sous / Build under Pd 0.43.4-extended;
#X obj 8 111 pddp/pddplink http://puredata.info/downloads/pd-extended
;
#X obj 7 50 pddp/pddplink http://paresys.pagesperso-orange.fr/ARGOPd/
;
#X text 7 98 or Pd-0.46-7 + deken;
#X restore 387 409 pd ?.;
#X text 304 80 13 1 2018;
#X obj 316 7 cnv 15 100 70 empty empty empty 20 12 0 14 -24198 -66577
0;
#X text 320 9 library:;
#X text 320 20 pddp;
#X text 320 31 cyclone;
#X connect 3 0 9 0;
#X connect 3 1 15 1;
#X connect 3 1 16 1;
#X connect 4 0 0 0;
#X connect 6 0 33 0;
#X connect 9 0 3 0;
#X connect 10 0 6 0;
#X connect 10 1 9 0;
#X connect 14 0 15 0;
#X connect 15 0 34 0;
#X connect 16 0 35 0;
#X connect 18 0 17 0;
#X connect 19 0 15 2;
#X connect 19 0 16 2;
#X connect 19 1 20 0;
#X connect 20 0 19 0;
#X connect 25 0 27 0;
#X connect 25 0 30 0;
#X connect 26 0 28 0;
#X connect 26 0 31 0;
#X connect 27 0 25 0;
#X connect 28 0 26 0;
#X connect 29 0 32 0;
#X connect 29 0 32 1;
#X connect 30 0 33 1;
#X connect 31 0 30 0;
#X connect 31 1 30 1;
#X connect 32 0 18 1;
#X connect 32 0 4 1;
#X connect 33 0 42 0;
#X connect 34 0 4 0;
#X connect 34 0 16 0;
#X connect 35 0 18 0;
#X connect 36 0 6 0;
#X connect 36 1 10 0;
#X connect 38 0 36 0;
#X connect 42 0 29 0;
#X coords 0 -1 1 1 134 70 2 200 100;
#X restore 39 239 pd ARGO;
#N canvas 64 92 441 457 ARGO 0;
#X obj 176 428 outlet~;
#X obj 68 117 cnv 15 60 30 empty empty empty 20 12 0 14 -24198 -66577
0;
#N canvas 387 113 445 156 Help 0;
#X text 40 122 + Enveloppe Decay/Sustain;
#X text 16 7 Synth3 = Synthétiseur 3 = Synthesizer 3;
#X text 44 64 Bruit blanc + 2 x Filtre Passe-bande;
#X text 42 90 cyclone/tanh~ a la sortie bp~ pour eviter enorme saturation
au changement brusque de frequence;
#X text 42 43 Filtered noise;
#X text 42 27 Bruit filtré;
#X restore 75 123 pd Help;
#N canvas 499 145 264 245 Freq-v6 0;
#X obj 34 35 inlet;
#X obj 34 189 outlet;
#X text 31 206 Hslider;
#X text 29 14 Hslider;
#X obj 158 161 clip 0 20000;
#X obj 158 137 mtof;
#X obj 158 188 outlet;
#X text 155 206 Freq Hz;
#N canvas 73 193 583 317 pitchb-11-2010 0;
#X obj 70 111 mod 12;
#X obj 70 135 sel 0 1 2 3 4 5 6 7 8 9 10 11;
#X msg 246 170 A;
#X msg 300 170 B;
#X msg 192 170 G;
#X msg 3 170 C;
#X msg 57 170 D;
#X msg 111 170 E;
#X msg 138 170 F;
#X obj 204 1 inlet;
#X obj 363 131 div 12;
#X obj 204 79 t f f;
#X text 366 186 -> Numero de l'octave;
#X text 213 64 -> Numero MIDI de la note (69 = A3 = 440Hz);
#X msg 246 260 label \$1;
#X obj 246 283 outlet;
#X msg 30 170 Db;
#X msg 84 170 Eb;
#X msg 165 170 Gb;
#X msg 219 170 Ab;
#X msg 273 170 Bb;
#X text 369 78 (70 = A#3 = Bb3);
#X obj 246 238 symbol;
#X text 11 231 Impossible d'afficher # dans un label;
#X text 11 243 donc j'affiche b;
#X obj 204 51 int;
#X text 255 23 -> pour corriger certaines erreurs de calcul;
#X obj 363 160 - 12;
#X text 255 35 et le pb du passage a zero de mod 12;
#X obj 204 25 + 120.5;
#X obj 246 213 cyclone/sprintf %s%d;
#X connect 0 0 1 0;
#X connect 1 0 5 0;
#X connect 1 1 16 0;
#X connect 1 2 6 0;
#X connect 1 3 17 0;
#X connect 1 4 7 0;
#X connect 1 5 8 0;
#X connect 1 6 18 0;
#X connect 1 7 4 0;
#X connect 1 8 19 0;
#X connect 1 9 2 0;
#X connect 1 10 20 0;
#X connect 1 11 3 0;
#X connect 2 0 30 0;
#X connect 3 0 30 0;
#X connect 4 0 30 0;
#X connect 5 0 30 0;
#X connect 6 0 30 0;
#X connect 7 0 30 0;
#X connect 8 0 30 0;
#X connect 9 0 29 0;
#X connect 10 0 27 0;
#X connect 11 0 0 0;
#X connect 11 1 10 0;
#X connect 14 0 15 0;
#X connect 16 0 30 0;
#X connect 17 0 30 0;
#X connect 18 0 30 0;
#X connect 19 0 30 0;
#X connect 20 0 30 0;
#X connect 22 0 14 0;
#X connect 25 0 11 0;
#X connect 27 0 30 1;
#X connect 29 0 25 0;
#X connect 30 0 22 0;
#X restore 34 100 pd pitchb-11-2010;
#X connect 0 0 5 0;
#X connect 0 0 8 0;
#X connect 4 0 6 0;
#X connect 5 0 4 0;
#X connect 8 0 1 0;
#X restore 213 202 pd Freq-v6;
#X obj 176 398 *~;
#X obj 201 101 cnv 6 132 68 empty ColorForm Synth3. 83 8 1 14 -262144
-1 1.04858e+06;
#X obj 200 101 bng 12 50 50 0 \$0-A \$0-B empty 14 6 1 9 -262144 -1
-1;
#X obj 201 101 cnv 4 10 4 empty empty empty 20 12 0 14 -260097 -66577
0;
#X obj 201 165 cnv 4 10 4 empty empty empty 20 12 0 14 -1 -66577 0
;
#X obj 203 117 hsl 129 12 0 128 0 1 \$0-A ColorTime D5 0 7 1 9 -208064
-1 -1 8600 0;
#X obj 246 69 t b f;
#X obj 202 143 cnv 6 2 2 empty ColorForm Decay 0 4 1 9 -262144 -1 1.04858e+06
;
#X obj 202 132 cnv 6 2 2 empty ColorForm Attack 0 4 1 9 -262144 -1
1.04858e+06;
#X obj 323 165 cnv 4 10 4 empty empty empty 0 0 0 9 -1 -66577 0;
#X obj 126 48 noise~;
#X obj 176 273 bp~;
#X obj 263 346 bp~;
#X obj 263 428 outlet~;
#X obj 263 398 *~;
#N canvas 178 189 285 327 Q 0;
#X obj 19 278 line;
#X obj 22 215 + 1;
#X obj 21 236 clip 1 200;
#X msg 20 257 \$1 100;
#X obj 22 173 * 1;
#X obj 23 152 * 1;
#X obj 24 129 t f f f;
#X obj 19 300 outlet;
#X obj 21 194 * 200;
#X obj 70 9 inlet;
#X obj 94 300 outlet;
#X msg 164 162 label \$1;
#X obj 164 88 * 100;
#X obj 164 112 int;
#X obj 164 140 cyclone/tosymbol;
#X connect 0 0 7 0;
#X connect 1 0 2 0;
#X connect 2 0 3 0;
#X connect 3 0 0 0;
#X connect 4 0 8 0;
#X connect 5 0 4 0;
#X connect 6 0 5 0;
#X connect 6 1 5 1;
#X connect 6 2 4 1;
#X connect 8 0 1 0;
#X connect 9 0 12 0;
#X connect 9 0 6 0;
#X connect 11 0 10 0;
#X connect 12 0 13 0;
#X connect 13 0 14 0;
#X connect 14 0 11 0;
#X restore 172 203 pd Q;
#X obj 233 153 hsl 99 12 0 1 0 1 \$0-A ColorForm 78 0 7 1 9 -188398
-1 -1 7700 0;
#X obj 221 156 cnv 6 2 2 empty ColorForm Q 0 4 1 9 -262144 -1 1.04858e+06
;
#X text 189 173 Noise;
#X text 313 173 Noise;
#X obj 203 154 cnv 6 2 2 empty ColorForm ms 0 4 1 9 -262144 -1 1.04858e+06
;
#X obj 233 129 hsl 99 12 0.1 10000 1 1 \$0-A ColorForm 3.81 0 7 1 9
-208064 -1 -1 3100 0;
#X obj 233 141 hsl 99 12 0.1 10000 1 1 \$0-A ColorForm 471.48 0 7 1
9 -208064 -1 -1 7200 0;
#N canvas 283 162 450 300 label-ms 0;
#X msg 154 171 label \$1;
#X obj 154 111 expr (int(100 * $f1) / 100) \;;
#X obj 154 84 inlet;
#X obj 154 196 outlet;
#X obj 154 151 cyclone/tosymbol;
#X obj 154 131 cyclone/sprintf %s;
#X connect 0 0 3 0;
#X connect 1 0 5 0;
#X connect 2 0 1 0;
#X connect 4 0 0 0;
#X connect 5 0 4 0;
#X restore 344 120 pd label-ms;
#N canvas 285 156 450 300 label-ms 0;
#X msg 154 171 label \$1;
#X obj 154 111 expr (int(100 * $f1) / 100) \;;
#X obj 154 84 inlet;
#X obj 154 196 outlet;
#X obj 153 131 cyclone/sprintf %s;
#X obj 154 151 cyclone/tosymbol;
#X connect 0 0 3 0;
#X connect 1 0 4 0;
#X connect 2 0 1 0;
#X connect 4 0 5 0;
#X connect 5 0 0 0;
#X restore 345 142 pd label-ms;
#X obj 323 307 vline~;
#X obj 362 230 pack 1 2;
#X obj 380 206 t b f;
#X obj 299 346 *~;
#X obj 323 259 list append 0 0;
#X obj 176 300 cyclone/tanh~;
#X obj 263 371 cyclone/tanh~;
#X obj 200 44 route bang float;
#X obj 14 8 cnv 15 240 30 empty empty empty 20 12 0 14 -261682 -66577
0;
#X obj 200 15 inlet;
#X text 22 9 NoteMIDI;
#X text 77 9 0..127 = C-2..G8 ->;
#X text 150 23 Bang ->;
#X msg 323 283 1 \$1 \, 0 \$2 \$1;
#X text 168 185 1 x filtered;
#X text 292 185 2 x filtered;
#X obj 383 405 cnv 15 42 25 empty empty empty 20 12 0 14 -24198 -66577
0;
#N canvas 336 174 309 137 ?. 0;
#X obj 3 83 cnv 15 300 46 empty empty empty 20 12 0 14 -224896 -66577
0;
#X obj 3 6 cnv 18 300 70 empty empty ARGOPdMiniModules 3 10 1 14 -4033
-1 1.04858e+06;
#X obj 26 26 cnv 10 10 10 empty empty Gerard 0 5 1 11 -4033 -1 1.04858e+06
;
#X obj 64 26 cnv 10 10 10 empty empty Paresys 0 5 1 11 -4033 -1 1.04858e+06
;
#X obj 7 37 pddp/pddplink http://gerard.paresys.free.fr/ARGOPd/;
#X text 8 85 Construit sous / Build under Pd 0.43.4-extended;
#X obj 8 111 pddp/pddplink http://puredata.info/downloads/pd-extended
;
#X obj 7 50 pddp/pddplink http://paresys.pagesperso-orange.fr/ARGOPd/
;
#X text 7 98 or Pd-0.46-7 + deken;
#X restore 387 409 pd ?.;
#X text 304 80 13 1 2018;
#X obj 316 7 cnv 15 100 70 empty empty empty 20 12 0 14 -24198 -66577
0;
#X text 320 9 library:;
#X text 320 20 pddp;
#X text 320 31 cyclone;
#X connect 3 0 9 0;
#X connect 3 1 15 1;
#X connect 3 1 16 1;
#X connect 4 0 0 0;
#X connect 6 0 33 0;
#X connect 9 0 3 0;
#X connect 10 0 6 0;
#X connect 10 1 9 0;
#X connect 14 0 15 0;
#X connect 15 0 34 0;
#X connect 16 0 35 0;
#X connect 18 0 17 0;
#X connect 19 0 15 2;
#X connect 19 0 16 2;
#X connect 19 1 20 0;
#X connect 20 0 19 0;
#X connect 25 0 27 0;
#X connect 25 0 30 0;
#X connect 26 0 28 0;
#X connect 26 0 31 0;
#X connect 27 0 25 0;
#X connect 28 0 26 0;
#X connect 29 0 32 0;
#X connect 29 0 32 1;
#X connect 30 0 33 1;
#X connect 31 0 30 0;
#X connect 31 1 30 1;
#X connect 32 0 18 1;
#X connect 32 0 4 1;
#X connect 33 0 42 0;
#X connect 34 0 4 0;
#X connect 34 0 16 0;
#X connect 35 0 18 0;
#X connect 36 0 6 0;
#X connect 36 1 10 0;
#X connect 38 0 36 0;
#X connect 42 0 29 0;
#X coords 0 -1 1 1 134 70 2 200 100;
#X restore 342 239 pd ARGO;
#N canvas 341 128 584 433 ARGO 0;
#X obj 101 101 cnv 20 142 43 empty ColorForm Crible. 95 8 1 14 -261476
-1 1.04858e+06;
#X obj 101 101 cnv 4 10 4 empty empty empty 20 12 0 14 -260097 -66577
0;
#X obj 101 140 cnv 4 10 4 empty empty empty 20 12 0 14 -260097 -66577
0;
#X obj 57 -86 cnv 15 170 24 empty empty empty 20 12 0 14 -261682 -66577
0;
#X obj 118 -84 inlet;
#X obj 105 301 outlet;
#X obj 117 23 mod 12;
#X obj 292 31 div 12;
#X obj 118 -1 t f f;
#X text 127 -16 -> Numero MIDI de la note (69 = A3 = 440Hz);
#X text 283 -2 (70 = A#3 = Bb3);
#X obj 118 -29 int;
#X text 169 -57 -> pour corriger certaines erreurs de calcul;
#X text 169 -45 et le pb du passage a zero de mod 12;
#X obj 118 -55 + 120.5;
#X obj 100 127 tgl 12 1 \$0-A \$0-B empty 17 7 0 10 -262144 -1 -1 0
1;
#X obj -2 181 spigot;
#X obj 112 127 tgl 12 1 \$0-A \$0-B empty 17 7 0 10 -1 -262144 -1 0
1;
#X obj 41 181 spigot;
#X obj 124 127 tgl 12 1 \$0-A \$0-B empty 17 7 0 10 -262144 -1 -1 1
1;
#X obj 84 181 spigot;
#X obj 136 127 tgl 12 1 \$0-A \$0-B empty 17 7 0 10 -1 -262144 -1 0
1;
#X obj 127 182 spigot;
#X obj 148 127 tgl 12 1 \$0-A \$0-B empty 17 7 0 10 -262144 -1 -1 0
1;
#X obj 171 182 spigot;
#X obj 160 127 tgl 12 1 \$0-A \$0-B empty 17 7 0 10 -262144 -1 -1 1
1;
#X obj 214 182 spigot;
#X obj 172 127 tgl 12 1 \$0-A \$0-B empty 17 7 0 10 -1 -262144 -1 0
1;
#X obj 257 183 spigot;
#X obj 184 127 tgl 12 1 \$0-A \$0-B empty 17 7 0 10 -262144 -1 -1 1
1;
#X obj 301 183 spigot;
#X obj 520 184 * 12;
#X obj 292 60 - 10;
#X obj 468 245 +;
#X obj 100 115 bng 12 50 50 0 \$0-A \$0-B empty 14 6 1 9 -262144 -1
-1;
#X obj 112 115 bng 12 50 50 0 \$0-A \$0-B empty 14 6 1 9 -262144 -1
-1;
#X obj 124 115 bng 12 50 50 0 \$0-A \$0-B empty 14 6 1 9 -262144 -1
-1;
#X obj 136 115 bng 12 50 50 0 \$0-A \$0-B empty 14 6 1 9 -262144 -1
-1;
#X obj 148 115 bng 12 50 50 0 \$0-A \$0-B empty 14 6 1 9 -262144 -1
-1;
#X obj 160 115 bng 12 50 50 0 \$0-A \$0-B empty 14 6 1 9 -262144 -1
-1;
#X obj 172 115 bng 12 50 50 0 \$0-A \$0-B empty 14 6 1 9 -262144 -1
-1;
#X obj 184 115 bng 12 50 50 0 \$0-A \$0-B empty 14 6 1 9 -262144 -1
-1;
#X obj 72 60 select 0 1 2 3 4 5 6 7 8 9 10 11;
#X text 57 -89 Nombre ->;
#X text 57 -79 Number ->;
#X msg 40 207 1;
#X msg 84 207 2;
#X msg 127 207 3;
#X msg 171 207 4;
#X msg -2 207 0;
#X msg 214 205 5;
#X msg 257 205 6;
#X msg 301 205 7;
#X obj 196 127 tgl 12 1 \$0-A \$0-B empty 17 7 0 10 -1 -262144 -1 0
1;
#X obj 344 183 spigot;
#X obj 208 127 tgl 12 1 \$0-A \$0-B empty 17 7 0 10 -262144 -1 -1 1
1;
#X obj 387 183 spigot;
#X obj 220 127 tgl 12 1 \$0-A \$0-B empty 17 7 0 10 -1 -262144 -1 0
1;
#X obj 430 184 spigot;
#X obj 232 127 tgl 12 1 \$0-A \$0-B empty 17 7 0 10 -262144 -1 -1 1
1;
#X obj 474 184 spigot;
#X obj 196 115 bng 12 50 50 0 \$0-A \$0-B empty 14 6 1 9 -262144 -1
-1;
#X obj 208 115 bng 12 50 50 0 \$0-A \$0-B empty 14 6 1 9 -262144 -1
-1;
#X obj 220 115 bng 12 50 50 0 \$0-A \$0-B empty 14 6 1 9 -262144 -1
-1;
#X obj 232 115 bng 12 50 50 0 \$0-A \$0-B empty 14 6 1 9 -262144 -1
-1;
#X msg 344 208 8;
#X msg 387 206 9;
#X msg 430 206 10;
#X msg 474 206 11;
#X obj 481 293 cnv 15 52 22 empty empty empty 20 12 0 14 -24198 -66577
0;
#N canvas 353 174 321 152 ?... 0;
#X obj 8 84 cnv 15 300 56 empty empty empty 20 12 0 14 -224896 -66577
0;
#X obj 8 7 cnv 18 300 70 empty empty ARGOPdMiniModules 3 10 1 14 -4033
-1 1.04858e+06;
#X obj 31 27 cnv 10 10 10 empty empty Gerard 0 5 1 11 -4033 -1 1.04858e+06
;
#X obj 69 27 cnv 10 10 10 empty empty Paresys 0 5 1 11 -4033 -1 1.04858e+06
;
#X obj 12 40 pddp/pddplink http://gerard.paresys.free.fr/ARGOPd/;
#X obj 13 121 pddp/pddplink http://puredata.info/downloads/pd-extended
;
#X obj 13 97 pddp/pddplink http://puredata.info/downloads/pure-data
;
#X text 13 85 Construit sous / Build under Pd-0.49...;
#X text 12 109 or Pd 0.43.4-extended;
#X obj 12 53 pddp/pddplink https://paresys.pagesperso-orange.fr/ARGOPd/
;
#X restore 484 296 pd ?...;
#X text 250 99 19 8 2019;
#X connect 4 0 14 0;
#X connect 6 0 42 0;
#X connect 7 0 32 0;
#X connect 8 0 6 0;
#X connect 8 1 7 0;
#X connect 11 0 8 0;
#X connect 14 0 11 0;
#X connect 15 0 16 1;
#X connect 16 0 49 0;
#X connect 17 0 18 1;
#X connect 18 0 45 0;
#X connect 19 0 20 1;
#X connect 20 0 46 0;
#X connect 21 0 22 1;
#X connect 22 0 47 0;
#X connect 23 0 24 1;
#X connect 24 0 48 0;
#X connect 25 0 26 1;
#X connect 26 0 50 0;
#X connect 27 0 28 1;
#X connect 28 0 51 0;
#X connect 29 0 30 1;
#X connect 30 0 52 0;
#X connect 31 0 33 1;
#X connect 32 0 31 0;
#X connect 33 0 5 0;
#X connect 34 0 16 0;
#X connect 35 0 18 0;
#X connect 36 0 20 0;
#X connect 37 0 22 0;
#X connect 38 0 24 0;
#X connect 39 0 26 0;
#X connect 40 0 28 0;
#X connect 41 0 30 0;
#X connect 42 0 34 0;
#X connect 42 1 35 0;
#X connect 42 2 36 0;
#X connect 42 3 37 0;
#X connect 42 4 38 0;
#X connect 42 5 39 0;
#X connect 42 6 40 0;
#X connect 42 7 41 0;
#X connect 42 8 61 0;
#X connect 42 9 62 0;
#X connect 42 10 63 0;
#X connect 42 11 64 0;
#X connect 45 0 33 0;
#X connect 46 0 33 0;
#X connect 47 0 33 0;
#X connect 48 0 33 0;
#X connect 49 0 33 0;
#X connect 50 0 33 0;
#X connect 51 0 33 0;
#X connect 52 0 33 0;
#X connect 53 0 54 1;
#X connect 54 0 65 0;
#X connect 55 0 56 1;
#X connect 56 0 66 0;
#X connect 57 0 58 1;
#X connect 58 0 67 0;
#X connect 59 0 60 1;
#X connect 60 0 68 0;
#X connect 61 0 54 0;
#X connect 62 0 56 0;
#X connect 63 0 58 0;
#X connect 64 0 60 0;
#X connect 65 0 33 0;
#X connect 66 0 33 0;
#X connect 67 0 33 0;
#X connect 68 0 33 0;
#X coords 0 -1 1 1 144 45 1 100 100;
#X restore 39 178 pd ARGO;
#N canvas 341 128 584 433 ARGO 0;
#X obj 101 101 cnv 20 142 43 empty ColorForm Crible. 95 8 1 14 -261476
-1 1.04858e+06;
#X obj 101 101 cnv 4 10 4 empty empty empty 20 12 0 14 -260097 -66577
0;
#X obj 101 140 cnv 4 10 4 empty empty empty 20 12 0 14 -260097 -66577
0;
#X obj 57 -86 cnv 15 170 24 empty empty empty 20 12 0 14 -261682 -66577
0;
#X obj 118 -84 inlet;
#X obj 105 301 outlet;
#X obj 117 23 mod 12;
#X obj 292 31 div 12;
#X obj 118 -1 t f f;
#X text 127 -16 -> Numero MIDI de la note (69 = A3 = 440Hz);
#X text 283 -2 (70 = A#3 = Bb3);
#X obj 118 -29 int;
#X text 169 -57 -> pour corriger certaines erreurs de calcul;
#X text 169 -45 et le pb du passage a zero de mod 12;
#X obj 118 -55 + 120.5;
#X obj 100 127 tgl 12 1 \$0-A \$0-B empty 17 7 0 10 -262144 -1 -1 1
1;
#X obj -2 181 spigot;
#X obj 112 127 tgl 12 1 \$0-A \$0-B empty 17 7 0 10 -1 -262144 -1 0
1;
#X obj 41 181 spigot;
#X obj 124 127 tgl 12 1 \$0-A \$0-B empty 17 7 0 10 -262144 -1 -1 0
1;
#X obj 84 181 spigot;
#X obj 136 127 tgl 12 1 \$0-A \$0-B empty 17 7 0 10 -1 -262144 -1 0
1;
#X obj 127 182 spigot;
#X obj 148 127 tgl 12 1 \$0-A \$0-B empty 17 7 0 10 -262144 -1 -1 1
1;
#X obj 171 182 spigot;
#X obj 160 127 tgl 12 1 \$0-A \$0-B empty 17 7 0 10 -262144 -1 -1 0
1;
#X obj 214 182 spigot;
#X obj 172 127 tgl 12 1 \$0-A \$0-B empty 17 7 0 10 -1 -262144 -1 0
1;
#X obj 257 183 spigot;
#X obj 184 127 tgl 12 1 \$0-A \$0-B empty 17 7 0 10 -262144 -1 -1 1
1;
#X obj 301 183 spigot;
#X obj 520 184 * 12;
#X obj 292 60 - 10;
#X obj 468 245 +;
#X obj 100 115 bng 12 50 50 0 \$0-A \$0-B empty 14 6 1 9 -262144 -1
-1;
#X obj 112 115 bng 12 50 50 0 \$0-A \$0-B empty 14 6 1 9 -262144 -1
-1;
#X obj 124 115 bng 12 50 50 0 \$0-A \$0-B empty 14 6 1 9 -262144 -1
-1;
#X obj 136 115 bng 12 50 50 0 \$0-A \$0-B empty 14 6 1 9 -262144 -1
-1;
#X obj 148 115 bng 12 50 50 0 \$0-A \$0-B empty 14 6 1 9 -262144 -1
-1;
#X obj 160 115 bng 12 50 50 0 \$0-A \$0-B empty 14 6 1 9 -262144 -1
-1;
#X obj 172 115 bng 12 50 50 0 \$0-A \$0-B empty 14 6 1 9 -262144 -1
-1;
#X obj 184 115 bng 12 50 50 0 \$0-A \$0-B empty 14 6 1 9 -262144 -1
-1;
#X obj 72 60 select 0 1 2 3 4 5 6 7 8 9 10 11;
#X text 57 -89 Nombre ->;
#X text 57 -79 Number ->;
#X msg 40 207 1;
#X msg 84 207 2;
#X msg 127 207 3;
#X msg 171 207 4;
#X msg -2 207 0;
#X msg 214 205 5;
#X msg 257 205 6;
#X msg 301 205 7;
#X obj 196 127 tgl 12 1 \$0-A \$0-B empty 17 7 0 10 -1 -262144 -1 0
1;
#X obj 344 183 spigot;
#X obj 208 127 tgl 12 1 \$0-A \$0-B empty 17 7 0 10 -262144 -1 -1 0
1;
#X obj 387 183 spigot;
#X obj 220 127 tgl 12 1 \$0-A \$0-B empty 17 7 0 10 -1 -262144 -1 0
1;
#X obj 430 184 spigot;
#X obj 232 127 tgl 12 1 \$0-A \$0-B empty 17 7 0 10 -262144 -1 -1 1
1;
#X obj 474 184 spigot;
#X obj 196 115 bng 12 50 50 0 \$0-A \$0-B empty 14 6 1 9 -262144 -1
-1;
#X obj 208 115 bng 12 50 50 0 \$0-A \$0-B empty 14 6 1 9 -262144 -1
-1;
#X obj 220 115 bng 12 50 50 0 \$0-A \$0-B empty 14 6 1 9 -262144 -1
-1;
#X obj 232 115 bng 12 50 50 0 \$0-A \$0-B empty 14 6 1 9 -262144 -1
-1;
#X msg 344 208 8;
#X msg 387 206 9;
#X msg 430 206 10;
#X msg 474 206 11;
#X obj 481 293 cnv 15 52 22 empty empty empty 20 12 0 14 -24198 -66577
0;
#N canvas 353 174 321 152 ?... 0;
#X obj 8 84 cnv 15 300 56 empty empty empty 20 12 0 14 -224896 -66577
0;
#X obj 8 7 cnv 18 300 70 empty empty ARGOPdMiniModules 3 10 1 14 -4033
-1 1.04858e+06;
#X obj 31 27 cnv 10 10 10 empty empty Gerard 0 5 1 11 -4033 -1 1.04858e+06
;
#X obj 69 27 cnv 10 10 10 empty empty Paresys 0 5 1 11 -4033 -1 1.04858e+06
;
#X obj 12 40 pddp/pddplink http://gerard.paresys.free.fr/ARGOPd/;
#X obj 13 121 pddp/pddplink http://puredata.info/downloads/pd-extended
;
#X obj 13 97 pddp/pddplink http://puredata.info/downloads/pure-data
;
#X text 13 85 Construit sous / Build under Pd-0.49...;
#X text 12 109 or Pd 0.43.4-extended;
#X obj 12 53 pddp/pddplink https://paresys.pagesperso-orange.fr/ARGOPd/
;
#X restore 484 296 pd ?...;
#X text 250 99 19 8 2019;
#X connect 4 0 14 0;
#X connect 6 0 42 0;
#X connect 7 0 32 0;
#X connect 8 0 6 0;
#X connect 8 1 7 0;
#X connect 11 0 8 0;
#X connect 14 0 11 0;
#X connect 15 0 16 1;
#X connect 16 0 49 0;
#X connect 17 0 18 1;
#X connect 18 0 45 0;
#X connect 19 0 20 1;
#X connect 20 0 46 0;
#X connect 21 0 22 1;
#X connect 22 0 47 0;
#X connect 23 0 24 1;
#X connect 24 0 48 0;
#X connect 25 0 26 1;
#X connect 26 0 50 0;
#X connect 27 0 28 1;
#X connect 28 0 51 0;
#X connect 29 0 30 1;
#X connect 30 0 52 0;
#X connect 31 0 33 1;
#X connect 32 0 31 0;
#X connect 33 0 5 0;
#X connect 34 0 16 0;
#X connect 35 0 18 0;
#X connect 36 0 20 0;
#X connect 37 0 22 0;
#X connect 38 0 24 0;
#X connect 39 0 26 0;
#X connect 40 0 28 0;
#X connect 41 0 30 0;
#X connect 42 0 34 0;
#X connect 42 1 35 0;
#X connect 42 2 36 0;
#X connect 42 3 37 0;
#X connect 42 4 38 0;
#X connect 42 5 39 0;
#X connect 42 6 40 0;
#X connect 42 7 41 0;
#X connect 42 8 61 0;
#X connect 42 9 62 0;
#X connect 42 10 63 0;
#X connect 42 11 64 0;
#X connect 45 0 33 0;
#X connect 46 0 33 0;
#X connect 47 0 33 0;
#X connect 48 0 33 0;
#X connect 49 0 33 0;
#X connect 50 0 33 0;
#X connect 51 0 33 0;
#X connect 52 0 33 0;
#X connect 53 0 54 1;
#X connect 54 0 65 0;
#X connect 55 0 56 1;
#X connect 56 0 66 0;
#X connect 57 0 58 1;
#X connect 58 0 67 0;
#X connect 59 0 60 1;
#X connect 60 0 68 0;
#X connect 61 0 54 0;
#X connect 62 0 56 0;
#X connect 63 0 58 0;
#X connect 64 0 60 0;
#X connect 65 0 33 0;
#X connect 66 0 33 0;
#X connect 67 0 33 0;
#X connect 68 0 33 0;
#X coords 0 -1 1 1 144 45 1 100 100;
#X restore 190 178 pd ARGO;
#N canvas 341 128 584 433 ARGO 0;
#X obj 101 101 cnv 20 142 43 empty ColorForm Crible. 95 8 1 14 -261476
-1 1.04858e+06;
#X obj 101 101 cnv 4 10 4 empty empty empty 20 12 0 14 -260097 -66577
0;
#X obj 101 140 cnv 4 10 4 empty empty empty 20 12 0 14 -260097 -66577
0;
#X obj 57 -86 cnv 15 170 24 empty empty empty 20 12 0 14 -261682 -66577
0;
#X obj 118 -84 inlet;
#X obj 105 301 outlet;
#X obj 117 23 mod 12;
#X obj 292 31 div 12;
#X obj 118 -1 t f f;
#X text 127 -16 -> Numero MIDI de la note (69 = A3 = 440Hz);
#X text 283 -2 (70 = A#3 = Bb3);
#X obj 118 -29 int;
#X text 169 -57 -> pour corriger certaines erreurs de calcul;
#X text 169 -45 et le pb du passage a zero de mod 12;
#X obj 118 -55 + 120.5;
#X obj 100 127 tgl 12 1 \$0-A \$0-B empty 17 7 0 10 -262144 -1 -1 1
1;
#X obj -2 181 spigot;
#X obj 112 127 tgl 12 1 \$0-A \$0-B empty 17 7 0 10 -1 -262144 -1 0
1;
#X obj 41 181 spigot;
#X obj 124 127 tgl 12 1 \$0-A \$0-B empty 17 7 0 10 -262144 -1 -1 1
1;
#X obj 84 181 spigot;
#X obj 136 127 tgl 12 1 \$0-A \$0-B empty 17 7 0 10 -1 -262144 -1 0
1;
#X obj 127 182 spigot;
#X obj 148 127 tgl 12 1 \$0-A \$0-B empty 17 7 0 10 -262144 -1 -1 0
1;
#X obj 171 182 spigot;
#X obj 160 127 tgl 12 1 \$0-A \$0-B empty 17 7 0 10 -262144 -1 -1 1
1;
#X obj 214 182 spigot;
#X obj 172 127 tgl 12 1 \$0-A \$0-B empty 17 7 0 10 -1 -262144 -1 0
1;
#X obj 257 183 spigot;
#X obj 184 127 tgl 12 1 \$0-A \$0-B empty 17 7 0 10 -262144 -1 -1 1
1;
#X obj 301 183 spigot;
#X obj 520 184 * 12;
#X obj 292 60 - 10;
#X obj 468 245 +;
#X obj 100 115 bng 12 50 50 0 \$0-A \$0-B empty 14 6 1 9 -262144 -1
-1;
#X obj 112 115 bng 12 50 50 0 \$0-A \$0-B empty 14 6 1 9 -262144 -1
-1;
#X obj 124 115 bng 12 50 50 0 \$0-A \$0-B empty 14 6 1 9 -262144 -1
-1;
#X obj 136 115 bng 12 50 50 0 \$0-A \$0-B empty 14 6 1 9 -262144 -1
-1;
#X obj 148 115 bng 12 50 50 0 \$0-A \$0-B empty 14 6 1 9 -262144 -1
-1;
#X obj 160 115 bng 12 50 50 0 \$0-A \$0-B empty 14 6 1 9 -262144 -1
-1;
#X obj 172 115 bng 12 50 50 0 \$0-A \$0-B empty 14 6 1 9 -262144 -1
-1;
#X obj 184 115 bng 12 50 50 0 \$0-A \$0-B empty 14 6 1 9 -262144 -1
-1;
#X obj 72 60 select 0 1 2 3 4 5 6 7 8 9 10 11;
#X text 57 -89 Nombre ->;
#X text 57 -79 Number ->;
#X msg 40 207 1;
#X msg 84 207 2;
#X msg 127 207 3;
#X msg 171 207 4;
#X msg -2 207 0;
#X msg 214 205 5;
#X msg 257 205 6;
#X msg 301 205 7;
#X obj 196 127 tgl 12 1 \$0-A \$0-B empty 17 7 0 10 -1 -262144 -1 0
1;
#X obj 344 183 spigot;
#X obj 208 127 tgl 12 1 \$0-A \$0-B empty 17 7 0 10 -262144 -1 -1 1
1;
#X obj 387 183 spigot;
#X obj 220 127 tgl 12 1 \$0-A \$0-B empty 17 7 0 10 -1 -262144 -1 0
1;
#X obj 430 184 spigot;
#X obj 232 127 tgl 12 1 \$0-A \$0-B empty 17 7 0 10 -262144 -1 -1 0
1;
#X obj 474 184 spigot;
#X obj 196 115 bng 12 50 50 0 \$0-A \$0-B empty 14 6 1 9 -262144 -1
-1;
#X obj 208 115 bng 12 50 50 0 \$0-A \$0-B empty 14 6 1 9 -262144 -1
-1;
#X obj 220 115 bng 12 50 50 0 \$0-A \$0-B empty 14 6 1 9 -262144 -1
-1;
#X obj 232 115 bng 12 50 50 0 \$0-A \$0-B empty 14 6 1 9 -262144 -1
-1;
#X msg 344 208 8;
#X msg 387 206 9;
#X msg 430 206 10;
#X msg 474 206 11;
#X obj 481 293 cnv 15 52 22 empty empty empty 20 12 0 14 -24198 -66577
0;
#N canvas 353 174 321 152 ?... 0;
#X obj 8 84 cnv 15 300 56 empty empty empty 20 12 0 14 -224896 -66577
0;
#X obj 8 7 cnv 18 300 70 empty empty ARGOPdMiniModules 3 10 1 14 -4033
-1 1.04858e+06;
#X obj 31 27 cnv 10 10 10 empty empty Gerard 0 5 1 11 -4033 -1 1.04858e+06
;
#X obj 69 27 cnv 10 10 10 empty empty Paresys 0 5 1 11 -4033 -1 1.04858e+06
;
#X obj 12 40 pddp/pddplink http://gerard.paresys.free.fr/ARGOPd/;
#X obj 13 121 pddp/pddplink http://puredata.info/downloads/pd-extended
;
#X obj 13 97 pddp/pddplink http://puredata.info/downloads/pure-data
;
#X text 13 85 Construit sous / Build under Pd-0.49...;
#X text 12 109 or Pd 0.43.4-extended;
#X obj 12 53 pddp/pddplink https://paresys.pagesperso-orange.fr/ARGOPd/
;
#X restore 484 296 pd ?...;
#X text 250 99 19 8 2019;
#X connect 4 0 14 0;
#X connect 6 0 42 0;
#X connect 7 0 32 0;
#X connect 8 0 6 0;
#X connect 8 1 7 0;
#X connect 11 0 8 0;
#X connect 14 0 11 0;
#X connect 15 0 16 1;
#X connect 16 0 49 0;
#X connect 17 0 18 1;
#X connect 18 0 45 0;
#X connect 19 0 20 1;
#X connect 20 0 46 0;
#X connect 21 0 22 1;
#X connect 22 0 47 0;
#X connect 23 0 24 1;
#X connect 24 0 48 0;
#X connect 25 0 26 1;
#X connect 26 0 50 0;
#X connect 27 0 28 1;
#X connect 28 0 51 0;
#X connect 29 0 30 1;
#X connect 30 0 52 0;
#X connect 31 0 33 1;
#X connect 32 0 31 0;
#X connect 33 0 5 0;
#X connect 34 0 16 0;
#X connect 35 0 18 0;
#X connect 36 0 20 0;
#X connect 37 0 22 0;
#X connect 38 0 24 0;
#X connect 39 0 26 0;
#X connect 40 0 28 0;
#X connect 41 0 30 0;
#X connect 42 0 34 0;
#X connect 42 1 35 0;
#X connect 42 2 36 0;
#X connect 42 3 37 0;
#X connect 42 4 38 0;
#X connect 42 5 39 0;
#X connect 42 6 40 0;
#X connect 42 7 41 0;
#X connect 42 8 61 0;
#X connect 42 9 62 0;
#X connect 42 10 63 0;
#X connect 42 11 64 0;
#X connect 45 0 33 0;
#X connect 46 0 33 0;
#X connect 47 0 33 0;
#X connect 48 0 33 0;
#X connect 49 0 33 0;
#X connect 50 0 33 0;
#X connect 51 0 33 0;
#X connect 52 0 33 0;
#X connect 53 0 54 1;
#X connect 54 0 65 0;
#X connect 55 0 56 1;
#X connect 56 0 66 0;
#X connect 57 0 58 1;
#X connect 58 0 67 0;
#X connect 59 0 60 1;
#X connect 60 0 68 0;
#X connect 61 0 54 0;
#X connect 62 0 56 0;
#X connect 63 0 58 0;
#X connect 64 0 60 0;
#X connect 65 0 33 0;
#X connect 66 0 33 0;
#X connect 67 0 33 0;
#X connect 68 0 33 0;
#X coords 0 -1 1 1 144 45 1 100 100;
#X restore 342 178 pd ARGO;
#N canvas 368 44 417 329 ARGO 0;
#X obj 101 101 cnv 20 131 67 empty ColorForm Chaos. 80 7 1 14 -261476
-1 1.04858e+06;
#X obj 104 115 hsl 127 12 3 4 0 1 \$0-A ColorForm P=3.809 0 7 1 9 -262144
-1 -1 10200 0;
#X obj 174 37 cnv 15 60 30 empty empty empty 20 12 0 14 -24198 -66577
0;
#N canvas 314 68 448 175 Help 0;
#X text 30 27 n+1;
#X text 103 27 n;
#X text 157 26 n;
#X text 61 22 = P * X * (1 - X );
#X text 12 21 - X;
#X text 191 21 chaotique si 0 < X < 1 et 3.57 < P < 4;
#X text 11 73 - En faisant varier P de 3 à 4 \, on passe d'une oscillation
régulière \, stable \, à une variation chaotique... La limite est P
= 3.57. C'est le "scénario de Feigenbaum".;
#X obj 33 48 pddplink http://fr.wikipedia.org/wiki/Image:Diagramme_de_bifurcation.png
;
#X obj 30 118 pddplink http://fr.wikipedia.org/wiki/Théorie_du_chaos
;
#X obj 29 133 pddplink http://en.wikipedia.org/wiki/Chaos_theory;
#X restore 181 44 pd Help;
#N canvas 385 69 294 182 Chaos 0;
#X obj 223 33 inlet;
#X text 236 14 P;
#X text 86 13 X;
#X text 33 152 P * X * (1 - X);
#X text 9 102 0 < X < 1;
#X obj 70 32 inlet;
#X obj 70 63 expr $f2 * $f1 * (1 - $f1);
#X obj 70 102 clip 0.001 0.999;
#X obj 70 134 outlet;
#X connect 0 0 6 1;
#X connect 5 0 6 0;
#X connect 6 0 7 0;
#X connect 7 0 8 0;
#X restore 24 198 pd Chaos;
#X obj 100 100 bng 12 50 50 0 \$0-A \$0-B empty 14 6 1 9 -262144 -1
-1;
#X obj 101 101 cnv 4 10 4 empty empty empty 20 12 0 14 -260097 -66577
0;
#X obj 101 164 cnv 4 10 4 empty empty empty 20 12 0 14 -260097 -66577
0;
#X obj -57 29 cnv 15 170 24 empty empty empty 20 12 0 14 -261682 -66577
0;
#X obj 100 32 inlet;
#X text -57 36 Input anything message ->;
#X text -57 26 N'importe quel message ->;
#X obj 24 173 float;
#X obj 104 127 hsl 127 12 0 1 0 1 \$0-A ColorForm X=0.53 0 7 1 9 -262144
-1 -1 6680 0;
#N canvas 389 277 212 161 labelP 0;
#X msg 15 103 label \$1;
#X obj 14 36 expr (int(1000 * $f1) / 1000) \;;
#X obj 14 12 inlet;
#X obj 15 126 outlet;
#X obj 15 59 cyclone/sprintf P=%s;
#X obj 15 81 cyclone/tosymbol;
#X connect 0 0 3 0;
#X connect 1 0 4 0;
#X connect 2 0 1 0;
#X connect 4 0 5 0;
#X connect 5 0 0 0;
#X restore -19 63 pd labelP;
#N canvas 389 277 212 161 labelX 0;
#X msg 15 103 label \$1;
#X obj 14 36 expr (int(1000 * $f1) / 1000) \;;
#X obj 14 12 inlet;
#X obj 15 126 outlet;
#X obj 15 59 cyclone/sprintf X=%s;
#X obj 15 81 cyclone/tosymbol;
#X connect 0 0 3 0;
#X connect 1 0 4 0;
#X connect 2 0 1 0;
#X connect 4 0 5 0;
#X connect 5 0 0 0;
#X restore -18 90 pd labelX;
#X obj 100 243 int;
#X obj 100 266 outlet;
#X obj 103 139 hsl 128 12 0 127 0 1 \$0-A ColorForm max=99 0 7 1 9
-261299 -1 -1 9900 0;
#N canvas 389 277 212 161 labelMax 0;
#X msg 15 103 label \$1;
#X obj 15 30 inlet;
#X obj 15 126 outlet;
#X obj 15 81 cyclone/tosymbol;
#X obj 15 59 cyclone/sprintf max=%s;
#X connect 0 0 2 0;
#X connect 1 0 4 0;
#X connect 3 0 0 0;
#X connect 4 0 3 0;
#X restore -47 120 pd labelMax;
#N canvas 389 277 212 161 labelMin 0;
#X msg 15 103 label \$1;
#X obj 15 30 inlet;
#X obj 15 126 outlet;
#X obj 15 81 cyclone/tosymbol;
#X obj 15 59 cyclone/sprintf min=%s;
#X connect 0 0 2 0;
#X connect 1 0 4 0;
#X connect 3 0 0 0;
#X connect 4 0 3 0;
#X restore -49 146 pd labelMin;
#X obj 103 151 hsl 128 12 0 127 0 1 \$0-A ColorForm min=57 0 7 1 9
-261299 -1 -1 5700 0;
#X text 107 184 -> X = P * X * (1 - X);
#X obj 100 216 expr $f1 * ($f3 - $f2) + $f2;
#X text 96 284 Integer;
#X text 96 299 0..127;
#X obj 220 273 cnv 15 52 22 empty empty empty 20 12 0 14 -24198 -66577
0;
#N canvas 353 174 321 152 ?... 0;
#X obj 8 84 cnv 15 300 56 empty empty empty 20 12 0 14 -224896 -66577
0;
#X obj 8 7 cnv 18 300 70 empty empty ARGOPdMiniModules 3 10 1 14 -4033
-1 1.04858e+06;
#X obj 31 27 cnv 10 10 10 empty empty Gerard 0 5 1 11 -4033 -1 1.04858e+06
;
#X obj 69 27 cnv 10 10 10 empty empty Paresys 0 5 1 11 -4033 -1 1.04858e+06
;
#X obj 12 40 pddp/pddplink http://gerard.paresys.free.fr/ARGOPd/;
#X obj 13 121 pddp/pddplink http://puredata.info/downloads/pd-extended
;
#X obj 13 97 pddp/pddplink http://puredata.info/downloads/pure-data
;
#X text 13 85 Construit sous / Build under Pd-0.49...;
#X text 12 109 or Pd 0.43.4-extended;
#X obj 12 53 pddp/pddplink https://paresys.pagesperso-orange.fr/ARGOPd/
;
#X restore 223 276 pd ?...;
#X text 169 84 18 8 2019;
#X connect 1 0 4 1;
#X connect 1 0 14 0;
#X connect 4 0 13 0;
#X connect 5 0 12 0;
#X connect 9 0 5 0;
#X connect 12 0 4 0;
#X connect 13 0 15 0;
#X connect 13 0 12 1;
#X connect 13 0 23 0;
#X connect 14 0 1 0;
#X connect 15 0 13 0;
#X connect 16 0 17 0;
#X connect 18 0 19 0;
#X connect 18 0 23 2;
#X connect 19 0 18 0;
#X connect 20 0 21 0;
#X connect 21 0 20 0;
#X connect 21 0 23 1;
#X connect 23 0 16 0;
#X coords 0 -1 1 1 133 69 1 100 100;
#X restore 344 70 pd ARGO;
#X connect 3 0 2 0;
#X connect 8 0 27 0;
#X connect 9 0 29 0;
#X connect 17 0 10 0;
#X connect 17 0 18 0;
#X connect 17 0 19 0;
#X connect 17 1 10 1;
#X connect 17 1 18 1;
#X connect 17 1 19 1;
#X connect 22 0 17 0;
#X connect 22 1 17 1;
#X connect 23 0 30 0;
#X connect 24 0 22 0;
#X connect 24 1 22 1;
#X connect 25 0 22 0;
#X connect 26 0 22 1;
#X connect 27 0 25 0;
#X connect 28 0 24 0;
#X connect 29 0 26 0;
#X connect 30 0 8 0;
#X connect 30 0 9 0;
#X connect 30 0 28 0;
