#N canvas 521 23 598 544 10;
#X obj 263 504 dac~ 1 2;
#X obj 8 15 cnv 15 15 15 empty empty ExMM107c-Synth7.pd 0 8 1 14 -262144
-1 0;
#X text 138 369 General level ->;
#X text 132 358 Niveau general ->;
#X obj 42 102 switch~;
#N canvas 608 166 228 173 ARGOnOff 0;
#X obj 100 100 tgl 18 1 \$0-SendOnOff \$0-ReceiveOnOff On/Off 20 11
1 14 -4033 -1 -1 1 1;
#X obj 99 10 loadbang;
#X msg 99 33 \; pd dsp 1;
#X obj 100 129 outlet;
#X text -50 99 Audio On/Off du patch ->;
#X text -22 45 Audio General On ->;
#X text 107 82 17 3 2010;
#X connect 0 0 3 0;
#X connect 1 0 2 0;
#X coords 0 -1 1 1 65 18 2 100 100;
#X restore 42 84 pd ARGOnOff;
#X text 47 68 V;
#X text 47 61 |;
#X text 34 52 On/Off Patch;
#X text 43 504 .wav file format recorder;
#X text 41 492 Enregistreur audio au format .wav;
#X text 137 481 |;
#X text 137 476 ^;
#X obj 250 111 sel 1 2 3 4;
#X obj 452 229 pack 1 2;
#X obj 497 206 expr 83 -$f1;
#X obj 306 231 pack 1 2;
#X obj 351 208 expr 83 -$f1;
#X obj 162 231 pack 1 2;
#X obj 207 208 expr 83 -$f1;
#X obj 21 231 pack 1 2;
#X obj 66 208 expr 83 -$f1;
#X text 190 19 Adjust ->;
#N canvas 446 64 251 267 ARGO 0;
#X obj 101 104 cnv 30 49 130 empty ColorAmpli empty 20 12 0 14 -1 -258113
0;
#X obj 102 110 vu 8 120 \$0-B empty 0 0 1 11 -1 -4034 0 0;
#X obj 49 35 inlet~;
#X obj 22 108 cnv 15 60 30 empty empty empty 20 12 0 14 -24198 -66577
0;
#N canvas 300 65 442 264 Help 0;
#X obj 12 48 cnv 15 400 150 empty empty empty 20 12 0 14 -233017 -66577
0;
#X text 16 50 Citation;
#X text 28 67 peakamp~ tracks and outputs the absolute value of the
peak amplitude of the incoming signal. It outputs when banged or using
its own internal clock. The peak value is reset each time peakamp~
outputs a value.;
#X text 29 123 cyclone library;
#X text 28 135 http://suita.chopin.edu.pl/~czaja/miXed/externs/cyclone.html
;
#X text 29 155 Voir doc Max/MSP MSP46ReferenceManual.pdf;
#X text 18 14 MM-Vumetre;
#X restore 29 114 pd Help;
#N canvas 541 112 317 265 VuMetre 0;
#X obj 48 19 inlet~;
#X obj 41 54 *~;
#X obj -25 132 snapshot~;
#X obj -25 155 sqrt;
#X obj -25 100 lop~ 10;
#X obj -25 179 rmstodb;
#X obj -88 19 loadbang;
#X obj -25 202 - 100;
#X obj 58 156 sqrt;
#X obj 58 180 rmstodb;
#X obj 58 203 - 100;
#X obj -89 102 metro 200;
#X obj -28 19 r SendFluid;
#X obj 58 102 cyclone/peakamp~ 1000;
#X obj -25 228 outlet;
#X obj 58 227 outlet;
#X connect 0 0 1 0;
#X connect 0 0 1 1;
#X connect 1 0 4 0;
#X connect 1 0 13 0;
#X connect 2 0 3 0;
#X connect 3 0 5 0;
#X connect 4 0 2 0;
#X connect 5 0 7 0;
#X connect 6 0 11 0;
#X connect 7 0 14 0;
#X connect 8 0 9 0;
#X connect 9 0 10 0;
#X connect 10 0 15 0;
#X connect 11 0 2 0;
#X connect 12 0 11 1;
#X connect 13 0 8 0;
#X restore 49 63 pd VuMetre;
#X obj 172 211 cnv 15 42 25 empty empty empty 20 12 0 14 -24198 -66577
0;
#N canvas 336 174 309 137 ?. 0;
#X obj 3 83 cnv 15 300 46 empty empty empty 20 12 0 14 -224896 -66577
0;
#X obj 3 6 cnv 18 300 70 empty empty ARGOPdMiniModules 3 10 1 14 -4033
-1 1.04858e+06;
#X obj 26 26 cnv 10 10 10 empty empty Gerard 0 5 1 11 -4033 -1 1.04858e+06
;
#X obj 64 26 cnv 10 10 10 empty empty Paresys 0 5 1 11 -4033 -1 1.04858e+06
;
#X obj 7 37 pddp/pddplink http://gerard.paresys.free.fr/ARGOPd/;
#X text 8 85 Construit sous / Build under Pd 0.43.4-extended;
#X obj 8 111 pddp/pddplink http://puredata.info/downloads/pd-extended
;
#X obj 7 50 pddp/pddplink http://paresys.pagesperso-orange.fr/ARGOPd/
;
#X text 7 98 or Pd-0.46-7 + deken;
#X restore 176 215 pd ?.;
#X obj 113 110 vu 8 120 \$0-B empty 0 0 1 11 -1 -4034 1 0;
#X obj 126 35 inlet~;
#N canvas 541 112 317 265 VuMetre 0;
#X obj 48 19 inlet~;
#X obj 41 54 *~;
#X obj -25 132 snapshot~;
#X obj -25 155 sqrt;
#X obj -25 100 lop~ 10;
#X obj -25 179 rmstodb;
#X obj -88 19 loadbang;
#X obj -25 202 - 100;
#X obj 58 156 sqrt;
#X obj 58 180 rmstodb;
#X obj 58 203 - 100;
#X obj -89 102 metro 200;
#X obj -28 19 r SendFluid;
#X obj 58 102 cyclone/peakamp~ 1000;
#X obj -25 228 outlet;
#X obj 58 227 outlet;
#X connect 0 0 1 0;
#X connect 0 0 1 1;
#X connect 1 0 4 0;
#X connect 1 0 13 0;
#X connect 2 0 3 0;
#X connect 3 0 5 0;
#X connect 4 0 2 0;
#X connect 5 0 7 0;
#X connect 6 0 11 0;
#X connect 7 0 14 0;
#X connect 8 0 9 0;
#X connect 9 0 10 0;
#X connect 10 0 15 0;
#X connect 11 0 2 0;
#X connect 12 0 11 1;
#X connect 13 0 8 0;
#X restore 126 63 pd VuMetre;
#X text 153 87 3 3 2019;
#X connect 2 0 5 0;
#X connect 5 0 1 0;
#X connect 5 1 1 1;
#X connect 9 0 10 0;
#X connect 10 0 8 0;
#X connect 10 1 8 1;
#X coords 0 -1 1 1 51 135 2 100 100;
#X restore 358 396 pd ARGO;
#N canvas 255 35 367 262 ARGO 0;
#X obj 272 45 cnv 15 60 30 empty empty empty 20 12 0 14 -24198 -66577
0;
#N canvas 424 180 418 133 Help 0;
#X text 10 51 Un "Bang" sort chaque X msec.;
#X text 8 83 A "Bang" outputs every X msec.;
#X restore 279 51 pd Help;
#X obj 95 198 cnv 15 170 24 empty empty empty 20 12 0 14 -261682 -66577
0;
#X obj 100 202 outlet;
#X obj 101 101 cnv 10 132 36 empty ColorForm Oscill. 80 9 1 14 -208064
-1 1.04858e+06;
#X obj 100 125 bng 12 50 50 0 \$0-A \$0-B empty 14 6 1 9 -262144 -1
-1;
#X obj 101 133 cnv 4 10 4 empty empty empty 20 12 0 14 -260097 -66577
0;
#X obj 100 113 nbx 6 12 1 999999 0 1 \$0-A ColorTime ms 40 17 1 9 -208064
-1 -1 200 256;
#X text 146 206 -> Bang;
#X text 145 196 -> Bang;
#X obj 100 100 tgl 12 1 \$0-A \$0-B empty 17 7 0 10 -262144 -1 -1 1
1;
#X obj 68 8 cnv 15 90 60 empty empty empty 20 12 0 14 -261682 -66577
0;
#X obj 101 101 cnv 4 10 4 empty empty empty 20 12 0 14 -260097 -66577
0;
#X obj 28 145 metro 300;
#X obj 223 101 cnv 4 10 4 empty empty empty 20 12 0 14 -260097 -66577
0;
#X obj 215 45 inlet;
#X text 238 95 <- ms;
#X obj 270 202 cnv 15 52 22 empty empty empty 20 12 0 14 -24198 -66577
0;
#N canvas 353 174 321 152 ?... 0;
#X obj 8 84 cnv 15 300 56 empty empty empty 20 12 0 14 -224896 -66577
0;
#X obj 8 7 cnv 18 300 70 empty empty ARGOPdMiniModules 3 10 1 14 -4033
-1 1.04858e+06;
#X obj 31 27 cnv 10 10 10 empty empty Gerard 0 5 1 11 -4033 -1 1.04858e+06
;
#X obj 69 27 cnv 10 10 10 empty empty Paresys 0 5 1 11 -4033 -1 1.04858e+06
;
#X obj 12 40 pddp/pddplink http://gerard.paresys.free.fr/ARGOPd/;
#X obj 13 121 pddp/pddplink http://puredata.info/downloads/pd-extended
;
#X obj 13 97 pddp/pddplink http://puredata.info/downloads/pure-data
;
#X text 13 85 Construit sous / Build under Pd-0.49...;
#X text 12 109 or Pd 0.43.4-extended;
#X obj 12 53 pddp/pddplink https://paresys.pagesperso-orange.fr/ARGOPd/
;
#X restore 273 205 pd ?...;
#X text 177 83 21 8 2019;
#X text 89 10 1: Play;
#X text 89 20 0: Stop;
#X text 71 30 bang: Change;
#X obj 100 45 inlet;
#X text 222 26 ms;
#X connect 5 0 3 0;
#X connect 7 0 13 1;
#X connect 10 0 13 0;
#X connect 13 0 5 0;
#X connect 15 0 7 0;
#X connect 23 0 10 0;
#X coords 0 -1 1 1 134 38 2 100 100;
#X restore 250 9 pd ARGO;
#N canvas 383 56 627 559 ARGO 0;
#X obj 454 139 cnv 15 60 30 empty empty empty 20 12 0 14 -24198 -66577
0;
#N canvas 402 65 405 152 Help 0;
#X text 9 25 Nbr = Nombre - Number;
#X text 21 69 - La valeur du nombre est sauvegardée avec le patch ou
est placé le MM.;
#X text 10 52 Modif par rapport a la version precedente du MM Nbr:
;
#X text 23 96 - Le nombre n'est pas sorti a l'ouverture du patch \,
il faut envoyer un bang a l'entrée du MM.;
#X restore 461 145 pd Help;
#X obj 143 77 cnv 15 170 24 empty empty empty 20 12 0 14 -261682 -66577
0;
#X obj 300 80 inlet;
#X obj 343 514 cnv 15 170 24 empty empty empty 20 12 0 14 -261682 -66577
0;
#X obj 348 518 outlet;
#X obj 301 201 cnv 10 132 46 empty ColorForm Nbr. 105 9 1 14 -261476
-1 1.04858e+06;
#X obj 300 201 bng 12 50 50 0 \$0-A \$0-B empty 14 6 1 9 -262144 -1
-1;
#X obj 301 201 cnv 4 10 4 empty empty empty 20 12 0 14 -260097 -66577
0;
#X obj 301 243 cnv 4 10 4 empty empty empty 20 12 0 14 -260097 -66577
0;
#X obj 315 206 nbx 4 12 2 9999 0 1 \$0-A ColorTime max 40 7 1 9 -262144
-1 -1 4 256;
#X text 143 84 Input anything message ->;
#X text 143 74 N'importe quel message ->;
#X obj 315 230 nbx 4 12 -999 9999 0 1 \$0-A ColorTime min 40 7 1 9
-262144 -1 -1 1 256;
#X obj 432 370 random;
#X obj 431 321 -;
#X obj 391 266 + 1;
#X obj 431 346 t b f;
#X text 393 512 -> Nombre;
#X text 394 522 -> Number;
#X obj 464 396 +;
#X msg 470 309 range \$1 9999;
#X obj 154 262 + 1;
#X obj 171 426 int;
#X obj 131 426 + 1;
#X obj 154 359 int;
#X obj 154 285 t f f;
#X obj 154 334 select 1;
#X obj 154 310 >;
#X obj 375 200 vradio 12 1 1 4 \$0-A \$0-B --> 16 6 1 9 -262144 -1
-1 0;
#X obj 389 212 cnv 5 5 5 empty empty <-- 0 6 1 9 -261476 -1 0;
#X obj 389 225 cnv 5 5 5 empty empty <--> 0 6 1 9 -261476 -1 0;
#X obj 389 237 cnv 5 5 5 empty empty Alea 0 6 1 9 -261476 -1 0;
#X obj 261 431 int;
#X obj 218 360 int;
#X obj 218 286 t f f;
#X obj 218 335 select 1;
#X obj 218 263 - 1;
#X obj 218 311 <;
#X obj 310 290 + 1;
#X obj 316 312 t f f;
#X obj 313 365 select 1;
#X obj 330 431 int;
#X obj 310 337 >;
#X msg 324 263 -1;
#X obj 371 363 select 1;
#X obj 371 339 <;
#X msg 359 263 1;
#X obj 309 391 t b b;
#X obj 372 390 t b b;
#X obj 158 164 >;
#X obj 158 232 int;
#X obj 158 187 select 1;
#X obj 158 141 t b f;
#X obj 97 231 int;
#X obj 97 187 select 1;
#X obj 97 142 t b f;
#X obj 97 165 <;
#X obj 97 208 delay 5;
#X obj 429 261 t b f f f f f b f;
#X obj 158 209 delay 5;
#X obj 528 284 + 1;
#X obj 300 218 nbx 4 12 -999 9999 0 1 \$0-A ColorTime empty 40 7 1
9 -262144 -1 -1 2 256;
#X msg 341 151 set \$1;
#X msg 383 178 2;
#X obj 355 80 loadbang;
#X msg 311 151 1;
#X obj 348 492 spigot 0;
#X obj 355 103 delay 300;
#X obj 355 126 t b b b;
#X obj 548 508 cnv 15 48 25 empty empty empty 20 12 0 14 -24198 -66577
0;
#N canvas 350 196 308 136 ??? 0;
#X obj -6 87 cnv 15 300 38 empty empty empty 20 12 0 14 -224896 -66577
0;
#X obj -6 10 cnv 18 300 70 empty empty ARGOPdMiniModules 3 10 1 14
-4033 -1 1.04858e+06;
#X obj 13 31 cnv 10 10 10 empty empty Gerard 0 5 1 11 -4033 -1 1.04858e+06
;
#X obj 55 30 cnv 10 10 10 empty empty Paresys 0 5 1 11 -4033 -1 1.04858e+06
;
#X text -1 89 Construit sous / Build under Pd 0.42.5-extended;
#X obj 6 43 pddp/pddplink http://pagesperso-orange.fr/Paresys/ARGOPd/
;
#X obj 6 58 pddp/pddplink http://gerard.paresys.free.fr/ARGOPd/;
#X obj 46 105 pddp/pddplink http://puredata.info/downloads;
#X restore 552 512 pd ???;
#X obj 239 464 cyclone/switch 4;
#X text 435 214 4 8 2019;
#X connect 3 0 7 0;
#X connect 7 0 14 0;
#X connect 7 0 23 0;
#X connect 7 0 33 0;
#X connect 7 0 42 0;
#X connect 10 0 16 0;
#X connect 10 0 28 1;
#X connect 10 0 34 1;
#X connect 10 0 43 1;
#X connect 10 0 51 1;
#X connect 10 0 53 0;
#X connect 13 0 59 0;
#X connect 14 0 20 0;
#X connect 15 0 17 0;
#X connect 16 0 15 0;
#X connect 17 0 14 0;
#X connect 17 1 14 1;
#X connect 20 0 72 4;
#X connect 21 0 10 0;
#X connect 22 0 26 0;
#X connect 23 0 72 1;
#X connect 24 0 72 0;
#X connect 25 0 23 1;
#X connect 26 0 28 0;
#X connect 26 1 23 1;
#X connect 27 0 25 0;
#X connect 28 0 27 0;
#X connect 29 0 24 0;
#X connect 33 0 72 2;
#X connect 34 0 33 1;
#X connect 35 0 38 0;
#X connect 35 1 33 1;
#X connect 36 0 34 0;
#X connect 37 0 35 0;
#X connect 38 0 36 0;
#X connect 39 0 40 0;
#X connect 40 0 43 0;
#X connect 40 0 46 0;
#X connect 40 1 42 1;
#X connect 41 0 48 0;
#X connect 42 0 72 3;
#X connect 43 0 41 0;
#X connect 44 0 39 1;
#X connect 45 0 49 0;
#X connect 46 0 45 0;
#X connect 47 0 39 1;
#X connect 48 0 39 0;
#X connect 48 1 44 0;
#X connect 49 0 39 0;
#X connect 49 1 47 0;
#X connect 50 0 52 0;
#X connect 51 0 62 0;
#X connect 52 0 60 0;
#X connect 53 0 50 0;
#X connect 53 1 50 1;
#X connect 54 0 62 0;
#X connect 55 0 58 0;
#X connect 56 0 57 0;
#X connect 56 1 57 1;
#X connect 57 0 55 0;
#X connect 58 0 54 0;
#X connect 59 0 15 0;
#X connect 59 1 15 1;
#X connect 59 2 20 1;
#X connect 59 3 54 1;
#X connect 59 4 56 0;
#X connect 59 5 25 1;
#X connect 59 5 46 1;
#X connect 59 5 38 1;
#X connect 59 6 10 0;
#X connect 59 7 61 0;
#X connect 60 0 51 0;
#X connect 61 0 21 0;
#X connect 62 0 22 0;
#X connect 62 0 37 0;
#X connect 62 0 39 0;
#X connect 62 0 50 0;
#X connect 62 0 57 0;
#X connect 62 0 67 0;
#X connect 63 0 64 0;
#X connect 64 0 62 0;
#X connect 65 0 68 0;
#X connect 66 0 67 1;
#X connect 67 0 5 0;
#X connect 67 0 63 0;
#X connect 68 0 69 0;
#X connect 69 1 66 0;
#X connect 69 2 64 0;
#X connect 72 0 62 0;
#X coords 0 -1 1 1 134 48 2 300 200;
#X restore 250 56 pd ARGO;
#N canvas 383 56 627 559 ARGO 0;
#X obj 454 139 cnv 15 60 30 empty empty empty 20 12 0 14 -24198 -66577
0;
#N canvas 402 65 405 152 Help 0;
#X text 9 25 Nbr = Nombre - Number;
#X text 21 69 - La valeur du nombre est sauvegardée avec le patch ou
est placé le MM.;
#X text 10 52 Modif par rapport a la version precedente du MM Nbr:
;
#X text 23 96 - Le nombre n'est pas sorti a l'ouverture du patch \,
il faut envoyer un bang a l'entrée du MM.;
#X restore 461 145 pd Help;
#X obj 143 77 cnv 15 170 24 empty empty empty 20 12 0 14 -261682 -66577
0;
#X obj 300 80 inlet;
#X obj 343 514 cnv 15 170 24 empty empty empty 20 12 0 14 -261682 -66577
0;
#X obj 348 518 outlet;
#X obj 301 201 cnv 10 132 46 empty ColorForm Nbr. 105 9 1 14 -261476
-1 1.04858e+06;
#X obj 300 201 bng 12 50 50 0 \$0-A \$0-B empty 14 6 1 9 -262144 -1
-1;
#X obj 301 201 cnv 4 10 4 empty empty empty 20 12 0 14 -260097 -66577
0;
#X obj 301 243 cnv 4 10 4 empty empty empty 20 12 0 14 -260097 -66577
0;
#X obj 315 206 nbx 4 12 37 9999 0 1 \$0-A ColorTime max 40 7 1 9 -262144
-1 -1 83 256;
#X text 143 84 Input anything message ->;
#X text 143 74 N'importe quel message ->;
#X obj 315 230 nbx 4 12 -999 9999 0 1 \$0-A ColorTime min 40 7 1 9
-262144 -1 -1 36 256;
#X obj 432 370 random;
#X obj 431 321 -;
#X obj 391 266 + 1;
#X obj 431 346 t b f;
#X text 393 512 -> Nombre;
#X text 394 522 -> Number;
#X obj 464 396 +;
#X msg 470 309 range \$1 9999;
#X obj 154 262 + 1;
#X obj 171 426 int;
#X obj 131 426 + 1;
#X obj 154 359 int;
#X obj 154 285 t f f;
#X obj 154 334 select 1;
#X obj 154 310 >;
#X obj 375 200 vradio 12 1 1 4 \$0-A \$0-B --> 16 6 1 9 -262144 -1
-1 0;
#X obj 389 212 cnv 5 5 5 empty empty <-- 0 6 1 9 -261476 -1 0;
#X obj 389 225 cnv 5 5 5 empty empty <--> 0 6 1 9 -261476 -1 0;
#X obj 389 237 cnv 5 5 5 empty empty Alea 0 6 1 9 -261476 -1 0;
#X obj 261 431 int;
#X obj 218 360 int;
#X obj 218 286 t f f;
#X obj 218 335 select 1;
#X obj 218 263 - 1;
#X obj 218 311 <;
#X obj 310 290 + 1;
#X obj 316 312 t f f;
#X obj 313 365 select 1;
#X obj 330 431 int;
#X obj 310 337 >;
#X msg 324 263 -1;
#X obj 371 363 select 1;
#X obj 371 339 <;
#X msg 359 263 1;
#X obj 309 391 t b b;
#X obj 372 390 t b b;
#X obj 158 164 >;
#X obj 158 232 int;
#X obj 158 187 select 1;
#X obj 158 141 t b f;
#X obj 97 231 int;
#X obj 97 187 select 1;
#X obj 97 142 t b f;
#X obj 97 165 <;
#X obj 97 208 delay 5;
#X obj 429 261 t b f f f f f b f;
#X obj 158 209 delay 5;
#X obj 528 284 + 1;
#X obj 300 218 nbx 4 12 -999 9999 0 1 \$0-A ColorTime empty 40 7 1
9 -262144 -1 -1 38 256;
#X msg 341 151 set \$1;
#X msg 383 178 38;
#X obj 355 80 loadbang;
#X msg 311 151 1;
#X obj 348 492 spigot 0;
#X obj 355 103 delay 300;
#X obj 355 126 t b b b;
#X obj 548 508 cnv 15 48 25 empty empty empty 20 12 0 14 -24198 -66577
0;
#N canvas 350 196 308 136 ??? 0;
#X obj -6 87 cnv 15 300 38 empty empty empty 20 12 0 14 -224896 -66577
0;
#X obj -6 10 cnv 18 300 70 empty empty ARGOPdMiniModules 3 10 1 14
-4033 -1 1.04858e+06;
#X obj 13 31 cnv 10 10 10 empty empty Gerard 0 5 1 11 -4033 -1 1.04858e+06
;
#X obj 55 30 cnv 10 10 10 empty empty Paresys 0 5 1 11 -4033 -1 1.04858e+06
;
#X text -1 89 Construit sous / Build under Pd 0.42.5-extended;
#X obj 6 43 pddp/pddplink http://pagesperso-orange.fr/Paresys/ARGOPd/
;
#X obj 6 58 pddp/pddplink http://gerard.paresys.free.fr/ARGOPd/;
#X obj 46 105 pddp/pddplink http://puredata.info/downloads;
#X restore 552 512 pd ???;
#X obj 239 464 cyclone/switch 4;
#X text 435 214 4 8 2019;
#X connect 3 0 7 0;
#X connect 7 0 14 0;
#X connect 7 0 23 0;
#X connect 7 0 33 0;
#X connect 7 0 42 0;
#X connect 10 0 16 0;
#X connect 10 0 28 1;
#X connect 10 0 34 1;
#X connect 10 0 43 1;
#X connect 10 0 51 1;
#X connect 10 0 53 0;
#X connect 13 0 59 0;
#X connect 14 0 20 0;
#X connect 15 0 17 0;
#X connect 16 0 15 0;
#X connect 17 0 14 0;
#X connect 17 1 14 1;
#X connect 20 0 72 4;
#X connect 21 0 10 0;
#X connect 22 0 26 0;
#X connect 23 0 72 1;
#X connect 24 0 72 0;
#X connect 25 0 23 1;
#X connect 26 0 28 0;
#X connect 26 1 23 1;
#X connect 27 0 25 0;
#X connect 28 0 27 0;
#X connect 29 0 24 0;
#X connect 33 0 72 2;
#X connect 34 0 33 1;
#X connect 35 0 38 0;
#X connect 35 1 33 1;
#X connect 36 0 34 0;
#X connect 37 0 35 0;
#X connect 38 0 36 0;
#X connect 39 0 40 0;
#X connect 40 0 43 0;
#X connect 40 0 46 0;
#X connect 40 1 42 1;
#X connect 41 0 48 0;
#X connect 42 0 72 3;
#X connect 43 0 41 0;
#X connect 44 0 39 1;
#X connect 45 0 49 0;
#X connect 46 0 45 0;
#X connect 47 0 39 1;
#X connect 48 0 39 0;
#X connect 48 1 44 0;
#X connect 49 0 39 0;
#X connect 49 1 47 0;
#X connect 50 0 52 0;
#X connect 51 0 62 0;
#X connect 52 0 60 0;
#X connect 53 0 50 0;
#X connect 53 1 50 1;
#X connect 54 0 62 0;
#X connect 55 0 58 0;
#X connect 56 0 57 0;
#X connect 56 1 57 1;
#X connect 57 0 55 0;
#X connect 58 0 54 0;
#X connect 59 0 15 0;
#X connect 59 1 15 1;
#X connect 59 2 20 1;
#X connect 59 3 54 1;
#X connect 59 4 56 0;
#X connect 59 5 25 1;
#X connect 59 5 46 1;
#X connect 59 5 38 1;
#X connect 59 6 10 0;
#X connect 59 7 61 0;
#X connect 60 0 51 0;
#X connect 61 0 21 0;
#X connect 62 0 22 0;
#X connect 62 0 37 0;
#X connect 62 0 39 0;
#X connect 62 0 50 0;
#X connect 62 0 57 0;
#X connect 62 0 67 0;
#X connect 63 0 64 0;
#X connect 64 0 62 0;
#X connect 65 0 68 0;
#X connect 66 0 67 1;
#X connect 67 0 5 0;
#X connect 67 0 63 0;
#X connect 68 0 69 0;
#X connect 69 1 66 0;
#X connect 69 2 64 0;
#X connect 72 0 62 0;
#X coords 0 -1 1 1 134 48 2 300 200;
#X restore 21 150 pd ARGO;
#N canvas 383 56 627 559 ARGO 0;
#X obj 454 139 cnv 15 60 30 empty empty empty 20 12 0 14 -24198 -66577
0;
#N canvas 402 65 405 152 Help 0;
#X text 9 25 Nbr = Nombre - Number;
#X text 21 69 - La valeur du nombre est sauvegardée avec le patch ou
est placé le MM.;
#X text 10 52 Modif par rapport a la version precedente du MM Nbr:
;
#X text 23 96 - Le nombre n'est pas sorti a l'ouverture du patch \,
il faut envoyer un bang a l'entrée du MM.;
#X restore 461 145 pd Help;
#X obj 143 77 cnv 15 170 24 empty empty empty 20 12 0 14 -261682 -66577
0;
#X obj 300 80 inlet;
#X obj 343 514 cnv 15 170 24 empty empty empty 20 12 0 14 -261682 -66577
0;
#X obj 348 518 outlet;
#X obj 301 201 cnv 10 132 46 empty ColorForm Nbr. 105 9 1 14 -261476
-1 1.04858e+06;
#X obj 300 201 bng 12 50 50 0 \$0-A \$0-B empty 14 6 1 9 -262144 -1
-1;
#X obj 301 201 cnv 4 10 4 empty empty empty 20 12 0 14 -260097 -66577
0;
#X obj 301 243 cnv 4 10 4 empty empty empty 20 12 0 14 -260097 -66577
0;
#X obj 315 206 nbx 4 12 37 9999 0 1 \$0-A ColorTime max 40 7 1 9 -262144
-1 -1 83 256;
#X text 143 84 Input anything message ->;
#X text 143 74 N'importe quel message ->;
#X obj 315 230 nbx 4 12 -999 9999 0 1 \$0-A ColorTime min 40 7 1 9
-262144 -1 -1 36 256;
#X obj 432 370 random;
#X obj 431 321 -;
#X obj 391 266 + 1;
#X obj 431 346 t b f;
#X text 393 512 -> Nombre;
#X text 394 522 -> Number;
#X obj 464 396 +;
#X msg 470 309 range \$1 9999;
#X obj 154 262 + 1;
#X obj 171 426 int;
#X obj 131 426 + 1;
#X obj 154 359 int;
#X obj 154 285 t f f;
#X obj 154 334 select 1;
#X obj 154 310 >;
#X obj 375 200 vradio 12 1 1 4 \$0-A \$0-B --> 16 6 1 9 -262144 -1
-1 0;
#X obj 389 212 cnv 5 5 5 empty empty <-- 0 6 1 9 -261476 -1 0;
#X obj 389 225 cnv 5 5 5 empty empty <--> 0 6 1 9 -261476 -1 0;
#X obj 389 237 cnv 5 5 5 empty empty Alea 0 6 1 9 -261476 -1 0;
#X obj 261 431 int;
#X obj 218 360 int;
#X obj 218 286 t f f;
#X obj 218 335 select 1;
#X obj 218 263 - 1;
#X obj 218 311 <;
#X obj 310 290 + 1;
#X obj 316 312 t f f;
#X obj 313 365 select 1;
#X obj 330 431 int;
#X obj 310 337 >;
#X msg 324 263 -1;
#X obj 371 363 select 1;
#X obj 371 339 <;
#X msg 359 263 1;
#X obj 309 391 t b b;
#X obj 372 390 t b b;
#X obj 158 164 >;
#X obj 158 232 int;
#X obj 158 187 select 1;
#X obj 158 141 t b f;
#X obj 97 231 int;
#X obj 97 187 select 1;
#X obj 97 142 t b f;
#X obj 97 165 <;
#X obj 97 208 delay 5;
#X obj 429 261 t b f f f f f b f;
#X obj 158 209 delay 5;
#X obj 528 284 + 1;
#X obj 300 218 nbx 4 12 -999 9999 0 1 \$0-A ColorTime empty 40 7 1
9 -262144 -1 -1 58 256;
#X msg 341 151 set \$1;
#X msg 383 178 58;
#X obj 355 80 loadbang;
#X msg 311 151 1;
#X obj 348 492 spigot 0;
#X obj 355 103 delay 300;
#X obj 355 126 t b b b;
#X obj 548 508 cnv 15 48 25 empty empty empty 20 12 0 14 -24198 -66577
0;
#N canvas 350 196 308 136 ??? 0;
#X obj -6 87 cnv 15 300 38 empty empty empty 20 12 0 14 -224896 -66577
0;
#X obj -6 10 cnv 18 300 70 empty empty ARGOPdMiniModules 3 10 1 14
-4033 -1 1.04858e+06;
#X obj 13 31 cnv 10 10 10 empty empty Gerard 0 5 1 11 -4033 -1 1.04858e+06
;
#X obj 55 30 cnv 10 10 10 empty empty Paresys 0 5 1 11 -4033 -1 1.04858e+06
;
#X text -1 89 Construit sous / Build under Pd 0.42.5-extended;
#X obj 6 43 pddp/pddplink http://pagesperso-orange.fr/Paresys/ARGOPd/
;
#X obj 6 58 pddp/pddplink http://gerard.paresys.free.fr/ARGOPd/;
#X obj 46 105 pddp/pddplink http://puredata.info/downloads;
#X restore 552 512 pd ???;
#X obj 239 464 cyclone/switch 4;
#X text 435 214 4 8 2019;
#X connect 3 0 7 0;
#X connect 7 0 14 0;
#X connect 7 0 23 0;
#X connect 7 0 33 0;
#X connect 7 0 42 0;
#X connect 10 0 16 0;
#X connect 10 0 28 1;
#X connect 10 0 34 1;
#X connect 10 0 43 1;
#X connect 10 0 51 1;
#X connect 10 0 53 0;
#X connect 13 0 59 0;
#X connect 14 0 20 0;
#X connect 15 0 17 0;
#X connect 16 0 15 0;
#X connect 17 0 14 0;
#X connect 17 1 14 1;
#X connect 20 0 72 4;
#X connect 21 0 10 0;
#X connect 22 0 26 0;
#X connect 23 0 72 1;
#X connect 24 0 72 0;
#X connect 25 0 23 1;
#X connect 26 0 28 0;
#X connect 26 1 23 1;
#X connect 27 0 25 0;
#X connect 28 0 27 0;
#X connect 29 0 24 0;
#X connect 33 0 72 2;
#X connect 34 0 33 1;
#X connect 35 0 38 0;
#X connect 35 1 33 1;
#X connect 36 0 34 0;
#X connect 37 0 35 0;
#X connect 38 0 36 0;
#X connect 39 0 40 0;
#X connect 40 0 43 0;
#X connect 40 0 46 0;
#X connect 40 1 42 1;
#X connect 41 0 48 0;
#X connect 42 0 72 3;
#X connect 43 0 41 0;
#X connect 44 0 39 1;
#X connect 45 0 49 0;
#X connect 46 0 45 0;
#X connect 47 0 39 1;
#X connect 48 0 39 0;
#X connect 48 1 44 0;
#X connect 49 0 39 0;
#X connect 49 1 47 0;
#X connect 50 0 52 0;
#X connect 51 0 62 0;
#X connect 52 0 60 0;
#X connect 53 0 50 0;
#X connect 53 1 50 1;
#X connect 54 0 62 0;
#X connect 55 0 58 0;
#X connect 56 0 57 0;
#X connect 56 1 57 1;
#X connect 57 0 55 0;
#X connect 58 0 54 0;
#X connect 59 0 15 0;
#X connect 59 1 15 1;
#X connect 59 2 20 1;
#X connect 59 3 54 1;
#X connect 59 4 56 0;
#X connect 59 5 25 1;
#X connect 59 5 46 1;
#X connect 59 5 38 1;
#X connect 59 6 10 0;
#X connect 59 7 61 0;
#X connect 60 0 51 0;
#X connect 61 0 21 0;
#X connect 62 0 22 0;
#X connect 62 0 37 0;
#X connect 62 0 39 0;
#X connect 62 0 50 0;
#X connect 62 0 57 0;
#X connect 62 0 67 0;
#X connect 63 0 64 0;
#X connect 64 0 62 0;
#X connect 65 0 68 0;
#X connect 66 0 67 1;
#X connect 67 0 5 0;
#X connect 67 0 63 0;
#X connect 68 0 69 0;
#X connect 69 1 66 0;
#X connect 69 2 64 0;
#X connect 72 0 62 0;
#X coords 0 -1 1 1 134 48 2 300 200;
#X restore 162 150 pd ARGO;
#N canvas 383 56 627 559 ARGO 0;
#X obj 454 139 cnv 15 60 30 empty empty empty 20 12 0 14 -24198 -66577
0;
#N canvas 402 65 405 152 Help 0;
#X text 9 25 Nbr = Nombre - Number;
#X text 21 69 - La valeur du nombre est sauvegardée avec le patch ou
est placé le MM.;
#X text 10 52 Modif par rapport a la version precedente du MM Nbr:
;
#X text 23 96 - Le nombre n'est pas sorti a l'ouverture du patch \,
il faut envoyer un bang a l'entrée du MM.;
#X restore 461 145 pd Help;
#X obj 143 77 cnv 15 170 24 empty empty empty 20 12 0 14 -261682 -66577
0;
#X obj 300 80 inlet;
#X obj 343 514 cnv 15 170 24 empty empty empty 20 12 0 14 -261682 -66577
0;
#X obj 348 518 outlet;
#X obj 301 201 cnv 10 132 46 empty ColorForm Nbr. 105 9 1 14 -261476
-1 1.04858e+06;
#X obj 300 201 bng 12 50 50 0 \$0-A \$0-B empty 14 6 1 9 -262144 -1
-1;
#X obj 301 201 cnv 4 10 4 empty empty empty 20 12 0 14 -260097 -66577
0;
#X obj 301 243 cnv 4 10 4 empty empty empty 20 12 0 14 -260097 -66577
0;
#X obj 315 206 nbx 4 12 37 9999 0 1 \$0-A ColorTime max 40 7 1 9 -262144
-1 -1 83 256;
#X text 143 84 Input anything message ->;
#X text 143 74 N'importe quel message ->;
#X obj 315 230 nbx 4 12 -999 9999 0 1 \$0-A ColorTime min 40 7 1 9
-262144 -1 -1 36 256;
#X obj 432 370 random;
#X obj 431 321 -;
#X obj 391 266 + 1;
#X obj 431 346 t b f;
#X text 393 512 -> Nombre;
#X text 394 522 -> Number;
#X obj 464 396 +;
#X msg 470 309 range \$1 9999;
#X obj 154 262 + 1;
#X obj 171 426 int;
#X obj 131 426 + 1;
#X obj 154 359 int;
#X obj 154 285 t f f;
#X obj 154 334 select 1;
#X obj 154 310 >;
#X obj 375 200 vradio 12 1 1 4 \$0-A \$0-B --> 16 6 1 9 -262144 -1
-1 0;
#X obj 389 212 cnv 5 5 5 empty empty <-- 0 6 1 9 -261476 -1 0;
#X obj 389 225 cnv 5 5 5 empty empty <--> 0 6 1 9 -261476 -1 0;
#X obj 389 237 cnv 5 5 5 empty empty Alea 0 6 1 9 -261476 -1 0;
#X obj 261 431 int;
#X obj 218 360 int;
#X obj 218 286 t f f;
#X obj 218 335 select 1;
#X obj 218 263 - 1;
#X obj 218 311 <;
#X obj 310 290 + 1;
#X obj 316 312 t f f;
#X obj 313 365 select 1;
#X obj 330 431 int;
#X obj 310 337 >;
#X msg 324 263 -1;
#X obj 371 363 select 1;
#X obj 371 339 <;
#X msg 359 263 1;
#X obj 309 391 t b b;
#X obj 372 390 t b b;
#X obj 158 164 >;
#X obj 158 232 int;
#X obj 158 187 select 1;
#X obj 158 141 t b f;
#X obj 97 231 int;
#X obj 97 187 select 1;
#X obj 97 142 t b f;
#X obj 97 165 <;
#X obj 97 208 delay 5;
#X obj 429 261 t b f f f f f b f;
#X obj 158 209 delay 5;
#X obj 528 284 + 1;
#X obj 300 218 nbx 4 12 -999 9999 0 1 \$0-A ColorTime empty 40 7 1
9 -262144 -1 -1 70 256;
#X msg 341 151 set \$1;
#X msg 383 178 70;
#X obj 355 80 loadbang;
#X msg 311 151 1;
#X obj 348 492 spigot 0;
#X obj 355 103 delay 300;
#X obj 355 126 t b b b;
#X obj 548 508 cnv 15 48 25 empty empty empty 20 12 0 14 -24198 -66577
0;
#N canvas 350 196 308 136 ??? 0;
#X obj -6 87 cnv 15 300 38 empty empty empty 20 12 0 14 -224896 -66577
0;
#X obj -6 10 cnv 18 300 70 empty empty ARGOPdMiniModules 3 10 1 14
-4033 -1 1.04858e+06;
#X obj 13 31 cnv 10 10 10 empty empty Gerard 0 5 1 11 -4033 -1 1.04858e+06
;
#X obj 55 30 cnv 10 10 10 empty empty Paresys 0 5 1 11 -4033 -1 1.04858e+06
;
#X text -1 89 Construit sous / Build under Pd 0.42.5-extended;
#X obj 6 43 pddp/pddplink http://pagesperso-orange.fr/Paresys/ARGOPd/
;
#X obj 6 58 pddp/pddplink http://gerard.paresys.free.fr/ARGOPd/;
#X obj 46 105 pddp/pddplink http://puredata.info/downloads;
#X restore 552 512 pd ???;
#X obj 239 464 cyclone/switch 4;
#X text 435 214 4 8 2019;
#X connect 3 0 7 0;
#X connect 7 0 14 0;
#X connect 7 0 23 0;
#X connect 7 0 33 0;
#X connect 7 0 42 0;
#X connect 10 0 16 0;
#X connect 10 0 28 1;
#X connect 10 0 34 1;
#X connect 10 0 43 1;
#X connect 10 0 51 1;
#X connect 10 0 53 0;
#X connect 13 0 59 0;
#X connect 14 0 20 0;
#X connect 15 0 17 0;
#X connect 16 0 15 0;
#X connect 17 0 14 0;
#X connect 17 1 14 1;
#X connect 20 0 72 4;
#X connect 21 0 10 0;
#X connect 22 0 26 0;
#X connect 23 0 72 1;
#X connect 24 0 72 0;
#X connect 25 0 23 1;
#X connect 26 0 28 0;
#X connect 26 1 23 1;
#X connect 27 0 25 0;
#X connect 28 0 27 0;
#X connect 29 0 24 0;
#X connect 33 0 72 2;
#X connect 34 0 33 1;
#X connect 35 0 38 0;
#X connect 35 1 33 1;
#X connect 36 0 34 0;
#X connect 37 0 35 0;
#X connect 38 0 36 0;
#X connect 39 0 40 0;
#X connect 40 0 43 0;
#X connect 40 0 46 0;
#X connect 40 1 42 1;
#X connect 41 0 48 0;
#X connect 42 0 72 3;
#X connect 43 0 41 0;
#X connect 44 0 39 1;
#X connect 45 0 49 0;
#X connect 46 0 45 0;
#X connect 47 0 39 1;
#X connect 48 0 39 0;
#X connect 48 1 44 0;
#X connect 49 0 39 0;
#X connect 49 1 47 0;
#X connect 50 0 52 0;
#X connect 51 0 62 0;
#X connect 52 0 60 0;
#X connect 53 0 50 0;
#X connect 53 1 50 1;
#X connect 54 0 62 0;
#X connect 55 0 58 0;
#X connect 56 0 57 0;
#X connect 56 1 57 1;
#X connect 57 0 55 0;
#X connect 58 0 54 0;
#X connect 59 0 15 0;
#X connect 59 1 15 1;
#X connect 59 2 20 1;
#X connect 59 3 54 1;
#X connect 59 4 56 0;
#X connect 59 5 25 1;
#X connect 59 5 46 1;
#X connect 59 5 38 1;
#X connect 59 6 10 0;
#X connect 59 7 61 0;
#X connect 60 0 51 0;
#X connect 61 0 21 0;
#X connect 62 0 22 0;
#X connect 62 0 37 0;
#X connect 62 0 39 0;
#X connect 62 0 50 0;
#X connect 62 0 57 0;
#X connect 62 0 67 0;
#X connect 63 0 64 0;
#X connect 64 0 62 0;
#X connect 65 0 68 0;
#X connect 66 0 67 1;
#X connect 67 0 5 0;
#X connect 67 0 63 0;
#X connect 68 0 69 0;
#X connect 69 1 66 0;
#X connect 69 2 64 0;
#X connect 72 0 62 0;
#X coords 0 -1 1 1 134 48 2 300 200;
#X restore 306 150 pd ARGO;
#N canvas 383 56 627 559 ARGO 0;
#X obj 454 139 cnv 15 60 30 empty empty empty 20 12 0 14 -24198 -66577
0;
#N canvas 402 65 405 152 Help 0;
#X text 9 25 Nbr = Nombre - Number;
#X text 21 69 - La valeur du nombre est sauvegardée avec le patch ou
est placé le MM.;
#X text 10 52 Modif par rapport a la version precedente du MM Nbr:
;
#X text 23 96 - Le nombre n'est pas sorti a l'ouverture du patch \,
il faut envoyer un bang a l'entrée du MM.;
#X restore 461 145 pd Help;
#X obj 143 77 cnv 15 170 24 empty empty empty 20 12 0 14 -261682 -66577
0;
#X obj 300 80 inlet;
#X obj 343 514 cnv 15 170 24 empty empty empty 20 12 0 14 -261682 -66577
0;
#X obj 348 518 outlet;
#X obj 301 201 cnv 10 132 46 empty ColorForm Nbr. 105 9 1 14 -261476
-1 1.04858e+06;
#X obj 300 201 bng 12 50 50 0 \$0-A \$0-B empty 14 6 1 9 -262144 -1
-1;
#X obj 301 201 cnv 4 10 4 empty empty empty 20 12 0 14 -260097 -66577
0;
#X obj 301 243 cnv 4 10 4 empty empty empty 20 12 0 14 -260097 -66577
0;
#X obj 315 206 nbx 4 12 37 9999 0 1 \$0-A ColorTime max 40 7 1 9 -262144
-1 -1 83 256;
#X text 143 84 Input anything message ->;
#X text 143 74 N'importe quel message ->;
#X obj 315 230 nbx 4 12 -999 9999 0 1 \$0-A ColorTime min 40 7 1 9
-262144 -1 -1 36 256;
#X obj 432 370 random;
#X obj 431 321 -;
#X obj 391 266 + 1;
#X obj 431 346 t b f;
#X text 393 512 -> Nombre;
#X text 394 522 -> Number;
#X obj 464 396 +;
#X msg 470 309 range \$1 9999;
#X obj 154 262 + 1;
#X obj 171 426 int;
#X obj 131 426 + 1;
#X obj 154 359 int;
#X obj 154 285 t f f;
#X obj 154 334 select 1;
#X obj 154 310 >;
#X obj 375 200 vradio 12 1 1 4 \$0-A \$0-B --> 16 6 1 9 -262144 -1
-1 0;
#X obj 389 212 cnv 5 5 5 empty empty <-- 0 6 1 9 -261476 -1 0;
#X obj 389 225 cnv 5 5 5 empty empty <--> 0 6 1 9 -261476 -1 0;
#X obj 389 237 cnv 5 5 5 empty empty Alea 0 6 1 9 -261476 -1 0;
#X obj 261 431 int;
#X obj 218 360 int;
#X obj 218 286 t f f;
#X obj 218 335 select 1;
#X obj 218 263 - 1;
#X obj 218 311 <;
#X obj 310 290 + 1;
#X obj 316 312 t f f;
#X obj 313 365 select 1;
#X obj 330 431 int;
#X obj 310 337 >;
#X msg 324 263 -1;
#X obj 371 363 select 1;
#X obj 371 339 <;
#X msg 359 263 1;
#X obj 309 391 t b b;
#X obj 372 390 t b b;
#X obj 158 164 >;
#X obj 158 232 int;
#X obj 158 187 select 1;
#X obj 158 141 t b f;
#X obj 97 231 int;
#X obj 97 187 select 1;
#X obj 97 142 t b f;
#X obj 97 165 <;
#X obj 97 208 delay 5;
#X obj 429 261 t b f f f f f b f;
#X obj 158 209 delay 5;
#X obj 528 284 + 1;
#X obj 300 218 nbx 4 12 -999 9999 0 1 \$0-A ColorTime empty 40 7 1
9 -262144 -1 -1 48 256;
#X msg 341 151 set \$1;
#X msg 383 178 48;
#X obj 355 80 loadbang;
#X msg 311 151 1;
#X obj 348 492 spigot 0;
#X obj 355 103 delay 300;
#X obj 355 126 t b b b;
#X obj 548 508 cnv 15 48 25 empty empty empty 20 12 0 14 -24198 -66577
0;
#N canvas 350 196 308 136 ??? 0;
#X obj -6 87 cnv 15 300 38 empty empty empty 20 12 0 14 -224896 -66577
0;
#X obj -6 10 cnv 18 300 70 empty empty ARGOPdMiniModules 3 10 1 14
-4033 -1 1.04858e+06;
#X obj 13 31 cnv 10 10 10 empty empty Gerard 0 5 1 11 -4033 -1 1.04858e+06
;
#X obj 55 30 cnv 10 10 10 empty empty Paresys 0 5 1 11 -4033 -1 1.04858e+06
;
#X text -1 89 Construit sous / Build under Pd 0.42.5-extended;
#X obj 6 43 pddp/pddplink http://pagesperso-orange.fr/Paresys/ARGOPd/
;
#X obj 6 58 pddp/pddplink http://gerard.paresys.free.fr/ARGOPd/;
#X obj 46 105 pddp/pddplink http://puredata.info/downloads;
#X restore 552 512 pd ???;
#X obj 239 464 cyclone/switch 4;
#X text 435 214 4 8 2019;
#X connect 3 0 7 0;
#X connect 7 0 14 0;
#X connect 7 0 23 0;
#X connect 7 0 33 0;
#X connect 7 0 42 0;
#X connect 10 0 16 0;
#X connect 10 0 28 1;
#X connect 10 0 34 1;
#X connect 10 0 43 1;
#X connect 10 0 51 1;
#X connect 10 0 53 0;
#X connect 13 0 59 0;
#X connect 14 0 20 0;
#X connect 15 0 17 0;
#X connect 16 0 15 0;
#X connect 17 0 14 0;
#X connect 17 1 14 1;
#X connect 20 0 72 4;
#X connect 21 0 10 0;
#X connect 22 0 26 0;
#X connect 23 0 72 1;
#X connect 24 0 72 0;
#X connect 25 0 23 1;
#X connect 26 0 28 0;
#X connect 26 1 23 1;
#X connect 27 0 25 0;
#X connect 28 0 27 0;
#X connect 29 0 24 0;
#X connect 33 0 72 2;
#X connect 34 0 33 1;
#X connect 35 0 38 0;
#X connect 35 1 33 1;
#X connect 36 0 34 0;
#X connect 37 0 35 0;
#X connect 38 0 36 0;
#X connect 39 0 40 0;
#X connect 40 0 43 0;
#X connect 40 0 46 0;
#X connect 40 1 42 1;
#X connect 41 0 48 0;
#X connect 42 0 72 3;
#X connect 43 0 41 0;
#X connect 44 0 39 1;
#X connect 45 0 49 0;
#X connect 46 0 45 0;
#X connect 47 0 39 1;
#X connect 48 0 39 0;
#X connect 48 1 44 0;
#X connect 49 0 39 0;
#X connect 49 1 47 0;
#X connect 50 0 52 0;
#X connect 51 0 62 0;
#X connect 52 0 60 0;
#X connect 53 0 50 0;
#X connect 53 1 50 1;
#X connect 54 0 62 0;
#X connect 55 0 58 0;
#X connect 56 0 57 0;
#X connect 56 1 57 1;
#X connect 57 0 55 0;
#X connect 58 0 54 0;
#X connect 59 0 15 0;
#X connect 59 1 15 1;
#X connect 59 2 20 1;
#X connect 59 3 54 1;
#X connect 59 4 56 0;
#X connect 59 5 25 1;
#X connect 59 5 46 1;
#X connect 59 5 38 1;
#X connect 59 6 10 0;
#X connect 59 7 61 0;
#X connect 60 0 51 0;
#X connect 61 0 21 0;
#X connect 62 0 22 0;
#X connect 62 0 37 0;
#X connect 62 0 39 0;
#X connect 62 0 50 0;
#X connect 62 0 57 0;
#X connect 62 0 67 0;
#X connect 63 0 64 0;
#X connect 64 0 62 0;
#X connect 65 0 68 0;
#X connect 66 0 67 1;
#X connect 67 0 5 0;
#X connect 67 0 63 0;
#X connect 68 0 69 0;
#X connect 69 1 66 0;
#X connect 69 2 64 0;
#X connect 72 0 62 0;
#X coords 0 -1 1 1 134 48 2 300 200;
#X restore 452 151 pd ARGO;
#N canvas 286 45 728 239 ARGO 0;
#X obj 239 36 inlet~;
#X text 77 17 Left input;
#X text 224 17 Right input;
#X text 356 37 Stereo wav file format recorder;
#X text 356 52 Enregistreur de fichier audio wav à 2 canaux (stereo)
;
#X obj 88 36 inlet~;
#X obj 171 198 writesf~ 2;
#X text 356 67 L'extension .wav est ajoutée au nom du fichier automatiquement
;
#X obj 103 100 hsl 161 17 0 127 0 0 \$0-A \$0-B Record. 103 10 1 14
-261299 -261299 -1 0 1;
#X obj 255 101 cnv 4 10 4 empty empty empty 20 12 0 14 -1 -66577 0
;
#X obj 101 101 cnv 4 10 4 empty empty empty 20 12 0 14 -1 -66577 0
;
#X obj 112 100 nbx 4 17 0 9999 0 0 \$0-A ColorTime sec 59 9 1 15 -208064
-1 -1 0 256;
#X text 355 103 Clic n'importe où pour commencer un enregistrement
Audio -> Clic encore pour arrêter l'enregistrement;
#X text 456 130 Click anywhere to start recording Audio ->;
#X text 455 142 Click again to stop recording;
#X text 121 122 Hslider caché transformé en bouton;
#N canvas 415 66 351 399 record2 0;
#X obj 136 95 sel 0 1;
#X msg 171 260 start;
#X msg 107 259 stop;
#X msg 155 150 open \$1;
#X obj 155 126 savepanel;
#X obj 165 203 delay 1000;
#X obj 245 323 float;
#X obj 291 322 + 1;
#X obj 223 295 metro 1000;
#X msg 291 296 -1;
#X msg 11 257 0;
#X msg 42 257 1;
#X obj 66 210 t b b;
#X obj 165 229 t b b b b;
#N canvas 317 143 290 366 CouleurRecord2 0;
#X obj 122 -19 +;
#X obj 122 37 +;
#X obj 61 -75 * -65536;
#X obj 117 -75 * -256;
#X obj 163 -77 * -1;
#X obj 122 68 - 1;
#X obj 115 -202 inlet;
#X text 77 -97 R;
#X text 123 -99 G;
#X text 172 -98 B;
#X obj 122 123 outlet;
#X text 170 -169 Rouge;
#X msg 134 -121 255;
#X msg 167 -121 0;
#X obj 115 -178 sel 0 1;
#X text 56 -170 Rose;
#X msg 73 -121 200;
#X msg 40 -121 252;
#X obj 134 -148 t b b b;
#X msg 198 -121 0;
#X msg 104 -121 200;
#X obj 40 -148 t b b b;
#X msg 122 96 color \$1 \$1 -1;
#X connect 0 0 1 1;
#X connect 1 0 5 0;
#X connect 2 0 1 0;
#X connect 3 0 0 0;
#X connect 4 0 0 1;
#X connect 5 0 22 0;
#X connect 6 0 14 0;
#X connect 12 0 2 0;
#X connect 13 0 3 0;
#X connect 14 0 21 0;
#X connect 14 1 18 0;
#X connect 16 0 3 0;
#X connect 17 0 2 0;
#X connect 18 0 12 0;
#X connect 18 1 13 0;
#X connect 18 2 19 0;
#X connect 19 0 4 0;
#X connect 20 0 4 0;
#X connect 21 0 17 0;
#X connect 21 1 16 0;
#X connect 21 2 20 0;
#X connect 22 0 10 0;
#X restore 25 326 pd CouleurRecord2;
#X obj 136 75 tgl 15 0 \$0-A \$0-B empty 19 9 1 12 -262144 -258113
-1 0 1;
#X obj 136 30 b;
#X obj 136 52 delay 200;
#X obj 136 8 inlet;
#X obj 25 356 outlet;
#X text 22 372 Couleur;
#X obj 291 356 outlet;
#X text 288 372 Compteur;
#X obj 155 356 outlet;
#X text 152 372 writesf;
#X obj 199 176 t b b;
#X msg 72 33 0;
#X obj 72 8 loadbang;
#X msg 260 124 set 0;
#X msg 261 173 set 1;
#X obj 261 149 b;
#X connect 0 0 12 0;
#X connect 0 1 4 0;
#X connect 0 1 28 0;
#X connect 1 0 23 0;
#X connect 2 0 8 0;
#X connect 2 0 23 0;
#X connect 3 0 23 0;
#X connect 3 0 25 0;
#X connect 4 0 3 0;
#X connect 4 0 30 0;
#X connect 5 0 13 0;
#X connect 6 0 7 0;
#X connect 7 0 6 1;
#X connect 7 0 21 0;
#X connect 8 0 6 0;
#X connect 9 0 7 0;
#X connect 10 0 14 0;
#X connect 11 0 14 0;
#X connect 12 0 10 0;
#X connect 12 1 2 0;
#X connect 13 0 11 0;
#X connect 13 1 1 0;
#X connect 13 2 8 0;
#X connect 13 3 9 0;
#X connect 14 0 19 0;
#X connect 15 0 0 0;
#X connect 16 0 17 0;
#X connect 17 0 15 0;
#X connect 18 0 16 0;
#X connect 25 0 5 0;
#X connect 25 1 9 0;
#X connect 26 0 15 0;
#X connect 27 0 26 0;
#X connect 28 0 15 0;
#X connect 29 0 15 0;
#X connect 30 0 29 0;
#X restore 56 147 pd record2;
#X obj 636 186 cnv 15 42 25 empty empty empty 20 12 0 14 -24198 -66577
0;
#N canvas 336 174 309 137 ?. 0;
#X obj 3 83 cnv 15 300 46 empty empty empty 20 12 0 14 -224896 -66577
0;
#X obj 3 6 cnv 18 300 70 empty empty ARGOPdMiniModules 3 10 1 14 -4033
-1 1.04858e+06;
#X obj 26 26 cnv 10 10 10 empty empty Gerard 0 5 1 11 -4033 -1 1.04858e+06
;
#X obj 64 26 cnv 10 10 10 empty empty Paresys 0 5 1 11 -4033 -1 1.04858e+06
;
#X obj 7 37 pddp/pddplink http://gerard.paresys.free.fr/ARGOPd/;
#X text 8 85 Construit sous / Build under Pd 0.43.4-extended;
#X obj 8 111 pddp/pddplink http://puredata.info/downloads/pd-extended
;
#X obj 7 50 pddp/pddplink http://paresys.pagesperso-orange.fr/ARGOPd/
;
#X text 7 98 or Pd-0.46-7 + deken;
#X restore 640 190 pd ?.;
#X text 175 81 7 3 2016;
#X connect 0 0 6 1;
#X connect 5 0 6 0;
#X connect 8 0 16 0;
#X connect 16 0 8 0;
#X connect 16 1 6 0;
#X connect 16 2 11 0;
#X coords 0 -1 1 1 166 17 1 100 100;
#X restore 52 460 pd ARGO;
#N canvas 656 128 483 416 ARGO 0;
#X obj 101 101 cnv 20 104 34 empty ColorAmpli empty 20 12 0 14 -261299
-1 1.04858e+06;
#X obj 157 367 outlet~;
#X obj 152 106 cnv 10 20 10 empty ColorAmpli Ampli. 1 5 1 14 -261299
-1 1.04858e+06;
#X obj 85 49 inlet~;
#X obj 85 330 *~;
#X obj 101 101 cnv 4 10 4 empty empty empty 20 12 0 14 -1 -66577 0
;
#X obj 101 131 cnv 4 10 4 empty empty empty 20 12 0 14 -1 -66577 0
;
#X obj 195 101 cnv 4 10 4 empty empty empty 20 12 0 14 -1 -66577 0
;
#X obj 195 131 cnv 4 10 4 empty empty empty 20 12 0 14 -1 -66577 0
;
#X obj 211 49 inlet~;
#X obj 157 330 *~;
#X obj 296 367 outlet~;
#X obj 334 49 inlet~;
#X obj 334 330 *~;
#X obj 130 101 cnv 4 10 4 empty empty empty 20 12 0 14 -1 -66577 0
;
#X obj 286 49 inlet~;
#X obj 262 330 *~;
#X obj 163 101 cnv 4 10 4 empty empty empty 20 12 0 14 -1 -66577 0
;
#X obj 212 330 *~;
#X obj 296 330 *~;
#X obj 183 239 * 0.85;
#X obj 256 239 * 0.53;
#X text 77 386 0.85^2 + 0.53^2 = 0.72 + 0.28 = 1 environ;
#X obj 103 118 hsl 101 12 -80 20 0 1 \$0-A ColorAmpli 20dB 0 7 1 9
-261299 -1 -1 10000 0;
#X msg -43 158 label \$1;
#X text 106 168 -> 0.0001..10 = -80dB..20dB;
#X obj 100 149 expr (pow(10 \, $f1 / 20));
#X obj 100 187 sel 0.0001;
#X msg 100 212 0;
#X obj 100 290 line~;
#X obj 100 267 pack 0 10;
#X obj 255 290 line~;
#X obj 255 267 pack 0 10;
#X obj 183 290 line~;
#X obj 183 267 pack 0 10;
#X obj -43 97 cyclone/sprintf %ddB;
#X obj -43 132 cyclone/tosymbol;
#X obj 352 360 cnv 15 42 25 empty empty empty 20 12 0 14 -24198 -66577
0;
#N canvas 336 174 309 137 ?. 0;
#X obj 3 83 cnv 15 300 46 empty empty empty 20 12 0 14 -224896 -66577
0;
#X obj 3 6 cnv 18 300 70 empty empty ARGOPdMiniModules 3 10 1 14 -4033
-1 1.04858e+06;
#X obj 26 26 cnv 10 10 10 empty empty Gerard 0 5 1 11 -4033 -1 1.04858e+06
;
#X obj 64 26 cnv 10 10 10 empty empty Paresys 0 5 1 11 -4033 -1 1.04858e+06
;
#X obj 7 37 pddp/pddplink http://gerard.paresys.free.fr/ARGOPd/;
#X text 8 85 Construit sous / Build under Pd 0.43.4-extended;
#X obj 8 111 pddp/pddplink http://puredata.info/downloads/pd-extended
;
#X obj 7 50 pddp/pddplink http://paresys.pagesperso-orange.fr/ARGOPd/
;
#X text 7 98 or Pd-0.46-7 + deken;
#X restore 356 364 pd ?.;
#X text 127 79 17 3 2016;
#X connect 3 0 4 0;
#X connect 4 0 1 0;
#X connect 9 0 10 0;
#X connect 9 0 18 0;
#X connect 10 0 1 0;
#X connect 12 0 13 0;
#X connect 13 0 11 0;
#X connect 15 0 16 0;
#X connect 15 0 19 0;
#X connect 16 0 1 0;
#X connect 18 0 11 0;
#X connect 19 0 11 0;
#X connect 20 0 34 0;
#X connect 21 0 32 0;
#X connect 23 0 26 0;
#X connect 23 0 35 0;
#X connect 24 0 23 0;
#X connect 26 0 27 0;
#X connect 27 0 28 0;
#X connect 27 1 20 0;
#X connect 27 1 21 0;
#X connect 27 1 30 0;
#X connect 28 0 20 0;
#X connect 28 0 21 0;
#X connect 28 0 30 0;
#X connect 28 0 36 0;
#X connect 29 0 4 1;
#X connect 29 0 13 1;
#X connect 30 0 29 0;
#X connect 31 0 16 1;
#X connect 31 0 18 1;
#X connect 32 0 31 0;
#X connect 33 0 19 1;
#X connect 33 0 10 1;
#X connect 34 0 33 0;
#X connect 35 0 36 0;
#X connect 36 0 24 0;
#X coords 0 -1 1 1 106 36 1 100 100;
#X restore 238 348 pd ARGO;
#X obj 531 514 cnv 15 34 16 empty empty empty 20 12 0 14 -24198 -66577
0;
#N canvas 353 174 333 161 ?? 0;
#X obj 17 89 cnv 15 300 56 empty empty empty 20 12 0 14 -224896 -66577
0;
#X obj 17 12 cnv 18 300 70 empty empty ARGOPdMiniModules 3 10 1 14
-4033 -1 1.04858e+06;
#X obj 40 32 cnv 10 10 10 empty empty Gerard 0 5 1 11 -4033 -1 1.04858e+06
;
#X obj 78 32 cnv 10 10 10 empty empty Paresys 0 5 1 11 -4033 -1 1.04858e+06
;
#X obj 20 54 pddp/pddplink http://gerard.paresys.free.fr/ARGOPd/;
#X obj 22 126 pddp/pddplink http://puredata.info/downloads/pd-extended
;
#X obj 22 102 pddp/pddplink http://puredata.info/downloads/pure-data
;
#X text 22 90 Construit sous / Build under Pd-0.49...;
#X text 21 114 or Pd 0.43.4-extended;
#X obj 20 66 pddp/pddplink https://paresys.pagesperso-orange.fr/ARGOPd/
;
#X obj 20 42 pddp/pddplink https://github.com/gerardparesys/ARGOPd
;
#X restore 531 514 pd ??;
#N canvas 454 130 613 521 ARGO 0;
#X obj 300 492 outlet~;
#N canvas 499 145 264 245 Freq-v6 0;
#X obj 36 33 inlet;
#X obj 36 187 outlet;
#X text 33 204 Hslider;
#X text 31 12 Hslider;
#X obj 160 159 clip 0 20000;
#X obj 160 99 mtof;
#X obj 160 186 outlet;
#X text 157 204 Freq Hz;
#N canvas 220 243 560 338 pitchb-11-2010 0;
#X obj 81 124 mod 12;
#X obj 81 148 sel 0 1 2 3 4 5 6 7 8 9 10 11;
#X msg 257 183 A;
#X msg 311 183 B;
#X msg 203 183 G;
#X msg 14 183 C;
#X msg 68 183 D;
#X msg 122 183 E;
#X msg 149 183 F;
#X obj 215 14 inlet;
#X obj 388 127 div 12;
#X obj 215 92 t f f;
#X text 345 203 -> Numero de l'octave;
#X text 224 77 -> Numero MIDI de la note (69 = A3 = 440Hz);
#X msg 271 273 label \$1;
#X obj 271 296 outlet;
#X msg 41 183 Db;
#X msg 95 183 Eb;
#X msg 176 183 Gb;
#X msg 230 183 Ab;
#X msg 284 183 Bb;
#X text 380 91 (70 = A#3 = Bb3);
#X obj 271 251 symbol;
#X text 22 244 Impossible d'afficher # dans un label;
#X text 22 256 donc j'affiche b;
#X obj 215 64 int;
#X text 266 36 -> pour corriger certaines erreurs de calcul;
#X obj 388 156 - 12;
#X text 266 48 et le pb du passage a zero de mod 12;
#X obj 215 38 + 120.5;
#X obj 271 226 cyclone/sprintf %s%d;
#X connect 0 0 1 0;
#X connect 1 0 5 0;
#X connect 1 1 16 0;
#X connect 1 2 6 0;
#X connect 1 3 17 0;
#X connect 1 4 7 0;
#X connect 1 5 8 0;
#X connect 1 6 18 0;
#X connect 1 7 4 0;
#X connect 1 8 19 0;
#X connect 1 9 2 0;
#X connect 1 10 20 0;
#X connect 1 11 3 0;
#X connect 2 0 30 0;
#X connect 3 0 30 0;
#X connect 4 0 30 0;
#X connect 5 0 30 0;
#X connect 6 0 30 0;
#X connect 7 0 30 0;
#X connect 8 0 30 0;
#X connect 9 0 29 0;
#X connect 10 0 27 0;
#X connect 11 0 0 0;
#X connect 11 1 10 0;
#X connect 14 0 15 0;
#X connect 16 0 30 0;
#X connect 17 0 30 0;
#X connect 18 0 30 0;
#X connect 19 0 30 0;
#X connect 20 0 30 0;
#X connect 22 0 14 0;
#X connect 25 0 11 0;
#X connect 27 0 30 1;
#X connect 29 0 25 0;
#X connect 30 0 22 0;
#X restore 36 98 pd pitchb-11-2010;
#X connect 0 0 5 0;
#X connect 0 0 8 0;
#X connect 4 0 6 0;
#X connect 5 0 4 0;
#X connect 8 0 1 0;
#X restore 237 183 pd Freq-v6;
#X obj 301 101 cnv 6 132 61 empty ColorForm Synth7. 80 8 1 14 -262144
-1 1.04858e+06;
#X obj 300 101 bng 12 50 50 0 \$0-A \$0-B empty 14 6 1 9 -262144 -1
-1;
#X obj 301 101 cnv 4 10 4 empty empty empty 20 12 0 14 -260097 -66577
0;
#X obj 301 158 cnv 4 10 4 empty empty empty 20 12 0 14 -1 -66577 0
;
#X obj 404 14 loadbang;
#X obj 76 223 cnv 15 60 30 empty empty empty 20 12 0 14 -24198 -66577
0;
#N canvas 272 71 609 612 Help 0;
#X obj 10 216 cnv 15 550 160 empty empty empty 20 12 0 14 -224896 -66577
0;
#X text 188 330 If the sample rate of pd is set to 44100 \, files having
the sample rates of 44100 are correctly played \, other files will
be transposed.;
#X text 190 303 WARNING The sample rate of the output depends on the
system sample rate of pd:;
#X text 18 223 - ATTENTION Le taux d'échantillonnage de la lecture
du fichier dépends du taux d'échantillonnage de Pd.;
#X text 30 250 Si le taux d'échantillonnage de Pd est de 44100 (Menu
Preferences -> Audio Settings...) \, les fichiers échantillonnés à
44100 Hz sont lus correctement \, sinon ils sont transposés.;
#X obj 9 20 cnv 15 400 120 empty empty empty 20 12 0 14 -233017 -66577
0;
#X text 12 19 Citation;
#X text 8 -141 - Ne lit pas un fichier au format mp3 \, SoundDesigner
II (.SDII ou .SD2);
#X text 25 -70 error: soundfiler_read: x.aiff: unknown or bad header
format;
#X text 12 -46 Solution: ouvrir puis sauver le fichier au format aiff
avec Audacity;
#X text 11 -109 - Ne lit pas un fichier au format aiff "Entier petit
boutien" comme les pistes d'un CD Audio copiées avec le finder du Mac.
Les messages d'erreur s'affichent:;
#X text 25 -59 error: dsp: xxx.aiff: unknown or bad header format;
#X text 31 34 The soundfiler object reads and writes floating point
arrays to binary soundfiles which may contain 2 or 3 byte fixed point
or 4 byte floating point samples in wave \, aiff \, or next formats
(no floating point aiff \, though.). The number of channels of the
soundfile need not match the number of arrays given (extras are dropped
and unsupplied channels are zeroed out.);
#X obj 9 147 cnv 15 290 60 empty empty empty 20 12 0 14 -258113 -66577
0;
#X text 12 151 File < 4e+06 samples;
#X text 44 163 < 90 sec at 44100 samples/sec;
#X text 11 -197 - La lecture est déclenchée par la reception à l'entrée
d'un code MIDI de note.;
#X text 161 -159 C3 = 261.626 Hz;
#X text 8 -215 - lit un échantillon audio.;
#X text 24 -171 Code MIDI 60 = C3 = Do3 lit l'échantillon audio à sa
vitesse normale.;
#X text 16 -15 - Ouvre automatiquement le fichier Audio s'il se trouve
dans le même dossier que son patch.;
#X obj 10 384 cnv 15 580 150 empty empty empty 20 12 0 14 -258113 -66577
0;
#X text 12 506 4 Coller le MiniModule dans le patch;
#X text 12 480 2 Fermer le patch d'où il a été copié;
#X text 284 456 SOLUTION;
#X text 11 413 Ces MiniModules ne sont pas duplicables directement
;
#X text 332 413 These modules are not directly duplicable;
#X text 332 425 (by doing: Duplicate or Copy + Paste);
#X text 11 425 (en faisant: Duplicate ou Copier + Coller);
#X text 12 468 1 Copier le MiniModule;
#X text 332 468 1 Copy the MiniModule;
#X text 332 480 2 Close the patch where it was copied;
#X text 12 493 3 Ré-ouvrir le patch;
#X text 332 493 3 Re-open the patch;
#X text 332 506 4 Paste the MiniModule in the patch;
#X text 10 437 Cela peut crasher Pd...;
#X text 333 437 It is possible that this crash Pd ...;
#X text -1 -231 Synth6 = Synthétiseur 7 = Synthesizer 7;
#X restore 83 229 pd Help;
#N canvas 306 172 701 362 RenameArrays 0;
#X obj 133 38 realtime;
#X obj 133 62 * 100;
#X obj 133 85 int;
#X obj 111 266 pack s s;
#X msg 111 291 \; \$1 rename \$2;
#X msg 37 184 set \$1;
#X text 90 295 (1);
#X text 14 183 (2);
#X text 89 217 (3);
#X text 230 26 array -> Voir:;
#X text 230 39 Help Browser/2.control.examples/15.array.pd;
#X text 230 52 Help Browser/2.control.examples/16.more.arrays.pd;
#X text 230 64 Help Browser/5.reference/all_about_arrays.pd;
#X obj 80 330 outlet;
#X obj 179 10 inlet;
#X text 316 177 Démarrer en nommant les arrays (graph) A et B et en
mettant A et B dans (3);
#X text 312 128 SOLUTION:;
#X text 317 144 (1) Renommer les 2 arrays;
#X obj 34 329 outlet;
#X text 314 100 PROBLEME: Comment dupliquer un MiniModule comportant
un ou plusieurs arrays;
#X text 316 159 (2) Renommer le message qui renomme les 2 arrays;
#X obj 68 156 t a a b a;
#X msg 111 218 A341;
#N canvas 0 23 844 357 (subpatch) 0;
#X array A341 63744 float 2;
#X coords 0 0 63744 1 300 40 0;
#X restore 376 233 graph;
#X obj 111 240 cyclone/tosymbol;
#X obj 68 129 cyclone/tosymbol;
#X obj 68 107 cyclone/sprintf A%d;
#X connect 0 0 1 0;
#X connect 1 0 2 0;
#X connect 2 0 26 0;
#X connect 3 0 4 0;
#X connect 5 0 22 0;
#X connect 5 0 18 0;
#X connect 14 0 0 1;
#X connect 21 0 5 0;
#X connect 21 1 13 0;
#X connect 21 2 22 0;
#X connect 21 3 3 1;
#X connect 22 0 24 0;
#X connect 24 0 3 0;
#X connect 25 0 21 0;
#X connect 26 0 25 0;
#X restore 404 38 pd RenameArrays;
#N canvas 102 258 600 311 Open 0;
#X obj 243 268 soundfiler;
#X obj 240 63 openpanel;
#X obj 240 90 pack s s;
#X obj 241 14 inlet;
#X obj 192 14 inlet;
#X text 270 147 read -resize -> soundfiler clear save-in-patch flag
;
#X text 269 136 Problem;
#X obj 126 269 outlet;
#X obj 240 37 bang;
#X obj 92 89 bang;
#X msg 125 245 set \$1;
#X text 254 195 <- pour conserver le nom original du fichier ds le
MM;
#X msg 241 119 read -resize \$1 \$2;
#X msg 17 196 1.aiff;
#X msg 17 171 set \$1;
#X obj 127 90 zexy/list2symbol;
#X obj 124 220 zexy/list2symbol;
#X obj 16 219 zexy/list2symbol;
#X obj 126 118 ggee/stripdir;
#X connect 1 0 2 0;
#X connect 1 0 15 0;
#X connect 2 0 12 0;
#X connect 3 0 8 0;
#X connect 4 0 2 1;
#X connect 4 0 9 0;
#X connect 8 0 1 0;
#X connect 9 0 13 0;
#X connect 10 0 7 0;
#X connect 12 0 0 0;
#X connect 13 0 17 0;
#X connect 14 0 13 0;
#X connect 15 0 18 0;
#X connect 16 0 10 0;
#X connect 17 0 2 0;
#X connect 17 0 10 0;
#X connect 18 0 14 0;
#X connect 18 0 16 0;
#X restore 491 63 pd Open;
#X obj 59 5 cnv 15 280 45 empty empty empty 20 12 0 14 -261682 -66577
0;
#X text 436 130 <- Click the name to change;
#X obj 303 117 hsl 129 12 0 128 0 1 \$0-A ColorTime D1 0 7 1 9 -208064
-1 -1 3800 0;
#X obj 267 315 / 100;
#X msg 253 291 10000;
#X obj 267 268 t b f;
#X msg 437 304 1;
#X obj 300 444 tabread4~;
#X obj 299 362 t b f;
#X msg 251 388 4.41e+08;
#X obj 300 414 vline~;
#X text 124 339 C3 = MIDINote 60 = 261.626Hz;
#X obj 298 339 * 261626;
#X obj 367 444 vline~;
#X obj 300 469 *~;
#X text 181 19 0..127 = C-2..G8 ->;
#X text 235 33 ou Bang ->;
#X text 453 169 <- Anti-Clic 5 ms;
#X obj 266 242 float;
#X obj 403 171 delay 5;
#X msg 368 379 0 5;
#X obj 300 56 t b l;
#X obj 327 78 unpack 1 2;
#X obj 361 242 / 127;
#X obj 303 129 hsl 129 12 0 128 0 1 \$0-A ColorTime 46 0 7 1 9 -261234
-1 -1 4600 0;
#X msg 137 177 label \$1;
#X obj 366 293 *;
#X obj 361 267 t f f;
#X text 61 4 list NoteMIDI Velocity 0..127 0..127 ->;
#X text 111 19 ou NoteMIDI;
#X obj 300 21 inlet;
#X obj 404 378 float;
#X obj 403 194 t b b b;
#X text 182 126 Velocity 0..127 ->;
#X text 199 112 Pitch 0..127 ->;
#X obj 303 141 hsl 123 15 0 127 0 0 \$0-A \$0-B empty -2 -8 0 10 -262144
-262144 -1 0 1;
#X symbolatom 300 141 21 0 0 0 - - #0-A;
#X obj 136 155 cyclone/tosymbol;
#X text 440 105 1 2 2021;
#X obj 552 482 cnv 15 34 16 empty empty empty 20 12 0 14 -24198 -66577
0;
#N canvas 353 174 333 161 ?? 0;
#X obj 17 89 cnv 15 300 56 empty empty empty 20 12 0 14 -224896 -66577
0;
#X obj 17 12 cnv 18 300 70 empty empty ARGOPdMiniModules 3 10 1 14
-4033 -1 1.04858e+06;
#X obj 40 32 cnv 10 10 10 empty empty Gerard 0 5 1 11 -4033 -1 1.04858e+06
;
#X obj 78 32 cnv 10 10 10 empty empty Paresys 0 5 1 11 -4033 -1 1.04858e+06
;
#X obj 20 54 pddp/pddplink http://gerard.paresys.free.fr/ARGOPd/;
#X obj 22 126 pddp/pddplink http://puredata.info/downloads/pd-extended
;
#X obj 22 102 pddp/pddplink http://puredata.info/downloads/pure-data
;
#X text 22 90 Construit sous / Build under Pd-0.49...;
#X text 21 114 or Pd 0.43.4-extended;
#X obj 20 66 pddp/pddplink https://paresys.pagesperso-orange.fr/ARGOPd/
;
#X obj 20 42 pddp/pddplink https://github.com/gerardparesys/ARGOPd
;
#X restore 552 482 pd ??;
#X connect 1 0 13 0;
#X connect 1 1 29 1;
#X connect 3 0 30 0;
#X connect 3 0 31 0;
#X connect 6 0 9 0;
#X connect 9 0 18 0;
#X connect 9 1 10 0;
#X connect 10 0 47 0;
#X connect 13 0 1 0;
#X connect 14 0 23 0;
#X connect 15 0 14 0;
#X connect 16 0 15 0;
#X connect 16 1 14 1;
#X connect 17 0 21 0;
#X connect 18 0 25 0;
#X connect 19 0 20 0;
#X connect 19 1 21 1;
#X connect 20 0 21 0;
#X connect 21 0 18 0;
#X connect 23 0 19 0;
#X connect 24 0 25 1;
#X connect 25 0 0 0;
#X connect 29 0 16 0;
#X connect 30 0 43 0;
#X connect 31 0 24 0;
#X connect 32 0 3 0;
#X connect 32 1 33 0;
#X connect 33 0 13 0;
#X connect 33 1 35 0;
#X connect 34 0 38 0;
#X connect 35 0 34 0;
#X connect 35 0 48 0;
#X connect 36 0 35 0;
#X connect 37 0 42 1;
#X connect 38 0 37 0;
#X connect 38 1 37 1;
#X connect 41 0 32 0;
#X connect 42 0 24 0;
#X connect 43 0 42 0;
#X connect 43 1 29 0;
#X connect 43 2 17 0;
#X connect 46 0 10 1;
#X connect 48 0 36 0;
#X coords 0 -1 1 1 134 63 1 300 100;
#X restore 21 255 pd ARGO;
#N canvas 454 130 613 521 ARGO 0;
#X obj 300 492 outlet~;
#N canvas 499 145 264 245 Freq-v6 0;
#X obj 36 33 inlet;
#X obj 36 187 outlet;
#X text 33 204 Hslider;
#X text 31 12 Hslider;
#X obj 160 159 clip 0 20000;
#X obj 160 99 mtof;
#X obj 160 186 outlet;
#X text 157 204 Freq Hz;
#N canvas 220 243 560 338 pitchb-11-2010 0;
#X obj 81 124 mod 12;
#X obj 81 148 sel 0 1 2 3 4 5 6 7 8 9 10 11;
#X msg 257 183 A;
#X msg 311 183 B;
#X msg 203 183 G;
#X msg 14 183 C;
#X msg 68 183 D;
#X msg 122 183 E;
#X msg 149 183 F;
#X obj 215 14 inlet;
#X obj 388 127 div 12;
#X obj 215 92 t f f;
#X text 345 203 -> Numero de l'octave;
#X text 224 77 -> Numero MIDI de la note (69 = A3 = 440Hz);
#X msg 271 273 label \$1;
#X obj 271 296 outlet;
#X msg 41 183 Db;
#X msg 95 183 Eb;
#X msg 176 183 Gb;
#X msg 230 183 Ab;
#X msg 284 183 Bb;
#X text 380 91 (70 = A#3 = Bb3);
#X obj 271 251 symbol;
#X text 22 244 Impossible d'afficher # dans un label;
#X text 22 256 donc j'affiche b;
#X obj 215 64 int;
#X text 266 36 -> pour corriger certaines erreurs de calcul;
#X obj 388 156 - 12;
#X text 266 48 et le pb du passage a zero de mod 12;
#X obj 215 38 + 120.5;
#X obj 271 226 cyclone/sprintf %s%d;
#X connect 0 0 1 0;
#X connect 1 0 5 0;
#X connect 1 1 16 0;
#X connect 1 2 6 0;
#X connect 1 3 17 0;
#X connect 1 4 7 0;
#X connect 1 5 8 0;
#X connect 1 6 18 0;
#X connect 1 7 4 0;
#X connect 1 8 19 0;
#X connect 1 9 2 0;
#X connect 1 10 20 0;
#X connect 1 11 3 0;
#X connect 2 0 30 0;
#X connect 3 0 30 0;
#X connect 4 0 30 0;
#X connect 5 0 30 0;
#X connect 6 0 30 0;
#X connect 7 0 30 0;
#X connect 8 0 30 0;
#X connect 9 0 29 0;
#X connect 10 0 27 0;
#X connect 11 0 0 0;
#X connect 11 1 10 0;
#X connect 14 0 15 0;
#X connect 16 0 30 0;
#X connect 17 0 30 0;
#X connect 18 0 30 0;
#X connect 19 0 30 0;
#X connect 20 0 30 0;
#X connect 22 0 14 0;
#X connect 25 0 11 0;
#X connect 27 0 30 1;
#X connect 29 0 25 0;
#X connect 30 0 22 0;
#X restore 36 98 pd pitchb-11-2010;
#X connect 0 0 5 0;
#X connect 0 0 8 0;
#X connect 4 0 6 0;
#X connect 5 0 4 0;
#X connect 8 0 1 0;
#X restore 237 183 pd Freq-v6;
#X obj 301 101 cnv 6 132 61 empty ColorForm Synth7. 80 8 1 14 -262144
-1 1.04858e+06;
#X obj 300 101 bng 12 50 50 0 \$0-A \$0-B empty 14 6 1 9 -262144 -1
-1;
#X obj 301 101 cnv 4 10 4 empty empty empty 20 12 0 14 -260097 -66577
0;
#X obj 301 158 cnv 4 10 4 empty empty empty 20 12 0 14 -1 -66577 0
;
#X obj 404 14 loadbang;
#X obj 76 223 cnv 15 60 30 empty empty empty 20 12 0 14 -24198 -66577
0;
#N canvas 272 71 609 612 Help 0;
#X obj 10 216 cnv 15 550 160 empty empty empty 20 12 0 14 -224896 -66577
0;
#X text 188 330 If the sample rate of pd is set to 44100 \, files having
the sample rates of 44100 are correctly played \, other files will
be transposed.;
#X text 190 303 WARNING The sample rate of the output depends on the
system sample rate of pd:;
#X text 18 223 - ATTENTION Le taux d'échantillonnage de la lecture
du fichier dépends du taux d'échantillonnage de Pd.;
#X text 30 250 Si le taux d'échantillonnage de Pd est de 44100 (Menu
Preferences -> Audio Settings...) \, les fichiers échantillonnés à
44100 Hz sont lus correctement \, sinon ils sont transposés.;
#X obj 9 20 cnv 15 400 120 empty empty empty 20 12 0 14 -233017 -66577
0;
#X text 12 19 Citation;
#X text 8 -141 - Ne lit pas un fichier au format mp3 \, SoundDesigner
II (.SDII ou .SD2);
#X text 25 -70 error: soundfiler_read: x.aiff: unknown or bad header
format;
#X text 12 -46 Solution: ouvrir puis sauver le fichier au format aiff
avec Audacity;
#X text 11 -109 - Ne lit pas un fichier au format aiff "Entier petit
boutien" comme les pistes d'un CD Audio copiées avec le finder du Mac.
Les messages d'erreur s'affichent:;
#X text 25 -59 error: dsp: xxx.aiff: unknown or bad header format;
#X text 31 34 The soundfiler object reads and writes floating point
arrays to binary soundfiles which may contain 2 or 3 byte fixed point
or 4 byte floating point samples in wave \, aiff \, or next formats
(no floating point aiff \, though.). The number of channels of the
soundfile need not match the number of arrays given (extras are dropped
and unsupplied channels are zeroed out.);
#X obj 9 147 cnv 15 290 60 empty empty empty 20 12 0 14 -258113 -66577
0;
#X text 12 151 File < 4e+06 samples;
#X text 44 163 < 90 sec at 44100 samples/sec;
#X text 11 -197 - La lecture est déclenchée par la reception à l'entrée
d'un code MIDI de note.;
#X text 161 -159 C3 = 261.626 Hz;
#X text 8 -215 - lit un échantillon audio.;
#X text 24 -171 Code MIDI 60 = C3 = Do3 lit l'échantillon audio à sa
vitesse normale.;
#X text 16 -15 - Ouvre automatiquement le fichier Audio s'il se trouve
dans le même dossier que son patch.;
#X obj 10 384 cnv 15 580 150 empty empty empty 20 12 0 14 -258113 -66577
0;
#X text 12 506 4 Coller le MiniModule dans le patch;
#X text 12 480 2 Fermer le patch d'où il a été copié;
#X text 284 456 SOLUTION;
#X text 11 413 Ces MiniModules ne sont pas duplicables directement
;
#X text 332 413 These modules are not directly duplicable;
#X text 332 425 (by doing: Duplicate or Copy + Paste);
#X text 11 425 (en faisant: Duplicate ou Copier + Coller);
#X text 12 468 1 Copier le MiniModule;
#X text 332 468 1 Copy the MiniModule;
#X text 332 480 2 Close the patch where it was copied;
#X text 12 493 3 Ré-ouvrir le patch;
#X text 332 493 3 Re-open the patch;
#X text 332 506 4 Paste the MiniModule in the patch;
#X text 10 437 Cela peut crasher Pd...;
#X text 333 437 It is possible that this crash Pd ...;
#X text -1 -231 Synth6 = Synthétiseur 7 = Synthesizer 7;
#X restore 83 229 pd Help;
#N canvas 306 172 701 362 RenameArrays 0;
#X obj 133 38 realtime;
#X obj 133 62 * 100;
#X obj 133 85 int;
#X obj 111 266 pack s s;
#X msg 111 291 \; \$1 rename \$2;
#X msg 37 184 set \$1;
#X text 90 295 (1);
#X text 14 183 (2);
#X text 89 217 (3);
#X text 230 26 array -> Voir:;
#X text 230 39 Help Browser/2.control.examples/15.array.pd;
#X text 230 52 Help Browser/2.control.examples/16.more.arrays.pd;
#X text 230 64 Help Browser/5.reference/all_about_arrays.pd;
#X obj 80 330 outlet;
#X obj 179 10 inlet;
#X text 316 177 Démarrer en nommant les arrays (graph) A et B et en
mettant A et B dans (3);
#X text 312 128 SOLUTION:;
#X text 317 144 (1) Renommer les 2 arrays;
#X obj 34 329 outlet;
#X text 314 100 PROBLEME: Comment dupliquer un MiniModule comportant
un ou plusieurs arrays;
#X text 316 159 (2) Renommer le message qui renomme les 2 arrays;
#X obj 68 156 t a a b a;
#X msg 111 218 A384;
#N canvas 0 22 844 357 (subpatch) 0;
#X array A384 63744 float 2;
#X coords 0 0 63744 1 300 40 0;
#X restore 376 233 graph;
#X obj 111 240 cyclone/tosymbol;
#X obj 68 129 cyclone/tosymbol;
#X obj 68 107 cyclone/sprintf A%d;
#X connect 0 0 1 0;
#X connect 1 0 2 0;
#X connect 2 0 26 0;
#X connect 3 0 4 0;
#X connect 5 0 22 0;
#X connect 5 0 18 0;
#X connect 14 0 0 1;
#X connect 21 0 5 0;
#X connect 21 1 13 0;
#X connect 21 2 22 0;
#X connect 21 3 3 1;
#X connect 22 0 24 0;
#X connect 24 0 3 0;
#X connect 25 0 21 0;
#X connect 26 0 25 0;
#X restore 404 38 pd RenameArrays;
#N canvas 102 258 600 311 Open 0;
#X obj 243 268 soundfiler;
#X obj 240 63 openpanel;
#X obj 240 90 pack s s;
#X obj 241 14 inlet;
#X obj 192 14 inlet;
#X text 270 147 read -resize -> soundfiler clear save-in-patch flag
;
#X text 269 136 Problem;
#X obj 126 269 outlet;
#X obj 240 37 bang;
#X obj 92 89 bang;
#X msg 125 245 set \$1;
#X text 254 195 <- pour conserver le nom original du fichier ds le
MM;
#X msg 241 119 read -resize \$1 \$2;
#X msg 17 196 1.aiff;
#X msg 17 171 set \$1;
#X obj 127 90 zexy/list2symbol;
#X obj 124 220 zexy/list2symbol;
#X obj 16 219 zexy/list2symbol;
#X obj 126 118 ggee/stripdir;
#X connect 1 0 2 0;
#X connect 1 0 15 0;
#X connect 2 0 12 0;
#X connect 3 0 8 0;
#X connect 4 0 2 1;
#X connect 4 0 9 0;
#X connect 8 0 1 0;
#X connect 9 0 13 0;
#X connect 10 0 7 0;
#X connect 12 0 0 0;
#X connect 13 0 17 0;
#X connect 14 0 13 0;
#X connect 15 0 18 0;
#X connect 16 0 10 0;
#X connect 17 0 2 0;
#X connect 17 0 10 0;
#X connect 18 0 14 0;
#X connect 18 0 16 0;
#X restore 491 63 pd Open;
#X obj 59 5 cnv 15 280 45 empty empty empty 20 12 0 14 -261682 -66577
0;
#X text 436 130 <- Click the name to change;
#X obj 303 117 hsl 129 12 0 128 0 1 \$0-A ColorTime Bb2 0 7 1 9 -208064
-1 -1 5800 0;
#X obj 267 315 / 100;
#X msg 253 291 10000;
#X obj 267 268 t b f;
#X msg 437 304 1;
#X obj 300 444 tabread4~;
#X obj 299 362 t b f;
#X msg 251 388 4.41e+08;
#X obj 300 414 vline~;
#X text 124 339 C3 = MIDINote 60 = 261.626Hz;
#X obj 298 339 * 261626;
#X obj 367 444 vline~;
#X obj 300 469 *~;
#X text 181 19 0..127 = C-2..G8 ->;
#X text 235 33 ou Bang ->;
#X text 453 169 <- Anti-Clic 5 ms;
#X obj 266 242 float;
#X obj 403 171 delay 5;
#X msg 368 379 0 5;
#X obj 300 56 t b l;
#X obj 327 78 unpack 1 2;
#X obj 361 242 / 127;
#X obj 303 129 hsl 129 12 0 128 0 1 \$0-A ColorTime 26 0 7 1 9 -261234
-1 -1 2600 0;
#X msg 137 177 label \$1;
#X obj 366 293 *;
#X obj 361 267 t f f;
#X text 61 4 list NoteMIDI Velocity 0..127 0..127 ->;
#X text 111 19 ou NoteMIDI;
#X obj 300 21 inlet;
#X obj 404 378 float;
#X obj 403 194 t b b b;
#X text 182 126 Velocity 0..127 ->;
#X text 199 112 Pitch 0..127 ->;
#X obj 303 141 hsl 123 15 0 127 0 0 \$0-A \$0-B empty -2 -8 0 10 -262144
-262144 -1 0 1;
#X symbolatom 300 141 21 0 0 0 - - #0-A;
#X obj 136 155 cyclone/tosymbol;
#X text 440 105 1 2 2021;
#X obj 552 482 cnv 15 34 16 empty empty empty 20 12 0 14 -24198 -66577
0;
#N canvas 353 174 333 161 ?? 0;
#X obj 17 89 cnv 15 300 56 empty empty empty 20 12 0 14 -224896 -66577
0;
#X obj 17 12 cnv 18 300 70 empty empty ARGOPdMiniModules 3 10 1 14
-4033 -1 1.04858e+06;
#X obj 40 32 cnv 10 10 10 empty empty Gerard 0 5 1 11 -4033 -1 1.04858e+06
;
#X obj 78 32 cnv 10 10 10 empty empty Paresys 0 5 1 11 -4033 -1 1.04858e+06
;
#X obj 20 54 pddp/pddplink http://gerard.paresys.free.fr/ARGOPd/;
#X obj 22 126 pddp/pddplink http://puredata.info/downloads/pd-extended
;
#X obj 22 102 pddp/pddplink http://puredata.info/downloads/pure-data
;
#X text 22 90 Construit sous / Build under Pd-0.49...;
#X text 21 114 or Pd 0.43.4-extended;
#X obj 20 66 pddp/pddplink https://paresys.pagesperso-orange.fr/ARGOPd/
;
#X obj 20 42 pddp/pddplink https://github.com/gerardparesys/ARGOPd
;
#X restore 552 482 pd ??;
#X connect 1 0 13 0;
#X connect 1 1 29 1;
#X connect 3 0 30 0;
#X connect 3 0 31 0;
#X connect 6 0 9 0;
#X connect 9 0 18 0;
#X connect 9 1 10 0;
#X connect 10 0 47 0;
#X connect 13 0 1 0;
#X connect 14 0 23 0;
#X connect 15 0 14 0;
#X connect 16 0 15 0;
#X connect 16 1 14 1;
#X connect 17 0 21 0;
#X connect 18 0 25 0;
#X connect 19 0 20 0;
#X connect 19 1 21 1;
#X connect 20 0 21 0;
#X connect 21 0 18 0;
#X connect 23 0 19 0;
#X connect 24 0 25 1;
#X connect 25 0 0 0;
#X connect 29 0 16 0;
#X connect 30 0 43 0;
#X connect 31 0 24 0;
#X connect 32 0 3 0;
#X connect 32 1 33 0;
#X connect 33 0 13 0;
#X connect 33 1 35 0;
#X connect 34 0 38 0;
#X connect 35 0 34 0;
#X connect 35 0 48 0;
#X connect 36 0 35 0;
#X connect 37 0 42 1;
#X connect 38 0 37 0;
#X connect 38 1 37 1;
#X connect 41 0 32 0;
#X connect 42 0 24 0;
#X connect 43 0 42 0;
#X connect 43 1 29 0;
#X connect 43 2 17 0;
#X connect 46 0 10 1;
#X connect 48 0 36 0;
#X coords 0 -1 1 1 134 63 1 300 100;
#X restore 162 255 pd ARGO;
#N canvas 454 130 613 521 ARGO 0;
#X obj 300 492 outlet~;
#N canvas 499 145 264 245 Freq-v6 0;
#X obj 36 33 inlet;
#X obj 36 187 outlet;
#X text 33 204 Hslider;
#X text 31 12 Hslider;
#X obj 160 159 clip 0 20000;
#X obj 160 99 mtof;
#X obj 160 186 outlet;
#X text 157 204 Freq Hz;
#N canvas 220 243 560 338 pitchb-11-2010 0;
#X obj 81 124 mod 12;
#X obj 81 148 sel 0 1 2 3 4 5 6 7 8 9 10 11;
#X msg 257 183 A;
#X msg 311 183 B;
#X msg 203 183 G;
#X msg 14 183 C;
#X msg 68 183 D;
#X msg 122 183 E;
#X msg 149 183 F;
#X obj 215 14 inlet;
#X obj 388 127 div 12;
#X obj 215 92 t f f;
#X text 345 203 -> Numero de l'octave;
#X text 224 77 -> Numero MIDI de la note (69 = A3 = 440Hz);
#X msg 271 273 label \$1;
#X obj 271 296 outlet;
#X msg 41 183 Db;
#X msg 95 183 Eb;
#X msg 176 183 Gb;
#X msg 230 183 Ab;
#X msg 284 183 Bb;
#X text 380 91 (70 = A#3 = Bb3);
#X obj 271 251 symbol;
#X text 22 244 Impossible d'afficher # dans un label;
#X text 22 256 donc j'affiche b;
#X obj 215 64 int;
#X text 266 36 -> pour corriger certaines erreurs de calcul;
#X obj 388 156 - 12;
#X text 266 48 et le pb du passage a zero de mod 12;
#X obj 215 38 + 120.5;
#X obj 271 226 cyclone/sprintf %s%d;
#X connect 0 0 1 0;
#X connect 1 0 5 0;
#X connect 1 1 16 0;
#X connect 1 2 6 0;
#X connect 1 3 17 0;
#X connect 1 4 7 0;
#X connect 1 5 8 0;
#X connect 1 6 18 0;
#X connect 1 7 4 0;
#X connect 1 8 19 0;
#X connect 1 9 2 0;
#X connect 1 10 20 0;
#X connect 1 11 3 0;
#X connect 2 0 30 0;
#X connect 3 0 30 0;
#X connect 4 0 30 0;
#X connect 5 0 30 0;
#X connect 6 0 30 0;
#X connect 7 0 30 0;
#X connect 8 0 30 0;
#X connect 9 0 29 0;
#X connect 10 0 27 0;
#X connect 11 0 0 0;
#X connect 11 1 10 0;
#X connect 14 0 15 0;
#X connect 16 0 30 0;
#X connect 17 0 30 0;
#X connect 18 0 30 0;
#X connect 19 0 30 0;
#X connect 20 0 30 0;
#X connect 22 0 14 0;
#X connect 25 0 11 0;
#X connect 27 0 30 1;
#X connect 29 0 25 0;
#X connect 30 0 22 0;
#X restore 36 98 pd pitchb-11-2010;
#X connect 0 0 5 0;
#X connect 0 0 8 0;
#X connect 4 0 6 0;
#X connect 5 0 4 0;
#X connect 8 0 1 0;
#X restore 237 183 pd Freq-v6;
#X obj 301 101 cnv 6 132 61 empty ColorForm Synth7. 80 8 1 14 -262144
-1 1.04858e+06;
#X obj 300 101 bng 12 50 50 0 \$0-A \$0-B empty 14 6 1 9 -262144 -1
-1;
#X obj 301 101 cnv 4 10 4 empty empty empty 20 12 0 14 -260097 -66577
0;
#X obj 301 158 cnv 4 10 4 empty empty empty 20 12 0 14 -1 -66577 0
;
#X obj 404 14 loadbang;
#X obj 76 223 cnv 15 60 30 empty empty empty 20 12 0 14 -24198 -66577
0;
#N canvas 272 71 609 612 Help 0;
#X obj 10 216 cnv 15 550 160 empty empty empty 20 12 0 14 -224896 -66577
0;
#X text 188 330 If the sample rate of pd is set to 44100 \, files having
the sample rates of 44100 are correctly played \, other files will
be transposed.;
#X text 190 303 WARNING The sample rate of the output depends on the
system sample rate of pd:;
#X text 18 223 - ATTENTION Le taux d'échantillonnage de la lecture
du fichier dépends du taux d'échantillonnage de Pd.;
#X text 30 250 Si le taux d'échantillonnage de Pd est de 44100 (Menu
Preferences -> Audio Settings...) \, les fichiers échantillonnés à
44100 Hz sont lus correctement \, sinon ils sont transposés.;
#X obj 9 20 cnv 15 400 120 empty empty empty 20 12 0 14 -233017 -66577
0;
#X text 12 19 Citation;
#X text 8 -141 - Ne lit pas un fichier au format mp3 \, SoundDesigner
II (.SDII ou .SD2);
#X text 25 -70 error: soundfiler_read: x.aiff: unknown or bad header
format;
#X text 12 -46 Solution: ouvrir puis sauver le fichier au format aiff
avec Audacity;
#X text 11 -109 - Ne lit pas un fichier au format aiff "Entier petit
boutien" comme les pistes d'un CD Audio copiées avec le finder du Mac.
Les messages d'erreur s'affichent:;
#X text 25 -59 error: dsp: xxx.aiff: unknown or bad header format;
#X text 31 34 The soundfiler object reads and writes floating point
arrays to binary soundfiles which may contain 2 or 3 byte fixed point
or 4 byte floating point samples in wave \, aiff \, or next formats
(no floating point aiff \, though.). The number of channels of the
soundfile need not match the number of arrays given (extras are dropped
and unsupplied channels are zeroed out.);
#X obj 9 147 cnv 15 290 60 empty empty empty 20 12 0 14 -258113 -66577
0;
#X text 12 151 File < 4e+06 samples;
#X text 44 163 < 90 sec at 44100 samples/sec;
#X text 11 -197 - La lecture est déclenchée par la reception à l'entrée
d'un code MIDI de note.;
#X text 161 -159 C3 = 261.626 Hz;
#X text 8 -215 - lit un échantillon audio.;
#X text 24 -171 Code MIDI 60 = C3 = Do3 lit l'échantillon audio à sa
vitesse normale.;
#X text 16 -15 - Ouvre automatiquement le fichier Audio s'il se trouve
dans le même dossier que son patch.;
#X obj 10 384 cnv 15 580 150 empty empty empty 20 12 0 14 -258113 -66577
0;
#X text 12 506 4 Coller le MiniModule dans le patch;
#X text 12 480 2 Fermer le patch d'où il a été copié;
#X text 284 456 SOLUTION;
#X text 11 413 Ces MiniModules ne sont pas duplicables directement
;
#X text 332 413 These modules are not directly duplicable;
#X text 332 425 (by doing: Duplicate or Copy + Paste);
#X text 11 425 (en faisant: Duplicate ou Copier + Coller);
#X text 12 468 1 Copier le MiniModule;
#X text 332 468 1 Copy the MiniModule;
#X text 332 480 2 Close the patch where it was copied;
#X text 12 493 3 Ré-ouvrir le patch;
#X text 332 493 3 Re-open the patch;
#X text 332 506 4 Paste the MiniModule in the patch;
#X text 10 437 Cela peut crasher Pd...;
#X text 333 437 It is possible that this crash Pd ...;
#X text -1 -231 Synth6 = Synthétiseur 7 = Synthesizer 7;
#X restore 83 229 pd Help;
#N canvas 306 172 701 362 RenameArrays 0;
#X obj 133 38 realtime;
#X obj 133 62 * 100;
#X obj 133 85 int;
#X obj 111 266 pack s s;
#X msg 111 291 \; \$1 rename \$2;
#X msg 37 184 set \$1;
#X text 90 295 (1);
#X text 14 183 (2);
#X text 89 217 (3);
#X text 230 26 array -> Voir:;
#X text 230 39 Help Browser/2.control.examples/15.array.pd;
#X text 230 52 Help Browser/2.control.examples/16.more.arrays.pd;
#X text 230 64 Help Browser/5.reference/all_about_arrays.pd;
#X obj 80 330 outlet;
#X obj 179 10 inlet;
#X text 316 177 Démarrer en nommant les arrays (graph) A et B et en
mettant A et B dans (3);
#X text 312 128 SOLUTION:;
#X text 317 144 (1) Renommer les 2 arrays;
#X obj 34 329 outlet;
#X text 314 100 PROBLEME: Comment dupliquer un MiniModule comportant
un ou plusieurs arrays;
#X text 316 159 (2) Renommer le message qui renomme les 2 arrays;
#X obj 68 156 t a a b a;
#X msg 111 218 A332;
#N canvas 0 23 844 357 (subpatch) 0;
#X array A332 63744 float 2;
#X coords 0 0 63744 1 300 40 0;
#X restore 376 233 graph;
#X obj 111 240 cyclone/tosymbol;
#X obj 68 129 cyclone/tosymbol;
#X obj 68 107 cyclone/sprintf A%d;
#X connect 0 0 1 0;
#X connect 1 0 2 0;
#X connect 2 0 26 0;
#X connect 3 0 4 0;
#X connect 5 0 22 0;
#X connect 5 0 18 0;
#X connect 14 0 0 1;
#X connect 21 0 5 0;
#X connect 21 1 13 0;
#X connect 21 2 22 0;
#X connect 21 3 3 1;
#X connect 22 0 24 0;
#X connect 24 0 3 0;
#X connect 25 0 21 0;
#X connect 26 0 25 0;
#X restore 404 38 pd RenameArrays;
#N canvas 102 258 600 311 Open 0;
#X obj 243 268 soundfiler;
#X obj 240 63 openpanel;
#X obj 240 90 pack s s;
#X obj 241 14 inlet;
#X obj 192 14 inlet;
#X text 270 147 read -resize -> soundfiler clear save-in-patch flag
;
#X text 269 136 Problem;
#X obj 126 269 outlet;
#X obj 240 37 bang;
#X obj 92 89 bang;
#X msg 125 245 set \$1;
#X text 254 195 <- pour conserver le nom original du fichier ds le
MM;
#X msg 241 119 read -resize \$1 \$2;
#X msg 17 196 1.aiff;
#X msg 17 171 set \$1;
#X obj 127 90 zexy/list2symbol;
#X obj 124 220 zexy/list2symbol;
#X obj 16 219 zexy/list2symbol;
#X obj 126 118 ggee/stripdir;
#X connect 1 0 2 0;
#X connect 1 0 15 0;
#X connect 2 0 12 0;
#X connect 3 0 8 0;
#X connect 4 0 2 1;
#X connect 4 0 9 0;
#X connect 8 0 1 0;
#X connect 9 0 13 0;
#X connect 10 0 7 0;
#X connect 12 0 0 0;
#X connect 13 0 17 0;
#X connect 14 0 13 0;
#X connect 15 0 18 0;
#X connect 16 0 10 0;
#X connect 17 0 2 0;
#X connect 17 0 10 0;
#X connect 18 0 14 0;
#X connect 18 0 16 0;
#X restore 491 63 pd Open;
#X obj 59 5 cnv 15 280 45 empty empty empty 20 12 0 14 -261682 -66577
0;
#X text 436 130 <- Click the name to change;
#X obj 303 117 hsl 129 12 0 128 0 1 \$0-A ColorTime Bb3 0 7 1 9 -208064
-1 -1 7000 0;
#X obj 267 315 / 100;
#X msg 253 291 10000;
#X obj 267 268 t b f;
#X msg 437 304 1;
#X obj 300 444 tabread4~;
#X obj 299 362 t b f;
#X msg 251 388 4.41e+08;
#X obj 300 414 vline~;
#X text 124 339 C3 = MIDINote 60 = 261.626Hz;
#X obj 298 339 * 261626;
#X obj 367 444 vline~;
#X obj 300 469 *~;
#X text 181 19 0..127 = C-2..G8 ->;
#X text 235 33 ou Bang ->;
#X text 453 169 <- Anti-Clic 5 ms;
#X obj 266 242 float;
#X obj 403 171 delay 5;
#X msg 368 379 0 5;
#X obj 300 56 t b l;
#X obj 327 78 unpack 1 2;
#X obj 361 242 / 127;
#X obj 303 129 hsl 129 12 0 128 0 1 \$0-A ColorTime 14 0 7 1 9 -261234
-1 -1 1400 0;
#X msg 137 177 label \$1;
#X obj 366 293 *;
#X obj 361 267 t f f;
#X text 61 4 list NoteMIDI Velocity 0..127 0..127 ->;
#X text 111 19 ou NoteMIDI;
#X obj 300 21 inlet;
#X obj 404 378 float;
#X obj 403 194 t b b b;
#X text 182 126 Velocity 0..127 ->;
#X text 199 112 Pitch 0..127 ->;
#X obj 303 141 hsl 123 15 0 127 0 0 \$0-A \$0-B empty -2 -8 0 10 -262144
-262144 -1 0 1;
#X symbolatom 300 141 21 0 0 0 - - #0-A;
#X obj 136 155 cyclone/tosymbol;
#X text 440 105 1 2 2021;
#X obj 552 482 cnv 15 34 16 empty empty empty 20 12 0 14 -24198 -66577
0;
#N canvas 353 174 333 161 ?? 0;
#X obj 17 89 cnv 15 300 56 empty empty empty 20 12 0 14 -224896 -66577
0;
#X obj 17 12 cnv 18 300 70 empty empty ARGOPdMiniModules 3 10 1 14
-4033 -1 1.04858e+06;
#X obj 40 32 cnv 10 10 10 empty empty Gerard 0 5 1 11 -4033 -1 1.04858e+06
;
#X obj 78 32 cnv 10 10 10 empty empty Paresys 0 5 1 11 -4033 -1 1.04858e+06
;
#X obj 20 54 pddp/pddplink http://gerard.paresys.free.fr/ARGOPd/;
#X obj 22 126 pddp/pddplink http://puredata.info/downloads/pd-extended
;
#X obj 22 102 pddp/pddplink http://puredata.info/downloads/pure-data
;
#X text 22 90 Construit sous / Build under Pd-0.49...;
#X text 21 114 or Pd 0.43.4-extended;
#X obj 20 66 pddp/pddplink https://paresys.pagesperso-orange.fr/ARGOPd/
;
#X obj 20 42 pddp/pddplink https://github.com/gerardparesys/ARGOPd
;
#X restore 552 482 pd ??;
#X connect 1 0 13 0;
#X connect 1 1 29 1;
#X connect 3 0 30 0;
#X connect 3 0 31 0;
#X connect 6 0 9 0;
#X connect 9 0 18 0;
#X connect 9 1 10 0;
#X connect 10 0 47 0;
#X connect 13 0 1 0;
#X connect 14 0 23 0;
#X connect 15 0 14 0;
#X connect 16 0 15 0;
#X connect 16 1 14 1;
#X connect 17 0 21 0;
#X connect 18 0 25 0;
#X connect 19 0 20 0;
#X connect 19 1 21 1;
#X connect 20 0 21 0;
#X connect 21 0 18 0;
#X connect 23 0 19 0;
#X connect 24 0 25 1;
#X connect 25 0 0 0;
#X connect 29 0 16 0;
#X connect 30 0 43 0;
#X connect 31 0 24 0;
#X connect 32 0 3 0;
#X connect 32 1 33 0;
#X connect 33 0 13 0;
#X connect 33 1 35 0;
#X connect 34 0 38 0;
#X connect 35 0 34 0;
#X connect 35 0 48 0;
#X connect 36 0 35 0;
#X connect 37 0 42 1;
#X connect 38 0 37 0;
#X connect 38 1 37 1;
#X connect 41 0 32 0;
#X connect 42 0 24 0;
#X connect 43 0 42 0;
#X connect 43 1 29 0;
#X connect 43 2 17 0;
#X connect 46 0 10 1;
#X connect 48 0 36 0;
#X coords 0 -1 1 1 134 63 1 300 100;
#X restore 306 255 pd ARGO;
#N canvas 454 130 613 521 ARGO 0;
#X obj 300 492 outlet~;
#N canvas 499 145 264 245 Freq-v6 0;
#X obj 36 33 inlet;
#X obj 36 187 outlet;
#X text 33 204 Hslider;
#X text 31 12 Hslider;
#X obj 160 159 clip 0 20000;
#X obj 160 99 mtof;
#X obj 160 186 outlet;
#X text 157 204 Freq Hz;
#N canvas 220 243 560 338 pitchb-11-2010 0;
#X obj 81 124 mod 12;
#X obj 81 148 sel 0 1 2 3 4 5 6 7 8 9 10 11;
#X msg 257 183 A;
#X msg 311 183 B;
#X msg 203 183 G;
#X msg 14 183 C;
#X msg 68 183 D;
#X msg 122 183 E;
#X msg 149 183 F;
#X obj 215 14 inlet;
#X obj 388 127 div 12;
#X obj 215 92 t f f;
#X text 345 203 -> Numero de l'octave;
#X text 224 77 -> Numero MIDI de la note (69 = A3 = 440Hz);
#X msg 271 273 label \$1;
#X obj 271 296 outlet;
#X msg 41 183 Db;
#X msg 95 183 Eb;
#X msg 176 183 Gb;
#X msg 230 183 Ab;
#X msg 284 183 Bb;
#X text 380 91 (70 = A#3 = Bb3);
#X obj 271 251 symbol;
#X text 22 244 Impossible d'afficher # dans un label;
#X text 22 256 donc j'affiche b;
#X obj 215 64 int;
#X text 266 36 -> pour corriger certaines erreurs de calcul;
#X obj 388 156 - 12;
#X text 266 48 et le pb du passage a zero de mod 12;
#X obj 215 38 + 120.5;
#X obj 271 226 cyclone/sprintf %s%d;
#X connect 0 0 1 0;
#X connect 1 0 5 0;
#X connect 1 1 16 0;
#X connect 1 2 6 0;
#X connect 1 3 17 0;
#X connect 1 4 7 0;
#X connect 1 5 8 0;
#X connect 1 6 18 0;
#X connect 1 7 4 0;
#X connect 1 8 19 0;
#X connect 1 9 2 0;
#X connect 1 10 20 0;
#X connect 1 11 3 0;
#X connect 2 0 30 0;
#X connect 3 0 30 0;
#X connect 4 0 30 0;
#X connect 5 0 30 0;
#X connect 6 0 30 0;
#X connect 7 0 30 0;
#X connect 8 0 30 0;
#X connect 9 0 29 0;
#X connect 10 0 27 0;
#X connect 11 0 0 0;
#X connect 11 1 10 0;
#X connect 14 0 15 0;
#X connect 16 0 30 0;
#X connect 17 0 30 0;
#X connect 18 0 30 0;
#X connect 19 0 30 0;
#X connect 20 0 30 0;
#X connect 22 0 14 0;
#X connect 25 0 11 0;
#X connect 27 0 30 1;
#X connect 29 0 25 0;
#X connect 30 0 22 0;
#X restore 36 98 pd pitchb-11-2010;
#X connect 0 0 5 0;
#X connect 0 0 8 0;
#X connect 4 0 6 0;
#X connect 5 0 4 0;
#X connect 8 0 1 0;
#X restore 237 183 pd Freq-v6;
#X obj 301 101 cnv 6 132 61 empty ColorForm Synth7. 80 8 1 14 -262144
-1 1.04858e+06;
#X obj 300 101 bng 12 50 50 0 \$0-A \$0-B empty 14 6 1 9 -262144 -1
-1;
#X obj 301 101 cnv 4 10 4 empty empty empty 20 12 0 14 -260097 -66577
0;
#X obj 301 158 cnv 4 10 4 empty empty empty 20 12 0 14 -1 -66577 0
;
#X obj 404 14 loadbang;
#X obj 76 223 cnv 15 60 30 empty empty empty 20 12 0 14 -24198 -66577
0;
#N canvas 272 71 609 612 Help 0;
#X obj 10 216 cnv 15 550 160 empty empty empty 20 12 0 14 -224896 -66577
0;
#X text 188 330 If the sample rate of pd is set to 44100 \, files having
the sample rates of 44100 are correctly played \, other files will
be transposed.;
#X text 190 303 WARNING The sample rate of the output depends on the
system sample rate of pd:;
#X text 18 223 - ATTENTION Le taux d'échantillonnage de la lecture
du fichier dépends du taux d'échantillonnage de Pd.;
#X text 30 250 Si le taux d'échantillonnage de Pd est de 44100 (Menu
Preferences -> Audio Settings...) \, les fichiers échantillonnés à
44100 Hz sont lus correctement \, sinon ils sont transposés.;
#X obj 9 20 cnv 15 400 120 empty empty empty 20 12 0 14 -233017 -66577
0;
#X text 12 19 Citation;
#X text 8 -141 - Ne lit pas un fichier au format mp3 \, SoundDesigner
II (.SDII ou .SD2);
#X text 25 -70 error: soundfiler_read: x.aiff: unknown or bad header
format;
#X text 12 -46 Solution: ouvrir puis sauver le fichier au format aiff
avec Audacity;
#X text 11 -109 - Ne lit pas un fichier au format aiff "Entier petit
boutien" comme les pistes d'un CD Audio copiées avec le finder du Mac.
Les messages d'erreur s'affichent:;
#X text 25 -59 error: dsp: xxx.aiff: unknown or bad header format;
#X text 31 34 The soundfiler object reads and writes floating point
arrays to binary soundfiles which may contain 2 or 3 byte fixed point
or 4 byte floating point samples in wave \, aiff \, or next formats
(no floating point aiff \, though.). The number of channels of the
soundfile need not match the number of arrays given (extras are dropped
and unsupplied channels are zeroed out.);
#X obj 9 147 cnv 15 290 60 empty empty empty 20 12 0 14 -258113 -66577
0;
#X text 12 151 File < 4e+06 samples;
#X text 44 163 < 90 sec at 44100 samples/sec;
#X text 11 -197 - La lecture est déclenchée par la reception à l'entrée
d'un code MIDI de note.;
#X text 161 -159 C3 = 261.626 Hz;
#X text 8 -215 - lit un échantillon audio.;
#X text 24 -171 Code MIDI 60 = C3 = Do3 lit l'échantillon audio à sa
vitesse normale.;
#X text 16 -15 - Ouvre automatiquement le fichier Audio s'il se trouve
dans le même dossier que son patch.;
#X obj 10 384 cnv 15 580 150 empty empty empty 20 12 0 14 -258113 -66577
0;
#X text 12 506 4 Coller le MiniModule dans le patch;
#X text 12 480 2 Fermer le patch d'où il a été copié;
#X text 284 456 SOLUTION;
#X text 11 413 Ces MiniModules ne sont pas duplicables directement
;
#X text 332 413 These modules are not directly duplicable;
#X text 332 425 (by doing: Duplicate or Copy + Paste);
#X text 11 425 (en faisant: Duplicate ou Copier + Coller);
#X text 12 468 1 Copier le MiniModule;
#X text 332 468 1 Copy the MiniModule;
#X text 332 480 2 Close the patch where it was copied;
#X text 12 493 3 Ré-ouvrir le patch;
#X text 332 493 3 Re-open the patch;
#X text 332 506 4 Paste the MiniModule in the patch;
#X text 10 437 Cela peut crasher Pd...;
#X text 333 437 It is possible that this crash Pd ...;
#X text -1 -231 Synth6 = Synthétiseur 7 = Synthesizer 7;
#X restore 83 229 pd Help;
#N canvas 306 172 701 362 RenameArrays 0;
#X obj 133 38 realtime;
#X obj 133 62 * 100;
#X obj 133 85 int;
#X obj 111 266 pack s s;
#X msg 111 291 \; \$1 rename \$2;
#X msg 37 184 set \$1;
#X text 90 295 (1);
#X text 14 183 (2);
#X text 89 217 (3);
#X text 230 26 array -> Voir:;
#X text 230 39 Help Browser/2.control.examples/15.array.pd;
#X text 230 52 Help Browser/2.control.examples/16.more.arrays.pd;
#X text 230 64 Help Browser/5.reference/all_about_arrays.pd;
#X obj 80 330 outlet;
#X obj 179 10 inlet;
#X text 316 177 Démarrer en nommant les arrays (graph) A et B et en
mettant A et B dans (3);
#X text 312 128 SOLUTION:;
#X text 317 144 (1) Renommer les 2 arrays;
#X obj 34 329 outlet;
#X text 314 100 PROBLEME: Comment dupliquer un MiniModule comportant
un ou plusieurs arrays;
#X text 316 159 (2) Renommer le message qui renomme les 2 arrays;
#X obj 68 156 t a a b a;
#X msg 111 218 A278;
#N canvas 0 22 844 357 (subpatch) 0;
#X array A278 63744 float 2;
#X coords 0 0 63744 1 300 40 0;
#X restore 376 233 graph;
#X obj 111 240 cyclone/tosymbol;
#X obj 68 129 cyclone/tosymbol;
#X obj 68 107 cyclone/sprintf A%d;
#X connect 0 0 1 0;
#X connect 1 0 2 0;
#X connect 2 0 26 0;
#X connect 3 0 4 0;
#X connect 5 0 22 0;
#X connect 5 0 18 0;
#X connect 14 0 0 1;
#X connect 21 0 5 0;
#X connect 21 1 13 0;
#X connect 21 2 22 0;
#X connect 21 3 3 1;
#X connect 22 0 24 0;
#X connect 24 0 3 0;
#X connect 25 0 21 0;
#X connect 26 0 25 0;
#X restore 404 38 pd RenameArrays;
#N canvas 102 258 600 311 Open 0;
#X obj 243 268 soundfiler;
#X obj 240 63 openpanel;
#X obj 240 90 pack s s;
#X obj 241 14 inlet;
#X obj 192 14 inlet;
#X text 270 147 read -resize -> soundfiler clear save-in-patch flag
;
#X text 269 136 Problem;
#X obj 126 269 outlet;
#X obj 240 37 bang;
#X obj 92 89 bang;
#X msg 125 245 set \$1;
#X text 254 195 <- pour conserver le nom original du fichier ds le
MM;
#X msg 241 119 read -resize \$1 \$2;
#X msg 17 196 1.aiff;
#X msg 17 171 set \$1;
#X obj 127 90 zexy/list2symbol;
#X obj 124 220 zexy/list2symbol;
#X obj 16 219 zexy/list2symbol;
#X obj 126 118 ggee/stripdir;
#X connect 1 0 2 0;
#X connect 1 0 15 0;
#X connect 2 0 12 0;
#X connect 3 0 8 0;
#X connect 4 0 2 1;
#X connect 4 0 9 0;
#X connect 8 0 1 0;
#X connect 9 0 13 0;
#X connect 10 0 7 0;
#X connect 12 0 0 0;
#X connect 13 0 17 0;
#X connect 14 0 13 0;
#X connect 15 0 18 0;
#X connect 16 0 10 0;
#X connect 17 0 2 0;
#X connect 17 0 10 0;
#X connect 18 0 14 0;
#X connect 18 0 16 0;
#X restore 491 63 pd Open;
#X obj 59 5 cnv 15 280 45 empty empty empty 20 12 0 14 -261682 -66577
0;
#X text 436 130 <- Click the name to change;
#X obj 303 117 hsl 129 12 0 128 0 1 \$0-A ColorTime C2 0 7 1 9 -208064
-1 -1 4800 0;
#X obj 267 315 / 100;
#X msg 253 291 10000;
#X obj 267 268 t b f;
#X msg 437 304 1;
#X obj 300 444 tabread4~;
#X obj 299 362 t b f;
#X msg 251 388 4.41e+08;
#X obj 300 414 vline~;
#X text 124 339 C3 = MIDINote 60 = 261.626Hz;
#X obj 298 339 * 261626;
#X obj 367 444 vline~;
#X obj 300 469 *~;
#X text 181 19 0..127 = C-2..G8 ->;
#X text 235 33 ou Bang ->;
#X text 453 169 <- Anti-Clic 5 ms;
#X obj 266 242 float;
#X obj 403 171 delay 5;
#X msg 368 379 0 5;
#X obj 300 56 t b l;
#X obj 327 78 unpack 1 2;
#X obj 361 242 / 127;
#X obj 303 129 hsl 129 12 0 128 0 1 \$0-A ColorTime 36 0 7 1 9 -261234
-1 -1 3600 0;
#X msg 137 177 label \$1;
#X obj 366 293 *;
#X obj 361 267 t f f;
#X text 61 4 list NoteMIDI Velocity 0..127 0..127 ->;
#X text 111 19 ou NoteMIDI;
#X obj 300 21 inlet;
#X obj 404 378 float;
#X obj 403 194 t b b b;
#X text 182 126 Velocity 0..127 ->;
#X text 199 112 Pitch 0..127 ->;
#X obj 303 141 hsl 123 15 0 127 0 0 \$0-A \$0-B empty -2 -8 0 10 -262144
-262144 -1 0 1;
#X symbolatom 300 141 21 0 0 0 - - #0-A;
#X obj 136 155 cyclone/tosymbol;
#X text 440 105 1 2 2021;
#X obj 552 482 cnv 15 34 16 empty empty empty 20 12 0 14 -24198 -66577
0;
#N canvas 353 174 333 161 ?? 0;
#X obj 17 89 cnv 15 300 56 empty empty empty 20 12 0 14 -224896 -66577
0;
#X obj 17 12 cnv 18 300 70 empty empty ARGOPdMiniModules 3 10 1 14
-4033 -1 1.04858e+06;
#X obj 40 32 cnv 10 10 10 empty empty Gerard 0 5 1 11 -4033 -1 1.04858e+06
;
#X obj 78 32 cnv 10 10 10 empty empty Paresys 0 5 1 11 -4033 -1 1.04858e+06
;
#X obj 20 54 pddp/pddplink http://gerard.paresys.free.fr/ARGOPd/;
#X obj 22 126 pddp/pddplink http://puredata.info/downloads/pd-extended
;
#X obj 22 102 pddp/pddplink http://puredata.info/downloads/pure-data
;
#X text 22 90 Construit sous / Build under Pd-0.49...;
#X text 21 114 or Pd 0.43.4-extended;
#X obj 20 66 pddp/pddplink https://paresys.pagesperso-orange.fr/ARGOPd/
;
#X obj 20 42 pddp/pddplink https://github.com/gerardparesys/ARGOPd
;
#X restore 552 482 pd ??;
#X connect 1 0 13 0;
#X connect 1 1 29 1;
#X connect 3 0 30 0;
#X connect 3 0 31 0;
#X connect 6 0 9 0;
#X connect 9 0 18 0;
#X connect 9 1 10 0;
#X connect 10 0 47 0;
#X connect 13 0 1 0;
#X connect 14 0 23 0;
#X connect 15 0 14 0;
#X connect 16 0 15 0;
#X connect 16 1 14 1;
#X connect 17 0 21 0;
#X connect 18 0 25 0;
#X connect 19 0 20 0;
#X connect 19 1 21 1;
#X connect 20 0 21 0;
#X connect 21 0 18 0;
#X connect 23 0 19 0;
#X connect 24 0 25 1;
#X connect 25 0 0 0;
#X connect 29 0 16 0;
#X connect 30 0 43 0;
#X connect 31 0 24 0;
#X connect 32 0 3 0;
#X connect 32 1 33 0;
#X connect 33 0 13 0;
#X connect 33 1 35 0;
#X connect 34 0 38 0;
#X connect 35 0 34 0;
#X connect 35 0 48 0;
#X connect 36 0 35 0;
#X connect 37 0 42 1;
#X connect 38 0 37 0;
#X connect 38 1 37 1;
#X connect 41 0 32 0;
#X connect 42 0 24 0;
#X connect 43 0 42 0;
#X connect 43 1 29 0;
#X connect 43 2 17 0;
#X connect 46 0 10 1;
#X connect 48 0 36 0;
#X coords 0 -1 1 1 134 63 1 300 100;
#X restore 452 253 pd ARGO;
#X connect 5 0 4 0;
#X connect 13 0 26 0;
#X connect 13 1 27 0;
#X connect 13 2 28 0;
#X connect 13 3 29 0;
#X connect 14 0 37 0;
#X connect 15 0 14 1;
#X connect 16 0 36 0;
#X connect 17 0 16 1;
#X connect 18 0 35 0;
#X connect 19 0 18 1;
#X connect 20 0 34 0;
#X connect 21 0 20 1;
#X connect 24 0 25 0;
#X connect 25 0 13 0;
#X connect 26 0 20 0;
#X connect 26 0 21 0;
#X connect 27 0 18 0;
#X connect 27 0 19 0;
#X connect 28 0 16 0;
#X connect 28 0 17 0;
#X connect 29 0 14 0;
#X connect 29 0 15 0;
#X connect 31 0 0 0;
#X connect 31 0 23 0;
#X connect 31 0 30 0;
#X connect 31 1 0 1;
#X connect 31 1 23 1;
#X connect 31 1 30 1;
#X connect 34 0 31 0;
#X connect 35 0 31 2;
#X connect 36 0 31 1;
#X connect 37 0 31 3;
