#N canvas 309 23 579 213 10;
#X obj 178 183 dac~;
#X obj 29 80 switch~;
#N canvas 608 166 228 173 ARGOnOff 0;
#X obj 100 100 tgl 18 1 \$0-SendOnOff \$0-ReceiveOnOff On/Off 20 11
1 14 -4033 -1 -1 1 1;
#X obj 99 10 loadbang;
#X msg 99 33 \; pd dsp 1;
#X obj 100 129 outlet;
#X text -50 99 Audio On/Off du patch ->;
#X text -22 45 Audio General On ->;
#X text 107 82 17 3 2010;
#X connect 0 0 3 0;
#X connect 1 0 2 0;
#X coords 0 -1 1 1 65 18 2 100 100;
#X restore 29 62 pd ARGOnOff;
#X text 266 99 Lit des fichiers wav ou aiff dont les noms sont:;
#X text 266 112 1.aiff \, 2 aiff...x.aiff;
#X text 267 124 ou:;
#X text 267 135 1.wav \, 2.wav... x.wav;
#X text 21 26 On/Off patch;
#X text 33 44 V;
#X text 33 37 |;
#X text 32 145 Niveau general ->;
#X text 38 155 General level ->;
#X obj 10 9 cnv 15 15 15 empty empty ExMM60a-JukeBox1.pd 0 8 1 14 -262144
-1 0;
#N canvas 191 160 611 376 ARGO 0;
#X obj 330 103 cnv 10 20 10 empty empty JukeBox1. 1 5 1 14 -262144
-1 1.04858e+06;
#X obj 101 125 cnv 4 10 4 empty empty empty 20 12 0 14 -1 -66577 0
;
#X obj 97 318 outlet~;
#X obj 122 100 tgl 12 1 \$0-A \$0-B Play 15 8 1 12 -262144 -1 -1 1
1;
#X obj 162 318 outlet~;
#X obj 243 125 cnv 4 10 4 empty empty empty 20 12 0 14 -1 -66577 0
;
#X obj 100 100 bng 12 250 50 0 \$0-A \$0-B empty 14 6 1 9 -262144 -1
-1;
#X obj 425 113 cnv 15 60 30 empty empty empty 20 12 0 14 -24198 -66577
0;
#N canvas 392 50 574 648 Help 0;
#X obj 6 321 cnv 15 400 100 empty empty empty 20 12 0 14 -233017 -66577
0;
#X text 9 320 Citation;
#X obj 6 430 cnv 15 550 200 empty empty empty 20 12 0 14 -258113 -66577
0;
#X text 25 266 error: soundfiler_read: x.aiff: unknown or bad header
format;
#X text 12 290 Solution: ouvrir puis sauver le fichier au format aiff
avec Audacity;
#X text 11 227 - Ne lit pas un fichier au format aiff "Entier petit
boutien" comme les pistes d'un CD Audio copiées avec le finder du Mac.
Les messages d'erreur s'affichent:;
#X text 25 277 error: dsp: xxx.aiff: unknown or bad header format;
#X text 28 336 READSF~ - read a soundfile;
#X text 27 354 The wave \, aiff \, and nextstep formats are parsed
automatically \, although only 2- 3- and 4- byte samples are accepted
(4 bytes implies floating point and is not available in aiff format.)
;
#X text 20 595 Erreur dans la fenêtre Pd:;
#X text 184 548 If the sample rate of pd is set to 44100 \, files having
the sample rates of 44100 are correctly played \, other files will
be transposed.;
#X text 186 521 WARNING The sample rate of the output depends on the
system sample rate of pd:;
#X text 14 437 - ATTENTION Le taux d'échantillonnage de la lecture
du fichier dépends du taux d'échantillonnage de Pd.;
#X text 26 464 Si le taux d'échantillonnage de Pd est de 44100 (Menu
Preferences -> Audio Settings...) \, les fichiers échantillonnés à
44100 Hz sont lus correctement \, sinon ils sont transposés.;
#X text 25 36 1.aiff \, 2 aiff...x.aiff;
#X text 26 59 1.wav \, 2.wav... x.wav;
#X text 6 8 JukeBox1;
#X text 26 47 ou:;
#X text 6 22 - Lit des fichiers wav ou aiff dont les noms sont:;
#X text 26 74 Les fichiers doivent etre situés dans le meme dossier
que le patch contenant le MiniModule;
#X text 26 134 Les canaux 3 \, 4... d'un fichier Audio de plus de 2
canaux ne sont pas lus.;
#X text 26 120 Le canal d'un fichier Audio Mono est lu sur la sortie
gauche;
#X text 14 106 - Lit un fichier Audio Stereo (2 canaux).;
#X text 208 182 Channels 3 \, 4... of an Audio file of more than 2
channels are not read.;
#X text 208 168 A Mono Audio file is read on the left output.;
#X text 209 153 Reads an Stereo Audio file (2 channels).;
#X restore 432 120 pd Help;
#X obj 101 101 cnv 4 10 4 empty empty empty 20 12 0 14 -260097 -66577
0;
#X obj 388 118 bng 12 250 50 0 \$0-A \$0-B empty 14 6 1 9 -262144 -1
-1;
#X obj 389 125 cnv 4 10 4 empty empty empty 20 12 0 14 -260097 -66577
0;
#X obj 94 23 cnv 15 400 24 empty empty empty 20 12 0 14 -261682 -66577
0;
#X obj 96 27 inlet;
#X obj 218 313 cnv 15 240 24 empty empty empty 20 12 0 14 -261682 -66577
0;
#X text 268 311 -> Bang à la fin du fichier;
#X text 269 321 -> Bang at the end of the file;
#X obj 223 318 outlet;
#X text 133 21 <- N'importe quel message déclenche la lecture du fichier
;
#X text 134 31 <- Anything message trigs the reading of the file;
#X obj 294 118 nbx 3 12 1 999 0 1 \$0-A \$0-B Maxi 42 6 1 12 -262144
-1 -1 4 256;
#X msg 70 255 1;
#X msg 129 256 0;
#X msg 12 255 open \$1;
#X obj 129 285 readsf~ 2;
#X obj 4 209 makefilename %d.wav;
#X obj 279 198 random 10;
#X obj 224 176 + 1;
#X obj 209 229 int;
#X obj 224 199 mod 100;
#X obj 70 232 delay 10;
#X obj 210 100 hradio 12 1 1 4 \$0-A \$0-B Random 50 8 1 12 -262144
-1 -1 3;
#N canvas 316 301 516 192 Choix------- 0;
#X obj 23 18 inlet;
#X obj 167 149 outlet;
#X obj 302 149 outlet;
#X msg 22 110 label 1x;
#X msg 88 110 label Loop;
#X msg 167 110 label +1;
#X obj 23 50 sel 0 1 2 3;
#X msg 229 110 label Random;
#X obj 348 149 outlet;
#X obj 394 149 outlet;
#X obj 439 149 outlet;
#X obj 377 18 inlet;
#X obj 377 50 int;
#X obj 376 75 sel 0 1 2 3;
#X obj 347 18 bng 15 250 50 0 empty empty empty 17 7 0 10 -262144 -1
-1;
#X connect 0 0 6 0;
#X connect 0 0 12 1;
#X connect 3 0 1 0;
#X connect 4 0 1 0;
#X connect 5 0 1 0;
#X connect 6 0 3 0;
#X connect 6 1 4 0;
#X connect 6 2 5 0;
#X connect 6 3 7 0;
#X connect 7 0 1 0;
#X connect 11 0 12 0;
#X connect 12 0 13 0;
#X connect 13 0 2 0;
#X connect 13 1 8 0;
#X connect 13 2 9 0;
#X connect 13 3 10 0;
#X connect 14 0 12 0;
#X restore 176 146 pd Choix-------;
#X obj 129 208 sel 0 1;
#X msg 122 60 1;
#X msg 156 61 0;
#X obj 101 112 nbx 3 12 1 999 0 1 \$0-A \$0-B FileName 42 8 1 12 -262144
-1 -1 3 256;
#X obj 299 151 + 1;
#X obj -17 185 makefilename %d.aiff;
#X obj 234 112 hradio 12 1 1 2 \$0-A \$0-B wav 28 8 1 12 -262144 -1
-1 1;
#N canvas 395 304 192 159 Choix------- 0;
#X obj 48 2 inlet;
#X obj 91 124 outlet;
#X msg 47 94 label aiff;
#X msg 117 94 label wav;
#X obj 48 34 sel 0 1;
#X connect 0 0 4 0;
#X connect 2 0 1 0;
#X connect 3 0 1 0;
#X connect 4 0 2 0;
#X connect 4 1 3 0;
#X restore 209 75 pd Choix-------;
#X obj -40 164 + 1;
#X obj -4 27 loadbang;
#X obj -4 49 delay 1000;
#X obj 120 168 int;
#X obj -21 135 t b f f f;
#X obj -40 234 cyclone/switch 2;
#X text 344 80 22 8 2019;
#X obj 465 314 cnv 15 52 22 empty empty empty 20 12 0 14 -24198 -66577
0;
#N canvas 353 174 321 152 ?... 0;
#X obj 8 84 cnv 15 300 56 empty empty empty 20 12 0 14 -224896 -66577
0;
#X obj 8 7 cnv 18 300 70 empty empty ARGOPdMiniModules 3 10 1 14 -4033
-1 1.04858e+06;
#X obj 31 27 cnv 10 10 10 empty empty Gerard 0 5 1 11 -4033 -1 1.04858e+06
;
#X obj 69 27 cnv 10 10 10 empty empty Paresys 0 5 1 11 -4033 -1 1.04858e+06
;
#X obj 12 40 pddp/pddplink http://gerard.paresys.free.fr/ARGOPd/;
#X obj 13 121 pddp/pddplink http://puredata.info/downloads/pd-extended
;
#X obj 13 97 pddp/pddplink http://puredata.info/downloads/pure-data
;
#X text 13 85 Construit sous / Build under Pd-0.49...;
#X text 12 109 or Pd 0.43.4-extended;
#X obj 12 53 pddp/pddplink https://paresys.pagesperso-orange.fr/ARGOPd/
;
#X restore 468 317 pd ?...;
#X connect 3 0 44 0;
#X connect 6 0 34 0;
#X connect 10 0 17 0;
#X connect 10 0 32 1;
#X connect 13 0 6 0;
#X connect 20 0 37 0;
#X connect 21 0 24 0;
#X connect 22 0 24 0;
#X connect 23 0 24 0;
#X connect 24 0 2 0;
#X connect 24 1 4 0;
#X connect 24 2 10 0;
#X connect 25 0 46 2;
#X connect 26 0 36 0;
#X connect 27 0 29 0;
#X connect 28 0 36 0;
#X connect 29 0 28 1;
#X connect 30 0 21 0;
#X connect 31 0 32 0;
#X connect 32 0 31 0;
#X connect 32 1 35 0;
#X connect 32 2 34 0;
#X connect 32 3 28 0;
#X connect 32 4 26 0;
#X connect 33 0 22 0;
#X connect 33 1 36 0;
#X connect 34 0 3 0;
#X connect 35 0 3 0;
#X connect 36 0 45 0;
#X connect 37 0 26 1;
#X connect 37 0 29 1;
#X connect 38 0 46 1;
#X connect 39 0 40 0;
#X connect 39 0 41 0;
#X connect 40 0 39 0;
#X connect 41 0 46 0;
#X connect 42 0 43 0;
#X connect 43 0 44 0;
#X connect 44 0 33 0;
#X connect 45 0 30 0;
#X connect 45 1 38 0;
#X connect 45 2 25 0;
#X connect 45 3 27 0;
#X connect 46 0 23 0;
#X coords 0 -1 1 1 300 30 2 100 100;
#X restore 111 62 pd ARGO;
#N canvas 512 67 385 401 ARGO 0;
#X obj 101 101 cnv 20 116 34 empty ColorAmpli empty 20 12 0 14 -261299
-1 1.04858e+06;
#X obj 85 353 outlet~;
#X obj 157 104 cnv 10 20 10 empty ColorAmpli Ampli. 1 5 1 14 -261299
-1 1.04858e+06;
#X obj 85 43 inlet~;
#X obj 85 330 *~;
#X obj 115 118 hsl 101 12 -80 20 0 1 \$0-A ColorAmpli -2dB 0 7 1 9
-261299 -1 -1 7800 0;
#X obj 101 101 cnv 4 10 4 empty empty empty 20 12 0 14 -1 -66577 0
;
#X obj 101 131 cnv 4 10 4 empty empty empty 20 12 0 14 -1 -66577 0
;
#X obj 207 101 cnv 4 10 4 empty empty empty 20 12 0 14 -1 -66577 0
;
#X obj 207 131 cnv 4 10 4 empty empty empty 20 12 0 14 -1 -66577 0
;
#X obj 222 352 outlet~;
#X obj 222 42 inlet~;
#X obj 222 329 *~;
#X msg -42 138 label \$1;
#X text 148 194 -> 0.0001..10 = -80dB..20dB;
#X obj 142 175 expr (pow(10 \, $f1 / 20));
#X obj 142 215 sel 0.0001;
#X msg 100 244 0;
#X obj 100 118 tgl 12 1 \$0-A \$0-B Mute 2 -5 1 9 -261299 -1 -1 0 1
;
#X obj 99 146 select 0 1;
#X obj 140 295 line~;
#X obj 140 275 pack 0 10;
#X msg 123 74 set 0;
#X obj -42 92 cyclone/sprintf %ddB;
#X text 228 110 6 3 2016;
#X obj -42 115 cyclone/tosymbol;
#X obj 273 344 cnv 15 42 25 empty empty empty 20 12 0 14 -24198 -66577
0;
#N canvas 336 174 309 137 ?. 0;
#X obj 3 83 cnv 15 300 46 empty empty empty 20 12 0 14 -224896 -66577
0;
#X obj 3 6 cnv 18 300 70 empty empty ARGOPdMiniModules 3 10 1 14 -4033
-1 1.04858e+06;
#X obj 26 26 cnv 10 10 10 empty empty Gerard 0 5 1 11 -4033 -1 1.04858e+06
;
#X obj 64 26 cnv 10 10 10 empty empty Paresys 0 5 1 11 -4033 -1 1.04858e+06
;
#X obj 7 37 pddp/pddplink http://gerard.paresys.free.fr/ARGOPd/;
#X text 8 85 Construit sous / Build under Pd 0.43.4-extended;
#X obj 8 111 pddp/pddplink http://puredata.info/downloads/pd-extended
;
#X obj 7 50 pddp/pddplink http://paresys.pagesperso-orange.fr/ARGOPd/
;
#X text 7 98 or Pd-0.46-7 + deken;
#X restore 277 348 pd ?.;
#X connect 3 0 4 0;
#X connect 4 0 1 0;
#X connect 5 0 15 0;
#X connect 5 0 23 0;
#X connect 11 0 12 0;
#X connect 12 0 10 0;
#X connect 13 0 5 0;
#X connect 15 0 16 0;
#X connect 16 0 17 0;
#X connect 16 1 21 0;
#X connect 16 1 22 0;
#X connect 17 0 21 0;
#X connect 17 0 25 0;
#X connect 18 0 19 0;
#X connect 19 0 5 0;
#X connect 19 1 17 0;
#X connect 20 0 12 1;
#X connect 20 0 4 1;
#X connect 21 0 20 0;
#X connect 22 0 18 0;
#X connect 23 0 25 0;
#X connect 25 0 13 0;
#X coords 0 -1 1 1 118 36 1 100 100;
#X restore 140 135 pd ARGO;
#X obj 499 170 cnv 15 52 22 empty empty empty 20 12 0 14 -24198 -66577
0;
#N canvas 353 174 321 152 ?... 0;
#X obj 8 84 cnv 15 300 56 empty empty empty 20 12 0 14 -224896 -66577
0;
#X obj 8 7 cnv 18 300 70 empty empty ARGOPdMiniModules 3 10 1 14 -4033
-1 1.04858e+06;
#X obj 31 27 cnv 10 10 10 empty empty Gerard 0 5 1 11 -4033 -1 1.04858e+06
;
#X obj 69 27 cnv 10 10 10 empty empty Paresys 0 5 1 11 -4033 -1 1.04858e+06
;
#X obj 12 40 pddp/pddplink http://gerard.paresys.free.fr/ARGOPd/;
#X obj 13 121 pddp/pddplink http://puredata.info/downloads/pd-extended
;
#X obj 13 97 pddp/pddplink http://puredata.info/downloads/pure-data
;
#X text 13 85 Construit sous / Build under Pd-0.49...;
#X text 12 109 or Pd 0.43.4-extended;
#X obj 12 53 pddp/pddplink https://paresys.pagesperso-orange.fr/ARGOPd/
;
#X restore 502 173 pd ?...;
#X connect 2 0 1 0;
#X connect 13 0 14 0;
#X connect 13 1 14 1;
#X connect 14 0 0 0;
#X connect 14 1 0 1;
