#N canvas 332 23 773 414 10;
#X obj 564 84 switch~;
#N canvas 608 166 228 173 ARGOnOff 0;
#X obj 100 100 tgl 18 1 \$0-SendOnOff \$0-ReceiveOnOff On/Off 20 11
1 14 -4033 -1 -1 1 1;
#X obj 99 10 loadbang;
#X msg 99 33 \; pd dsp 1;
#X obj 100 129 outlet;
#X text -50 99 Audio On/Off du patch ->;
#X text -22 45 Audio General On ->;
#X text 107 82 17 3 2010;
#X connect 0 0 3 0;
#X connect 1 0 2 0;
#X coords 0 -1 1 1 65 18 2 100 100;
#X restore 564 66 pd ARGOnOff;
#X text 569 50 V;
#X text 569 43 |;
#X text 557 32 On/Off Patch;
#X obj 16 9 cnv 15 15 15 empty empty ExMM146a-Parole2.pd 0 8 1 14 -262144
-1 0;
#X text 75 95 Adjust ->;
#X text 75 168 Adjust ->;
#X text 233 129 <- Adjust;
#X obj 314 143 pddp/pddplink http://www.martin-brinkmann.de/pd-patches.htm
;
#X text 313 128 Based on Martin Brinkmann's work: vowelfilter1.pd;
#X text 313 114 Parole2;
#X obj 72 384 dac~ 1 2;
#N canvas 175 68 374 396 ARGO 0;
#X obj 101 101 cnv 20 116 34 empty ColorAmpli empty 20 12 0 14 -261299
-1 1.04858e+06;
#X obj 85 353 outlet~;
#X obj 157 104 cnv 10 20 10 empty ColorAmpli Ampli. 1 5 1 14 -261299
-1 1.04858e+06;
#X obj 85 43 inlet~;
#X obj 85 330 *~;
#X obj 115 118 hsl 101 12 -80 20 0 1 \$0-A ColorAmpli 0dB 0 7 1 9 -261299
-1 -1 8000 0;
#X obj 101 101 cnv 4 10 4 empty empty empty 20 12 0 14 -1 -66577 0
;
#X obj 101 131 cnv 4 10 4 empty empty empty 20 12 0 14 -1 -66577 0
;
#X msg -42 139 label \$1;
#X text 148 194 -> 0.0001..10 = -80dB..20dB;
#X obj 142 175 expr (pow(10 \, $f1 / 20));
#X obj 142 215 sel 0.0001;
#X msg 100 244 0;
#X obj 100 118 tgl 12 1 \$0-A \$0-B Mute 2 -5 1 9 -261299 -1 -1 0 1
;
#X obj 99 146 select 0 1;
#X obj 140 295 line~;
#X obj 140 275 pack 0 10;
#X msg 123 74 set 0;
#X obj -42 93 cyclone/sprintf %ddB;
#X obj -42 116 cyclone/tosymbol;
#X obj 261 342 cnv 15 42 25 empty empty empty 20 12 0 14 -24198 -66577
0;
#N canvas 336 174 309 137 ?. 0;
#X obj 3 83 cnv 15 300 46 empty empty empty 20 12 0 14 -224896 -66577
0;
#X obj 3 6 cnv 18 300 70 empty empty ARGOPdMiniModules 3 10 1 14 -4033
-1 1.04858e+06;
#X obj 26 26 cnv 10 10 10 empty empty Gerard 0 5 1 11 -4033 -1 1.04858e+06
;
#X obj 64 26 cnv 10 10 10 empty empty Paresys 0 5 1 11 -4033 -1 1.04858e+06
;
#X obj 7 37 pddp/pddplink http://gerard.paresys.free.fr/ARGOPd/;
#X text 8 85 Construit sous / Build under Pd 0.43.4-extended;
#X obj 8 111 pddp/pddplink http://puredata.info/downloads/pd-extended
;
#X obj 7 50 pddp/pddplink http://paresys.pagesperso-orange.fr/ARGOPd/
;
#X text 7 98 or Pd-0.46-7 + deken;
#X restore 265 346 pd ?.;
#X text 228 110 17 3 2016;
#X connect 3 0 4 0;
#X connect 4 0 1 0;
#X connect 5 0 10 0;
#X connect 5 0 18 0;
#X connect 8 0 5 0;
#X connect 10 0 11 0;
#X connect 11 0 12 0;
#X connect 11 1 16 0;
#X connect 11 1 17 0;
#X connect 12 0 16 0;
#X connect 12 0 19 0;
#X connect 13 0 14 0;
#X connect 14 0 5 0;
#X connect 14 1 12 0;
#X connect 15 0 4 1;
#X connect 16 0 15 0;
#X connect 17 0 13 0;
#X connect 18 0 19 0;
#X connect 19 0 8 0;
#X coords 0 -1 1 1 118 36 1 100 100;
#X restore 108 226 pd ARGO;
#X obj 682 374 cnv 15 52 22 empty empty empty 20 12 0 14 -24198 -66577
0;
#N canvas 432 42 236 269 ARGO 0;
#X obj 101 104 cnv 30 37 130 empty ColorAmpli empty 20 12 0 14 -1 -258113
0;
#X obj 101 110 vu 8 120 \$0-B empty 0 0 1 11 -1 -4034 1 0;
#X obj 74 34 inlet~;
#X obj 10 33 cnv 15 60 30 empty empty empty 20 12 0 14 -24198 -66577
0;
#N canvas 300 65 442 264 Help 0;
#X obj 12 48 cnv 15 400 150 empty empty empty 20 12 0 14 -233017 -66577
0;
#X text 16 50 Citation;
#X text 28 67 peakamp~ tracks and outputs the absolute value of the
peak amplitude of the incoming signal. It outputs when banged or using
its own internal clock. The peak value is reset each time peakamp~
outputs a value.;
#X text 29 123 cyclone library;
#X text 28 135 http://suita.chopin.edu.pl/~czaja/miXed/externs/cyclone.html
;
#X text 29 155 Voir doc Max/MSP MSP46ReferenceManual.pdf;
#X text 18 14 MM-Vumetre;
#X restore 17 39 pd Help;
#N canvas 541 112 317 265 VuMetre 0;
#X obj 48 19 inlet~;
#X obj 41 54 *~;
#X obj -25 132 snapshot~;
#X obj -25 155 sqrt;
#X obj -25 100 lop~ 10;
#X obj -25 179 rmstodb;
#X obj -88 19 loadbang;
#X obj -25 202 - 100;
#X obj 58 156 sqrt;
#X obj 58 180 rmstodb;
#X obj 58 203 - 100;
#X obj -89 102 metro 200;
#X obj -28 19 r SendFluid;
#X obj 58 102 cyclone/peakamp~ 1000;
#X obj -25 228 outlet;
#X obj 58 227 outlet;
#X connect 0 0 1 0;
#X connect 0 0 1 1;
#X connect 1 0 4 0;
#X connect 1 0 13 0;
#X connect 2 0 3 0;
#X connect 3 0 5 0;
#X connect 4 0 2 0;
#X connect 5 0 7 0;
#X connect 6 0 11 0;
#X connect 7 0 14 0;
#X connect 8 0 9 0;
#X connect 9 0 10 0;
#X connect 10 0 15 0;
#X connect 11 0 2 0;
#X connect 12 0 11 1;
#X connect 13 0 8 0;
#X restore 74 59 pd VuMetre;
#X obj 172 211 cnv 15 42 25 empty empty empty 20 12 0 14 -24198 -66577
0;
#N canvas 336 174 309 137 ?. 0;
#X obj 3 83 cnv 15 300 46 empty empty empty 20 12 0 14 -224896 -66577
0;
#X obj 3 6 cnv 18 300 70 empty empty ARGOPdMiniModules 3 10 1 14 -4033
-1 1.04858e+06;
#X obj 26 26 cnv 10 10 10 empty empty Gerard 0 5 1 11 -4033 -1 1.04858e+06
;
#X obj 64 26 cnv 10 10 10 empty empty Paresys 0 5 1 11 -4033 -1 1.04858e+06
;
#X obj 7 37 pddp/pddplink http://gerard.paresys.free.fr/ARGOPd/;
#X text 8 85 Construit sous / Build under Pd 0.43.4-extended;
#X obj 8 111 pddp/pddplink http://puredata.info/downloads/pd-extended
;
#X obj 7 50 pddp/pddplink http://paresys.pagesperso-orange.fr/ARGOPd/
;
#X text 7 98 or Pd-0.46-7 + deken;
#X restore 176 215 pd ?.;
#X text 127 87 3 3 2019;
#X connect 2 0 5 0;
#X connect 5 0 1 0;
#X connect 5 1 1 1;
#X coords 0 -1 1 1 39 135 2 100 100;
#X restore 135 268 pd ARGO;
#N canvas 353 174 321 152 ?... 0;
#X obj 8 84 cnv 15 300 56 empty empty empty 20 12 0 14 -224896 -66577
0;
#X obj 8 7 cnv 18 300 70 empty empty ARGOPdMiniModules 3 10 1 14 -4033
-1 1.04858e+06;
#X obj 31 27 cnv 10 10 10 empty empty Gerard 0 5 1 11 -4033 -1 1.04858e+06
;
#X obj 69 27 cnv 10 10 10 empty empty Paresys 0 5 1 11 -4033 -1 1.04858e+06
;
#X obj 12 40 pddp/pddplink http://gerard.paresys.free.fr/ARGOPd/;
#X obj 13 121 pddp/pddplink http://puredata.info/downloads/pd-extended
;
#X obj 13 97 pddp/pddplink http://puredata.info/downloads/pure-data
;
#X text 13 85 Construit sous / Build under Pd-0.49...;
#X text 12 109 or Pd 0.43.4-extended;
#X obj 12 53 pddp/pddplink https://paresys.pagesperso-orange.fr/ARGOPd/
;
#X restore 685 377 pd ?...;
#X text 2 237 Niveau general ->;
#X text 8 247 General level ->;
#N canvas 405 90 404 428 vowelfilter1 0;
#N canvas 223 70 465 368 3filter 0;
#X obj 48 97 inlet~;
#X obj 154 97 inlet;
#X obj 211 97 inlet;
#X obj 264 97 inlet;
#X obj 388 97 inlet;
#X obj 147 190 vcf~;
#X obj 194 192 vcf~;
#X obj 257 192 vcf~;
#X obj 155 242 vcf~;
#X obj 202 244 vcf~;
#X obj 265 244 vcf~;
#X obj 118 279 outlet~;
#X obj 202 279 outlet~;
#X obj 296 279 outlet~;
#X connect 0 0 5 0;
#X connect 0 0 6 0;
#X connect 0 0 7 0;
#X connect 1 0 5 1;
#X connect 1 0 8 1;
#X connect 2 0 6 1;
#X connect 2 0 9 1;
#X connect 3 0 7 1;
#X connect 3 0 10 1;
#X connect 4 0 5 2;
#X connect 4 0 7 2;
#X connect 4 0 6 2;
#X connect 4 0 8 2;
#X connect 4 0 9 2;
#X connect 4 0 10 2;
#X connect 5 0 8 0;
#X connect 6 0 9 0;
#X connect 7 0 10 0;
#X connect 8 0 11 0;
#X connect 9 0 12 0;
#X connect 10 0 13 0;
#X restore 179 324 pd 3filter;
#N canvas 292 23 542 651 1st6freqs 0;
#X obj 43 52 inlet;
#X obj 262 52 inlet;
#X obj 481 52 inlet;
#X obj 225 604 outlet;
#X obj 66 215 -;
#X msg 52 195 1;
#X obj 46 297 +;
#X obj 43 158 t f b f;
#X obj 157 215 -;
#X msg 143 195 1;
#X obj 137 297 +;
#X obj 125 161 t f b f;
#X obj 82 382 *;
#X obj 131 447 +;
#X obj 258 327 -;
#X msg 267 297 1;
#X obj 161 394 *;
#X obj 241 244 t b b f b f;
#X obj 32 255 * 300;
#X obj 76 255 * 270;
#X obj 124 255 * 530;
#X obj 167 253 * 400;
#X obj 401 227 -;
#X msg 386 202 1;
#X obj 379 299 +;
#X obj 368 168 t f b f;
#X obj 410 261 * 640;
#X obj 367 262 * 660;
#X obj 202 516 *;
#X obj 452 403 -;
#X msg 461 373 1;
#X obj 269 520 *;
#X obj 435 320 t b b f b f;
#X obj 225 565 +;
#X connect 0 0 11 0;
#X connect 0 0 7 0;
#X connect 1 0 17 0;
#X connect 1 0 25 0;
#X connect 2 0 32 0;
#X connect 4 0 19 0;
#X connect 5 0 4 0;
#X connect 6 0 12 0;
#X connect 7 0 18 0;
#X connect 7 1 5 0;
#X connect 7 2 4 1;
#X connect 8 0 21 0;
#X connect 9 0 8 0;
#X connect 10 0 16 0;
#X connect 11 0 20 0;
#X connect 11 1 9 0;
#X connect 11 2 8 1;
#X connect 12 0 13 0;
#X connect 13 0 28 0;
#X connect 14 0 16 1;
#X connect 15 0 14 0;
#X connect 16 0 13 1;
#X connect 17 0 12 0;
#X connect 17 1 16 0;
#X connect 17 2 12 1;
#X connect 17 3 15 0;
#X connect 17 4 14 1;
#X connect 18 0 6 0;
#X connect 19 0 6 1;
#X connect 20 0 10 0;
#X connect 21 0 10 1;
#X connect 22 0 26 0;
#X connect 23 0 22 0;
#X connect 24 0 31 0;
#X connect 25 0 27 0;
#X connect 25 1 23 0;
#X connect 25 2 22 1;
#X connect 26 0 24 1;
#X connect 27 0 24 0;
#X connect 28 0 33 0;
#X connect 29 0 31 1;
#X connect 30 0 29 0;
#X connect 31 0 33 1;
#X connect 32 0 28 0;
#X connect 32 1 31 0;
#X connect 32 2 28 1;
#X connect 32 3 30 0;
#X connect 32 4 29 1;
#X connect 33 0 3 0;
#X restore 118 281 pd 1st6freqs;
#N canvas 457 23 553 656 2nd6freqs 0;
#X obj 41 52 inlet;
#X obj 268 52 inlet;
#X obj 496 52 inlet;
#X obj 223 604 outlet;
#X obj 64 215 -;
#X msg 50 195 1;
#X obj 44 297 +;
#X obj 41 158 t f b f;
#X obj 155 215 -;
#X msg 141 195 1;
#X obj 135 297 +;
#X obj 123 161 t f b f;
#X obj 80 382 *;
#X obj 129 447 +;
#X obj 256 327 -;
#X msg 265 297 1;
#X obj 159 394 *;
#X obj 239 244 t b b f b f;
#X obj 399 227 -;
#X msg 384 202 1;
#X obj 377 299 +;
#X obj 366 168 t f b f;
#X obj 200 516 *;
#X obj 450 403 -;
#X msg 459 373 1;
#X obj 267 520 *;
#X obj 433 320 t b b f b f;
#X obj 223 565 +;
#X obj 23 255 * 870;
#X obj 68 256 * 2300;
#X obj 117 253 * 1850;
#X obj 169 253 * 2000;
#X obj 352 260 * 1700;
#X obj 408 260 * 1200;
#X connect 0 0 11 0;
#X connect 0 0 7 0;
#X connect 1 0 17 0;
#X connect 1 0 21 0;
#X connect 2 0 26 0;
#X connect 4 0 29 0;
#X connect 5 0 4 0;
#X connect 6 0 12 0;
#X connect 7 0 28 0;
#X connect 7 1 5 0;
#X connect 7 2 4 1;
#X connect 8 0 31 0;
#X connect 9 0 8 0;
#X connect 10 0 16 0;
#X connect 11 0 30 0;
#X connect 11 1 9 0;
#X connect 11 2 8 1;
#X connect 12 0 13 0;
#X connect 13 0 22 0;
#X connect 14 0 16 1;
#X connect 15 0 14 0;
#X connect 16 0 13 1;
#X connect 17 0 12 0;
#X connect 17 1 16 0;
#X connect 17 2 12 1;
#X connect 17 3 15 0;
#X connect 17 4 14 1;
#X connect 18 0 33 0;
#X connect 19 0 18 0;
#X connect 20 0 25 0;
#X connect 21 0 32 0;
#X connect 21 1 19 0;
#X connect 21 2 18 1;
#X connect 22 0 27 0;
#X connect 23 0 25 1;
#X connect 24 0 23 0;
#X connect 25 0 27 1;
#X connect 26 0 22 0;
#X connect 26 1 25 0;
#X connect 26 2 22 1;
#X connect 26 3 24 0;
#X connect 26 4 23 1;
#X connect 27 0 3 0;
#X connect 28 0 6 0;
#X connect 29 0 6 1;
#X connect 30 0 10 0;
#X connect 31 0 10 1;
#X connect 32 0 20 0;
#X connect 33 0 20 1;
#X restore 206 281 pd 2nd6freqs;
#N canvas 457 23 541 650 3rd6freqs 0;
#X obj 45 50 inlet;
#X obj 275 50 inlet;
#X obj 476 50 inlet;
#X obj 227 602 outlet;
#X obj 68 213 -;
#X msg 54 193 1;
#X obj 48 295 +;
#X obj 45 156 t f b f;
#X obj 159 213 -;
#X msg 145 193 1;
#X obj 139 295 +;
#X obj 127 159 t f b f;
#X obj 84 380 *;
#X obj 133 445 +;
#X obj 260 325 -;
#X msg 269 295 1;
#X obj 163 392 *;
#X obj 243 242 t b b f b f;
#X obj 403 225 -;
#X msg 388 200 1;
#X obj 381 297 +;
#X obj 370 166 t f b f;
#X obj 204 514 *;
#X obj 454 401 -;
#X msg 463 371 1;
#X obj 271 518 *;
#X obj 437 318 t b b f b f;
#X obj 227 563 +;
#X obj 21 254 * 2250;
#X obj 71 253 * 3000;
#X obj 121 251 * 2500;
#X obj 173 251 * 2550;
#X obj 355 258 * 2400;
#X obj 410 259 * 2400;
#X connect 0 0 11 0;
#X connect 0 0 7 0;
#X connect 1 0 17 0;
#X connect 1 0 21 0;
#X connect 2 0 26 0;
#X connect 4 0 29 0;
#X connect 5 0 4 0;
#X connect 6 0 12 0;
#X connect 7 0 28 0;
#X connect 7 1 5 0;
#X connect 7 2 4 1;
#X connect 8 0 31 0;
#X connect 9 0 8 0;
#X connect 10 0 16 0;
#X connect 11 0 30 0;
#X connect 11 1 9 0;
#X connect 11 2 8 1;
#X connect 12 0 13 0;
#X connect 13 0 22 0;
#X connect 14 0 16 1;
#X connect 15 0 14 0;
#X connect 16 0 13 1;
#X connect 17 0 12 0;
#X connect 17 1 16 0;
#X connect 17 2 12 1;
#X connect 17 3 15 0;
#X connect 17 4 14 1;
#X connect 18 0 33 0;
#X connect 19 0 18 0;
#X connect 20 0 25 0;
#X connect 21 0 32 0;
#X connect 21 1 19 0;
#X connect 21 2 18 1;
#X connect 22 0 27 0;
#X connect 23 0 25 1;
#X connect 24 0 23 0;
#X connect 25 0 27 1;
#X connect 26 0 22 0;
#X connect 26 1 25 0;
#X connect 26 2 22 1;
#X connect 26 3 24 0;
#X connect 26 4 23 1;
#X connect 27 0 3 0;
#X connect 28 0 6 0;
#X connect 29 0 6 1;
#X connect 30 0 10 0;
#X connect 31 0 10 1;
#X connect 32 0 20 0;
#X connect 33 0 20 1;
#X restore 294 281 pd 3rd6freqs;
#X obj 26 30 inlet~;
#X obj 144 385 outlet~;
#X obj 174 68 / 128;
#X obj 174 35 inlet;
#X obj 233 72 / 128;
#X obj 233 35 inlet;
#X obj 283 73 / 128;
#X obj 283 34 inlet;
#X obj 207 385 outlet~;
#X obj 264 385 outlet~;
#X obj 26 281 *~ 5;
#X obj 201 101 cnv 15 95 109 empty empty Parole2. 40 13 1 14 -188398
-66577 0;
#X obj 203 120 hsl 80 12 0 1 0 1 \$0-A \$0-B empty -2 -8 0 10 -208064
-1 -1 6200 0;
#X obj 285 122 vsl 12 80 0 1 0 1 \$0-A \$0-B empty 0 -9 0 10 -208064
-1 -1 3900 0;
#X obj 203 193 hsl 80 12 0 1 0 1 \$0-A \$0-B empty -2 -8 0 10 -208064
-1 -1 4900 0;
#X obj 201 101 cnv 4 10 4 empty empty empty 20 12 0 14 -1 -66577 0
;
#X obj 286 101 cnv 4 10 4 empty empty empty 20 12 0 14 -260097 -66577
0;
#X obj 228 101 cnv 4 10 4 empty empty empty 20 12 0 14 -260097 -66577
0;
#X obj 257 101 cnv 4 10 4 empty empty empty 20 12 0 14 -260097 -66577
0;
#X obj 201 206 cnv 4 10 4 empty empty empty 20 12 0 14 -1 -66577 0
;
#X obj 243 206 cnv 4 10 4 empty empty empty 20 12 0 14 -1 -66577 0
;
#X obj 286 206 cnv 4 10 4 empty empty empty 20 12 0 14 -1 -66577 0
;
#X obj 203 158 hsl 80 12 1 99 1 1 \$0-A \$0-B 20 0 7 1 9 -188398 -1
-1 5200 0;
#N canvas 388 167 210 252 label 0;
#X msg 64 149 label \$1;
#X obj 64 88 int;
#X obj 67 45 inlet;
#X obj 66 183 outlet;
#X obj 64 127 cyclone/tosymbol;
#X connect 0 0 3 0;
#X connect 1 0 4 0;
#X connect 2 0 1 0;
#X connect 4 0 0 0;
#X restore 135 127 pd label;
#X obj 203 153 cnv 2 2 2 empty empty Resonance 0 0 1 9 -188398 -66577
0;
#X obj 70 58 cnv 15 60 30 empty empty empty 20 12 0 14 -24198 -66577
0;
#N canvas 301 159 423 320 Help 0;
#X text 9 5 Based on Martin Brinkmann's work: vowelfilter1.pd;
#X obj 11 79 cnv 15 400 230 empty empty empty 20 12 0 14 -233017 -66577
0;
#X text 14 81 Citation;
#X text 26 97 my instruments (09/2011) collection of mostly messy and
undocumented patches which i use to make music. maybe it is usefull
for someone. work in progress and will be updated occasionally.;
#X text 47 167 unsorted \, unfinished \, mostly undocumented collection
of patches i use to make music.;
#X text 47 196 pretty messy \, and made to be as selfcontained and
copy/paste-able as possible.;
#X text 47 227 (therefore hardly any abstractions used...) work in
progress \, and patches may change \, become obsolete or disapear with
future updates. mostly pd vanilla \, but sometimes externals are needed
(especially moog~);
#X text 24 286 09/2011 martin brinkmann;
#X text 10 44 my instruments (09-2011)/mnb_instruments_wip/vowelfilter1.pd
;
#X text 26 153 mnb_instruments_wip;
#X obj 10 23 pddp/pddplink http://www.martin-brinkmann.de/pd-patches.html
;
#X restore 77 64 pd Help;
#X msg 35 109 270 2300 3000;
#X msg 36 139 300 870 2250;
#X msg 37 166 400 2000 2550;
#X msg 37 190 530 1850 2500;
#X msg 37 223 640 1200 2400;
#X msg 37 251 660 1700 2400;
#X text 171 15 0..128;
#X text 230 16 0..128;
#X text 281 15 0..128;
#X obj 332 375 cnv 15 52 22 empty empty empty 20 12 0 14 -24198 -66577
0;
#N canvas 353 174 321 152 ?... 0;
#X obj 8 84 cnv 15 300 56 empty empty empty 20 12 0 14 -224896 -66577
0;
#X obj 8 7 cnv 18 300 70 empty empty ARGOPdMiniModules 3 10 1 14 -4033
-1 1.04858e+06;
#X obj 31 27 cnv 10 10 10 empty empty Gerard 0 5 1 11 -4033 -1 1.04858e+06
;
#X obj 69 27 cnv 10 10 10 empty empty Paresys 0 5 1 11 -4033 -1 1.04858e+06
;
#X obj 12 40 pddp/pddplink http://gerard.paresys.free.fr/ARGOPd/;
#X obj 13 121 pddp/pddplink http://puredata.info/downloads/pd-extended
;
#X obj 13 97 pddp/pddplink http://puredata.info/downloads/pure-data
;
#X text 13 85 Construit sous / Build under Pd-0.49...;
#X text 12 109 or Pd 0.43.4-extended;
#X obj 12 53 pddp/pddplink https://paresys.pagesperso-orange.fr/ARGOPd/
;
#X restore 335 378 pd ?...;
#X text 300 135 24 8 2019;
#X connect 0 0 5 0;
#X connect 0 1 12 0;
#X connect 0 2 13 0;
#X connect 1 0 0 1;
#X connect 2 0 0 2;
#X connect 3 0 0 3;
#X connect 4 0 14 0;
#X connect 6 0 16 0;
#X connect 7 0 6 0;
#X connect 8 0 17 0;
#X connect 9 0 8 0;
#X connect 10 0 18 0;
#X connect 11 0 10 0;
#X connect 14 0 0 0;
#X connect 16 0 1 0;
#X connect 16 0 2 0;
#X connect 16 0 3 0;
#X connect 17 0 1 1;
#X connect 17 0 2 1;
#X connect 17 0 3 1;
#X connect 18 0 1 2;
#X connect 18 0 2 2;
#X connect 18 0 3 2;
#X connect 26 0 27 0;
#X connect 26 0 0 4;
#X connect 27 0 26 0;
#X coords 0 -1 1 1 97 111 1 200 100;
#X restore 134 78 pd vowelfilter1;
#N canvas 335 46 491 385 ARGO 0;
#X obj 101 101 cnv 20 244 34 empty ColorTime Oscill-Pulse2. 71 10 1
14 -208064 -1 1.04858e+06;
#X obj 221 352 outlet~;
#X obj 100 106 nbx 7 12 0 20000 0 1 \$0-A ColorTime Hz 60 7 1 9 -208064
-1 -1 61.7354 256;
#X obj 62 32 inlet~;
#X obj 101 131 cnv 4 10 4 empty empty empty 20 12 0 14 -1 -66577 0
;
#X obj 101 101 cnv 4 10 4 empty empty empty 20 12 0 14 -1728 -66577
0;
#X obj 103 118 hsl 241 12 0 1 0 0 \$0-A ColorTime empty 0 7 1 9 -262144
-1 -1 14300 0;
#X obj 103 118 hsl 241 12 0 1 0 0 \$0-A ColorTime B0 0 7 1 9 -208064
-1728 -1 14300 0;
#X text 350 121 2 HSLIDER superposés;
#X text 349 110 ATTENTION;
#X obj 352 264 cnv 15 60 30 empty empty empty 20 12 0 14 -24198 -66577
0;
#N canvas 357 140 425 238 Help 0;
#X obj 9 85 cnv 15 400 130 empty empty empty 20 12 0 14 -233017 -66577
0;
#X text 10 45 Sensibilitée de l'entrée de contrôle de la fréquence:
;
#X text 10 57 1 = 240 1/2 ton = 20 octaves;
#X text 11 19 Générateur d'impulsions controlées en largeur;
#X text 30 101 The Theory and Technique of Electronic Music;
#X text 14 87 From:;
#X text 31 114 Miller Puckette;
#X text 28 155 Figure6.13: Example patch F01.pulse.pd \, which synthesizes
a pulse train using stretched wavetable lookup.;
#X text 29 142 6.5 Examples Wavetable pulse train;
#X obj 30 128 pddp/pddplink http://crca.ucsd.edu/%7Emsp/techniques/latest/book.pdf
;
#X restore 359 270 pd Help;
#N canvas 658 231 361 348 Freq-v7-sig- 0;
#X obj 240 61 ftom;
#X obj 293 220 mtof;
#X obj 155 145 +~;
#X obj 23 192 snapshot~;
#X obj 23 214 change;
#X msg 23 239 set \$1;
#X obj 156 248 clip~ 0 20000;
#X obj 156 225 mtof~;
#X obj 156 277 outlet~;
#X obj 294 38 inlet;
#X obj 239 37 inlet;
#X obj 52 277 outlet;
#X obj 293 277 outlet;
#X text 49 295 Hslider;
#X obj 155 42 inlet~;
#X obj 22 41 loadbang;
#X obj 243 277 outlet;
#X obj 293 159 * 240;
#X obj 293 182 - 108;
#X obj 155 173 *~ 240;
#X obj 155 195 -~ 108;
#X obj 240 84 + 108;
#X obj 240 106 / 240;
#X obj 23 90 metro 200;
#X obj 78 41 r SendFluid;
#N canvas 404 279 545 318 pitchb 0;
#X obj 70 111 mod 12;
#X obj 70 135 sel 0 1 2 3 4 5 6 7 8 9 10 11;
#X msg 246 170 A;
#X msg 300 170 B;
#X msg 192 170 G;
#X msg 3 170 C;
#X msg 57 170 D;
#X msg 111 170 E;
#X msg 138 170 F;
#X obj 204 1 inlet;
#X obj 377 117 div 12;
#X obj 204 79 t f f;
#X text 334 190 -> Numero de l'octave;
#X text 213 64 -> Numero MIDI de la note (69 = A3 = 440Hz);
#X msg 260 260 label \$1;
#X obj 260 283 outlet;
#X msg 30 170 Db;
#X msg 84 170 Eb;
#X msg 165 170 Gb;
#X msg 219 170 Ab;
#X msg 273 170 Bb;
#X text 369 78 (70 = A#3 = Bb3);
#X obj 260 238 symbol;
#X text 11 231 Impossible d'afficher # dans un label;
#X text 11 243 donc j'affiche b;
#X obj 204 51 int;
#X text 255 23 -> pour corriger certaines erreurs de calcul;
#X obj 204 25 + 120.1;
#X obj 377 146 - 12;
#X text 255 35 et le pb du passage a zero de mod 12;
#X obj 260 213 cyclone/sprintf %s%d;
#X connect 0 0 1 0;
#X connect 1 0 5 0;
#X connect 1 1 16 0;
#X connect 1 2 6 0;
#X connect 1 3 17 0;
#X connect 1 4 7 0;
#X connect 1 5 8 0;
#X connect 1 6 18 0;
#X connect 1 7 4 0;
#X connect 1 8 19 0;
#X connect 1 9 2 0;
#X connect 1 10 20 0;
#X connect 1 11 3 0;
#X connect 2 0 30 0;
#X connect 3 0 30 0;
#X connect 4 0 30 0;
#X connect 5 0 30 0;
#X connect 6 0 30 0;
#X connect 7 0 30 0;
#X connect 8 0 30 0;
#X connect 9 0 27 0;
#X connect 10 0 28 0;
#X connect 11 0 0 0;
#X connect 11 1 10 0;
#X connect 14 0 15 0;
#X connect 16 0 30 0;
#X connect 17 0 30 0;
#X connect 18 0 30 0;
#X connect 19 0 30 0;
#X connect 20 0 30 0;
#X connect 22 0 14 0;
#X connect 25 0 11 0;
#X connect 27 0 25 0;
#X connect 28 0 30 1;
#X connect 30 0 22 0;
#X restore 54 136 pd pitchb;
#X text 58 306 Over;
#X text 295 295 Number;
#X text 236 20 Number;
#X text 242 294 Hslider;
#X text 244 305 Under;
#X text 295 8 Hslider;
#X text 300 19 Under;
#X msg 243 247 set \$1;
#X connect 0 0 21 0;
#X connect 0 0 25 0;
#X connect 1 0 12 0;
#X connect 2 0 3 0;
#X connect 2 0 19 0;
#X connect 3 0 4 0;
#X connect 4 0 5 0;
#X connect 5 0 11 0;
#X connect 6 0 8 0;
#X connect 7 0 6 0;
#X connect 9 0 17 0;
#X connect 10 0 0 0;
#X connect 14 0 2 0;
#X connect 15 0 23 0;
#X connect 17 0 18 0;
#X connect 18 0 1 0;
#X connect 19 0 20 0;
#X connect 20 0 7 0;
#X connect 21 0 22 0;
#X connect 22 0 2 1;
#X connect 22 0 33 0;
#X connect 23 0 3 0;
#X connect 24 0 23 1;
#X connect 25 0 11 0;
#X connect 33 0 16 0;
#X restore 62 63 pd Freq-v7-sig-;
#X obj 91 150 phasor~;
#X obj 335 101 cnv 4 10 4 empty empty empty 20 12 0 14 -3522 -66577
0;
#X text 303 71 Pulse width;
#X text 307 82 modulation;
#X obj 263 106 hsl 81 12 -1 1 0 1 \$0-A ColorForm 86 0 7 1 9 -262144
-1 -1 3200 0;
#X obj 316 32 inlet~;
#X obj 263 106 hsl 81 12 -1 1 0 1 \$0-A ColorForm 39 0 7 1 9 -188398
-3522 -1 3200 0;
#N canvas 795 278 312 308 PWM~ 0;
#X msg 168 236 set \$1;
#X obj 15 73 +~;
#X obj 89 278 outlet;
#X obj 169 109 snapshot~;
#X obj 169 216 change;
#X obj 70 32 inlet;
#X obj 13 32 inlet~;
#X obj 17 277 outlet~;
#X msg 61 239 label \$1;
#X obj 168 33 loadbang;
#X obj 169 73 metro 200;
#X obj 226 34 r SendFluid;
#X obj 70 71 + 1;
#X obj 49 105 t b f;
#X msg 39 130 100;
#X obj 61 154 pow;
#X text 65 196 <- 1..10000;
#X text 66 14 -1..+1;
#X obj 61 178 int;
#X obj 61 217 cyclone/tosymbol;
#X connect 0 0 2 0;
#X connect 1 0 3 0;
#X connect 1 0 7 0;
#X connect 3 0 4 0;
#X connect 4 0 0 0;
#X connect 5 0 1 1;
#X connect 5 0 12 0;
#X connect 6 0 1 0;
#X connect 8 0 2 0;
#X connect 9 0 10 0;
#X connect 10 0 3 0;
#X connect 11 0 10 1;
#X connect 12 0 13 0;
#X connect 13 0 14 0;
#X connect 13 1 15 1;
#X connect 14 0 15 0;
#X connect 15 0 18 0;
#X connect 18 0 19 0;
#X connect 19 0 8 0;
#X restore 315 150 pd PWM~;
#X obj 91 193 -~ 0.5;
#X obj 221 266 clip~ -0.5 0.5;
#X obj 221 289 cos~;
#X obj 221 310 +~ 1;
#X obj 221 331 *~ 0.5;
#X obj 221 239 *~;
#X text 250 232 <- 1..10000;
#X text 320 170 <- -1..+1;
#X obj 359 337 cnv 15 52 22 empty empty empty 20 12 0 14 -24198 -66577
0;
#N canvas 353 174 321 152 ?... 0;
#X obj 8 84 cnv 15 300 56 empty empty empty 20 12 0 14 -224896 -66577
0;
#X obj 8 7 cnv 18 300 70 empty empty ARGOPdMiniModules 3 10 1 14 -4033
-1 1.04858e+06;
#X obj 31 27 cnv 10 10 10 empty empty Gerard 0 5 1 11 -4033 -1 1.04858e+06
;
#X obj 69 27 cnv 10 10 10 empty empty Paresys 0 5 1 11 -4033 -1 1.04858e+06
;
#X obj 12 40 pddp/pddplink http://gerard.paresys.free.fr/ARGOPd/;
#X obj 13 121 pddp/pddplink http://puredata.info/downloads/pd-extended
;
#X obj 13 97 pddp/pddplink http://puredata.info/downloads/pure-data
;
#X text 13 85 Construit sous / Build under Pd-0.49...;
#X text 12 109 or Pd 0.43.4-extended;
#X obj 12 53 pddp/pddplink https://paresys.pagesperso-orange.fr/ARGOPd/
;
#X restore 362 340 pd ?...;
#X text 220 84 29 3 2021;
#X obj 315 193 expr~ pow(100 \, $v1 + 1);
#X connect 2 0 12 1;
#X connect 3 0 12 0;
#X connect 6 0 12 2;
#X connect 12 0 7 0;
#X connect 12 1 13 0;
#X connect 12 2 6 0;
#X connect 12 3 2 0;
#X connect 13 0 21 0;
#X connect 17 0 20 1;
#X connect 18 0 20 0;
#X connect 20 0 32 0;
#X connect 20 1 19 0;
#X connect 21 0 26 0;
#X connect 22 0 23 0;
#X connect 23 0 24 0;
#X connect 24 0 25 0;
#X connect 25 0 1 0;
#X connect 26 0 22 0;
#X connect 32 0 26 1;
#X coords 0 -1 1 1 246 36 1 100 100;
#X restore 134 30 pd ARGO;
#N canvas 518 224 797 367 ARGO 0;
#X obj 234 116 rfft~;
#X msg 30 71 slide 10 10;
#X obj 234 8 inlet~;
#X msg 10 98 slide 1 1;
#X obj 75 131 *~ 0.361;
#X obj 201 201 cnv 12 198 34 empty empty empty 20 12 0 14 -262144 -1
1.04858e+06;
#X obj 201 201 cnv 4 10 4 empty empty empty 20 12 0 14 -1 -66577 0
;
#X obj 11 44 sel 0 1;
#X msg 364 54 frgb 255 0 0;
#X msg 363 78 brgb 255 255 255;
#X obj 551 202 cnv 10 44 10 empty empty Spectrum-2000Hz/div. 1 5 1
14 -262144 -1 1.04858e+06;
#X obj 21 197 cnv 15 60 30 empty empty empty 20 12 0 14 -24198 -66577
0;
#N canvas 686 130 429 124 Help 0;
#X text 13 28 Utilise l'objet scope~ de la library cyclone;
#X text 13 48 Doc Pd-extended -> /cyclone/examples/pink-test.pd;
#X text 124 62 /cyclone/Scope~-help.pd;
#X obj 32 81 pddp/pddplink http://cycling74.com/docs/max5/refpages/msp-ref/scope~.html
;
#X text 15 82 cf;
#X restore 28 203 pd Help;
#X msg 365 103 range 0 256;
#X obj 200 216 vsl 12 131 0.01 100 1 1 \$0-A \$0-B empty 0 -9 0 10
-262144 -1 -1 8800 0;
#X obj 234 94 *~;
#X text 437 102 <- vertical;
#X msg 110 59 slide 100 100;
#X obj 75 98 cyclone/count~ 0 1024 1 1;
#X obj 75 172 cyclone/vectral~ 1024;
#X obj 213 214 cyclone/scope~ 514 135 4 3 256 0 256 0 0 0 0 255 0 0
255 255 255 0 98 102 0 empty;
#X obj 234 143 cyclone/cartopol~;
#X obj 219 201 tgl 12 1 \$0-A \$0-B On 15 7 1 9 -262144 -1 -1 1 1;
#X obj 334 201 tgl 12 1 \$0-SendLoop \$0-ReceiveLoop Gliss 15 6 1 9
-262144 -1 -1 0 1;
#X obj 605 42 cnv 15 100 70 empty empty empty 20 12 0 14 -24198 -66577
0;
#X text 628 44 library:;
#X text 609 55 pddp;
#X text 609 68 cyclone;
#X text 667 182 29 3 2021;
#X msg 367 147 4 \, bufsize 256;
#X obj 95 335 switch~ 1024 1 1;
#X obj 737 334 cnv 15 34 16 empty empty empty 20 12 0 14 -24198 -66577
0;
#N canvas 353 174 333 161 ?? 0;
#X obj 17 89 cnv 15 300 56 empty empty empty 20 12 0 14 -224896 -66577
0;
#X obj 17 12 cnv 18 300 70 empty empty ARGOPdMiniModules 3 10 1 14
-4033 -1 1.04858e+06;
#X obj 40 32 cnv 10 10 10 empty empty Gerard 0 5 1 11 -4033 -1 1.04858e+06
;
#X obj 78 32 cnv 10 10 10 empty empty Paresys 0 5 1 11 -4033 -1 1.04858e+06
;
#X obj 20 54 pddp/pddplink http://gerard.paresys.free.fr/ARGOPd/;
#X obj 22 126 pddp/pddplink http://puredata.info/downloads/pd-extended
;
#X obj 22 102 pddp/pddplink http://puredata.info/downloads/pure-data
;
#X text 22 90 Construit sous / Build under Pd-0.49...;
#X text 21 114 or Pd 0.43.4-extended;
#X obj 20 66 pddp/pddplink https://paresys.pagesperso-orange.fr/ARGOPd/
;
#X obj 20 42 pddp/pddplink https://github.com/gerardparesys/ARGOPd
;
#X restore 737 334 pd ??;
#X connect 0 0 21 0;
#X connect 0 1 21 1;
#X connect 1 0 19 0;
#X connect 2 0 15 0;
#X connect 3 0 19 0;
#X connect 4 0 19 0;
#X connect 7 0 3 0;
#X connect 7 1 1 0;
#X connect 8 0 20 0;
#X connect 9 0 20 0;
#X connect 13 0 20 0;
#X connect 14 0 15 1;
#X connect 15 0 0 0;
#X connect 17 0 19 0;
#X connect 18 0 4 0;
#X connect 18 0 19 1;
#X connect 19 0 20 0;
#X connect 21 0 19 2;
#X connect 22 0 30 0;
#X connect 23 0 7 0;
#X connect 29 0 20 0;
#X coords 0 -1 1 1 528 150 2 200 200;
#X restore 229 218 pd ARGO;
#X connect 1 0 0 0;
#X connect 13 0 12 1;
#X connect 13 0 12 0;
#X connect 13 0 15 0;
#X connect 19 0 13 0;
#X connect 19 0 21 0;
#X connect 19 1 13 0;
#X connect 19 1 21 0;
#X connect 19 2 13 0;
#X connect 19 2 21 0;
#X connect 20 0 19 0;
