#N canvas 524 36 794 486 10;
#X obj 99 445 dac~ 1 2;
#X obj 11 24 cnv 15 15 15 empty empty ExMM124b-TriRectangle-Anti-Aliasing.pd
0 8 1 14 -262144 -66577 0;
#X text 56 185 Choose ->;
#X obj 483 445 dac~ 1 2;
#X text 433 187 Choose ->;
#X obj 345 178 switch~;
#N canvas 608 166 228 173 ARGOnOff 0;
#X obj 100 100 tgl 18 1 \$0-SendOnOff \$0-ReceiveOnOff On/Off 20 11
1 14 -4033 -1 -1 1 1;
#X obj 99 10 loadbang;
#X msg 99 33 \; pd dsp 1;
#X obj 100 129 outlet;
#X text -50 99 Audio On/Off du patch ->;
#X text -22 45 Audio General On ->;
#X text 107 82 17 3 2010;
#X connect 0 0 3 0;
#X connect 1 0 2 0;
#X coords 0 -1 1 1 65 18 2 100 100;
#X restore 345 160 pd ARGOnOff;
#X text 350 144 V;
#X text 350 137 |;
#X text 338 126 On/Off Patch;
#N canvas 413 140 402 279 ARGO 0;
#X obj 101 101 cnv 10 95 41 \$0-A \$0-B empty 20 12 0 14 -1 -1 1.04858e+06
;
#X obj 101 109 nbx 4 12 0 1e+37 0 0 \$0 \$0-ReceiveCpuPeak CPUPeak
45 7 1 11 -24198 -1 -24198 10 256;
#X obj 101 122 nbx 4 12 0 1e+37 0 0 \$0 \$0-ReceiveCpuMean CPUMean
45 7 1 11 -24198 -1 -24198 9.12 256;
#X obj 145 -55 cputime;
#X obj 145 -76 t b b;
#X text 188 24 (c) musil@iem.kug.ac.at;
#X text 230 37 IEM KUG;
#X text 78 18 CPU-load;
#X obj 144 -125 loadbang;
#X text 205 48 graz \, austria 2001;
#X obj 145 -100 metro 500;
#X obj 145 -34 * 0.2;
#X text 237 -88 -dsp-load in %;
#X text 228 -101 measure average- and peak-;
#X obj 37 18 * 100;
#X obj 37 63 int;
#X obj 37 41 + 0.499;
#X obj 37 86 * 0.01;
#N canvas 524 162 422 273 1p1zmodif 0;
#X text 134 89 (c) musil@iem.kug.ac.at;
#X text 179 99 IEM KUG;
#X obj 14 195 +;
#X text 151 108 graz \, austria 2001;
#X text 135 71 y[n] = a0*x[n] + a1*x[n-1] + b1*y[n-1];
#X text 18 13 x[n];
#X text 16 244 y[n];
#X text 84 111 y[n-1];
#X text 134 56 <float> control-IIR-filter 1.order;
#X obj 15 28 inlet;
#X obj 14 228 outlet;
#X obj 15 112 * 0.1;
#X obj 59 156 * 0.9;
#X text 139 144 a1 = 0;
#X text 139 155 b1 = 0.9;
#X text 139 133 a0 = 0.1;
#X obj 15 50 t f b;
#X text 135 40 Inspiré de 1p1z;
#X obj 59 112 f 0;
#X connect 2 0 10 0;
#X connect 2 0 18 1;
#X connect 9 0 16 0;
#X connect 11 0 2 0;
#X connect 12 0 2 1;
#X connect 16 0 11 0;
#X connect 16 1 18 0;
#X connect 18 0 12 0;
#X restore 37 -8 pd 1p1zmodif;
#X text 146 9 Inspiré de 5.reference/iemabs/help-dsp.pd;
#X text 141 83 25 3 2010;
#X connect 3 0 11 0;
#X connect 4 0 3 0;
#X connect 4 1 3 1;
#X connect 8 0 10 0;
#X connect 10 0 4 0;
#X connect 11 0 18 0;
#X connect 11 0 1 0;
#X connect 14 0 16 0;
#X connect 15 0 17 0;
#X connect 16 0 15 0;
#X connect 17 0 2 0;
#X connect 18 0 14 0;
#X coords 0 -1 1 1 97 43 1 100 100;
#X restore 644 37 pd ARGO;
#X text 57 394 Niveau ->;
#X text 63 404 Level ->;
#X text 434 394 Niveau ->;
#X text 440 404 Level ->;
#N canvas 464 46 492 191 ARGO 0;
#X obj 201 101 cnv 6 104 34 empty ColorAmpli Mux. 74 27 1 14 -261299
-1 1.04858e+06;
#X obj 184 148 outlet~;
#X obj 184 23 inlet~;
#X msg 68 120 label \$1;
#X obj 201 101 cnv 4 10 4 empty empty empty 20 12 0 14 -1 -66577 0
;
#X obj 201 131 cnv 4 10 4 empty empty empty 20 12 0 14 -1 -66577 0
;
#X obj 295 101 cnv 4 10 4 empty empty empty 20 12 0 14 -1 -66577 0
;
#X obj 229 23 inlet~;
#X obj 319 23 inlet~;
#X obj 230 101 cnv 4 10 4 empty empty empty 20 12 0 14 -1 -66577 0
;
#X obj 274 23 inlet~;
#X obj 263 101 cnv 4 10 4 empty empty empty 20 12 0 14 -1 -66577 0
;
#X obj 203 106 hsl 101 12 0.3 3.7 0 1 \$0-A ColorAmpli 3 0 7 1 9 -261299
-1 -1 6700 0;
#X obj 184 74 zexy/multiplex~ 1 2 3 4;
#X obj 68 51 + 1;
#X obj 67 27 int;
#X obj 370 23 cnv 15 100 70 empty empty empty 20 12 0 14 -24198 -66577
0;
#X text 393 25 library:;
#X text 374 36 pddp;
#X obj 405 142 cnv 15 42 25 empty empty empty 20 12 0 14 -24198 -66577
0;
#N canvas 336 174 316 152 ?. 0;
#X obj 8 84 cnv 15 300 56 empty empty empty 20 12 0 14 -224896 -66577
0;
#X obj 8 7 cnv 18 300 70 empty empty ARGOPdMiniModules 3 10 1 14 -4033
-1 1.04858e+06;
#X obj 31 27 cnv 10 10 10 empty empty Gerard 0 5 1 11 -4033 -1 1.04858e+06
;
#X obj 69 27 cnv 10 10 10 empty empty Paresys 0 5 1 11 -4033 -1 1.04858e+06
;
#X obj 12 40 pddp/pddplink http://gerard.paresys.free.fr/ARGOPd/;
#X text 13 85 Construit sous / Build under Pd 0.43.4-extended;
#X obj 13 111 pddp/pddplink http://puredata.info/downloads/pd-extended
;
#X obj 12 53 pddp/pddplink http://paresys.pagesperso-orange.fr/ARGOPd/
;
#X text 12 98 or Pd-0.48;
#X obj 13 124 pddp/pddplink http://puredata.info/downloads/pure-data
;
#X restore 409 146 pd ?.;
#X text 374 49 cyclone;
#X text 374 62 zexy;
#X obj 68 74 cyclone/sprintf %d;
#X text 311 104 12 3 2018;
#X obj 69 97 cyclone/tosymbol;
#X connect 2 0 13 0;
#X connect 3 0 12 0;
#X connect 7 0 13 1;
#X connect 8 0 13 3;
#X connect 10 0 13 2;
#X connect 12 0 15 0;
#X connect 13 0 1 0;
#X connect 14 0 23 0;
#X connect 15 0 14 0;
#X connect 15 0 13 0;
#X connect 23 0 25 0;
#X connect 25 0 3 0;
#X coords 0 -1 1 1 106 36 1 200 100;
#X restore 115 184 pd ARGO;
#N canvas 464 46 492 191 ARGO 0;
#X obj 201 101 cnv 6 104 34 empty ColorAmpli Mux. 74 27 1 14 -261299
-1 1.04858e+06;
#X obj 184 148 outlet~;
#X obj 184 23 inlet~;
#X msg 68 120 label \$1;
#X obj 201 101 cnv 4 10 4 empty empty empty 20 12 0 14 -1 -66577 0
;
#X obj 201 131 cnv 4 10 4 empty empty empty 20 12 0 14 -1 -66577 0
;
#X obj 295 101 cnv 4 10 4 empty empty empty 20 12 0 14 -1 -66577 0
;
#X obj 229 23 inlet~;
#X obj 319 23 inlet~;
#X obj 230 101 cnv 4 10 4 empty empty empty 20 12 0 14 -1 -66577 0
;
#X obj 274 23 inlet~;
#X obj 263 101 cnv 4 10 4 empty empty empty 20 12 0 14 -1 -66577 0
;
#X obj 203 106 hsl 101 12 0.3 3.7 0 1 \$0-A ColorAmpli 3 0 7 1 9 -261299
-1 -1 6600 0;
#X obj 184 74 zexy/multiplex~ 1 2 3 4;
#X obj 68 51 + 1;
#X obj 67 27 int;
#X obj 370 23 cnv 15 100 70 empty empty empty 20 12 0 14 -24198 -66577
0;
#X text 393 25 library:;
#X text 374 36 pddp;
#X obj 405 142 cnv 15 42 25 empty empty empty 20 12 0 14 -24198 -66577
0;
#N canvas 336 174 316 152 ?. 0;
#X obj 8 84 cnv 15 300 56 empty empty empty 20 12 0 14 -224896 -66577
0;
#X obj 8 7 cnv 18 300 70 empty empty ARGOPdMiniModules 3 10 1 14 -4033
-1 1.04858e+06;
#X obj 31 27 cnv 10 10 10 empty empty Gerard 0 5 1 11 -4033 -1 1.04858e+06
;
#X obj 69 27 cnv 10 10 10 empty empty Paresys 0 5 1 11 -4033 -1 1.04858e+06
;
#X obj 12 40 pddp/pddplink http://gerard.paresys.free.fr/ARGOPd/;
#X text 13 85 Construit sous / Build under Pd 0.43.4-extended;
#X obj 13 111 pddp/pddplink http://puredata.info/downloads/pd-extended
;
#X obj 12 53 pddp/pddplink http://paresys.pagesperso-orange.fr/ARGOPd/
;
#X text 12 98 or Pd-0.48;
#X obj 13 124 pddp/pddplink http://puredata.info/downloads/pure-data
;
#X restore 409 146 pd ?.;
#X text 374 49 cyclone;
#X text 374 62 zexy;
#X obj 68 74 cyclone/sprintf %d;
#X text 311 104 12 3 2018;
#X obj 69 97 cyclone/tosymbol;
#X connect 2 0 13 0;
#X connect 3 0 12 0;
#X connect 7 0 13 1;
#X connect 8 0 13 3;
#X connect 10 0 13 2;
#X connect 12 0 15 0;
#X connect 13 0 1 0;
#X connect 14 0 23 0;
#X connect 15 0 14 0;
#X connect 15 0 13 0;
#X connect 23 0 25 0;
#X connect 25 0 3 0;
#X coords 0 -1 1 1 106 36 1 200 100;
#X restore 493 184 pd ARGO;
#N canvas 175 68 374 396 ARGO 0;
#X obj 101 101 cnv 20 116 34 empty ColorAmpli empty 20 12 0 14 -261299
-1 1.04858e+06;
#X obj 85 353 outlet~;
#X obj 157 104 cnv 10 20 10 empty ColorAmpli Ampli. 1 5 1 14 -261299
-1 1.04858e+06;
#X obj 85 43 inlet~;
#X obj 85 330 *~;
#X obj 115 118 hsl 101 12 -80 20 0 1 \$0-A ColorAmpli -80dB 0 7 1 9
-261299 -1 -1 0 0;
#X obj 101 101 cnv 4 10 4 empty empty empty 20 12 0 14 -1 -66577 0
;
#X obj 101 131 cnv 4 10 4 empty empty empty 20 12 0 14 -1 -66577 0
;
#X msg -42 139 label \$1;
#X text 148 194 -> 0.0001..10 = -80dB..20dB;
#X obj 142 175 expr (pow(10 \, $f1 / 20));
#X obj 142 215 sel 0.0001;
#X msg 100 244 0;
#X obj 100 118 tgl 12 1 \$0-A \$0-B Mute 2 -5 1 9 -261299 -1 -1 0 1
;
#X obj 99 146 select 0 1;
#X obj 140 295 line~;
#X obj 140 275 pack 0 10;
#X msg 123 74 set 0;
#X obj -42 93 cyclone/sprintf %ddB;
#X obj -42 116 cyclone/tosymbol;
#X obj 261 342 cnv 15 42 25 empty empty empty 20 12 0 14 -24198 -66577
0;
#N canvas 336 174 309 137 ?. 0;
#X obj 3 83 cnv 15 300 46 empty empty empty 20 12 0 14 -224896 -66577
0;
#X obj 3 6 cnv 18 300 70 empty empty ARGOPdMiniModules 3 10 1 14 -4033
-1 1.04858e+06;
#X obj 26 26 cnv 10 10 10 empty empty Gerard 0 5 1 11 -4033 -1 1.04858e+06
;
#X obj 64 26 cnv 10 10 10 empty empty Paresys 0 5 1 11 -4033 -1 1.04858e+06
;
#X obj 7 37 pddp/pddplink http://gerard.paresys.free.fr/ARGOPd/;
#X text 8 85 Construit sous / Build under Pd 0.43.4-extended;
#X obj 8 111 pddp/pddplink http://puredata.info/downloads/pd-extended
;
#X obj 7 50 pddp/pddplink http://paresys.pagesperso-orange.fr/ARGOPd/
;
#X text 7 98 or Pd-0.46-7 + deken;
#X restore 265 346 pd ?.;
#X text 228 110 17 3 2016;
#X connect 3 0 4 0;
#X connect 4 0 1 0;
#X connect 5 0 10 0;
#X connect 5 0 18 0;
#X connect 8 0 5 0;
#X connect 10 0 11 0;
#X connect 11 0 12 0;
#X connect 11 1 16 0;
#X connect 11 1 17 0;
#X connect 12 0 16 0;
#X connect 12 0 19 0;
#X connect 13 0 14 0;
#X connect 14 0 5 0;
#X connect 14 1 12 0;
#X connect 15 0 4 1;
#X connect 16 0 15 0;
#X connect 17 0 13 0;
#X connect 18 0 19 0;
#X connect 19 0 8 0;
#X coords 0 -1 1 1 118 36 1 100 100;
#X restore 115 384 pd ARGO;
#N canvas 175 68 374 396 ARGO 0;
#X obj 101 101 cnv 20 116 34 empty ColorAmpli empty 20 12 0 14 -261299
-1 1.04858e+06;
#X obj 85 353 outlet~;
#X obj 157 104 cnv 10 20 10 empty ColorAmpli Ampli. 1 5 1 14 -261299
-1 1.04858e+06;
#X obj 85 43 inlet~;
#X obj 85 330 *~;
#X obj 115 118 hsl 101 12 -80 20 0 1 \$0-A ColorAmpli 0 0 7 1 9 -261299
-1 -1 7000 0;
#X obj 101 101 cnv 4 10 4 empty empty empty 20 12 0 14 -1 -66577 0
;
#X obj 101 131 cnv 4 10 4 empty empty empty 20 12 0 14 -1 -66577 0
;
#X msg -42 139 label \$1;
#X text 148 194 -> 0.0001..10 = -80dB..20dB;
#X obj 142 175 expr (pow(10 \, $f1 / 20));
#X obj 142 215 sel 0.0001;
#X msg 100 244 0;
#X obj 100 118 tgl 12 1 \$0-A \$0-B Mute 2 -5 1 9 -261299 -1 -1 1 1
;
#X obj 99 146 select 0 1;
#X obj 140 295 line~;
#X obj 140 275 pack 0 10;
#X msg 123 74 set 0;
#X obj -42 93 cyclone/sprintf %ddB;
#X obj -42 116 cyclone/tosymbol;
#X obj 261 342 cnv 15 42 25 empty empty empty 20 12 0 14 -24198 -66577
0;
#N canvas 336 174 309 137 ?. 0;
#X obj 3 83 cnv 15 300 46 empty empty empty 20 12 0 14 -224896 -66577
0;
#X obj 3 6 cnv 18 300 70 empty empty ARGOPdMiniModules 3 10 1 14 -4033
-1 1.04858e+06;
#X obj 26 26 cnv 10 10 10 empty empty Gerard 0 5 1 11 -4033 -1 1.04858e+06
;
#X obj 64 26 cnv 10 10 10 empty empty Paresys 0 5 1 11 -4033 -1 1.04858e+06
;
#X obj 7 37 pddp/pddplink http://gerard.paresys.free.fr/ARGOPd/;
#X text 8 85 Construit sous / Build under Pd 0.43.4-extended;
#X obj 8 111 pddp/pddplink http://puredata.info/downloads/pd-extended
;
#X obj 7 50 pddp/pddplink http://paresys.pagesperso-orange.fr/ARGOPd/
;
#X text 7 98 or Pd-0.46-7 + deken;
#X restore 265 346 pd ?.;
#X text 228 110 17 3 2016;
#X connect 3 0 4 0;
#X connect 4 0 1 0;
#X connect 5 0 10 0;
#X connect 5 0 18 0;
#X connect 8 0 5 0;
#X connect 10 0 11 0;
#X connect 11 0 12 0;
#X connect 11 1 16 0;
#X connect 11 1 17 0;
#X connect 12 0 16 0;
#X connect 12 0 19 0;
#X connect 13 0 14 0;
#X connect 14 0 5 0;
#X connect 14 1 12 0;
#X connect 15 0 4 1;
#X connect 16 0 15 0;
#X connect 17 0 13 0;
#X connect 18 0 19 0;
#X connect 19 0 8 0;
#X coords 0 -1 1 1 118 36 1 100 100;
#X restore 493 384 pd ARGO;
#N canvas 175 68 374 396 ARGO 0;
#X obj 101 101 cnv 20 116 34 empty ColorAmpli empty 20 12 0 14 -261299
-1 1.04858e+06;
#X obj 85 353 outlet~;
#X obj 157 104 cnv 10 20 10 empty ColorAmpli Ampli. 1 5 1 14 -261299
-1 1.04858e+06;
#X obj 85 43 inlet~;
#X obj 85 330 *~;
#X obj 115 118 hsl 101 12 -80 20 0 1 \$0-A ColorAmpli -44dB 0 7 1 9
-261299 -1 -1 3600 0;
#X obj 101 101 cnv 4 10 4 empty empty empty 20 12 0 14 -1 -66577 0
;
#X obj 101 131 cnv 4 10 4 empty empty empty 20 12 0 14 -1 -66577 0
;
#X msg -42 139 label \$1;
#X text 148 194 -> 0.0001..10 = -80dB..20dB;
#X obj 142 175 expr (pow(10 \, $f1 / 20));
#X obj 142 215 sel 0.0001;
#X msg 100 244 0;
#X obj 100 118 tgl 12 1 \$0-A \$0-B Mute 2 -5 1 9 -261299 -1 -1 0 1
;
#X obj 99 146 select 0 1;
#X obj 140 295 line~;
#X obj 140 275 pack 0 10;
#X msg 123 74 set 0;
#X obj -42 93 cyclone/sprintf %ddB;
#X obj -42 116 cyclone/tosymbol;
#X obj 261 342 cnv 15 42 25 empty empty empty 20 12 0 14 -24198 -66577
0;
#N canvas 336 174 309 137 ?. 0;
#X obj 3 83 cnv 15 300 46 empty empty empty 20 12 0 14 -224896 -66577
0;
#X obj 3 6 cnv 18 300 70 empty empty ARGOPdMiniModules 3 10 1 14 -4033
-1 1.04858e+06;
#X obj 26 26 cnv 10 10 10 empty empty Gerard 0 5 1 11 -4033 -1 1.04858e+06
;
#X obj 64 26 cnv 10 10 10 empty empty Paresys 0 5 1 11 -4033 -1 1.04858e+06
;
#X obj 7 37 pddp/pddplink http://gerard.paresys.free.fr/ARGOPd/;
#X text 8 85 Construit sous / Build under Pd 0.43.4-extended;
#X obj 8 111 pddp/pddplink http://puredata.info/downloads/pd-extended
;
#X obj 7 50 pddp/pddplink http://paresys.pagesperso-orange.fr/ARGOPd/
;
#X text 7 98 or Pd-0.46-7 + deken;
#X restore 265 346 pd ?.;
#X text 228 110 17 3 2016;
#X connect 3 0 4 0;
#X connect 4 0 1 0;
#X connect 5 0 10 0;
#X connect 5 0 18 0;
#X connect 8 0 5 0;
#X connect 10 0 11 0;
#X connect 11 0 12 0;
#X connect 11 1 16 0;
#X connect 11 1 17 0;
#X connect 12 0 16 0;
#X connect 12 0 19 0;
#X connect 13 0 14 0;
#X connect 14 0 5 0;
#X connect 14 1 12 0;
#X connect 15 0 4 1;
#X connect 16 0 15 0;
#X connect 17 0 13 0;
#X connect 18 0 19 0;
#X connect 19 0 8 0;
#X coords 0 -1 1 1 118 36 1 100 100;
#X restore 520 67 pd ARGO;
#X obj 726 442 cnv 15 34 16 empty empty empty 20 12 0 14 -24198 -66577
0;
#N canvas 353 174 333 161 ?? 0;
#X obj 17 89 cnv 15 300 56 empty empty empty 20 12 0 14 -224896 -66577
0;
#X obj 17 12 cnv 18 300 70 empty empty ARGOPdMiniModules 3 10 1 14
-4033 -1 1.04858e+06;
#X obj 40 32 cnv 10 10 10 empty empty Gerard 0 5 1 11 -4033 -1 1.04858e+06
;
#X obj 78 32 cnv 10 10 10 empty empty Paresys 0 5 1 11 -4033 -1 1.04858e+06
;
#X obj 20 54 pddp/pddplink http://gerard.paresys.free.fr/ARGOPd/;
#X obj 22 126 pddp/pddplink http://puredata.info/downloads/pd-extended
;
#X obj 22 102 pddp/pddplink http://puredata.info/downloads/pure-data
;
#X text 22 90 Construit sous / Build under Pd-0.49...;
#X text 21 114 or Pd 0.43.4-extended;
#X obj 20 66 pddp/pddplink https://paresys.pagesperso-orange.fr/ARGOPd/
;
#X obj 20 42 pddp/pddplink https://github.com/gerardparesys/ARGOPd
;
#X restore 726 442 pd ??;
#N canvas 53 205 506 397 ARGO 0;
#X obj 101 101 cnv 20 244 43 empty ColorTime empty 0 0 1 14 -208064
-1 1.04858e+06;
#X obj 110 350 outlet~;
#X obj 101 140 cnv 4 10 4 empty empty empty 20 12 0 14 -1 -66577 0
;
#X obj 101 101 cnv 4 10 4 empty empty empty 20 12 0 14 -1728 -66577
0;
#X obj 163 350 outlet~;
#X obj 335 140 cnv 4 10 4 empty empty empty 0 0 0 9 -1 -66577 0;
#X obj 92 169 phasor~;
#X obj 167 196 -~ 0.5;
#X obj 187 255 *~;
#X obj 268 301 +~ 0.125;
#X obj 217 350 outlet~;
#X obj 110 325 *~ 2;
#X obj 164 324 *~ -2;
#X obj 218 325 *~ 2;
#X obj 268 325 *~ 8;
#X obj 268 350 outlet~;
#X obj 256 140 cnv 4 10 4 empty empty empty 0 0 0 9 -1 -66577 0;
#X obj 177 140 cnv 4 10 4 empty empty empty 0 0 0 9 -1 -66577 0;
#X text 313 143 Triangle;
#X obj 289 106 nbx 7 12 0 20000 0 1 \$0-A ColorTime Hz -13 7 1 9 -208064
-1 -1 5919.91 256;
#X obj 62 29 inlet~;
#X obj 103 118 hsl 241 12 0 1 0 0 \$0-A ColorTime empty 0 7 1 9 -262144
-1 -1 22200 0;
#X obj 103 118 hsl 241 12 0 1 0 0 \$0-A ColorTime Gb7 0 7 1 9 -208064
-1728 -1 22169 0;
#X obj 70 202 cnv 15 60 30 empty empty empty 20 12 0 14 -24198 -66577
0;
#N canvas 371 90 425 238 Help 0;
#X obj 8 100 cnv 15 400 100 empty empty empty 20 12 0 14 -233017 -66577
0;
#X text 12 102 Citation;
#X text 21 118 The phasor~ object outputs a sawtooth signal...;
#X text 11 21 Oscillateur en forme de Rampes Rectangle Triangle;
#X text 11 38 Rampe = Dent de scie = Sawtooth;
#X text 10 68 Sensibilité de l'entrée de contrôle de la fréquence:
;
#X text 10 56 Frequency control input sensitivity:;
#X text 10 80 1 = 240 x semitone = 20 octaves;
#X text 11 11 Oscillator: Ramp Rectangle Triangle;
#X restore 77 208 pd Help;
#N canvas 686 258 344 337 Freq-v7-sig- 0;
#X obj 228 58 ftom;
#X obj 281 217 mtof;
#X obj 143 142 +~;
#X obj 11 172 snapshot~;
#X obj 11 194 change;
#X msg 11 219 set \$1;
#X obj 143 245 clip~ 0 20000;
#X obj 143 222 mtof~;
#X obj 143 274 outlet~;
#X obj 281 35 inlet;
#X obj 228 34 inlet;
#X obj 66 274 outlet;
#X obj 281 274 outlet;
#X text 63 292 Hslider;
#X obj 143 39 inlet~;
#X obj 10 38 loadbang;
#X obj 231 274 outlet;
#X obj 281 156 * 240;
#X obj 281 179 - 108;
#X obj 143 170 *~ 240;
#X obj 143 192 -~ 108;
#X obj 228 81 + 108;
#X obj 228 103 / 240;
#X obj 11 87 metro 200;
#X obj 66 38 r SendFluid;
#X text 72 303 Over;
#X text 283 292 Number;
#X text 224 17 Number;
#X text 230 291 Hslider;
#X text 232 302 Under;
#X text 283 5 Hslider;
#X text 288 16 Under;
#X msg 231 244 set \$1;
#N canvas 459 170 558 314 pitchb 0;
#X obj 77 119 mod 12;
#X obj 77 143 sel 0 1 2 3 4 5 6 7 8 9 10 11;
#X msg 253 178 A;
#X msg 307 178 B;
#X msg 199 178 G;
#X msg 10 178 C;
#X msg 64 178 D;
#X msg 118 178 E;
#X msg 145 178 F;
#X obj 211 9 inlet;
#X obj 384 123 div 12;
#X obj 211 87 t f f;
#X text 390 195 -> Numero de l'octave;
#X text 220 72 -> Numero MIDI de la note (69 = A3 = 440Hz);
#X msg 267 268 label \$1;
#X obj 267 291 outlet;
#X msg 37 178 Db;
#X msg 91 178 Eb;
#X msg 172 178 Gb;
#X msg 226 178 Ab;
#X msg 280 178 Bb;
#X text 376 86 (70 = A#3 = Bb3);
#X obj 267 246 symbol;
#X text 18 239 Impossible d'afficher # dans un label;
#X text 18 251 donc j'affiche b;
#X obj 211 59 int;
#X text 262 31 -> pour corriger certaines erreurs de calcul;
#X obj 211 33 + 120.1;
#X obj 384 152 - 12;
#X text 262 43 et le pb du passage a zero de mod 12;
#X obj 267 221 cyclone/sprintf %s%d;
#X connect 0 0 1 0;
#X connect 1 0 5 0;
#X connect 1 1 16 0;
#X connect 1 2 6 0;
#X connect 1 3 17 0;
#X connect 1 4 7 0;
#X connect 1 5 8 0;
#X connect 1 6 18 0;
#X connect 1 7 4 0;
#X connect 1 8 19 0;
#X connect 1 9 2 0;
#X connect 1 10 20 0;
#X connect 1 11 3 0;
#X connect 2 0 30 0;
#X connect 3 0 30 0;
#X connect 4 0 30 0;
#X connect 5 0 30 0;
#X connect 6 0 30 0;
#X connect 7 0 30 0;
#X connect 8 0 30 0;
#X connect 9 0 27 0;
#X connect 10 0 28 0;
#X connect 11 0 0 0;
#X connect 11 1 10 0;
#X connect 14 0 15 0;
#X connect 16 0 30 0;
#X connect 17 0 30 0;
#X connect 18 0 30 0;
#X connect 19 0 30 0;
#X connect 20 0 30 0;
#X connect 22 0 14 0;
#X connect 25 0 11 0;
#X connect 27 0 25 0;
#X connect 28 0 30 1;
#X connect 30 0 22 0;
#X restore 79 142 pd pitchb;
#X connect 0 0 21 0;
#X connect 0 0 33 0;
#X connect 1 0 12 0;
#X connect 2 0 3 0;
#X connect 2 0 19 0;
#X connect 3 0 4 0;
#X connect 4 0 5 0;
#X connect 5 0 11 0;
#X connect 6 0 8 0;
#X connect 7 0 6 0;
#X connect 9 0 17 0;
#X connect 10 0 0 0;
#X connect 14 0 2 0;
#X connect 15 0 23 0;
#X connect 17 0 18 0;
#X connect 18 0 1 0;
#X connect 19 0 20 0;
#X connect 20 0 7 0;
#X connect 21 0 22 0;
#X connect 22 0 2 1;
#X connect 22 0 32 0;
#X connect 23 0 3 0;
#X connect 24 0 23 1;
#X connect 32 0 16 0;
#X connect 33 0 11 0;
#X restore 62 63 pd Freq-v7-sig-;
#X obj 221 225 expr~ ($v1 < 0) - 0.5;
#X obj 372 24 cnv 15 100 70 empty empty empty 20 12 0 14 -24198 -66577
0;
#X text 395 26 library:;
#X text 376 37 pddp;
#X text 376 50 cyclone;
#X text 296 85 4 5 2020;
#X text 349 125 2 HSLIDER superposés;
#X text 374 104 ATTENTION;
#X obj 331 352 cnv 15 34 16 empty empty empty 20 12 0 14 -24198 -66577
0;
#N canvas 353 174 333 161 ?? 0;
#X obj 17 89 cnv 15 300 56 empty empty empty 20 12 0 14 -224896 -66577
0;
#X obj 17 12 cnv 18 300 70 empty empty ARGOPdMiniModules 3 10 1 14
-4033 -1 1.04858e+06;
#X obj 40 32 cnv 10 10 10 empty empty Gerard 0 5 1 11 -4033 -1 1.04858e+06
;
#X obj 78 32 cnv 10 10 10 empty empty Paresys 0 5 1 11 -4033 -1 1.04858e+06
;
#X obj 20 54 pddp/pddplink http://gerard.paresys.free.fr/ARGOPd/;
#X obj 22 126 pddp/pddplink http://puredata.info/downloads/pd-extended
;
#X obj 22 102 pddp/pddplink http://puredata.info/downloads/pure-data
;
#X text 22 90 Construit sous / Build under Pd-0.49...;
#X text 21 114 or Pd 0.43.4-extended;
#X obj 20 66 pddp/pddplink https://paresys.pagesperso-orange.fr/ARGOPd/
;
#X obj 20 42 pddp/pddplink https://github.com/gerardparesys/ARGOPd
;
#X restore 331 352 pd ??;
#X obj 335 101 cnv 4 10 4 empty empty empty 20 12 0 14 -260097 -66577
0;
#X obj 113 19 cnv 15 240 30 empty empty empty 20 12 0 14 -261682 -66577
0;
#X obj 316 26 inlet;
#X text 114 27 NoteMIDI;
#X obj 289 65 mtof;
#X text 168 26 -108 ..132 = C-11..C9 ->;
#X text 350 115 2 overlapping HSLIDER;
#X obj 142 109 cnv 5 1 1 empty ColorTime Oscill-TriRectangle. 0 0 1
14 -208064 -1 1.04858e+06;
#X text 95 143 Ramp;
#X text 98 152 Up;
#X text 168 143 Ramp;
#X text 169 152 Down;
#X obj 102 134 cnv 4 4 4 empty ColorTime RUp -1 1 1 10 -208064 -1 1.04858e+06
;
#X obj 165 134 cnv 4 4 4 empty ColorTime RDown 1 1 1 10 -208064 -1
1.04858e+06;
#X obj 242 134 cnv 4 4 4 empty ColorTime Square 1 1 1 10 -208064 -1
1.04858e+06;
#X obj 332 134 cnv 4 4 4 empty ColorTime Tri 1 1 1 10 -208064 -1 1.04858e+06
;
#X text 240 143 Square;
#X connect 6 0 7 0;
#X connect 7 0 11 0;
#X connect 7 0 12 0;
#X connect 7 0 8 0;
#X connect 7 0 26 0;
#X connect 8 0 9 0;
#X connect 9 0 14 0;
#X connect 11 0 1 0;
#X connect 12 0 4 0;
#X connect 13 0 10 0;
#X connect 14 0 15 0;
#X connect 19 0 25 1;
#X connect 20 0 25 0;
#X connect 21 0 25 2;
#X connect 25 0 22 0;
#X connect 25 1 6 0;
#X connect 25 2 21 0;
#X connect 25 3 19 0;
#X connect 26 0 8 1;
#X connect 26 0 13 0;
#X connect 38 0 40 0;
#X connect 40 0 19 0;
#X coords 0 -1 1 1 246 45 1 100 100;
#X restore 49 117 pd ARGO;
#X text 89 94 Without/Sans Anti-Aliasing;
#X text 582 107 With/Avec Anti-Aliasing;
#N canvas 53 205 506 397 ARGO 0;
#X obj 101 101 cnv 20 244 43 empty ColorTime empty 0 0 1 14 -208064
-1 1.04858e+06;
#X obj 110 350 outlet~;
#X obj 101 140 cnv 4 10 4 empty empty empty 20 12 0 14 -1 -66577 0
;
#X obj 101 101 cnv 4 10 4 empty empty empty 20 12 0 14 -1728 -66577
0;
#X obj 163 350 outlet~;
#X obj 335 140 cnv 4 10 4 empty empty empty 0 0 0 9 -1 -66577 0;
#X obj 92 169 phasor~;
#X obj 167 196 -~ 0.5;
#X obj 187 255 *~;
#X obj 268 301 +~ 0.125;
#X obj 217 350 outlet~;
#X obj 110 325 *~ 2;
#X obj 164 324 *~ -2;
#X obj 218 325 *~ 2;
#X obj 268 325 *~ 8;
#X obj 268 350 outlet~;
#X obj 256 140 cnv 4 10 4 empty empty empty 0 0 0 9 -1 -66577 0;
#X obj 177 140 cnv 4 10 4 empty empty empty 0 0 0 9 -1 -66577 0;
#X text 313 143 Triangle;
#X obj 289 106 nbx 7 12 0 20000 0 1 \$0-A ColorTime Hz -13 7 1 9 -208064
-1 -1 1 256;
#X obj 62 29 inlet~;
#X obj 103 118 hsl 241 12 0 1 0 0 \$0-A ColorTime empty 0 7 1 9 -262144
-1 -1 7162 0;
#X obj 103 118 hsl 241 12 0 1 0 0 \$0-A ColorTime B-6 0 7 1 9 -208064
-1728 -1 7162 0;
#X obj 70 202 cnv 15 60 30 empty empty empty 20 12 0 14 -24198 -66577
0;
#N canvas 371 90 425 238 Help 0;
#X obj 8 100 cnv 15 400 100 empty empty empty 20 12 0 14 -233017 -66577
0;
#X text 12 102 Citation;
#X text 21 118 The phasor~ object outputs a sawtooth signal...;
#X text 11 21 Oscillateur en forme de Rampes Rectangle Triangle;
#X text 11 38 Rampe = Dent de scie = Sawtooth;
#X text 10 68 Sensibilité de l'entrée de contrôle de la fréquence:
;
#X text 10 56 Frequency control input sensitivity:;
#X text 10 80 1 = 240 x semitone = 20 octaves;
#X text 11 11 Oscillator: Ramp Rectangle Triangle;
#X restore 77 208 pd Help;
#N canvas 686 258 344 337 Freq-v7-sig- 0;
#X obj 228 58 ftom;
#X obj 281 217 mtof;
#X obj 143 142 +~;
#X obj 11 172 snapshot~;
#X obj 11 194 change;
#X msg 11 219 set \$1;
#X obj 143 245 clip~ 0 20000;
#X obj 143 222 mtof~;
#X obj 143 274 outlet~;
#X obj 281 35 inlet;
#X obj 228 34 inlet;
#X obj 66 274 outlet;
#X obj 281 274 outlet;
#X text 63 292 Hslider;
#X obj 143 39 inlet~;
#X obj 10 38 loadbang;
#X obj 231 274 outlet;
#X obj 281 156 * 240;
#X obj 281 179 - 108;
#X obj 143 170 *~ 240;
#X obj 143 192 -~ 108;
#X obj 228 81 + 108;
#X obj 228 103 / 240;
#X obj 11 87 metro 200;
#X obj 66 38 r SendFluid;
#X text 72 303 Over;
#X text 283 292 Number;
#X text 224 17 Number;
#X text 230 291 Hslider;
#X text 232 302 Under;
#X text 283 5 Hslider;
#X text 288 16 Under;
#X msg 231 244 set \$1;
#N canvas 459 170 558 314 pitchb 0;
#X obj 77 119 mod 12;
#X obj 77 143 sel 0 1 2 3 4 5 6 7 8 9 10 11;
#X msg 253 178 A;
#X msg 307 178 B;
#X msg 199 178 G;
#X msg 10 178 C;
#X msg 64 178 D;
#X msg 118 178 E;
#X msg 145 178 F;
#X obj 211 9 inlet;
#X obj 384 123 div 12;
#X obj 211 87 t f f;
#X text 390 195 -> Numero de l'octave;
#X text 220 72 -> Numero MIDI de la note (69 = A3 = 440Hz);
#X msg 267 268 label \$1;
#X obj 267 291 outlet;
#X msg 37 178 Db;
#X msg 91 178 Eb;
#X msg 172 178 Gb;
#X msg 226 178 Ab;
#X msg 280 178 Bb;
#X text 376 86 (70 = A#3 = Bb3);
#X obj 267 246 symbol;
#X text 18 239 Impossible d'afficher # dans un label;
#X text 18 251 donc j'affiche b;
#X obj 211 59 int;
#X text 262 31 -> pour corriger certaines erreurs de calcul;
#X obj 211 33 + 120.1;
#X obj 384 152 - 12;
#X text 262 43 et le pb du passage a zero de mod 12;
#X obj 267 221 cyclone/sprintf %s%d;
#X connect 0 0 1 0;
#X connect 1 0 5 0;
#X connect 1 1 16 0;
#X connect 1 2 6 0;
#X connect 1 3 17 0;
#X connect 1 4 7 0;
#X connect 1 5 8 0;
#X connect 1 6 18 0;
#X connect 1 7 4 0;
#X connect 1 8 19 0;
#X connect 1 9 2 0;
#X connect 1 10 20 0;
#X connect 1 11 3 0;
#X connect 2 0 30 0;
#X connect 3 0 30 0;
#X connect 4 0 30 0;
#X connect 5 0 30 0;
#X connect 6 0 30 0;
#X connect 7 0 30 0;
#X connect 8 0 30 0;
#X connect 9 0 27 0;
#X connect 10 0 28 0;
#X connect 11 0 0 0;
#X connect 11 1 10 0;
#X connect 14 0 15 0;
#X connect 16 0 30 0;
#X connect 17 0 30 0;
#X connect 18 0 30 0;
#X connect 19 0 30 0;
#X connect 20 0 30 0;
#X connect 22 0 14 0;
#X connect 25 0 11 0;
#X connect 27 0 25 0;
#X connect 28 0 30 1;
#X connect 30 0 22 0;
#X restore 79 142 pd pitchb;
#X connect 0 0 21 0;
#X connect 0 0 33 0;
#X connect 1 0 12 0;
#X connect 2 0 3 0;
#X connect 2 0 19 0;
#X connect 3 0 4 0;
#X connect 4 0 5 0;
#X connect 5 0 11 0;
#X connect 6 0 8 0;
#X connect 7 0 6 0;
#X connect 9 0 17 0;
#X connect 10 0 0 0;
#X connect 14 0 2 0;
#X connect 15 0 23 0;
#X connect 17 0 18 0;
#X connect 18 0 1 0;
#X connect 19 0 20 0;
#X connect 20 0 7 0;
#X connect 21 0 22 0;
#X connect 22 0 2 1;
#X connect 22 0 32 0;
#X connect 23 0 3 0;
#X connect 24 0 23 1;
#X connect 32 0 16 0;
#X connect 33 0 11 0;
#X restore 62 63 pd Freq-v7-sig-;
#X obj 221 225 expr~ ($v1 < 0) - 0.5;
#X obj 372 24 cnv 15 100 70 empty empty empty 20 12 0 14 -24198 -66577
0;
#X text 395 26 library:;
#X text 376 37 pddp;
#X text 376 50 cyclone;
#X text 296 85 4 5 2020;
#X text 349 125 2 HSLIDER superposés;
#X text 374 104 ATTENTION;
#X obj 331 352 cnv 15 34 16 empty empty empty 20 12 0 14 -24198 -66577
0;
#N canvas 353 174 333 161 ?? 0;
#X obj 17 89 cnv 15 300 56 empty empty empty 20 12 0 14 -224896 -66577
0;
#X obj 17 12 cnv 18 300 70 empty empty ARGOPdMiniModules 3 10 1 14
-4033 -1 1.04858e+06;
#X obj 40 32 cnv 10 10 10 empty empty Gerard 0 5 1 11 -4033 -1 1.04858e+06
;
#X obj 78 32 cnv 10 10 10 empty empty Paresys 0 5 1 11 -4033 -1 1.04858e+06
;
#X obj 20 54 pddp/pddplink http://gerard.paresys.free.fr/ARGOPd/;
#X obj 22 126 pddp/pddplink http://puredata.info/downloads/pd-extended
;
#X obj 22 102 pddp/pddplink http://puredata.info/downloads/pure-data
;
#X text 22 90 Construit sous / Build under Pd-0.49...;
#X text 21 114 or Pd 0.43.4-extended;
#X obj 20 66 pddp/pddplink https://paresys.pagesperso-orange.fr/ARGOPd/
;
#X obj 20 42 pddp/pddplink https://github.com/gerardparesys/ARGOPd
;
#X restore 331 352 pd ??;
#X obj 335 101 cnv 4 10 4 empty empty empty 20 12 0 14 -260097 -66577
0;
#X obj 113 19 cnv 15 240 30 empty empty empty 20 12 0 14 -261682 -66577
0;
#X obj 316 26 inlet;
#X text 114 27 NoteMIDI;
#X obj 289 65 mtof;
#X text 168 26 -108 ..132 = C-11..C9 ->;
#X text 350 115 2 overlapping HSLIDER;
#X obj 142 109 cnv 5 1 1 empty ColorTime Oscill-TriRectangle. 0 0 1
14 -208064 -1 1.04858e+06;
#X text 95 143 Ramp;
#X text 98 152 Up;
#X text 168 143 Ramp;
#X text 169 152 Down;
#X obj 102 134 cnv 4 4 4 empty ColorTime RUp -1 1 1 10 -208064 -1 1.04858e+06
;
#X obj 165 134 cnv 4 4 4 empty ColorTime RDown 1 1 1 10 -208064 -1
1.04858e+06;
#X obj 242 134 cnv 4 4 4 empty ColorTime Square 1 1 1 10 -208064 -1
1.04858e+06;
#X obj 332 134 cnv 4 4 4 empty ColorTime Tri 1 1 1 10 -208064 -1 1.04858e+06
;
#X text 240 143 Square;
#X connect 6 0 7 0;
#X connect 7 0 11 0;
#X connect 7 0 12 0;
#X connect 7 0 8 0;
#X connect 7 0 26 0;
#X connect 8 0 9 0;
#X connect 9 0 14 0;
#X connect 11 0 1 0;
#X connect 12 0 4 0;
#X connect 13 0 10 0;
#X connect 14 0 15 0;
#X connect 19 0 25 1;
#X connect 20 0 25 0;
#X connect 21 0 25 2;
#X connect 25 0 22 0;
#X connect 25 1 6 0;
#X connect 25 2 21 0;
#X connect 25 3 19 0;
#X connect 26 0 8 1;
#X connect 26 0 13 0;
#X connect 38 0 40 0;
#X connect 40 0 19 0;
#X coords 0 -1 1 1 246 45 1 100 100;
#X restore 281 11 pd ARGO;
#N canvas 47 374 590 395 ARGO 0;
#X obj 262 100 rfft~;
#X msg 23 131 slide 10 10;
#X msg 7 277 range 0 512 \, 2 \, bufsize 512;
#X obj 262 27 inlet~;
#X msg 4 158 slide 1 1;
#X obj 103 131 *~ 0.361;
#X obj 201 201 cnv 12 196 34 empty empty empty 20 12 0 14 -262144 -1
1.04858e+06;
#X obj 423 166 cnv 10 44 10 empty empty Spectrum(2kHz/div). 1 5 1 14
-262144 -1 1.04858e+06;
#X obj 201 201 cnv 4 10 4 empty empty empty 20 12 0 14 -1 -66577 0
;
#X obj 234 206 tgl 12 1 \$0-SendLoop \$0-ReceiveLoop Gliss 15 6 1 9
-262144 -1 -1 0 1;
#X obj 4 104 sel 0 1;
#X msg 6 233 frgb 255 0 0;
#X msg 7 255 brgb 255 255 255;
#X obj 262 78 *~ 10;
#X obj 103 173 cyclone/vectral~ 1024;
#X obj 103 27 cyclone/count~ 0 1024 1 1;
#X obj 262 127 cyclone/cartopol~;
#X obj 201 220 cyclone/scope~ 198 129 4 3 256 0 512 0 0 0 0 255 0 0
255 252 255 0 98 102 0 empty;
#X obj 423 205 cnv 15 100 70 empty empty empty 20 12 0 14 -24198 -66577
0;
#X text 446 207 library:;
#X text 427 218 pddp;
#X text 427 231 cyclone;
#X obj 200 206 tgl 12 1 \$0-A \$0-B On 15 7 1 9 -262144 -1 -1 1 1;
#X obj 116 361 switch~ 1024 1 1;
#X msg 8 298 range 0 512 \, 4 \, bufsize 256;
#X msg 11 319 range 0 512 \, 8 \, bufsize 128;
#X obj 8 57 cnv 15 60 30 empty empty empty 20 12 0 14 -24198 -66577
0;
#N canvas 71 497 410 134 Help 0;
#X text 42 31 Spectrum;
#X text 41 52 With scope~ object of cyclone library;
#X text 41 72 Avec l'objet scope~ de la library cyclone;
#X restore 15 63 pd Help;
#X obj 505 358 cnv 15 34 16 empty empty empty 20 12 0 14 -24198 -66577
0;
#N canvas 353 174 333 161 ?? 0;
#X obj 17 89 cnv 15 300 56 empty empty empty 20 12 0 14 -224896 -66577
0;
#X obj 17 12 cnv 18 300 70 empty empty ARGOPdMiniModules 3 10 1 14
-4033 -1 1.04858e+06;
#X obj 40 32 cnv 10 10 10 empty empty Gerard 0 5 1 11 -4033 -1 1.04858e+06
;
#X obj 78 32 cnv 10 10 10 empty empty Paresys 0 5 1 11 -4033 -1 1.04858e+06
;
#X obj 20 54 pddp/pddplink http://gerard.paresys.free.fr/ARGOPd/;
#X obj 22 126 pddp/pddplink http://puredata.info/downloads/pd-extended
;
#X obj 22 102 pddp/pddplink http://puredata.info/downloads/pure-data
;
#X text 22 90 Construit sous / Build under Pd-0.49...;
#X text 21 114 or Pd 0.43.4-extended;
#X obj 20 66 pddp/pddplink https://paresys.pagesperso-orange.fr/ARGOPd/
;
#X obj 20 42 pddp/pddplink https://github.com/gerardparesys/ARGOPd
;
#X restore 505 358 pd ??;
#X obj 390 26 loadbang;
#X obj 278 200 hsl 120 18 0 127 0 0 \$0-A \$0-B Spec(2000Hz/div). -2
9 1 14 -262144 -262144 -1 0 1;
#X obj 357 62 bang;
#X obj 452 26 r pd-dsp-started;
#X text 346 182 2 5 2021;
#N canvas 735 342 333 296 label 0;
#X obj 68 93 samplerate~;
#X msg 68 186 label \$1;
#X obj 68 165 cyclone/tosymbol;
#X obj 68 68 inlet;
#X obj 68 215 outlet;
#X obj 68 118 expr int(2000 * $f1 / 44100);
#X obj 68 141 cyclone/sprintf Spec(%sHz/div).;
#X connect 0 0 5 0;
#X connect 1 0 4 0;
#X connect 2 0 1 0;
#X connect 3 0 0 0;
#X connect 5 0 6 0;
#X connect 6 0 2 0;
#X restore 390 126 pd label;
#X obj 471 93 bng 15 250 50 0 empty empty empty 17 7 0 10 -262144 -1
-1;
#X connect 0 0 16 0;
#X connect 0 1 16 1;
#X connect 1 0 14 0;
#X connect 2 0 17 0;
#X connect 3 0 13 0;
#X connect 4 0 14 0;
#X connect 5 0 14 0;
#X connect 9 0 10 0;
#X connect 10 0 4 0;
#X connect 10 1 1 0;
#X connect 11 0 17 0;
#X connect 12 0 17 0;
#X connect 13 0 0 0;
#X connect 14 0 17 0;
#X connect 15 0 14 1;
#X connect 15 0 5 0;
#X connect 16 0 14 2;
#X connect 22 0 23 0;
#X connect 22 0 32 0;
#X connect 24 0 17 0;
#X connect 25 0 17 0;
#X connect 30 0 35 0;
#X connect 32 0 35 0;
#X connect 33 0 35 0;
#X connect 35 0 31 0;
#X connect 36 0 35 0;
#X coords 0 -1 1 1 200 150 2 200 200;
#X restore 134 228 pd ARGO;
#N canvas 47 374 590 395 ARGO 0;
#X obj 262 100 rfft~;
#X msg 23 131 slide 10 10;
#X msg 7 277 range 0 512 \, 2 \, bufsize 512;
#X obj 262 27 inlet~;
#X msg 4 158 slide 1 1;
#X obj 103 131 *~ 0.361;
#X obj 201 201 cnv 12 196 34 empty empty empty 20 12 0 14 -262144 -1
1.04858e+06;
#X obj 423 166 cnv 10 44 10 empty empty Spectrum(2kHz/div). 1 5 1 14
-262144 -1 1.04858e+06;
#X obj 201 201 cnv 4 10 4 empty empty empty 20 12 0 14 -1 -66577 0
;
#X obj 234 206 tgl 12 1 \$0-SendLoop \$0-ReceiveLoop Gliss 15 6 1 9
-262144 -1 -1 0 1;
#X obj 4 104 sel 0 1;
#X msg 6 233 frgb 255 0 0;
#X msg 7 255 brgb 255 255 255;
#X obj 262 78 *~ 10;
#X obj 103 173 cyclone/vectral~ 1024;
#X obj 103 27 cyclone/count~ 0 1024 1 1;
#X obj 262 127 cyclone/cartopol~;
#X obj 201 220 cyclone/scope~ 198 129 4 3 256 0 512 0 0 0 0 255 0 0
255 252 255 0 98 102 0 empty;
#X obj 423 205 cnv 15 100 70 empty empty empty 20 12 0 14 -24198 -66577
0;
#X text 446 207 library:;
#X text 427 218 pddp;
#X text 427 231 cyclone;
#X obj 200 206 tgl 12 1 \$0-A \$0-B On 15 7 1 9 -262144 -1 -1 1 1;
#X obj 116 361 switch~ 1024 1 1;
#X msg 8 298 range 0 512 \, 4 \, bufsize 256;
#X msg 11 319 range 0 512 \, 8 \, bufsize 128;
#X obj 8 57 cnv 15 60 30 empty empty empty 20 12 0 14 -24198 -66577
0;
#N canvas 71 497 410 134 Help 0;
#X text 42 31 Spectrum;
#X text 41 52 With scope~ object of cyclone library;
#X text 41 72 Avec l'objet scope~ de la library cyclone;
#X restore 15 63 pd Help;
#X obj 505 358 cnv 15 34 16 empty empty empty 20 12 0 14 -24198 -66577
0;
#N canvas 353 174 333 161 ?? 0;
#X obj 17 89 cnv 15 300 56 empty empty empty 20 12 0 14 -224896 -66577
0;
#X obj 17 12 cnv 18 300 70 empty empty ARGOPdMiniModules 3 10 1 14
-4033 -1 1.04858e+06;
#X obj 40 32 cnv 10 10 10 empty empty Gerard 0 5 1 11 -4033 -1 1.04858e+06
;
#X obj 78 32 cnv 10 10 10 empty empty Paresys 0 5 1 11 -4033 -1 1.04858e+06
;
#X obj 20 54 pddp/pddplink http://gerard.paresys.free.fr/ARGOPd/;
#X obj 22 126 pddp/pddplink http://puredata.info/downloads/pd-extended
;
#X obj 22 102 pddp/pddplink http://puredata.info/downloads/pure-data
;
#X text 22 90 Construit sous / Build under Pd-0.49...;
#X text 21 114 or Pd 0.43.4-extended;
#X obj 20 66 pddp/pddplink https://paresys.pagesperso-orange.fr/ARGOPd/
;
#X obj 20 42 pddp/pddplink https://github.com/gerardparesys/ARGOPd
;
#X restore 505 358 pd ??;
#X obj 390 26 loadbang;
#X obj 278 200 hsl 120 18 0 127 0 0 \$0-A \$0-B Spec(2000Hz/div). -2
9 1 14 -262144 -262144 -1 0 1;
#X obj 357 62 bang;
#X obj 452 26 r pd-dsp-started;
#X text 346 182 2 5 2021;
#N canvas 735 342 333 296 label 0;
#X obj 68 93 samplerate~;
#X msg 68 186 label \$1;
#X obj 68 165 cyclone/tosymbol;
#X obj 68 68 inlet;
#X obj 68 215 outlet;
#X obj 68 118 expr int(2000 * $f1 / 44100);
#X obj 68 141 cyclone/sprintf Spec(%sHz/div).;
#X connect 0 0 5 0;
#X connect 1 0 4 0;
#X connect 2 0 1 0;
#X connect 3 0 0 0;
#X connect 5 0 6 0;
#X connect 6 0 2 0;
#X restore 390 126 pd label;
#X obj 471 93 bng 15 250 50 0 empty empty empty 17 7 0 10 -262144 -1
-1;
#X connect 0 0 16 0;
#X connect 0 1 16 1;
#X connect 1 0 14 0;
#X connect 2 0 17 0;
#X connect 3 0 13 0;
#X connect 4 0 14 0;
#X connect 5 0 14 0;
#X connect 9 0 10 0;
#X connect 10 0 4 0;
#X connect 10 1 1 0;
#X connect 11 0 17 0;
#X connect 12 0 17 0;
#X connect 13 0 0 0;
#X connect 14 0 17 0;
#X connect 15 0 14 1;
#X connect 15 0 5 0;
#X connect 16 0 14 2;
#X connect 22 0 23 0;
#X connect 22 0 32 0;
#X connect 24 0 17 0;
#X connect 25 0 17 0;
#X connect 30 0 35 0;
#X connect 32 0 35 0;
#X connect 33 0 35 0;
#X connect 35 0 31 0;
#X connect 36 0 35 0;
#X coords 0 -1 1 1 200 150 2 200 200;
#X restore 566 228 pd ARGO;
#N canvas 476 190 548 340 ARGO 0;
#X obj 101 101 cnv 20 244 43 empty ColorTime empty 0 0 1 14 -208064
-1 1.04858e+06;
#X obj 67 299 outlet~;
#X obj 101 140 cnv 4 10 4 empty empty empty 20 12 0 14 -1 -66577 0
;
#X obj 101 101 cnv 4 10 4 empty empty empty 20 12 0 14 -1728 -66577
0;
#X obj 120 299 outlet~;
#X obj 217 140 cnv 4 10 4 empty empty empty 0 0 0 9 -1 -66577 0;
#X obj 262 227 +~ 0.125;
#X obj 262 299 outlet~;
#X obj 67 259 *~ 2;
#X obj 120 259 *~ -2;
#X obj 262 259 *~ 8;
#X obj 195 299 outlet~;
#X obj 175 140 cnv 4 10 4 empty empty empty 0 0 0 9 -1 -66577 0;
#X obj 137 140 cnv 4 10 4 empty empty empty 0 0 0 9 -1 -66577 0;
#X obj 289 106 nbx 7 12 0 20000 0 1 \$0-A ColorTime Hz -13 7 1 9 -208064
-1 -1 5919.91 256;
#X obj 47 26 inlet~;
#X obj 103 118 hsl 241 12 0 1 0 0 \$0-A ColorTime empty 0 7 1 9 -262144
-1 -1 22200 0;
#X obj 103 118 hsl 241 12 0 1 0 0 \$0-A ColorTime Gb7 0 7 1 9 -208064
-1728 -1 0 0;
#X obj 31 174 cnv 15 60 30 empty empty empty 20 12 0 14 -24198 -66577
0;
#N canvas 443 143 425 238 Help 0;
#X obj 8 85 cnv 15 400 100 empty empty empty 20 12 0 14 -233017 -66577
0;
#X text 12 87 Citation;
#X text 21 103 The phasor~ object outputs a sawtooth signal...;
#X text 10 45 Sensibilité de l'entrée de contrôle de la fréquence:
;
#X text 10 33 Frequency control input sensitivity:;
#X text 10 57 1 = 240 x semitone = 20 octaves;
#X restore 38 180 pd Help;
#X text 350 122 2 HSLIDER superposés;
#X text 375 101 ATTENTION;
#N canvas 686 258 404 343 Freq-v7-sig- 0;
#X obj 276 61 ftom;
#X obj 330 220 mtof;
#X obj 191 139 +~;
#X obj 19 192 snapshot~;
#X obj 19 214 change;
#X msg 19 239 set \$1;
#X obj 191 248 clip~ 0 20000;
#X obj 191 225 mtof~;
#X obj 191 277 outlet~;
#X obj 330 38 inlet;
#X obj 275 37 inlet;
#X obj 79 277 outlet;
#X obj 330 277 outlet;
#X text 76 295 Hslider;
#X obj 191 42 inlet~;
#X obj 19 41 loadbang;
#X obj 276 277 outlet;
#X obj 330 159 * 240;
#X obj 330 182 - 108;
#X obj 191 173 *~ 240;
#X obj 191 195 -~ 108;
#X obj 276 84 + 108;
#X obj 276 106 / 240;
#X obj 19 90 metro 200;
#X obj 74 41 r SendFluid;
#X text 85 306 Over;
#X text 332 295 Number;
#X text 272 20 Number;
#X text 275 294 Hslider;
#X text 277 305 Under;
#X text 331 8 Hslider;
#X text 336 19 Under;
#X msg 276 247 set \$1;
#N canvas 36 296 706 448 pitchb-5-2021 0;
#X obj 212 152 mod 12;
#X obj 212 179 sel 0 1 2 3 4 5 6 7 8 9 10 11;
#X msg 378 214 A;
#X msg 432 214 B;
#X msg 324 214 G;
#X msg 135 214 C;
#X msg 189 214 D;
#X msg 243 214 E;
#X msg 270 214 F;
#X obj 185 16 inlet;
#X obj 126 152 div 12;
#X obj 185 127 t f f;
#X text 194 109 -> Numero MIDI de la note (69 = A3 = 440Hz);
#X msg 278 366 label \$1;
#X obj 278 392 outlet;
#X msg 162 214 Db;
#X msg 216 214 Eb;
#X msg 297 214 Gb;
#X msg 351 214 Ab;
#X msg 405 214 Bb;
#X text 350 123 (70 = A#3 = Bb3);
#X text 465 210 Impossible d'afficher # dans un label;
#X text 465 222 donc j'affiche b;
#X obj 185 92 int;
#X text 236 62 -> pour corriger certaines erreurs de calcul;
#X obj 126 288 - 12;
#X text 236 74 et le pb du passage a zero de mod 12;
#X obj 185 64 + 120.5;
#X msg 278 313 set \$1;
#X obj 278 340 makefilename not-set-yet;
#X obj 278 261 symbol;
#X obj 278 288 makefilename %s%%d;
#X text 33 365 Version Vanilla sans cyclone;
#X text 11 307 Numero de l'octave ->;
#X connect 0 0 1 0;
#X connect 1 0 5 0;
#X connect 1 1 15 0;
#X connect 1 2 6 0;
#X connect 1 3 16 0;
#X connect 1 4 7 0;
#X connect 1 5 8 0;
#X connect 1 6 17 0;
#X connect 1 7 4 0;
#X connect 1 8 18 0;
#X connect 1 9 2 0;
#X connect 1 10 19 0;
#X connect 1 11 3 0;
#X connect 2 0 30 0;
#X connect 3 0 30 0;
#X connect 4 0 30 0;
#X connect 5 0 30 0;
#X connect 6 0 30 0;
#X connect 7 0 30 0;
#X connect 8 0 30 0;
#X connect 9 0 27 0;
#X connect 10 0 25 0;
#X connect 11 0 10 0;
#X connect 11 1 0 0;
#X connect 13 0 14 0;
#X connect 15 0 30 0;
#X connect 16 0 30 0;
#X connect 17 0 30 0;
#X connect 18 0 30 0;
#X connect 19 0 30 0;
#X connect 23 0 11 0;
#X connect 25 0 29 0;
#X connect 27 0 23 0;
#X connect 28 0 29 0;
#X connect 29 0 13 0;
#X connect 30 0 31 0;
#X connect 31 0 28 0;
#X restore 79 139 pd pitchb-5-2021;
#X connect 0 0 21 0;
#X connect 0 0 33 0;
#X connect 1 0 12 0;
#X connect 2 0 3 0;
#X connect 2 0 19 0;
#X connect 3 0 4 0;
#X connect 4 0 5 0;
#X connect 5 0 11 0;
#X connect 6 0 8 0;
#X connect 7 0 6 0;
#X connect 9 0 17 0;
#X connect 10 0 0 0;
#X connect 14 0 2 0;
#X connect 15 0 23 0;
#X connect 17 0 18 0;
#X connect 18 0 1 0;
#X connect 19 0 20 0;
#X connect 20 0 7 0;
#X connect 21 0 22 0;
#X connect 22 0 2 1;
#X connect 22 0 32 0;
#X connect 23 0 3 0;
#X connect 24 0 23 1;
#X connect 32 0 16 0;
#X connect 33 0 11 0;
#X restore 47 63 pd Freq-v7-sig-;
#X text 326 145 Alea;
#X obj 316 299 outlet~;
#X obj 423 299 outlet~;
#X obj 296 140 cnv 4 10 4 empty empty empty 0 0 0 9 -1 -66577 0;
#X obj 335 140 cnv 4 10 4 empty empty empty 0 0 0 9 -1 -66577 0;
#X text 93 145 Ramp;
#X text 98 156 Up;
#X text 136 145 Ramp;
#X text 137 156 Down;
#X obj 484 299 cnv 15 34 16 empty empty empty 20 12 0 14 -24198 -66577
0;
#N canvas 353 174 333 161 ?? 0;
#X obj 17 89 cnv 15 300 56 empty empty empty 20 12 0 14 -224896 -66577
0;
#X obj 17 12 cnv 18 300 70 empty empty ARGOPdMiniModules 3 10 1 14
-4033 -1 1.04858e+06;
#X obj 40 32 cnv 10 10 10 empty empty Gerard 0 5 1 11 -4033 -1 1.04858e+06
;
#X obj 78 32 cnv 10 10 10 empty empty Paresys 0 5 1 11 -4033 -1 1.04858e+06
;
#X obj 20 54 pddp/pddplink http://gerard.paresys.free.fr/ARGOPd/;
#X obj 22 126 pddp/pddplink http://puredata.info/downloads/pd-extended
;
#X obj 22 102 pddp/pddplink http://puredata.info/downloads/pure-data
;
#X text 22 90 Construit sous / Build under Pd-0.49...;
#X text 21 114 or Pd 0.43.4-extended;
#X obj 20 66 pddp/pddplink https://paresys.pagesperso-orange.fr/ARGOPd/
;
#X obj 20 42 pddp/pddplink https://github.com/gerardparesys/ARGOPd
;
#X restore 484 299 pd ??;
#X obj 195 259 *~ 2;
#X obj 368 259 cos~;
#X obj 368 227 -~ 0.25;
#X obj 316 259 cos~;
#X obj 247 134 cnv 4 4 4 empty ColorTime Sinus 1 1 1 10 -208064 -1
1.04858e+06;
#X obj 102 134 cnv 4 4 4 empty ColorTime RUp -1 1 1 10 -208064 -1 1.04858e+06
;
#X obj 126 134 cnv 4 4 4 empty ColorTime RDown 1 1 1 10 -208064 -1
1.04858e+06;
#X obj 368 299 outlet~;
#X obj 164 134 cnv 4 4 4 empty ColorTime Square 1 1 1 10 -208064 -1
1.04858e+06;
#X obj 204 134 cnv 4 4 4 empty ColorTime Triangle 1 1 1 10 -208064
-1 1.04858e+06;
#X obj 280 134 cnv 4 4 4 empty ColorTime Cosinus 1 1 1 10 -208064 -1
1.04858e+06;
#X obj 323 134 cnv 4 4 4 empty ColorTime Alea 1 1 1 10 -208064 -1 1.04858e+06
;
#X obj 256 140 cnv 4 10 4 empty empty empty 0 0 0 9 -1 -66577 0;
#X text 196 156 Triangle;
#X text 245 145 Sinus;
#X text 281 156 Cosinus;
#X obj 335 101 cnv 4 10 4 empty empty empty 20 12 0 14 -260097 -66577
0;
#X obj 113 19 cnv 15 240 30 empty empty empty 20 12 0 14 -261682 -66577
0;
#X obj 316 26 inlet;
#X text 114 27 NoteMIDI;
#X obj 289 65 mtof;
#X text 168 26 -108 ..132 = C-11..C9 ->;
#X text 351 112 2 overlapping HSLIDER;
#X text 164 145 Square;
#X obj 224 109 cnv 5 1 1 empty ColorTime Oscill. 0 0 1 14 -208064 -1
1.04858e+06;
#X obj 120 103 tgl 12 1 \$0-A \$0-B On 14 6 1 10 -262144 -1 -1 1 1
;
#X obj 151 103 tgl 12 1 \$0-A \$0-B AntiAlias 14 6 1 10 -262144 -1
-1 1 1;
#X obj 418 18 cnv 15 70 70 empty empty empty 20 12 0 14 -24198 -66577
0;
#X text 427 20 library:;
#X text 422 31 pddp;
#N canvas 58 114 632 379 16x 0;
#X obj 412 55 phasor~;
#X obj 117 294 outlet~;
#X obj 231 106 -~ 0.5;
#X obj 260 182 *~;
#X obj 275 141 expr~ ($v1 < 0) - 0.5;
#X obj 260 294 outlet~;
#X obj 188 294 outlet~;
#X obj 117 213 lop~ 15000;
#X obj 117 236 lop~ 15000;
#X obj 117 261 lop~ 15000;
#X obj 260 213 lop~ 15000;
#X obj 260 236 lop~ 15000;
#X obj 260 261 lop~ 15000;
#X obj 188 213 lop~ 15000;
#X obj 188 236 lop~ 15000;
#X obj 188 261 lop~ 15000;
#X obj 34 17 inlet;
#X obj 83 17 inlet;
#X obj 34 294 switch~;
#X msg 137 106 set 1024 1 16;
#X msg 62 106 set 64 1 1;
#X obj 83 55 sel 0 1;
#X obj 410 294 outlet~;
#X obj 497 141 samphold~;
#X obj 497 55 noise~;
#X obj 497 294 outlet~;
#X obj 497 213 lop~ 15000;
#X obj 497 236 lop~ 15000;
#X obj 497 261 lop~ 15000;
#X text 32 0 On/Off;
#X text 75 0 AntiAlias;
#X obj 412 17 inlet~ hold;
#X text 504 310 Alea;
#X text 125 310 Ramp;
#X text 258 314 Triangle;
#X text 413 311 Sinus;
#X text 406 321 Cosinus;
#X text 191 312 Square;
#X connect 0 0 2 0;
#X connect 0 0 22 0;
#X connect 0 0 23 1;
#X connect 2 0 3 0;
#X connect 2 0 4 0;
#X connect 2 0 7 0;
#X connect 3 0 10 0;
#X connect 4 0 3 1;
#X connect 4 0 13 0;
#X connect 7 0 8 0;
#X connect 8 0 9 0;
#X connect 9 0 1 0;
#X connect 10 0 11 0;
#X connect 11 0 12 0;
#X connect 12 0 5 0;
#X connect 13 0 14 0;
#X connect 14 0 15 0;
#X connect 15 0 6 0;
#X connect 16 0 18 0;
#X connect 17 0 21 0;
#X connect 19 0 18 0;
#X connect 20 0 18 0;
#X connect 21 0 20 0;
#X connect 21 1 19 0;
#X connect 23 0 26 0;
#X connect 24 0 23 0;
#X connect 26 0 27 0;
#X connect 27 0 28 0;
#X connect 28 0 25 0;
#X connect 31 0 0 0;
#X restore 120 195 pd 16x;
#X f 51;
#X text 294 84 12 7 2021;
#X connect 6 0 10 0;
#X connect 8 0 1 0;
#X connect 9 0 4 0;
#X connect 10 0 7 0;
#X connect 14 0 22 1;
#X connect 15 0 22 0;
#X connect 16 0 22 2;
#X connect 22 0 17 0;
#X connect 22 1 64 2;
#X connect 22 2 16 0;
#X connect 22 3 14 0;
#X connect 34 0 11 0;
#X connect 35 0 41 0;
#X connect 36 0 35 0;
#X connect 37 0 24 0;
#X connect 52 0 54 0;
#X connect 54 0 14 0;
#X connect 59 0 64 0;
#X connect 60 0 64 1;
#X connect 64 0 8 0;
#X connect 64 0 9 0;
#X connect 64 1 34 0;
#X connect 64 2 6 0;
#X connect 64 3 37 0;
#X connect 64 3 36 0;
#X connect 64 4 25 0;
#X coords 0 -1 1 1 246 45 1 100 100;
#X restore 481 122 pd ARGO;
#X connect 6 0 5 0;
#X connect 15 0 17 0;
#X connect 15 0 26 0;
#X connect 16 0 18 0;
#X connect 16 0 27 0;
#X connect 17 0 0 1;
#X connect 17 0 0 0;
#X connect 18 0 3 1;
#X connect 18 0 3 0;
#X connect 19 0 22 0;
#X connect 19 0 28 0;
#X connect 22 0 15 0;
#X connect 22 1 15 1;
#X connect 22 2 15 2;
#X connect 22 3 15 3;
#X connect 25 3 19 0;
#X connect 28 0 16 0;
#X connect 28 1 16 1;
#X connect 28 2 16 2;
#X connect 28 3 16 3;
