#N canvas 522 23 461 442 10;
#X obj 90 405 dac~ 1 2;
#X obj 9 7 cnv 15 15 15 empty empty ExMM124a-TriRectangle.pd 0 8 1
14 -262144 -66577 0;
#X text 293 104 <- Fréquence;
#X text 293 114 <- Frequency;
#X obj 361 64 switch~;
#N canvas 608 166 228 173 ARGOnOff 0;
#X obj 100 100 tgl 18 1 \$0-SendOnOff \$0-ReceiveOnOff On/Off 20 11
1 14 -4033 -1 -1 1 1;
#X obj 99 10 loadbang;
#X msg 99 33 \; pd dsp 1;
#X obj 100 129 outlet;
#X text -50 99 Audio On/Off du patch ->;
#X text -22 45 Audio General On ->;
#X text 107 82 17 3 2010;
#X connect 0 0 3 0;
#X connect 1 0 2 0;
#X coords 0 -1 1 1 65 18 2 100 100;
#X restore 361 46 pd ARGOnOff;
#X text 366 30 V;
#X text 366 23 |;
#X text 354 12 On/Off Patch;
#X text 4 254 Niveau general ->;
#X text 10 264 General level ->;
#X text 49 160 Choose ->;
#N canvas 464 46 492 191 ARGO 0;
#X obj 201 101 cnv 6 104 34 empty ColorAmpli Mux. 74 27 1 14 -261299
-1 1.04858e+06;
#X obj 184 148 outlet~;
#X obj 184 23 inlet~;
#X msg 68 120 label \$1;
#X obj 201 101 cnv 4 10 4 empty empty empty 20 12 0 14 -1 -66577 0
;
#X obj 201 131 cnv 4 10 4 empty empty empty 20 12 0 14 -1 -66577 0
;
#X obj 295 101 cnv 4 10 4 empty empty empty 20 12 0 14 -1 -66577 0
;
#X obj 229 23 inlet~;
#X obj 319 23 inlet~;
#X obj 230 101 cnv 4 10 4 empty empty empty 20 12 0 14 -1 -66577 0
;
#X obj 274 23 inlet~;
#X obj 263 101 cnv 4 10 4 empty empty empty 20 12 0 14 -1 -66577 0
;
#X obj 203 106 hsl 101 12 0.3 3.7 0 1 \$0-A ColorAmpli 3 0 7 1 9 -261299
-1 -1 7700 0;
#X obj 184 74 zexy/multiplex~ 1 2 3 4;
#X obj 68 51 + 1;
#X obj 67 27 int;
#X obj 370 23 cnv 15 100 70 empty empty empty 20 12 0 14 -24198 -66577
0;
#X text 393 25 library:;
#X text 374 36 pddp;
#X obj 405 142 cnv 15 42 25 empty empty empty 20 12 0 14 -24198 -66577
0;
#N canvas 336 174 316 152 ?. 0;
#X obj 8 84 cnv 15 300 56 empty empty empty 20 12 0 14 -224896 -66577
0;
#X obj 8 7 cnv 18 300 70 empty empty ARGOPdMiniModules 3 10 1 14 -4033
-1 1.04858e+06;
#X obj 31 27 cnv 10 10 10 empty empty Gerard 0 5 1 11 -4033 -1 1.04858e+06
;
#X obj 69 27 cnv 10 10 10 empty empty Paresys 0 5 1 11 -4033 -1 1.04858e+06
;
#X obj 12 40 pddp/pddplink http://gerard.paresys.free.fr/ARGOPd/;
#X text 13 85 Construit sous / Build under Pd 0.43.4-extended;
#X obj 13 111 pddp/pddplink http://puredata.info/downloads/pd-extended
;
#X obj 12 53 pddp/pddplink http://paresys.pagesperso-orange.fr/ARGOPd/
;
#X text 12 98 or Pd-0.48;
#X obj 13 124 pddp/pddplink http://puredata.info/downloads/pure-data
;
#X restore 409 146 pd ?.;
#X text 374 49 cyclone;
#X text 374 62 zexy;
#X obj 68 74 cyclone/sprintf %d;
#X text 311 104 12 3 2018;
#X obj 69 97 cyclone/tosymbol;
#X connect 2 0 13 0;
#X connect 3 0 12 0;
#X connect 7 0 13 1;
#X connect 8 0 13 3;
#X connect 10 0 13 2;
#X connect 12 0 15 0;
#X connect 13 0 1 0;
#X connect 14 0 23 0;
#X connect 15 0 14 0;
#X connect 15 0 13 0;
#X connect 23 0 25 0;
#X connect 25 0 3 0;
#X coords 0 -1 1 1 106 36 1 200 100;
#X restore 111 160 pd ARGO;
#N canvas 175 68 374 396 ARGO 0;
#X obj 101 101 cnv 20 116 34 empty ColorAmpli empty 20 12 0 14 -261299
-1 1.04858e+06;
#X obj 85 353 outlet~;
#X obj 157 104 cnv 10 20 10 empty ColorAmpli Ampli. 1 5 1 14 -261299
-1 1.04858e+06;
#X obj 85 43 inlet~;
#X obj 85 330 *~;
#X obj 115 118 hsl 101 12 -80 20 0 1 \$0-A ColorAmpli -10dB 0 7 1 9
-261299 -1 -1 7000 0;
#X obj 101 101 cnv 4 10 4 empty empty empty 20 12 0 14 -1 -66577 0
;
#X obj 101 131 cnv 4 10 4 empty empty empty 20 12 0 14 -1 -66577 0
;
#X msg -42 139 label \$1;
#X text 148 194 -> 0.0001..10 = -80dB..20dB;
#X obj 142 175 expr (pow(10 \, $f1 / 20));
#X obj 142 215 sel 0.0001;
#X msg 100 244 0;
#X obj 100 118 tgl 12 1 \$0-A \$0-B Mute 2 -5 1 9 -261299 -1 -1 0 1
;
#X obj 99 146 select 0 1;
#X obj 140 295 line~;
#X obj 140 275 pack 0 10;
#X msg 123 74 set 0;
#X obj -42 93 cyclone/sprintf %ddB;
#X obj -42 116 cyclone/tosymbol;
#X obj 261 342 cnv 15 42 25 empty empty empty 20 12 0 14 -24198 -66577
0;
#N canvas 336 174 309 137 ?. 0;
#X obj 3 83 cnv 15 300 46 empty empty empty 20 12 0 14 -224896 -66577
0;
#X obj 3 6 cnv 18 300 70 empty empty ARGOPdMiniModules 3 10 1 14 -4033
-1 1.04858e+06;
#X obj 26 26 cnv 10 10 10 empty empty Gerard 0 5 1 11 -4033 -1 1.04858e+06
;
#X obj 64 26 cnv 10 10 10 empty empty Paresys 0 5 1 11 -4033 -1 1.04858e+06
;
#X obj 7 37 pddp/pddplink http://gerard.paresys.free.fr/ARGOPd/;
#X text 8 85 Construit sous / Build under Pd 0.43.4-extended;
#X obj 8 111 pddp/pddplink http://puredata.info/downloads/pd-extended
;
#X obj 7 50 pddp/pddplink http://paresys.pagesperso-orange.fr/ARGOPd/
;
#X text 7 98 or Pd-0.46-7 + deken;
#X restore 265 346 pd ?.;
#X text 228 110 17 3 2016;
#X connect 3 0 4 0;
#X connect 4 0 1 0;
#X connect 5 0 10 0;
#X connect 5 0 18 0;
#X connect 8 0 5 0;
#X connect 10 0 11 0;
#X connect 11 0 12 0;
#X connect 11 1 16 0;
#X connect 11 1 17 0;
#X connect 12 0 16 0;
#X connect 12 0 19 0;
#X connect 13 0 14 0;
#X connect 14 0 5 0;
#X connect 14 1 12 0;
#X connect 15 0 4 1;
#X connect 16 0 15 0;
#X connect 17 0 13 0;
#X connect 18 0 19 0;
#X connect 19 0 8 0;
#X coords 0 -1 1 1 118 36 1 100 100;
#X restore 111 244 pd ARGO;
#N canvas 432 42 236 269 ARGO 0;
#X obj 101 104 cnv 30 37 130 empty ColorAmpli empty 20 12 0 14 -1 -258113
0;
#X obj 101 110 vu 8 120 \$0-B empty 0 0 1 11 -1 -4034 1 0;
#X obj 74 34 inlet~;
#X obj 10 33 cnv 15 60 30 empty empty empty 20 12 0 14 -24198 -66577
0;
#N canvas 300 65 442 264 Help 0;
#X obj 12 48 cnv 15 400 150 empty empty empty 20 12 0 14 -233017 -66577
0;
#X text 16 50 Citation;
#X text 28 67 peakamp~ tracks and outputs the absolute value of the
peak amplitude of the incoming signal. It outputs when banged or using
its own internal clock. The peak value is reset each time peakamp~
outputs a value.;
#X text 29 123 cyclone library;
#X text 28 135 http://suita.chopin.edu.pl/~czaja/miXed/externs/cyclone.html
;
#X text 29 155 Voir doc Max/MSP MSP46ReferenceManual.pdf;
#X text 18 14 MM-Vumetre;
#X restore 17 39 pd Help;
#N canvas 541 112 317 265 VuMetre 0;
#X obj 48 19 inlet~;
#X obj 41 54 *~;
#X obj -25 132 snapshot~;
#X obj -25 155 sqrt;
#X obj -25 100 lop~ 10;
#X obj -25 179 rmstodb;
#X obj -88 19 loadbang;
#X obj -25 202 - 100;
#X obj 58 156 sqrt;
#X obj 58 180 rmstodb;
#X obj 58 203 - 100;
#X obj -89 102 metro 200;
#X obj -28 19 r SendFluid;
#X obj 58 102 cyclone/peakamp~ 1000;
#X obj -25 228 outlet;
#X obj 58 227 outlet;
#X connect 0 0 1 0;
#X connect 0 0 1 1;
#X connect 1 0 4 0;
#X connect 1 0 13 0;
#X connect 2 0 3 0;
#X connect 3 0 5 0;
#X connect 4 0 2 0;
#X connect 5 0 7 0;
#X connect 6 0 11 0;
#X connect 7 0 14 0;
#X connect 8 0 9 0;
#X connect 9 0 10 0;
#X connect 10 0 15 0;
#X connect 11 0 2 0;
#X connect 12 0 11 1;
#X connect 13 0 8 0;
#X restore 74 59 pd VuMetre;
#X obj 172 211 cnv 15 42 25 empty empty empty 20 12 0 14 -24198 -66577
0;
#N canvas 336 174 309 137 ?. 0;
#X obj 3 83 cnv 15 300 46 empty empty empty 20 12 0 14 -224896 -66577
0;
#X obj 3 6 cnv 18 300 70 empty empty ARGOPdMiniModules 3 10 1 14 -4033
-1 1.04858e+06;
#X obj 26 26 cnv 10 10 10 empty empty Gerard 0 5 1 11 -4033 -1 1.04858e+06
;
#X obj 64 26 cnv 10 10 10 empty empty Paresys 0 5 1 11 -4033 -1 1.04858e+06
;
#X obj 7 37 pddp/pddplink http://gerard.paresys.free.fr/ARGOPd/;
#X text 8 85 Construit sous / Build under Pd 0.43.4-extended;
#X obj 8 111 pddp/pddplink http://puredata.info/downloads/pd-extended
;
#X obj 7 50 pddp/pddplink http://paresys.pagesperso-orange.fr/ARGOPd/
;
#X text 7 98 or Pd-0.46-7 + deken;
#X restore 176 215 pd ?.;
#X text 127 87 3 3 2019;
#X connect 2 0 5 0;
#X connect 5 0 1 0;
#X connect 5 1 1 1;
#X coords 0 -1 1 1 39 135 2 100 100;
#X restore 153 286 pd ARGO;
#X obj 284 74 nbx 5 14 -108 132 0 1 empty empty empty 0 -8 0 10 -262144
-1 -1 69 256;
#X text 142 71 Note MIDI -108 ..132 ->;
#X obj 391 407 cnv 15 34 16 empty empty empty 20 12 0 14 -24198 -66577
0;
#N canvas 353 174 333 161 ?? 0;
#X obj 17 89 cnv 15 300 56 empty empty empty 20 12 0 14 -224896 -66577
0;
#X obj 17 12 cnv 18 300 70 empty empty ARGOPdMiniModules 3 10 1 14
-4033 -1 1.04858e+06;
#X obj 40 32 cnv 10 10 10 empty empty Gerard 0 5 1 11 -4033 -1 1.04858e+06
;
#X obj 78 32 cnv 10 10 10 empty empty Paresys 0 5 1 11 -4033 -1 1.04858e+06
;
#X obj 20 54 pddp/pddplink http://gerard.paresys.free.fr/ARGOPd/;
#X obj 22 126 pddp/pddplink http://puredata.info/downloads/pd-extended
;
#X obj 22 102 pddp/pddplink http://puredata.info/downloads/pure-data
;
#X text 22 90 Construit sous / Build under Pd-0.49...;
#X text 21 114 or Pd 0.43.4-extended;
#X obj 20 66 pddp/pddplink https://paresys.pagesperso-orange.fr/ARGOPd/
;
#X obj 20 42 pddp/pddplink https://github.com/gerardparesys/ARGOPd
;
#X restore 391 407 pd ??;
#X text 25 44 Oscillateur de forme: Rampe Rectangle Triangle;
#X text 24 32 Oscillator: Ramp Rectangle Triangle;
#N canvas 53 205 506 397 ARGO 0;
#X obj 101 101 cnv 20 244 43 empty ColorTime empty 0 0 1 14 -208064
-1 1.04858e+06;
#X obj 110 350 outlet~;
#X obj 101 140 cnv 4 10 4 empty empty empty 20 12 0 14 -1 -66577 0
;
#X obj 101 101 cnv 4 10 4 empty empty empty 20 12 0 14 -1728 -66577
0;
#X obj 163 350 outlet~;
#X obj 335 140 cnv 4 10 4 empty empty empty 0 0 0 9 -1 -66577 0;
#X obj 92 169 phasor~;
#X obj 167 196 -~ 0.5;
#X obj 187 255 *~;
#X obj 268 301 +~ 0.125;
#X obj 217 350 outlet~;
#X obj 110 325 *~ 2;
#X obj 164 324 *~ -2;
#X obj 218 325 *~ 2;
#X obj 268 325 *~ 8;
#X obj 268 350 outlet~;
#X obj 256 140 cnv 4 10 4 empty empty empty 0 0 0 9 -1 -66577 0;
#X obj 177 140 cnv 4 10 4 empty empty empty 0 0 0 9 -1 -66577 0;
#X text 313 143 Triangle;
#X obj 289 106 nbx 7 12 0 20000 0 1 \$0-A ColorTime Hz -13 7 1 9 -208064
-1 -1 440 256;
#X obj 62 29 inlet~;
#X obj 103 118 hsl 241 12 0 1 0 0 \$0-A ColorTime empty 0 7 1 9 -262144
-1 -1 17700 0;
#X obj 103 118 hsl 241 12 0 1 0 0 \$0-A ColorTime A3 0 7 1 9 -208064
-1728 -1 17700 0;
#X obj 70 202 cnv 15 60 30 empty empty empty 20 12 0 14 -24198 -66577
0;
#N canvas 371 90 425 238 Help 0;
#X obj 8 100 cnv 15 400 100 empty empty empty 20 12 0 14 -233017 -66577
0;
#X text 12 102 Citation;
#X text 21 118 The phasor~ object outputs a sawtooth signal...;
#X text 11 21 Oscillateur en forme de Rampes Rectangle Triangle;
#X text 11 38 Rampe = Dent de scie = Sawtooth;
#X text 10 68 Sensibilité de l'entrée de contrôle de la fréquence:
;
#X text 10 56 Frequency control input sensitivity:;
#X text 10 80 1 = 240 x semitone = 20 octaves;
#X text 11 11 Oscillator: Ramp Rectangle Triangle;
#X restore 77 208 pd Help;
#N canvas 686 258 344 337 Freq-v7-sig- 0;
#X obj 228 58 ftom;
#X obj 281 217 mtof;
#X obj 143 142 +~;
#X obj 11 172 snapshot~;
#X obj 11 194 change;
#X msg 11 219 set \$1;
#X obj 143 245 clip~ 0 20000;
#X obj 143 222 mtof~;
#X obj 143 274 outlet~;
#X obj 281 35 inlet;
#X obj 228 34 inlet;
#X obj 66 274 outlet;
#X obj 281 274 outlet;
#X text 63 292 Hslider;
#X obj 143 39 inlet~;
#X obj 10 38 loadbang;
#X obj 231 274 outlet;
#X obj 281 156 * 240;
#X obj 281 179 - 108;
#X obj 143 170 *~ 240;
#X obj 143 192 -~ 108;
#X obj 228 81 + 108;
#X obj 228 103 / 240;
#X obj 11 87 metro 200;
#X obj 66 38 r SendFluid;
#X text 72 303 Over;
#X text 283 292 Number;
#X text 224 17 Number;
#X text 230 291 Hslider;
#X text 232 302 Under;
#X text 283 5 Hslider;
#X text 288 16 Under;
#X msg 231 244 set \$1;
#N canvas 459 170 558 314 pitchb 0;
#X obj 77 119 mod 12;
#X obj 77 143 sel 0 1 2 3 4 5 6 7 8 9 10 11;
#X msg 253 178 A;
#X msg 307 178 B;
#X msg 199 178 G;
#X msg 10 178 C;
#X msg 64 178 D;
#X msg 118 178 E;
#X msg 145 178 F;
#X obj 211 9 inlet;
#X obj 384 123 div 12;
#X obj 211 87 t f f;
#X text 390 195 -> Numero de l'octave;
#X text 220 72 -> Numero MIDI de la note (69 = A3 = 440Hz);
#X msg 267 268 label \$1;
#X obj 267 291 outlet;
#X msg 37 178 Db;
#X msg 91 178 Eb;
#X msg 172 178 Gb;
#X msg 226 178 Ab;
#X msg 280 178 Bb;
#X text 376 86 (70 = A#3 = Bb3);
#X obj 267 246 symbol;
#X text 18 239 Impossible d'afficher # dans un label;
#X text 18 251 donc j'affiche b;
#X obj 211 59 int;
#X text 262 31 -> pour corriger certaines erreurs de calcul;
#X obj 211 33 + 120.1;
#X obj 384 152 - 12;
#X text 262 43 et le pb du passage a zero de mod 12;
#X obj 267 221 cyclone/sprintf %s%d;
#X connect 0 0 1 0;
#X connect 1 0 5 0;
#X connect 1 1 16 0;
#X connect 1 2 6 0;
#X connect 1 3 17 0;
#X connect 1 4 7 0;
#X connect 1 5 8 0;
#X connect 1 6 18 0;
#X connect 1 7 4 0;
#X connect 1 8 19 0;
#X connect 1 9 2 0;
#X connect 1 10 20 0;
#X connect 1 11 3 0;
#X connect 2 0 30 0;
#X connect 3 0 30 0;
#X connect 4 0 30 0;
#X connect 5 0 30 0;
#X connect 6 0 30 0;
#X connect 7 0 30 0;
#X connect 8 0 30 0;
#X connect 9 0 27 0;
#X connect 10 0 28 0;
#X connect 11 0 0 0;
#X connect 11 1 10 0;
#X connect 14 0 15 0;
#X connect 16 0 30 0;
#X connect 17 0 30 0;
#X connect 18 0 30 0;
#X connect 19 0 30 0;
#X connect 20 0 30 0;
#X connect 22 0 14 0;
#X connect 25 0 11 0;
#X connect 27 0 25 0;
#X connect 28 0 30 1;
#X connect 30 0 22 0;
#X restore 79 142 pd pitchb;
#X connect 0 0 21 0;
#X connect 0 0 33 0;
#X connect 1 0 12 0;
#X connect 2 0 3 0;
#X connect 2 0 19 0;
#X connect 3 0 4 0;
#X connect 4 0 5 0;
#X connect 5 0 11 0;
#X connect 6 0 8 0;
#X connect 7 0 6 0;
#X connect 9 0 17 0;
#X connect 10 0 0 0;
#X connect 14 0 2 0;
#X connect 15 0 23 0;
#X connect 17 0 18 0;
#X connect 18 0 1 0;
#X connect 19 0 20 0;
#X connect 20 0 7 0;
#X connect 21 0 22 0;
#X connect 22 0 2 1;
#X connect 22 0 32 0;
#X connect 23 0 3 0;
#X connect 24 0 23 1;
#X connect 32 0 16 0;
#X connect 33 0 11 0;
#X restore 62 63 pd Freq-v7-sig-;
#X obj 221 225 expr~ ($v1 < 0) - 0.5;
#X obj 372 24 cnv 15 100 70 empty empty empty 20 12 0 14 -24198 -66577
0;
#X text 395 26 library:;
#X text 376 37 pddp;
#X text 376 50 cyclone;
#X text 296 85 4 5 2020;
#X text 349 125 2 HSLIDER superposés;
#X text 374 104 ATTENTION;
#X obj 331 352 cnv 15 34 16 empty empty empty 20 12 0 14 -24198 -66577
0;
#N canvas 353 174 333 161 ?? 0;
#X obj 17 89 cnv 15 300 56 empty empty empty 20 12 0 14 -224896 -66577
0;
#X obj 17 12 cnv 18 300 70 empty empty ARGOPdMiniModules 3 10 1 14
-4033 -1 1.04858e+06;
#X obj 40 32 cnv 10 10 10 empty empty Gerard 0 5 1 11 -4033 -1 1.04858e+06
;
#X obj 78 32 cnv 10 10 10 empty empty Paresys 0 5 1 11 -4033 -1 1.04858e+06
;
#X obj 20 54 pddp/pddplink http://gerard.paresys.free.fr/ARGOPd/;
#X obj 22 126 pddp/pddplink http://puredata.info/downloads/pd-extended
;
#X obj 22 102 pddp/pddplink http://puredata.info/downloads/pure-data
;
#X text 22 90 Construit sous / Build under Pd-0.49...;
#X text 21 114 or Pd 0.43.4-extended;
#X obj 20 66 pddp/pddplink https://paresys.pagesperso-orange.fr/ARGOPd/
;
#X obj 20 42 pddp/pddplink https://github.com/gerardparesys/ARGOPd
;
#X restore 331 352 pd ??;
#X obj 335 101 cnv 4 10 4 empty empty empty 20 12 0 14 -260097 -66577
0;
#X obj 113 19 cnv 15 240 30 empty empty empty 20 12 0 14 -261682 -66577
0;
#X obj 316 26 inlet;
#X text 114 27 NoteMIDI;
#X obj 289 65 mtof;
#X text 168 26 -108 ..132 = C-11..C9 ->;
#X text 350 115 2 overlapping HSLIDER;
#X obj 142 109 cnv 5 1 1 empty ColorTime Oscill-TriRectangle. 0 0 1
14 -208064 -1 1.04858e+06;
#X text 95 143 Ramp;
#X text 98 152 Up;
#X text 168 143 Ramp;
#X text 169 152 Down;
#X obj 102 134 cnv 4 4 4 empty ColorTime RUp -1 1 1 10 -208064 -1 1.04858e+06
;
#X obj 165 134 cnv 4 4 4 empty ColorTime RDown 1 1 1 10 -208064 -1
1.04858e+06;
#X obj 242 134 cnv 4 4 4 empty ColorTime Square 1 1 1 10 -208064 -1
1.04858e+06;
#X obj 332 134 cnv 4 4 4 empty ColorTime Tri 1 1 1 10 -208064 -1 1.04858e+06
;
#X text 240 143 Square;
#X connect 6 0 7 0;
#X connect 7 0 11 0;
#X connect 7 0 12 0;
#X connect 7 0 8 0;
#X connect 7 0 26 0;
#X connect 8 0 9 0;
#X connect 9 0 14 0;
#X connect 11 0 1 0;
#X connect 12 0 4 0;
#X connect 13 0 10 0;
#X connect 14 0 15 0;
#X connect 19 0 25 1;
#X connect 20 0 25 0;
#X connect 21 0 25 2;
#X connect 25 0 22 0;
#X connect 25 1 6 0;
#X connect 25 2 21 0;
#X connect 25 3 19 0;
#X connect 26 0 8 1;
#X connect 26 0 13 0;
#X connect 38 0 40 0;
#X connect 40 0 19 0;
#X coords 0 -1 1 1 246 45 1 100 100;
#X restore 45 97 pd ARGO;
#N canvas 357 43 498 322 ARGO 0;
#X obj 140 65 inlet~;
#X obj 201 201 cnv 4 10 4 empty empty empty 20 12 0 14 -1 -66577 0
;
#X msg 66 186 frgb 255 0 0;
#X obj 224 205 nbx 4 12 1 2000 0 1 \$0-A ColorTime ms/div 40 7 1 9
-208064 -1 -1 2 256;
#X msg 78 154 range -1 1;
#X obj 305 205 tgl 12 1 \$0-A \$0-B Sync 15 6 1 9 -262144 -1 -1 1 1
;
#X msg 220 152 delay 0 \, triglevel 0 \, trigger 0;
#X obj 226 105 sel 0 1;
#X msg 63 210 brgb 255 255 255;
#X obj 186 164 * 2;
#X obj 141 93 clip~ -1 1;
#X obj 69 93 t b b b b;
#X msg 69 129 bufsize 176;
#X obj 296 66 cnv 15 60 30 empty empty empty 20 12 0 14 -24198 -66577
0;
#N canvas 346 63 417 574 Help 0;
#X text 10 57 cf doc/examples/cyclone/scope-gop.pd;
#X text 10 113 cf MSP46ReferenceManual.pdf;
#X text 10 69 cf doc/examples/cyclone/scope-test.pd;
#X text 10 81 cf doc/examples/cyclone/scope-test1.pd;
#X text 10 46 cf doc/examples/cyclone/pink-test.pd;
#X text 10 26 cf extra/cyclone/Scope~-help.pd;
#X text 10 93 cf doc/examples/cyclone/scope-test2.pd;
#X obj 8 161 cnv 15 400 500 empty empty empty 20 12 0 14 -233017 -66577
0;
#X text 25 275 The word delay \, followed by a number \, sets the number
of milliseconds of delay before scope~ begins collecting values. After
a non-zero delay period \, scope~ enters a state in which it may wait
for a trigger condition to be satisfied in the input signal based on
the setting of the trigger state (set with the trigger message) and
trigger level (set with the triglevel message). By default \, the delay
is 0;
#X text 12 164 Citation (MSP46ReferenceManual.pdf);
#X text 25 391 trigger Sets the trigger mode. After a non-zero delay
period (set with the delay message) \, scope~ begins to wait for a
particular feature in the input signal before it begins collecting
samples. trigger 1 sets an upward trigger in which the signal must
go from being below the trigger level (default 0) to being equal to
it or above it. trigger 2 sets a downward trigger in which the signal
must go from being above the trigger level to being equal to it or
below it. The default trigger mode is 0 \, which does not wait after
a non-zero delay period before collecting samples again. This is sometimes
referred to as a line trigger mode.;
#X text 23 560 The word triglevel \, followed by a number \, sets the
trigger level \, used by trigger modes 1 and 2 The default trigger
level is 0 If you are displaying a waveform \, making slight changes
to the trigger level will move the waveform to the left or right inside
the scope~. It is possible to set the trigger level so that scope~
will never change the display.;
#X text 28 183 The word bufsize \, followed by a number \, changes
the number of samples stored in the buffer used by the scope~ object.
;
#X text 26 222 The word range \, followed by two numbers (float or
int) sets the minimum and maximum displayed signal amplitudes. The
default values are 1 to 1;
#X text 10 125 cf MSP46TutorialsAndTopics.pdf;
#X text 48 137 -> Tutorial 24: AnalysisOscilloscope;
#X text 10 -2 Clic sur la forme d'onde pour la figer.;
#X text 223 12 Click to freeze the waveform.;
#X text 11 -25 MM-Scope: utilise l'objet Scope~ de la library cyclone
;
#X restore 303 72 pd Help;
#X obj 200 221 cnv 15 199 65 empty empty Scope. 150 -10 1 14 -1 -1
0;
#X msg 69 68 bang;
#X msg 261 128 delay 1 \, triglevel 0.1 \, trigger 1;
#X obj 201 223 cyclone/scope~ 198 61 4 3 176 -1 1 1 0 1 0.1 255 0 0
255 255 255 0 98 102 0 empty;
#X text 343 185 29 3 2021;
#X obj 409 269 cnv 15 34 16 empty empty empty 20 12 0 14 -24198 -66577
0;
#N canvas 353 174 333 161 ?? 0;
#X obj 17 89 cnv 15 300 56 empty empty empty 20 12 0 14 -224896 -66577
0;
#X obj 17 12 cnv 18 300 70 empty empty ARGOPdMiniModules 3 10 1 14
-4033 -1 1.04858e+06;
#X obj 40 32 cnv 10 10 10 empty empty Gerard 0 5 1 11 -4033 -1 1.04858e+06
;
#X obj 78 32 cnv 10 10 10 empty empty Paresys 0 5 1 11 -4033 -1 1.04858e+06
;
#X obj 20 54 pddp/pddplink http://gerard.paresys.free.fr/ARGOPd/;
#X obj 22 126 pddp/pddplink http://puredata.info/downloads/pd-extended
;
#X obj 22 102 pddp/pddplink http://puredata.info/downloads/pure-data
;
#X text 22 90 Construit sous / Build under Pd-0.49...;
#X text 21 114 or Pd 0.43.4-extended;
#X obj 20 66 pddp/pddplink https://paresys.pagesperso-orange.fr/ARGOPd/
;
#X obj 20 42 pddp/pddplink https://github.com/gerardparesys/ARGOPd
;
#X restore 409 269 pd ??;
#X connect 0 0 10 0;
#X connect 2 0 18 0;
#X connect 3 0 9 0;
#X connect 4 0 18 0;
#X connect 5 0 7 0;
#X connect 6 0 18 0;
#X connect 7 0 6 0;
#X connect 7 1 17 0;
#X connect 8 0 18 0;
#X connect 9 0 18 0;
#X connect 10 0 18 0;
#X connect 11 0 12 0;
#X connect 11 1 4 0;
#X connect 11 2 2 0;
#X connect 11 3 8 0;
#X connect 12 0 18 0;
#X connect 16 0 11 0;
#X connect 17 0 18 0;
#X coords 0 -1 1 1 200 86 2 200 200;
#X restore 236 219 pd ARGO;
#X connect 5 0 4 0;
#X connect 12 0 13 0;
#X connect 12 0 22 0;
#X connect 13 0 0 1;
#X connect 13 0 0 0;
#X connect 13 0 14 0;
#X connect 15 0 21 1;
#X connect 21 0 12 0;
#X connect 21 1 12 1;
#X connect 21 2 12 2;
#X connect 21 3 12 3;
