#N canvas 645 23 706 581 10;
#X declare -stdlib Gem;
#X text 119 46 DMX Channel ->;
#X obj 10 8 cnv 15 15 15 empty empty ExMM180f-DMX-GEM.pd 0 8 1 14 -262144
-66577 0;
#X text 130 59 1..512;
#X text 145 335 0..255;
#N canvas 702 49 274 571 T 0;
#X obj 99 432 t f b;
#X obj 100 381 nbx 3 14 0 255 0 0 \$0-A \$0-B empty 0 -8 1 10 -262144
-1 -1 255 256;
#X obj 100 106 nbx 3 14 1 512 0 1 \$0-A \$0-B empty 0 -8 1 10 -262144
-1 -1 1 256;
#X obj 126 459 int;
#X obj 100 122 vsl 33 256 0 255 0 1 \$0-A \$0-B empty 0 -9 0 10 -258113
-1 -1 25500 0;
#X obj 100 38 inlet;
#X obj 101 101 cnv 4 10 4 empty empty empty 20 12 0 14 -260097 -66577
0;
#X obj 122 101 cnv 4 10 4 empty empty empty 20 12 0 14 -260097 -66577
0;
#X obj 101 396 cnv 4 10 4 empty empty empty 20 12 0 14 -260097 -66577
0;
#X obj 122 396 cnv 4 10 4 empty empty empty 20 12 0 14 -260097 -66577
0;
#X obj 143 38 inlet;
#X obj 49 537 outlet;
#X obj 178 536 outlet;
#X msg 18 237 set \$1;
#X obj 100 409 int;
#X obj 100 72 int;
#X obj 41 353 int;
#X text 9 389 DMX Channel <-;
#X text 135 390 -> DMX Data;
#X text 21 400 1..512;
#X text 158 401 0..255;
#X text 8 95 DMX Channel ->;
#X text 136 95 <- DMX Data;
#X text 19 108 1..512;
#X text 156 109 0..255;
#X obj 99 509 pack 1 2;
#X obj 99 537 s \$0-DMX1;
#X obj 11 37 r \$0-DMX1Trig;
#X obj 139 171 cnv 15 120 30 empty empty empty 20 12 0 14 -24198 -66577
0;
#X text 147 170 A utiliser avec;
#X text 149 183 MM Control-DMX;
#X text 10 9 MM-Tranche-DMX;
#X connect 0 0 12 0;
#X connect 0 0 25 0;
#X connect 0 1 3 0;
#X connect 1 0 14 0;
#X connect 2 0 3 1;
#X connect 2 0 11 0;
#X connect 3 0 11 0;
#X connect 3 0 25 1;
#X connect 4 0 16 0;
#X connect 5 0 15 0;
#X connect 10 0 4 0;
#X connect 13 0 4 0;
#X connect 14 0 0 0;
#X connect 14 0 13 0;
#X connect 15 0 2 0;
#X connect 16 0 1 0;
#X connect 25 0 26 0;
#X connect 27 0 4 0;
#X coords 0 -1 1 1 33 301 1 100 100;
#X restore 209 43 pd T;
#X text 137 321 DMX Data ->;
#N canvas 702 49 274 571 T 0;
#X obj 99 432 t f b;
#X obj 100 381 nbx 3 14 0 255 0 0 \$0-A \$0-B empty 0 -8 1 10 -262144
-1 -1 0 256;
#X obj 100 106 nbx 3 14 1 512 0 1 \$0-A \$0-B empty 0 -8 1 10 -262144
-1 -1 2 256;
#X obj 126 459 int;
#X obj 100 122 vsl 33 256 0 255 0 1 \$0-A \$0-B empty 0 -9 0 10 -4034
-1 -1 0 0;
#X obj 100 38 inlet;
#X obj 101 101 cnv 4 10 4 empty empty empty 20 12 0 14 -260097 -66577
0;
#X obj 122 101 cnv 4 10 4 empty empty empty 20 12 0 14 -260097 -66577
0;
#X obj 101 396 cnv 4 10 4 empty empty empty 20 12 0 14 -260097 -66577
0;
#X obj 122 396 cnv 4 10 4 empty empty empty 20 12 0 14 -260097 -66577
0;
#X obj 143 38 inlet;
#X obj 49 537 outlet;
#X obj 178 536 outlet;
#X msg 18 237 set \$1;
#X obj 100 409 int;
#X obj 100 72 int;
#X obj 41 353 int;
#X text 9 389 DMX Channel <-;
#X text 135 390 -> DMX Data;
#X text 21 400 1..512;
#X text 158 401 0..255;
#X text 8 95 DMX Channel ->;
#X text 136 95 <- DMX Data;
#X text 19 108 1..512;
#X text 156 109 0..255;
#X obj 99 509 pack 1 2;
#X obj 99 537 s \$0-DMX1;
#X obj 11 37 r \$0-DMX1Trig;
#X obj 139 171 cnv 15 120 30 empty empty empty 20 12 0 14 -24198 -66577
0;
#X text 147 170 A utiliser avec;
#X text 149 183 MM Control-DMX;
#X text 10 9 MM-Tranche-DMX;
#X connect 0 0 12 0;
#X connect 0 0 25 0;
#X connect 0 1 3 0;
#X connect 1 0 14 0;
#X connect 2 0 3 1;
#X connect 2 0 11 0;
#X connect 3 0 11 0;
#X connect 3 0 25 1;
#X connect 4 0 16 0;
#X connect 5 0 15 0;
#X connect 10 0 4 0;
#X connect 13 0 4 0;
#X connect 14 0 0 0;
#X connect 14 0 13 0;
#X connect 15 0 2 0;
#X connect 16 0 1 0;
#X connect 25 0 26 0;
#X connect 27 0 4 0;
#X coords 0 -1 1 1 33 301 1 100 100;
#X restore 242 43 pd T;
#N canvas 702 49 274 571 T 0;
#X obj 99 432 t f b;
#X obj 100 381 nbx 3 14 0 255 0 0 \$0-A \$0-B empty 0 -8 1 10 -262144
-1 -1 0 256;
#X obj 100 106 nbx 3 14 1 512 0 1 \$0-A \$0-B empty 0 -8 1 10 -262144
-1 -1 3 256;
#X obj 126 459 int;
#X obj 100 122 vsl 33 256 0 255 0 1 \$0-A \$0-B empty 0 -9 0 10 -64
-262144 -1 0 0;
#X obj 100 38 inlet;
#X obj 101 101 cnv 4 10 4 empty empty empty 20 12 0 14 -260097 -66577
0;
#X obj 122 101 cnv 4 10 4 empty empty empty 20 12 0 14 -260097 -66577
0;
#X obj 101 396 cnv 4 10 4 empty empty empty 20 12 0 14 -260097 -66577
0;
#X obj 122 396 cnv 4 10 4 empty empty empty 20 12 0 14 -260097 -66577
0;
#X obj 143 38 inlet;
#X obj 49 537 outlet;
#X obj 178 536 outlet;
#X msg 18 237 set \$1;
#X obj 100 409 int;
#X obj 100 72 int;
#X obj 41 353 int;
#X text 9 389 DMX Channel <-;
#X text 135 390 -> DMX Data;
#X text 21 400 1..512;
#X text 158 401 0..255;
#X text 8 95 DMX Channel ->;
#X text 136 95 <- DMX Data;
#X text 19 108 1..512;
#X text 156 109 0..255;
#X obj 99 509 pack 1 2;
#X obj 99 537 s \$0-DMX1;
#X obj 11 37 r \$0-DMX1Trig;
#X obj 139 171 cnv 15 120 30 empty empty empty 20 12 0 14 -24198 -66577
0;
#X text 147 170 A utiliser avec;
#X text 149 183 MM Control-DMX;
#X text 10 9 MM-Tranche-DMX;
#X connect 0 0 12 0;
#X connect 0 0 25 0;
#X connect 0 1 3 0;
#X connect 1 0 14 0;
#X connect 2 0 3 1;
#X connect 2 0 11 0;
#X connect 3 0 11 0;
#X connect 3 0 25 1;
#X connect 4 0 16 0;
#X connect 5 0 15 0;
#X connect 10 0 4 0;
#X connect 13 0 4 0;
#X connect 14 0 0 0;
#X connect 14 0 13 0;
#X connect 15 0 2 0;
#X connect 16 0 1 0;
#X connect 25 0 26 0;
#X connect 27 0 4 0;
#X coords 0 -1 1 1 33 301 1 100 100;
#X restore 275 43 pd T;
#X obj 209 351 + 1;
#X obj 242 351 + 1;
#X obj 275 351 + 6;
#N canvas 702 49 274 571 T 0;
#X obj 99 432 t f b;
#X obj 100 381 nbx 3 14 0 255 0 0 \$0-A \$0-B empty 0 -8 1 10 -262144
-1 -1 0 256;
#X obj 100 106 nbx 3 14 1 512 0 1 \$0-A \$0-B empty 0 -8 1 10 -262144
-1 -1 9 256;
#X obj 126 459 int;
#X obj 100 122 vsl 33 256 0 255 0 1 \$0-A \$0-B empty 0 -9 0 10 -258113
-1 -1 0 0;
#X obj 100 38 inlet;
#X obj 101 101 cnv 4 10 4 empty empty empty 20 12 0 14 -260097 -66577
0;
#X obj 122 101 cnv 4 10 4 empty empty empty 20 12 0 14 -260097 -66577
0;
#X obj 101 396 cnv 4 10 4 empty empty empty 20 12 0 14 -260097 -66577
0;
#X obj 122 396 cnv 4 10 4 empty empty empty 20 12 0 14 -260097 -66577
0;
#X obj 143 38 inlet;
#X obj 49 537 outlet;
#X obj 178 536 outlet;
#X msg 18 237 set \$1;
#X obj 100 409 int;
#X obj 100 72 int;
#X obj 41 353 int;
#X text 9 389 DMX Channel <-;
#X text 135 390 -> DMX Data;
#X text 21 400 1..512;
#X text 158 401 0..255;
#X text 8 95 DMX Channel ->;
#X text 136 95 <- DMX Data;
#X text 19 108 1..512;
#X text 156 109 0..255;
#X obj 99 509 pack 1 2;
#X obj 99 537 s \$0-DMX1;
#X obj 11 37 r \$0-DMX1Trig;
#X obj 139 171 cnv 15 120 30 empty empty empty 20 12 0 14 -24198 -66577
0;
#X text 147 170 A utiliser avec;
#X text 149 183 MM Control-DMX;
#X text 10 9 MM-Tranche-DMX;
#X connect 0 0 12 0;
#X connect 0 0 25 0;
#X connect 0 1 3 0;
#X connect 1 0 14 0;
#X connect 2 0 3 1;
#X connect 2 0 11 0;
#X connect 3 0 11 0;
#X connect 3 0 25 1;
#X connect 4 0 16 0;
#X connect 5 0 15 0;
#X connect 10 0 4 0;
#X connect 13 0 4 0;
#X connect 14 0 0 0;
#X connect 14 0 13 0;
#X connect 15 0 2 0;
#X connect 16 0 1 0;
#X connect 25 0 26 0;
#X connect 27 0 4 0;
#X coords 0 -1 1 1 33 301 1 100 100;
#X restore 315 43 pd T;
#N canvas 702 49 274 571 T 0;
#X obj 99 432 t f b;
#X obj 100 381 nbx 3 14 0 255 0 0 \$0-A \$0-B empty 0 -8 1 10 -262144
-1 -1 255 256;
#X obj 100 106 nbx 3 14 1 512 0 1 \$0-A \$0-B empty 0 -8 1 10 -262144
-1 -1 10 256;
#X obj 126 459 int;
#X obj 100 122 vsl 33 256 0 255 0 1 \$0-A \$0-B empty 0 -9 0 10 -4034
-1 -1 25500 0;
#X obj 100 38 inlet;
#X obj 101 101 cnv 4 10 4 empty empty empty 20 12 0 14 -260097 -66577
0;
#X obj 122 101 cnv 4 10 4 empty empty empty 20 12 0 14 -260097 -66577
0;
#X obj 101 396 cnv 4 10 4 empty empty empty 20 12 0 14 -260097 -66577
0;
#X obj 122 396 cnv 4 10 4 empty empty empty 20 12 0 14 -260097 -66577
0;
#X obj 143 38 inlet;
#X obj 49 537 outlet;
#X obj 178 536 outlet;
#X msg 18 237 set \$1;
#X obj 100 409 int;
#X obj 100 72 int;
#X obj 41 353 int;
#X text 9 389 DMX Channel <-;
#X text 135 390 -> DMX Data;
#X text 21 400 1..512;
#X text 158 401 0..255;
#X text 8 95 DMX Channel ->;
#X text 136 95 <- DMX Data;
#X text 19 108 1..512;
#X text 156 109 0..255;
#X obj 99 509 pack 1 2;
#X obj 99 537 s \$0-DMX1;
#X obj 11 37 r \$0-DMX1Trig;
#X obj 139 171 cnv 15 120 30 empty empty empty 20 12 0 14 -24198 -66577
0;
#X text 147 170 A utiliser avec;
#X text 149 183 MM Control-DMX;
#X text 10 9 MM-Tranche-DMX;
#X connect 0 0 12 0;
#X connect 0 0 25 0;
#X connect 0 1 3 0;
#X connect 1 0 14 0;
#X connect 2 0 3 1;
#X connect 2 0 11 0;
#X connect 3 0 11 0;
#X connect 3 0 25 1;
#X connect 4 0 16 0;
#X connect 5 0 15 0;
#X connect 10 0 4 0;
#X connect 13 0 4 0;
#X connect 14 0 0 0;
#X connect 14 0 13 0;
#X connect 15 0 2 0;
#X connect 16 0 1 0;
#X connect 25 0 26 0;
#X connect 27 0 4 0;
#X coords 0 -1 1 1 33 301 1 100 100;
#X restore 348 43 pd T;
#N canvas 702 49 274 571 T 0;
#X obj 99 432 t f b;
#X obj 100 381 nbx 3 14 0 255 0 0 \$0-A \$0-B empty 0 -8 1 10 -262144
-1 -1 0 256;
#X obj 100 106 nbx 3 14 1 512 0 1 \$0-A \$0-B empty 0 -8 1 10 -262144
-1 -1 11 256;
#X obj 126 459 int;
#X obj 100 122 vsl 33 256 0 255 0 1 \$0-A \$0-B empty 0 -9 0 10 -64
-262144 -1 0 0;
#X obj 100 38 inlet;
#X obj 101 101 cnv 4 10 4 empty empty empty 20 12 0 14 -260097 -66577
0;
#X obj 122 101 cnv 4 10 4 empty empty empty 20 12 0 14 -260097 -66577
0;
#X obj 101 396 cnv 4 10 4 empty empty empty 20 12 0 14 -260097 -66577
0;
#X obj 122 396 cnv 4 10 4 empty empty empty 20 12 0 14 -260097 -66577
0;
#X obj 143 38 inlet;
#X obj 49 537 outlet;
#X obj 178 536 outlet;
#X msg 18 237 set \$1;
#X obj 100 409 int;
#X obj 100 72 int;
#X obj 41 353 int;
#X text 9 389 DMX Channel <-;
#X text 135 390 -> DMX Data;
#X text 21 400 1..512;
#X text 158 401 0..255;
#X text 8 95 DMX Channel ->;
#X text 136 95 <- DMX Data;
#X text 19 108 1..512;
#X text 156 109 0..255;
#X obj 99 509 pack 1 2;
#X obj 99 537 s \$0-DMX1;
#X obj 11 37 r \$0-DMX1Trig;
#X obj 139 171 cnv 15 120 30 empty empty empty 20 12 0 14 -24198 -66577
0;
#X text 147 170 A utiliser avec;
#X text 149 183 MM Control-DMX;
#X text 10 9 MM-Tranche-DMX;
#X connect 0 0 12 0;
#X connect 0 0 25 0;
#X connect 0 1 3 0;
#X connect 1 0 14 0;
#X connect 2 0 3 1;
#X connect 2 0 11 0;
#X connect 3 0 11 0;
#X connect 3 0 25 1;
#X connect 4 0 16 0;
#X connect 5 0 15 0;
#X connect 10 0 4 0;
#X connect 13 0 4 0;
#X connect 14 0 0 0;
#X connect 14 0 13 0;
#X connect 15 0 2 0;
#X connect 16 0 1 0;
#X connect 25 0 26 0;
#X connect 27 0 4 0;
#X coords 0 -1 1 1 33 301 1 100 100;
#X restore 381 43 pd T;
#X obj 315 351 + 1;
#X obj 348 351 + 1;
#X obj 381 350 + 6;
#N canvas 702 49 274 571 T 0;
#X obj 99 432 t f b;
#X obj 100 381 nbx 3 14 0 255 0 0 \$0-A \$0-B empty 0 -8 1 10 -262144
-1 -1 0 256;
#X obj 100 106 nbx 3 14 1 512 0 1 \$0-A \$0-B empty 0 -8 1 10 -262144
-1 -1 17 256;
#X obj 126 459 int;
#X obj 100 122 vsl 33 256 0 255 0 1 \$0-A \$0-B empty 0 -9 0 10 -258113
-1 -1 0 0;
#X obj 100 38 inlet;
#X obj 101 101 cnv 4 10 4 empty empty empty 20 12 0 14 -260097 -66577
0;
#X obj 122 101 cnv 4 10 4 empty empty empty 20 12 0 14 -260097 -66577
0;
#X obj 101 396 cnv 4 10 4 empty empty empty 20 12 0 14 -260097 -66577
0;
#X obj 122 396 cnv 4 10 4 empty empty empty 20 12 0 14 -260097 -66577
0;
#X obj 143 38 inlet;
#X obj 49 537 outlet;
#X obj 178 536 outlet;
#X msg 18 237 set \$1;
#X obj 100 409 int;
#X obj 100 72 int;
#X obj 41 353 int;
#X text 9 389 DMX Channel <-;
#X text 135 390 -> DMX Data;
#X text 21 400 1..512;
#X text 158 401 0..255;
#X text 8 95 DMX Channel ->;
#X text 136 95 <- DMX Data;
#X text 19 108 1..512;
#X text 156 109 0..255;
#X obj 99 509 pack 1 2;
#X obj 99 537 s \$0-DMX1;
#X obj 11 37 r \$0-DMX1Trig;
#X obj 139 171 cnv 15 120 30 empty empty empty 20 12 0 14 -24198 -66577
0;
#X text 147 170 A utiliser avec;
#X text 149 183 MM Control-DMX;
#X text 10 9 MM-Tranche-DMX;
#X connect 0 0 12 0;
#X connect 0 0 25 0;
#X connect 0 1 3 0;
#X connect 1 0 14 0;
#X connect 2 0 3 1;
#X connect 2 0 11 0;
#X connect 3 0 11 0;
#X connect 3 0 25 1;
#X connect 4 0 16 0;
#X connect 5 0 15 0;
#X connect 10 0 4 0;
#X connect 13 0 4 0;
#X connect 14 0 0 0;
#X connect 14 0 13 0;
#X connect 15 0 2 0;
#X connect 16 0 1 0;
#X connect 25 0 26 0;
#X connect 27 0 4 0;
#X coords 0 -1 1 1 33 301 1 100 100;
#X restore 421 43 pd T;
#N canvas 702 49 274 571 T 0;
#X obj 99 432 t f b;
#X obj 100 381 nbx 3 14 0 255 0 0 \$0-A \$0-B empty 0 -8 1 10 -262144
-1 -1 0 256;
#X obj 100 106 nbx 3 14 1 512 0 1 \$0-A \$0-B empty 0 -8 1 10 -262144
-1 -1 18 256;
#X obj 126 459 int;
#X obj 100 122 vsl 33 256 0 255 0 1 \$0-A \$0-B empty 0 -9 0 10 -4034
-1 -1 0 0;
#X obj 100 38 inlet;
#X obj 101 101 cnv 4 10 4 empty empty empty 20 12 0 14 -260097 -66577
0;
#X obj 122 101 cnv 4 10 4 empty empty empty 20 12 0 14 -260097 -66577
0;
#X obj 101 396 cnv 4 10 4 empty empty empty 20 12 0 14 -260097 -66577
0;
#X obj 122 396 cnv 4 10 4 empty empty empty 20 12 0 14 -260097 -66577
0;
#X obj 143 38 inlet;
#X obj 49 537 outlet;
#X obj 178 536 outlet;
#X msg 18 237 set \$1;
#X obj 100 409 int;
#X obj 100 72 int;
#X obj 41 353 int;
#X text 9 389 DMX Channel <-;
#X text 135 390 -> DMX Data;
#X text 21 400 1..512;
#X text 158 401 0..255;
#X text 8 95 DMX Channel ->;
#X text 136 95 <- DMX Data;
#X text 19 108 1..512;
#X text 156 109 0..255;
#X obj 99 509 pack 1 2;
#X obj 99 537 s \$0-DMX1;
#X obj 11 37 r \$0-DMX1Trig;
#X obj 139 171 cnv 15 120 30 empty empty empty 20 12 0 14 -24198 -66577
0;
#X text 147 170 A utiliser avec;
#X text 149 183 MM Control-DMX;
#X text 10 9 MM-Tranche-DMX;
#X connect 0 0 12 0;
#X connect 0 0 25 0;
#X connect 0 1 3 0;
#X connect 1 0 14 0;
#X connect 2 0 3 1;
#X connect 2 0 11 0;
#X connect 3 0 11 0;
#X connect 3 0 25 1;
#X connect 4 0 16 0;
#X connect 5 0 15 0;
#X connect 10 0 4 0;
#X connect 13 0 4 0;
#X connect 14 0 0 0;
#X connect 14 0 13 0;
#X connect 15 0 2 0;
#X connect 16 0 1 0;
#X connect 25 0 26 0;
#X connect 27 0 4 0;
#X coords 0 -1 1 1 33 301 1 100 100;
#X restore 454 43 pd T;
#N canvas 702 49 274 571 T 0;
#X obj 99 432 t f b;
#X obj 100 381 nbx 3 14 0 255 0 0 \$0-A \$0-B empty 0 -8 1 10 -262144
-1 -1 255 256;
#X obj 100 106 nbx 3 14 1 512 0 1 \$0-A \$0-B empty 0 -8 1 10 -262144
-1 -1 19 256;
#X obj 126 459 int;
#X obj 100 122 vsl 33 256 0 255 0 1 \$0-A \$0-B empty 0 -9 0 10 -64
-262144 -1 25500 0;
#X obj 100 38 inlet;
#X obj 101 101 cnv 4 10 4 empty empty empty 20 12 0 14 -260097 -66577
0;
#X obj 122 101 cnv 4 10 4 empty empty empty 20 12 0 14 -260097 -66577
0;
#X obj 101 396 cnv 4 10 4 empty empty empty 20 12 0 14 -260097 -66577
0;
#X obj 122 396 cnv 4 10 4 empty empty empty 20 12 0 14 -260097 -66577
0;
#X obj 143 38 inlet;
#X obj 49 537 outlet;
#X obj 178 536 outlet;
#X msg 18 237 set \$1;
#X obj 100 409 int;
#X obj 100 72 int;
#X obj 41 353 int;
#X text 9 389 DMX Channel <-;
#X text 135 390 -> DMX Data;
#X text 21 400 1..512;
#X text 158 401 0..255;
#X text 8 95 DMX Channel ->;
#X text 136 95 <- DMX Data;
#X text 19 108 1..512;
#X text 156 109 0..255;
#X obj 99 509 pack 1 2;
#X obj 99 537 s \$0-DMX1;
#X obj 11 37 r \$0-DMX1Trig;
#X obj 139 171 cnv 15 120 30 empty empty empty 20 12 0 14 -24198 -66577
0;
#X text 147 170 A utiliser avec;
#X text 149 183 MM Control-DMX;
#X text 10 9 MM-Tranche-DMX;
#X connect 0 0 12 0;
#X connect 0 0 25 0;
#X connect 0 1 3 0;
#X connect 1 0 14 0;
#X connect 2 0 3 1;
#X connect 2 0 11 0;
#X connect 3 0 11 0;
#X connect 3 0 25 1;
#X connect 4 0 16 0;
#X connect 5 0 15 0;
#X connect 10 0 4 0;
#X connect 13 0 4 0;
#X connect 14 0 0 0;
#X connect 14 0 13 0;
#X connect 15 0 2 0;
#X connect 16 0 1 0;
#X connect 25 0 26 0;
#X connect 27 0 4 0;
#X coords 0 -1 1 1 33 301 1 100 100;
#X restore 487 43 pd T;
#X obj 421 351 + 1;
#X obj 454 351 + 1;
#X obj 487 350 + 6;
#N canvas 702 49 274 571 T 0;
#X obj 99 432 t f b;
#X obj 100 381 nbx 3 14 0 255 0 0 \$0-A \$0-B empty 0 -8 1 10 -262144
-1 -1 255 256;
#X obj 100 106 nbx 3 14 1 512 0 1 \$0-A \$0-B empty 0 -8 1 10 -262144
-1 -1 25 256;
#X obj 126 459 int;
#X obj 100 122 vsl 33 256 0 255 0 1 \$0-A \$0-B empty 0 -9 0 10 -258113
-1 -1 25500 0;
#X obj 100 38 inlet;
#X obj 101 101 cnv 4 10 4 empty empty empty 20 12 0 14 -260097 -66577
0;
#X obj 122 101 cnv 4 10 4 empty empty empty 20 12 0 14 -260097 -66577
0;
#X obj 101 396 cnv 4 10 4 empty empty empty 20 12 0 14 -260097 -66577
0;
#X obj 122 396 cnv 4 10 4 empty empty empty 20 12 0 14 -260097 -66577
0;
#X obj 143 38 inlet;
#X obj 49 537 outlet;
#X obj 178 536 outlet;
#X msg 18 237 set \$1;
#X obj 100 409 int;
#X obj 100 72 int;
#X obj 41 353 int;
#X text 9 389 DMX Channel <-;
#X text 135 390 -> DMX Data;
#X text 21 400 1..512;
#X text 158 401 0..255;
#X text 8 95 DMX Channel ->;
#X text 136 95 <- DMX Data;
#X text 19 108 1..512;
#X text 156 109 0..255;
#X obj 99 509 pack 1 2;
#X obj 99 537 s \$0-DMX1;
#X obj 11 37 r \$0-DMX1Trig;
#X obj 139 171 cnv 15 120 30 empty empty empty 20 12 0 14 -24198 -66577
0;
#X text 147 170 A utiliser avec;
#X text 149 183 MM Control-DMX;
#X text 10 9 MM-Tranche-DMX;
#X connect 0 0 12 0;
#X connect 0 0 25 0;
#X connect 0 1 3 0;
#X connect 1 0 14 0;
#X connect 2 0 3 1;
#X connect 2 0 11 0;
#X connect 3 0 11 0;
#X connect 3 0 25 1;
#X connect 4 0 16 0;
#X connect 5 0 15 0;
#X connect 10 0 4 0;
#X connect 13 0 4 0;
#X connect 14 0 0 0;
#X connect 14 0 13 0;
#X connect 15 0 2 0;
#X connect 16 0 1 0;
#X connect 25 0 26 0;
#X connect 27 0 4 0;
#X coords 0 -1 1 1 33 301 1 100 100;
#X restore 528 43 pd T;
#N canvas 702 49 274 571 T 0;
#X obj 99 432 t f b;
#X obj 100 381 nbx 3 14 0 255 0 0 \$0-A \$0-B empty 0 -8 1 10 -262144
-1 -1 255 256;
#X obj 100 106 nbx 3 14 1 512 0 1 \$0-A \$0-B empty 0 -8 1 10 -262144
-1 -1 26 256;
#X obj 126 459 int;
#X obj 100 122 vsl 33 256 0 255 0 1 \$0-A \$0-B empty 0 -9 0 10 -4034
-1 -1 25500 0;
#X obj 100 38 inlet;
#X obj 101 101 cnv 4 10 4 empty empty empty 20 12 0 14 -260097 -66577
0;
#X obj 122 101 cnv 4 10 4 empty empty empty 20 12 0 14 -260097 -66577
0;
#X obj 101 396 cnv 4 10 4 empty empty empty 20 12 0 14 -260097 -66577
0;
#X obj 122 396 cnv 4 10 4 empty empty empty 20 12 0 14 -260097 -66577
0;
#X obj 143 38 inlet;
#X obj 49 537 outlet;
#X obj 178 536 outlet;
#X msg 18 237 set \$1;
#X obj 100 409 int;
#X obj 100 72 int;
#X obj 41 353 int;
#X text 9 389 DMX Channel <-;
#X text 135 390 -> DMX Data;
#X text 21 400 1..512;
#X text 158 401 0..255;
#X text 8 95 DMX Channel ->;
#X text 136 95 <- DMX Data;
#X text 19 108 1..512;
#X text 156 109 0..255;
#X obj 99 509 pack 1 2;
#X obj 99 537 s \$0-DMX1;
#X obj 11 37 r \$0-DMX1Trig;
#X obj 139 171 cnv 15 120 30 empty empty empty 20 12 0 14 -24198 -66577
0;
#X text 147 170 A utiliser avec;
#X text 149 183 MM Control-DMX;
#X text 10 9 MM-Tranche-DMX;
#X connect 0 0 12 0;
#X connect 0 0 25 0;
#X connect 0 1 3 0;
#X connect 1 0 14 0;
#X connect 2 0 3 1;
#X connect 2 0 11 0;
#X connect 3 0 11 0;
#X connect 3 0 25 1;
#X connect 4 0 16 0;
#X connect 5 0 15 0;
#X connect 10 0 4 0;
#X connect 13 0 4 0;
#X connect 14 0 0 0;
#X connect 14 0 13 0;
#X connect 15 0 2 0;
#X connect 16 0 1 0;
#X connect 25 0 26 0;
#X connect 27 0 4 0;
#X coords 0 -1 1 1 33 301 1 100 100;
#X restore 561 43 pd T;
#N canvas 702 49 274 571 T 0;
#X obj 99 432 t f b;
#X obj 100 381 nbx 3 14 0 255 0 0 \$0-A \$0-B empty 0 -8 1 10 -262144
-1 -1 255 256;
#X obj 100 106 nbx 3 14 1 512 0 1 \$0-A \$0-B empty 0 -8 1 10 -262144
-1 -1 27 256;
#X obj 126 459 int;
#X obj 100 122 vsl 33 256 0 255 0 1 \$0-A \$0-B empty 0 -9 0 10 -64
-262144 -1 25500 0;
#X obj 100 38 inlet;
#X obj 101 101 cnv 4 10 4 empty empty empty 20 12 0 14 -260097 -66577
0;
#X obj 122 101 cnv 4 10 4 empty empty empty 20 12 0 14 -260097 -66577
0;
#X obj 101 396 cnv 4 10 4 empty empty empty 20 12 0 14 -260097 -66577
0;
#X obj 122 396 cnv 4 10 4 empty empty empty 20 12 0 14 -260097 -66577
0;
#X obj 143 38 inlet;
#X obj 49 537 outlet;
#X obj 178 536 outlet;
#X msg 18 237 set \$1;
#X obj 100 409 int;
#X obj 100 72 int;
#X obj 41 353 int;
#X text 9 389 DMX Channel <-;
#X text 135 390 -> DMX Data;
#X text 21 400 1..512;
#X text 158 401 0..255;
#X text 8 95 DMX Channel ->;
#X text 136 95 <- DMX Data;
#X text 19 108 1..512;
#X text 156 109 0..255;
#X obj 99 509 pack 1 2;
#X obj 99 537 s \$0-DMX1;
#X obj 11 37 r \$0-DMX1Trig;
#X obj 139 171 cnv 15 120 30 empty empty empty 20 12 0 14 -24198 -66577
0;
#X text 147 170 A utiliser avec;
#X text 149 183 MM Control-DMX;
#X text 10 9 MM-Tranche-DMX;
#X connect 0 0 12 0;
#X connect 0 0 25 0;
#X connect 0 1 3 0;
#X connect 1 0 14 0;
#X connect 2 0 3 1;
#X connect 2 0 11 0;
#X connect 3 0 11 0;
#X connect 3 0 25 1;
#X connect 4 0 16 0;
#X connect 5 0 15 0;
#X connect 10 0 4 0;
#X connect 13 0 4 0;
#X connect 14 0 0 0;
#X connect 14 0 13 0;
#X connect 15 0 2 0;
#X connect 16 0 1 0;
#X connect 25 0 26 0;
#X connect 27 0 4 0;
#X coords 0 -1 1 1 33 301 1 100 100;
#X restore 594 43 pd T;
#X obj 528 351 + 1;
#X obj 561 351 + 1;
#X obj 594 350 + 6;
#X obj 68 428 / 2.55;
#X obj 114 428 / 2.55;
#X obj 161 428 / 2.55;
#X obj 227 428 / 2.55;
#X obj 273 428 / 2.55;
#X obj 320 428 / 2.55;
#X obj 387 428 / 2.55;
#X obj 433 428 / 2.55;
#X obj 480 428 / 2.55;
#X obj 545 428 / 2.55;
#X obj 591 428 / 2.55;
#X obj 638 428 / 2.55;
#X obj 316 12 declare -stdlib Gem;
#N canvas 422 46 482 596 Control-DMX 0;
#N canvas 464 257 387 321 list-creation 0;
#X obj 140 250 list append;
#X msg 239 133 231;
#X obj 140 137 until;
#X msg 140 171 0;
#X msg 41 134 126 6 1 2;
#X obj 140 287 outlet;
#X obj 121 10 inlet;
#X msg 179 105 513;
#X obj 275 133 bng 15 250 50 0 empty empty empty 17 7 0 10 -262144
-1 -1;
#X text 297 132 Clear List;
#X msg 140 105 513;
#X obj 121 37 t b b b b;
#X obj 245 254 zexy/lister;
#X connect 0 0 5 0;
#X connect 0 0 12 0;
#X connect 1 0 0 0;
#X connect 2 0 3 0;
#X connect 3 0 0 0;
#X connect 4 0 0 0;
#X connect 6 0 11 0;
#X connect 8 0 0 1;
#X connect 10 0 2 0;
#X connect 11 0 4 0;
#X connect 11 1 10 0;
#X connect 11 2 1 0;
#X connect 11 3 8 0;
#X connect 12 0 0 1;
#X restore 303 196 pd list-creation;
#X obj 276 121 loadbang;
#X obj 256 120 bng 15 250 50 0 empty empty empty 17 7 0 10 -262144
-1 -1;
#X obj 264 262 cnv 1 1 1 empty ColorForm Control-DMX. -1 3 1 14 -262144
-1 1.04858e+06;
#X obj 200 250 bng 12 50 50 0 \$0-A \$0-B List-ports 15 7 1 9 -262144
-1 -1;
#X msg 226 455 devices;
#X msg 429 455 help;
#X msg 390 455 info;
#X msg 344 455 close;
#X obj 64 513 spigot 0;
#X obj 200 308 bng 12 50 50 0 \$0-A \$0-B Display-Trame 15 7 1 9 -262144
-1 -1;
#X msg 76 487 1;
#X msg 109 487 0;
#X obj 80 563 print Trame;
#X obj 62 538 t b a b;
#X obj 359 145 cnv 15 60 30 empty empty empty 20 12 0 14 -24198 -66577
0;
#N canvas 329 49 530 619 Help 0;
#X obj 28 29 cnv 15 400 180 empty empty empty 20 12 0 14 -233017 -66577
0;
#X text 30 31 Citation;
#X text 9 10 MM Control-DMX;
#X text 13 299 ATTENTION: il faut ouvrir un et un seul MiniModule "Control-DMX".
;
#X text 12 329 CAUTION: it is necessary to open one and only one MiniModule
"Control-DMX".;
#X text 11 228 Inspiration:;
#X text 11 246 Mis au point sous MacOS avec interface ENTTEC DMX USB
Pro:;
#X obj 88 228 pddp/pddplink http://wiki.labomedia.org/index.php/Pure_Data_vs_Enttec_Pro
;
#X obj 121 173 pddp/pddplink http://en.wikipedia.org/wiki/DMX512;
#X obj 119 114 pddp/pddplink http://fr.wikipedia.org/wiki/DMX_(éclairage)
;
#X text 43 48 "Le DMX512 (digital multiplexing) est un protocole de
multiplexage de données. Il est essentiellement utilisé pour le contrôle
de l'éclairage dynamique d'évènements en complément de la sonorisation
(concerts \, plateaux télé \, spectacle son & lumière).";
#X text 41 134 "DMX512 is a standard for digital communication networks
that are commonly used to control stage lighting and effects.";
#X text 15 386 0 Installer FTDIUSBSerialDriver_10_4_10_5_10_6.mpkg
;
#X text 15 371 Sous MacOSX.6;
#X text 15 401 1 Connecter;
#X text 87 402 Mac -> USB -> ENTECC DMX USB PRO -> DMX -> Projecteurs
;
#X text 15 447 4 On DMX;
#X text 15 417 2 Clic List-ports ->;
#X text 15 461 5 La LED de l'interface ENTTEC clignote;
#X text 138 417 Si 2 /dev/tty.usbserial-EN082523 s'affiche...;
#X text 15 432 3 ... choisir port 2;
#X text 15 519 1 Connecter;
#X text 15 565 4 On DMX;
#X text 15 579 5 La LED de l'interface ENTTEC clignote;
#X text 15 489 Sous Linux Ubuntu 11.1;
#X text 15 504 0 Aucun driver à installer;
#X text 87 520 PC -> USB -> ENTECC DMX USB PRO -> DMX -> Projecteurs
;
#X text 15 550 3 ... choisir port 32;
#X text 15 535 2 Clic List-ports -> Si ...32 s'affiche;
#X obj 12 260 pddp/pddplink https://www.enttec.co.uk/en/product/controls/dmx-usb-interfaces/dmx-usb-interface/
;
#X restore 366 151 pd Help;
#X obj 41 31 cnv 15 380 70 empty empty empty 20 12 0 14 -24198 -66577
0;
#X obj 69 124 r \$0-DMX1;
#X obj 96 170 unpack 1 2;
#X obj 153 196 + 4;
#X text 49 34 ATTENTION: il faut ouvrir un et un seul MiniModule "Control-DMX".
;
#X text 48 64 CAUTION: it is necessary to open one and only one MiniModule
"Control-DMX".;
#X obj 121 455 spigot 0;
#X obj 312 563 s \$0-DMX1Trig;
#X obj 276 173 delay 500;
#X msg 189 487 0;
#X obj 200 291 bng 12 50 50 0 \$0-A \$0-B Send-0->Tranche-Open 15 7
1 9 -262144 -1 -1;
#X obj 200 279 bng 12 50 50 0 \$0-A \$0-B Send-0->512Tranches 15 7
1 9 -262144 -1 -1;
#X obj 276 145 t b b;
#X obj 69 455 t b b;
#X obj 181 455 t b b;
#X obj 95 320 list 0;
#X obj 69 148 t b a;
#X obj 69 228 delay 10;
#X obj 84 196 bng 15 250 50 0 empty empty empty 17 7 0 10 -262144 -1
-1;
#X obj 200 262 nbx 2 12 0 99 0 1 \$0-A \$0-B port 26 7 1 9 -262144
-1 -1 0 256;
#X obj 200 324 tgl 18 0 \$0-A \$0-B On/Off-DMX 20 11 1 14 -4033 -1
-1 0 1;
#X obj 344 423 delay 300;
#X obj 204 353 select 0 1;
#X msg 126 425 0;
#X msg 227 430 1;
#X msg 275 354 set open \$1;
#X msg 282 455 open 0;
#X obj 201 384 delay 200;
#X obj 201 408 t b b;
#X obj 199 563 comport/comport;
#X obj 367 310 cnv 15 100 70 empty empty empty 20 12 0 14 -24198 -66577
0;
#X text 390 312 library:;
#X text 372 336 pddp;
#X text 371 323 comport;
#X obj 126 228 list-abs/list-replace;
#X obj 188 196 zexy/lister;
#X text 372 348 zexy;
#X text 371 360 list-abs;
#X obj 408 555 cnv 15 52 22 empty empty empty 20 12 0 14 -24198 -66577
0;
#N canvas 353 174 321 152 ?... 0;
#X obj 8 84 cnv 15 300 56 empty empty empty 20 12 0 14 -224896 -66577
0;
#X obj 8 7 cnv 18 300 70 empty empty ARGOPdMiniModules 3 10 1 14 -4033
-1 1.04858e+06;
#X obj 31 27 cnv 10 10 10 empty empty Gerard 0 5 1 11 -4033 -1 1.04858e+06
;
#X obj 69 27 cnv 10 10 10 empty empty Paresys 0 5 1 11 -4033 -1 1.04858e+06
;
#X obj 12 40 pddp/pddplink http://gerard.paresys.free.fr/ARGOPd/;
#X obj 13 121 pddp/pddplink http://puredata.info/downloads/pd-extended
;
#X obj 13 97 pddp/pddplink http://puredata.info/downloads/pure-data
;
#X text 13 85 Construit sous / Build under Pd-0.49...;
#X text 12 109 or Pd 0.43.4-extended;
#X obj 12 53 pddp/pddplink https://paresys.pagesperso-orange.fr/ARGOPd/
;
#X restore 411 558 pd ?...;
#X text 309 236 8 9 2019;
#X connect 0 0 51 2;
#X connect 1 0 29 0;
#X connect 2 0 29 0;
#X connect 4 0 5 0;
#X connect 5 0 46 0;
#X connect 6 0 46 0;
#X connect 7 0 46 0;
#X connect 8 0 46 0;
#X connect 9 0 14 0;
#X connect 10 0 30 0;
#X connect 11 0 9 1;
#X connect 12 0 9 1;
#X connect 14 0 12 0;
#X connect 14 1 13 0;
#X connect 18 0 33 0;
#X connect 19 0 51 0;
#X connect 19 1 20 0;
#X connect 20 0 51 1;
#X connect 23 0 46 0;
#X connect 25 0 24 0;
#X connect 26 0 24 0;
#X connect 27 0 31 0;
#X connect 28 0 29 0;
#X connect 28 0 26 0;
#X connect 29 0 25 0;
#X connect 29 1 0 0;
#X connect 30 0 34 0;
#X connect 30 1 11 0;
#X connect 31 0 34 0;
#X connect 31 1 26 0;
#X connect 32 0 23 0;
#X connect 32 0 9 0;
#X connect 33 0 34 0;
#X connect 33 1 19 0;
#X connect 34 0 32 0;
#X connect 35 0 34 0;
#X connect 36 0 42 0;
#X connect 37 0 39 0;
#X connect 38 0 8 0;
#X connect 39 0 38 0;
#X connect 39 0 40 0;
#X connect 39 1 43 0;
#X connect 39 1 44 0;
#X connect 40 0 23 1;
#X connect 41 0 23 1;
#X connect 42 0 43 0;
#X connect 43 0 46 0;
#X connect 44 0 45 0;
#X connect 45 0 34 0;
#X connect 45 1 41 0;
#X connect 51 0 32 1;
#X connect 51 0 52 0;
#X connect 52 0 51 2;
#X coords 0 -1 1 1 160 92 2 200 250;
#X restore 29 105 pd Control-DMX;
#N canvas 423 177 281 233 ARGO 0;
#X obj 101 101 cnv 10 164 17 empty ColorForm empty 20 12 0 14 -228856
-1 1.04858e+06;
#X obj 187 105 cnv 10 20 10 empty ColorForm GEM-Head. 1 5 1 14 -228856
-1 1.04858e+06;
#X obj 101 114 cnv 4 10 4 empty empty empty 20 12 0 14 -128992 -66577
0;
#X text 84 119 gemlist;
#X obj 113 101 nbx 3 12 1 100 0 1 \$0-A \$0-B Render 33 7 1 9 -262144
-1 -1 51 256;
#X obj 101 169 gemhead;
#X msg 134 134 set \$1;
#X obj 101 200 outlet;
#X obj 101 101 tgl 12 1 \$0-A \$0-B empty 15 7 1 9 -262144 -1 -1 1
1;
#X text 40 98 On/Off ->;
#X obj 120 40 cnv 15 60 30 empty empty empty 20 12 0 14 -24198 -66577
0;
#N canvas 642 261 453 329 Help 0;
#X obj 5 56 cnv 15 430 200 empty empty empty 20 12 0 14 -233017 -66577
0;
#X text 8 56 Citation;
#X text 6 26 GEM-Head;
#X text 15 125 gemhead takes an argument to determine when it receives
the render command. The default value is 50 The lower the value is
\, the sooner the gemhead will receive the rendering command (a value
of 1 is the lowest possible value (see below)). This value becomes
important when you are doing alpha blending and for certain objects
(such as light).;
#X text 17 213 gemhead also accepts a 1 or 0 to enable and disable
rendering for the chain.;
#X text 15 76 gemhead connects the gem objects to the window manager.
The start of any gemList begins with the gemhead. Without the gemhead
\, gem objects will not receive the render command.;
#X restore 127 46 pd Help;
#X text 207 83 16 8 2019;
#X obj 210 187 cnv 15 54 25 empty empty empty 20 12 0 14 -24198 -66577
0;
#N canvas 350 196 313 131 ???? 0;
#X obj 3 83 cnv 15 300 38 empty empty empty 20 12 0 14 -224896 -66577
0;
#X obj 3 6 cnv 18 300 70 empty empty ARGOPdMiniModules 3 10 1 14 -4033
-1 1.04858e+06;
#X obj 26 26 cnv 10 10 10 empty empty Gerard 0 5 1 11 -4033 -1 1.04858e+06
;
#X obj 64 26 cnv 10 10 10 empty empty Paresys 0 5 1 11 -4033 -1 1.04858e+06
;
#X obj 7 50 pddp/pddplink http://pagesperso-orange.fr/Paresys/ARGOPd/
;
#X obj 7 37 pddp/pddplink http://gerard.paresys.free.fr/ARGOPd/;
#X text 8 85 Construit sous / Build under Pd 0.43.4-extended;
#X obj 17 100 pddp/pddplink http://puredata.info/downloads/pd-extended
;
#X restore 214 191 pd ????;
#X connect 4 0 6 0;
#X connect 5 0 7 0;
#X connect 6 0 5 0;
#X connect 8 0 5 0;
#X coords 0 -1 1 1 166 19 1 100 100;
#X restore 374 389 pd ARGO;
#N canvas 457 220 345 309 ARGO 0;
#X obj 101 101 cnv 10 144 54 empty ColorForm empty 20 12 0 14 -228856
-1 1.04858e+06;
#X obj 101 101 cnv 4 10 4 empty empty empty 20 12 0 14 -128992 -66577
0;
#X obj 162 108 cnv 10 20 10 empty ColorForm GEM-Color. 1 5 1 14 -228856
-1 1.04858e+06;
#X text 76 57 gemlist;
#X obj 101 151 cnv 4 10 4 empty empty empty 20 12 0 14 -128992 -66577
0;
#X text 79 281 gemlist;
#X obj 257 190 t b f;
#X obj 197 190 t b f;
#X obj 197 218 pack 0 0 0;
#X obj 82 265 outlet;
#X obj 82 245 color;
#X obj 82 77 inlet;
#X text 125 49 Control;
#X text 135 60 Red;
#X text 174 49 Control;
#X text 178 60 Green;
#X text 220 49 Control;
#X text 228 61 Blue;
#X obj 115 120 hsl 129 12 0 100 0 1 \$0-A \$0-B 100 0 8 1 12 -258049
-262144 -262144 12800 0;
#X obj 115 132 hsl 129 12 0 100 0 1 \$0-A \$0-B 0 0 8 1 12 -4033 -262144
-262144 0 0;
#X obj 115 144 hsl 129 12 0 100 0 1 \$0-A \$0-B 0 0 8 1 12 -64 -262144
-262144 0 0;
#X obj 81 18 cnv 15 60 30 empty empty empty 20 12 0 14 -24198 -66577
0;
#N canvas 369 208 421 215 Help 0;
#X obj 7 -95 cnv 15 400 200 empty empty empty 20 12 0 14 -233017 -66577
0;
#X text 10 -96 Citation;
#X text 19 -59 [color] sets the colour of all subsequent shape and
vertex operations until reset by another [color]/[colorRGB] object.
If you set the alpha-value \, you will beed an [alpha] object to enable
alpha-blending;
#X text 9 -73 Description: colouring;
#X restore 88 24 pd Help;
#X obj 235 101 cnv 4 10 4 empty empty empty 20 12 0 14 -260097 -66577
0;
#X obj 191 101 cnv 4 10 4 empty empty empty 20 12 0 14 -260097 -66577
0;
#X obj 143 101 cnv 4 10 4 empty empty empty 20 12 0 14 -260097 -66577
0;
#X obj 125 77 inlet;
#X obj 174 77 inlet;
#X obj 223 77 inlet;
#N canvas 795 278 198 218 color 0;
#X obj 68 186 outlet;
#X obj 68 10 inlet;
#X msg 68 141 label \$1;
#X obj 68 96 int;
#X obj 131 95 / 100;
#X obj 131 185 outlet;
#X obj 68 119 cyclone/tosymbol;
#X connect 1 0 3 0;
#X connect 1 0 4 0;
#X connect 2 0 0 0;
#X connect 3 0 6 0;
#X connect 4 0 5 0;
#X connect 6 0 2 0;
#X restore 91 167 pd color;
#N canvas 795 278 198 218 color 0;
#X obj 68 186 outlet;
#X obj 68 10 inlet;
#X msg 68 141 label \$1;
#X obj 68 96 int;
#X obj 131 95 / 100;
#X obj 131 185 outlet;
#X obj 68 119 cyclone/tosymbol;
#X connect 1 0 3 0;
#X connect 1 0 4 0;
#X connect 2 0 0 0;
#X connect 3 0 6 0;
#X connect 4 0 5 0;
#X connect 6 0 2 0;
#X restore 152 167 pd color;
#N canvas 795 278 198 218 color 0;
#X obj 68 186 outlet;
#X obj 68 10 inlet;
#X msg 68 141 label \$1;
#X obj 68 96 int;
#X obj 131 95 / 100;
#X obj 131 185 outlet;
#X obj 68 119 cyclone/tosymbol;
#X connect 1 0 3 0;
#X connect 1 0 4 0;
#X connect 2 0 0 0;
#X connect 3 0 6 0;
#X connect 4 0 5 0;
#X connect 6 0 2 0;
#X restore 212 167 pd color;
#X text 258 99 22 7 2018;
#X obj 287 254 cnv 15 42 25 empty empty empty 20 12 0 14 -24198 -66577
0;
#N canvas 336 174 309 137 ?. 0;
#X obj 3 83 cnv 15 300 46 empty empty empty 20 12 0 14 -224896 -66577
0;
#X obj 3 6 cnv 18 300 70 empty empty ARGOPdMiniModules 3 10 1 14 -4033
-1 1.04858e+06;
#X obj 26 26 cnv 10 10 10 empty empty Gerard 0 5 1 11 -4033 -1 1.04858e+06
;
#X obj 64 26 cnv 10 10 10 empty empty Paresys 0 5 1 11 -4033 -1 1.04858e+06
;
#X obj 7 37 pddp/pddplink http://gerard.paresys.free.fr/ARGOPd/;
#X text 8 85 Construit sous / Build under Pd 0.43.4-extended;
#X obj 8 111 pddp/pddplink http://puredata.info/downloads/pd-extended
;
#X obj 7 50 pddp/pddplink http://paresys.pagesperso-orange.fr/ARGOPd/
;
#X text 7 98 or Pd-0.46-7 + deken;
#X restore 291 258 pd ?.;
#X connect 6 0 8 0;
#X connect 6 1 8 2;
#X connect 7 0 8 0;
#X connect 7 1 8 1;
#X connect 8 0 10 1;
#X connect 10 0 9 0;
#X connect 11 0 10 0;
#X connect 18 0 29 0;
#X connect 19 0 30 0;
#X connect 20 0 31 0;
#X connect 26 0 18 0;
#X connect 27 0 19 0;
#X connect 28 0 20 0;
#X connect 29 0 18 0;
#X connect 29 1 8 0;
#X connect 30 0 19 0;
#X connect 30 1 7 0;
#X connect 31 0 20 0;
#X connect 31 1 6 0;
#X coords 0 -1 1 1 146 56 1 100 100;
#X restore 22 451 pd ARGO;
#N canvas 457 220 345 309 ARGO 0;
#X obj 101 101 cnv 10 144 54 empty ColorForm empty 20 12 0 14 -228856
-1 1.04858e+06;
#X obj 101 101 cnv 4 10 4 empty empty empty 20 12 0 14 -128992 -66577
0;
#X obj 162 108 cnv 10 20 10 empty ColorForm GEM-Color. 1 5 1 14 -228856
-1 1.04858e+06;
#X text 76 57 gemlist;
#X obj 101 151 cnv 4 10 4 empty empty empty 20 12 0 14 -128992 -66577
0;
#X text 79 281 gemlist;
#X obj 257 190 t b f;
#X obj 197 190 t b f;
#X obj 197 218 pack 0 0 0;
#X obj 82 265 outlet;
#X obj 82 245 color;
#X obj 82 77 inlet;
#X text 125 49 Control;
#X text 135 60 Red;
#X text 174 49 Control;
#X text 178 60 Green;
#X text 220 49 Control;
#X text 228 61 Blue;
#X obj 115 120 hsl 129 12 0 100 0 1 \$0-A \$0-B 0 0 8 1 12 -258049
-262144 -262144 0 0;
#X obj 115 132 hsl 129 12 0 100 0 1 \$0-A \$0-B 100 0 8 1 12 -4033
-262144 -262144 12800 0;
#X obj 115 144 hsl 129 12 0 100 0 1 \$0-A \$0-B 0 0 8 1 12 -64 -262144
-262144 0 0;
#X obj 81 18 cnv 15 60 30 empty empty empty 20 12 0 14 -24198 -66577
0;
#N canvas 369 208 421 215 Help 0;
#X obj 7 -95 cnv 15 400 200 empty empty empty 20 12 0 14 -233017 -66577
0;
#X text 10 -96 Citation;
#X text 19 -59 [color] sets the colour of all subsequent shape and
vertex operations until reset by another [color]/[colorRGB] object.
If you set the alpha-value \, you will beed an [alpha] object to enable
alpha-blending;
#X text 9 -73 Description: colouring;
#X restore 88 24 pd Help;
#X obj 235 101 cnv 4 10 4 empty empty empty 20 12 0 14 -260097 -66577
0;
#X obj 191 101 cnv 4 10 4 empty empty empty 20 12 0 14 -260097 -66577
0;
#X obj 143 101 cnv 4 10 4 empty empty empty 20 12 0 14 -260097 -66577
0;
#X obj 125 77 inlet;
#X obj 174 77 inlet;
#X obj 223 77 inlet;
#N canvas 795 278 198 218 color 0;
#X obj 68 186 outlet;
#X obj 68 10 inlet;
#X msg 68 141 label \$1;
#X obj 68 96 int;
#X obj 131 95 / 100;
#X obj 131 185 outlet;
#X obj 68 119 cyclone/tosymbol;
#X connect 1 0 3 0;
#X connect 1 0 4 0;
#X connect 2 0 0 0;
#X connect 3 0 6 0;
#X connect 4 0 5 0;
#X connect 6 0 2 0;
#X restore 91 167 pd color;
#N canvas 795 278 198 218 color 0;
#X obj 68 186 outlet;
#X obj 68 10 inlet;
#X msg 68 141 label \$1;
#X obj 68 96 int;
#X obj 131 95 / 100;
#X obj 131 185 outlet;
#X obj 68 119 cyclone/tosymbol;
#X connect 1 0 3 0;
#X connect 1 0 4 0;
#X connect 2 0 0 0;
#X connect 3 0 6 0;
#X connect 4 0 5 0;
#X connect 6 0 2 0;
#X restore 152 167 pd color;
#N canvas 795 278 198 218 color 0;
#X obj 68 186 outlet;
#X obj 68 10 inlet;
#X msg 68 141 label \$1;
#X obj 68 96 int;
#X obj 131 95 / 100;
#X obj 131 185 outlet;
#X obj 68 119 cyclone/tosymbol;
#X connect 1 0 3 0;
#X connect 1 0 4 0;
#X connect 2 0 0 0;
#X connect 3 0 6 0;
#X connect 4 0 5 0;
#X connect 6 0 2 0;
#X restore 212 167 pd color;
#X text 258 99 22 7 2018;
#X obj 287 254 cnv 15 42 25 empty empty empty 20 12 0 14 -24198 -66577
0;
#N canvas 336 174 309 137 ?. 0;
#X obj 3 83 cnv 15 300 46 empty empty empty 20 12 0 14 -224896 -66577
0;
#X obj 3 6 cnv 18 300 70 empty empty ARGOPdMiniModules 3 10 1 14 -4033
-1 1.04858e+06;
#X obj 26 26 cnv 10 10 10 empty empty Gerard 0 5 1 11 -4033 -1 1.04858e+06
;
#X obj 64 26 cnv 10 10 10 empty empty Paresys 0 5 1 11 -4033 -1 1.04858e+06
;
#X obj 7 37 pddp/pddplink http://gerard.paresys.free.fr/ARGOPd/;
#X text 8 85 Construit sous / Build under Pd 0.43.4-extended;
#X obj 8 111 pddp/pddplink http://puredata.info/downloads/pd-extended
;
#X obj 7 50 pddp/pddplink http://paresys.pagesperso-orange.fr/ARGOPd/
;
#X text 7 98 or Pd-0.46-7 + deken;
#X restore 291 258 pd ?.;
#X connect 6 0 8 0;
#X connect 6 1 8 2;
#X connect 7 0 8 0;
#X connect 7 1 8 1;
#X connect 8 0 10 1;
#X connect 10 0 9 0;
#X connect 11 0 10 0;
#X connect 18 0 29 0;
#X connect 19 0 30 0;
#X connect 20 0 31 0;
#X connect 26 0 18 0;
#X connect 27 0 19 0;
#X connect 28 0 20 0;
#X connect 29 0 18 0;
#X connect 29 1 8 0;
#X connect 30 0 19 0;
#X connect 30 1 7 0;
#X connect 31 0 20 0;
#X connect 31 1 6 0;
#X coords 0 -1 1 1 146 56 1 100 100;
#X restore 181 451 pd ARGO;
#N canvas 457 220 345 309 ARGO 0;
#X obj 101 101 cnv 10 144 54 empty ColorForm empty 20 12 0 14 -228856
-1 1.04858e+06;
#X obj 101 101 cnv 4 10 4 empty empty empty 20 12 0 14 -128992 -66577
0;
#X obj 162 108 cnv 10 20 10 empty ColorForm GEM-Color. 1 5 1 14 -228856
-1 1.04858e+06;
#X text 76 57 gemlist;
#X obj 101 151 cnv 4 10 4 empty empty empty 20 12 0 14 -128992 -66577
0;
#X text 79 281 gemlist;
#X obj 257 190 t b f;
#X obj 197 190 t b f;
#X obj 197 218 pack 0 0 0;
#X obj 82 265 outlet;
#X obj 82 245 color;
#X obj 82 77 inlet;
#X text 125 49 Control;
#X text 135 60 Red;
#X text 174 49 Control;
#X text 178 60 Green;
#X text 220 49 Control;
#X text 228 61 Blue;
#X obj 115 120 hsl 129 12 0 100 0 1 \$0-A \$0-B 0 0 8 1 12 -258049
-262144 -262144 0 0;
#X obj 115 132 hsl 129 12 0 100 0 1 \$0-A \$0-B 0 0 8 1 12 -4033 -262144
-262144 0 0;
#X obj 115 144 hsl 129 12 0 100 0 1 \$0-A \$0-B 100 0 8 1 12 -64 -262144
-262144 12800 0;
#X obj 81 18 cnv 15 60 30 empty empty empty 20 12 0 14 -24198 -66577
0;
#N canvas 369 208 421 215 Help 0;
#X obj 7 -95 cnv 15 400 200 empty empty empty 20 12 0 14 -233017 -66577
0;
#X text 10 -96 Citation;
#X text 19 -59 [color] sets the colour of all subsequent shape and
vertex operations until reset by another [color]/[colorRGB] object.
If you set the alpha-value \, you will beed an [alpha] object to enable
alpha-blending;
#X text 9 -73 Description: colouring;
#X restore 88 24 pd Help;
#X obj 235 101 cnv 4 10 4 empty empty empty 20 12 0 14 -260097 -66577
0;
#X obj 191 101 cnv 4 10 4 empty empty empty 20 12 0 14 -260097 -66577
0;
#X obj 143 101 cnv 4 10 4 empty empty empty 20 12 0 14 -260097 -66577
0;
#X obj 125 77 inlet;
#X obj 174 77 inlet;
#X obj 223 77 inlet;
#N canvas 795 278 198 218 color 0;
#X obj 68 186 outlet;
#X obj 68 10 inlet;
#X msg 68 141 label \$1;
#X obj 68 96 int;
#X obj 131 95 / 100;
#X obj 131 185 outlet;
#X obj 68 119 cyclone/tosymbol;
#X connect 1 0 3 0;
#X connect 1 0 4 0;
#X connect 2 0 0 0;
#X connect 3 0 6 0;
#X connect 4 0 5 0;
#X connect 6 0 2 0;
#X restore 91 167 pd color;
#N canvas 795 278 198 218 color 0;
#X obj 68 186 outlet;
#X obj 68 10 inlet;
#X msg 68 141 label \$1;
#X obj 68 96 int;
#X obj 131 95 / 100;
#X obj 131 185 outlet;
#X obj 68 119 cyclone/tosymbol;
#X connect 1 0 3 0;
#X connect 1 0 4 0;
#X connect 2 0 0 0;
#X connect 3 0 6 0;
#X connect 4 0 5 0;
#X connect 6 0 2 0;
#X restore 152 167 pd color;
#N canvas 795 278 198 218 color 0;
#X obj 68 186 outlet;
#X obj 68 10 inlet;
#X msg 68 141 label \$1;
#X obj 68 96 int;
#X obj 131 95 / 100;
#X obj 131 185 outlet;
#X obj 68 119 cyclone/tosymbol;
#X connect 1 0 3 0;
#X connect 1 0 4 0;
#X connect 2 0 0 0;
#X connect 3 0 6 0;
#X connect 4 0 5 0;
#X connect 6 0 2 0;
#X restore 212 167 pd color;
#X text 258 99 22 7 2018;
#X obj 287 254 cnv 15 42 25 empty empty empty 20 12 0 14 -24198 -66577
0;
#N canvas 336 174 309 137 ?. 0;
#X obj 3 83 cnv 15 300 46 empty empty empty 20 12 0 14 -224896 -66577
0;
#X obj 3 6 cnv 18 300 70 empty empty ARGOPdMiniModules 3 10 1 14 -4033
-1 1.04858e+06;
#X obj 26 26 cnv 10 10 10 empty empty Gerard 0 5 1 11 -4033 -1 1.04858e+06
;
#X obj 64 26 cnv 10 10 10 empty empty Paresys 0 5 1 11 -4033 -1 1.04858e+06
;
#X obj 7 37 pddp/pddplink http://gerard.paresys.free.fr/ARGOPd/;
#X text 8 85 Construit sous / Build under Pd 0.43.4-extended;
#X obj 8 111 pddp/pddplink http://puredata.info/downloads/pd-extended
;
#X obj 7 50 pddp/pddplink http://paresys.pagesperso-orange.fr/ARGOPd/
;
#X text 7 98 or Pd-0.46-7 + deken;
#X restore 291 258 pd ?.;
#X connect 6 0 8 0;
#X connect 6 1 8 2;
#X connect 7 0 8 0;
#X connect 7 1 8 1;
#X connect 8 0 10 1;
#X connect 10 0 9 0;
#X connect 11 0 10 0;
#X connect 18 0 29 0;
#X connect 19 0 30 0;
#X connect 20 0 31 0;
#X connect 26 0 18 0;
#X connect 27 0 19 0;
#X connect 28 0 20 0;
#X connect 29 0 18 0;
#X connect 29 1 8 0;
#X connect 30 0 19 0;
#X connect 30 1 7 0;
#X connect 31 0 20 0;
#X connect 31 1 6 0;
#X coords 0 -1 1 1 146 56 1 100 100;
#X restore 341 451 pd ARGO;
#N canvas 457 220 345 309 ARGO 0;
#X obj 101 101 cnv 10 144 54 empty ColorForm empty 20 12 0 14 -228856
-1 1.04858e+06;
#X obj 101 101 cnv 4 10 4 empty empty empty 20 12 0 14 -128992 -66577
0;
#X obj 162 108 cnv 10 20 10 empty ColorForm GEM-Color. 1 5 1 14 -228856
-1 1.04858e+06;
#X text 76 57 gemlist;
#X obj 101 151 cnv 4 10 4 empty empty empty 20 12 0 14 -128992 -66577
0;
#X text 79 281 gemlist;
#X obj 257 190 t b f;
#X obj 197 190 t b f;
#X obj 197 218 pack 0 0 0;
#X obj 82 265 outlet;
#X obj 82 245 color;
#X obj 82 77 inlet;
#X text 125 49 Control;
#X text 135 60 Red;
#X text 174 49 Control;
#X text 178 60 Green;
#X text 220 49 Control;
#X text 228 61 Blue;
#X obj 115 120 hsl 129 12 0 100 0 1 \$0-A \$0-B 100 0 8 1 12 -258049
-262144 -262144 12800 0;
#X obj 115 132 hsl 129 12 0 100 0 1 \$0-A \$0-B 100 0 8 1 12 -4033
-262144 -262144 12800 0;
#X obj 115 144 hsl 129 12 0 100 0 1 \$0-A \$0-B 100 0 8 1 12 -64 -262144
-262144 12800 0;
#X obj 81 18 cnv 15 60 30 empty empty empty 20 12 0 14 -24198 -66577
0;
#N canvas 369 208 421 215 Help 0;
#X obj 7 -95 cnv 15 400 200 empty empty empty 20 12 0 14 -233017 -66577
0;
#X text 10 -96 Citation;
#X text 19 -59 [color] sets the colour of all subsequent shape and
vertex operations until reset by another [color]/[colorRGB] object.
If you set the alpha-value \, you will beed an [alpha] object to enable
alpha-blending;
#X text 9 -73 Description: colouring;
#X restore 88 24 pd Help;
#X obj 235 101 cnv 4 10 4 empty empty empty 20 12 0 14 -260097 -66577
0;
#X obj 191 101 cnv 4 10 4 empty empty empty 20 12 0 14 -260097 -66577
0;
#X obj 143 101 cnv 4 10 4 empty empty empty 20 12 0 14 -260097 -66577
0;
#X obj 125 77 inlet;
#X obj 174 77 inlet;
#X obj 223 77 inlet;
#N canvas 795 278 198 218 color 0;
#X obj 68 186 outlet;
#X obj 68 10 inlet;
#X msg 68 141 label \$1;
#X obj 68 96 int;
#X obj 131 95 / 100;
#X obj 131 185 outlet;
#X obj 68 119 cyclone/tosymbol;
#X connect 1 0 3 0;
#X connect 1 0 4 0;
#X connect 2 0 0 0;
#X connect 3 0 6 0;
#X connect 4 0 5 0;
#X connect 6 0 2 0;
#X restore 91 167 pd color;
#N canvas 795 278 198 218 color 0;
#X obj 68 186 outlet;
#X obj 68 10 inlet;
#X msg 68 141 label \$1;
#X obj 68 96 int;
#X obj 131 95 / 100;
#X obj 131 185 outlet;
#X obj 68 119 cyclone/tosymbol;
#X connect 1 0 3 0;
#X connect 1 0 4 0;
#X connect 2 0 0 0;
#X connect 3 0 6 0;
#X connect 4 0 5 0;
#X connect 6 0 2 0;
#X restore 152 167 pd color;
#N canvas 795 278 198 218 color 0;
#X obj 68 186 outlet;
#X obj 68 10 inlet;
#X msg 68 141 label \$1;
#X obj 68 96 int;
#X obj 131 95 / 100;
#X obj 131 185 outlet;
#X obj 68 119 cyclone/tosymbol;
#X connect 1 0 3 0;
#X connect 1 0 4 0;
#X connect 2 0 0 0;
#X connect 3 0 6 0;
#X connect 4 0 5 0;
#X connect 6 0 2 0;
#X restore 212 167 pd color;
#X text 258 99 22 7 2018;
#X obj 287 254 cnv 15 42 25 empty empty empty 20 12 0 14 -24198 -66577
0;
#N canvas 336 174 309 137 ?. 0;
#X obj 3 83 cnv 15 300 46 empty empty empty 20 12 0 14 -224896 -66577
0;
#X obj 3 6 cnv 18 300 70 empty empty ARGOPdMiniModules 3 10 1 14 -4033
-1 1.04858e+06;
#X obj 26 26 cnv 10 10 10 empty empty Gerard 0 5 1 11 -4033 -1 1.04858e+06
;
#X obj 64 26 cnv 10 10 10 empty empty Paresys 0 5 1 11 -4033 -1 1.04858e+06
;
#X obj 7 37 pddp/pddplink http://gerard.paresys.free.fr/ARGOPd/;
#X text 8 85 Construit sous / Build under Pd 0.43.4-extended;
#X obj 8 111 pddp/pddplink http://puredata.info/downloads/pd-extended
;
#X obj 7 50 pddp/pddplink http://paresys.pagesperso-orange.fr/ARGOPd/
;
#X text 7 98 or Pd-0.46-7 + deken;
#X restore 291 258 pd ?.;
#X connect 6 0 8 0;
#X connect 6 1 8 2;
#X connect 7 0 8 0;
#X connect 7 1 8 1;
#X connect 8 0 10 1;
#X connect 10 0 9 0;
#X connect 11 0 10 0;
#X connect 18 0 29 0;
#X connect 19 0 30 0;
#X connect 20 0 31 0;
#X connect 26 0 18 0;
#X connect 27 0 19 0;
#X connect 28 0 20 0;
#X connect 29 0 18 0;
#X connect 29 1 8 0;
#X connect 30 0 19 0;
#X connect 30 1 7 0;
#X connect 31 0 20 0;
#X connect 31 1 6 0;
#X coords 0 -1 1 1 146 56 1 100 100;
#X restore 499 451 pd ARGO;
#N canvas 699 162 402 388 ARGO 0;
#X obj 101 101 cnv 10 144 39 empty ColorForm empty 20 12 0 14 -228856
-1 1.04858e+06;
#X obj 196 104 cnv 10 20 10 empty ColorForm Circle 1 5 1 14 -228856
-1 1.04858e+06;
#X obj 101 136 cnv 4 10 4 empty empty empty 20 12 0 14 -128992 -66577
0;
#X obj 82 362 outlet;
#X obj 101 101 cnv 4 10 4 empty empty empty 20 12 0 14 -128992 -66577
0;
#X obj 192 117 nbx 2 12 1 99 0 1 \$0-A ColorGEM empty 0 0 1 9 -262144
-1 -1 1 256;
#X msg 21 262 width \$1;
#X obj 83 261 pix_texture;
#X msg 104 234 quality \$1;
#X obj -2 117 == 0;
#X obj -2 28 r SendMode;
#X obj -2 97 nbx 1 14 -1e+37 1e+37 0 1 empty empty empty 0 -6 0 10
-262144 -1 -1 0 256;
#X msg 160 263 draw line;
#X msg 230 263 draw fill;
#X obj 82 28 inlet;
#X text 220 72 Control;
#X text 228 84 Size;
#X text 87 142 gemlist;
#X obj 83 339 circle;
#X obj 214 117 tgl 12 1 \$0-A ColorGEM Line 15 6 1 9 -262144 -1 -1
0 1;
#X obj 178 235 sel 1;
#X text 85 81 gemlist;
#X obj 83 190 t a b;
#X obj 115 129 hsl 129 12 0 10 0 1 \$0-A \$0-B 1.8 0 8 1 12 -228856
-1 -1 2400 0;
#X obj 273 60 cnv 15 60 30 empty empty empty 20 12 0 14 -24198 -66577
0;
#N canvas 205 242 424 266 Help 0;
#X obj 9 -83 cnv 15 400 200 empty empty empty 20 12 0 14 -233017 -66577
0;
#X text 12 -84 Citation;
#X text 25 -63 The circle object renders a circle flat disc at the
current position with current color. The look of the circle can be
changed with the draw message \, its size can be changed via the second
inlet.;
#X text 10 122 SendMode est envoyé par ARGOGeneral (Toggle "Compatible")
;
#X text 10 137 Utile avec certaines cartes video de certains PC sous
Windows...;
#X restore 280 66 pd Help;
#X obj 100 118 tgl 12 1 \$0-A ColorGEM Quality 15 6 1 9 -262144 -1
-1 1 1;
#X obj 100 106 tgl 12 1 \$0-A ColorGEM On/Off 15 6 1 9 -262144 -1 -1
1 1;
#X obj 83 164 spigot;
#X msg -2 142 rectangle \$1;
#X obj 334 343 cnv 15 48 25 empty empty empty 20 12 0 14 -24198 -66577
0;
#N canvas 350 196 308 136 ??? 0;
#X obj -6 87 cnv 15 300 38 empty empty empty 20 12 0 14 -224896 -66577
0;
#X obj -6 10 cnv 18 300 70 empty empty ARGOPdMiniModules 3 10 1 14
-4033 -1 1.04858e+06;
#X obj 13 31 cnv 10 10 10 empty empty Gerard 0 5 1 11 -4033 -1 1.04858e+06
;
#X obj 55 30 cnv 10 10 10 empty empty Paresys 0 5 1 11 -4033 -1 1.04858e+06
;
#X text -1 89 Construit sous / Build under Pd 0.42.5-extended;
#X obj 6 43 pddp/pddplink http://pagesperso-orange.fr/Paresys/ARGOPd/
;
#X obj 6 58 pddp/pddplink http://gerard.paresys.free.fr/ARGOPd/;
#X obj 46 105 pddp/pddplink http://puredata.info/downloads;
#X restore 338 347 pd ???;
#X obj 235 101 cnv 4 10 4 empty empty empty 20 12 0 14 -260097 -66577
0;
#X obj 225 28 inlet;
#N canvas 445 173 235 232 GEMSize 0;
#X obj 143 203 outlet;
#X obj 143 10 inlet;
#X msg 143 158 label \$1;
#X obj 143 68 int;
#X obj 143 94 / 10;
#X obj 25 158 clip 0 100;
#X obj 25 202 outlet;
#X obj 143 44 * 10;
#X obj 143 135 cyclone/tosymbol;
#X connect 1 0 7 0;
#X connect 1 0 5 0;
#X connect 2 0 0 0;
#X connect 3 0 4 0;
#X connect 4 0 8 0;
#X connect 5 0 6 0;
#X connect 7 0 3 0;
#X connect 8 0 2 0;
#X restore 299 263 pd GEMSize;
#X obj 149 105 nbx 5 12 -10 10 0 1 \$0-A ColorGEM empty 0 0 1 9 -262144
-1 -1 -2.9 256;
#X obj 149 117 nbx 5 12 -10 10 0 1 \$0-A ColorGEM empty 0 0 1 9 -262144
-1 -1 2 256;
#X obj 83 289 translateXYZ 0 0 0;
#X text 247 109 17 7 2019;
#X connect 5 0 6 0;
#X connect 6 0 18 0;
#X connect 7 0 37 0;
#X connect 8 0 7 0;
#X connect 9 0 29 0;
#X connect 10 0 11 0;
#X connect 11 0 9 0;
#X connect 12 0 18 0;
#X connect 13 0 18 0;
#X connect 14 0 28 0;
#X connect 18 0 3 0;
#X connect 19 0 20 0;
#X connect 20 0 12 0;
#X connect 20 1 13 0;
#X connect 22 0 7 0;
#X connect 23 0 34 0;
#X connect 26 0 8 0;
#X connect 27 0 28 1;
#X connect 27 0 7 0;
#X connect 28 0 22 0;
#X connect 29 0 7 0;
#X connect 33 0 23 0;
#X connect 34 0 18 1;
#X connect 34 1 23 0;
#X connect 35 0 37 1;
#X connect 36 0 37 2;
#X connect 37 0 18 0;
#X coords 0 -1 1 1 146 41 1 100 100;
#X restore 22 518 pd ARGO;
#N canvas 699 162 402 388 ARGO 0;
#X obj 101 101 cnv 10 144 39 empty ColorForm empty 20 12 0 14 -228856
-1 1.04858e+06;
#X obj 196 104 cnv 10 20 10 empty ColorForm Circle 1 5 1 14 -228856
-1 1.04858e+06;
#X obj 101 136 cnv 4 10 4 empty empty empty 20 12 0 14 -128992 -66577
0;
#X obj 82 362 outlet;
#X obj 101 101 cnv 4 10 4 empty empty empty 20 12 0 14 -128992 -66577
0;
#X obj 192 117 nbx 2 12 1 99 0 1 \$0-A ColorGEM empty 0 0 1 9 -262144
-1 -1 1 256;
#X msg 21 262 width \$1;
#X obj 83 261 pix_texture;
#X msg 104 234 quality \$1;
#X obj -2 117 == 0;
#X obj -2 28 r SendMode;
#X obj -2 97 nbx 1 14 -1e+37 1e+37 0 1 empty empty empty 0 -6 0 10
-262144 -1 -1 0 256;
#X msg 160 263 draw line;
#X msg 230 263 draw fill;
#X obj 82 28 inlet;
#X text 220 72 Control;
#X text 228 84 Size;
#X text 87 142 gemlist;
#X obj 83 339 circle;
#X obj 214 117 tgl 12 1 \$0-A ColorGEM Line 15 6 1 9 -262144 -1 -1
0 1;
#X obj 178 235 sel 1;
#X text 85 81 gemlist;
#X obj 83 190 t a b;
#X obj 115 129 hsl 129 12 0 10 0 1 \$0-A \$0-B 1.8 0 8 1 12 -228856
-1 -1 2400 0;
#X obj 273 60 cnv 15 60 30 empty empty empty 20 12 0 14 -24198 -66577
0;
#N canvas 205 242 424 266 Help 0;
#X obj 9 -83 cnv 15 400 200 empty empty empty 20 12 0 14 -233017 -66577
0;
#X text 12 -84 Citation;
#X text 25 -63 The circle object renders a circle flat disc at the
current position with current color. The look of the circle can be
changed with the draw message \, its size can be changed via the second
inlet.;
#X text 10 122 SendMode est envoyé par ARGOGeneral (Toggle "Compatible")
;
#X text 10 137 Utile avec certaines cartes video de certains PC sous
Windows...;
#X restore 280 66 pd Help;
#X obj 100 118 tgl 12 1 \$0-A ColorGEM Quality 15 6 1 9 -262144 -1
-1 1 1;
#X obj 100 106 tgl 12 1 \$0-A ColorGEM On/Off 15 6 1 9 -262144 -1 -1
1 1;
#X obj 83 164 spigot;
#X msg -2 142 rectangle \$1;
#X obj 334 343 cnv 15 48 25 empty empty empty 20 12 0 14 -24198 -66577
0;
#N canvas 350 196 308 136 ??? 0;
#X obj -6 87 cnv 15 300 38 empty empty empty 20 12 0 14 -224896 -66577
0;
#X obj -6 10 cnv 18 300 70 empty empty ARGOPdMiniModules 3 10 1 14
-4033 -1 1.04858e+06;
#X obj 13 31 cnv 10 10 10 empty empty Gerard 0 5 1 11 -4033 -1 1.04858e+06
;
#X obj 55 30 cnv 10 10 10 empty empty Paresys 0 5 1 11 -4033 -1 1.04858e+06
;
#X text -1 89 Construit sous / Build under Pd 0.42.5-extended;
#X obj 6 43 pddp/pddplink http://pagesperso-orange.fr/Paresys/ARGOPd/
;
#X obj 6 58 pddp/pddplink http://gerard.paresys.free.fr/ARGOPd/;
#X obj 46 105 pddp/pddplink http://puredata.info/downloads;
#X restore 338 347 pd ???;
#X obj 235 101 cnv 4 10 4 empty empty empty 20 12 0 14 -260097 -66577
0;
#X obj 225 28 inlet;
#N canvas 445 173 235 232 GEMSize 0;
#X obj 143 203 outlet;
#X obj 143 10 inlet;
#X msg 143 158 label \$1;
#X obj 143 68 int;
#X obj 143 94 / 10;
#X obj 25 158 clip 0 100;
#X obj 25 202 outlet;
#X obj 143 44 * 10;
#X obj 143 135 cyclone/tosymbol;
#X connect 1 0 7 0;
#X connect 1 0 5 0;
#X connect 2 0 0 0;
#X connect 3 0 4 0;
#X connect 4 0 8 0;
#X connect 5 0 6 0;
#X connect 7 0 3 0;
#X connect 8 0 2 0;
#X restore 299 263 pd GEMSize;
#X obj 149 105 nbx 5 12 -10 10 0 1 \$0-A ColorGEM empty 0 0 1 9 -262144
-1 -1 5.36 256;
#X obj 149 117 nbx 5 12 -10 10 0 1 \$0-A ColorGEM empty 0 0 1 9 -262144
-1 -1 -0.06 256;
#X obj 83 289 translateXYZ 0 0 0;
#X text 247 109 17 7 2019;
#X connect 5 0 6 0;
#X connect 6 0 18 0;
#X connect 7 0 37 0;
#X connect 8 0 7 0;
#X connect 9 0 29 0;
#X connect 10 0 11 0;
#X connect 11 0 9 0;
#X connect 12 0 18 0;
#X connect 13 0 18 0;
#X connect 14 0 28 0;
#X connect 18 0 3 0;
#X connect 19 0 20 0;
#X connect 20 0 12 0;
#X connect 20 1 13 0;
#X connect 22 0 7 0;
#X connect 23 0 34 0;
#X connect 26 0 8 0;
#X connect 27 0 28 1;
#X connect 27 0 7 0;
#X connect 28 0 22 0;
#X connect 29 0 7 0;
#X connect 33 0 23 0;
#X connect 34 0 18 1;
#X connect 34 1 23 0;
#X connect 35 0 37 1;
#X connect 36 0 37 2;
#X connect 37 0 18 0;
#X coords 0 -1 1 1 146 41 1 100 100;
#X restore 181 518 pd ARGO;
#N canvas 699 162 402 388 ARGO 0;
#X obj 101 101 cnv 10 144 39 empty ColorForm empty 20 12 0 14 -228856
-1 1.04858e+06;
#X obj 196 104 cnv 10 20 10 empty ColorForm Circle 1 5 1 14 -228856
-1 1.04858e+06;
#X obj 101 136 cnv 4 10 4 empty empty empty 20 12 0 14 -128992 -66577
0;
#X obj 82 362 outlet;
#X obj 101 101 cnv 4 10 4 empty empty empty 20 12 0 14 -128992 -66577
0;
#X obj 192 117 nbx 2 12 1 99 0 1 \$0-A ColorGEM empty 0 0 1 9 -262144
-1 -1 1 256;
#X msg 21 262 width \$1;
#X obj 83 261 pix_texture;
#X msg 104 234 quality \$1;
#X obj -2 117 == 0;
#X obj -2 28 r SendMode;
#X obj -2 97 nbx 1 14 -1e+37 1e+37 0 1 empty empty empty 0 -6 0 10
-262144 -1 -1 0 256;
#X msg 160 263 draw line;
#X msg 230 263 draw fill;
#X obj 82 28 inlet;
#X text 220 72 Control;
#X text 228 84 Size;
#X text 87 142 gemlist;
#X obj 83 339 circle;
#X obj 214 117 tgl 12 1 \$0-A ColorGEM Line 15 6 1 9 -262144 -1 -1
0 1;
#X obj 178 235 sel 1;
#X text 85 81 gemlist;
#X obj 83 190 t a b;
#X obj 115 129 hsl 129 12 0 10 0 1 \$0-A \$0-B 1.8 0 8 1 12 -228856
-1 -1 2400 0;
#X obj 273 60 cnv 15 60 30 empty empty empty 20 12 0 14 -24198 -66577
0;
#N canvas 205 242 424 266 Help 0;
#X obj 9 -83 cnv 15 400 200 empty empty empty 20 12 0 14 -233017 -66577
0;
#X text 12 -84 Citation;
#X text 25 -63 The circle object renders a circle flat disc at the
current position with current color. The look of the circle can be
changed with the draw message \, its size can be changed via the second
inlet.;
#X text 10 122 SendMode est envoyé par ARGOGeneral (Toggle "Compatible")
;
#X text 10 137 Utile avec certaines cartes video de certains PC sous
Windows...;
#X restore 280 66 pd Help;
#X obj 100 118 tgl 12 1 \$0-A ColorGEM Quality 15 6 1 9 -262144 -1
-1 1 1;
#X obj 100 106 tgl 12 1 \$0-A ColorGEM On/Off 15 6 1 9 -262144 -1 -1
1 1;
#X obj 83 164 spigot;
#X msg -2 142 rectangle \$1;
#X obj 334 343 cnv 15 48 25 empty empty empty 20 12 0 14 -24198 -66577
0;
#N canvas 350 196 308 136 ??? 0;
#X obj -6 87 cnv 15 300 38 empty empty empty 20 12 0 14 -224896 -66577
0;
#X obj -6 10 cnv 18 300 70 empty empty ARGOPdMiniModules 3 10 1 14
-4033 -1 1.04858e+06;
#X obj 13 31 cnv 10 10 10 empty empty Gerard 0 5 1 11 -4033 -1 1.04858e+06
;
#X obj 55 30 cnv 10 10 10 empty empty Paresys 0 5 1 11 -4033 -1 1.04858e+06
;
#X text -1 89 Construit sous / Build under Pd 0.42.5-extended;
#X obj 6 43 pddp/pddplink http://pagesperso-orange.fr/Paresys/ARGOPd/
;
#X obj 6 58 pddp/pddplink http://gerard.paresys.free.fr/ARGOPd/;
#X obj 46 105 pddp/pddplink http://puredata.info/downloads;
#X restore 338 347 pd ???;
#X obj 235 101 cnv 4 10 4 empty empty empty 20 12 0 14 -260097 -66577
0;
#X obj 225 28 inlet;
#N canvas 445 173 235 232 GEMSize 0;
#X obj 143 203 outlet;
#X obj 143 10 inlet;
#X msg 143 158 label \$1;
#X obj 143 68 int;
#X obj 143 94 / 10;
#X obj 25 158 clip 0 100;
#X obj 25 202 outlet;
#X obj 143 44 * 10;
#X obj 143 135 cyclone/tosymbol;
#X connect 1 0 7 0;
#X connect 1 0 5 0;
#X connect 2 0 0 0;
#X connect 3 0 4 0;
#X connect 4 0 8 0;
#X connect 5 0 6 0;
#X connect 7 0 3 0;
#X connect 8 0 2 0;
#X restore 299 263 pd GEMSize;
#X obj 149 105 nbx 5 12 -10 10 0 1 \$0-A ColorGEM empty 0 0 1 9 -262144
-1 -1 -5.41 256;
#X obj 149 117 nbx 5 12 -10 10 0 1 \$0-A ColorGEM empty 0 0 1 9 -262144
-1 -1 -3.83 256;
#X obj 83 289 translateXYZ 0 0 0;
#X text 247 109 17 7 2019;
#X connect 5 0 6 0;
#X connect 6 0 18 0;
#X connect 7 0 37 0;
#X connect 8 0 7 0;
#X connect 9 0 29 0;
#X connect 10 0 11 0;
#X connect 11 0 9 0;
#X connect 12 0 18 0;
#X connect 13 0 18 0;
#X connect 14 0 28 0;
#X connect 18 0 3 0;
#X connect 19 0 20 0;
#X connect 20 0 12 0;
#X connect 20 1 13 0;
#X connect 22 0 7 0;
#X connect 23 0 34 0;
#X connect 26 0 8 0;
#X connect 27 0 28 1;
#X connect 27 0 7 0;
#X connect 28 0 22 0;
#X connect 29 0 7 0;
#X connect 33 0 23 0;
#X connect 34 0 18 1;
#X connect 34 1 23 0;
#X connect 35 0 37 1;
#X connect 36 0 37 2;
#X connect 37 0 18 0;
#X coords 0 -1 1 1 146 41 1 100 100;
#X restore 341 518 pd ARGO;
#N canvas 699 162 402 388 ARGO 0;
#X obj 101 101 cnv 10 144 39 empty ColorForm empty 20 12 0 14 -228856
-1 1.04858e+06;
#X obj 196 104 cnv 10 20 10 empty ColorForm Circle 1 5 1 14 -228856
-1 1.04858e+06;
#X obj 101 136 cnv 4 10 4 empty empty empty 20 12 0 14 -128992 -66577
0;
#X obj 82 362 outlet;
#X obj 101 101 cnv 4 10 4 empty empty empty 20 12 0 14 -128992 -66577
0;
#X obj 192 117 nbx 2 12 1 99 0 1 \$0-A ColorGEM empty 0 0 1 9 -262144
-1 -1 1 256;
#X msg 21 262 width \$1;
#X obj 83 261 pix_texture;
#X msg 104 234 quality \$1;
#X obj -2 117 == 0;
#X obj -2 28 r SendMode;
#X obj -2 97 nbx 1 14 -1e+37 1e+37 0 1 empty empty empty 0 -6 0 10
-262144 -1 -1 0 256;
#X msg 160 263 draw line;
#X msg 230 263 draw fill;
#X obj 82 28 inlet;
#X text 220 72 Control;
#X text 228 84 Size;
#X text 87 142 gemlist;
#X obj 83 339 circle;
#X obj 214 117 tgl 12 1 \$0-A ColorGEM Line 15 6 1 9 -262144 -1 -1
0 1;
#X obj 178 235 sel 1;
#X text 85 81 gemlist;
#X obj 83 190 t a b;
#X obj 115 129 hsl 129 12 0 10 0 1 \$0-A \$0-B 1.8 0 8 1 12 -228856
-1 -1 2400 0;
#X obj 273 60 cnv 15 60 30 empty empty empty 20 12 0 14 -24198 -66577
0;
#N canvas 205 242 424 266 Help 0;
#X obj 9 -83 cnv 15 400 200 empty empty empty 20 12 0 14 -233017 -66577
0;
#X text 12 -84 Citation;
#X text 25 -63 The circle object renders a circle flat disc at the
current position with current color. The look of the circle can be
changed with the draw message \, its size can be changed via the second
inlet.;
#X text 10 122 SendMode est envoyé par ARGOGeneral (Toggle "Compatible")
;
#X text 10 137 Utile avec certaines cartes video de certains PC sous
Windows...;
#X restore 280 66 pd Help;
#X obj 100 118 tgl 12 1 \$0-A ColorGEM Quality 15 6 1 9 -262144 -1
-1 1 1;
#X obj 100 106 tgl 12 1 \$0-A ColorGEM On/Off 15 6 1 9 -262144 -1 -1
1 1;
#X obj 83 164 spigot;
#X msg -2 142 rectangle \$1;
#X obj 334 343 cnv 15 48 25 empty empty empty 20 12 0 14 -24198 -66577
0;
#N canvas 350 196 308 136 ??? 0;
#X obj -6 87 cnv 15 300 38 empty empty empty 20 12 0 14 -224896 -66577
0;
#X obj -6 10 cnv 18 300 70 empty empty ARGOPdMiniModules 3 10 1 14
-4033 -1 1.04858e+06;
#X obj 13 31 cnv 10 10 10 empty empty Gerard 0 5 1 11 -4033 -1 1.04858e+06
;
#X obj 55 30 cnv 10 10 10 empty empty Paresys 0 5 1 11 -4033 -1 1.04858e+06
;
#X text -1 89 Construit sous / Build under Pd 0.42.5-extended;
#X obj 6 43 pddp/pddplink http://pagesperso-orange.fr/Paresys/ARGOPd/
;
#X obj 6 58 pddp/pddplink http://gerard.paresys.free.fr/ARGOPd/;
#X obj 46 105 pddp/pddplink http://puredata.info/downloads;
#X restore 338 347 pd ???;
#X obj 235 101 cnv 4 10 4 empty empty empty 20 12 0 14 -260097 -66577
0;
#X obj 225 28 inlet;
#N canvas 445 173 235 232 GEMSize 0;
#X obj 143 203 outlet;
#X obj 143 10 inlet;
#X msg 143 158 label \$1;
#X obj 143 68 int;
#X obj 143 94 / 10;
#X obj 25 158 clip 0 100;
#X obj 25 202 outlet;
#X obj 143 44 * 10;
#X obj 143 135 cyclone/tosymbol;
#X connect 1 0 7 0;
#X connect 1 0 5 0;
#X connect 2 0 0 0;
#X connect 3 0 4 0;
#X connect 4 0 8 0;
#X connect 5 0 6 0;
#X connect 7 0 3 0;
#X connect 8 0 2 0;
#X restore 299 263 pd GEMSize;
#X obj 149 105 nbx 5 12 -10 10 0 1 \$0-A ColorGEM empty 0 0 1 9 -262144
-1 -1 5.4 256;
#X obj 149 117 nbx 5 12 -10 10 0 1 \$0-A ColorGEM empty 0 0 1 9 -262144
-1 -1 -0.14 256;
#X obj 83 289 translateXYZ 0 0 0;
#X text 247 109 17 7 2019;
#X connect 5 0 6 0;
#X connect 6 0 18 0;
#X connect 7 0 37 0;
#X connect 8 0 7 0;
#X connect 9 0 29 0;
#X connect 10 0 11 0;
#X connect 11 0 9 0;
#X connect 12 0 18 0;
#X connect 13 0 18 0;
#X connect 14 0 28 0;
#X connect 18 0 3 0;
#X connect 19 0 20 0;
#X connect 20 0 12 0;
#X connect 20 1 13 0;
#X connect 22 0 7 0;
#X connect 23 0 34 0;
#X connect 26 0 8 0;
#X connect 27 0 28 1;
#X connect 27 0 7 0;
#X connect 28 0 22 0;
#X connect 29 0 7 0;
#X connect 33 0 23 0;
#X connect 34 0 18 1;
#X connect 34 1 23 0;
#X connect 35 0 37 1;
#X connect 36 0 37 2;
#X connect 37 0 18 0;
#X coords 0 -1 1 1 146 41 1 100 100;
#X restore 499 518 pd ARGO;
#N canvas 604 156 795 623 ARGO 0;
#X obj 609 292 cnv 15 60 30 empty empty empty 20 12 0 14 -24198 -66577
0;
#N canvas 462 117 428 429 Help 0;
#X obj 11 30 cnv 15 380 90 empty empty empty 20 12 0 14 -233017 -66577
0;
#X text 16 28 Citation;
#X text 15 41 "GEM is the Graphics Environment for Multimedia. It was
originally written by Mark Danks to generate real-time computer graphics
\, especially for audio-visual compositions.";
#X text 15 91 "GEM is a collection of externals which allow the user
to create OpenGL graphics within Pd";
#X text 10 128 - Raccourcis clavier;
#X text 12 184 - En "FullScreen" taper F ou Pomme + Tab sous MacOSX...
;
#X text 120 197 taper F ou Alt + Tab sous Windows...;
#X text 120 209 taper F ou Alt + F4 sous Linux...;
#X text 37 326 Inconvenient: Charge CPU => la texture est calculée
(objet pix_texture) par le processeur de l'ordinateur et pas par la
carte video);
#X text 14 274 Il faut cocher compatible avec certaines cartes video
\, de certains PC \, sous Windows...;
#X text 15 300 Compatible Off -> mode 1: TEXTURE_RECTANGLE;
#X text 15 312 Compatible On -> mode 0: TEXTURE_2D;
#X text 8 5 - GEM On ouvre une fenetre;
#X text 134 127 g / G -> GEM On/Off;
#X text 135 141 f / F -> FullScreen On/Off;
#X text 136 154 b /B -> Menu bar On/Off;
#X text 136 168 Echap / Esc -> FullScreen Off;
#X text 17 400 16/9 = 512/288 = 1024/576 = 1152/648 = 1280/720 = 1440/810
;
#X text 11 388 16/10 = 512/320 = 1024/640 = 1152/720 = 1280x800 = 1440/900
;
#X text 345 375 = 1280/960;
#X text 22 376 4/3 = 160/120 = 320/240 = 512/384 = 640/480 = 1024x768
;
#X text 121 222 ou Echap / Esc...;
#X text 13 248 - Compatible envoie le message mode 1 ou mode 0 à tous
les objets pix_texture des autres modules;
#X restore 616 298 pd Help;
#X obj 201 151 cnv 22 183 69 empty empty GEM. 5 12 1 18 -1 -262144
1.04858e+06;
#X obj 291 204 tgl 12 1 \$0-A \$0-ColorGEM (F)ullScreen 15 7 1 11 -24198
-1 -24198 0 1;
#X obj 203 174 tgl 12 1 \$0-A \$0-ColorGEM (G)EM 15 7 1 11 -24198 -1
-24198 1 1;
#X obj 291 155 nbx 2 12 1 30 0 1 \$0-A \$0-ColorGEM Frames/sec 26 7
1 11 -24198 -1 -24198 10 256;
#X obj 291 189 tgl 12 1 \$0-A \$0-ColorGEM KeyShortCut 15 7 1 11 -24198
-1 -24198 0 1;
#X msg 115 533 create;
#X msg 529 533 destroy;
#X msg 487 533 reset;
#X msg 396 533 fullscreen \$1;
#X msg 589 533 0;
#X obj 178 311 sel 1;
#X msg 385 453 set \$1;
#X msg 195 255 set \$1;
#X msg 178 288 1;
#X msg 20 533 frame \$1;
#X obj 529 510 t b b;
#X msg 164 533 dimen 640 480;
#X msg 85 533 1;
#X obj 616 463 select 0 1;
#X obj 178 230 t b f f f;
#X msg 632 510 color 16 22 16;
#X msg 617 487 color 0 22 0;
#X obj 617 579 s \$0-ColorGEM;
#X obj 291 174 tgl 12 1 SendMode \$0-ColorGEM Compatible 15 7 1 11
-24198 -1 -24198 0 1;
#X obj 203 204 hradio 12 1 1 3 \$0-A \$0-ColorGEM 640x480 39 7 1 11
-24198 -1 -24198 1;
#X obj 72 230 t b f;
#N canvas 924 334 450 300 Dimension 0;
#X obj 169 76 sel 0 1 2;
#X msg 203 141 set dimen 1280 720;
#X msg 187 183 set dimen 640 480;
#X msg 169 225 set dimen 320 240;
#X msg 198 162 label 640x480;
#X msg 213 120 label 1280x720;
#X msg 179 204 label 320x240;
#X obj 169 50 inlet;
#X obj 103 257 outlet;
#X obj 303 259 outlet;
#X connect 0 0 3 0;
#X connect 0 0 6 0;
#X connect 0 1 2 0;
#X connect 0 1 4 0;
#X connect 0 2 1 0;
#X connect 0 2 5 0;
#X connect 1 0 9 0;
#X connect 2 0 9 0;
#X connect 3 0 9 0;
#X connect 4 0 8 0;
#X connect 5 0 8 0;
#X connect 6 0 8 0;
#X connect 7 0 0 0;
#X restore 99 255 pd Dimension;
#X obj 178 397 select linux macos windows;
#X msg 224 485 set \$1;
#X msg 257 510 1;
#X obj 30 230 t b f;
#X msg 257 533 border \$1 \, menubar \$1;
#X obj 203 189 tgl 12 1 \$0-A \$0-ColorGEM (B)arMenu 15 7 1 11 -24198
-1 -24198 1 1;
#X obj 68 573 cnv 15 120 30 empty empty empty 20 12 0 14 -258113 -66577
0;
#X obj 85 579 s RenderGEM;
#X msg 396 510 0;
#X obj 229 433 t b b b;
#X obj 178 433 t b b b;
#X obj 179 510 spigot;
#X obj 351 452 == 0;
#X obj 178 374 zexy/operating_system;
#X obj 465 579 gemwin;
#X obj 719 579 cnv 15 34 16 empty empty empty 20 12 0 14 -24198 -66577
0;
#N canvas 353 174 333 161 ?? 0;
#X obj 17 89 cnv 15 300 56 empty empty empty 20 12 0 14 -224896 -66577
0;
#X obj 17 12 cnv 18 300 70 empty empty ARGOPdMiniModules 3 10 1 14
-4033 -1 1.04858e+06;
#X obj 40 32 cnv 10 10 10 empty empty Gerard 0 5 1 11 -4033 -1 1.04858e+06
;
#X obj 78 32 cnv 10 10 10 empty empty Paresys 0 5 1 11 -4033 -1 1.04858e+06
;
#X obj 20 54 pddp/pddplink http://gerard.paresys.free.fr/ARGOPd/;
#X obj 22 126 pddp/pddplink http://puredata.info/downloads/pd-extended
;
#X obj 22 102 pddp/pddplink http://puredata.info/downloads/pure-data
;
#X text 22 90 Construit sous / Build under Pd-0.49...;
#X text 21 114 or Pd 0.43.4-extended;
#X obj 20 66 pddp/pddplink https://paresys.pagesperso-orange.fr/ARGOPd/
;
#X obj 20 42 pddp/pddplink https://github.com/gerardparesys/ARGOPd
;
#X restore 719 579 pd ??;
#X obj 465 64 r Sendgemwin;
#X obj 587 105 cnv 15 100 100 empty empty empty 20 12 0 14 -24198 -66577
0;
#X text 610 107 library:;
#X text 591 119 pddp;
#X text 591 132 zexy;
#X text 592 144 Gem;
#X obj 529 480 spigot 0;
#X msg 574 457 1;
#X obj 102 311 spigot 0;
#X obj 102 336 t b b b;
#X obj 115 485 delay 30;
#X obj 93 510 delay 30;
#X obj 164 463 delay 30;
#X obj 102 288 spigot 0;
#X obj 291 230 t b f f;
#X obj 178 336 t b b b;
#N canvas 16 240 715 493 KeyShortCut 0;
#X obj 467 22 key;
#X obj 467 70 spigot;
#X obj 335 22 gemkeyname;
#X obj 238 137 select 27;
#X msg 173 227 0;
#X obj 302 70 spigot;
#X obj 335 45 == 0;
#X obj 173 202 t b b;
#X msg 206 227 set 1;
#X obj 467 137 select 70 102 71 103 66 98 76 108;
#X obj 69 22 receive SendGEM;
#X obj 302 137 sel f F g G b B l L Escape;
#X obj 173 22 gemkeyboard;
#X obj 173 137 select 53;
#X text 7 136 Quit fullscreen with Esc ->;
#X text 166 351 (G)EM;
#X obj 168 335 outlet;
#X text 293 351 (B)arMenu;
#X obj 304 335 outlet;
#X text 389 351 (L)ight;
#X obj 389 335 outlet;
#X text 449 351 (F)ullScreen;
#X obj 467 335 outlet;
#X text 495 5 KeyShortCut;
#X obj 515 22 inlet;
#X obj 232 335 outlet;
#X text 137 399 esc key -> gemkeyboard -> 27 Windows & MacOS Pd-ceammc
;
#X text 137 411 esc key -> gemkeyboard -> 53 MacOS Pd-extended & Pd-Vanilla
;
#X text 137 423 esc key -> gemkeyboard -> 9 Ubuntu20.04 Pd0.50.2 GEM0.94
;
#X text 137 435 esc key -> gemkeyboard -> nothing MacOS Pd0.50.2 GEM0.94
;
#X connect 0 0 1 0;
#X connect 0 0 3 0;
#X connect 1 0 9 0;
#X connect 2 0 6 0;
#X connect 2 1 5 0;
#X connect 3 0 7 0;
#X connect 4 0 22 0;
#X connect 5 0 11 0;
#X connect 6 0 5 1;
#X connect 7 0 4 0;
#X connect 7 1 8 0;
#X connect 8 0 18 0;
#X connect 8 0 25 0;
#X connect 9 0 22 0;
#X connect 9 1 22 0;
#X connect 9 2 16 0;
#X connect 9 3 16 0;
#X connect 9 4 18 0;
#X connect 9 5 18 0;
#X connect 9 6 20 0;
#X connect 9 7 20 0;
#X connect 10 0 16 0;
#X connect 11 0 22 0;
#X connect 11 1 22 0;
#X connect 11 2 16 0;
#X connect 11 3 16 0;
#X connect 11 4 18 0;
#X connect 11 5 18 0;
#X connect 11 6 20 0;
#X connect 11 7 20 0;
#X connect 11 8 7 0;
#X connect 12 0 13 0;
#X connect 12 0 3 0;
#X connect 13 0 7 0;
#X connect 24 0 1 1;
#X restore 203 64 pd KeyShortCut;
#X text 388 167 14 4 2021;
#X connect 3 0 60 0;
#X connect 4 0 21 0;
#X connect 5 0 16 0;
#X connect 6 0 62 0;
#X connect 7 0 43 0;
#X connect 8 0 43 0;
#X connect 9 0 43 0;
#X connect 10 0 43 0;
#X connect 11 0 43 0;
#X connect 12 0 61 0;
#X connect 12 1 52 0;
#X connect 13 0 37 0;
#X connect 14 0 15 0;
#X connect 15 0 12 0;
#X connect 15 0 54 1;
#X connect 16 0 43 0;
#X connect 17 0 8 0;
#X connect 17 1 11 0;
#X connect 18 0 43 0;
#X connect 19 0 36 0;
#X connect 19 0 43 0;
#X connect 19 0 59 1;
#X connect 20 0 23 0;
#X connect 20 1 22 0;
#X connect 21 0 15 0;
#X connect 21 1 14 0;
#X connect 21 3 20 0;
#X connect 22 0 24 0;
#X connect 23 0 24 0;
#X connect 26 0 27 0;
#X connect 27 0 59 0;
#X connect 27 1 28 0;
#X connect 28 0 26 0;
#X connect 28 1 18 0;
#X connect 29 0 39 0;
#X connect 29 1 38 0;
#X connect 29 2 39 0;
#X connect 30 0 31 0;
#X connect 31 0 33 0;
#X connect 32 0 59 0;
#X connect 32 1 30 0;
#X connect 33 0 43 0;
#X connect 34 0 32 0;
#X connect 37 0 10 0;
#X connect 38 0 58 0;
#X connect 38 1 31 0;
#X connect 38 2 37 0;
#X connect 39 0 56 0;
#X connect 39 1 37 0;
#X connect 39 2 40 0;
#X connect 40 0 18 0;
#X connect 41 0 40 1;
#X connect 42 0 29 0;
#X connect 46 0 43 0;
#X connect 52 0 17 0;
#X connect 53 0 52 1;
#X connect 54 0 55 0;
#X connect 55 0 42 0;
#X connect 55 1 9 0;
#X connect 55 2 52 0;
#X connect 56 0 7 0;
#X connect 56 0 57 0;
#X connect 57 0 19 0;
#X connect 58 0 18 0;
#X connect 58 0 56 0;
#X connect 59 0 54 0;
#X connect 60 0 59 0;
#X connect 60 1 41 0;
#X connect 60 2 13 0;
#X connect 61 0 42 0;
#X connect 61 1 9 0;
#X connect 61 2 53 0;
#X connect 62 0 4 0;
#X connect 62 1 31 0;
#X connect 62 2 34 0;
#X connect 62 4 3 0;
#X coords 0 -1 1 1 185 71 1 200 150;
#X restore 20 220 pd ARGO;
#X obj 654 543 cnv 15 34 16 empty empty empty 20 12 0 14 -24198 -66577
0;
#N canvas 353 174 333 161 ?? 0;
#X obj 17 89 cnv 15 300 56 empty empty empty 20 12 0 14 -224896 -66577
0;
#X obj 17 12 cnv 18 300 70 empty empty ARGOPdMiniModules 3 10 1 14
-4033 -1 1.04858e+06;
#X obj 40 32 cnv 10 10 10 empty empty Gerard 0 5 1 11 -4033 -1 1.04858e+06
;
#X obj 78 32 cnv 10 10 10 empty empty Paresys 0 5 1 11 -4033 -1 1.04858e+06
;
#X obj 20 54 pddp/pddplink http://gerard.paresys.free.fr/ARGOPd/;
#X obj 22 126 pddp/pddplink http://puredata.info/downloads/pd-extended
;
#X obj 22 102 pddp/pddplink http://puredata.info/downloads/pure-data
;
#X text 22 90 Construit sous / Build under Pd-0.49...;
#X text 21 114 or Pd 0.43.4-extended;
#X obj 20 66 pddp/pddplink https://paresys.pagesperso-orange.fr/ARGOPd/
;
#X obj 20 42 pddp/pddplink https://github.com/gerardparesys/ARGOPd
;
#X restore 654 543 pd ??;
#X connect 4 0 8 0;
#X connect 4 1 29 0;
#X connect 6 0 9 0;
#X connect 6 1 30 0;
#X connect 7 0 10 0;
#X connect 7 1 31 0;
#X connect 8 0 6 0;
#X connect 9 0 7 0;
#X connect 10 0 11 0;
#X connect 11 0 14 0;
#X connect 11 1 32 0;
#X connect 12 0 15 0;
#X connect 12 1 33 0;
#X connect 13 0 16 0;
#X connect 13 1 34 0;
#X connect 14 0 12 0;
#X connect 15 0 13 0;
#X connect 16 0 17 0;
#X connect 17 0 20 0;
#X connect 17 1 35 0;
#X connect 18 0 21 0;
#X connect 18 1 36 0;
#X connect 19 0 22 0;
#X connect 19 1 37 0;
#X connect 20 0 18 0;
#X connect 21 0 19 0;
#X connect 22 0 23 0;
#X connect 23 0 26 0;
#X connect 23 1 38 0;
#X connect 24 0 27 0;
#X connect 24 1 39 0;
#X connect 25 0 28 0;
#X connect 25 1 40 0;
#X connect 26 0 24 0;
#X connect 27 0 25 0;
#X connect 29 0 44 1;
#X connect 30 0 44 2;
#X connect 31 0 44 3;
#X connect 32 0 45 1;
#X connect 33 0 45 2;
#X connect 34 0 45 3;
#X connect 35 0 46 1;
#X connect 36 0 46 2;
#X connect 37 0 46 3;
#X connect 38 0 47 1;
#X connect 39 0 47 2;
#X connect 40 0 47 3;
#X connect 43 0 44 0;
#X connect 43 0 45 0;
#X connect 43 0 46 0;
#X connect 43 0 47 0;
#X connect 44 0 48 0;
#X connect 45 0 49 0;
#X connect 46 0 50 0;
#X connect 47 0 51 0;
