#N canvas 523 23 383 471 10;
#N canvas 542 23 263 522 ARGO 0;
#X obj 100 489 outlet~;
#X obj 20 67 cnv 15 60 30 empty empty empty 20 12 0 14 -24198 -66577
0;
#N canvas 370 139 458 312 Help 0;
#X obj 11 94 cnv 15 420 180 empty empty empty 20 12 0 14 -228856 -66577
0;
#X text 14 94 Citation;
#X text 29 115 "We want exponentially distributed noise. Special external
atoms exist to make a wide variety of noise distributions for PureData
\, but as we wish to avoid relying on components that might not be
in every version we are going to make our own exponentially distributed
noise. Fortunately it's an easy task. Let's take a the bog standard
orthodox random number generator that gives us evenly spaced numbers.
Now we will feed this through the exponential function and voila! Well
not quite.";
#X text 14 48 Based on Andy Farnell's work.;
#X text 13 24 Liquid / Liquide;
#X obj 37 63 pddp/pddplink http://aspress.co.uk/sd/index.html;
#X obj 15 222 pddp/pddplink https://www.moz.ac.at/sem/lehre/lib/pd-sounddesign/tutorial_tea.html
;
#X restore 27 73 pd Help;
#X obj 101 101 cnv 6 130 33 empty ColorForm Liquid-Farnell. 38 8 1
14 -262144 -1 1.04858e+06;
#X obj 103 117 hsl 127 12 1 100 0 1 \$0-A ColorTime Speed=87 0 7 1
11 -208064 -1 -1 11000 0;
#X obj 101 130 cnv 4 10 4 empty empty empty 20 12 0 14 -1 -66577 0
;
#X obj 100 100 tgl 12 1 \$0-A \$0-B On 14 7 1 9 -262144 -1 -1 1 1;
#X obj 45 489 switch~;
#X obj 100 346 osc~;
#X obj 100 273 line~;
#X obj 100 418 *~;
#X obj 133 395 *~;
#X obj 100 160 metro 6;
#X obj 100 206 * 800;
#X obj 133 370 *~ 0.9;
#X obj 100 441 hip~ 10;
#X obj 100 252 pack 1 2;
#X obj 133 346 lop~ 10;
#N canvas 359 175 450 300 bilexp 0;
#X obj 56 166 expr exp($f1);
#X obj 55 71 random 8192;
#X obj 56 139 * 9;
#X obj 55 116 / 4096;
#X obj 123 91 > 4096;
#X obj 123 113 sel 0 1;
#X msg 115 141 -1;
#X msg 147 141 1;
#X obj 56 199 *;
#X obj 55 45 t b;
#X obj 55 21 inlet;
#X obj 56 248 outlet;
#X obj 56 225 / 8192;
#X obj 25 93 zexy/wrap 4096;
#X connect 0 0 8 0;
#X connect 1 0 4 0;
#X connect 1 0 13 0;
#X connect 2 0 0 0;
#X connect 3 0 2 0;
#X connect 4 0 5 0;
#X connect 5 0 6 0;
#X connect 5 1 7 0;
#X connect 6 0 8 1;
#X connect 7 0 8 1;
#X connect 8 0 12 0;
#X connect 9 0 1 0;
#X connect 10 0 9 0;
#X connect 12 0 11 0;
#X connect 13 0 3 0;
#X restore 100 184 pd bilexp;
#X obj 134 323 clip~ 0 1;
#X obj 100 228 + 800;
#N canvas 465 101 242 205 label 0;
#X msg 34 136 label \$1;
#X obj 34 41 inlet;
#X obj 34 163 outlet;
#X obj 34 68 expr (int($f1)) \;;
#X obj 34 92 cyclone/sprintf Speed=%s;
#X obj 34 114 cyclone/tosymbol;
#X connect 0 0 2 0;
#X connect 1 0 3 0;
#X connect 3 0 4 0;
#X connect 4 0 5 0;
#X connect 5 0 0 0;
#X restore 37 115 pd label;
#X obj 139 139 expr int(101-$f1);
#X obj 100 463 *~ 20;
#X text 51 38 Based on Andy Farnell's work.;
#X obj 134 299 cyclone/delta~;
#X obj 192 481 cnv 15 52 22 empty empty empty 20 12 0 14 -24198 -66577
0;
#N canvas 353 174 321 152 ?... 0;
#X obj 8 84 cnv 15 300 56 empty empty empty 20 12 0 14 -224896 -66577
0;
#X obj 8 7 cnv 18 300 70 empty empty ARGOPdMiniModules 3 10 1 14 -4033
-1 1.04858e+06;
#X obj 31 27 cnv 10 10 10 empty empty Gerard 0 5 1 11 -4033 -1 1.04858e+06
;
#X obj 69 27 cnv 10 10 10 empty empty Paresys 0 5 1 11 -4033 -1 1.04858e+06
;
#X obj 12 40 pddp/pddplink http://gerard.paresys.free.fr/ARGOPd/;
#X obj 13 121 pddp/pddplink http://puredata.info/downloads/pd-extended
;
#X obj 13 97 pddp/pddplink http://puredata.info/downloads/pure-data
;
#X text 13 85 Construit sous / Build under Pd-0.49...;
#X text 12 109 or Pd 0.43.4-extended;
#X obj 12 53 pddp/pddplink https://paresys.pagesperso-orange.fr/ARGOPd/
;
#X restore 195 484 pd ?...;
#X text 175 84 23 8 2019;
#X connect 4 0 21 0;
#X connect 4 0 22 0;
#X connect 6 0 7 0;
#X connect 6 0 12 0;
#X connect 8 0 10 0;
#X connect 9 0 8 0;
#X connect 9 0 25 0;
#X connect 10 0 15 0;
#X connect 11 0 10 1;
#X connect 12 0 18 0;
#X connect 13 0 20 0;
#X connect 14 0 11 0;
#X connect 14 0 11 1;
#X connect 15 0 23 0;
#X connect 16 0 9 0;
#X connect 17 0 14 0;
#X connect 18 0 13 0;
#X connect 19 0 17 0;
#X connect 20 0 16 0;
#X connect 21 0 4 0;
#X connect 22 0 12 1;
#X connect 23 0 0 0;
#X connect 25 0 19 0;
#X coords 0 -1 1 1 132 35 1 100 100;
#X restore 149 69 pd ARGO;
#X msg 292 86 69;
#X msg 327 86 81;
#X obj 4 4 cnv 15 15 15 empty empty ExMM189a-Liquid-Farnell.pd 0 8
1 14 -262144 -66577 0;
#X obj 30 129 switch~;
#N canvas 608 166 228 173 ARGOnOff 0;
#X obj 100 100 tgl 18 1 \$0-SendOnOff \$0-ReceiveOnOff On/Off 20 11
1 14 -4033 -1 -1 1 1;
#X obj 99 10 loadbang;
#X msg 99 33 \; pd dsp 1;
#X obj 100 129 outlet;
#X text -50 99 Audio On/Off du patch ->;
#X text -22 45 Audio General On ->;
#X text 107 82 17 3 2010;
#X connect 0 0 3 0;
#X connect 1 0 2 0;
#X coords 0 -1 1 1 65 18 2 100 100;
#X restore 30 111 pd ARGOnOff;
#X text 35 95 V;
#X text 35 88 |;
#X text 23 77 On/Off Patch;
#X text 53 89 (Audio);
#X text 74 215 Direct ->;
#X text 243 215 <- 4 Filter band-pass;
#X text 85 23 Based on Andy Farnell's work.;
#X text 99 37 "liquid with a pipe/vessel formant";
#X text 300 67 NoteMIDI;
#N canvas 236 158 567 433 ARGO 0;
#X obj 233 389 outlet~;
#X obj 326 389 outlet~;
#X obj 15 46 cnv 15 60 30 empty empty empty 20 12 0 14 -24198 -66577
0;
#N canvas 619 279 327 155 Help 0;
#X text 16 11 MM 4Flt-BP;
#X text 21 31 4 Band-pass filters = 4 Filtres passe-bande;
#X text 148 72 FxD;
#X text 148 59 FxDxD;
#X text 148 85 F/D;
#X text 148 100 F/D/D;
#X text 207 79 D = Distance;
#X text 12 84 Frequences centrales =;
#X text 17 70 Central frequencies =;
#X restore 22 52 pd Help;
#X obj 210 51 inlet;
#X text 207 19 NoteMIDI;
#X text 82 29 In Audio;
#N canvas 499 145 413 225 Freq-v6 0;
#X obj 24 28 inlet;
#X obj 24 182 outlet;
#X text 21 199 Hslider;
#X text 19 7 Hslider;
#X obj 148 154 clip 0 20000;
#X obj 148 61 mtof;
#X obj 148 181 outlet;
#X text 145 199 Freq Hz;
#N canvas 220 243 583 317 pitchb-11-2010 0;
#X obj 70 111 mod 12;
#X obj 70 135 sel 0 1 2 3 4 5 6 7 8 9 10 11;
#X msg 246 170 A;
#X msg 300 170 B;
#X msg 192 170 G;
#X msg 3 170 C;
#X msg 57 170 D;
#X msg 111 170 E;
#X msg 138 170 F;
#X obj 204 1 inlet;
#X obj 377 114 div 12;
#X obj 204 79 t f f;
#X text 334 190 -> Numero de l'octave;
#X text 213 64 -> Numero MIDI de la note (69 = A3 = 440Hz);
#X msg 260 260 label \$1;
#X obj 260 283 outlet;
#X msg 30 170 Db;
#X msg 84 170 Eb;
#X msg 165 170 Gb;
#X msg 219 170 Ab;
#X msg 273 170 Bb;
#X text 369 78 (70 = A#3 = Bb3);
#X obj 260 238 symbol;
#X text 11 231 Impossible d'afficher # dans un label;
#X text 11 243 donc j'affiche b;
#X obj 204 51 int;
#X text 255 23 -> pour corriger certaines erreurs de calcul;
#X obj 377 143 - 12;
#X text 255 35 et le pb du passage a zero de mod 12;
#X obj 204 25 + 120.5;
#X obj 260 213 cyclone/sprintf %s%d;
#X connect 0 0 1 0;
#X connect 1 0 5 0;
#X connect 1 1 16 0;
#X connect 1 2 6 0;
#X connect 1 3 17 0;
#X connect 1 4 7 0;
#X connect 1 5 8 0;
#X connect 1 6 18 0;
#X connect 1 7 4 0;
#X connect 1 8 19 0;
#X connect 1 9 2 0;
#X connect 1 10 20 0;
#X connect 1 11 3 0;
#X connect 2 0 30 0;
#X connect 3 0 30 0;
#X connect 4 0 30 0;
#X connect 5 0 30 0;
#X connect 6 0 30 0;
#X connect 7 0 30 0;
#X connect 8 0 30 0;
#X connect 9 0 29 0;
#X connect 10 0 27 0;
#X connect 11 0 0 0;
#X connect 11 1 10 0;
#X connect 14 0 15 0;
#X connect 16 0 30 0;
#X connect 17 0 30 0;
#X connect 18 0 30 0;
#X connect 19 0 30 0;
#X connect 20 0 30 0;
#X connect 22 0 14 0;
#X connect 25 0 11 0;
#X connect 27 0 30 1;
#X connect 29 0 25 0;
#X connect 30 0 22 0;
#X restore 24 93 pd pitchb-11-2010;
#X msg 252 162 label \$1;
#X obj 252 184 outlet;
#X text 253 199 label Freq Hz;
#X obj 252 93 int;
#X obj 252 116 cyclone/sprintf %sHz;
#X obj 252 138 cyclone/tosymbol;
#X connect 0 0 5 0;
#X connect 0 0 8 0;
#X connect 4 0 6 0;
#X connect 5 0 4 0;
#X connect 5 0 12 0;
#X connect 8 0 1 0;
#X connect 9 0 10 0;
#X connect 12 0 13 0;
#X connect 13 0 14 0;
#X connect 14 0 9 0;
#X restore 15 105 pd Freq-v6;
#X text 181 32 0..127 = C-2..G8;
#X obj 101 101 cnv 20 132 58 empty ColorForm empty 20 12 0 14 -188398
-1 1.04858e+06;
#X obj 172 105 cnv 10 40 10 empty ColorForm 4Flt-BP. 1 5 1 14 -188398
-1 1.04858e+06;
#X obj 101 155 cnv 4 10 4 empty empty empty 20 12 0 14 -1 -66577 0
;
#X obj 224 155 cnv 4 10 4 empty empty empty 0 0 0 9 -1 -66577 0;
#X obj 182 155 cnv 4 10 4 empty empty empty 0 0 0 9 -1 -66577 0;
#X obj 138 155 cnv 4 10 4 empty empty empty 0 0 0 9 -1 -66577 0;
#X obj 223 101 cnv 4 10 4 empty empty empty 20 12 0 14 -260097 -66577
0;
#X obj 102 120 bng 8 250 50 0 empty empty 880Hz 0 -7 1 11 -188398 -188398
-1;
#X obj 101 101 cnv 4 10 4 empty empty empty 20 12 0 14 -1 -66577 0
;
#X obj 103 118 hsl 129 12 0 128 0 1 \$0-A ColorTime A4 0 7 1 9 -208064
-1728 -1 8100 0;
#X obj 233 361 bp~ 678 80;
#X obj 326 361 bp~ 987 80;
#X obj 103 130 hsl 129 12 1 10 1 1 \$0-A ColorTime Distance=1.33 0
7 1 9 -208064 -1728 -1 1600 0;
#N canvas 465 101 242 205 label 0;
#X msg 34 136 label \$1;
#X obj 34 41 inlet;
#X obj 34 163 outlet;
#X obj 34 68 expr (int(100 * $f1) / 100) \;;
#X obj 34 92 cyclone/sprintf Distance=%s;
#X obj 34 114 cyclone/tosymbol;
#X connect 0 0 2 0;
#X connect 1 0 3 0;
#X connect 3 0 4 0;
#X connect 4 0 5 0;
#X connect 5 0 0 0;
#X restore 16 129 pd label;
#X obj 387 219 t b f;
#X obj 261 244 expr min(($f1*$f2) \, 20000);
#X obj 504 273 t b f;
#X obj 354 299 expr min(($f1*$f2*$f2) \, 20000);
#X obj 92 389 outlet~;
#X obj 92 361 bp~ 678 80;
#X obj 223 273 t b f;
#X obj 14 389 outlet~;
#X obj 14 361 bp~ 678 80;
#X obj 168 219 t b f;
#X obj 42 244 expr max(($f1/$f2/$f2) \, 8);
#X obj 121 299 expr max(($f1/$f2) \, 8);
#X obj 103 142 hsl 129 12 1 1000 1 1 \$0-A ColorTime Q=79 0 7 1 9 -188398
-1728 -1 8100 0;
#N canvas 465 101 242 205 label 0;
#X msg 34 136 label \$1;
#X obj 34 41 inlet;
#X obj 34 163 outlet;
#X obj 34 68 expr int($f1);
#X obj 34 92 cyclone/sprintf Q=%s;
#X obj 34 114 cyclone/tosymbol;
#X connect 0 0 2 0;
#X connect 1 0 3 0;
#X connect 3 0 4 0;
#X connect 4 0 5 0;
#X connect 5 0 0 0;
#X restore 16 154 pd label;
#X text 239 128 -> D;
#X text 176 159 FxD;
#X text 214 159 FxDxD;
#X text 133 159 F/D;
#X text 91 159 F/D/D;
#X text 282 91 4 Band-pass filters;
#X text 240 116 -> F;
#X obj 92 323 *~ 10;
#X obj 92 51 inlet~;
#X obj 483 381 cnv 15 52 22 empty empty empty 20 12 0 14 -24198 -66577
0;
#N canvas 353 174 321 152 ?... 0;
#X obj 8 84 cnv 15 300 56 empty empty empty 20 12 0 14 -224896 -66577
0;
#X obj 8 7 cnv 18 300 70 empty empty ARGOPdMiniModules 3 10 1 14 -4033
-1 1.04858e+06;
#X obj 31 27 cnv 10 10 10 empty empty Gerard 0 5 1 11 -4033 -1 1.04858e+06
;
#X obj 69 27 cnv 10 10 10 empty empty Paresys 0 5 1 11 -4033 -1 1.04858e+06
;
#X obj 12 40 pddp/pddplink http://gerard.paresys.free.fr/ARGOPd/;
#X obj 13 121 pddp/pddplink http://puredata.info/downloads/pd-extended
;
#X obj 13 97 pddp/pddplink http://puredata.info/downloads/pure-data
;
#X text 13 85 Construit sous / Build under Pd-0.49...;
#X text 12 109 or Pd 0.43.4-extended;
#X obj 12 53 pddp/pddplink https://paresys.pagesperso-orange.fr/ARGOPd/
;
#X restore 486 384 pd ?...;
#X text 176 83 23 8 2019;
#X connect 4 0 18 0;
#X connect 7 0 18 0;
#X connect 7 1 24 0;
#X connect 7 1 26 0;
#X connect 7 1 33 0;
#X connect 7 1 34 0;
#X connect 7 2 16 0;
#X connect 18 0 7 0;
#X connect 19 0 0 0;
#X connect 20 0 1 0;
#X connect 21 0 22 0;
#X connect 21 0 23 0;
#X connect 21 0 25 0;
#X connect 21 0 29 0;
#X connect 21 0 32 0;
#X connect 22 0 21 0;
#X connect 23 0 24 0;
#X connect 23 1 24 1;
#X connect 24 0 19 1;
#X connect 25 0 26 0;
#X connect 25 1 26 1;
#X connect 26 0 20 1;
#X connect 28 0 27 0;
#X connect 29 0 34 0;
#X connect 29 1 34 1;
#X connect 31 0 30 0;
#X connect 32 0 33 0;
#X connect 32 1 33 1;
#X connect 33 0 31 1;
#X connect 34 0 28 1;
#X connect 35 0 36 0;
#X connect 35 0 20 2;
#X connect 35 0 19 2;
#X connect 35 0 28 2;
#X connect 35 0 31 2;
#X connect 36 0 35 0;
#X connect 44 0 19 0;
#X connect 44 0 20 0;
#X connect 44 0 28 0;
#X connect 44 0 31 0;
#X connect 45 0 44 0;
#X coords 0 -1 1 1 134 60 1 100 100;
#X restore 192 119 pd ARGO;
#X obj 213 426 dac~ 1 2;
#X text 5 429 .wav file format recorder;
#X text 3 417 Enregistreur audio au format .wav;
#X text 20 260 Niveau general ->;
#X text 26 270 General level ->;
#X text 99 406 |;
#X text 99 401 ^;
#N canvas 175 68 381 386 ARGO 0;
#X obj 101 101 cnv 20 116 34 empty ColorAmpli empty 20 12 0 14 -261299
-1 1.04858e+06;
#X obj 85 353 outlet~;
#X obj 157 104 cnv 10 20 10 empty ColorAmpli Ampli. 1 5 1 14 -261299
-1 1.04858e+06;
#X obj 85 43 inlet~;
#X obj 85 330 *~;
#X obj 115 118 hsl 101 12 -80 20 0 1 \$0-A ColorAmpli 0dB 0 7 1 9 -261299
-1 -1 8000 0;
#X obj 101 101 cnv 4 10 4 empty empty empty 20 12 0 14 -1 -66577 0
;
#X obj 101 131 cnv 4 10 4 empty empty empty 20 12 0 14 -1 -66577 0
;
#X obj 207 101 cnv 4 10 4 empty empty empty 20 12 0 14 -1 -66577 0
;
#X obj 207 131 cnv 4 10 4 empty empty empty 20 12 0 14 -1 -66577 0
;
#X obj 222 352 outlet~;
#X obj 222 42 inlet~;
#X obj 222 329 *~;
#X msg -42 138 label \$1;
#X text 148 194 -> 0.0001..10 = -80dB..20dB;
#X obj 142 175 expr (pow(10 \, $f1 / 20));
#X obj 142 215 sel 0.0001;
#X msg 100 244 0;
#X obj 100 118 tgl 12 1 \$0-A \$0-B Mute 2 -5 1 9 -261299 -1 -1 0 1
;
#X obj 99 146 select 0 1;
#X obj 140 295 line~;
#X obj 140 275 pack 0 10;
#X msg 123 74 set 0;
#X obj -42 92 cyclone/sprintf %ddB;
#X text 228 110 6 3 2016;
#X obj -42 115 cyclone/tosymbol;
#X obj 273 344 cnv 15 42 25 empty empty empty 20 12 0 14 -24198 -66577
0;
#N canvas 336 174 309 137 ?. 0;
#X obj 3 83 cnv 15 300 46 empty empty empty 20 12 0 14 -224896 -66577
0;
#X obj 3 6 cnv 18 300 70 empty empty ARGOPdMiniModules 3 10 1 14 -4033
-1 1.04858e+06;
#X obj 26 26 cnv 10 10 10 empty empty Gerard 0 5 1 11 -4033 -1 1.04858e+06
;
#X obj 64 26 cnv 10 10 10 empty empty Paresys 0 5 1 11 -4033 -1 1.04858e+06
;
#X obj 7 37 pddp/pddplink http://gerard.paresys.free.fr/ARGOPd/;
#X text 8 85 Construit sous / Build under Pd 0.43.4-extended;
#X obj 8 111 pddp/pddplink http://puredata.info/downloads/pd-extended
;
#X obj 7 50 pddp/pddplink http://paresys.pagesperso-orange.fr/ARGOPd/
;
#X text 7 98 or Pd-0.46-7 + deken;
#X restore 277 348 pd ?.;
#X connect 3 0 4 0;
#X connect 4 0 1 0;
#X connect 5 0 15 0;
#X connect 5 0 23 0;
#X connect 11 0 12 0;
#X connect 12 0 10 0;
#X connect 13 0 5 0;
#X connect 15 0 16 0;
#X connect 16 0 17 0;
#X connect 16 1 21 0;
#X connect 16 1 22 0;
#X connect 17 0 21 0;
#X connect 17 0 25 0;
#X connect 18 0 19 0;
#X connect 19 0 5 0;
#X connect 19 1 17 0;
#X connect 20 0 12 1;
#X connect 20 0 4 1;
#X connect 21 0 20 0;
#X connect 22 0 18 0;
#X connect 23 0 25 0;
#X connect 25 0 13 0;
#X coords 0 -1 1 1 118 36 1 100 100;
#X restore 128 255 pd ARGO;
#N canvas 286 45 728 239 ARGO 0;
#X obj 239 36 inlet~;
#X text 77 17 Left input;
#X text 224 17 Right input;
#X text 356 37 Stereo wav file format recorder;
#X text 356 52 Enregistreur de fichier audio wav à 2 canaux (stereo)
;
#X obj 88 36 inlet~;
#X obj 171 198 writesf~ 2;
#X text 356 67 L'extension .wav est ajoutée au nom du fichier automatiquement
;
#X obj 103 100 hsl 161 17 0 127 0 0 \$0-A \$0-B Record. 103 10 1 14
-261299 -261299 -1 0 1;
#X obj 255 101 cnv 4 10 4 empty empty empty 20 12 0 14 -1 -66577 0
;
#X obj 101 101 cnv 4 10 4 empty empty empty 20 12 0 14 -1 -66577 0
;
#X obj 112 100 nbx 4 17 0 9999 0 0 \$0-A ColorTime sec 59 9 1 15 -208064
-1 -1 0 256;
#X text 355 103 Clic n'importe où pour commencer un enregistrement
Audio -> Clic encore pour arrêter l'enregistrement;
#X text 456 130 Click anywhere to start recording Audio ->;
#X text 455 142 Click again to stop recording;
#X text 121 122 Hslider caché transformé en bouton;
#N canvas 415 66 351 399 record2 0;
#X obj 136 95 sel 0 1;
#X msg 171 260 start;
#X msg 107 259 stop;
#X msg 155 150 open \$1;
#X obj 155 126 savepanel;
#X obj 165 203 delay 1000;
#X obj 245 323 float;
#X obj 291 322 + 1;
#X obj 223 295 metro 1000;
#X msg 291 296 -1;
#X msg 11 257 0;
#X msg 42 257 1;
#X obj 66 210 t b b;
#X obj 165 229 t b b b b;
#N canvas 317 143 290 366 CouleurRecord2 0;
#X obj 122 -19 +;
#X obj 122 37 +;
#X obj 61 -75 * -65536;
#X obj 117 -75 * -256;
#X obj 163 -77 * -1;
#X obj 122 68 - 1;
#X obj 115 -202 inlet;
#X text 77 -97 R;
#X text 123 -99 G;
#X text 172 -98 B;
#X obj 122 123 outlet;
#X text 170 -169 Rouge;
#X msg 134 -121 255;
#X msg 167 -121 0;
#X obj 115 -178 sel 0 1;
#X text 56 -170 Rose;
#X msg 73 -121 200;
#X msg 40 -121 252;
#X obj 134 -148 t b b b;
#X msg 198 -121 0;
#X msg 104 -121 200;
#X obj 40 -148 t b b b;
#X msg 122 96 color \$1 \$1 -1;
#X connect 0 0 1 1;
#X connect 1 0 5 0;
#X connect 2 0 1 0;
#X connect 3 0 0 0;
#X connect 4 0 0 1;
#X connect 5 0 22 0;
#X connect 6 0 14 0;
#X connect 12 0 2 0;
#X connect 13 0 3 0;
#X connect 14 0 21 0;
#X connect 14 1 18 0;
#X connect 16 0 3 0;
#X connect 17 0 2 0;
#X connect 18 0 12 0;
#X connect 18 1 13 0;
#X connect 18 2 19 0;
#X connect 19 0 4 0;
#X connect 20 0 4 0;
#X connect 21 0 17 0;
#X connect 21 1 16 0;
#X connect 21 2 20 0;
#X connect 22 0 10 0;
#X restore 25 326 pd CouleurRecord2;
#X obj 136 75 tgl 15 0 \$0-A \$0-B empty 19 9 1 12 -262144 -258113
-1 0 1;
#X obj 136 30 b;
#X obj 136 52 delay 200;
#X obj 136 8 inlet;
#X obj 25 356 outlet;
#X text 22 372 Couleur;
#X obj 291 356 outlet;
#X text 288 372 Compteur;
#X obj 155 356 outlet;
#X text 152 372 writesf;
#X obj 199 176 t b b;
#X msg 72 33 0;
#X obj 72 8 loadbang;
#X msg 260 124 set 0;
#X msg 261 173 set 1;
#X obj 261 149 b;
#X connect 0 0 12 0;
#X connect 0 1 4 0;
#X connect 0 1 28 0;
#X connect 1 0 23 0;
#X connect 2 0 8 0;
#X connect 2 0 23 0;
#X connect 3 0 23 0;
#X connect 3 0 25 0;
#X connect 4 0 3 0;
#X connect 4 0 30 0;
#X connect 5 0 13 0;
#X connect 6 0 7 0;
#X connect 7 0 6 1;
#X connect 7 0 21 0;
#X connect 8 0 6 0;
#X connect 9 0 7 0;
#X connect 10 0 14 0;
#X connect 11 0 14 0;
#X connect 12 0 10 0;
#X connect 12 1 2 0;
#X connect 13 0 11 0;
#X connect 13 1 1 0;
#X connect 13 2 8 0;
#X connect 13 3 9 0;
#X connect 14 0 19 0;
#X connect 15 0 0 0;
#X connect 16 0 17 0;
#X connect 17 0 15 0;
#X connect 18 0 16 0;
#X connect 25 0 5 0;
#X connect 25 1 9 0;
#X connect 26 0 15 0;
#X connect 27 0 26 0;
#X connect 28 0 15 0;
#X connect 29 0 15 0;
#X connect 30 0 29 0;
#X restore 56 147 pd record2;
#X obj 636 186 cnv 15 42 25 empty empty empty 20 12 0 14 -24198 -66577
0;
#N canvas 336 174 309 137 ?. 0;
#X obj 3 83 cnv 15 300 46 empty empty empty 20 12 0 14 -224896 -66577
0;
#X obj 3 6 cnv 18 300 70 empty empty ARGOPdMiniModules 3 10 1 14 -4033
-1 1.04858e+06;
#X obj 26 26 cnv 10 10 10 empty empty Gerard 0 5 1 11 -4033 -1 1.04858e+06
;
#X obj 64 26 cnv 10 10 10 empty empty Paresys 0 5 1 11 -4033 -1 1.04858e+06
;
#X obj 7 37 pddp/pddplink http://gerard.paresys.free.fr/ARGOPd/;
#X text 8 85 Construit sous / Build under Pd 0.43.4-extended;
#X obj 8 111 pddp/pddplink http://puredata.info/downloads/pd-extended
;
#X obj 7 50 pddp/pddplink http://paresys.pagesperso-orange.fr/ARGOPd/
;
#X text 7 98 or Pd-0.46-7 + deken;
#X restore 640 190 pd ?.;
#X text 175 81 7 3 2016;
#X connect 0 0 6 1;
#X connect 5 0 6 0;
#X connect 8 0 16 0;
#X connect 16 0 8 0;
#X connect 16 1 6 0;
#X connect 16 2 11 0;
#X coords 0 -1 1 1 166 17 1 100 100;
#X restore 9 385 pd ARGO;
#N canvas 446 64 251 267 ARGO 0;
#X obj 101 104 cnv 30 49 130 empty ColorAmpli empty 20 12 0 14 -1 -258113
0;
#X obj 102 110 vu 8 120 \$0-B empty 0 0 1 11 -1 -4034 0 0;
#X obj 49 35 inlet~;
#X obj 22 108 cnv 15 60 30 empty empty empty 20 12 0 14 -24198 -66577
0;
#N canvas 300 65 442 264 Help 0;
#X obj 12 48 cnv 15 400 150 empty empty empty 20 12 0 14 -233017 -66577
0;
#X text 16 50 Citation;
#X text 28 67 peakamp~ tracks and outputs the absolute value of the
peak amplitude of the incoming signal. It outputs when banged or using
its own internal clock. The peak value is reset each time peakamp~
outputs a value.;
#X text 29 123 cyclone library;
#X text 28 135 http://suita.chopin.edu.pl/~czaja/miXed/externs/cyclone.html
;
#X text 29 155 Voir doc Max/MSP MSP46ReferenceManual.pdf;
#X text 18 14 MM-Vumetre;
#X restore 29 114 pd Help;
#N canvas 541 112 317 265 VuMetre 0;
#X obj 48 19 inlet~;
#X obj 41 54 *~;
#X obj -25 132 snapshot~;
#X obj -25 155 sqrt;
#X obj -25 100 lop~ 10;
#X obj -25 179 rmstodb;
#X obj -88 19 loadbang;
#X obj -25 202 - 100;
#X obj 58 156 sqrt;
#X obj 58 180 rmstodb;
#X obj 58 203 - 100;
#X obj -89 102 metro 200;
#X obj -28 19 r SendFluid;
#X obj 58 102 cyclone/peakamp~ 1000;
#X obj -25 228 outlet;
#X obj 58 227 outlet;
#X connect 0 0 1 0;
#X connect 0 0 1 1;
#X connect 1 0 4 0;
#X connect 1 0 13 0;
#X connect 2 0 3 0;
#X connect 3 0 5 0;
#X connect 4 0 2 0;
#X connect 5 0 7 0;
#X connect 6 0 11 0;
#X connect 7 0 14 0;
#X connect 8 0 9 0;
#X connect 9 0 10 0;
#X connect 10 0 15 0;
#X connect 11 0 2 0;
#X connect 12 0 11 1;
#X connect 13 0 8 0;
#X restore 49 63 pd VuMetre;
#X obj 172 211 cnv 15 42 25 empty empty empty 20 12 0 14 -24198 -66577
0;
#N canvas 336 174 309 137 ?. 0;
#X obj 3 83 cnv 15 300 46 empty empty empty 20 12 0 14 -224896 -66577
0;
#X obj 3 6 cnv 18 300 70 empty empty ARGOPdMiniModules 3 10 1 14 -4033
-1 1.04858e+06;
#X obj 26 26 cnv 10 10 10 empty empty Gerard 0 5 1 11 -4033 -1 1.04858e+06
;
#X obj 64 26 cnv 10 10 10 empty empty Paresys 0 5 1 11 -4033 -1 1.04858e+06
;
#X obj 7 37 pddp/pddplink http://gerard.paresys.free.fr/ARGOPd/;
#X text 8 85 Construit sous / Build under Pd 0.43.4-extended;
#X obj 8 111 pddp/pddplink http://puredata.info/downloads/pd-extended
;
#X obj 7 50 pddp/pddplink http://paresys.pagesperso-orange.fr/ARGOPd/
;
#X text 7 98 or Pd-0.46-7 + deken;
#X restore 176 215 pd ?.;
#X obj 113 110 vu 8 120 \$0-B empty 0 0 1 11 -1 -4034 1 0;
#X obj 126 35 inlet~;
#N canvas 541 112 317 265 VuMetre 0;
#X obj 48 19 inlet~;
#X obj 41 54 *~;
#X obj -25 132 snapshot~;
#X obj -25 155 sqrt;
#X obj -25 100 lop~ 10;
#X obj -25 179 rmstodb;
#X obj -88 19 loadbang;
#X obj -25 202 - 100;
#X obj 58 156 sqrt;
#X obj 58 180 rmstodb;
#X obj 58 203 - 100;
#X obj -89 102 metro 200;
#X obj -28 19 r SendFluid;
#X obj 58 102 cyclone/peakamp~ 1000;
#X obj -25 228 outlet;
#X obj 58 227 outlet;
#X connect 0 0 1 0;
#X connect 0 0 1 1;
#X connect 1 0 4 0;
#X connect 1 0 13 0;
#X connect 2 0 3 0;
#X connect 3 0 5 0;
#X connect 4 0 2 0;
#X connect 5 0 7 0;
#X connect 6 0 11 0;
#X connect 7 0 14 0;
#X connect 8 0 9 0;
#X connect 9 0 10 0;
#X connect 10 0 15 0;
#X connect 11 0 2 0;
#X connect 12 0 11 1;
#X connect 13 0 8 0;
#X restore 126 63 pd VuMetre;
#X text 153 87 3 3 2019;
#X connect 2 0 5 0;
#X connect 5 0 1 0;
#X connect 5 1 1 1;
#X connect 9 0 10 0;
#X connect 10 0 8 0;
#X connect 10 1 8 1;
#X coords 0 -1 1 1 51 135 2 100 100;
#X restore 270 308 pd ARGO;
#X obj 327 422 cnv 15 52 22 empty empty empty 20 12 0 14 -24198 -66577
0;
#N canvas 353 174 321 152 ?... 0;
#X obj 8 84 cnv 15 300 56 empty empty empty 20 12 0 14 -224896 -66577
0;
#X obj 8 7 cnv 18 300 70 empty empty ARGOPdMiniModules 3 10 1 14 -4033
-1 1.04858e+06;
#X obj 31 27 cnv 10 10 10 empty empty Gerard 0 5 1 11 -4033 -1 1.04858e+06
;
#X obj 69 27 cnv 10 10 10 empty empty Paresys 0 5 1 11 -4033 -1 1.04858e+06
;
#X obj 12 40 pddp/pddplink http://gerard.paresys.free.fr/ARGOPd/;
#X obj 13 121 pddp/pddplink http://puredata.info/downloads/pd-extended
;
#X obj 13 97 pddp/pddplink http://puredata.info/downloads/pure-data
;
#X text 13 85 Construit sous / Build under Pd-0.49...;
#X text 12 109 or Pd 0.43.4-extended;
#X obj 12 53 pddp/pddplink https://paresys.pagesperso-orange.fr/ARGOPd/
;
#X restore 330 425 pd ?...;
#N canvas 348 99 331 343 ARGO 0;
#X obj 101 101 cnv 20 104 34 empty ColorAmpli empty 20 12 0 14 -261299
-1 1.04858e+06;
#X obj 110 306 outlet~;
#X obj 144 106 cnv 10 20 10 empty ColorAmpli Mix. 1 5 1 14 -261299
-1 1.04858e+06;
#X obj 86 75 inlet~;
#X obj 179 75 inlet~;
#X obj 86 272 *~;
#X obj 103 118 hsl 101 12 -1 1 0 1 \$0-A ColorAmpli 0.5 0 7 1 9 -261299
-1 -1 7500 0;
#X msg -18 132 label \$1;
#X obj 101 101 cnv 4 10 4 empty empty empty 20 12 0 14 -1 -66577 0
;
#X obj 101 131 cnv 4 10 4 empty empty empty 20 12 0 14 -1 -66577 0
;
#X obj 195 101 cnv 4 10 4 empty empty empty 20 12 0 14 -1 -66577 0
;
#X obj 179 271 *~;
#X obj 194 244 line~;
#X obj 194 224 pack 0 10;
#X obj 101 146 expr ($f1 + 1) / 2;
#X obj 101 189 expr (1 - $f1);
#X obj 101 245 line~;
#X obj 101 225 pack 0 10;
#X obj 131 101 cnv 4 10 4 empty empty empty 20 12 0 14 -1 -66577 0
;
#X obj 164 101 cnv 4 10 4 empty empty empty 20 12 0 14 -1 -66577 0
;
#X obj 195 131 cnv 4 10 4 empty empty empty 20 12 0 14 -1 -66577 0
;
#X obj 132 75 inlet~;
#X obj 225 75 inlet~;
#X obj 132 272 *~;
#X obj 225 271 *~;
#X obj 165 307 outlet~;
#X obj 244 293 cnv 15 42 25 empty empty empty 20 12 0 14 -24198 -66577
0;
#N canvas 336 174 309 137 ?. 0;
#X obj 3 83 cnv 15 300 46 empty empty empty 20 12 0 14 -224896 -66577
0;
#X obj 3 6 cnv 18 300 70 empty empty ARGOPdMiniModules 3 10 1 14 -4033
-1 1.04858e+06;
#X obj 26 26 cnv 10 10 10 empty empty Gerard 0 5 1 11 -4033 -1 1.04858e+06
;
#X obj 64 26 cnv 10 10 10 empty empty Paresys 0 5 1 11 -4033 -1 1.04858e+06
;
#X obj 7 37 pddp/pddplink http://gerard.paresys.free.fr/ARGOPd/;
#X text 8 85 Construit sous / Build under Pd 0.43.4-extended;
#X obj 8 111 pddp/pddplink http://puredata.info/downloads/pd-extended
;
#X obj 7 50 pddp/pddplink http://paresys.pagesperso-orange.fr/ARGOPd/
;
#X text 7 98 or Pd-0.46-7 + deken;
#X restore 248 297 pd ?.;
#X text 229 100 6 3 2016;
#X obj -19 109 cyclone/tosymbol;
#X connect 3 0 5 0;
#X connect 4 0 11 0;
#X connect 5 0 1 0;
#X connect 6 0 14 0;
#X connect 6 0 29 0;
#X connect 7 0 6 0;
#X connect 11 0 1 0;
#X connect 12 0 11 1;
#X connect 12 0 24 1;
#X connect 13 0 12 0;
#X connect 14 0 13 0;
#X connect 14 0 15 0;
#X connect 15 0 17 0;
#X connect 16 0 5 1;
#X connect 16 0 23 1;
#X connect 17 0 16 0;
#X connect 21 0 23 0;
#X connect 22 0 24 0;
#X connect 23 0 25 0;
#X connect 24 0 25 0;
#X connect 29 0 7 0;
#X coords 0 -1 1 1 106 36 1 100 100;
#X restore 134 200 pd ARGO;
#X connect 0 0 15 0;
#X connect 0 0 28 1;
#X connect 0 0 28 0;
#X connect 1 0 15 1;
#X connect 2 0 15 1;
#X connect 5 0 4 0;
#X connect 15 0 28 2;
#X connect 15 1 28 3;
#X connect 15 2 28 2;
#X connect 15 3 28 3;
#X connect 23 0 16 0;
#X connect 23 0 24 0;
#X connect 23 0 25 0;
#X connect 23 1 16 1;
#X connect 23 1 24 1;
#X connect 23 1 25 1;
#X connect 28 0 23 0;
#X connect 28 1 23 1;
