#N canvas 524 23 517 427 10;
#X obj 11 10 cnv 15 15 15 empty empty ExMM119-PDMTL-coloredNoise.pd
0 8 1 14 -262144 -66577 0;
#N canvas 484 23 338 332 ARGO 0;
#X obj 115 302 outlet~;
#X obj 254 112 cnv 15 60 30 empty empty empty 20 12 0 14 -24198 -66577
0;
#N canvas 654 173 359 246 Help 0;
#X obj 16 31 cnv 15 300 90 empty empty empty 20 12 0 14 -228856 -66577
0;
#X text 19 31 Citation;
#X text 22 65 Comment: Taken from Andy Farnell's work.;
#X text 22 50 Description: Generates different colored noises.;
#X text 23 80 Version: 2;
#X text 23 94 tags: synthesize~;
#X text 17 7 colored noises = bruits colorés;
#X text 22 134 Origine: pdmtl abstractions;
#X text 75 148 = Pure Data Montreal Abstractions;
#X obj 21 161 pddp/pddplink https://github.com/patricksebastien/mtl
;
#X obj 21 176 pddp/pddplink http://aspress.co.uk/sd/index.html;
#X restore 261 118 pd Help;
#X obj 101 101 cnv 6 131 152 empty empty PDMTLcoloredNoise 0 8 1 14
-262144 -1 1.04858e+06;
#X obj 101 249 cnv 4 10 4 empty empty empty 20 12 0 14 -1 -66577 0
;
#X obj 107 117 vsl 15 128 0 127 0 1 \$0-A \$0-B empty 0 -8 0 8 -33289
-262144 -1 100 0;
#X obj 122 117 vsl 15 128 0 127 0 1 \$0-A \$0-B empty 0 -8 0 8 -90881
-262144 -1 0 0;
#X obj 137 117 vsl 15 128 0 127 0 1 \$0-A \$0-B empty 0 -8 0 8 -258699
-262144 -1 3600 0;
#X obj 152 117 vsl 15 128 0 127 0 1 \$0-A \$0-B empty 0 -8 0 8 -260818
-262144 -1 10800 0;
#X obj 167 117 vsl 15 128 0 127 0 1 \$0-A \$0-B empty 0 -8 0 8 -241291
-262144 -1 1200 0;
#X obj 182 117 vsl 15 128 0 127 0 1 \$0-A \$0-B empty 0 -8 0 8 -24198
-262144 -1 8000 0;
#X obj 197 117 vsl 15 128 0 127 0 1 \$0-A \$0-B empty 0 -8 0 8 -62784
-262144 -1 0 0;
#X obj 212 117 vsl 15 128 0 127 0 1 \$0-A \$0-B empty 0 -8 0 8 -250685
-262144 -1 0 0;
#N canvas 252 63 704 525 coloredNoise~ 0;
#X obj 348 22 noise~;
#X obj 36 120 lop~ 50;
#X obj 36 143 lop~ 50;
#X obj 36 166 lop~ 50;
#X obj 36 189 lop~ 50;
#X obj 101 122 hip~ 50;
#X obj 101 144 hip~ 50;
#X obj 101 166 hip~ 50;
#X obj 101 188 hip~ 50;
#X obj 101 210 lop~ 250;
#X obj 101 232 lop~ 250;
#X obj 101 254 lop~ 250;
#X obj 101 276 lop~ 250;
#X obj 172 123 hip~ 250;
#X obj 172 145 hip~ 250;
#X obj 172 167 hip~ 250;
#X obj 172 189 hip~ 250;
#X obj 172 211 lop~ 500;
#X obj 172 233 lop~ 500;
#X obj 172 255 lop~ 500;
#X obj 172 277 lop~ 500;
#X obj 264 122 hip~ 500;
#X obj 264 144 hip~ 500;
#X obj 264 166 hip~ 500;
#X obj 264 188 hip~ 500;
#X obj 264 210 lop~ 1000;
#X obj 264 232 lop~ 1000;
#X obj 264 254 lop~ 1000;
#X obj 264 276 lop~ 1000;
#X obj 346 119 hip~ 1000;
#X obj 346 141 hip~ 1000;
#X obj 346 163 hip~ 1000;
#X obj 346 185 hip~ 1000;
#X obj 346 207 lop~ 3000;
#X obj 346 229 lop~ 3000;
#X obj 346 251 lop~ 3000;
#X obj 346 273 lop~ 3000;
#X obj 426 119 hip~ 3000;
#X obj 426 142 hip~ 3000;
#X obj 426 165 hip~ 3000;
#X obj 426 188 hip~ 3000;
#X obj 426 211 lop~ 7000;
#X obj 426 234 lop~ 7000;
#X obj 426 257 lop~ 7000;
#X obj 426 280 lop~ 7000;
#X obj 506 118 hip~ 7000;
#X obj 506 141 hip~ 7000;
#X obj 506 164 hip~ 7000;
#X obj 506 187 hip~ 7000;
#X obj 506 210 lop~ 15000;
#X obj 506 233 lop~ 15000;
#X obj 506 256 lop~ 15000;
#X obj 506 279 lop~ 15000;
#X obj 599 116 hip~ 15000;
#X obj 599 139 hip~ 15000;
#X obj 599 162 hip~ 15000;
#X obj 599 185 hip~ 15000;
#X obj 599 208 lop~ 20000;
#X obj 599 231 lop~ 20000;
#X obj 599 254 lop~ 20000;
#X obj 599 277 lop~ 20000;
#X obj 344 426 *~ 0.5;
#X obj 35 373 *~;
#X obj 100 372 *~;
#X obj 173 371 *~;
#X obj 345 368 *~;
#X obj 263 370 *~;
#X obj 427 368 *~;
#X obj 507 367 *~;
#X obj 598 363 *~;
#X text 320 4 Noise colours;
#X obj 342 460 outlet~;
#X obj 613 321 *~ 0.001;
#X obj 51 320 *~ 0.2;
#X obj 190 320 *~ 0.2;
#X obj 116 320 *~ 0.15;
#X obj 279 320 *~ 0.1;
#X obj 522 320 *~ 0.001;
#X obj 360 320 *~ 0.03;
#X obj 442 320 *~ 0.004;
#X obj 281 61 inlet;
#X obj 52 61 inlet;
#X obj 122 61 inlet;
#X obj 191 61 inlet;
#X obj 365 61 inlet;
#X obj 444 61 inlet;
#X obj 525 61 inlet;
#X obj 621 61 inlet;
#X connect 0 0 1 0;
#X connect 0 0 5 0;
#X connect 0 0 13 0;
#X connect 0 0 21 0;
#X connect 0 0 29 0;
#X connect 0 0 37 0;
#X connect 0 0 45 0;
#X connect 0 0 53 0;
#X connect 1 0 2 0;
#X connect 2 0 3 0;
#X connect 3 0 4 0;
#X connect 4 0 62 0;
#X connect 5 0 6 0;
#X connect 6 0 7 0;
#X connect 7 0 8 0;
#X connect 8 0 9 0;
#X connect 9 0 10 0;
#X connect 10 0 11 0;
#X connect 11 0 12 0;
#X connect 12 0 63 0;
#X connect 13 0 14 0;
#X connect 14 0 15 0;
#X connect 15 0 16 0;
#X connect 16 0 17 0;
#X connect 17 0 18 0;
#X connect 18 0 19 0;
#X connect 19 0 20 0;
#X connect 20 0 64 0;
#X connect 21 0 22 0;
#X connect 22 0 23 0;
#X connect 23 0 24 0;
#X connect 24 0 25 0;
#X connect 25 0 26 0;
#X connect 26 0 27 0;
#X connect 27 0 28 0;
#X connect 28 0 66 0;
#X connect 29 0 30 0;
#X connect 30 0 31 0;
#X connect 31 0 32 0;
#X connect 32 0 33 0;
#X connect 33 0 34 0;
#X connect 34 0 35 0;
#X connect 35 0 36 0;
#X connect 36 0 65 0;
#X connect 37 0 38 0;
#X connect 38 0 39 0;
#X connect 39 0 40 0;
#X connect 40 0 41 0;
#X connect 41 0 42 0;
#X connect 42 0 43 0;
#X connect 43 0 44 0;
#X connect 44 0 67 0;
#X connect 45 0 46 0;
#X connect 46 0 47 0;
#X connect 47 0 48 0;
#X connect 48 0 49 0;
#X connect 49 0 50 0;
#X connect 50 0 51 0;
#X connect 51 0 52 0;
#X connect 52 0 68 0;
#X connect 53 0 54 0;
#X connect 54 0 55 0;
#X connect 55 0 56 0;
#X connect 56 0 57 0;
#X connect 57 0 58 0;
#X connect 58 0 59 0;
#X connect 59 0 60 0;
#X connect 60 0 69 0;
#X connect 61 0 71 0;
#X connect 62 0 61 0;
#X connect 63 0 61 0;
#X connect 64 0 61 0;
#X connect 65 0 61 0;
#X connect 66 0 61 0;
#X connect 67 0 61 0;
#X connect 68 0 61 0;
#X connect 69 0 61 0;
#X connect 72 0 69 1;
#X connect 73 0 62 1;
#X connect 74 0 64 1;
#X connect 75 0 63 1;
#X connect 76 0 66 1;
#X connect 77 0 68 1;
#X connect 78 0 65 1;
#X connect 79 0 67 1;
#X connect 80 0 76 0;
#X connect 81 0 73 0;
#X connect 82 0 75 0;
#X connect 83 0 74 0;
#X connect 84 0 78 0;
#X connect 85 0 79 0;
#X connect 86 0 77 0;
#X connect 87 0 72 0;
#X restore 115 266 pd coloredNoise~;
#X obj 235 286 cnv 15 52 22 empty empty empty 20 12 0 14 -24198 -66577
0;
#N canvas 353 174 321 152 ?... 0;
#X obj 8 84 cnv 15 300 56 empty empty empty 20 12 0 14 -224896 -66577
0;
#X obj 8 7 cnv 18 300 70 empty empty ARGOPdMiniModules 3 10 1 14 -4033
-1 1.04858e+06;
#X obj 31 27 cnv 10 10 10 empty empty Gerard 0 5 1 11 -4033 -1 1.04858e+06
;
#X obj 69 27 cnv 10 10 10 empty empty Paresys 0 5 1 11 -4033 -1 1.04858e+06
;
#X obj 12 40 pddp/pddplink http://gerard.paresys.free.fr/ARGOPd/;
#X obj 13 121 pddp/pddplink http://puredata.info/downloads/pd-extended
;
#X obj 13 97 pddp/pddplink http://puredata.info/downloads/pure-data
;
#X text 13 85 Construit sous / Build under Pd-0.49...;
#X text 12 109 or Pd 0.43.4-extended;
#X obj 12 53 pddp/pddplink https://paresys.pagesperso-orange.fr/ARGOPd/
;
#X restore 238 289 pd ?...;
#X text 174 83 23 8 2019;
#X connect 5 0 13 0;
#X connect 6 0 13 1;
#X connect 7 0 13 2;
#X connect 8 0 13 3;
#X connect 9 0 13 4;
#X connect 10 0 13 5;
#X connect 11 0 13 6;
#X connect 12 0 13 7;
#X connect 13 0 0 0;
#X coords 0 -1 1 1 133 154 1 100 100;
#X restore 147 32 pd ARGO;
#X text 287 45 Generates different colored noises.;
#X text 287 59 Taken from Andy Farnell's work.;
#X text 287 80 Génére divers bruits colorés;
#X text 288 91 Origine: PDMTL-coloredNoise;
#X obj 225 388 dac~ 1 2;
#X text 22 389 .wav file format recorder;
#X text 18 378 Enregistreur audio au format .wav;
#X text 40 227 Niveau general ->;
#X text 46 238 General level ->;
#X text 90 372 |;
#X text 90 367 ^;
#X obj 44 129 switch~;
#N canvas 608 166 228 173 ARGOnOff 0;
#X obj 100 100 tgl 18 1 \$0-SendOnOff \$0-ReceiveOnOff On/Off 20 11
1 14 -4033 -1 -1 1 1;
#X obj 99 10 loadbang;
#X msg 99 33 \; pd dsp 1;
#X obj 100 129 outlet;
#X text -50 99 Audio On/Off du patch ->;
#X text -22 45 Audio General On ->;
#X text 107 82 17 3 2010;
#X connect 0 0 3 0;
#X connect 1 0 2 0;
#X coords 0 -1 1 1 65 18 2 100 100;
#X restore 44 111 pd ARGOnOff;
#X text 49 95 V;
#X text 49 88 |;
#X text 37 77 On/Off Patch;
#X text 67 89 (Audio);
#N canvas 519 118 615 238 ARGO 0;
#X obj 88 36 inlet~;
#X text -270 51 L'extension .wav est ajoutée au nom du fichier automatiquement
;
#X obj 103 100 hsl 161 17 0 127 0 0 \$0-A \$0-B Record. 103 10 1 14
-261299 -261299 -1 0 1;
#X obj 101 101 cnv 4 10 4 empty empty empty 20 12 0 14 -1 -66577 0
;
#X obj 112 100 nbx 4 17 0 9999 0 0 \$0-A ColorTime sec 59 9 1 15 -208064
-1 -1 0 256;
#X text -271 87 Clic n'importe où pour commencer un enregistrement
Audio -> Clic encore pour arrêter l'enregistrement;
#X text -170 114 Click anywhere to start recording Audio ->;
#X text -171 126 Click again to stop recording;
#X text 121 122 Hslider caché transformé en bouton;
#N canvas 415 66 351 399 record2 0;
#X obj 136 95 sel 0 1;
#X msg 171 260 start;
#X msg 107 259 stop;
#X msg 155 150 open \$1;
#X obj 155 126 savepanel;
#X obj 165 203 delay 1000;
#X obj 245 323 float;
#X obj 291 322 + 1;
#X obj 223 295 metro 1000;
#X msg 291 296 -1;
#X msg 11 257 0;
#X msg 42 257 1;
#X obj 66 210 t b b;
#X obj 165 229 t b b b b;
#N canvas 317 143 290 366 CouleurRecord2 0;
#X obj 127 192 +;
#X obj 127 248 +;
#X obj 66 136 * -65536;
#X obj 122 136 * -256;
#X obj 168 134 * -1;
#X obj 127 279 - 1;
#X obj 120 9 inlet;
#X text 82 114 R;
#X text 128 112 G;
#X text 177 113 B;
#X obj 127 334 outlet;
#X text 175 42 Rouge;
#X msg 139 90 255;
#X msg 172 90 0;
#X obj 120 33 sel 0 1;
#X text 61 41 Rose;
#X msg 78 90 200;
#X msg 45 90 252;
#X obj 139 63 t b b b;
#X msg 203 90 0;
#X msg 109 90 200;
#X obj 45 63 t b b b;
#X msg 127 307 color \$1 \$1 -1;
#X connect 0 0 1 1;
#X connect 1 0 5 0;
#X connect 2 0 1 0;
#X connect 3 0 0 0;
#X connect 4 0 0 1;
#X connect 5 0 22 0;
#X connect 6 0 14 0;
#X connect 12 0 2 0;
#X connect 13 0 3 0;
#X connect 14 0 21 0;
#X connect 14 1 18 0;
#X connect 16 0 3 0;
#X connect 17 0 2 0;
#X connect 18 0 12 0;
#X connect 18 1 13 0;
#X connect 18 2 19 0;
#X connect 19 0 4 0;
#X connect 20 0 4 0;
#X connect 21 0 17 0;
#X connect 21 1 16 0;
#X connect 21 2 20 0;
#X connect 22 0 10 0;
#X restore 25 326 pd CouleurRecord2;
#X obj 136 75 tgl 15 0 \$0-A \$0-B empty 19 9 1 12 -262144 -258113
-1 0 1;
#X obj 136 30 b;
#X obj 136 52 delay 200;
#X obj 136 8 inlet;
#X obj 25 356 outlet;
#X text 22 372 Couleur;
#X obj 291 356 outlet;
#X text 288 372 Compteur;
#X obj 155 356 outlet;
#X text 152 372 writesf;
#X obj 199 176 t b b;
#X msg 72 33 0;
#X obj 72 8 loadbang;
#X msg 260 124 set 0;
#X msg 261 173 set 1;
#X obj 261 149 b;
#X connect 0 0 12 0;
#X connect 0 1 4 0;
#X connect 0 1 28 0;
#X connect 1 0 23 0;
#X connect 2 0 8 0;
#X connect 2 0 23 0;
#X connect 3 0 23 0;
#X connect 3 0 25 0;
#X connect 4 0 3 0;
#X connect 4 0 30 0;
#X connect 5 0 13 0;
#X connect 6 0 7 0;
#X connect 7 0 6 1;
#X connect 7 0 21 0;
#X connect 8 0 6 0;
#X connect 9 0 7 0;
#X connect 10 0 14 0;
#X connect 11 0 14 0;
#X connect 12 0 10 0;
#X connect 12 1 2 0;
#X connect 13 0 11 0;
#X connect 13 1 1 0;
#X connect 13 2 8 0;
#X connect 13 3 9 0;
#X connect 14 0 19 0;
#X connect 15 0 0 0;
#X connect 16 0 17 0;
#X connect 17 0 15 0;
#X connect 18 0 16 0;
#X connect 25 0 5 0;
#X connect 25 1 9 0;
#X connect 26 0 15 0;
#X connect 27 0 26 0;
#X connect 28 0 15 0;
#X connect 29 0 15 0;
#X connect 30 0 29 0;
#X restore 56 147 pd record2;
#X text 91 19 Input;
#X text -271 34 Enregistreur de fichier audio wav à 1 canal (mono)
;
#X text -271 19 Mono wav file format recorder;
#X obj 171 198 writesf~ 1;
#X text 160 81 28 2 2016;
#X obj 272 182 cnv 15 54 25 empty empty empty 20 12 0 14 -24198 -66577
0;
#N canvas 336 174 313 131 ???? 0;
#X obj 3 83 cnv 15 300 38 empty empty empty 20 12 0 14 -224896 -66577
0;
#X obj 3 6 cnv 18 300 70 empty empty ARGOPdMiniModules 3 10 1 14 -4033
-1 1.04858e+06;
#X obj 26 26 cnv 10 10 10 empty empty Gerard 0 5 1 11 -4033 -1 1.04858e+06
;
#X obj 64 26 cnv 10 10 10 empty empty Paresys 0 5 1 11 -4033 -1 1.04858e+06
;
#X obj 7 37 pddp/pddplink http://gerard.paresys.free.fr/ARGOPd/;
#X text 8 85 Construit sous / Build under Pd 0.43.4-extended;
#X obj 17 100 pddp/pddplink http://puredata.info/downloads/pd-extended
;
#X obj 7 50 pddp/pddplink http://paresys.pagesperso-orange.fr/ARGOPd/
;
#X restore 276 186 pd ????;
#X connect 0 0 13 0;
#X connect 2 0 9 0;
#X connect 9 0 2 0;
#X connect 9 1 13 0;
#X connect 9 2 4 0;
#X coords 0 -1 1 1 166 17 1 100 100;
#X restore 26 353 pd ARGO;
#N canvas 175 68 374 396 ARGO 0;
#X obj 101 101 cnv 20 116 34 empty ColorAmpli empty 20 12 0 14 -261299
-1 1.04858e+06;
#X obj 85 353 outlet~;
#X obj 157 104 cnv 10 20 10 empty ColorAmpli Ampli. 1 5 1 14 -261299
-1 1.04858e+06;
#X obj 85 43 inlet~;
#X obj 85 330 *~;
#X obj 115 118 hsl 101 12 -80 20 0 1 \$0-A ColorAmpli 0dB 0 7 1 9 -261299
-1 -1 8000 0;
#X obj 101 101 cnv 4 10 4 empty empty empty 20 12 0 14 -1 -66577 0
;
#X obj 101 131 cnv 4 10 4 empty empty empty 20 12 0 14 -1 -66577 0
;
#X msg -42 139 label \$1;
#X text 148 194 -> 0.0001..10 = -80dB..20dB;
#X obj 142 175 expr (pow(10 \, $f1 / 20));
#X obj 142 215 sel 0.0001;
#X msg 100 244 0;
#X obj 100 118 tgl 12 1 \$0-A \$0-B Mute 2 -5 1 9 -261299 -1 -1 0 1
;
#X obj 99 146 select 0 1;
#X obj 140 295 line~;
#X obj 140 275 pack 0 10;
#X msg 123 74 set 0;
#X obj -42 93 cyclone/sprintf %ddB;
#X obj -42 116 cyclone/tosymbol;
#X obj 261 342 cnv 15 42 25 empty empty empty 20 12 0 14 -24198 -66577
0;
#N canvas 336 174 309 137 ?. 0;
#X obj 3 83 cnv 15 300 46 empty empty empty 20 12 0 14 -224896 -66577
0;
#X obj 3 6 cnv 18 300 70 empty empty ARGOPdMiniModules 3 10 1 14 -4033
-1 1.04858e+06;
#X obj 26 26 cnv 10 10 10 empty empty Gerard 0 5 1 11 -4033 -1 1.04858e+06
;
#X obj 64 26 cnv 10 10 10 empty empty Paresys 0 5 1 11 -4033 -1 1.04858e+06
;
#X obj 7 37 pddp/pddplink http://gerard.paresys.free.fr/ARGOPd/;
#X text 8 85 Construit sous / Build under Pd 0.43.4-extended;
#X obj 8 111 pddp/pddplink http://puredata.info/downloads/pd-extended
;
#X obj 7 50 pddp/pddplink http://paresys.pagesperso-orange.fr/ARGOPd/
;
#X text 7 98 or Pd-0.46-7 + deken;
#X restore 265 346 pd ?.;
#X text 228 110 17 3 2016;
#X connect 3 0 4 0;
#X connect 4 0 1 0;
#X connect 5 0 10 0;
#X connect 5 0 18 0;
#X connect 8 0 5 0;
#X connect 10 0 11 0;
#X connect 11 0 12 0;
#X connect 11 1 16 0;
#X connect 11 1 17 0;
#X connect 12 0 16 0;
#X connect 12 0 19 0;
#X connect 13 0 14 0;
#X connect 14 0 5 0;
#X connect 14 1 12 0;
#X connect 15 0 4 1;
#X connect 16 0 15 0;
#X connect 17 0 13 0;
#X connect 18 0 19 0;
#X connect 19 0 8 0;
#X coords 0 -1 1 1 118 36 1 100 100;
#X restore 147 216 pd ARGO;
#X obj 327 384 cnv 15 52 22 empty empty empty 20 12 0 14 -24198 -66577
0;
#N canvas 432 42 236 269 ARGO 0;
#X obj 101 104 cnv 30 37 130 empty ColorAmpli empty 20 12 0 14 -1 -258113
0;
#X obj 101 110 vu 8 120 \$0-B empty 0 0 1 11 -1 -4034 1 0;
#X obj 74 34 inlet~;
#X obj 10 33 cnv 15 60 30 empty empty empty 20 12 0 14 -24198 -66577
0;
#N canvas 300 65 442 264 Help 0;
#X obj 12 48 cnv 15 400 150 empty empty empty 20 12 0 14 -233017 -66577
0;
#X text 16 50 Citation;
#X text 28 67 peakamp~ tracks and outputs the absolute value of the
peak amplitude of the incoming signal. It outputs when banged or using
its own internal clock. The peak value is reset each time peakamp~
outputs a value.;
#X text 29 123 cyclone library;
#X text 28 135 http://suita.chopin.edu.pl/~czaja/miXed/externs/cyclone.html
;
#X text 29 155 Voir doc Max/MSP MSP46ReferenceManual.pdf;
#X text 18 14 MM-Vumetre;
#X restore 17 39 pd Help;
#N canvas 541 112 317 265 VuMetre 0;
#X obj 48 19 inlet~;
#X obj 41 54 *~;
#X obj -25 132 snapshot~;
#X obj -25 155 sqrt;
#X obj -25 100 lop~ 10;
#X obj -25 179 rmstodb;
#X obj -88 19 loadbang;
#X obj -25 202 - 100;
#X obj 58 156 sqrt;
#X obj 58 180 rmstodb;
#X obj 58 203 - 100;
#X obj -89 102 metro 200;
#X obj -28 19 r SendFluid;
#X obj 58 102 cyclone/peakamp~ 1000;
#X obj -25 228 outlet;
#X obj 58 227 outlet;
#X connect 0 0 1 0;
#X connect 0 0 1 1;
#X connect 1 0 4 0;
#X connect 1 0 13 0;
#X connect 2 0 3 0;
#X connect 3 0 5 0;
#X connect 4 0 2 0;
#X connect 5 0 7 0;
#X connect 6 0 11 0;
#X connect 7 0 14 0;
#X connect 8 0 9 0;
#X connect 9 0 10 0;
#X connect 10 0 15 0;
#X connect 11 0 2 0;
#X connect 12 0 11 1;
#X connect 13 0 8 0;
#X restore 74 59 pd VuMetre;
#X obj 172 211 cnv 15 42 25 empty empty empty 20 12 0 14 -24198 -66577
0;
#N canvas 336 174 309 137 ?. 0;
#X obj 3 83 cnv 15 300 46 empty empty empty 20 12 0 14 -224896 -66577
0;
#X obj 3 6 cnv 18 300 70 empty empty ARGOPdMiniModules 3 10 1 14 -4033
-1 1.04858e+06;
#X obj 26 26 cnv 10 10 10 empty empty Gerard 0 5 1 11 -4033 -1 1.04858e+06
;
#X obj 64 26 cnv 10 10 10 empty empty Paresys 0 5 1 11 -4033 -1 1.04858e+06
;
#X obj 7 37 pddp/pddplink http://gerard.paresys.free.fr/ARGOPd/;
#X text 8 85 Construit sous / Build under Pd 0.43.4-extended;
#X obj 8 111 pddp/pddplink http://puredata.info/downloads/pd-extended
;
#X obj 7 50 pddp/pddplink http://paresys.pagesperso-orange.fr/ARGOPd/
;
#X text 7 98 or Pd-0.46-7 + deken;
#X restore 176 215 pd ?.;
#X text 127 87 3 3 2019;
#X connect 2 0 5 0;
#X connect 5 0 1 0;
#X connect 5 1 1 1;
#X coords 0 -1 1 1 39 135 2 100 100;
#X restore 283 270 pd ARGO;
#N canvas 353 174 321 152 ?... 0;
#X obj 8 84 cnv 15 300 56 empty empty empty 20 12 0 14 -224896 -66577
0;
#X obj 8 7 cnv 18 300 70 empty empty ARGOPdMiniModules 3 10 1 14 -4033
-1 1.04858e+06;
#X obj 31 27 cnv 10 10 10 empty empty Gerard 0 5 1 11 -4033 -1 1.04858e+06
;
#X obj 69 27 cnv 10 10 10 empty empty Paresys 0 5 1 11 -4033 -1 1.04858e+06
;
#X obj 12 40 pddp/pddplink http://gerard.paresys.free.fr/ARGOPd/;
#X obj 13 121 pddp/pddplink http://puredata.info/downloads/pd-extended
;
#X obj 13 97 pddp/pddplink http://puredata.info/downloads/pure-data
;
#X text 13 85 Construit sous / Build under Pd-0.49...;
#X text 12 109 or Pd 0.43.4-extended;
#X obj 12 53 pddp/pddplink https://paresys.pagesperso-orange.fr/ARGOPd/
;
#X restore 330 387 pd ?...;
#X connect 1 0 20 0;
#X connect 14 0 13 0;
#X connect 20 0 6 1;
#X connect 20 0 6 0;
#X connect 20 0 19 0;
#X connect 20 0 22 0;
