#N canvas 184 83 960 480 10;
#N canvas 322 133 641 404 update_table 0;
#X obj 312 75 + 1;
#X obj 220 125 i;
#X obj 312 99 mod;
#X msg 239 83 0;
#N canvas 240 302 883 212 update_point 0;
#X obj 17 14 inlet;
#X obj 424 14 inlet;
#X obj 17 178 outlet;
#X obj 424 178 outlet;
#X obj 17 118 +;
#X obj 17 142 expr if ($f1 > $f3 \, max($f2 \, 2*$f3-$f1) \, if ($f1
< $f2 \, min($f3 \, 2*$f2-$f1) \, $f1));
#X obj 424 142 expr if ($f1 > $f2 \, max(-$f2 \, 2*$f2-$f1) \, if ($f1
< -$f2 \, min($f2 \, -2*$f2-$f1) \, $f1));
#X obj 175 14 r \$0-mind;
#X obj 317 14 r \$0-maxd;
#X obj 736 14 r \$0-amplimit;
#X obj 180 118 f;
#X obj 344 118 f;
#X obj 153 47 t b f;
#X obj 317 47 t b f;
#X obj 17 44 t f b b b;
#X obj 736 44 t b f;
#X obj 424 44 t f b b;
#X obj 763 118 f;
#N canvas 143 224 450 300 loi 0;
#X obj 174 170 maxlib/cauchy;
#X obj 192 55 inlet;
#X obj 174 254 outlet;
#X obj 348 55 inlet;
#X text 354 38 Loi;
#X text 348 25 0 1 2;
#X text 195 33 Bang;
#X obj 348 83 + 1;
#X obj 281 55 inlet;
#X obj 249 123 / 10;
#X obj 266 216 -;
#X obj 67 170 maxlib/gauss 1 0;
#X obj 347 123 * 2;
#X obj 266 170 markex/randomF;
#X obj 111 123 cyclone/gate 3;
#X connect 0 0 2 0;
#X connect 1 0 14 1;
#X connect 3 0 7 0;
#X connect 7 0 14 0;
#X connect 8 0 9 0;
#X connect 8 0 11 1;
#X connect 8 0 12 0;
#X connect 8 0 10 1;
#X connect 9 0 0 1;
#X connect 10 0 2 0;
#X connect 11 0 2 0;
#X connect 12 0 13 1;
#X connect 13 0 10 0;
#X connect 14 0 11 0;
#X connect 14 1 0 0;
#X connect 14 2 13 0;
#X restore 34 90 pd loi;
#X obj 381 14 inlet;
#X text 386 -4 Loi;
#N canvas 607 220 359 276 loi 0;
#X obj 127 156 maxlib/cauchy;
#X obj 144 41 inlet;
#X obj 127 240 outlet;
#X obj 301 41 inlet;
#X text 307 24 Loi;
#X text 301 11 0 1 2;
#X text 147 19 Bang;
#X obj 301 69 + 1;
#X obj 234 41 inlet;
#X obj 202 109 / 10;
#X obj 219 202 -;
#X obj 20 156 maxlib/gauss 1 0;
#X obj 300 109 * 2;
#X obj 219 156 markex/randomF;
#X obj 64 109 cyclone/gate 3;
#X connect 0 0 2 0;
#X connect 1 0 14 1;
#X connect 3 0 7 0;
#X connect 7 0 14 0;
#X connect 8 0 9 0;
#X connect 8 0 11 1;
#X connect 8 0 12 0;
#X connect 8 0 10 1;
#X connect 9 0 0 1;
#X connect 10 0 2 0;
#X connect 11 0 2 0;
#X connect 12 0 13 1;
#X connect 13 0 10 0;
#X connect 14 0 11 0;
#X connect 14 1 0 0;
#X connect 14 2 13 0;
#X restore 443 89 pd loi;
#X obj 90 14 r \$0-drnd;
#X obj 502 14 r \$0-amprnd;
#X obj 424 118 + 0;
#X connect 0 0 14 0;
#X connect 1 0 16 0;
#X connect 4 0 5 0;
#X connect 5 0 2 0;
#X connect 6 0 3 0;
#X connect 7 0 12 0;
#X connect 8 0 13 0;
#X connect 9 0 15 0;
#X connect 10 0 5 1;
#X connect 11 0 5 2;
#X connect 12 0 5 0;
#X connect 12 1 10 0;
#X connect 13 0 5 0;
#X connect 13 1 11 0;
#X connect 14 0 4 0;
#X connect 14 1 18 0;
#X connect 14 2 10 0;
#X connect 14 3 11 0;
#X connect 15 1 17 0;
#X connect 16 0 24 0;
#X connect 16 1 21 0;
#X connect 16 2 17 0;
#X connect 17 0 6 1;
#X connect 18 0 4 1;
#X connect 19 0 18 2;
#X connect 19 0 21 2;
#X connect 21 0 24 1;
#X connect 22 0 18 1;
#X connect 23 0 21 1;
#X connect 24 0 6 0;
#X restore 421 205 pd update_point;
#X obj 220 22 inlet;
#X obj 94 221 sel 1;
#X text 174 302 linear interpolation between breakpoints;
#X text 265 55 initialize and start the loop iterating thorugh breakpoints
;
#X obj 14 22 bang~;
#X obj 14 117 t b b;
#X obj 119 71 samplerate~;
#X obj 47 176 del;
#X obj 14 176 bang;
#X msg 119 93 1000 \$1;
#X obj 13 370 outlet~;
#X obj 41 145 f;
#X obj 220 154 tabread \$0-bpd;
#X obj 316 154 tabread \$0-bpa;
#X obj 414 154 tabread \$0-bpa;
#X obj 510 370 tabwrite \$0-bpa;
#X obj 401 370 tabwrite \$0-bpd;
#X obj 47 212 spigot;
#X obj 14 90 spigot;
#X obj 64 280 max 1;
#X obj 80 46 t f f b;
#X obj 521 22 inlet;
#X text 527 6 Loi;
#X obj 457 22 inlet;
#X text 455 6 Freeze;
#X obj 457 228 == 0;
#X obj 13 303 expr $f3+$f1*($f4-$f3)/$f2;
#X obj 119 115 / 1;
#X obj 13 325 ggee/serialize 64;
#X obj 13 347 zexy/unpack~;
#X obj 401 253 spigot;
#X obj 510 253 spigot;
#X text 198 6 Breakpoints;
#X obj 13 253 cyclone/counter;
#X obj 220 54 t b b a;
#X obj 80 22 inlet;
#X text 78 6 start;
#X connect 0 0 2 0;
#X connect 1 0 0 0;
#X connect 1 0 17 0;
#X connect 1 0 18 0;
#X connect 1 0 21 1;
#X connect 1 0 20 1;
#X connect 2 0 1 1;
#X connect 2 0 19 0;
#X connect 3 0 1 0;
#X connect 4 0 35 0;
#X connect 4 1 36 0;
#X connect 5 0 39 0;
#X connect 6 0 1 0;
#X connect 6 0 38 2;
#X connect 9 0 23 0;
#X connect 10 0 13 0;
#X connect 10 1 16 0;
#X connect 11 0 14 0;
#X connect 12 0 22 0;
#X connect 13 0 12 0;
#X connect 13 0 38 0;
#X connect 14 0 32 0;
#X connect 16 0 12 1;
#X connect 17 0 4 0;
#X connect 17 0 24 0;
#X connect 17 0 38 4;
#X connect 18 0 4 2;
#X connect 18 0 31 2;
#X connect 19 0 31 3;
#X connect 22 0 13 0;
#X connect 23 0 10 0;
#X connect 24 0 31 1;
#X connect 25 0 22 1;
#X connect 25 1 23 1;
#X connect 25 2 11 0;
#X connect 26 0 4 1;
#X connect 28 0 30 0;
#X connect 30 0 35 1;
#X connect 30 0 36 1;
#X connect 31 0 33 0;
#X connect 32 0 16 0;
#X connect 33 0 34 0;
#X connect 34 0 15 0;
#X connect 35 0 21 0;
#X connect 36 0 20 0;
#X connect 38 0 31 0;
#X connect 38 2 6 0;
#X connect 39 0 1 0;
#X connect 39 1 3 0;
#X connect 39 2 2 1;
#X connect 40 0 25 0;
#X restore 53 250 pd update_table;
#X text 264 240 Amplitudes;
#X text 263 264 Durations;
#X obj 82 24 inlet;
#X obj 53 311 outlet~;
#X obj 82 118 int;
#X obj 354 24 inlet;
#X obj 412 24 inlet;
#X obj 633 173 clip 0 1;
#X obj 633 24 inlet;
#X obj 726 24 inlet;
#X obj 810 24 inlet;
#X text 624 7 Amp. limit;
#X text 346 7 Duration boundries;
#X text 714 7 Random walk parameters;
#X obj 354 311 s \$0-mind;
#X obj 567 311 s \$0-maxd;
#X obj 633 311 s \$0-amplimit;
#X obj 183 240 table \$0-bpa;
#X obj 183 263 table \$0-bpd;
#X obj 134 24 r \$0-mind;
#X obj 195 24 r \$0-maxd;
#X obj 726 311 s \$0-amprnd;
#X obj 810 311 s \$0-drnd;
#X obj 810 115 clip 0 4;
#X obj 726 256 *;
#X obj 567 280 min 300;
#X obj 82 146 clip 2 20;
#X obj 12 88 t f b;
#X obj 354 111 expr max($f1 \, $f2) \; min($f1 \, $f2);
#X obj 82 174 t f f;
#X obj 726 173 clip 0 2;
#X obj 726 209 / 4;
#X obj 810 256 expr $f1*($f2-$f3)/4;
#X text 156 428 Gordan Krekovic \, 2013;
#X obj 412 87 t b f;
#X obj 465 196 t b f;
#X obj 354 196 t b f;
#X obj 900 171 t b f;
#X obj 841 171 t b f;
#X obj 673 209 t b f;
#X obj 309 26 inlet;
#X text 312 9 Loi;
#X text 157 339 "This is a straightforward im-plementation of the basic
DSS algorithm. It was named gendyn~ after the original program by Xenakis.
The purpose of the patch is to synthesize audio signal accordingly
to input parameters. Through the inlets it receives the number of breakpoints
in a waveform n \, frequency limits fmin and fmax \, amplitude range
a \, and statistical parameters for the both random walks p1 and p2."
;
#X text 656 386 p1 -> v_step;
#X text 656 402 p2 -> h_step;
#X text 655 371 a -> v;
#X text 668 355 MODIF:;
#X obj 12 24 loadbang;
#X msg 12 66 1;
#X obj 265 26 inlet;
#X text 263 9 Freeze;
#X obj 12 45 delay 500;
#X text 69 7 Breakpoints;
#N canvas 383 186 436 251 init_tables 0;
#X obj 153 148 i;
#X obj 187 148 + 1;
#X msg 155 51 0;
#X obj 43 51 until;
#X obj 369 148 + 1;
#X obj 225 50 until;
#X obj 317 113 -;
#X obj 224 180 +;
#X obj 331 148 i;
#X obj 155 10 inlet;
#X obj 363 10 inlet;
#X obj 299 10 inlet;
#X obj 43 180 expr $f1*2-1;
#X obj 43 213 tabwrite \$0-bpa;
#X obj 224 213 tabwrite \$0-bpd;
#X obj 307 89 f;
#X obj 357 89 f;
#X obj 43 148 markex/randomF 1;
#X obj 224 148 markex/randomF 1;
#X connect 0 0 1 0;
#X connect 0 0 13 1;
#X connect 1 0 0 1;
#X connect 2 0 0 0;
#X connect 2 0 8 0;
#X connect 3 0 0 0;
#X connect 3 0 17 0;
#X connect 4 0 8 1;
#X connect 5 0 8 0;
#X connect 5 0 15 0;
#X connect 5 0 16 0;
#X connect 5 0 18 0;
#X connect 6 0 18 1;
#X connect 7 0 14 0;
#X connect 8 0 4 0;
#X connect 8 0 14 1;
#X connect 9 0 3 0;
#X connect 9 0 2 0;
#X connect 9 0 5 0;
#X connect 10 0 15 0;
#X connect 11 0 16 0;
#X connect 12 0 13 0;
#X connect 15 0 6 0;
#X connect 16 0 6 1;
#X connect 16 0 7 1;
#X connect 17 0 12 0;
#X connect 18 0 7 0;
#X restore 109 200 pd init_tables;
#X obj 354 280 max 0;
#X text 751 369 v Vertical;
#X text 751 403 h Honrizontal;
#X obj 354 228 expr if ($f1 > 0 \, 44100/max($f2 \, 10)/$f1 \, 2) \;
if ($f1 > 0 \, 44100/max($f3 \, 10)/$f1 \, 300);
#X obj 53 280 lop~ 15000;
#X connect 0 0 59 0;
#X connect 3 0 5 0;
#X connect 5 0 27 0;
#X connect 6 0 29 0;
#X connect 7 0 35 0;
#X connect 8 0 17 0;
#X connect 8 0 40 0;
#X connect 9 0 8 0;
#X connect 10 0 31 0;
#X connect 11 0 24 0;
#X connect 20 0 54 1;
#X connect 20 0 38 0;
#X connect 21 0 54 2;
#X connect 21 0 39 0;
#X connect 24 0 33 0;
#X connect 25 0 22 0;
#X connect 26 0 16 0;
#X connect 27 0 30 0;
#X connect 27 0 58 0;
#X connect 28 0 0 0;
#X connect 28 1 5 0;
#X connect 29 0 37 0;
#X connect 29 1 36 0;
#X connect 30 0 0 1;
#X connect 30 1 54 0;
#X connect 31 0 32 0;
#X connect 32 0 25 0;
#X connect 33 0 23 0;
#X connect 35 0 29 0;
#X connect 35 1 29 1;
#X connect 36 0 58 0;
#X connect 36 1 58 2;
#X connect 37 0 58 0;
#X connect 37 1 58 1;
#X connect 38 0 33 0;
#X connect 38 1 33 2;
#X connect 39 0 33 0;
#X connect 39 1 33 1;
#X connect 40 0 25 0;
#X connect 40 1 25 1;
#X connect 41 0 0 3;
#X connect 48 0 52 0;
#X connect 49 0 28 0;
#X connect 50 0 0 2;
#X connect 52 0 49 0;
#X connect 55 0 15 0;
#X connect 58 0 55 0;
#X connect 58 1 26 0;
#X connect 59 0 4 0;
