#N canvas 279 23 605 279 10;
#X text 277 68 Pulse width;
#X text 281 79 modulation;
#X obj 6 7 cnv 15 15 15 empty empty ExMM8d-Oscill-Pulse.pd 0 8 1 14
-262144 -1 0;
#X obj 91 250 dac~ 1 2;
#X text 11 212 General level ->;
#X text 5 201 Niveau général ->;
#N canvas 355 145 366 204 ARGO 0;
#X obj 92 143 osc~;
#X obj 101 101 cnv 20 244 34 empty ColorTime Oscill-Sinus. 165 8 1
14 -208064 -1 1.04858e+06;
#X obj 92 168 outlet~;
#X obj 100 106 nbx 7 12 0 20000 0 1 \$0-A ColorTime Hz 60 7 1 9 -208064
-1 -1 0.5 256;
#X obj 87 26 inlet~;
#X obj 101 131 cnv 4 10 4 empty empty empty 20 12 0 14 -1 -66577 0
;
#X obj 101 101 cnv 4 10 4 empty empty empty 20 12 0 14 -1728 -66577
0;
#X obj 103 118 hsl 241 12 0 1 0 0 \$0-A ColorTime empty 0 7 1 9 -262144
-1 -1 5962 0;
#X obj 103 118 hsl 241 12 0 1 0 0 \$0-A ColorTime C-6 0 7 1 9 -208064
-1728 -1 5962 0;
#X text 155 147 2 HSLIDER superposés;
#X text 154 136 ATTENTION;
#X obj 197 52 cnv 15 60 30 empty empty empty 20 12 0 14 -24198 -66577
0;
#N canvas 161 113 425 238 Help 0;
#X obj 8 85 cnv 15 400 100 empty empty empty 20 12 0 14 -233017 -66577
0;
#X text 12 87 Citation;
#X text 10 45 Sensibilitée de l'entrée de contrôle de la fréquence:
;
#X text 10 57 1 = 240 1/2 ton = 20 octaves;
#X text 11 19 Oscillateur sinusoïdal;
#X text 22 106 The osc~ object outputs a cosine wave. If no argument
is supplied \, the input is taken to be an audio signal.;
#X restore 204 58 pd Help;
#N canvas 86 284 344 337 Freq-v8-sig- 0;
#X obj 227 64 ftom;
#X obj 277 223 mtof;
#X obj 139 148 +~;
#X obj 7 195 snapshot~;
#X obj 7 217 change;
#X msg 7 242 set \$1;
#X obj 139 251 clip~ 0 20000;
#X obj 139 228 mtof~;
#X obj 139 280 outlet~;
#X obj 278 40 inlet;
#X obj 227 40 inlet;
#X obj 36 280 outlet;
#X obj 277 280 outlet;
#X text 33 298 Hslider;
#X obj 139 40 inlet~;
#X obj 6 40 loadbang;
#X obj 227 280 outlet;
#X obj 277 162 * 240;
#X obj 277 185 - 108;
#X obj 139 176 *~ 240;
#X obj 139 198 -~ 108;
#X obj 227 87 + 108;
#X obj 227 109 / 240;
#X obj 7 93 metro 200;
#X obj 62 40 r SendFluid;
#X text 42 309 Over;
#X text 279 298 Number;
#X text 224 23 Number;
#X text 226 297 Hslider;
#X text 228 308 Under;
#X text 279 10 Hslider;
#X text 284 21 Under;
#X msg 227 250 set \$1;
#N canvas 220 243 583 317 pitchb-11-2010 0;
#X obj 78 119 mod 12;
#X obj 78 143 sel 0 1 2 3 4 5 6 7 8 9 10 11;
#X msg 254 178 A;
#X msg 308 178 B;
#X msg 200 178 G;
#X msg 11 178 C;
#X msg 65 178 D;
#X msg 119 178 E;
#X msg 146 178 F;
#X obj 212 9 inlet;
#X obj 385 123 div 12;
#X obj 212 87 t f f;
#X text 394 215 -> Numero de l'octave;
#X text 221 72 -> Numero MIDI de la note (69 = A3 = 440Hz);
#X msg 268 268 label \$1;
#X obj 268 291 outlet;
#X msg 38 178 Db;
#X msg 92 178 Eb;
#X msg 173 178 Gb;
#X msg 227 178 Ab;
#X msg 281 178 Bb;
#X text 377 86 (70 = A#3 = Bb3);
#X obj 268 246 symbol;
#X text 19 239 Impossible d'afficher # dans un label;
#X text 19 251 donc j'affiche b;
#X obj 212 59 int;
#X text 263 31 -> pour corriger certaines erreurs de calcul;
#X obj 385 152 - 12;
#X text 263 43 et le pb du passage a zero de mod 12;
#X obj 212 33 + 120.5;
#X obj 268 221 cyclone/sprintf %s%d;
#X connect 0 0 1 0;
#X connect 1 0 5 0;
#X connect 1 1 16 0;
#X connect 1 2 6 0;
#X connect 1 3 17 0;
#X connect 1 4 7 0;
#X connect 1 5 8 0;
#X connect 1 6 18 0;
#X connect 1 7 4 0;
#X connect 1 8 19 0;
#X connect 1 9 2 0;
#X connect 1 10 20 0;
#X connect 1 11 3 0;
#X connect 2 0 30 0;
#X connect 3 0 30 0;
#X connect 4 0 30 0;
#X connect 5 0 30 0;
#X connect 6 0 30 0;
#X connect 7 0 30 0;
#X connect 8 0 30 0;
#X connect 9 0 29 0;
#X connect 10 0 27 0;
#X connect 11 0 0 0;
#X connect 11 1 10 0;
#X connect 14 0 15 0;
#X connect 16 0 30 0;
#X connect 17 0 30 0;
#X connect 18 0 30 0;
#X connect 19 0 30 0;
#X connect 20 0 30 0;
#X connect 22 0 14 0;
#X connect 25 0 11 0;
#X connect 27 0 30 1;
#X connect 29 0 25 0;
#X connect 30 0 22 0;
#X restore 83 113 pd pitchb-11-2010;
#X connect 0 0 21 0;
#X connect 0 0 33 0;
#X connect 1 0 12 0;
#X connect 2 0 3 0;
#X connect 2 0 19 0;
#X connect 3 0 4 0;
#X connect 4 0 5 0;
#X connect 5 0 11 0;
#X connect 6 0 8 0;
#X connect 7 0 6 0;
#X connect 9 0 17 0;
#X connect 10 0 0 0;
#X connect 14 0 2 0;
#X connect 15 0 23 0;
#X connect 17 0 18 0;
#X connect 18 0 1 0;
#X connect 19 0 20 0;
#X connect 20 0 7 0;
#X connect 21 0 22 0;
#X connect 22 0 2 1;
#X connect 22 0 32 0;
#X connect 23 0 3 0;
#X connect 24 0 23 1;
#X connect 32 0 16 0;
#X connect 33 0 11 0;
#X restore 62 63 pd Freq-v8-sig-;
#X obj 304 162 cnv 15 42 25 empty empty empty 20 12 0 14 -24198 -66577
0;
#N canvas 336 174 309 137 ?. 0;
#X obj 3 83 cnv 15 300 46 empty empty empty 20 12 0 14 -224896 -66577
0;
#X obj 3 6 cnv 18 300 70 empty empty ARGOPdMiniModules 3 10 1 14 -4033
-1 1.04858e+06;
#X obj 26 26 cnv 10 10 10 empty empty Gerard 0 5 1 11 -4033 -1 1.04858e+06
;
#X obj 64 26 cnv 10 10 10 empty empty Paresys 0 5 1 11 -4033 -1 1.04858e+06
;
#X obj 7 37 pddp/pddplink http://gerard.paresys.free.fr/ARGOPd/;
#X text 8 85 Construit sous / Build under Pd 0.43.4-extended;
#X obj 8 111 pddp/pddplink http://puredata.info/downloads/pd-extended
;
#X obj 7 50 pddp/pddplink http://paresys.pagesperso-orange.fr/ARGOPd/
;
#X text 7 98 or Pd-0.46-7 + deken;
#X restore 308 166 pd ?.;
#X text 282 80 7 12 2017;
#X connect 0 0 2 0;
#X connect 3 0 13 1;
#X connect 4 0 13 0;
#X connect 7 0 13 2;
#X connect 13 0 8 0;
#X connect 13 1 0 0;
#X connect 13 2 7 0;
#X connect 13 3 3 0;
#X coords 0 -1 1 1 246 36 1 100 100;
#X restore 350 13 pd ARGO;
#N canvas 175 68 374 396 ARGO 0;
#X obj 101 101 cnv 20 116 34 empty ColorAmpli empty 20 12 0 14 -261299
-1 1.04858e+06;
#X obj 85 353 outlet~;
#X obj 157 104 cnv 10 20 10 empty ColorAmpli Ampli. 1 5 1 14 -261299
-1 1.04858e+06;
#X obj 85 43 inlet~;
#X obj 85 330 *~;
#X obj 115 118 hsl 101 12 -80 20 0 1 \$0-A ColorAmpli 2dB 0 7 1 9 -261299
-1 -1 8200 0;
#X obj 101 101 cnv 4 10 4 empty empty empty 20 12 0 14 -1 -66577 0
;
#X obj 101 131 cnv 4 10 4 empty empty empty 20 12 0 14 -1 -66577 0
;
#X msg -42 139 label \$1;
#X text 148 194 -> 0.0001..10 = -80dB..20dB;
#X obj 142 175 expr (pow(10 \, $f1 / 20));
#X obj 142 215 sel 0.0001;
#X msg 100 244 0;
#X obj 100 118 tgl 12 1 \$0-A \$0-B Mute 2 -5 1 9 -261299 -1 -1 0 1
;
#X obj 99 146 select 0 1;
#X obj 140 295 line~;
#X obj 140 275 pack 0 10;
#X msg 123 74 set 0;
#X obj -42 93 cyclone/sprintf %ddB;
#X obj -42 116 cyclone/tosymbol;
#X obj 261 342 cnv 15 42 25 empty empty empty 20 12 0 14 -24198 -66577
0;
#N canvas 336 174 309 137 ?. 0;
#X obj 3 83 cnv 15 300 46 empty empty empty 20 12 0 14 -224896 -66577
0;
#X obj 3 6 cnv 18 300 70 empty empty ARGOPdMiniModules 3 10 1 14 -4033
-1 1.04858e+06;
#X obj 26 26 cnv 10 10 10 empty empty Gerard 0 5 1 11 -4033 -1 1.04858e+06
;
#X obj 64 26 cnv 10 10 10 empty empty Paresys 0 5 1 11 -4033 -1 1.04858e+06
;
#X obj 7 37 pddp/pddplink http://gerard.paresys.free.fr/ARGOPd/;
#X text 8 85 Construit sous / Build under Pd 0.43.4-extended;
#X obj 8 111 pddp/pddplink http://puredata.info/downloads/pd-extended
;
#X obj 7 50 pddp/pddplink http://paresys.pagesperso-orange.fr/ARGOPd/
;
#X text 7 98 or Pd-0.46-7 + deken;
#X restore 265 346 pd ?.;
#X text 228 110 17 3 2016;
#X connect 3 0 4 0;
#X connect 4 0 1 0;
#X connect 5 0 10 0;
#X connect 5 0 18 0;
#X connect 8 0 5 0;
#X connect 10 0 11 0;
#X connect 11 0 12 0;
#X connect 11 1 16 0;
#X connect 11 1 17 0;
#X connect 12 0 16 0;
#X connect 12 0 19 0;
#X connect 13 0 14 0;
#X connect 14 0 5 0;
#X connect 14 1 12 0;
#X connect 15 0 4 1;
#X connect 16 0 15 0;
#X connect 17 0 13 0;
#X connect 18 0 19 0;
#X connect 19 0 8 0;
#X coords 0 -1 1 1 118 36 1 100 100;
#X restore 350 55 pd ARGO;
#N canvas 175 68 374 396 ARGO 0;
#X obj 101 101 cnv 20 116 34 empty ColorAmpli empty 20 12 0 14 -261299
-1 1.04858e+06;
#X obj 85 353 outlet~;
#X obj 157 104 cnv 10 20 10 empty ColorAmpli Ampli. 1 5 1 14 -261299
-1 1.04858e+06;
#X obj 85 43 inlet~;
#X obj 85 330 *~;
#X obj 115 118 hsl 101 12 -80 20 0 1 \$0-A ColorAmpli 0dB 0 7 1 9 -261299
-1 -1 8000 0;
#X obj 101 101 cnv 4 10 4 empty empty empty 20 12 0 14 -1 -66577 0
;
#X obj 101 131 cnv 4 10 4 empty empty empty 20 12 0 14 -1 -66577 0
;
#X msg -42 139 label \$1;
#X text 148 194 -> 0.0001..10 = -80dB..20dB;
#X obj 142 175 expr (pow(10 \, $f1 / 20));
#X obj 142 215 sel 0.0001;
#X msg 100 244 0;
#X obj 100 118 tgl 12 1 \$0-A \$0-B Mute 2 -5 1 9 -261299 -1 -1 0 1
;
#X obj 99 146 select 0 1;
#X obj 140 295 line~;
#X obj 140 275 pack 0 10;
#X msg 123 74 set 0;
#X obj -42 93 cyclone/sprintf %ddB;
#X obj -42 116 cyclone/tosymbol;
#X obj 261 342 cnv 15 42 25 empty empty empty 20 12 0 14 -24198 -66577
0;
#N canvas 336 174 309 137 ?. 0;
#X obj 3 83 cnv 15 300 46 empty empty empty 20 12 0 14 -224896 -66577
0;
#X obj 3 6 cnv 18 300 70 empty empty ARGOPdMiniModules 3 10 1 14 -4033
-1 1.04858e+06;
#X obj 26 26 cnv 10 10 10 empty empty Gerard 0 5 1 11 -4033 -1 1.04858e+06
;
#X obj 64 26 cnv 10 10 10 empty empty Paresys 0 5 1 11 -4033 -1 1.04858e+06
;
#X obj 7 37 pddp/pddplink http://gerard.paresys.free.fr/ARGOPd/;
#X text 8 85 Construit sous / Build under Pd 0.43.4-extended;
#X obj 8 111 pddp/pddplink http://puredata.info/downloads/pd-extended
;
#X obj 7 50 pddp/pddplink http://paresys.pagesperso-orange.fr/ARGOPd/
;
#X text 7 98 or Pd-0.46-7 + deken;
#X restore 265 346 pd ?.;
#X text 228 110 17 3 2016;
#X connect 3 0 4 0;
#X connect 4 0 1 0;
#X connect 5 0 10 0;
#X connect 5 0 18 0;
#X connect 8 0 5 0;
#X connect 10 0 11 0;
#X connect 11 0 12 0;
#X connect 11 1 16 0;
#X connect 11 1 17 0;
#X connect 12 0 16 0;
#X connect 12 0 19 0;
#X connect 13 0 14 0;
#X connect 14 0 5 0;
#X connect 14 1 12 0;
#X connect 15 0 4 1;
#X connect 16 0 15 0;
#X connect 17 0 13 0;
#X connect 18 0 19 0;
#X connect 19 0 8 0;
#X coords 0 -1 1 1 118 36 1 100 100;
#X restore 111 191 pd ARGO;
#X obj 24 96 switch~;
#N canvas 608 166 228 173 ARGOnOff 0;
#X obj 100 100 tgl 18 1 \$0-SendOnOff \$0-ReceiveOnOff On/Off 20 11
1 14 -4033 -1 -1 1 1;
#X obj 99 10 loadbang;
#X msg 99 33 \; pd dsp 1;
#X obj 100 129 outlet;
#X text -50 99 Audio On/Off du patch ->;
#X text -22 45 Audio General On ->;
#X text 107 82 17 3 2010;
#X connect 0 0 3 0;
#X connect 1 0 2 0;
#X coords 0 -1 1 1 65 18 2 100 100;
#X restore 24 78 pd ARGOnOff;
#X text 29 62 V;
#X text 29 55 |;
#X text 17 44 On/Off Patch;
#X text 47 56 (Audio);
#N canvas 321 138 483 243 ARGO 0;
#X obj 101 101 cnv 20 244 34 empty ColorTime empty 20 12 0 14 -208064
-1 1.04858e+06;
#X obj 92 212 outlet~;
#X obj 100 106 nbx 7 12 0 20000 0 1 \$0-A ColorTime Hz 60 7 1 9 -208064
-1 -1 2 256;
#X obj 177 105 cnv 10 65 10 empty ColorTime Oscill-Pulse. 1 5 1 14
-208064 -1 1.04858e+06;
#X obj 87 26 inlet~;
#X obj 101 131 cnv 4 10 4 empty empty empty 20 12 0 14 -1 -66577 0
;
#X obj 101 101 cnv 4 10 4 empty empty empty 20 12 0 14 -1728 -66577
0;
#X obj 103 118 hsl 241 12 0 1 0 0 \$0-A ColorTime empty 0 7 1 9 -262144
-1 -1 8362 0;
#X obj 103 118 hsl 241 12 0 1 0 0 \$0-A ColorTime B-5 0 7 1 9 -208064
-1728 -1 8362 0;
#X text 350 121 2 HSLIDER superposés;
#X text 349 110 ATTENTION;
#X obj 176 26 cnv 15 60 30 empty empty empty 20 12 0 14 -24198 -66577
0;
#N canvas 357 140 425 238 Help 0;
#X obj 9 114 cnv 15 400 100 empty empty empty 20 12 0 14 -233017 -66577
0;
#X text 13 116 Citation;
#X text 10 45 Sensibilitée de l'entrée de contrôle de la fréquence:
;
#X text 10 57 1 = 240 1/2 ton = 20 octaves;
#X text 11 19 Générateur d'impulsions controlées en largeur;
#X text 25 185 http://en.wikipedia.org/wiki/Pulse-width_modulation
;
#X text 24 172 for more info:;
#X text 11 93 Voir Browser... -> 5.reference/hcs/pwm~help.pd;
#X text 22 152 "after an idea from Roman Haefeli and Martin Peach"
;
#X text 24 132 pulse width modulation at audio rate;
#X restore 183 32 pd Help;
#N canvas 658 231 358 338 Freq-v7-sig- 0;
#X obj 238 60 ftom;
#X obj 288 219 mtof;
#X obj 150 144 +~;
#X obj 18 191 snapshot~;
#X obj 18 213 change;
#X msg 18 238 set \$1;
#X obj 151 247 clip~ 0 20000;
#X obj 151 224 mtof~;
#X obj 151 276 outlet~;
#X obj 288 40 inlet;
#X obj 237 40 inlet;
#X obj 47 276 outlet;
#X obj 288 276 outlet;
#X text 44 294 Hslider;
#X obj 150 40 inlet~;
#X obj 17 40 loadbang;
#X obj 238 276 outlet;
#X obj 288 158 * 240;
#X obj 288 181 - 108;
#X obj 150 172 *~ 240;
#X obj 150 194 -~ 108;
#X obj 238 83 + 108;
#X obj 238 105 / 240;
#X obj 18 89 metro 200;
#X obj 73 40 r SendFluid;
#N canvas 618 373 489 317 pitchb 0;
#X obj 70 111 mod 12;
#X obj 70 135 sel 0 1 2 3 4 5 6 7 8 9 10 11;
#X msg 246 170 A;
#X msg 300 170 B;
#X msg 192 170 G;
#X msg 3 170 C;
#X msg 57 170 D;
#X msg 111 170 E;
#X msg 138 170 F;
#X obj 204 1 inlet;
#X obj 377 117 div 12;
#X obj 204 79 t f f;
#X text 334 190 -> Numero de l'octave;
#X text 213 64 -> Numero MIDI de la note (69 = A3 = 440Hz);
#X msg 260 260 label \$1;
#X obj 260 283 outlet;
#X msg 30 170 Db;
#X msg 84 170 Eb;
#X msg 165 170 Gb;
#X msg 219 170 Ab;
#X msg 273 170 Bb;
#X text 369 78 (70 = A#3 = Bb3);
#X obj 260 238 symbol;
#X text 11 231 Impossible d'afficher # dans un label;
#X text 11 243 donc j'affiche b;
#X obj 204 51 int;
#X text 255 23 -> pour corriger certaines erreurs de calcul;
#X obj 204 25 + 120.1;
#X obj 377 146 - 12;
#X text 255 35 et le pb du passage a zero de mod 12;
#X obj 260 213 cyclone/sprintf %s%d;
#X connect 0 0 1 0;
#X connect 1 0 5 0;
#X connect 1 1 16 0;
#X connect 1 2 6 0;
#X connect 1 3 17 0;
#X connect 1 4 7 0;
#X connect 1 5 8 0;
#X connect 1 6 18 0;
#X connect 1 7 4 0;
#X connect 1 8 19 0;
#X connect 1 9 2 0;
#X connect 1 10 20 0;
#X connect 1 11 3 0;
#X connect 2 0 30 0;
#X connect 3 0 30 0;
#X connect 4 0 30 0;
#X connect 5 0 30 0;
#X connect 6 0 30 0;
#X connect 7 0 30 0;
#X connect 8 0 30 0;
#X connect 9 0 27 0;
#X connect 10 0 28 0;
#X connect 11 0 0 0;
#X connect 11 1 10 0;
#X connect 14 0 15 0;
#X connect 16 0 30 0;
#X connect 17 0 30 0;
#X connect 18 0 30 0;
#X connect 19 0 30 0;
#X connect 20 0 30 0;
#X connect 22 0 14 0;
#X connect 25 0 11 0;
#X connect 27 0 25 0;
#X connect 28 0 30 1;
#X connect 30 0 22 0;
#X restore 49 135 pd pitchb;
#X text 53 305 Over;
#X text 290 294 Number;
#X text 234 19 Number;
#X text 237 293 Hslider;
#X text 239 304 Under;
#X text 290 7 Hslider;
#X text 295 18 Under;
#X msg 238 246 set \$1;
#X connect 0 0 21 0;
#X connect 0 0 25 0;
#X connect 1 0 12 0;
#X connect 2 0 3 0;
#X connect 2 0 19 0;
#X connect 3 0 4 0;
#X connect 4 0 5 0;
#X connect 5 0 11 0;
#X connect 6 0 8 0;
#X connect 7 0 6 0;
#X connect 9 0 17 0;
#X connect 10 0 0 0;
#X connect 14 0 2 0;
#X connect 15 0 23 0;
#X connect 17 0 18 0;
#X connect 18 0 1 0;
#X connect 19 0 20 0;
#X connect 20 0 7 0;
#X connect 21 0 22 0;
#X connect 22 0 2 1;
#X connect 22 0 33 0;
#X connect 23 0 3 0;
#X connect 24 0 23 1;
#X connect 25 0 11 0;
#X connect 33 0 16 0;
#X restore 62 63 pd Freq-v7-sig-;
#X obj 92 155 phasor~;
#X obj 335 101 cnv 4 10 4 empty empty empty 20 12 0 14 -3522 -66577
0;
#X text 303 71 Pulse width;
#X text 307 82 modulation;
#X obj 263 106 hsl 81 12 -1 1 0 1 \$0-A ColorForm 86 0 7 1 9 -262144
-1 -1 6000 0;
#X obj 317 47 inlet~;
#X obj 263 106 hsl 81 12 -1 1 0 1 \$0-A ColorForm 50 0 7 1 9 -188398
-3522 -1 8000 0;
#N canvas 517 270 327 253 PWM~ 0;
#X msg 179 157 set \$1;
#X obj 26 56 +~;
#X obj 99 214 outlet;
#X obj 180 93 snapshot~;
#X obj 180 135 change;
#X obj 70 15 inlet;
#X obj 26 15 inlet~;
#X obj 26 214 outlet~;
#X msg 70 157 label \$1;
#X obj 70 113 * 100;
#X obj 180 15 loadbang;
#X obj 180 56 metro 200;
#X obj 237 15 r SendFluid;
#X obj 70 135 cyclone/tosymbol;
#X connect 0 0 2 0;
#X connect 1 0 3 0;
#X connect 1 0 7 0;
#X connect 3 0 4 0;
#X connect 4 0 0 0;
#X connect 5 0 1 1;
#X connect 5 0 9 0;
#X connect 6 0 1 0;
#X connect 8 0 2 0;
#X connect 9 0 13 0;
#X connect 10 0 11 0;
#X connect 11 0 3 0;
#X connect 12 0 11 1;
#X connect 13 0 8 0;
#X restore 315 151 pd PWM~;
#X obj 92 181 expr~ 2 * ((2 * $v1) < ($v2 + 1)) - 1;
#X obj 411 199 cnv 15 52 22 empty empty empty 20 12 0 14 -24198 -66577
0;
#N canvas 353 174 321 152 ?... 0;
#X obj 8 84 cnv 15 300 56 empty empty empty 20 12 0 14 -224896 -66577
0;
#X obj 8 7 cnv 18 300 70 empty empty ARGOPdMiniModules 3 10 1 14 -4033
-1 1.04858e+06;
#X obj 31 27 cnv 10 10 10 empty empty Gerard 0 5 1 11 -4033 -1 1.04858e+06
;
#X obj 69 27 cnv 10 10 10 empty empty Paresys 0 5 1 11 -4033 -1 1.04858e+06
;
#X obj 12 40 pddp/pddplink http://gerard.paresys.free.fr/ARGOPd/;
#X obj 13 121 pddp/pddplink http://puredata.info/downloads/pd-extended
;
#X obj 13 97 pddp/pddplink http://puredata.info/downloads/pure-data
;
#X text 13 85 Construit sous / Build under Pd-0.49...;
#X text 12 109 or Pd 0.43.4-extended;
#X obj 12 53 pddp/pddplink https://paresys.pagesperso-orange.fr/ARGOPd/
;
#X restore 414 202 pd ?...;
#X text 173 85 25 8 2019;
#X connect 2 0 13 1;
#X connect 4 0 13 0;
#X connect 7 0 13 2;
#X connect 13 0 8 0;
#X connect 13 1 14 0;
#X connect 13 2 7 0;
#X connect 13 3 2 0;
#X connect 14 0 22 0;
#X connect 18 0 21 1;
#X connect 19 0 21 0;
#X connect 21 0 22 1;
#X connect 21 1 20 0;
#X connect 22 0 1 0;
#X coords 0 -1 1 1 246 36 1 100 100;
#X restore 111 101 pd ARGO;
#N canvas 158 81 772 490 ARGO 0;
#X obj 360 103 cnv 10 20 10 empty empty Play. 1 5 1 14 -262144 -1 1.04858e+06
;
#X obj 101 129 cnv 4 10 4 empty empty empty 20 12 0 14 -1 -66577 0
;
#X obj 82 450 outlet~;
#X obj -13 64 openpanel;
#X msg 212 378 1;
#X msg 137 330 0;
#X msg 34 115 set \$1;
#X msg 58 379 open \$1;
#X obj 197 291 t b b;
#X msg 167 378 set 0;
#X obj 175 233 sel 1 0;
#X obj 246 258 sel 1;
#X msg 117 379 set 1;
#X obj 42 7 loadbang;
#X obj 168 410 readsf~ 2;
#X obj 151 101 tgl 12 1 \$0-A \$0-B Play 14 6 1 9 -262144 -1 -1 1 1
;
#X obj 311 101 bng 12 250 50 0 \$0-A \$0-B Stop 14 6 1 9 -262144 -1
-1;
#X obj 249 101 tgl 12 1 \$0-A \$0-B Loop 15 6 1 9 -262144 -1 -1 0 1
;
#X obj 100 101 bng 12 250 50 0 \$0-A \$0-B empty 14 6 1 9 -262144 -1
-1;
#X obj 196 330 delay 5;
#X obj 101 6 inlet~;
#X obj 101 58 threshold~ 0.5 5 0.49 5;
#X obj 101 100 cnv 2 10 4 empty empty empty 20 12 0 14 -1 -66577 0
;
#X obj 102 101 cnv 2 8 2 empty empty empty 20 12 0 14 -262144 -66577
0;
#X text 75 81 Trig Decl;
#X obj -13 42 bang;
#X text 433 91 <- Click the name to change;
#X obj 49 170 cnv 15 400 50 empty empty empty 20 12 0 14 -260097 -66577
0;
#X text 51 169 Nom du fichier / File name;
#X text 451 178 <- Ajouter ../ devant le nom du fichier \; pour remonter
d'un dossier;
#X obj 570 45 cnv 15 60 30 empty empty empty 20 12 0 14 -24198 -66577
0;
#N canvas 309 46 570 589 Help 0;
#X obj 9 -296 cnv 15 400 100 empty empty empty 20 12 0 14 -233017 -66577
0;
#X text 12 -297 Citation;
#X obj 8 -51 cnv 15 550 310 empty empty empty 20 12 0 14 -258113 -66577
0;
#X text 20 -44 - Ne lit pas un fichier au format mp3 \, SoundDesigner
II (.SDII ou .SD2);
#X text 23 56 Solution: ouvrir puis sauver le fichier au format aiff
avec Audacity;
#X text 36 43 error: dsp: xxx.aiff: unknown or bad header format;
#X text 31 -281 READSF~ - read a soundfile;
#X text 30 -263 The wave \, aiff \, and nextstep formats are parsed
automatically \, although only 2- 3- and 4- byte samples are accepted
(4 bytes implies floating point and is not available in aiff format.)
;
#X text 13 -189 - Si le Patch est sauvé avec 1 Player contenant un
nom de fichier Audio \, ce fichier sera lu automatiquement à la prochaine
ouverture s'il n'a pas changé d'emplacement.;
#X text 191 206 If the sample rate of pd is set to 44100 \, files having
the sample rates of 44100 are correctly played \, other files will
be transposed.;
#X text 193 179 WARNING The sample rate of the output depends on the
system sample rate of pd:;
#X text 21 95 - ATTENTION Le taux d'échantillonnage de la lecture du
fichier dépends du taux d'échantillonnage de Pd.;
#X text 33 122 Si le taux d'échantillonnage de Pd est de 44100 (Menu
Preferences -> Audio Settings...) \, les fichiers échantillonnés à
44100 Hz sont lus correctement \, sinon ils sont transposés.;
#X text 12 -143 - Peut Ouvrir automatiquement 1 fichier qui se trouve
dans le même dossier que lui \, quelquesoit l'emplacement du dossier.
Pour cela ouvrir le module et taper le nom du fichier (sans chemin
d'accés) dans le message. Le dossier contenant le patch et le fichier
Audio est ainsi transportable.;
#X text 21 4 - Ne lit pas un fichier au format aiff "Entier petit boutien"
comme les pistes d'un CD Audio copiées avec le finder du Mac. Le message
d'erreur s'affichent:;
#X text 8 -434 MM Audio-Play;
#X text 18 -404 Le canal 2 d'un fichier Audio Stereo est mélangé au
canal 1;
#X text 18 -390 Les canaux 3 \, 4... d'un fichier Audio de plus de
2 canaux ne sont pas lus.;
#X text 197 -328 Channels 3 \, 4... of an Audio file of more than 2
channels are not read.;
#X text 197 -342 Channel 2 of a Stereo Audio file is mixed with channel
1;
#X text 19 -418 Lit un fichier Audio Mono (1 canal) au format aiff
\, wav.;
#X text 198 -357 Reads a Mono Audio file (1 channel) with aiff \, wav
format..;
#X restore 577 51 pd Help;
#X obj 246 232 f;
#X obj 174 142 f;
#X obj -12 84 t b b s;
#X obj 383 434 cnv 15 240 24 empty empty empty 20 12 0 14 -261682 -66577
0;
#X text 433 432 -> Bang à la fin du fichier;
#X text 434 442 -> Bang at the end of the file;
#X obj 388 438 outlet;
#X obj 54 236 zexy/list2symbol;
#X obj 103 114 hsl 275 14 0 127 0 0 \$0-A \$0-B empty -2 -8 0 10 -262144
-262144 -1 0 1;
#X symbolatom 100 114 47 0 0 0 - - #0-A;
#X obj 380 116 bng 12 50 20 0 \$0-A \$0-B empty 14 6 1 9 -262144 -1
-1;
#X obj 381 129 cnv 4 10 4 empty empty empty 20 12 0 14 -260097 -66577
0;
#X obj 630 435 cnv 15 42 25 empty empty empty 20 12 0 14 -24198 -66577
0;
#N canvas 336 174 309 137 ?. 0;
#X obj 3 83 cnv 15 300 46 empty empty empty 20 12 0 14 -224896 -66577
0;
#X obj 3 6 cnv 18 300 70 empty empty ARGOPdMiniModules 3 10 1 14 -4033
-1 1.04858e+06;
#X obj 26 26 cnv 10 10 10 empty empty Gerard 0 5 1 11 -4033 -1 1.04858e+06
;
#X obj 64 26 cnv 10 10 10 empty empty Paresys 0 5 1 11 -4033 -1 1.04858e+06
;
#X obj 7 37 pddp/pddplink http://gerard.paresys.free.fr/ARGOPd/;
#X text 8 85 Construit sous / Build under Pd 0.43.4-extended;
#X obj 8 111 pddp/pddplink http://puredata.info/downloads/pd-extended
;
#X obj 7 50 pddp/pddplink http://paresys.pagesperso-orange.fr/ARGOPd/
;
#X text 7 98 or Pd-0.46-7 + deken;
#X restore 634 439 pd ?.;
#X text 340 83 7 12 2017;
#X msg 53 189 12.aiff;
#X connect 3 0 34 0;
#X connect 4 0 14 0;
#X connect 5 0 14 0;
#X connect 6 0 47 0;
#X connect 7 0 14 0;
#X connect 8 0 19 0;
#X connect 8 1 47 0;
#X connect 9 0 15 0;
#X connect 10 0 8 0;
#X connect 10 1 9 0;
#X connect 10 1 5 0;
#X connect 11 0 18 0;
#X connect 12 0 15 0;
#X connect 13 0 47 0;
#X connect 14 0 2 0;
#X connect 14 1 2 0;
#X connect 14 2 9 0;
#X connect 14 2 32 0;
#X connect 14 2 42 0;
#X connect 15 0 33 0;
#X connect 16 0 5 0;
#X connect 16 0 9 0;
#X connect 17 0 32 1;
#X connect 18 0 8 0;
#X connect 19 0 4 0;
#X connect 19 0 12 0;
#X connect 20 0 21 0;
#X connect 21 0 18 0;
#X connect 25 0 3 0;
#X connect 32 0 11 0;
#X connect 33 0 10 0;
#X connect 34 0 33 0;
#X connect 34 1 47 0;
#X connect 34 2 6 0;
#X connect 39 0 7 0;
#X connect 39 0 41 0;
#X connect 40 0 25 0;
#X connect 42 0 38 0;
#X connect 47 0 39 0;
#X coords 0 -1 1 1 292 34 2 100 100;
#X restore 111 149 pd ARGO;
#X obj 529 237 cnv 15 52 22 empty empty empty 20 12 0 14 -24198 -66577
0;
#N canvas 353 174 321 152 ?... 0;
#X obj 8 84 cnv 15 300 56 empty empty empty 20 12 0 14 -224896 -66577
0;
#X obj 8 7 cnv 18 300 70 empty empty ARGOPdMiniModules 3 10 1 14 -4033
-1 1.04858e+06;
#X obj 31 27 cnv 10 10 10 empty empty Gerard 0 5 1 11 -4033 -1 1.04858e+06
;
#X obj 69 27 cnv 10 10 10 empty empty Paresys 0 5 1 11 -4033 -1 1.04858e+06
;
#X obj 12 40 pddp/pddplink http://gerard.paresys.free.fr/ARGOPd/;
#X obj 13 121 pddp/pddplink http://puredata.info/downloads/pd-extended
;
#X obj 13 97 pddp/pddplink http://puredata.info/downloads/pure-data
;
#X text 13 85 Construit sous / Build under Pd-0.49...;
#X text 12 109 or Pd 0.43.4-extended;
#X obj 12 53 pddp/pddplink https://paresys.pagesperso-orange.fr/ARGOPd/
;
#X restore 532 240 pd ?...;
#X connect 6 0 7 0;
#X connect 7 0 15 1;
#X connect 8 0 3 1;
#X connect 8 0 3 0;
#X connect 10 0 9 0;
#X connect 15 0 16 0;
#X connect 16 0 8 0;
