#N canvas 522 23 669 646 10;
#N canvas 355 145 366 204 ARGO 0;
#X obj 92 143 osc~;
#X obj 101 101 cnv 20 244 34 empty ColorTime Oscill-Sinus. 155 8 1
14 -208064 -1 1.04858e+06;
#X obj 92 168 outlet~;
#X obj 100 106 nbx 7 12 0 20000 0 1 \$0-A ColorTime Hz 60 7 1 9 -208064
-1 -1 880 256;
#X obj 87 26 inlet~;
#X obj 101 131 cnv 4 10 4 empty empty empty 20 12 0 14 -1 -66577 0
;
#X obj 101 101 cnv 4 10 4 empty empty empty 20 12 0 14 -1728 -66577
0;
#X obj 103 118 hsl 241 12 0 1 0 0 \$0-A ColorTime empty 0 7 1 9 -262144
-1 -1 18900 0;
#X obj 103 118 hsl 241 12 0 1 0 0 \$0-A ColorTime A4 0 7 1 9 -208064
-1728 -1 18900 0;
#X text 155 147 2 HSLIDER superposés;
#X text 154 136 ATTENTION;
#X obj 197 52 cnv 15 60 30 empty empty empty 20 12 0 14 -24198 -66577
0;
#N canvas 161 113 425 238 Help 0;
#X obj 8 85 cnv 15 400 100 empty empty empty 20 12 0 14 -233017 -66577
0;
#X text 12 87 Citation;
#X text 10 45 Sensibilitée de l'entrée de contrôle de la fréquence:
;
#X text 10 57 1 = 240 1/2 ton = 20 octaves;
#X text 11 19 Oscillateur sinusoïdal;
#X text 22 106 The osc~ object outputs a cosine wave. If no argument
is supplied \, the input is taken to be an audio signal.;
#X restore 204 58 pd Help;
#N canvas 86 284 344 337 Freq-v8-sig- 0;
#X obj 227 64 ftom;
#X obj 277 223 mtof;
#X obj 139 148 +~;
#X obj 7 195 snapshot~;
#X obj 7 217 change;
#X msg 7 242 set \$1;
#X obj 139 251 clip~ 0 20000;
#X obj 139 228 mtof~;
#X obj 139 280 outlet~;
#X obj 278 40 inlet;
#X obj 227 40 inlet;
#X obj 36 280 outlet;
#X obj 277 280 outlet;
#X text 33 298 Hslider;
#X obj 139 40 inlet~;
#X obj 6 40 loadbang;
#X obj 227 280 outlet;
#X obj 277 162 * 240;
#X obj 277 185 - 108;
#X obj 139 176 *~ 240;
#X obj 139 198 -~ 108;
#X obj 227 87 + 108;
#X obj 227 109 / 240;
#X obj 7 93 metro 200;
#X obj 62 40 r SendFluid;
#X text 42 309 Over;
#X text 279 298 Number;
#X text 224 23 Number;
#X text 226 297 Hslider;
#X text 228 308 Under;
#X text 279 10 Hslider;
#X text 284 21 Under;
#X msg 227 250 set \$1;
#N canvas 220 243 583 317 pitchb-11-2010 0;
#X obj 78 119 mod 12;
#X obj 78 143 sel 0 1 2 3 4 5 6 7 8 9 10 11;
#X msg 254 178 A;
#X msg 308 178 B;
#X msg 200 178 G;
#X msg 11 178 C;
#X msg 65 178 D;
#X msg 119 178 E;
#X msg 146 178 F;
#X obj 212 9 inlet;
#X obj 385 123 div 12;
#X obj 212 87 t f f;
#X text 394 215 -> Numero de l'octave;
#X text 221 72 -> Numero MIDI de la note (69 = A3 = 440Hz);
#X msg 268 268 label \$1;
#X obj 268 291 outlet;
#X msg 38 178 Db;
#X msg 92 178 Eb;
#X msg 173 178 Gb;
#X msg 227 178 Ab;
#X msg 281 178 Bb;
#X text 377 86 (70 = A#3 = Bb3);
#X obj 268 246 symbol;
#X text 19 239 Impossible d'afficher # dans un label;
#X text 19 251 donc j'affiche b;
#X obj 212 59 int;
#X text 263 31 -> pour corriger certaines erreurs de calcul;
#X obj 385 152 - 12;
#X text 263 43 et le pb du passage a zero de mod 12;
#X obj 212 33 + 120.5;
#X obj 268 221 cyclone/sprintf %s%d;
#X connect 0 0 1 0;
#X connect 1 0 5 0;
#X connect 1 1 16 0;
#X connect 1 2 6 0;
#X connect 1 3 17 0;
#X connect 1 4 7 0;
#X connect 1 5 8 0;
#X connect 1 6 18 0;
#X connect 1 7 4 0;
#X connect 1 8 19 0;
#X connect 1 9 2 0;
#X connect 1 10 20 0;
#X connect 1 11 3 0;
#X connect 2 0 30 0;
#X connect 3 0 30 0;
#X connect 4 0 30 0;
#X connect 5 0 30 0;
#X connect 6 0 30 0;
#X connect 7 0 30 0;
#X connect 8 0 30 0;
#X connect 9 0 29 0;
#X connect 10 0 27 0;
#X connect 11 0 0 0;
#X connect 11 1 10 0;
#X connect 14 0 15 0;
#X connect 16 0 30 0;
#X connect 17 0 30 0;
#X connect 18 0 30 0;
#X connect 19 0 30 0;
#X connect 20 0 30 0;
#X connect 22 0 14 0;
#X connect 25 0 11 0;
#X connect 27 0 30 1;
#X connect 29 0 25 0;
#X connect 30 0 22 0;
#X restore 83 113 pd pitchb-11-2010;
#X connect 0 0 21 0;
#X connect 0 0 33 0;
#X connect 1 0 12 0;
#X connect 2 0 3 0;
#X connect 2 0 19 0;
#X connect 3 0 4 0;
#X connect 4 0 5 0;
#X connect 5 0 11 0;
#X connect 6 0 8 0;
#X connect 7 0 6 0;
#X connect 9 0 17 0;
#X connect 10 0 0 0;
#X connect 14 0 2 0;
#X connect 15 0 23 0;
#X connect 17 0 18 0;
#X connect 18 0 1 0;
#X connect 19 0 20 0;
#X connect 20 0 7 0;
#X connect 21 0 22 0;
#X connect 22 0 2 1;
#X connect 22 0 32 0;
#X connect 23 0 3 0;
#X connect 24 0 23 1;
#X connect 32 0 16 0;
#X connect 33 0 11 0;
#X restore 62 63 pd Freq-v8-sig-;
#X obj 304 162 cnv 15 42 25 empty empty empty 20 12 0 14 -24198 -66577
0;
#N canvas 336 174 309 137 ?. 0;
#X obj 3 83 cnv 15 300 46 empty empty empty 20 12 0 14 -224896 -66577
0;
#X obj 3 6 cnv 18 300 70 empty empty ARGOPdMiniModules 3 10 1 14 -4033
-1 1.04858e+06;
#X obj 26 26 cnv 10 10 10 empty empty Gerard 0 5 1 11 -4033 -1 1.04858e+06
;
#X obj 64 26 cnv 10 10 10 empty empty Paresys 0 5 1 11 -4033 -1 1.04858e+06
;
#X obj 7 37 pddp/pddplink http://gerard.paresys.free.fr/ARGOPd/;
#X text 8 85 Construit sous / Build under Pd 0.43.4-extended;
#X obj 8 111 pddp/pddplink http://puredata.info/downloads/pd-extended
;
#X obj 7 50 pddp/pddplink http://paresys.pagesperso-orange.fr/ARGOPd/
;
#X text 7 98 or Pd-0.46-7 + deken;
#X restore 308 166 pd ?.;
#X text 282 80 28 8 2019;
#X connect 0 0 2 0;
#X connect 3 0 13 1;
#X connect 4 0 13 0;
#X connect 7 0 13 2;
#X connect 13 0 8 0;
#X connect 13 1 0 0;
#X connect 13 2 7 0;
#X connect 13 3 3 0;
#X coords 0 -1 1 1 246 36 1 100 100;
#X restore 220 58 pd ARGO;
#X obj 242 606 dac~ 1 2;
#X obj 76 65 adc~ 1;
#X text 39 607 .wav file format recorder;
#X text 35 596 Enregistreur audio au format .wav;
#X text 7 445 Niveau general ->;
#X text 13 456 General level ->;
#X text 107 590 |;
#X text 107 585 ^;
#X text 126 60 <- Au choix ->;
#X text 132 72 <- Choose ->;
#X text 59 34 Entrée Audio;
#X text 59 46 Audio Input;
#X obj 29 341 switch~;
#N canvas 608 166 228 173 ARGOnOff 0;
#X obj 100 100 tgl 18 1 \$0-SendOnOff \$0-ReceiveOnOff On/Off 20 11
1 14 -4033 -1 -1 1 1;
#X obj 99 10 loadbang;
#X msg 99 33 \; pd dsp 1;
#X obj 100 129 outlet;
#X text -50 99 Audio On/Off du patch ->;
#X text -22 45 Audio General On ->;
#X text 107 82 17 3 2010;
#X connect 0 0 3 0;
#X connect 1 0 2 0;
#X coords 0 -1 1 1 65 18 2 100 100;
#X restore 29 323 pd ARGOnOff;
#X text 34 307 V;
#X text 34 300 |;
#X text 22 289 On/Off Patch;
#X text 52 301 (Audio);
#N canvas 551 114 361 348 ARGO 0;
#X obj 101 101 cnv 20 104 34 empty ColorAmpli empty 20 12 0 14 -261299
-1 1.04858e+06;
#X obj 110 306 outlet~;
#X obj 141 104 cnv 10 20 10 empty ColorAmpli Mix. 1 5 1 14 -261299
-1 1.04858e+06;
#X obj 86 75 inlet~;
#X obj 179 75 inlet~;
#X obj 86 272 *~;
#X obj 103 118 hsl 101 12 -1 1 0 1 \$0-A ColorAmpli 1 0 7 1 9 -261299
-1 -1 10000 0;
#X msg -18 132 label \$1;
#X obj 101 101 cnv 4 10 4 empty empty empty 20 12 0 14 -1 -66577 0
;
#X obj 101 131 cnv 4 10 4 empty empty empty 20 12 0 14 -1 -66577 0
;
#X obj 195 101 cnv 4 10 4 empty empty empty 20 12 0 14 -1 -66577 0
;
#X obj 179 271 *~;
#X obj 225 300 cnv 15 54 25 empty empty empty 20 12 0 14 -24198 -66577
0;
#N canvas 350 196 313 131 ???? 0;
#X obj 3 83 cnv 15 300 38 empty empty empty 20 12 0 14 -224896 -66577
0;
#X obj 3 6 cnv 18 300 70 empty empty ARGOPdMiniModules 3 10 1 14 -4033
-1 1.04858e+06;
#X obj 26 26 cnv 10 10 10 empty empty Gerard 0 5 1 11 -4033 -1 1.04858e+06
;
#X obj 64 26 cnv 10 10 10 empty empty Paresys 0 5 1 11 -4033 -1 1.04858e+06
;
#X obj 7 50 pddp/pddplink http://pagesperso-orange.fr/Paresys/ARGOPd/
;
#X obj 7 37 pddp/pddplink http://gerard.paresys.free.fr/ARGOPd/;
#X text 8 85 Construit sous / Build under Pd 0.43.4-extended;
#X obj 17 100 pddp/pddplink http://puredata.info/downloads/pd-extended
;
#X restore 229 304 pd ????;
#X obj 194 244 line~;
#X obj 194 224 pack 0 10;
#X obj 101 146 expr ($f1 + 1) / 2;
#X obj 101 189 expr (1 - $f1);
#X obj 101 245 line~;
#X obj 101 225 pack 0 10;
#X obj -19 109 cyclone/tosymbol;
#X text 211 98 26 2 2016;
#X connect 3 0 5 0;
#X connect 4 0 11 0;
#X connect 5 0 1 0;
#X connect 6 0 16 0;
#X connect 6 0 20 0;
#X connect 7 0 6 0;
#X connect 11 0 1 0;
#X connect 14 0 11 1;
#X connect 15 0 14 0;
#X connect 16 0 15 0;
#X connect 16 0 17 0;
#X connect 17 0 19 0;
#X connect 18 0 5 1;
#X connect 19 0 18 0;
#X connect 20 0 7 0;
#X coords 0 -1 1 1 106 36 1 100 100;
#X restore 113 102 pd ARGO;
#N canvas 519 118 615 238 ARGO 0;
#X obj 88 36 inlet~;
#X text -270 51 L'extension .wav est ajoutée au nom du fichier automatiquement
;
#X obj 103 100 hsl 161 17 0 127 0 0 \$0-A \$0-B Record. 103 10 1 14
-261299 -261299 -1 0 1;
#X obj 101 101 cnv 4 10 4 empty empty empty 20 12 0 14 -1 -66577 0
;
#X obj 112 100 nbx 4 17 0 9999 0 0 \$0-A ColorTime sec 59 9 1 15 -208064
-1 -1 0 256;
#X text -271 87 Clic n'importe où pour commencer un enregistrement
Audio -> Clic encore pour arrêter l'enregistrement;
#X text -170 114 Click anywhere to start recording Audio ->;
#X text -171 126 Click again to stop recording;
#X text 121 122 Hslider caché transformé en bouton;
#N canvas 415 66 351 399 record2 0;
#X obj 136 95 sel 0 1;
#X msg 171 260 start;
#X msg 107 259 stop;
#X msg 155 150 open \$1;
#X obj 155 126 savepanel;
#X obj 165 203 delay 1000;
#X obj 245 323 float;
#X obj 291 322 + 1;
#X obj 223 295 metro 1000;
#X msg 291 296 -1;
#X msg 11 257 0;
#X msg 42 257 1;
#X obj 66 210 t b b;
#X obj 165 229 t b b b b;
#N canvas 317 143 290 366 CouleurRecord2 0;
#X obj 127 192 +;
#X obj 127 248 +;
#X obj 66 136 * -65536;
#X obj 122 136 * -256;
#X obj 168 134 * -1;
#X obj 127 279 - 1;
#X obj 120 9 inlet;
#X text 82 114 R;
#X text 128 112 G;
#X text 177 113 B;
#X obj 127 334 outlet;
#X text 175 42 Rouge;
#X msg 139 90 255;
#X msg 172 90 0;
#X obj 120 33 sel 0 1;
#X text 61 41 Rose;
#X msg 78 90 200;
#X msg 45 90 252;
#X obj 139 63 t b b b;
#X msg 203 90 0;
#X msg 109 90 200;
#X obj 45 63 t b b b;
#X msg 127 307 color \$1 \$1 -1;
#X connect 0 0 1 1;
#X connect 1 0 5 0;
#X connect 2 0 1 0;
#X connect 3 0 0 0;
#X connect 4 0 0 1;
#X connect 5 0 22 0;
#X connect 6 0 14 0;
#X connect 12 0 2 0;
#X connect 13 0 3 0;
#X connect 14 0 21 0;
#X connect 14 1 18 0;
#X connect 16 0 3 0;
#X connect 17 0 2 0;
#X connect 18 0 12 0;
#X connect 18 1 13 0;
#X connect 18 2 19 0;
#X connect 19 0 4 0;
#X connect 20 0 4 0;
#X connect 21 0 17 0;
#X connect 21 1 16 0;
#X connect 21 2 20 0;
#X connect 22 0 10 0;
#X restore 25 326 pd CouleurRecord2;
#X obj 136 75 tgl 15 0 \$0-A \$0-B empty 19 9 1 12 -262144 -258113
-1 0 1;
#X obj 136 30 b;
#X obj 136 52 delay 200;
#X obj 136 8 inlet;
#X obj 25 356 outlet;
#X text 22 372 Couleur;
#X obj 291 356 outlet;
#X text 288 372 Compteur;
#X obj 155 356 outlet;
#X text 152 372 writesf;
#X obj 199 176 t b b;
#X msg 72 33 0;
#X obj 72 8 loadbang;
#X msg 260 124 set 0;
#X msg 261 173 set 1;
#X obj 261 149 b;
#X connect 0 0 12 0;
#X connect 0 1 4 0;
#X connect 0 1 28 0;
#X connect 1 0 23 0;
#X connect 2 0 8 0;
#X connect 2 0 23 0;
#X connect 3 0 23 0;
#X connect 3 0 25 0;
#X connect 4 0 3 0;
#X connect 4 0 30 0;
#X connect 5 0 13 0;
#X connect 6 0 7 0;
#X connect 7 0 6 1;
#X connect 7 0 21 0;
#X connect 8 0 6 0;
#X connect 9 0 7 0;
#X connect 10 0 14 0;
#X connect 11 0 14 0;
#X connect 12 0 10 0;
#X connect 12 1 2 0;
#X connect 13 0 11 0;
#X connect 13 1 1 0;
#X connect 13 2 8 0;
#X connect 13 3 9 0;
#X connect 14 0 19 0;
#X connect 15 0 0 0;
#X connect 16 0 17 0;
#X connect 17 0 15 0;
#X connect 18 0 16 0;
#X connect 25 0 5 0;
#X connect 25 1 9 0;
#X connect 26 0 15 0;
#X connect 27 0 26 0;
#X connect 28 0 15 0;
#X connect 29 0 15 0;
#X connect 30 0 29 0;
#X restore 56 147 pd record2;
#X text 91 19 Input;
#X text -271 34 Enregistreur de fichier audio wav à 1 canal (mono)
;
#X text -271 19 Mono wav file format recorder;
#X obj 171 198 writesf~ 1;
#X text 160 81 28 2 2016;
#X obj 272 182 cnv 15 54 25 empty empty empty 20 12 0 14 -24198 -66577
0;
#N canvas 336 174 313 131 ???? 0;
#X obj 3 83 cnv 15 300 38 empty empty empty 20 12 0 14 -224896 -66577
0;
#X obj 3 6 cnv 18 300 70 empty empty ARGOPdMiniModules 3 10 1 14 -4033
-1 1.04858e+06;
#X obj 26 26 cnv 10 10 10 empty empty Gerard 0 5 1 11 -4033 -1 1.04858e+06
;
#X obj 64 26 cnv 10 10 10 empty empty Paresys 0 5 1 11 -4033 -1 1.04858e+06
;
#X obj 7 37 pddp/pddplink http://gerard.paresys.free.fr/ARGOPd/;
#X text 8 85 Construit sous / Build under Pd 0.43.4-extended;
#X obj 17 100 pddp/pddplink http://puredata.info/downloads/pd-extended
;
#X obj 7 50 pddp/pddplink http://paresys.pagesperso-orange.fr/ARGOPd/
;
#X restore 276 186 pd ????;
#X connect 0 0 13 0;
#X connect 2 0 9 0;
#X connect 9 0 2 0;
#X connect 9 1 13 0;
#X connect 9 2 4 0;
#X coords 0 -1 1 1 166 17 1 100 100;
#X restore 43 571 pd ARGO;
#N canvas 175 68 374 396 ARGO 0;
#X obj 101 101 cnv 20 116 34 empty ColorAmpli empty 20 12 0 14 -261299
-1 1.04858e+06;
#X obj 85 353 outlet~;
#X obj 157 104 cnv 10 20 10 empty ColorAmpli Ampli. 1 5 1 14 -261299
-1 1.04858e+06;
#X obj 85 43 inlet~;
#X obj 85 330 *~;
#X obj 115 118 hsl 101 12 -80 20 0 1 \$0-A ColorAmpli -29dB 0 7 1 9
-261299 -1 -1 5100 0;
#X obj 101 101 cnv 4 10 4 empty empty empty 20 12 0 14 -1 -66577 0
;
#X obj 101 131 cnv 4 10 4 empty empty empty 20 12 0 14 -1 -66577 0
;
#X msg -42 139 label \$1;
#X text 148 194 -> 0.0001..10 = -80dB..20dB;
#X obj 142 175 expr (pow(10 \, $f1 / 20));
#X obj 142 215 sel 0.0001;
#X msg 100 244 0;
#X obj 100 118 tgl 12 1 \$0-A \$0-B Mute 2 -5 1 9 -261299 -1 -1 0 1
;
#X obj 99 146 select 0 1;
#X obj 140 295 line~;
#X obj 140 275 pack 0 10;
#X msg 123 74 set 0;
#X obj -42 93 cyclone/sprintf %ddB;
#X obj -42 116 cyclone/tosymbol;
#X obj 261 342 cnv 15 42 25 empty empty empty 20 12 0 14 -24198 -66577
0;
#N canvas 336 174 309 137 ?. 0;
#X obj 3 83 cnv 15 300 46 empty empty empty 20 12 0 14 -224896 -66577
0;
#X obj 3 6 cnv 18 300 70 empty empty ARGOPdMiniModules 3 10 1 14 -4033
-1 1.04858e+06;
#X obj 26 26 cnv 10 10 10 empty empty Gerard 0 5 1 11 -4033 -1 1.04858e+06
;
#X obj 64 26 cnv 10 10 10 empty empty Paresys 0 5 1 11 -4033 -1 1.04858e+06
;
#X obj 7 37 pddp/pddplink http://gerard.paresys.free.fr/ARGOPd/;
#X text 8 85 Construit sous / Build under Pd 0.43.4-extended;
#X obj 8 111 pddp/pddplink http://puredata.info/downloads/pd-extended
;
#X obj 7 50 pddp/pddplink http://paresys.pagesperso-orange.fr/ARGOPd/
;
#X text 7 98 or Pd-0.46-7 + deken;
#X restore 265 346 pd ?.;
#X text 228 110 17 3 2016;
#X connect 3 0 4 0;
#X connect 4 0 1 0;
#X connect 5 0 10 0;
#X connect 5 0 18 0;
#X connect 8 0 5 0;
#X connect 10 0 11 0;
#X connect 11 0 12 0;
#X connect 11 1 16 0;
#X connect 11 1 17 0;
#X connect 12 0 16 0;
#X connect 12 0 19 0;
#X connect 13 0 14 0;
#X connect 14 0 5 0;
#X connect 14 1 12 0;
#X connect 15 0 4 1;
#X connect 16 0 15 0;
#X connect 17 0 13 0;
#X connect 18 0 19 0;
#X connect 19 0 8 0;
#X coords 0 -1 1 1 118 36 1 100 100;
#X restore 113 434 pd ARGO;
#X obj 481 27 cnv 15 100 70 empty empty empty 20 12 0 14 -24198 -66577
0;
#X text 504 29 library:;
#X text 485 41 pddp;
#X text 485 52 cyclone;
#N canvas 432 42 236 269 ARGO 0;
#X obj 101 104 cnv 30 37 130 empty ColorAmpli empty 20 12 0 14 -1 -258113
0;
#X obj 101 110 vu 8 120 \$0-B empty 0 0 1 11 -1 -4034 1 0;
#X obj 74 34 inlet~;
#X obj 10 33 cnv 15 60 30 empty empty empty 20 12 0 14 -24198 -66577
0;
#N canvas 300 65 442 264 Help 0;
#X obj 12 48 cnv 15 400 150 empty empty empty 20 12 0 14 -233017 -66577
0;
#X text 16 50 Citation;
#X text 28 67 peakamp~ tracks and outputs the absolute value of the
peak amplitude of the incoming signal. It outputs when banged or using
its own internal clock. The peak value is reset each time peakamp~
outputs a value.;
#X text 29 123 cyclone library;
#X text 28 135 http://suita.chopin.edu.pl/~czaja/miXed/externs/cyclone.html
;
#X text 29 155 Voir doc Max/MSP MSP46ReferenceManual.pdf;
#X text 18 14 MM-Vumetre;
#X restore 17 39 pd Help;
#N canvas 541 112 317 265 VuMetre 0;
#X obj 48 19 inlet~;
#X obj 41 54 *~;
#X obj -25 132 snapshot~;
#X obj -25 155 sqrt;
#X obj -25 100 lop~ 10;
#X obj -25 179 rmstodb;
#X obj -88 19 loadbang;
#X obj -25 202 - 100;
#X obj 58 156 sqrt;
#X obj 58 180 rmstodb;
#X obj 58 203 - 100;
#X obj -89 102 metro 200;
#X obj -28 19 r SendFluid;
#X obj 58 102 cyclone/peakamp~ 1000;
#X obj -25 228 outlet;
#X obj 58 227 outlet;
#X connect 0 0 1 0;
#X connect 0 0 1 1;
#X connect 1 0 4 0;
#X connect 1 0 13 0;
#X connect 2 0 3 0;
#X connect 3 0 5 0;
#X connect 4 0 2 0;
#X connect 5 0 7 0;
#X connect 6 0 11 0;
#X connect 7 0 14 0;
#X connect 8 0 9 0;
#X connect 9 0 10 0;
#X connect 10 0 15 0;
#X connect 11 0 2 0;
#X connect 12 0 11 1;
#X connect 13 0 8 0;
#X restore 74 59 pd VuMetre;
#X obj 172 211 cnv 15 42 25 empty empty empty 20 12 0 14 -24198 -66577
0;
#N canvas 336 174 309 137 ?. 0;
#X obj 3 83 cnv 15 300 46 empty empty empty 20 12 0 14 -224896 -66577
0;
#X obj 3 6 cnv 18 300 70 empty empty ARGOPdMiniModules 3 10 1 14 -4033
-1 1.04858e+06;
#X obj 26 26 cnv 10 10 10 empty empty Gerard 0 5 1 11 -4033 -1 1.04858e+06
;
#X obj 64 26 cnv 10 10 10 empty empty Paresys 0 5 1 11 -4033 -1 1.04858e+06
;
#X obj 7 37 pddp/pddplink http://gerard.paresys.free.fr/ARGOPd/;
#X text 8 85 Construit sous / Build under Pd 0.43.4-extended;
#X obj 8 111 pddp/pddplink http://puredata.info/downloads/pd-extended
;
#X obj 7 50 pddp/pddplink http://paresys.pagesperso-orange.fr/ARGOPd/
;
#X text 7 98 or Pd-0.46-7 + deken;
#X restore 176 215 pd ?.;
#X text 127 87 3 3 2019;
#X connect 2 0 5 0;
#X connect 5 0 1 0;
#X connect 5 1 1 1;
#X coords 0 -1 1 1 39 135 2 100 100;
#X restore 300 488 pd ARGO;
#X obj 600 600 cnv 15 34 16 empty empty empty 20 12 0 14 -24198 -66577
0;
#N canvas 353 174 333 161 ?? 0;
#X obj 17 89 cnv 15 300 56 empty empty empty 20 12 0 14 -224896 -66577
0;
#X obj 17 12 cnv 18 300 70 empty empty ARGOPdMiniModules 3 10 1 14
-4033 -1 1.04858e+06;
#X obj 40 32 cnv 10 10 10 empty empty Gerard 0 5 1 11 -4033 -1 1.04858e+06
;
#X obj 78 32 cnv 10 10 10 empty empty Paresys 0 5 1 11 -4033 -1 1.04858e+06
;
#X obj 20 54 pddp/pddplink http://gerard.paresys.free.fr/ARGOPd/;
#X obj 22 126 pddp/pddplink http://puredata.info/downloads/pd-extended
;
#X obj 22 102 pddp/pddplink http://puredata.info/downloads/pure-data
;
#X text 22 90 Construit sous / Build under Pd-0.49...;
#X text 21 114 or Pd 0.43.4-extended;
#X obj 20 66 pddp/pddplink https://paresys.pagesperso-orange.fr/ARGOPd/
;
#X obj 20 42 pddp/pddplink https://github.com/gerardparesys/ARGOPd
;
#X restore 600 600 pd ??;
#X obj 222 149 nbx 5 14 0 8 0 1 empty empty empty 0 -8 0 10 -262144
-1 -1 0 256;
#X text 485 74 soundhack;
#N canvas 633 193 352 249 ARGO 0;
#X obj 101 101 cnv 20 104 45 empty ColorAmpli +decimate. 27 9 1 14
-261299 -1 1.04858e+06;
#X obj 23 209 outlet~;
#X obj 23 40 inlet~;
#X obj 101 101 cnv 4 10 4 empty empty empty 20 12 0 14 -1 -66577 0
;
#X obj 101 142 cnv 4 10 4 empty empty empty 20 12 0 14 -1 -66577 0
;
#X obj 262 134 cnv 15 60 30 empty empty empty 20 12 0 14 -24198 -66577
0;
#N canvas 376 68 452 194 Help 0;
#X obj 18 82 cnv 15 360 75 empty empty empty 20 12 0 14 -233017 -66577
0;
#X text 26 90 The +decimate~ object provides bit depth and sample rate
reduction for added aliasing and decimation noise. A very noisy plugin.
Bit depth and fold can accept non-integer values (hold down shift and
drag).;
#X text 23 44 a pd external in soundhack-0.0.8-pd;
#X obj 23 59 pddp/pddplink http://www.soundhack.com/freeware/;
#X text 22 19 MM +decimate;
#X text 23 32 Based on Tom Erbe's work: "+decimate~";
#X restore 269 140 pd Help;
#X obj 195 101 cnv 4 10 4 empty empty empty 20 12 0 14 -260097 -66577
0;
#X obj 225 40 inlet;
#X text 221 11 Number;
#X obj 278 202 cnv 15 34 16 empty empty empty 20 12 0 14 -24198 -66577
0;
#N canvas 353 174 333 161 ?? 0;
#X obj 17 89 cnv 15 300 56 empty empty empty 20 12 0 14 -224896 -66577
0;
#X obj 17 12 cnv 18 300 70 empty empty ARGOPdMiniModules 3 10 1 14
-4033 -1 1.04858e+06;
#X obj 40 32 cnv 10 10 10 empty empty Gerard 0 5 1 11 -4033 -1 1.04858e+06
;
#X obj 78 32 cnv 10 10 10 empty empty Paresys 0 5 1 11 -4033 -1 1.04858e+06
;
#X obj 20 54 pddp/pddplink http://gerard.paresys.free.fr/ARGOPd/;
#X obj 22 126 pddp/pddplink http://puredata.info/downloads/pd-extended
;
#X obj 22 102 pddp/pddplink http://puredata.info/downloads/pure-data
;
#X text 22 90 Construit sous / Build under Pd-0.49...;
#X text 21 114 or Pd 0.43.4-extended;
#X obj 20 66 pddp/pddplink https://paresys.pagesperso-orange.fr/ARGOPd/
;
#X obj 20 42 pddp/pddplink https://github.com/gerardparesys/ARGOPd
;
#X restore 278 202 pd ??;
#X text 207 114 Bit Depth;
#X text 208 128 Folds;
#X obj 23 178 soundhack/+decimate~;
#X obj 103 117 hsl 93 12 1 24 0 1 \$0-A ColorAmpli bit=24 0 7 1 9 -261299
-1 -1 9200 0;
#N canvas 555 145 241 227 label 0;
#X obj 40 36 inlet;
#X obj 40 181 outlet;
#X msg 40 148 label \$1;
#X text 35 18 Hslider;
#X text 33 6 0.1 .. 10;
#X obj 40 62 expr (int(100 * $f1) / 100) \;;
#X obj 40 88 makefilename bit=%s;
#X connect 0 0 5 0;
#X connect 2 0 1 0;
#X connect 5 0 6 0;
#X connect 6 0 2 0;
#X restore 33 108 pd label;
#X obj 23 69 clip~ -1 0.999999;
#X obj 103 129 hsl 97 12 8 0 0 1 \$0-A ColorAmpli SampleRate=44100
0 7 1 9 -261299 -1 -1 9600 0;
#N canvas 596 404 321 290 label 0;
#X obj 53 47 inlet;
#X obj 53 247 outlet;
#X msg 53 224 label \$1;
#X text 46 29 Hslider;
#X obj 167 123 samplerate~;
#X obj 101 47 loadbang;
#X obj 53 178 expr ($f2 / pow(2 \, $f1));
#X text 44 17 0 .. 8;
#X obj 53 76 t f b;
#X obj 167 47 r pd-dsp-started;
#X obj 53 201 makefilename SampleRate=%s;
#X obj 167 148 t b f;
#X connect 0 0 8 0;
#X connect 2 0 1 0;
#X connect 4 0 11 0;
#X connect 5 0 4 0;
#X connect 6 0 10 0;
#X connect 8 0 6 0;
#X connect 8 1 4 0;
#X connect 9 0 4 0;
#X connect 10 0 2 0;
#X connect 11 0 6 0;
#X connect 11 1 6 1;
#X restore 34 132 pd label;
#X obj 147 101 cnv 4 10 4 empty empty empty 20 12 0 14 -260097 -66577
0;
#X obj 225 69 clip 0 8;
#X text 219 23 0 .. 8;
#X obj 145 40 inlet;
#X text 141 11 Number;
#X text 139 23 1 .. 24;
#X obj 145 69 clip 1 24;
#X text 209 100 2 5 2021;
#X connect 2 0 17 0;
#X connect 8 0 21 0;
#X connect 14 0 1 0;
#X connect 15 0 16 0;
#X connect 15 0 14 1;
#X connect 16 0 15 0;
#X connect 17 0 14 0;
#X connect 18 0 19 0;
#X connect 18 0 14 2;
#X connect 19 0 18 0;
#X connect 21 0 18 0;
#X connect 23 0 26 0;
#X connect 26 0 15 0;
#X coords 0 -1 1 1 106 47 1 100 100;
#X restore 113 180 pd ARGO;
#X obj 162 149 nbx 5 14 1 24 0 1 empty empty empty 0 -8 0 10 -262144
-1 -1 24 256;
#X text 320 141 a pd external in soundhack-0.0.8-pd;
#X obj 320 156 pddp/pddplink http://www.soundhack.com/freeware/;
#X text 319 116 MM +decimate;
#X text 320 129 Based on Tom Erbe's work: "+decimate";
#X obj 29 6 cnv 15 15 15 empty empty ExMM212a-decimate.pd 0 8 1 14
-262144 -1 0;
#X text 271 179 "The +decimate~ object provides bit depth and sample
rate reduction for added aliasing and decimation noise. A very noisy
plugin.";
#N canvas 462 219 430 320 ARGO 0;
#X obj 40 -35 inlet~;
#X obj 251 108 cnv 10 44 10 empty empty Scope. 1 5 1 14 -262144 -1
1.04858e+06;
#X obj 101 101 cnv 4 10 4 empty empty empty 20 12 0 14 -1 -66577 0
;
#X msg -36 168 frgb 255 0 0;
#X obj 124 105 nbx 4 12 1 2000 0 1 \$0-A ColorTime ms/div 40 7 1 9
-208064 -1 -1 4 256;
#X obj 205 105 tgl 12 1 \$0-A \$0-B Sync 15 6 1 9 -262144 -1 -1 1 1
;
#X msg 128 52 delay 0 \, triglevel 0 \, trigger 0;
#X obj 126 5 sel 0 1;
#X msg -39 192 brgb 255 255 255;
#X obj 85 64 * 2;
#X msg 146 28 delay 1 \, triglevel 0.1 \, trigger 1;
#X obj 277 -36 inlet~;
#X obj 289 101 cnv 4 10 4 empty empty empty 20 12 0 14 -1 -66577 0
;
#X obj -14 80 t b b b b;
#X obj -15 57 bng 15 250 50 0 empty empty empty 17 7 0 10 -262144 -1
-1;
#X obj 196 -34 cnv 15 60 30 empty empty empty 20 12 0 14 -24198 -66577
0;
#N canvas 374 104 413 135 Help 0;
#X text 24 54 Voir MSP46ReferenceManual.pdf;
#X text 23 1 utilise l'objet Scope~ de la library cyclone;
#X text 24 26 Voir Browser -> Pure Data/examples/cyclone/scope-test.pd
;
#X text 24 40 Voir Browser -> Pure Data/examples/cyclone/pink-test.pd
;
#X text 24 -20 Scope;
#X restore 203 -28 pd Help;
#X obj 101 121 cnv 15 199 129 empty empty empty 20 12 0 14 -1 -66577
0;
#X obj 40 -11 clip~ -1 1;
#X obj 277 -12 clip~ -1 1;
#X msg -24 136 range -1 1;
#X msg -33 111 bufsize 176;
#X obj 101 123 cyclone/scope~ 198 61 8 3 176 -1 1 1 0 1 0.1 255 0 0
255 255 255 0 98 102 0 empty;
#X obj 101 187 cyclone/scope~ 198 61 8 3 176 -1 1 1 0 1 0.1 255 0 0
255 255 255 0 98 102 0 empty;
#X text 243 85 29 3 2021;
#X obj 307 234 cnv 15 34 16 empty empty empty 20 12 0 14 -24198 -66577
0;
#N canvas 353 174 333 161 ?? 0;
#X obj 17 89 cnv 15 300 56 empty empty empty 20 12 0 14 -224896 -66577
0;
#X obj 17 12 cnv 18 300 70 empty empty ARGOPdMiniModules 3 10 1 14
-4033 -1 1.04858e+06;
#X obj 40 32 cnv 10 10 10 empty empty Gerard 0 5 1 11 -4033 -1 1.04858e+06
;
#X obj 78 32 cnv 10 10 10 empty empty Paresys 0 5 1 11 -4033 -1 1.04858e+06
;
#X obj 20 54 pddp/pddplink http://gerard.paresys.free.fr/ARGOPd/;
#X obj 22 126 pddp/pddplink http://puredata.info/downloads/pd-extended
;
#X obj 22 102 pddp/pddplink http://puredata.info/downloads/pure-data
;
#X text 22 90 Construit sous / Build under Pd-0.49...;
#X text 21 114 or Pd 0.43.4-extended;
#X obj 20 66 pddp/pddplink https://paresys.pagesperso-orange.fr/ARGOPd/
;
#X obj 20 42 pddp/pddplink https://github.com/gerardparesys/ARGOPd
;
#X restore 307 234 pd ??;
#X connect 0 0 18 0;
#X connect 3 0 22 0;
#X connect 3 0 23 0;
#X connect 4 0 9 0;
#X connect 5 0 7 0;
#X connect 6 0 22 0;
#X connect 6 0 23 0;
#X connect 7 0 6 0;
#X connect 7 1 10 0;
#X connect 8 0 22 0;
#X connect 8 0 23 0;
#X connect 9 0 22 0;
#X connect 9 0 23 0;
#X connect 10 0 22 0;
#X connect 10 0 23 0;
#X connect 11 0 19 0;
#X connect 13 0 21 0;
#X connect 13 1 20 0;
#X connect 13 2 3 0;
#X connect 13 3 8 0;
#X connect 14 0 13 0;
#X connect 18 0 22 0;
#X connect 19 0 23 0;
#X connect 20 0 22 0;
#X connect 20 0 23 0;
#X connect 21 0 22 0;
#X connect 21 0 23 0;
#X coords 0 -1 1 1 200 150 2 100 100;
#X restore 130 270 pd ARGO;
#N canvas 532 212 816 371 ARGO 0;
#X obj 245 10 inlet~;
#X obj 201 201 cnv 12 198 34 empty empty empty 20 12 0 14 -262144 -1
1.04858e+06;
#X obj 201 201 cnv 4 10 4 empty empty empty 20 12 0 14 -1 -66577 0
;
#X obj 200 220 vsl 12 131 0.01 100 1 1 \$0-A \$0-B empty 0 -9 0 10
-262144 -1 -1 3200 0;
#X obj 22 117 cnv 15 60 30 empty empty empty 20 12 0 14 -24198 -66577
0;
#N canvas 391 109 410 134 Help 0;
#X text 38 20 Spectrum;
#X text 37 41 With scope~ object of cyclone library;
#X text 37 61 Avec l'objet scope~ de la library cyclone;
#X restore 29 123 pd Help;
#X obj 508 10 inlet~;
#X obj 500 201 cnv 4 10 4 empty empty empty 20 12 0 14 -1 -66577 0
;
#X obj 212 218 cnv 15 296 135 empty empty empty 20 12 0 14 -1 -66577
0;
#X obj 213 287 cyclone/scope~ 297 66 8 3 128 0 32 0 0 0 0 255 0 0 255
255 255 0 98 102 0 empty;
#X obj 542 228 cnv 15 100 70 empty empty empty 20 12 0 14 -24198 -66577
0;
#X text 565 230 library:;
#X text 546 241 pddp;
#X text 546 254 cyclone;
#X obj 217 203 tgl 12 1 \$0-A \$0-B On 15 7 1 9 -262144 -1 -1 1 1;
#X obj 213 219 cyclone/scope~ 297 66 8 3 128 0 32 0 0 0 0 255 0 0 255
255 255 0 98 102 0 empty;
#X obj 544 335 cnv 15 34 16 empty empty empty 20 12 0 14 -24198 -66577
0;
#N canvas 353 174 333 161 ?? 0;
#X obj 17 89 cnv 15 300 56 empty empty empty 20 12 0 14 -224896 -66577
0;
#X obj 17 12 cnv 18 300 70 empty empty ARGOPdMiniModules 3 10 1 14
-4033 -1 1.04858e+06;
#X obj 40 32 cnv 10 10 10 empty empty Gerard 0 5 1 11 -4033 -1 1.04858e+06
;
#X obj 78 32 cnv 10 10 10 empty empty Paresys 0 5 1 11 -4033 -1 1.04858e+06
;
#X obj 20 54 pddp/pddplink http://gerard.paresys.free.fr/ARGOPd/;
#X obj 22 126 pddp/pddplink http://puredata.info/downloads/pd-extended
;
#X obj 22 102 pddp/pddplink http://puredata.info/downloads/pure-data
;
#X text 22 90 Construit sous / Build under Pd-0.49...;
#X text 21 114 or Pd 0.43.4-extended;
#X obj 20 66 pddp/pddplink https://paresys.pagesperso-orange.fr/ARGOPd/
;
#X obj 20 42 pddp/pddplink https://github.com/gerardparesys/ARGOPd
;
#X restore 544 335 pd ??;
#X obj 245 60 rfft~;
#X msg 141 60 slide 10 10;
#X msg 122 87 slide 1 1;
#X obj 122 33 sel 0 1;
#X msg 12 215 frgb 255 0 0;
#X msg 13 237 brgb 255 255 255;
#X obj 331 10 cyclone/count~ 0 1024 1 1;
#X obj 245 123 cyclone/cartopol~;
#X obj 245 33 *~;
#X obj 263 203 tgl 12 1 \$0-SendLoop \$0-ReceiveLoop Gliss 15 6 1 9
-262144 -1 -1 0 1;
#X obj 122 157 cyclone/vectral~ 1024;
#X msg 15 258 range 0 32 \, 8 \, bufsize 128;
#X obj 331 60 *~ 0.54;
#X obj 82 337 switch~ 1024 1 1;
#X obj 508 92 rfft~;
#X obj 508 123 cyclone/cartopol~;
#X obj 508 44 *~;
#X obj 385 157 cyclone/vectral~ 1024;
#X text 458 184 2 5 2021;
#X obj 638 10 loadbang;
#X obj 326 200 hsl 160 18 0 127 0 0 \$0-A \$0-B Spectrum(3000Hz/div).
-2 9 1 14 -262144 -262144 -1 0 1;
#X obj 605 45 bang;
#X obj 700 10 r pd-dsp-started;
#N canvas 735 342 333 296 label 0;
#X obj 68 93 samplerate~;
#X msg 68 186 label \$1;
#X obj 68 165 cyclone/tosymbol;
#X obj 68 141 cyclone/sprintf Spectrum(%sHz/div).;
#X obj 68 118 expr int(3000 * $f1 / 44100);
#X obj 68 68 inlet;
#X obj 68 215 outlet;
#X connect 0 0 4 0;
#X connect 1 0 6 0;
#X connect 2 0 1 0;
#X connect 3 0 2 0;
#X connect 4 0 3 0;
#X connect 5 0 0 0;
#X restore 638 160 pd label;
#X connect 0 0 26 0;
#X connect 3 0 26 1;
#X connect 3 0 34 1;
#X connect 6 0 34 0;
#X connect 14 0 31 0;
#X connect 14 0 39 0;
#X connect 18 0 25 0;
#X connect 18 1 25 1;
#X connect 19 0 28 0;
#X connect 19 0 35 0;
#X connect 20 0 28 0;
#X connect 20 0 35 0;
#X connect 21 0 20 0;
#X connect 21 1 19 0;
#X connect 22 0 15 0;
#X connect 22 0 9 0;
#X connect 23 0 15 0;
#X connect 23 0 9 0;
#X connect 24 0 28 1;
#X connect 24 0 30 0;
#X connect 24 0 35 1;
#X connect 25 0 28 2;
#X connect 26 0 18 0;
#X connect 27 0 21 0;
#X connect 28 0 15 0;
#X connect 29 0 15 0;
#X connect 29 0 9 0;
#X connect 30 0 28 0;
#X connect 30 0 35 0;
#X connect 32 0 33 0;
#X connect 32 1 33 1;
#X connect 33 0 35 2;
#X connect 34 0 32 0;
#X connect 35 0 9 0;
#X connect 37 0 41 0;
#X connect 39 0 41 0;
#X connect 40 0 41 0;
#X connect 41 0 38 0;
#X coords 0 -1 1 1 311 154 2 200 200;
#X restore 343 270 pd ARGO;
#X connect 0 0 19 1;
#X connect 2 0 19 0;
#X connect 14 0 13 0;
#X connect 19 0 31 0;
#X connect 19 0 39 0;
#X connect 19 0 40 0;
#X connect 21 0 1 1;
#X connect 21 0 1 0;
#X connect 21 0 20 0;
#X connect 21 0 26 0;
#X connect 29 0 31 2;
#X connect 31 0 21 0;
#X connect 31 0 39 1;
#X connect 31 0 40 1;
#X connect 32 0 31 1;
