#N canvas 641 23 439 353 10;
#X declare -stdlib Gem;
#X obj 17 9 cnv 15 15 15 empty empty ExMM72a-GEMSlideShow1.pd 0 8 1
14 -262144 -1 0;
#X text 35 64 On/Off GEM ->;
#X text 24 297 On/Off Display ->;
#X text 54 285 Affichage;
#X text 24 196 Nouvelle image ->;
#X text 54 205 New image ->;
#X text 55 23 SlideShow = Diaporama;
#N canvas 31 140 548 511 ARGO 0;
#X obj 201 201 cnv 10 298 34 \$0-A \$0-B empty 20 12 0 14 -228856 -1
1.04858e+06;
#X obj 201 231 cnv 4 10 4 empty empty empty 20 12 0 14 -128992 -66577
0;
#X obj 245 200 nbx 3 12 1 100 0 1 \$0-A \$0-B Render 33 7 1 9 -262144
-1 -1 50 256;
#X obj 228 421 gemhead;
#X msg 241 387 set \$1;
#X obj 194 476 outlet;
#X obj 233 200 tgl 12 1 \$0-A \$0-B empty 15 7 1 9 -262144 -1 -1 1
1;
#X obj 380 221 cnv 10 20 10 empty ColorGEM GEM-SlideShow1. 1 5 1 14
-228856 -1 1.04858e+06;
#X text 184 235 gemlist;
#X obj 200 200 bng 12 250 50 0 \$0-A \$0-B empty 14 6 1 9 -262144 -1
-1;
#X obj 201 201 cnv 4 10 4 empty empty empty 20 12 0 14 -260097 -66577
0;
#X obj 315 200 nbx 3 12 1 999 0 1 \$0-A \$0-B Maxi 42 8 1 12 -262144
-1 -1 4 256;
#X msg 113 421 open \$1;
#X obj 421 302 random 10;
#X obj 391 320 + 1;
#X obj 376 369 int;
#X obj 391 343 mod 100;
#X obj 315 212 hradio 12 1 1 2 \$0-A \$0-B +1 26 8 1 12 -262144 -1
-1 0;
#N canvas 316 301 313 191 Choix------- 0;
#X obj 39 20 inlet;
#X obj 74 144 outlet;
#X obj 188 144 outlet;
#X obj 234 144 outlet;
#X obj 196 20 inlet;
#X obj 196 59 int;
#X msg 39 112 label +1;
#X msg 105 112 label Random;
#X obj 39 80 sel 0 1;
#X obj 196 80 sel 0 1;
#X connect 0 0 5 1;
#X connect 0 0 8 0;
#X connect 4 0 5 0;
#X connect 5 0 9 0;
#X connect 6 0 1 0;
#X connect 7 0 1 0;
#X connect 8 0 6 0;
#X connect 8 1 7 0;
#X connect 9 0 2 0;
#X connect 9 1 3 0;
#X restore 333 255 pd Choix-------;
#X obj 200 216 nbx 3 12 1 999 0 1 \$0-A \$0-B FileName 42 8 1 12 -262144
-1 -1 4 256;
#X obj 430 255 + 1;
#X obj 315 224 hradio 12 1 1 3 \$0-A \$0-B jpg 38 7 1 12 -262144 -1
-1 0;
#N canvas 395 304 268 163 Choix------- 0;
#X obj 48 2 inlet;
#X obj 91 124 outlet;
#X msg 113 94 label png;
#X obj 48 34 sel 0 1 2;
#X msg 47 94 label jpg;
#X text 193 37 gif ?;
#X msg 180 94 label tif;
#X connect 0 0 3 0;
#X connect 2 0 1 0;
#X connect 3 0 4 0;
#X connect 3 1 2 0;
#X connect 3 2 6 0;
#X connect 4 0 1 0;
#X connect 6 0 1 0;
#X restore 341 173 pd Choix-------;
#X obj 114 256 + 1;
#X obj 128 278 t b f f f;
#X obj 145 310 makefilename %d.jpg;
#X obj 176 334 makefilename %d.png;
#X obj 207 359 makefilename %d.tif;
#X obj 194 452 pix_image;
#X obj 198 64 cnv 15 330 24 empty empty empty 20 12 0 14 -261682 -66577
0;
#X obj 200 69 inlet;
#X text 239 63 <- N'importe quel message ouvre l'image suivante;
#X text 240 73 <- Any message opens the next image;
#X obj 321 120 cnv 15 150 30 empty empty empty 20 12 0 14 -24198 -66577
0;
#N canvas 0 43 778 622 Help-GEM-SlideShow1 0;
#X text 17 111 - ATTENTION: GEM doit etre "On";
#X obj 12 393 cnv 15 760 500 empty empty empty 20 12 0 14 -258113 -66577
0;
#X text 52 422 Solution: ne pas utiliser d'accent dans les noms de
fichier;
#X text 51 477 Se produit avec certaines cartes video \, de certains
PC \, sous Windows...;
#X text 51 503 Inconvenient: Charge CPU => la texture est calculée
(objet pix_texture) par le processeur de l'ordinateur et pas par la
carte video);
#X text 15 396 - Erreur dans la fenêtre Pd:;
#X text 15 633 - Dans la fenêtre GEM les couleurs de l'image ne sont
pas correctes.;
#X text 39 438 - GL: énumérant non valide (répété);
#X text 39 409 - error:GemImageLoad:Unable to find file: C:/Ima/Gérard.jpg
;
#X text 90 700 http://rsb.info.nih.gov/ij/download.html;
#X text 35 659 - Solution 1: Si le fichier a été enregistré avec Photoshop:
ne pas cocher l'option Couleur "Profill CC";
#X text 51 464 Solution: cocher Compatible dans le MM GEM;
#X text 35 686 - Solution 2: Réenregistrer le fichier avec le logiciel
ImageJ;
#X obj 13 180 cnv 15 400 200 empty empty empty 20 12 0 14 -233017 -66577
0;
#X text 35 210 Description: loads in an image file;
#X text 35 196 Synopsis: [pix_image];
#X text 34 227 [pix_image] loads in an image to be used a texture \,
bitblit \, or something else. If you don't give it a default image
file \, you can send the open message with a filename.;
#X text 34 270 [pix_image] loads in TIFFs \, JPEGs and PNGs.;
#X text 35 289 TIFF-files are loaded using Sam Leffler's libtiff library
\, a great \, portable image file reading and processing package (Thanks
Sam!).;
#X text 33 335 The image can be either drawn directly using [pix_draw]
(VERY slow) or applied as a texture onto a Geo ([pix_texture]);
#X text 16 180 Citation;
#X text 40 546 - GL: invalid value;
#X text 124 583 Reduce the size of the image;
#X text 17 139 - Sous MacOSX \, quelquesoit le format de l'image \,
le colorspace est RGBA.;
#X text 40 558 - GL: invalid operation;
#X text 39 451 - OpenGL: invalid enumérant (repeat);
#X text 52 571 Solution 1: Diminuer la taille de l'image;
#X text 52 596 Solution 2: Afficher avec GEM-Draw au lieu de GEM-Direct
;
#X text 124 608 Display with GEM-Draw instead of GEM-Direct;
#X text 139 -35 SlideShow = Diaporama;
#X text 43 26 ou:;
#X text 18 -13 - Lit des fichiers image au format jpg \, png ou tif
dont les noms sont:;
#X text 43 14 1.jpg \, 2.jpg...x.jpg;
#X text 43 38 1.png \, 2.png... x..png;
#X text 44 50 ou:;
#X text 41 77 Les fichiers doivent etre situés dans le meme dossier
que le patch contenant le MiniModule GEM-SlideShow;
#X text 43 62 1.tif \, 2.tif... x..tif;
#X text 15 723 - Dans la fenêtre GEM l'image est déformée.;
#X text 35 737 - Solution : l'image doit avoir des dimensions multiple
de 2;
#X text 15 759 - ATTENTION Bug de l'objet pix_image;
#X text 401 764 - WARNING Bug of pix_image object;
#X text 421 777 - Under Pd-0.41.4-extended under MacOSX.4;
#X text 18 -36 GEM-SlideShow1;
#X text 19 896 -;
#X text 252 827 - Solution 1: GEM-SlideShow2;
#X text 251 841 - Solution 2: Pd-0.42.5-extended (GEM 0.92.3);
#X text 35 785 - Augmente indéfiniment la place occupée en mémoire
par l'application "pd" à chaque chargement d'une image. Même si la
même image est chargée plusieurs fois.;
#X text 421 790 - Indefinitely increases the memory space used by the
"pd" application to each loading of an image. Even if the same image
is loaded multiple times.;
#X text 403 724 - In GEM window image is distorted.;
#X text 425 740 - Solution: the image must have multiple of 2 dimensions
;
#X text 19 861 - GEM-SlideShow1 charge la CPU à chaque chargement d'une
image.;
#X text 253 877 - Solution: GEM-SlideShow2;
#X text 404 861 - GEM-SlideShow1 load the CPU with each loading of
an image.;
#X text 35 772 - Vu sous Pd-0.41.4-extended sous MacOSX.4;
#X restore 327 126 pd Help-GEM-SlideShow1;
#X obj 442 463 cnv 15 52 22 empty empty empty 20 12 0 14 -24198 -66577
0;
#N canvas 353 174 321 152 ?... 0;
#X obj 8 84 cnv 15 300 56 empty empty empty 20 12 0 14 -224896 -66577
0;
#X obj 8 7 cnv 18 300 70 empty empty ARGOPdMiniModules 3 10 1 14 -4033
-1 1.04858e+06;
#X obj 31 27 cnv 10 10 10 empty empty Gerard 0 5 1 11 -4033 -1 1.04858e+06
;
#X obj 69 27 cnv 10 10 10 empty empty Paresys 0 5 1 11 -4033 -1 1.04858e+06
;
#X obj 12 40 pddp/pddplink http://gerard.paresys.free.fr/ARGOPd/;
#X obj 13 121 pddp/pddplink http://puredata.info/downloads/pd-extended
;
#X obj 13 97 pddp/pddplink http://puredata.info/downloads/pure-data
;
#X text 13 85 Construit sous / Build under Pd-0.49...;
#X text 12 109 or Pd 0.43.4-extended;
#X obj 12 53 pddp/pddplink https://paresys.pagesperso-orange.fr/ARGOPd/
;
#X restore 445 466 pd ?...;
#X text 442 182 22 8 2019;
#X obj 114 387 cyclone/switch 3;
#X connect 2 0 4 0;
#X connect 3 0 28 0;
#X connect 4 0 3 0;
#X connect 6 0 3 0;
#X connect 9 0 18 1;
#X connect 11 0 20 0;
#X connect 12 0 28 0;
#X connect 13 0 19 0;
#X connect 14 0 16 0;
#X connect 15 0 19 0;
#X connect 16 0 15 1;
#X connect 17 0 18 0;
#X connect 18 0 17 0;
#X connect 18 1 15 0;
#X connect 18 2 13 0;
#X connect 19 0 24 0;
#X connect 20 0 13 1;
#X connect 20 0 16 1;
#X connect 21 0 22 0;
#X connect 21 0 23 0;
#X connect 22 0 21 0;
#X connect 23 0 38 0;
#X connect 24 1 25 0;
#X connect 24 2 26 0;
#X connect 24 2 27 0;
#X connect 24 3 14 0;
#X connect 25 0 38 1;
#X connect 26 0 38 2;
#X connect 27 0 38 3;
#X connect 28 0 5 0;
#X connect 30 0 9 0;
#X connect 38 0 12 0;
#X coords 0 -1 1 1 300 36 1 200 200;
#X restore 130 204 pd ARGO;
#X text 70 118 On/Off ->;
#X obj 136 171 cnv 15 294 24 empty empty empty 20 12 0 14 -24198 -66577
0;
#X text 138 169 <- N'importe quel message ouvre l'image suivante;
#X text 138 179 <- Any message opens the next image;
#X obj 277 13 declare -stdlib Gem;
#X obj 375 314 cnv 15 52 22 empty empty empty 20 12 0 14 -24198 -66577
0;
#N canvas 353 174 321 152 ?... 0;
#X obj 8 84 cnv 15 300 56 empty empty empty 20 12 0 14 -224896 -66577
0;
#X obj 8 7 cnv 18 300 70 empty empty ARGOPdMiniModules 3 10 1 14 -4033
-1 1.04858e+06;
#X obj 31 27 cnv 10 10 10 empty empty Gerard 0 5 1 11 -4033 -1 1.04858e+06
;
#X obj 69 27 cnv 10 10 10 empty empty Paresys 0 5 1 11 -4033 -1 1.04858e+06
;
#X obj 12 40 pddp/pddplink http://gerard.paresys.free.fr/ARGOPd/;
#X obj 13 121 pddp/pddplink http://puredata.info/downloads/pd-extended
;
#X obj 13 97 pddp/pddplink http://puredata.info/downloads/pure-data
;
#X text 13 85 Construit sous / Build under Pd-0.49...;
#X text 12 109 or Pd 0.43.4-extended;
#X obj 12 53 pddp/pddplink https://paresys.pagesperso-orange.fr/ARGOPd/
;
#X restore 378 317 pd ?...;
#N canvas 311 51 652 557 ARGO 0;
#X obj 467 98 cnv 15 60 30 empty empty empty 20 12 0 14 -24198 -66577
0;
#N canvas 385 43 441 621 Help 0;
#X obj 11 30 cnv 15 380 90 empty empty empty 20 12 0 14 -233017 -66577
0;
#X text 16 28 Citation;
#X text 15 41 "GEM is the Graphics Environment for Multimedia. It was
originally written by Mark Danks to generate real-time computer graphics
\, especially for audio-visual compositions.";
#X text 15 91 "GEM is a collection of externals which allow the user
to create OpenGL graphics within Pd";
#X text 10 128 - Raccourcis clavier;
#X text 12 184 - En "FullScreen" taper F ou Pomme + Tab sous MacOSX...
;
#X text 120 197 taper F ou Alt + Tab sous Windows...;
#X text 120 209 taper F ou Alt + F4 sous Linux...;
#X obj 12 434 cnv 15 400 190 empty empty empty 20 12 0 14 -258113 -66577
0;
#X text 15 440 Impossible de supprimer la barre de menu sous MacOSX.5
+ Pd-0.41.4-extended;
#X text 15 466 Pas de probleme sous MacOSX.4 + Pd-0.41.4-extended;
#X text 27 522 Solution: Quitter Pd et relancer;
#X text 16 483 - Problème Windows: Quand on sort de fullscreen le dessin
des objets dans les patches est buggé (taille du texte \, HSlider décalés...)
;
#X text 28 534 Vu avec carte Matrox + Windows XP SP2 + Pd-0.41.4-extended
;
#X text 20 591 Solution: cocher Compatible;
#X text 37 326 Inconvenient: Charge CPU => la texture est calculée
(objet pix_texture) par le processeur de l'ordinateur et pas par la
carte video);
#X text 20 568 GL: énumérant non valide (répété);
#X text 20 579 OpenGL: invalid enumérant (repeat);
#X text 16 554 - Erreur dans la fenêtre Pd:;
#X text 14 274 Il faut cocher compatible avec certaines cartes video
\, de certains PC \, sous Windows...;
#X text 15 300 Compatible Off -> mode 1: TEXTURE_RECTANGLE;
#X text 15 312 Compatible On -> mode 0: TEXTURE_2D;
#X text 8 5 - GEM On ouvre une fenetre;
#X text 134 127 g / G -> GEM On/Off;
#X text 135 141 f / F -> FullScreen On/Off;
#X text 136 154 b /B -> Menu bar On/Off;
#X text 136 168 Echap / Esc -> FullScreen Off;
#X text 17 400 16/9 = 512/288 = 1024/576 = 1152/648 = 1280/720 = 1440/810
;
#X text 11 388 16/10 = 512/320 = 1024/640 = 1152/720 = 1280x800 = 1440/900
;
#X text 345 375 = 1280/960;
#X text 22 376 4/3 = 160/120 = 320/240 = 512/384 = 640/480 = 1024x768
;
#X text 121 222 ou Echap / Esc...;
#X text 13 248 - Compatible envoie le message mode 1 ou mode 0 à tous
les objets pix_texture des autres modules;
#X text 24 647 Suppression KeyShortCut On toujours;
#X text 12 630 Change par rapport version 2 8 2011:;
#X text 25 660 mrpeach/str to_list remplace par iemlib/iem_symtoalist
;
#X restore 474 104 pd Help;
#X obj 101 101 cnv 22 183 69 empty empty GEM. 5 12 1 18 -1 -262144
1.04858e+06;
#X obj 191 154 tgl 12 1 \$0-A \$0-ColorGEM (F)ullScreen 15 7 1 11 -24198
-1 -24198 0 1;
#X obj 103 124 tgl 12 1 \$0-A \$0-ColorGEM (G)EM 15 7 1 11 -24198 -1
-24198 1 1;
#X obj 191 105 nbx 2 12 1 30 0 1 \$0-A \$0-ColorGEM Frames/sec 26 7
1 11 -24198 -1 -24198 15 256;
#X obj 191 139 tgl 12 1 \$0-A \$0-ColorGEM KeyShortCut 15 7 1 11 -24198
-1 -24198 0 1;
#X obj 283 -26 key;
#X msg 15 462 create;
#X msg 429 460 destroy;
#X msg 387 460 reset;
#X msg 296 460 fullscreen \$1;
#X msg 489 460 0;
#X obj 78 251 sel 1;
#X msg 296 298 set \$1;
#X msg 95 204 set \$1;
#X msg 78 229 1;
#X msg -80 461 frame \$1;
#X obj 462 395 t b b;
#X obj 429 418 delay 200;
#X msg 64 461 dimen 640 480;
#X msg -15 463 1;
#X obj 283 11 spigot;
#X obj 516 391 select 0 1;
#X obj 78 178 t b f f f;
#X msg 532 438 color 16 22 16;
#X msg 517 415 color 0 22 0;
#X obj 188 67 select 65 97 70 102 76 108 71 103 66 98;
#X obj -25 -25 r SendGEM;
#X obj 517 483 s \$0-ColorGEM;
#X obj 191 124 tgl 12 1 SendMode \$0-ColorGEM Compatible 15 7 1 11
-24198 -1 -24198 0 1;
#X msg -21 134 0;
#X obj 103 154 hradio 12 1 1 3 \$0-A \$0-ColorGEM 640x480 39 7 1 11
-24198 -1 -24198 1;
#X obj 248 178 t b f;
#N canvas 0 22 450 300 Dimension 0;
#X obj 169 76 sel 0 1 2;
#X msg 203 141 set dimen 1280 720;
#X msg 187 183 set dimen 640 480;
#X msg 169 225 set dimen 320 240;
#X msg 198 162 label 640x480;
#X msg 213 120 label 1280x720;
#X msg 179 204 label 320x240;
#X obj 169 50 inlet;
#X obj 103 257 outlet;
#X obj 303 259 outlet;
#X connect 0 0 3 0;
#X connect 0 0 6 0;
#X connect 0 1 2 0;
#X connect 0 1 4 0;
#X connect 0 2 1 0;
#X connect 0 2 5 0;
#X connect 1 0 9 0;
#X connect 2 0 9 0;
#X connect 3 0 9 0;
#X connect 4 0 8 0;
#X connect 5 0 8 0;
#X connect 6 0 8 0;
#X connect 7 0 0 0;
#X restore 275 213 pd Dimension;
#X obj 78 325 select linux macos windows;
#X text 150 -29 Sortir de fullscreen;
#X text 146 -19 sous Linux avec Esc ->;
#X text -70 37 Sortir de fullscreen;
#X text -82 47 sous MacOS avec Esc ->;
#X msg 345 298 set \$1;
#X msg 157 437 1;
#X obj 187 179 t b f;
#X msg 157 461 border \$1 \, menubar \$1;
#X obj 103 139 tgl 12 1 \$0-A \$0-ColorGEM (B)arMenu 15 7 1 11 -24198
-1 -24198 1 1;
#X obj 36 16 spigot;
#X obj 69 -6 == 0;
#X obj 146 204 t b f b;
#X obj -21 112 t b b;
#X msg 6 158 set 1;
#X obj -32 500 cnv 15 120 30 empty empty empty 20 12 0 14 -258113 -66577
0;
#X obj -15 507 s RenderGEM;
#X obj 15 415 delay 300;
#X obj -15 438 delay 300;
#X msg 296 434 0;
#X obj 64 391 delay 300;
#X obj 129 361 t b b b;
#X obj 78 361 t b b b;
#X obj 78 414 spigot;
#X obj 263 298 == 0;
#X obj 78 275 t b b b b;
#X obj 78 302 zexy/operating_system;
#X obj 56 -28 gemkeyname;
#X obj 169 511 gemwin;
#X text 289 115 27 3 2017;
#X obj 520 505 cnv 15 42 25 empty empty empty 20 12 0 14 -24198 -66577
0;
#N canvas 336 174 309 137 ?. 0;
#X obj 3 83 cnv 15 300 46 empty empty empty 20 12 0 14 -224896 -66577
0;
#X obj 3 6 cnv 18 300 70 empty empty ARGOPdMiniModules 3 10 1 14 -4033
-1 1.04858e+06;
#X obj 26 26 cnv 10 10 10 empty empty Gerard 0 5 1 11 -4033 -1 1.04858e+06
;
#X obj 64 26 cnv 10 10 10 empty empty Paresys 0 5 1 11 -4033 -1 1.04858e+06
;
#X obj 7 37 pddp/pddplink http://gerard.paresys.free.fr/ARGOPd/;
#X text 8 85 Construit sous / Build under Pd 0.43.4-extended;
#X obj 8 111 pddp/pddplink http://puredata.info/downloads/pd-extended
;
#X obj 7 50 pddp/pddplink http://paresys.pagesperso-orange.fr/ARGOPd/
;
#X text 7 98 or Pd-0.46-7 + deken;
#X restore 524 509 pd ?.;
#X obj 59 40 iemlib/iem_symtoalist;
#X obj 91 67 select 27;
#X obj -47 67 select f F g G b B;
#X connect 3 0 47 0;
#X connect 4 0 24 0;
#X connect 5 0 17 0;
#X connect 6 0 22 1;
#X connect 7 0 22 0;
#X connect 7 0 68 0;
#X connect 8 0 63 0;
#X connect 9 0 63 0;
#X connect 10 0 63 0;
#X connect 11 0 63 0;
#X connect 12 0 63 0;
#X connect 13 0 60 0;
#X connect 13 1 18 0;
#X connect 14 0 54 0;
#X connect 15 0 16 0;
#X connect 16 0 13 0;
#X connect 17 0 63 0;
#X connect 18 0 19 0;
#X connect 18 1 12 0;
#X connect 19 0 9 0;
#X connect 20 0 63 0;
#X connect 21 0 51 0;
#X connect 21 0 63 0;
#X connect 22 0 27 0;
#X connect 23 0 26 0;
#X connect 23 1 25 0;
#X connect 24 0 16 0;
#X connect 24 1 15 0;
#X connect 24 3 23 0;
#X connect 25 0 29 0;
#X connect 26 0 29 0;
#X connect 27 2 3 0;
#X connect 27 3 3 0;
#X connect 27 6 4 0;
#X connect 27 7 4 0;
#X connect 27 8 44 0;
#X connect 27 9 44 0;
#X connect 28 0 4 0;
#X connect 31 0 3 0;
#X connect 32 0 33 0;
#X connect 33 0 16 0;
#X connect 33 1 34 0;
#X connect 34 0 32 0;
#X connect 34 1 20 0;
#X connect 35 0 57 0;
#X connect 35 1 56 0;
#X connect 35 2 57 0;
#X connect 40 0 41 0;
#X connect 41 0 43 0;
#X connect 42 0 16 0;
#X connect 42 1 40 0;
#X connect 43 0 63 0;
#X connect 44 0 42 0;
#X connect 45 0 67 0;
#X connect 45 0 69 0;
#X connect 46 0 45 1;
#X connect 47 0 16 0;
#X connect 47 1 14 0;
#X connect 47 1 59 0;
#X connect 48 0 31 0;
#X connect 48 1 49 0;
#X connect 49 0 44 0;
#X connect 49 0 41 0;
#X connect 52 0 8 0;
#X connect 52 0 53 0;
#X connect 53 0 21 0;
#X connect 54 0 11 0;
#X connect 55 0 52 0;
#X connect 55 0 20 0;
#X connect 56 0 55 0;
#X connect 56 1 41 0;
#X connect 56 2 54 0;
#X connect 57 0 52 0;
#X connect 57 1 54 0;
#X connect 57 2 58 0;
#X connect 58 0 20 0;
#X connect 59 0 58 1;
#X connect 60 0 61 0;
#X connect 60 1 10 0;
#X connect 60 2 9 0;
#X connect 60 3 12 0;
#X connect 61 0 35 0;
#X connect 62 0 46 0;
#X connect 62 1 45 0;
#X connect 67 0 68 0;
#X connect 68 0 48 0;
#X connect 69 0 3 0;
#X connect 69 1 3 0;
#X connect 69 2 4 0;
#X connect 69 3 4 0;
#X connect 69 4 44 0;
#X connect 69 5 44 0;
#X coords 0 -1 1 1 185 71 1 100 100;
#X restore 118 44 pd ARGO;
#N canvas 404 91 348 345 ARGO 0;
#X text 80 84 gemlist;
#X obj 92 229 pix_texture;
#X obj 92 37 inlet;
#X msg 250 181 quality \$1;
#X msg 48 108 set \$1;
#X obj 101 101 cnv 10 144 40 empty ColorForm empty 20 12 0 14 -228856
-1 1.04858e+06;
#X obj 101 101 cnv 4 10 4 empty empty empty 20 12 0 14 -128992 -66577
0;
#X obj 164 105 cnv 10 20 10 empty ColorForm GEM-Direct. 1 5 1 14 -228856
-1 1.04858e+06;
#X obj 100 118 tgl 12 1 \$0-A ColorGEM Quality 15 6 1 9 -262144 -1
-1 1 1;
#X obj 100 106 tgl 12 1 \$0-A ColorGEM On/Off 15 6 1 9 -262144 -1 -1
1 1;
#X obj 151 182 int;
#X obj 4 238 cnv 15 60 30 empty empty empty 20 12 0 14 -24198 -66577
0;
#N canvas 379 113 451 562 Help 0;
#X obj 13 281 cnv 15 400 150 empty empty empty 20 12 0 14 -258113 -66577
0;
#X text 16 284 - Erreur dans la fenêtre Pd:;
#X text 28 337 Se produit avec certaines cartes video \, de certains
PC \, sous Windows...;
#X text 28 365 Inconvenient: Charge CPU => la texture est calculée
(objet pix_texture) par le processeur de l'ordinateur et pas par la
carte video);
#X text 28 302 GL: énumérant non valide (répété);
#X text 28 313 OpenGL: invalid enumérant (repeat);
#X obj 13 35 cnv 15 430 180 empty empty empty 20 12 0 14 -233017 -66577
0;
#X text 28 51 Description: apply texture mapping;
#X text 27 69 Send a quality message to change the quality of the texture
mapping. GL_LINEAR is better than GL_NEAREST (but also more computationally
expensive). However \, on many machines (especially SGIs) \, there
is no speed difference.;
#X text 26 128 [pix_texture] tries to use the fastest way to get a
pix onto a texture. This implies using "rectangle"-texturing if available.
This \, in turn \, can lead to some problems with several geos. Try
using "rectangle 0" if you experience problems. Rectangle textures
cannot be REPEATed (they are always clamped-to-edge);
#X text 17 35 Citation;
#X text 15 -18 Envoie l'entrée remplir la fenêtre GEM;
#X text 15 -5 Send the input fill the GEM window;
#X text 4 -42 GEM-Direct;
#X text 28 325 Solution: cocher Compatible dans MM-GEM;
#X text 27 246 Utile avec certaines cartes video de certains PC sous
Windows...;
#X text 27 219 SendMode recu du MM GEM: Compatible = mode 0/1 = rectangle
0/1;
#X text 21 438 Nouveau depuis GEM-Direct 25 3 2010:;
#X text 31 451 - Ajout spigot sur l'entrée;
#X text 31 463 - Flip;
#X text 31 474 - Neg;
#X text 15 11 Neg = Négatif = Negative;
#X text 18 488 Nouveau depuis GEM-Direct 18 8 2011:;
#X text 32 504 - message rectangle au lieu de mode;
#X restore 11 244 pd Help;
#X obj 8 123 == 0;
#X obj 8 37 r SendMode;
#X obj 8 103 nbx 1 14 -1e+37 1e+37 0 1 empty empty empty 0 -6 0 10
-262144 -1 -1 0 256;
#X obj 92 180 spigot;
#X obj 162 130 hradio 12 1 1 4 \$0-A \$0-B 4x3 51 7 1 11 -262144 -1
-1 1;
#N canvas 303 128 648 228 Dimension 0;
#X obj 157 30 inlet;
#X obj 215 196 outlet;
#X obj -24 192 outlet;
#X msg 213 113 label 4x3;
#X msg 279 113 label 16x10;
#X msg 358 114 label 16x9;
#X text 248 25 4/3 = 5.33333333/4;
#X text 236 37 16/10 = 6.4/4;
#X text 242 49 16/9 = 7.11111111/4;
#X msg -157 111 5.33333;
#X msg -102 111 6.4;
#X msg -70 111 7.11111;
#X obj -41 29 inlet;
#X obj 75 31 inlet;
#X text -65 1 Flip Horizontal;
#X text 54 3 Flip Vertical;
#X obj 81 191 outlet;
#X text -32 13 0/1;
#X text 83 15 0/1;
#X obj 75 55 select 0 1;
#X msg 72 112 4;
#X msg 109 112 -4;
#X obj -24 166 *;
#X obj -41 54 select 0 1;
#X msg -14 111 1;
#X msg 22 111 -1;
#X text 248 61 3/4 = 3/4;
#X msg 145 113 label 3x4;
#X obj 157 56 sel 0 1 2 3;
#X msg -188 111 3;
#X obj -13 141 t b f;
#X connect 0 0 28 0;
#X connect 3 0 1 0;
#X connect 4 0 1 0;
#X connect 5 0 1 0;
#X connect 9 0 22 0;
#X connect 10 0 22 0;
#X connect 11 0 22 0;
#X connect 12 0 23 0;
#X connect 13 0 19 0;
#X connect 19 0 20 0;
#X connect 19 1 21 0;
#X connect 20 0 16 0;
#X connect 21 0 16 0;
#X connect 22 0 2 0;
#X connect 23 0 24 0;
#X connect 23 1 25 0;
#X connect 24 0 30 0;
#X connect 25 0 30 0;
#X connect 27 0 1 0;
#X connect 28 0 29 0;
#X connect 28 0 27 0;
#X connect 28 1 9 0;
#X connect 28 1 3 0;
#X connect 28 2 10 0;
#X connect 28 2 4 0;
#X connect 28 3 11 0;
#X connect 28 3 5 0;
#X connect 29 0 22 0;
#X connect 30 0 22 0;
#X connect 30 1 22 1;
#X restore 133 257 pd Dimension;
#X obj 92 284 rectangle 4 4;
#X obj 100 130 tgl 12 1 \$0-A \$0-B empty 15 6 1 9 -262144 -1 -1 0
1;
#X obj 112 130 tgl 12 1 \$0-A \$0-B Flip 15 7 1 9 -262144 -1 -1 0 1
;
#X msg 8 180 rectangle \$1;
#X obj 162 118 hradio 12 1 1 3 \$0-A \$0-B Normal 38 7 1 11 -262144
-1 -1 0;
#N canvas 588 245 450 300 env 0;
#X msg 4 198 env 5;
#X msg 49 197 env 2;
#X obj 138 75 pipe 500;
#X text 211 84 sous Linux;
#X text 193 74 <- Sinon plantage;
#X text 212 94 et Pd-extended-42.5;
#X msg 342 93 env \$1;
#X obj 341 72 nbx 5 14 -1e+37 1e+37 0 0 empty empty empty 0 -8 0 10
-262144 -1 -1 0 256;
#X obj 341 50 bng 15 250 50 0 empty empty empty 17 7 0 10 -262144 -1
-1;
#X obj 138 98 sel 0 1 2;
#X msg 92 197 env 3;
#X msg 174 198 label Normal;
#X msg 260 199 label Negative;
#X msg 357 200 label White;
#X obj 140 19 inlet;
#X obj 264 244 outlet;
#X obj 88 241 outlet;
#X connect 0 0 16 0;
#X connect 1 0 16 0;
#X connect 2 0 9 0;
#X connect 6 0 16 0;
#X connect 7 0 6 0;
#X connect 8 0 7 0;
#X connect 9 0 0 0;
#X connect 9 0 11 0;
#X connect 9 1 1 0;
#X connect 9 1 12 0;
#X connect 9 2 10 0;
#X connect 9 2 13 0;
#X connect 10 0 16 0;
#X connect 11 0 15 0;
#X connect 12 0 15 0;
#X connect 13 0 15 0;
#X connect 14 0 2 0;
#X restore 198 180 pd env;
#X obj 273 273 cnv 15 42 25 empty empty empty 20 12 0 14 -24198 -66577
0;
#N canvas 336 174 309 137 ?. 0;
#X obj 3 83 cnv 15 300 46 empty empty empty 20 12 0 14 -224896 -66577
0;
#X obj 3 6 cnv 18 300 70 empty empty ARGOPdMiniModules 3 10 1 14 -4033
-1 1.04858e+06;
#X obj 26 26 cnv 10 10 10 empty empty Gerard 0 5 1 11 -4033 -1 1.04858e+06
;
#X obj 64 26 cnv 10 10 10 empty empty Paresys 0 5 1 11 -4033 -1 1.04858e+06
;
#X obj 7 37 pddp/pddplink http://gerard.paresys.free.fr/ARGOPd/;
#X text 8 85 Construit sous / Build under Pd 0.43.4-extended;
#X obj 8 111 pddp/pddplink http://puredata.info/downloads/pd-extended
;
#X obj 7 50 pddp/pddplink http://paresys.pagesperso-orange.fr/ARGOPd/
;
#X text 7 98 or Pd-0.46-7 + deken;
#X restore 277 277 pd ?.;
#X text 204 84 24 11 2017;
#X connect 1 0 19 0;
#X connect 2 0 16 0;
#X connect 3 0 1 0;
#X connect 4 0 9 0;
#X connect 8 0 3 0;
#X connect 9 0 10 0;
#X connect 9 0 16 1;
#X connect 10 0 1 0;
#X connect 10 0 4 0;
#X connect 13 0 22 0;
#X connect 14 0 15 0;
#X connect 15 0 13 0;
#X connect 16 0 1 0;
#X connect 17 0 18 2;
#X connect 18 0 19 1;
#X connect 18 1 19 2;
#X connect 18 2 17 0;
#X connect 20 0 18 0;
#X connect 21 0 18 1;
#X connect 22 0 1 0;
#X connect 23 0 24 0;
#X connect 24 0 1 0;
#X connect 24 1 23 0;
#X coords 0 -1 1 1 146 42 1 100 100;
#X restore 130 296 pd ARGO;
#N canvas 352 215 398 185 ARGO 0;
#X obj 101 101 cnv 10 208 17 empty ColorForm empty 20 12 0 14 -228856
-1 1.04858e+06;
#X obj 101 101 cnv 4 10 4 empty empty empty 20 12 0 14 -128992 -66577
0;
#X obj 244 106 cnv 10 20 10 empty ColorForm GEM-Info. 1 5 1 14 -228856
-1 1.04858e+06;
#X text 83 80 gemlist;
#X obj 101 14 inlet;
#X obj 179 14 loadbang;
#X obj 179 44 delay 1000;
#X obj 11 22 cnv 15 60 30 empty empty empty 20 12 0 14 -24198 -66577
0;
#N canvas 599 156 412 359 Help 0;
#X obj 7 227 cnv 15 400 70 empty empty empty 20 12 0 14 -224896 -66577
0;
#X text 11 227 - Erreur dans la fenêtre Pd:;
#X obj 6 67 cnv 15 400 140 empty empty empty 20 12 0 14 -233017 -66577
0;
#X text 9 66 Citation;
#X text 23 85 [pix_info] will give you some meta-information about
the image data consisting of the image-dimensions \, the pixel-size
\, the colour-space and the pointer to the image-data itself.;
#X text 23 138 The colour-space is given as an openGL-int-constant.
(6408=GL_RGBA (rgba) \, 6409=GL_LUMINANCE (grey) \, 34233 might be
YUV (not standardized);
#X text 22 175 You might not be able to do anything with the data-pointer.
;
#X text 18 14 RGB = Red Green Blue = 6407 decimal = 1907 hexa;
#X text 18 44 YUV = Luma \, ChromaB \, ChromaR = 34233 decimal = 85B9
hexa;
#X text 12 29 RGBA = Red Green Blue Alpha = 6408 decimal = 1908 hexa
;
#X text 12 0 Grey = Niveaux de gris = 6409 decimal = 1909 hexa;
#X text 12 -19 GEM-Info;
#X restore 18 29 pd Help;
#X text 13 136 Préférer des images dont la taille en pixels est un
multiple de 8x8 pixels (cf library PDP... et GEM?);
#N canvas 129 203 499 395 Geminfo 0;
#X obj 34 23 inlet;
#X obj 123 27 inlet;
#X obj 15 357 outlet;
#X text 27 4 gemlist;
#X text 127 9 bang;
#X text 20 373 label;
#X obj 33 57 pix_info;
#X obj 12 139 change;
#X obj 59 139 change;
#X obj 158 136 change;
#X obj 185 194 sel 32993 34233 6409 6408 32992 6407;
#X msg 14 333 label \$1;
#X msg 185 233 RGBA;
#X msg 221 233 YUV;
#X msg 256 233 Grey;
#X msg 327 233 RGB;
#X msg 398 233 ?;
#X text 225 285 <- ATTENTION jamais d'espace dans un label;
#X obj 11 234 clip 0 100000;
#X obj 99 234 clip 0 100000;
#X msg 175 87 0;
#X obj 124 57 t b b b b;
#X obj 158 168 t b f;
#X obj 59 171 t b f;
#X obj 105 137 change;
#X obj 105 169 t b f;
#X obj 13 285 cyclone/sprintf %dx%d--%s--%dbytes;
#X obj 14 311 cyclone/tosymbol;
#X connect 0 0 6 0;
#X connect 1 0 21 0;
#X connect 6 1 7 0;
#X connect 6 2 8 0;
#X connect 6 3 24 0;
#X connect 6 4 9 0;
#X connect 7 0 18 0;
#X connect 8 0 23 0;
#X connect 9 0 22 0;
#X connect 10 0 12 0;
#X connect 10 1 13 0;
#X connect 10 2 14 0;
#X connect 10 3 12 0;
#X connect 10 4 15 0;
#X connect 10 5 15 0;
#X connect 10 6 16 0;
#X connect 11 0 2 0;
#X connect 12 0 26 2;
#X connect 13 0 26 2;
#X connect 14 0 26 2;
#X connect 15 0 26 2;
#X connect 16 0 26 2;
#X connect 18 0 26 0;
#X connect 19 0 26 1;
#X connect 20 0 9 0;
#X connect 20 0 8 0;
#X connect 20 0 7 0;
#X connect 21 0 7 0;
#X connect 21 1 8 0;
#X connect 21 2 9 0;
#X connect 21 3 20 0;
#X connect 22 0 18 0;
#X connect 22 1 10 0;
#X connect 23 0 18 0;
#X connect 23 1 19 0;
#X connect 24 0 25 0;
#X connect 25 0 18 0;
#X connect 25 1 26 3;
#X connect 26 0 27 0;
#X connect 27 0 11 0;
#X restore 101 43 pd Geminfo;
#X obj 101 106 bng 12 250 50 0 \$0-A \$0-B 600x600--RGBA--4bytes 15
7 1 11 -262144 -1 -1;
#X text 5 101 Reload Image ->;
#X text 251 81 22 11 2017;
#X obj 333 106 cnv 15 42 25 empty empty empty 20 12 0 14 -24198 -66577
0;
#N canvas 336 174 309 137 ?. 0;
#X obj 3 83 cnv 15 300 46 empty empty empty 20 12 0 14 -224896 -66577
0;
#X obj 3 6 cnv 18 300 70 empty empty ARGOPdMiniModules 3 10 1 14 -4033
-1 1.04858e+06;
#X obj 26 26 cnv 10 10 10 empty empty Gerard 0 5 1 11 -4033 -1 1.04858e+06
;
#X obj 64 26 cnv 10 10 10 empty empty Paresys 0 5 1 11 -4033 -1 1.04858e+06
;
#X obj 7 37 pddp/pddplink http://gerard.paresys.free.fr/ARGOPd/;
#X text 8 85 Construit sous / Build under Pd 0.43.4-extended;
#X obj 8 111 pddp/pddplink http://puredata.info/downloads/pd-extended
;
#X obj 7 50 pddp/pddplink http://paresys.pagesperso-orange.fr/ARGOPd/
;
#X text 7 98 or Pd-0.46-7 + deken;
#X restore 337 110 pd ?.;
#X connect 4 0 10 0;
#X connect 5 0 6 0;
#X connect 6 0 11 0;
#X connect 10 0 11 0;
#X connect 11 0 10 1;
#X coords 0 -1 1 1 210 19 1 100 100;
#X restore 153 259 pd ARGO;
#N canvas 358 45 466 323 ARGO 0;
#X obj 263 45 cnv 15 60 30 empty empty empty 20 12 0 14 -24198 -66577
0;
#N canvas 537 176 286 105 Help 0;
#X text 15 20 Un "Bang" sort X fois par minute.;
#X text 13 52 A "Bang" outputs X times per minute.;
#X restore 270 51 pd Help;
#X obj 200 32 inlet;
#X obj 195 249 cnv 15 170 24 empty empty empty 20 12 0 14 -261682 -66577
0;
#X obj 200 253 outlet;
#X obj 201 101 cnv 10 132 35 empty ColorForm Metronome. 53 9 1 14 -208064
-1 1.04858e+06;
#X obj 200 124 bng 12 50 10 0 \$0-A \$0-B empty 14 6 1 9 -262144 -1
-1;
#X obj 201 132 cnv 4 10 4 empty empty empty 20 12 0 14 -260097 -66577
0;
#X obj 200 112 nbx 3 12 1 999 0 1 \$0-A ColorTime BPM 36 8 1 11 -208064
-1 -1 60 256;
#X obj 200 100 tgl 12 1 \$0-A \$0-B empty 17 7 0 10 -262144 -1 -1 1
1;
#X obj 7 96 cnv 15 190 20 empty empty empty 20 12 0 14 -261682 -66577
0;
#X text 8 97 1: Play 0: Stop bang: Change ->;
#X obj 201 101 cnv 4 10 4 empty empty empty 20 12 0 14 -260097 -66577
0;
#X obj 120 183 metro 300;
#X obj 171 160 expr 60000 / $f1;
#X text 205 286 Bang;
#X text 213 272 |;
#X text 213 277 v;
#X obj 376 235 cnv 15 42 25 empty empty empty 20 12 0 14 -24198 -66577
0;
#N canvas 336 174 316 152 ?. 0;
#X obj 8 84 cnv 15 300 56 empty empty empty 20 12 0 14 -224896 -66577
0;
#X obj 8 7 cnv 18 300 70 empty empty ARGOPdMiniModules 3 10 1 14 -4033
-1 1.04858e+06;
#X obj 31 27 cnv 10 10 10 empty empty Gerard 0 5 1 11 -4033 -1 1.04858e+06
;
#X obj 69 27 cnv 10 10 10 empty empty Paresys 0 5 1 11 -4033 -1 1.04858e+06
;
#X obj 12 40 pddp/pddplink http://gerard.paresys.free.fr/ARGOPd/;
#X text 13 85 Construit sous / Build under Pd 0.43.4-extended;
#X obj 13 111 pddp/pddplink http://puredata.info/downloads/pd-extended
;
#X obj 12 53 pddp/pddplink http://paresys.pagesperso-orange.fr/ARGOPd/
;
#X text 12 98 or Pd-0.48;
#X obj 13 124 pddp/pddplink http://puredata.info/downloads/pure-data
;
#X restore 380 239 pd ?.;
#X text 277 83 8 6 2018;
#X connect 2 0 9 0;
#X connect 6 0 4 0;
#X connect 8 0 14 0;
#X connect 9 0 13 0;
#X connect 13 0 6 0;
#X connect 14 0 13 1;
#X coords 0 -1 1 1 134 37 2 200 100;
#X restore 130 122 pd ARGO;
#X connect 7 0 16 0;
#X connect 7 0 17 0;
#X connect 18 0 7 0;
