#N canvas 350 23 677 589 10;
#X obj 7 6 cnv 15 15 15 empty empty ExMM143b-File-Sonification.pd 0
8 1 14 -262144 -66577 0;
#X obj 53 301 nbx 5 14 -1e+37 1e+37 0 0 empty empty empty 0 -8 0 10
-262144 -1 -1 78 256;
#X msg 419 108 0;
#X text 369 107 Stop ->;
#X text 70 371 Niveau general ->;
#X text 76 382 General level ->;
#X obj 160 547 dac~ 1 2;
#X text 33 36 Lettre A -> Code ASCII = 65 -> Code MIDI Note = 65 ->
F3;
#X text 33 49 Lettre Z -> Code ASCII = 90 -> Code MIDI Note = 90 ->
Gb5;
#X obj 269 487 pddp/pddplink http://fr.wikipedia.org/wiki/Protéine
;
#X obj 269 499 pddp/pddplink http://fr.wikipedia.org/wiki/Acide_aminé
;
#X obj 269 510 pddp/pddplink http://www.uniprot.org/uniprot/P04156
;
#X text 268 430 Prion.txt est un fichier au format texte constitué
de 253 lettres majuscules correspondant à la séquence des 253 acides
aminés codant une protéine: le prion humain. Il y a 22 acides aminés
différents notés: ACDEFGHIKLMNOPQRSTUVWY.;
#X text 269 537 On peut entendre la répétition 4 fois de la séquence:
GGGWGQPH.;
#X obj 322 130 cnv 15 52 25 empty empty empty 20 12 0 14 -24198 -66577
0;
#X text 323 133 Start ->;
#X obj 33 62 pddp/pddplink http://fr.wikipedia.org/wiki/American_Standard_Code_for_Information_Interchange
;
#X obj 34 74 pddp/pddplink http://fr.wikipedia.org/wiki/Musical_Instrument_Digital_Interface
;
#X text 177 173 V;
#X text 177 166 |;
#X text 105 153 Octet suivant;
#X text 119 165 Next byte;
#X obj 177 251 cyclone/split 65 90;
#X obj 201 145 cnv 15 70 25 empty empty empty 20 12 0 14 -24198 -66577
0;
#X text 201 148 Début/Begin;
#X text 231 166 V;
#X text 231 159 |;
#X obj 481 214 cnv 15 180 25 empty empty empty 20 12 0 14 -24198 -66577
0;
#X text 479 213 -> Bang à la fin du fichier;
#X text 479 222 -> Bang at the end of the file;
#X text 297 251 <--- Elimination des codes ASCII <65 et >90;
#X obj 604 546 cnv 15 52 22 empty empty empty 20 12 0 14 -24198 -66577
0;
#N canvas 353 174 321 152 ?... 0;
#X obj 8 84 cnv 15 300 56 empty empty empty 20 12 0 14 -224896 -66577
0;
#X obj 8 7 cnv 18 300 70 empty empty ARGOPdMiniModules 3 10 1 14 -4033
-1 1.04858e+06;
#X obj 31 27 cnv 10 10 10 empty empty Gerard 0 5 1 11 -4033 -1 1.04858e+06
;
#X obj 69 27 cnv 10 10 10 empty empty Paresys 0 5 1 11 -4033 -1 1.04858e+06
;
#X obj 12 40 pddp/pddplink http://gerard.paresys.free.fr/ARGOPd/;
#X obj 13 121 pddp/pddplink http://puredata.info/downloads/pd-extended
;
#X obj 13 97 pddp/pddplink http://puredata.info/downloads/pure-data
;
#X text 13 85 Construit sous / Build under Pd-0.49...;
#X text 12 109 or Pd 0.43.4-extended;
#X obj 12 53 pddp/pddplink https://paresys.pagesperso-orange.fr/ARGOPd/
;
#X restore 607 549 pd ?...;
#N canvas 299 59 758 440 ARGO 0;
#X obj 302 102 cnv 10 20 10 empty empty File. 1 5 1 14 -262144 -1 1.04858e+06
;
#X obj 4 91 openpanel;
#X msg 36 136 set \$1;
#X obj 216 39 loadbang;
#X obj 4 69 bang;
#X text 400 113 <- Click the name to change;
#X obj 30 174 cnv 15 400 50 empty empty empty 20 12 0 14 -260097 -66577
0;
#X text 32 173 Nom du fichier / File name;
#X text 432 182 <- Ajouter ../ devant le nom du fichier \; pour remonter
d'un dossier;
#X obj 570 45 cnv 15 60 30 empty empty empty 20 12 0 14 -24198 -66577
0;
#N canvas 447 110 429 226 Help 0;
#X obj 12 68 cnv 15 400 100 empty empty empty 20 12 0 14 -233017 -66577
0;
#X text 17 70 Citation;
#X text 23 32 Lit un fichier octet par octet;
#X text 27 89 The binfile object reads and writes binary files to and
from a buffer in memory. You can read a file and output its contents
one byte at a time as floats.;
#X text 210 137 Martin Peach 2009/10/13;
#X text 11 12 MM File;
#X restore 577 51 pd Help;
#X obj 5 111 t b b s;
#X obj 388 132 bng 12 50 20 0 \$0-A \$0-B empty 14 6 1 9 -262144 -1
-1;
#X obj 389 140 cnv 4 10 4 empty empty empty 20 12 0 14 -260097 -66577
0;
#X obj 383 372 cnv 15 240 24 empty empty empty 20 12 0 14 -261682 -66577
0;
#X text 433 370 -> Bang à la fin du fichier;
#X text 434 380 -> Bang at the end of the file;
#X obj 388 376 outlet;
#X obj 111 376 outlet;
#X obj 101 140 cnv 4 10 4 empty empty empty 20 12 0 14 -260097 -66577
0;
#X msg 59 313 rewind;
#X obj 25 263 t b b a;
#X obj 152 100 bng 12 250 50 0 \$0-A \$0-B Begin 14 7 1 9 -262144 -1
-1;
#X obj 100 101 bng 12 250 50 0 \$0-A \$0-B Byte 14 7 1 9 -262144 -1
-1;
#X obj 101 101 cnv 4 10 4 empty empty empty 20 12 0 14 -260097 -66577
0;
#X obj 4 36 cnv 15 170 24 empty empty empty 20 12 0 14 -261682 -66577
0;
#X text 4 43 Input anything message ->;
#X text 4 33 N'importe quel message ->;
#X obj 162 39 inlet;
#X obj 218 100 bng 12 250 50 0 \$0-A \$0-B Info 14 7 1 9 -262144 -1
-1;
#X obj 232 376 outlet;
#X symbolatom 232 129 2 0 0 0 - - -;
#X obj 214 262 moocow/bytes2any 128 0;
#X obj 247 140 cnv 4 10 4 empty empty empty 20 12 0 14 -260097 -66577
0;
#X obj 125 348 mrpeach/binfile;
#X obj 112 133 nbx 3 12 0 255 0 0 \$0-A \$0-B empty 0 -8 1 9 -262144
-1 -1 78 256;
#X msg 199 313 info;
#X obj 160 376 print Info;
#X obj 202 137 cnv 5 5 5 empty empty ASCII: 0 3 1 9 -262144 -66577
0;
#X msg 133 313 read \$1;
#X obj 133 236 select 123 125;
#X text 362 239 Watch out! ASCII characters 123 and 125 (curly braces)
lock up Pd. Also \, reserved characters that Pd uses show up with a
backslash in front of them (comma \, semi-colon \, and backslash).
;
#X obj 104 113 hsl 291 15 0 127 0 0 \$0-A \$0-B empty -2 -8 0 10 -262144
-262144 -1 0 1;
#X symbolatom 101 113 49 0 0 0 - - -;
#X text 331 83 21 7 2019;
#X obj 25 238 zexy/list2symbol;
#X obj 214 285 cyclone/tosymbol;
#X obj 661 362 cnv 15 52 22 empty empty empty 20 12 0 14 -24198 -66577
0;
#N canvas 353 174 321 152 ?... 0;
#X obj 8 84 cnv 15 300 56 empty empty empty 20 12 0 14 -224896 -66577
0;
#X obj 8 7 cnv 18 300 70 empty empty ARGOPdMiniModules 3 10 1 14 -4033
-1 1.04858e+06;
#X obj 31 27 cnv 10 10 10 empty empty Gerard 0 5 1 11 -4033 -1 1.04858e+06
;
#X obj 69 27 cnv 10 10 10 empty empty Paresys 0 5 1 11 -4033 -1 1.04858e+06
;
#X obj 12 40 pddp/pddplink http://gerard.paresys.free.fr/ARGOPd/;
#X obj 13 121 pddp/pddplink http://puredata.info/downloads/pd-extended
;
#X obj 13 97 pddp/pddplink http://puredata.info/downloads/pure-data
;
#X text 13 85 Construit sous / Build under Pd-0.49...;
#X text 12 109 or Pd 0.43.4-extended;
#X obj 12 53 pddp/pddplink https://paresys.pagesperso-orange.fr/ARGOPd/
;
#X restore 664 365 pd ?...;
#X msg 34 192 Prion.txt;
#X connect 1 0 11 0;
#X connect 2 0 49 0;
#X connect 3 0 49 0;
#X connect 4 0 1 0;
#X connect 11 1 49 0;
#X connect 11 2 2 0;
#X connect 12 0 17 0;
#X connect 20 0 34 0;
#X connect 21 1 20 0;
#X connect 21 2 39 0;
#X connect 22 0 20 0;
#X connect 23 0 34 0;
#X connect 28 0 23 0;
#X connect 29 0 36 0;
#X connect 31 0 30 0;
#X connect 32 0 46 0;
#X connect 34 0 35 0;
#X connect 34 1 37 0;
#X connect 34 2 12 0;
#X connect 35 0 18 0;
#X connect 35 0 40 0;
#X connect 36 0 34 0;
#X connect 39 0 34 0;
#X connect 40 2 32 0;
#X connect 42 0 4 0;
#X connect 45 0 21 0;
#X connect 45 0 43 0;
#X connect 46 0 31 0;
#X connect 49 0 45 0;
#X coords 0 -1 1 1 300 45 2 100 100;
#X restore 177 189 pd ARGO;
#X obj 542 76 switch~;
#N canvas 608 166 228 173 ARGOnOff 0;
#X obj 100 100 tgl 18 1 \$0-SendOnOff \$0-ReceiveOnOff On/Off 20 11
1 14 -4033 -1 -1 1 1;
#X obj 99 10 loadbang;
#X msg 99 33 \; pd dsp 1;
#X obj 100 129 outlet;
#X text -50 99 Audio On/Off du patch ->;
#X text -22 45 Audio General On ->;
#X text 107 82 17 3 2010;
#X connect 0 0 3 0;
#X connect 1 0 2 0;
#X coords 0 -1 1 1 65 18 2 100 100;
#X restore 542 58 pd ARGOnOff;
#X text 547 42 V;
#X text 547 35 |;
#X text 535 24 On/Off Patch;
#X text 565 36 (Audio);
#N canvas 175 68 374 396 ARGO 0;
#X obj 101 101 cnv 20 116 34 empty ColorAmpli empty 20 12 0 14 -261299
-1 1.04858e+06;
#X obj 85 353 outlet~;
#X obj 157 104 cnv 10 20 10 empty ColorAmpli Ampli. 1 5 1 14 -261299
-1 1.04858e+06;
#X obj 85 43 inlet~;
#X obj 85 330 *~;
#X obj 115 118 hsl 101 12 -80 20 0 1 \$0-A ColorAmpli 20dB 0 7 1 9
-261299 -1 -1 10000 0;
#X obj 101 101 cnv 4 10 4 empty empty empty 20 12 0 14 -1 -66577 0
;
#X obj 101 131 cnv 4 10 4 empty empty empty 20 12 0 14 -1 -66577 0
;
#X msg -42 139 label \$1;
#X text 148 194 -> 0.0001..10 = -80dB..20dB;
#X obj 142 175 expr (pow(10 \, $f1 / 20));
#X obj 142 215 sel 0.0001;
#X msg 100 244 0;
#X obj 100 118 tgl 12 1 \$0-A \$0-B Mute 2 -5 1 9 -261299 -1 -1 0 1
;
#X obj 99 146 select 0 1;
#X obj 140 295 line~;
#X obj 140 275 pack 0 10;
#X msg 123 74 set 0;
#X obj -42 93 cyclone/sprintf %ddB;
#X obj -42 116 cyclone/tosymbol;
#X obj 261 342 cnv 15 42 25 empty empty empty 20 12 0 14 -24198 -66577
0;
#N canvas 336 174 309 137 ?. 0;
#X obj 3 83 cnv 15 300 46 empty empty empty 20 12 0 14 -224896 -66577
0;
#X obj 3 6 cnv 18 300 70 empty empty ARGOPdMiniModules 3 10 1 14 -4033
-1 1.04858e+06;
#X obj 26 26 cnv 10 10 10 empty empty Gerard 0 5 1 11 -4033 -1 1.04858e+06
;
#X obj 64 26 cnv 10 10 10 empty empty Paresys 0 5 1 11 -4033 -1 1.04858e+06
;
#X obj 7 37 pddp/pddplink http://gerard.paresys.free.fr/ARGOPd/;
#X text 8 85 Construit sous / Build under Pd 0.43.4-extended;
#X obj 8 111 pddp/pddplink http://puredata.info/downloads/pd-extended
;
#X obj 7 50 pddp/pddplink http://paresys.pagesperso-orange.fr/ARGOPd/
;
#X text 7 98 or Pd-0.46-7 + deken;
#X restore 265 346 pd ?.;
#X text 228 110 17 3 2016;
#X connect 3 0 4 0;
#X connect 4 0 1 0;
#X connect 5 0 10 0;
#X connect 5 0 18 0;
#X connect 8 0 5 0;
#X connect 10 0 11 0;
#X connect 11 0 12 0;
#X connect 11 1 16 0;
#X connect 11 1 17 0;
#X connect 12 0 16 0;
#X connect 12 0 19 0;
#X connect 13 0 14 0;
#X connect 14 0 5 0;
#X connect 14 1 12 0;
#X connect 15 0 4 1;
#X connect 16 0 15 0;
#X connect 17 0 13 0;
#X connect 18 0 19 0;
#X connect 19 0 8 0;
#X coords 0 -1 1 1 118 36 1 100 100;
#X restore 177 361 pd ARGO;
#N canvas 432 42 236 269 ARGO 0;
#X obj 101 104 cnv 30 37 130 empty ColorAmpli empty 20 12 0 14 -1 -258113
0;
#X obj 101 110 vu 8 120 \$0-B empty 0 0 1 11 -1 -4034 1 0;
#X obj 74 34 inlet~;
#X obj 10 33 cnv 15 60 30 empty empty empty 20 12 0 14 -24198 -66577
0;
#N canvas 300 65 442 264 Help 0;
#X obj 12 48 cnv 15 400 150 empty empty empty 20 12 0 14 -233017 -66577
0;
#X text 16 50 Citation;
#X text 28 67 peakamp~ tracks and outputs the absolute value of the
peak amplitude of the incoming signal. It outputs when banged or using
its own internal clock. The peak value is reset each time peakamp~
outputs a value.;
#X text 29 123 cyclone library;
#X text 28 135 http://suita.chopin.edu.pl/~czaja/miXed/externs/cyclone.html
;
#X text 29 155 Voir doc Max/MSP MSP46ReferenceManual.pdf;
#X text 18 14 MM-Vumetre;
#X restore 17 39 pd Help;
#N canvas 541 112 317 265 VuMetre 0;
#X obj 48 19 inlet~;
#X obj 41 54 *~;
#X obj -25 132 snapshot~;
#X obj -25 155 sqrt;
#X obj -25 100 lop~ 10;
#X obj -25 179 rmstodb;
#X obj -88 19 loadbang;
#X obj -25 202 - 100;
#X obj 58 156 sqrt;
#X obj 58 180 rmstodb;
#X obj 58 203 - 100;
#X obj -89 102 metro 200;
#X obj -28 19 r SendFluid;
#X obj 58 102 cyclone/peakamp~ 1000;
#X obj -25 228 outlet;
#X obj 58 227 outlet;
#X connect 0 0 1 0;
#X connect 0 0 1 1;
#X connect 1 0 4 0;
#X connect 1 0 13 0;
#X connect 2 0 3 0;
#X connect 3 0 5 0;
#X connect 4 0 2 0;
#X connect 5 0 7 0;
#X connect 6 0 11 0;
#X connect 7 0 14 0;
#X connect 8 0 9 0;
#X connect 9 0 10 0;
#X connect 10 0 15 0;
#X connect 11 0 2 0;
#X connect 12 0 11 1;
#X connect 13 0 8 0;
#X restore 74 59 pd VuMetre;
#X obj 172 211 cnv 15 42 25 empty empty empty 20 12 0 14 -24198 -66577
0;
#N canvas 336 174 309 137 ?. 0;
#X obj 3 83 cnv 15 300 46 empty empty empty 20 12 0 14 -224896 -66577
0;
#X obj 3 6 cnv 18 300 70 empty empty ARGOPdMiniModules 3 10 1 14 -4033
-1 1.04858e+06;
#X obj 26 26 cnv 10 10 10 empty empty Gerard 0 5 1 11 -4033 -1 1.04858e+06
;
#X obj 64 26 cnv 10 10 10 empty empty Paresys 0 5 1 11 -4033 -1 1.04858e+06
;
#X obj 7 37 pddp/pddplink http://gerard.paresys.free.fr/ARGOPd/;
#X text 8 85 Construit sous / Build under Pd 0.43.4-extended;
#X obj 8 111 pddp/pddplink http://puredata.info/downloads/pd-extended
;
#X obj 7 50 pddp/pddplink http://paresys.pagesperso-orange.fr/ARGOPd/
;
#X text 7 98 or Pd-0.46-7 + deken;
#X restore 176 215 pd ?.;
#X text 127 87 3 3 2019;
#X connect 2 0 5 0;
#X connect 5 0 1 0;
#X connect 5 1 1 1;
#X coords 0 -1 1 1 39 135 2 100 100;
#X restore 220 427 pd ARGO;
#N canvas 710 109 356 327 ARGO 0;
#X obj 100 288 outlet~;
#X obj 204 23 cnv 15 60 30 empty empty empty 20 12 0 14 -24198 -66577
0;
#N canvas 667 153 424 103 Help 0;
#X text 42 28 Synth4 = Synthétiseur 4 = Synthesizer 4;
#X text 42 44 Impulsion + Filtre Passe-bande;
#X restore 211 29 pd Help;
#X obj 100 22 inlet;
#X text 30 -11 NoteMIDI;
#N canvas 499 145 264 245 Freq-v6 0;
#X obj -88 23 inlet;
#X obj -88 177 outlet;
#X text -91 194 Hslider;
#X text -93 2 Hslider;
#X obj 36 149 clip 0 20000;
#X obj 36 125 mtof;
#X obj 36 176 outlet;
#X text 33 194 Freq Hz;
#N canvas 220 243 583 317 pitchb-11-2010 0;
#X obj 77 115 mod 12;
#X obj 77 139 sel 0 1 2 3 4 5 6 7 8 9 10 11;
#X msg 253 174 A;
#X msg 307 174 B;
#X msg 199 174 G;
#X msg 10 174 C;
#X msg 64 174 D;
#X msg 118 174 E;
#X msg 145 174 F;
#X obj 211 5 inlet;
#X obj 384 119 div 12;
#X obj 211 83 t f f;
#X text 394 210 -> Numero de l'octave;
#X text 220 68 -> Numero MIDI de la note (69 = A3 = 440Hz);
#X msg 267 264 label \$1;
#X obj 267 287 outlet;
#X msg 37 174 Db;
#X msg 91 174 Eb;
#X msg 172 174 Gb;
#X msg 226 174 Ab;
#X msg 280 174 Bb;
#X text 376 82 (70 = A#3 = Bb3);
#X obj 267 242 symbol;
#X text 18 235 Impossible d'afficher # dans un label;
#X text 18 247 donc j'affiche b;
#X obj 211 55 int;
#X text 262 27 -> pour corriger certaines erreurs de calcul;
#X obj 384 148 - 12;
#X text 262 39 et le pb du passage a zero de mod 12;
#X obj 211 29 + 120.5;
#X obj 267 217 cyclone/sprintf %s%d;
#X connect 0 0 1 0;
#X connect 1 0 5 0;
#X connect 1 1 16 0;
#X connect 1 2 6 0;
#X connect 1 3 17 0;
#X connect 1 4 7 0;
#X connect 1 5 8 0;
#X connect 1 6 18 0;
#X connect 1 7 4 0;
#X connect 1 8 19 0;
#X connect 1 9 2 0;
#X connect 1 10 20 0;
#X connect 1 11 3 0;
#X connect 2 0 30 0;
#X connect 3 0 30 0;
#X connect 4 0 30 0;
#X connect 5 0 30 0;
#X connect 6 0 30 0;
#X connect 7 0 30 0;
#X connect 8 0 30 0;
#X connect 9 0 29 0;
#X connect 10 0 27 0;
#X connect 11 0 0 0;
#X connect 11 1 10 0;
#X connect 14 0 15 0;
#X connect 16 0 30 0;
#X connect 17 0 30 0;
#X connect 18 0 30 0;
#X connect 19 0 30 0;
#X connect 20 0 30 0;
#X connect 22 0 14 0;
#X connect 25 0 11 0;
#X connect 27 0 30 1;
#X connect 29 0 25 0;
#X connect 30 0 22 0;
#X restore -88 88 pd pitchb-11-2010;
#X connect 0 0 5 0;
#X connect 0 0 8 0;
#X connect 4 0 6 0;
#X connect 5 0 4 0;
#X connect 8 0 1 0;
#X restore 151 211 pd Freq-v6;
#X text 90 -11 0..127 = C-2..G8;
#X obj 101 101 cnv 6 132 56 empty ColorForm Synth4. 80 8 1 14 -262144
-1 1.04858e+06;
#X obj 100 101 bng 12 50 50 0 \$0-A \$0-B empty 14 6 1 9 -262144 -1
-1;
#X obj 101 101 cnv 4 10 4 empty empty empty 20 12 0 14 -260097 -66577
0;
#X obj 101 153 cnv 4 10 4 empty empty empty 20 12 0 14 -1 -66577 0
;
#X obj 103 129 hsl 129 12 0 128 0 1 \$0-A ColorTime Gb4 0 7 1 9 -208064
-1 -1 7800 0;
#X obj 100 47 t b f;
#X obj 127 74 select 0;
#X text 91 4 ou Bang;
#X obj 100 254 bp~;
#X obj 133 141 hsl 99 12 1 10000 1 1 \$0-A ColorForm 132 0 7 1 9 -188398
-1 -1 5200 0;
#X obj 122 144 cnv 6 2 2 empty ColorForm Q 0 4 1 9 -262144 -1 1.04858e+06
;
#X obj 100 211 vline~;
#X msg 57 183 1 \, 0 0 \$1;
#X obj 57 160 f;
#X obj 133 117 hsl 99 12 0.03 30 1 1 \$0-A ColorForm 0.26 0 7 1 9 -208064
-1 -1 3100 0;
#N canvas 0 23 450 300 label-ms 0;
#X msg 156 171 label \$1;
#X obj 156 111 expr (int(100 * $f1) / 100) \;;
#X obj 154 84 inlet;
#X obj 157 200 outlet;
#X obj 156 151 cyclone/tosymbol;
#X obj 156 131 cyclone/sprintf %s;
#X connect 0 0 3 0;
#X connect 1 0 5 0;
#X connect 2 0 1 0;
#X connect 4 0 0 0;
#X connect 5 0 4 0;
#X restore 248 116 pd label-ms;
#N canvas 375 291 195 181 label-Q 0;
#X obj 56 28 inlet;
#X obj 56 123 outlet;
#X msg 56 96 label \$1;
#X obj 56 52 int;
#X obj 56 74 cyclone/tosymbol;
#X connect 0 0 3 0;
#X connect 2 0 1 0;
#X connect 3 0 4 0;
#X connect 4 0 2 0;
#X restore 170 165 pd label-Q;
#X obj 118 121 cnv 6 2 2 empty ColorForm ms 0 4 1 9 -262144 -1 1.04858e+06
;
#X obj 101 115 cnv 6 2 2 empty ColorForm Pulse 0 4 1 9 -262144 -1 1.04858e+06
;
#X obj 252 284 cnv 15 52 22 empty empty empty 20 12 0 14 -24198 -66577
0;
#N canvas 353 174 321 152 ?... 0;
#X obj 8 84 cnv 15 300 56 empty empty empty 20 12 0 14 -224896 -66577
0;
#X obj 8 7 cnv 18 300 70 empty empty ARGOPdMiniModules 3 10 1 14 -4033
-1 1.04858e+06;
#X obj 31 27 cnv 10 10 10 empty empty Gerard 0 5 1 11 -4033 -1 1.04858e+06
;
#X obj 69 27 cnv 10 10 10 empty empty Paresys 0 5 1 11 -4033 -1 1.04858e+06
;
#X obj 12 40 pddp/pddplink http://gerard.paresys.free.fr/ARGOPd/;
#X obj 13 121 pddp/pddplink http://puredata.info/downloads/pd-extended
;
#X obj 13 97 pddp/pddplink http://puredata.info/downloads/pure-data
;
#X text 13 85 Construit sous / Build under Pd-0.49...;
#X text 12 109 or Pd 0.43.4-extended;
#X obj 12 53 pddp/pddplink https://paresys.pagesperso-orange.fr/ARGOPd/
;
#X restore 255 287 pd ?...;
#X text 194 83 21 7 2019;
#X connect 3 0 12 0;
#X connect 5 0 11 0;
#X connect 5 1 15 1;
#X connect 8 0 20 0;
#X connect 11 0 5 0;
#X connect 12 0 8 0;
#X connect 12 1 13 0;
#X connect 13 1 11 0;
#X connect 15 0 0 0;
#X connect 16 0 23 0;
#X connect 16 0 15 2;
#X connect 18 0 15 0;
#X connect 19 0 18 0;
#X connect 20 0 19 0;
#X connect 21 0 22 0;
#X connect 21 0 20 1;
#X connect 22 0 21 0;
#X connect 23 0 16 0;
#X coords 0 -1 1 1 134 58 1 100 100;
#X restore 177 296 pd ARGO;
#N canvas 358 45 466 323 ARGO 0;
#X obj 263 45 cnv 15 60 30 empty empty empty 20 12 0 14 -24198 -66577
0;
#N canvas 537 176 286 105 Help 0;
#X text 15 20 Un "Bang" sort X fois par minute.;
#X text 13 52 A "Bang" outputs X times per minute.;
#X restore 270 51 pd Help;
#X obj 200 32 inlet;
#X obj 195 249 cnv 15 170 24 empty empty empty 20 12 0 14 -261682 -66577
0;
#X obj 200 253 outlet;
#X obj 201 101 cnv 10 132 35 empty ColorForm Metronome. 53 9 1 14 -208064
-1 1.04858e+06;
#X obj 200 124 bng 12 50 10 0 \$0-A \$0-B empty 14 6 1 9 -262144 -1
-1;
#X obj 201 132 cnv 4 10 4 empty empty empty 20 12 0 14 -260097 -66577
0;
#X obj 200 112 nbx 3 12 1 999 0 1 \$0-A ColorTime BPM 36 8 1 11 -208064
-1 -1 500 256;
#X obj 200 100 tgl 12 1 \$0-A \$0-B empty 17 7 0 10 -262144 -1 -1 1
1;
#X obj 7 96 cnv 15 190 20 empty empty empty 20 12 0 14 -261682 -66577
0;
#X text 8 97 1: Play 0: Stop bang: Change ->;
#X obj 201 101 cnv 4 10 4 empty empty empty 20 12 0 14 -260097 -66577
0;
#X obj 120 183 metro 300;
#X obj 171 160 expr 60000 / $f1;
#X text 205 286 Bang;
#X text 213 272 |;
#X text 213 277 v;
#X obj 376 235 cnv 15 42 25 empty empty empty 20 12 0 14 -24198 -66577
0;
#N canvas 336 174 316 152 ?. 0;
#X obj 8 84 cnv 15 300 56 empty empty empty 20 12 0 14 -224896 -66577
0;
#X obj 8 7 cnv 18 300 70 empty empty ARGOPdMiniModules 3 10 1 14 -4033
-1 1.04858e+06;
#X obj 31 27 cnv 10 10 10 empty empty Gerard 0 5 1 11 -4033 -1 1.04858e+06
;
#X obj 69 27 cnv 10 10 10 empty empty Paresys 0 5 1 11 -4033 -1 1.04858e+06
;
#X obj 12 40 pddp/pddplink http://gerard.paresys.free.fr/ARGOPd/;
#X text 13 85 Construit sous / Build under Pd 0.43.4-extended;
#X obj 13 111 pddp/pddplink http://puredata.info/downloads/pd-extended
;
#X obj 12 53 pddp/pddplink http://paresys.pagesperso-orange.fr/ARGOPd/
;
#X text 12 98 or Pd-0.48;
#X obj 13 124 pddp/pddplink http://puredata.info/downloads/pure-data
;
#X restore 380 239 pd ?.;
#X text 277 83 8 6 2018;
#X connect 2 0 9 0;
#X connect 6 0 4 0;
#X connect 8 0 14 0;
#X connect 9 0 13 0;
#X connect 13 0 6 0;
#X connect 14 0 13 1;
#X coords 0 -1 1 1 134 37 2 200 100;
#X restore 377 136 pd ARGO;
#N canvas 332 229 339 183 ARGO 0;
#X obj 100 40 change;
#X obj 100 17 inlet;
#N canvas 220 243 583 317 pitchb-11-2010 0;
#X obj 70 111 mod 12;
#X obj 70 135 sel 0 1 2 3 4 5 6 7 8 9 10 11;
#X msg 246 170 A;
#X msg 300 170 B;
#X msg 192 170 G;
#X msg 3 170 C;
#X msg 57 170 D;
#X msg 111 170 E;
#X msg 138 170 F;
#X obj 204 1 inlet;
#X obj 377 115 div 12;
#X obj 204 79 t f f;
#X text 382 163 -> Numero de l'octave;
#X text 213 64 -> Numero MIDI de la note (69 = A3 = 440Hz);
#X msg 260 260 label \$1;
#X obj 260 283 outlet;
#X msg 30 170 Db;
#X msg 84 170 Eb;
#X msg 165 170 Gb;
#X msg 219 170 Ab;
#X msg 273 170 Bb;
#X text 369 78 (70 = A#3 = Bb3);
#X obj 260 238 symbol;
#X text 11 231 Impossible d'afficher # dans un label;
#X text 11 243 donc j'affiche b;
#X obj 204 51 int;
#X text 255 23 -> pour corriger certaines erreurs de calcul;
#X obj 377 144 - 12;
#X text 255 35 et le pb du passage a zero de mod 12;
#X obj 204 25 + 120.5;
#X obj 260 213 cyclone/sprintf %s%d;
#X connect 0 0 1 0;
#X connect 1 0 5 0;
#X connect 1 1 16 0;
#X connect 1 2 6 0;
#X connect 1 3 17 0;
#X connect 1 4 7 0;
#X connect 1 5 8 0;
#X connect 1 6 18 0;
#X connect 1 7 4 0;
#X connect 1 8 19 0;
#X connect 1 9 2 0;
#X connect 1 10 20 0;
#X connect 1 11 3 0;
#X connect 2 0 30 0;
#X connect 3 0 30 0;
#X connect 4 0 30 0;
#X connect 5 0 30 0;
#X connect 6 0 30 0;
#X connect 7 0 30 0;
#X connect 8 0 30 0;
#X connect 9 0 29 0;
#X connect 10 0 27 0;
#X connect 11 0 0 0;
#X connect 11 1 10 0;
#X connect 14 0 15 0;
#X connect 16 0 30 0;
#X connect 17 0 30 0;
#X connect 18 0 30 0;
#X connect 19 0 30 0;
#X connect 20 0 30 0;
#X connect 22 0 14 0;
#X connect 25 0 11 0;
#X connect 27 0 30 1;
#X connect 29 0 25 0;
#X connect 30 0 22 0;
#X restore 100 63 pd pitchb-11-2010;
#X obj 103 100 hsl 90 18 0 127 0 0 \$0-A \$0-B Gb4 12 9 0 14 -208064
-208064 -1 0 1;
#X obj 158 103 cnv 5 10 10 empty ColorAmpli Note. 0 7 1 14 -208064
-1 0;
#X obj 101 101 cnv 4 10 4 empty empty empty 20 12 0 14 -260097 -66577
0;
#X obj 233 136 cnv 15 52 22 empty empty empty 20 12 0 14 -24198 -66577
0;
#N canvas 353 174 321 152 ?... 0;
#X obj 8 84 cnv 15 300 56 empty empty empty 20 12 0 14 -224896 -66577
0;
#X obj 8 7 cnv 18 300 70 empty empty ARGOPdMiniModules 3 10 1 14 -4033
-1 1.04858e+06;
#X obj 31 27 cnv 10 10 10 empty empty Gerard 0 5 1 11 -4033 -1 1.04858e+06
;
#X obj 69 27 cnv 10 10 10 empty empty Paresys 0 5 1 11 -4033 -1 1.04858e+06
;
#X obj 12 40 pddp/pddplink http://gerard.paresys.free.fr/ARGOPd/;
#X obj 13 121 pddp/pddplink http://puredata.info/downloads/pd-extended
;
#X obj 13 97 pddp/pddplink http://puredata.info/downloads/pure-data
;
#X text 13 85 Construit sous / Build under Pd-0.49...;
#X text 12 109 or Pd 0.43.4-extended;
#X obj 12 53 pddp/pddplink https://paresys.pagesperso-orange.fr/ARGOPd/
;
#X restore 236 139 pd ?...;
#X text 138 84 19 8 2019;
#X connect 0 0 2 0;
#X connect 1 0 0 0;
#X connect 2 0 3 0;
#X coords 0 -1 1 1 95 18 2 100 100;
#X restore 53 324 pd ARGO;
#X obj 559 124 cnv 15 100 70 empty empty empty 20 12 0 14 -24198 -66577
0;
#X text 582 125 library:;
#X text 564 137 pddp;
#X text 564 148 cyclone;
#X text 564 159 moocow;
#X text 564 169 zexy;
#X text 564 179 mrpeach;
#X text 95 222 ASCII code <-;
#X text 59 208 Open a text file ->;
#X text 17 199 Ouvrir un fichier texte ->;
#X text 32 21 Sonification of a text file / Sonification d'un fichier
texte;
#X text 304 380 Prion.txt is a text file consisting of 253 uppercase
letters corresponding to the sequence of the 253 amino acids encoding
a protein: the human prion. There are 22 different amino acids noted:
ACDEFGHIKLMNOPQRSTUVWY.;
#X text 270 523 We hear the repetition 4 times of the sequence: GGGWGQPH.
;
#X text 327 262 Elimination of ASCII codes <65 and> 90;
#X connect 1 0 44 0;
#X connect 2 0 43 0;
#X connect 22 0 1 0;
#X connect 22 0 42 0;
#X connect 22 1 33 0;
#X connect 33 0 22 0;
#X connect 33 2 2 0;
#X connect 35 0 34 0;
#X connect 40 0 6 0;
#X connect 40 0 6 1;
#X connect 40 0 41 0;
#X connect 42 0 40 0;
#X connect 43 0 33 0;
