#N canvas 388 23 463 416 10;
#X obj 10 7 cnv 15 15 15 empty empty ExMM97b-FrequencyShift-Control.pd
0 8 1 14 -262144 -1 0;
#X obj 44 378 dac~ 1 2;
#X text 14 186 Adjust ->;
#N canvas 357 44 661 422 ARGO 0;
#X obj 101 101 cnv 20 130 34 empty ColorForm FreqShift. 50 9 1 14 -188398
-1 1.04858e+06;
#X obj 101 131 cnv 4 10 4 empty empty empty 20 12 0 14 -1 -66577 0
;
#X obj 221 101 cnv 4 10 4 empty empty empty 20 12 0 14 -1728 -66577
0;
#X obj 90 50 inlet~;
#X obj 209 50 inlet~;
#X obj 101 101 cnv 4 10 4 empty empty empty 20 12 0 14 -1 -66577 0
;
#X obj 90 386 outlet~;
#X obj 512 87 cnv 15 60 30 empty empty empty 20 12 0 14 -24198 -66577
0;
#N canvas 583 62 422 343 Help 0;
#X obj 11 58 cnv 15 400 220 empty empty empty 20 12 0 14 -233017 -66577
0;
#X text 14 60 Citation;
#X text 32 78 SINGLE SIDEBAND MODULATION;
#X text 230 78 (AKA FREQUENCY SHIFTING);
#X text 33 96 The signal sideband modulator gives you only one sideband
for each frequency in the input signal (whereas ring modulation gave
both a positive and negative sideband). You can set the shift frequency
positive to shift all frequencies upward \, or negative to shift them
downwards.;
#X text 34 168 The technique is to filter the input into two versions
\, 90 degrees out of phase \, which can be interpreted as the real
and imaginary part of a complex signal with positive frequencies only.
You can then form the (complex) product of this with a (complex) sinusoid
to modulate upward or downward in frequency.;
#X text 11 7 FreqShift = Frequency shifting = Décalage en fréquence
;
#X text 15 289 Pd-0.42.5-extended -> Browser -> Pure Data/ -> 3.audio.examples/
-> H09.ssb.modulation.pd;
#X text 72 21 = SSB Modulation = Single Sideband Modulation;
#X text 73 37 = BLU Modulation = Modulation à Bande Latérale Unique
;
#X restore 519 93 pd Help;
#X text -26 116 2 HSLIDER superposés;
#X text -2 105 ATTENTION;
#X obj 393 222 cos~;
#X obj 436 200 +~ -0.25;
#X obj 436 223 cos~;
#X obj 90 321 *~;
#X obj 119 322 *~;
#X obj 90 360 -~;
#X text 495 191 cosine and sine waves;
#X obj 393 176 phasor~;
#X text 146 322 <-- complex multipier;
#X text 146 333 (calculates real part);
#X text 495 202 to form the real and;
#X text 495 213 imaginary part of a;
#X text 496 224 complex sinusoid;
#X obj 120 230 biquad~ 0.83774 -0.06338 0.06338 -0.83774 1;
#X obj 120 204 biquad~ 1.94632 -0.94657 0.94657 -1.94632 1;
#X obj 90 152 biquad~ -0.02569 0.260502 -0.260502 0.02569 1;
#X obj 90 178 biquad~ 1.8685 -0.870686 0.870686 -1.8685 1;
#X msg 6 137 clear;
#X text 202 31 frequency;
#X obj 103 118 hsl 127 12 -1 1 0 1 \$0-A ColorTime empty 0 7 1 9 -262144
-1 -1 7000 0;
#X obj 103 118 hsl 127 12 -1 1 0 0 \$0-A ColorTime 222Hz 0 7 1 9 -208064
-1728 -1 7497 0;
#N canvas 680 82 336 304 Control 0;
#X msg 198 228 set \$1;
#X obj 21 56 +~;
#X obj 105 265 outlet;
#X obj 199 126 snapshot~;
#X obj 199 206 change;
#X obj 71 15 inlet;
#X obj 21 15 inlet~;
#X obj 21 265 outlet~;
#X msg 72 228 label \$1;
#X obj 199 15 loadbang;
#X obj 199 56 metro 200;
#X obj 257 15 r SendFluid;
#X obj 21 126 *~ 2000;
#X obj 72 126 * 2000;
#X obj 72 159 cyclone/sprintf %dHz;
#X obj 72 206 cyclone/tosymbol;
#X connect 0 0 2 0;
#X connect 1 0 3 0;
#X connect 1 0 12 0;
#X connect 3 0 4 0;
#X connect 4 0 0 0;
#X connect 5 0 1 1;
#X connect 5 0 13 0;
#X connect 6 0 1 0;
#X connect 8 0 2 0;
#X connect 9 0 10 0;
#X connect 10 0 3 0;
#X connect 11 0 10 1;
#X connect 12 0 7 0;
#X connect 13 0 14 0;
#X connect 14 0 15 0;
#X connect 15 0 8 0;
#X restore 258 113 pd Control;
#X text 138 250 hilbert~ -> this is a pair of 4th-order all-pass filters
whose outputs somehow manage to be about 90 degrees out of phase from
each other. Both have different phases from the original. Adapted from
a 4X patch by Emmanuel Favreau \, circa 1982;
#X obj 556 348 cnv 15 52 22 empty empty empty 20 12 0 14 -24198 -66577
0;
#N canvas 353 174 321 152 ?... 0;
#X obj 8 84 cnv 15 300 56 empty empty empty 20 12 0 14 -224896 -66577
0;
#X obj 8 7 cnv 18 300 70 empty empty ARGOPdMiniModules 3 10 1 14 -4033
-1 1.04858e+06;
#X obj 31 27 cnv 10 10 10 empty empty Gerard 0 5 1 11 -4033 -1 1.04858e+06
;
#X obj 69 27 cnv 10 10 10 empty empty Paresys 0 5 1 11 -4033 -1 1.04858e+06
;
#X obj 12 40 pddp/pddplink http://gerard.paresys.free.fr/ARGOPd/;
#X obj 13 121 pddp/pddplink http://puredata.info/downloads/pd-extended
;
#X obj 13 97 pddp/pddplink http://puredata.info/downloads/pure-data
;
#X text 13 85 Construit sous / Build under Pd-0.49...;
#X text 12 109 or Pd 0.43.4-extended;
#X obj 12 53 pddp/pddplink https://paresys.pagesperso-orange.fr/ARGOPd/
;
#X restore 559 351 pd ?...;
#X text 122 81 21 7 2019;
#X connect 3 0 26 0;
#X connect 3 0 25 0;
#X connect 4 0 32 0;
#X connect 11 0 14 1;
#X connect 12 0 13 0;
#X connect 13 0 15 1;
#X connect 14 0 16 0;
#X connect 15 0 16 1;
#X connect 16 0 6 0;
#X connect 18 0 12 0;
#X connect 18 0 11 0;
#X connect 24 0 15 0;
#X connect 25 0 24 0;
#X connect 26 0 27 0;
#X connect 27 0 14 0;
#X connect 28 0 25 0;
#X connect 28 0 24 0;
#X connect 28 0 26 0;
#X connect 28 0 27 0;
#X connect 30 0 32 1;
#X connect 32 0 18 0;
#X connect 32 1 31 0;
#X coords 0 -1 1 1 132 36 1 100 100;
#X restore 72 168 pd ARGO;
#N canvas 293 120 776 424 ARGO 0;
#X obj 319 104 cnv 10 20 10 empty empty Audio-Play. 1 5 1 14 -262144
-1 1.04858e+06;
#X obj 101 131 cnv 4 10 4 empty empty empty 20 12 0 14 -1 -66577 0
;
#X obj 111 317 outlet~;
#X obj -14 44 openpanel;
#X msg 25 100 set \$1;
#X obj -67 -45 loadbang;
#X text 14 260 avec espace;
#X obj 194 101 tgl 12 1 \$0-A \$0-B Play-1sec 14 6 1 9 -262144 -1 -1
1 1;
#X obj 158 101 bng 12 250 50 0 \$0-A \$0-B Stop 14 6 1 9 -262144 -1
-1;
#X obj 121 101 tgl 12 1 \$0-A \$0-B Loop 14 6 1 9 -262144 -1 -1 1 1
;
#X obj 100 101 bng 12 250 50 0 \$0-A \$0-B empty 14 6 1 9 -262144 -1
-1;
#X obj -14 22 bang;
#X obj -5 146 cnv 15 400 50 empty empty empty 20 12 0 14 -260097 -66577
0;
#X text -3 145 Nom du fichier / File name;
#X obj 101 101 cnv 4 10 4 empty empty empty 20 12 0 14 -260097 -66577
0;
#X obj 388 123 bng 12 50 20 0 \$0-A \$0-B empty 0 0 1 9 -262144 -1
-1;
#X obj 389 131 cnv 4 10 4 empty empty empty 20 12 0 14 -260097 -66577
0;
#X obj -7 -48 cnv 15 240 24 empty empty empty 20 12 0 14 -261682 -66577
0;
#X obj -6 -45 inlet;
#X obj 382 313 cnv 15 240 24 empty empty empty 20 12 0 14 -261682 -66577
0;
#X text 432 311 -> Bang à la fin du fichier;
#X text 433 321 -> Bang at the end of the file;
#X obj 387 317 outlet;
#X obj 97 -18 r \$0-SendOnOff;
#X obj 97 5 select 0;
#X obj 507 80 cnv 15 60 30 empty empty empty 20 12 0 14 -24198 -66577
0;
#N canvas 274 41 583 622 Help 0;
#X obj 15 147 cnv 15 400 100 empty empty empty 20 12 0 14 -233017 -66577
0;
#X text 18 146 Citation;
#X obj 14 392 cnv 15 550 310 empty empty empty 20 12 0 14 -258113 -66577
0;
#X text 26 399 - Ne lit pas un fichier au format mp3 \, SoundDesigner
II (.SDII ou .SD2);
#X text 29 499 Solution: ouvrir puis sauver le fichier au format aiff
avec Audacity;
#X text 42 486 error: dsp: xxx.aiff: unknown or bad header format;
#X text 37 162 READSF~ - read a soundfile;
#X text 36 180 The wave \, aiff \, and nextstep formats are parsed
automatically \, although only 2- 3- and 4- byte samples are accepted
(4 bytes implies floating point and is not available in aiff format.)
;
#X text 19 254 - Si le Patch est sauvé avec 1 Player contenant un nom
de fichier Audio \, ce fichier sera lu automatiquement à la prochaine
ouverture s'il n'a pas changé d'emplacement.;
#X text 27 538 - ATTENTION Le taux d'échantillonnage de la lecture
du fichier dépends du taux d'échantillonnage de Pd.;
#X text 39 565 Si le taux d'échantillonnage de Pd est de 44100 (Menu
Preferences -> Audio Settings...) \, les fichiers échantillonnés à
44100 Hz sont lus correctement \, sinon ils sont transposés.;
#X text 18 300 - Peut Ouvrir automatiquement 1 fichier qui se trouve
dans le même dossier que lui \, quelquesoit l'emplacement du dossier.
Pour cela ouvrir le module et taper le nom du fichier (sans chemin
d'accés) dans le message. Le dossier contenant le patch et le fichier
Audio est ainsi transportable.;
#X text 27 447 - Ne lit pas un fichier au format aiff "Entier petit
boutien" comme les pistes d'un CD Audio copiées avec le finder du Mac.
Le message d'erreur s'affichent:;
#X text 5 4 MM Audio-Play;
#X text 199 622 WARNING The sample rate of the output depends on the
system sample rate of Pd:;
#X text 197 649 If the sample rate of Pd is set to 44100 \, files having
the sample rates of 44100 are correctly played \, other files will
be transposed.;
#X text 200 99 A Mono Audio file is read on the left output.;
#X text 30 37 Le canal d'un fichier Audio Mono est lu sur la sortie
1;
#X text 30 24 Lit un fichier Audio 1 canal au format aiff \, wav.;
#X text 30 50 Les canaux 2 \, 3... d'un fichier Audio de plus de 1
canal ne sont pas lus.;
#X text 199 72 Reads a 1 channel Audio file with aiff \, wav format..
;
#X text 200 113 Channels 1 \, 2... of an Audio file of more than 1
channel are not read.;
#X restore 514 86 pd Help;
#X obj -14 67 t b b s;
#X obj 389 101 cnv 4 10 4 empty empty empty 20 12 0 14 -260097 -66577
0;
#X obj 481 -48 cnv 15 200 24 empty empty empty 20 12 0 14 -261682 -66577
0;
#X obj 485 -45 inlet;
#X text 522 -50 <- Nom d'un fichier Audio;
#X text 523 -40 <- Name of an Audio file;
#X text 12 239 list2symbol pour;
#X text 12 250 les noms de fichier;
#X obj 293 101 cnv 4 10 4 empty empty empty 20 12 0 14 -260097 -66577
0;
#X obj 237 -48 cnv 15 240 24 empty empty empty 20 12 0 14 -261682 -66577
0;
#X obj 241 -45 inlet;
#X text 278 -50 <- Nom d'un fichier Audio + Play;
#X text 279 -40 <- Name of an Audio file + Play;
#X text 415 172 ../ before the name goes up one level;
#X text 31 -51 <- N'importe quel message -> Play;
#X text 31 -40 <- Any message -> Play;
#X obj 193 -19 cnv 15 100 24 empty empty empty 20 12 0 14 -261682 -66577
0;
#X obj 194 -16 inlet;
#X text 231 -22 <- 1 Play;
#X text 231 -11 <- 0 Stop;
#X obj 195 102 cnv 4 10 4 empty empty empty 20 12 0 14 -260097 -66577
0;
#N canvas 238 155 791 372 player 0;
#X msg 235 158 1;
#X msg 204 158 0;
#X msg 120 158 open \$1;
#X obj 189 93 t b b;
#X msg 321 95 set 0;
#X obj 188 59 sel 1 0;
#X obj 263 95 sel 1;
#X msg 276 158 set 1;
#X obj 263 56 f;
#X obj 188 34 f;
#X obj 235 295 outlet;
#X text 237 311 readsf;
#X obj 321 9 inlet;
#X text 323 -20 bang;
#X obj 321 295 outlet;
#X text 331 324 Play;
#X obj 253 9 inlet;
#X text 258 -8 Loop;
#X obj 127 9 inlet;
#X text 132 -9 Stop;
#X obj 15 9 inlet;
#X text 20 -8 Open;
#X text 144 324 Trig Decl;
#X text 157 311 bang;
#X obj 149 295 outlet;
#X text 305 -8 End of file;
#X obj 188 9 inlet;
#X text 193 -8 Play;
#X obj 68 295 outlet;
#X text 46 311 Nom du fichier;
#X text 52 324 File name;
#X text 57 -8 Trig Decl;
#X text 70 -20 bang;
#X obj 72 9 inlet;
#X obj 258 128 delay 2;
#X text 189 -20 Toggle;
#X text 327 311 Toggle;
#N canvas 448 247 285 285 chrono 0;
#X obj 65 116 metro 100;
#X obj 112 173 float;
#X obj 161 143 + 1;
#X msg 128 116 0;
#X obj 84 85 t b b;
#X obj 84 61 inlet;
#X obj 112 230 outlet;
#X obj 112 198 / 10;
#X text 82 14 chrono;
#X obj 218 61 inlet;
#X msg 218 88 0;
#X obj 161 117 * 10;
#X text 113 245 number;
#X text 80 39 Start;
#X text 218 41 Stop;
#X connect 0 0 1 0;
#X connect 1 0 7 0;
#X connect 2 0 1 1;
#X connect 3 0 1 0;
#X connect 4 0 0 0;
#X connect 4 1 3 0;
#X connect 5 0 4 0;
#X connect 7 0 6 0;
#X connect 7 0 11 0;
#X connect 9 0 10 0;
#X connect 10 0 0 0;
#X connect 11 0 2 0;
#X restore 331 199 pd chrono;
#X msg 330 264 label \$1;
#X obj 330 242 cyclone/tosymbol;
#X obj 331 221 cyclone/sprintf Play-%ssec;
#X connect 0 0 10 0;
#X connect 0 0 37 0;
#X connect 1 0 10 0;
#X connect 1 0 37 1;
#X connect 2 0 10 0;
#X connect 3 0 34 0;
#X connect 3 1 28 0;
#X connect 4 0 14 0;
#X connect 5 0 3 0;
#X connect 5 1 4 0;
#X connect 5 1 1 0;
#X connect 6 0 24 0;
#X connect 7 0 14 0;
#X connect 8 0 6 0;
#X connect 9 0 5 0;
#X connect 12 0 8 0;
#X connect 12 0 4 0;
#X connect 12 0 37 1;
#X connect 16 0 8 1;
#X connect 18 0 4 0;
#X connect 18 0 1 0;
#X connect 20 0 2 0;
#X connect 26 0 9 0;
#X connect 33 0 3 0;
#X connect 34 0 0 0;
#X connect 34 0 7 0;
#X connect 37 0 40 0;
#X connect 38 0 14 0;
#X connect 39 0 38 0;
#X connect 40 0 39 0;
#X restore 171 246 pd player;
#X obj 241 12 t b b a;
#X obj 485 12 t b b a;
#X text 397 160 <- ../ devant le nom remonte d'un dossier;
#X obj 0 201 zexy/list2symbol;
#X obj 280 52 zexy/list2symbol;
#X obj 103 116 hsl 279 14 0 127 0 0 \$0-A \$0-B empty -2 -8 0 10 -262144
-262144 -1 0 1;
#X symbolatom 100 116 47 0 0 0 - - -;
#X obj 629 314 cnv 15 42 25 empty empty empty 20 12 0 14 -24198 -66577
0;
#N canvas 336 174 309 137 ?. 0;
#X obj 3 83 cnv 15 300 46 empty empty empty 20 12 0 14 -224896 -66577
0;
#X obj 3 6 cnv 18 300 70 empty empty ARGOPdMiniModules 3 10 1 14 -4033
-1 1.04858e+06;
#X obj 26 26 cnv 10 10 10 empty empty Gerard 0 5 1 11 -4033 -1 1.04858e+06
;
#X obj 64 26 cnv 10 10 10 empty empty Paresys 0 5 1 11 -4033 -1 1.04858e+06
;
#X obj 7 37 pddp/pddplink http://gerard.paresys.free.fr/ARGOPd/;
#X text 8 85 Construit sous / Build under Pd 0.43.4-extended;
#X obj 8 111 pddp/pddplink http://puredata.info/downloads/pd-extended
;
#X obj 7 50 pddp/pddplink http://paresys.pagesperso-orange.fr/ARGOPd/
;
#X text 7 98 or Pd-0.46-7 + deken;
#X restore 633 318 pd ?.;
#X obj 214 274 readsf~;
#X text 403 96 29 3 2017;
#X msg 0 162 ToutDevientRouge.wav;
#X connect 3 0 27 0;
#X connect 4 0 60 0;
#X connect 5 0 60 0;
#X connect 7 0 48 3;
#X connect 8 0 48 2;
#X connect 9 0 48 4;
#X connect 10 0 48 1;
#X connect 11 0 3 0;
#X connect 15 0 22 0;
#X connect 18 0 10 0;
#X connect 23 0 24 0;
#X connect 24 0 8 0;
#X connect 27 0 48 3;
#X connect 27 1 60 0;
#X connect 27 2 4 0;
#X connect 30 0 50 0;
#X connect 37 0 49 0;
#X connect 44 0 7 0;
#X connect 48 0 60 0;
#X connect 48 1 10 0;
#X connect 48 2 58 0;
#X connect 48 3 7 0;
#X connect 49 0 10 0;
#X connect 49 1 60 0;
#X connect 49 2 53 0;
#X connect 50 0 48 2;
#X connect 50 1 60 0;
#X connect 50 2 53 0;
#X connect 52 0 48 0;
#X connect 52 0 55 0;
#X connect 53 0 4 0;
#X connect 54 0 11 0;
#X connect 58 0 2 0;
#X connect 58 1 48 5;
#X connect 58 1 15 0;
#X connect 60 0 52 0;
#X coords 0 -1 1 1 300 36 2 100 100;
#X restore 72 33 pd ARGO;
#X obj 384 378 cnv 15 52 22 empty empty empty 20 12 0 14 -24198 -66577
0;
#N canvas 432 42 236 269 ARGO 0;
#X obj 101 104 cnv 30 37 130 empty ColorAmpli empty 20 12 0 14 -1 -258113
0;
#X obj 101 110 vu 8 120 \$0-B empty 0 0 1 11 -1 -4034 1 0;
#X obj 74 34 inlet~;
#X obj 10 33 cnv 15 60 30 empty empty empty 20 12 0 14 -24198 -66577
0;
#N canvas 300 65 442 264 Help 0;
#X obj 12 48 cnv 15 400 150 empty empty empty 20 12 0 14 -233017 -66577
0;
#X text 16 50 Citation;
#X text 28 67 peakamp~ tracks and outputs the absolute value of the
peak amplitude of the incoming signal. It outputs when banged or using
its own internal clock. The peak value is reset each time peakamp~
outputs a value.;
#X text 29 123 cyclone library;
#X text 28 135 http://suita.chopin.edu.pl/~czaja/miXed/externs/cyclone.html
;
#X text 29 155 Voir doc Max/MSP MSP46ReferenceManual.pdf;
#X text 18 14 MM-Vumetre;
#X restore 17 39 pd Help;
#N canvas 541 112 317 265 VuMetre 0;
#X obj 48 19 inlet~;
#X obj 41 54 *~;
#X obj -25 132 snapshot~;
#X obj -25 155 sqrt;
#X obj -25 100 lop~ 10;
#X obj -25 179 rmstodb;
#X obj -88 19 loadbang;
#X obj -25 202 - 100;
#X obj 58 156 sqrt;
#X obj 58 180 rmstodb;
#X obj 58 203 - 100;
#X obj -89 102 metro 200;
#X obj -28 19 r SendFluid;
#X obj 58 102 cyclone/peakamp~ 1000;
#X obj -25 228 outlet;
#X obj 58 227 outlet;
#X connect 0 0 1 0;
#X connect 0 0 1 1;
#X connect 1 0 4 0;
#X connect 1 0 13 0;
#X connect 2 0 3 0;
#X connect 3 0 5 0;
#X connect 4 0 2 0;
#X connect 5 0 7 0;
#X connect 6 0 11 0;
#X connect 7 0 14 0;
#X connect 8 0 9 0;
#X connect 9 0 10 0;
#X connect 10 0 15 0;
#X connect 11 0 2 0;
#X connect 12 0 11 1;
#X connect 13 0 8 0;
#X restore 74 59 pd VuMetre;
#X obj 172 211 cnv 15 42 25 empty empty empty 20 12 0 14 -24198 -66577
0;
#N canvas 336 174 309 137 ?. 0;
#X obj 3 83 cnv 15 300 46 empty empty empty 20 12 0 14 -224896 -66577
0;
#X obj 3 6 cnv 18 300 70 empty empty ARGOPdMiniModules 3 10 1 14 -4033
-1 1.04858e+06;
#X obj 26 26 cnv 10 10 10 empty empty Gerard 0 5 1 11 -4033 -1 1.04858e+06
;
#X obj 64 26 cnv 10 10 10 empty empty Paresys 0 5 1 11 -4033 -1 1.04858e+06
;
#X obj 7 37 pddp/pddplink http://gerard.paresys.free.fr/ARGOPd/;
#X text 8 85 Construit sous / Build under Pd 0.43.4-extended;
#X obj 8 111 pddp/pddplink http://puredata.info/downloads/pd-extended
;
#X obj 7 50 pddp/pddplink http://paresys.pagesperso-orange.fr/ARGOPd/
;
#X text 7 98 or Pd-0.46-7 + deken;
#X restore 176 215 pd ?.;
#X text 127 87 3 3 2019;
#X connect 2 0 5 0;
#X connect 5 0 1 0;
#X connect 5 1 1 1;
#X coords 0 -1 1 1 39 135 2 100 100;
#X restore 105 260 pd ARGO;
#N canvas 353 174 321 152 ?... 0;
#X obj 8 84 cnv 15 300 56 empty empty empty 20 12 0 14 -224896 -66577
0;
#X obj 8 7 cnv 18 300 70 empty empty ARGOPdMiniModules 3 10 1 14 -4033
-1 1.04858e+06;
#X obj 31 27 cnv 10 10 10 empty empty Gerard 0 5 1 11 -4033 -1 1.04858e+06
;
#X obj 69 27 cnv 10 10 10 empty empty Paresys 0 5 1 11 -4033 -1 1.04858e+06
;
#X obj 12 40 pddp/pddplink http://gerard.paresys.free.fr/ARGOPd/;
#X obj 13 121 pddp/pddplink http://puredata.info/downloads/pd-extended
;
#X obj 13 97 pddp/pddplink http://puredata.info/downloads/pure-data
;
#X text 13 85 Construit sous / Build under Pd-0.49...;
#X text 12 109 or Pd 0.43.4-extended;
#X obj 12 53 pddp/pddplink https://paresys.pagesperso-orange.fr/ARGOPd/
;
#X restore 387 381 pd ?...;
#N canvas 175 68 374 396 ARGO 0;
#X obj 101 101 cnv 20 116 34 empty ColorAmpli empty 20 12 0 14 -261299
-1 1.04858e+06;
#X obj 85 353 outlet~;
#X obj 157 104 cnv 10 20 10 empty ColorAmpli Ampli. 1 5 1 14 -261299
-1 1.04858e+06;
#X obj 85 43 inlet~;
#X obj 85 330 *~;
#X obj 115 118 hsl 101 12 -80 20 0 1 \$0-A ColorAmpli -4dB 0 7 1 9
-261299 -1 -1 7600 0;
#X obj 101 101 cnv 4 10 4 empty empty empty 20 12 0 14 -1 -66577 0
;
#X obj 101 131 cnv 4 10 4 empty empty empty 20 12 0 14 -1 -66577 0
;
#X msg -42 139 label \$1;
#X text 148 194 -> 0.0001..10 = -80dB..20dB;
#X obj 142 175 expr (pow(10 \, $f1 / 20));
#X obj 142 215 sel 0.0001;
#X msg 100 244 0;
#X obj 100 118 tgl 12 1 \$0-A \$0-B Mute 2 -5 1 9 -261299 -1 -1 0 1
;
#X obj 99 146 select 0 1;
#X obj 140 295 line~;
#X obj 140 275 pack 0 10;
#X msg 123 74 set 0;
#X obj -42 93 cyclone/sprintf %ddB;
#X obj -42 116 cyclone/tosymbol;
#X obj 261 342 cnv 15 42 25 empty empty empty 20 12 0 14 -24198 -66577
0;
#N canvas 336 174 309 137 ?. 0;
#X obj 3 83 cnv 15 300 46 empty empty empty 20 12 0 14 -224896 -66577
0;
#X obj 3 6 cnv 18 300 70 empty empty ARGOPdMiniModules 3 10 1 14 -4033
-1 1.04858e+06;
#X obj 26 26 cnv 10 10 10 empty empty Gerard 0 5 1 11 -4033 -1 1.04858e+06
;
#X obj 64 26 cnv 10 10 10 empty empty Paresys 0 5 1 11 -4033 -1 1.04858e+06
;
#X obj 7 37 pddp/pddplink http://gerard.paresys.free.fr/ARGOPd/;
#X text 8 85 Construit sous / Build under Pd 0.43.4-extended;
#X obj 8 111 pddp/pddplink http://puredata.info/downloads/pd-extended
;
#X obj 7 50 pddp/pddplink http://paresys.pagesperso-orange.fr/ARGOPd/
;
#X text 7 98 or Pd-0.46-7 + deken;
#X restore 265 346 pd ?.;
#X text 228 110 17 3 2016;
#X connect 3 0 4 0;
#X connect 4 0 1 0;
#X connect 5 0 10 0;
#X connect 5 0 18 0;
#X connect 8 0 5 0;
#X connect 10 0 11 0;
#X connect 11 0 12 0;
#X connect 11 1 16 0;
#X connect 11 1 17 0;
#X connect 12 0 16 0;
#X connect 12 0 19 0;
#X connect 13 0 14 0;
#X connect 14 0 5 0;
#X connect 14 1 12 0;
#X connect 15 0 4 1;
#X connect 16 0 15 0;
#X connect 17 0 13 0;
#X connect 18 0 19 0;
#X connect 19 0 8 0;
#X coords 0 -1 1 1 118 36 1 100 100;
#X restore 72 215 pd ARGO;
#X obj 288 279 switch~;
#N canvas 608 166 228 173 ARGOnOff 0;
#X obj 100 100 tgl 18 1 \$0-SendOnOff \$0-ReceiveOnOff On/Off 20 11
1 14 -4033 -1 -1 1 1;
#X obj 99 10 loadbang;
#X msg 99 33 \; pd dsp 1;
#X obj 100 129 outlet;
#X text -50 99 Audio On/Off du patch ->;
#X text -22 45 Audio General On ->;
#X text 107 82 17 3 2010;
#X connect 0 0 3 0;
#X connect 1 0 2 0;
#X coords 0 -1 1 1 65 18 2 100 100;
#X restore 288 261 pd ARGOnOff;
#X text 293 245 V;
#X text 293 238 |;
#X text 281 227 On/Off Patch;
#X text 311 239 (Audio);
#N canvas 175 68 374 396 ARGO 0;
#X obj 101 101 cnv 20 116 34 empty ColorAmpli empty 20 12 0 14 -261299
-1 1.04858e+06;
#X obj 85 353 outlet~;
#X obj 157 104 cnv 10 20 10 empty ColorAmpli Ampli. 1 5 1 14 -261299
-1 1.04858e+06;
#X obj 85 43 inlet~;
#X obj 85 330 *~;
#X obj 115 118 hsl 101 12 -80 20 0 1 \$0-A ColorAmpli -22dB 0 7 1 9
-261299 -1 -1 5800 0;
#X obj 101 101 cnv 4 10 4 empty empty empty 20 12 0 14 -1 -66577 0
;
#X obj 101 131 cnv 4 10 4 empty empty empty 20 12 0 14 -1 -66577 0
;
#X msg -42 139 label \$1;
#X text 148 194 -> 0.0001..10 = -80dB..20dB;
#X obj 142 175 expr (pow(10 \, $f1 / 20));
#X obj 142 215 sel 0.0001;
#X msg 100 244 0;
#X obj 100 118 tgl 12 1 \$0-A \$0-B Mute 2 -5 1 9 -261299 -1 -1 0 1
;
#X obj 99 146 select 0 1;
#X obj 140 295 line~;
#X obj 140 275 pack 0 10;
#X msg 123 74 set 0;
#X obj -42 93 cyclone/sprintf %ddB;
#X obj -42 116 cyclone/tosymbol;
#X obj 261 342 cnv 15 42 25 empty empty empty 20 12 0 14 -24198 -66577
0;
#N canvas 336 174 309 137 ?. 0;
#X obj 3 83 cnv 15 300 46 empty empty empty 20 12 0 14 -224896 -66577
0;
#X obj 3 6 cnv 18 300 70 empty empty ARGOPdMiniModules 3 10 1 14 -4033
-1 1.04858e+06;
#X obj 26 26 cnv 10 10 10 empty empty Gerard 0 5 1 11 -4033 -1 1.04858e+06
;
#X obj 64 26 cnv 10 10 10 empty empty Paresys 0 5 1 11 -4033 -1 1.04858e+06
;
#X obj 7 37 pddp/pddplink http://gerard.paresys.free.fr/ARGOPd/;
#X text 8 85 Construit sous / Build under Pd 0.43.4-extended;
#X obj 8 111 pddp/pddplink http://puredata.info/downloads/pd-extended
;
#X obj 7 50 pddp/pddplink http://paresys.pagesperso-orange.fr/ARGOPd/
;
#X text 7 98 or Pd-0.46-7 + deken;
#X restore 265 346 pd ?.;
#X text 228 110 17 3 2016;
#X connect 3 0 4 0;
#X connect 4 0 1 0;
#X connect 5 0 10 0;
#X connect 5 0 18 0;
#X connect 8 0 5 0;
#X connect 10 0 11 0;
#X connect 11 0 12 0;
#X connect 11 1 16 0;
#X connect 11 1 17 0;
#X connect 12 0 16 0;
#X connect 12 0 19 0;
#X connect 13 0 14 0;
#X connect 14 0 5 0;
#X connect 14 1 12 0;
#X connect 15 0 4 1;
#X connect 16 0 15 0;
#X connect 17 0 13 0;
#X connect 18 0 19 0;
#X connect 19 0 8 0;
#X coords 0 -1 1 1 118 36 1 100 100;
#X restore 197 124 pd ARGO;
#N canvas 355 145 366 204 ARGO 0;
#X obj 92 143 osc~;
#X obj 101 101 cnv 20 244 34 empty ColorTime Oscill-Sinus. 165 8 1
14 -208064 -1 1.04858e+06;
#X obj 92 168 outlet~;
#X obj 100 106 nbx 7 12 0 20000 0 1 \$0-A ColorTime Hz 60 7 1 9 -208064
-1 -1 0.170522 256;
#X obj 87 26 inlet~;
#X obj 101 131 cnv 4 10 4 empty empty empty 20 12 0 14 -1 -66577 0
;
#X obj 101 101 cnv 4 10 4 empty empty empty 20 12 0 14 -1728 -66577
0;
#X obj 103 118 hsl 241 12 0 1 0 0 \$0-A ColorTime empty 0 7 1 9 -262144
-1 -1 4100 0;
#X obj 103 118 hsl 241 12 0 1 0 0 \$0-A ColorTime F-8 0 7 1 9 -208064
-1728 -1 0 0;
#X text 155 147 2 HSLIDER superposés;
#X text 154 136 ATTENTION;
#X obj 197 52 cnv 15 60 30 empty empty empty 20 12 0 14 -24198 -66577
0;
#N canvas 161 113 425 238 Help 0;
#X obj 8 85 cnv 15 400 100 empty empty empty 20 12 0 14 -233017 -66577
0;
#X text 12 87 Citation;
#X text 10 45 Sensibilitée de l'entrée de contrôle de la fréquence:
;
#X text 10 57 1 = 240 1/2 ton = 20 octaves;
#X text 11 19 Oscillateur sinusoïdal;
#X text 22 106 The osc~ object outputs a cosine wave. If no argument
is supplied \, the input is taken to be an audio signal.;
#X restore 204 58 pd Help;
#N canvas 86 284 344 337 Freq-v8-sig- 0;
#X obj 227 64 ftom;
#X obj 277 223 mtof;
#X obj 139 148 +~;
#X obj 7 195 snapshot~;
#X obj 7 217 change;
#X msg 7 242 set \$1;
#X obj 139 251 clip~ 0 20000;
#X obj 139 228 mtof~;
#X obj 139 280 outlet~;
#X obj 278 40 inlet;
#X obj 227 40 inlet;
#X obj 36 280 outlet;
#X obj 277 280 outlet;
#X text 33 298 Hslider;
#X obj 139 40 inlet~;
#X obj 6 40 loadbang;
#X obj 227 280 outlet;
#X obj 277 162 * 240;
#X obj 277 185 - 108;
#X obj 139 176 *~ 240;
#X obj 139 198 -~ 108;
#X obj 227 87 + 108;
#X obj 227 109 / 240;
#X obj 7 93 metro 200;
#X obj 62 40 r SendFluid;
#X text 42 309 Over;
#X text 279 298 Number;
#X text 224 23 Number;
#X text 226 297 Hslider;
#X text 228 308 Under;
#X text 279 10 Hslider;
#X text 284 21 Under;
#X msg 227 250 set \$1;
#N canvas 220 243 583 317 pitchb-11-2010 0;
#X obj 78 119 mod 12;
#X obj 78 143 sel 0 1 2 3 4 5 6 7 8 9 10 11;
#X msg 254 178 A;
#X msg 308 178 B;
#X msg 200 178 G;
#X msg 11 178 C;
#X msg 65 178 D;
#X msg 119 178 E;
#X msg 146 178 F;
#X obj 212 9 inlet;
#X obj 385 123 div 12;
#X obj 212 87 t f f;
#X text 394 215 -> Numero de l'octave;
#X text 221 72 -> Numero MIDI de la note (69 = A3 = 440Hz);
#X msg 268 268 label \$1;
#X obj 268 291 outlet;
#X msg 38 178 Db;
#X msg 92 178 Eb;
#X msg 173 178 Gb;
#X msg 227 178 Ab;
#X msg 281 178 Bb;
#X text 377 86 (70 = A#3 = Bb3);
#X obj 268 246 symbol;
#X text 19 239 Impossible d'afficher # dans un label;
#X text 19 251 donc j'affiche b;
#X obj 212 59 int;
#X text 263 31 -> pour corriger certaines erreurs de calcul;
#X obj 385 152 - 12;
#X text 263 43 et le pb du passage a zero de mod 12;
#X obj 212 33 + 120.5;
#X obj 268 221 cyclone/sprintf %s%d;
#X connect 0 0 1 0;
#X connect 1 0 5 0;
#X connect 1 1 16 0;
#X connect 1 2 6 0;
#X connect 1 3 17 0;
#X connect 1 4 7 0;
#X connect 1 5 8 0;
#X connect 1 6 18 0;
#X connect 1 7 4 0;
#X connect 1 8 19 0;
#X connect 1 9 2 0;
#X connect 1 10 20 0;
#X connect 1 11 3 0;
#X connect 2 0 30 0;
#X connect 3 0 30 0;
#X connect 4 0 30 0;
#X connect 5 0 30 0;
#X connect 6 0 30 0;
#X connect 7 0 30 0;
#X connect 8 0 30 0;
#X connect 9 0 29 0;
#X connect 10 0 27 0;
#X connect 11 0 0 0;
#X connect 11 1 10 0;
#X connect 14 0 15 0;
#X connect 16 0 30 0;
#X connect 17 0 30 0;
#X connect 18 0 30 0;
#X connect 19 0 30 0;
#X connect 20 0 30 0;
#X connect 22 0 14 0;
#X connect 25 0 11 0;
#X connect 27 0 30 1;
#X connect 29 0 25 0;
#X connect 30 0 22 0;
#X restore 83 113 pd pitchb-11-2010;
#X connect 0 0 21 0;
#X connect 0 0 33 0;
#X connect 1 0 12 0;
#X connect 2 0 3 0;
#X connect 2 0 19 0;
#X connect 3 0 4 0;
#X connect 4 0 5 0;
#X connect 5 0 11 0;
#X connect 6 0 8 0;
#X connect 7 0 6 0;
#X connect 9 0 17 0;
#X connect 10 0 0 0;
#X connect 14 0 2 0;
#X connect 15 0 23 0;
#X connect 17 0 18 0;
#X connect 18 0 1 0;
#X connect 19 0 20 0;
#X connect 20 0 7 0;
#X connect 21 0 22 0;
#X connect 22 0 2 1;
#X connect 22 0 32 0;
#X connect 23 0 3 0;
#X connect 24 0 23 1;
#X connect 32 0 16 0;
#X connect 33 0 11 0;
#X restore 62 63 pd Freq-v8-sig-;
#X obj 304 162 cnv 15 42 25 empty empty empty 20 12 0 14 -24198 -66577
0;
#N canvas 336 174 309 137 ?. 0;
#X obj 3 83 cnv 15 300 46 empty empty empty 20 12 0 14 -224896 -66577
0;
#X obj 3 6 cnv 18 300 70 empty empty ARGOPdMiniModules 3 10 1 14 -4033
-1 1.04858e+06;
#X obj 26 26 cnv 10 10 10 empty empty Gerard 0 5 1 11 -4033 -1 1.04858e+06
;
#X obj 64 26 cnv 10 10 10 empty empty Paresys 0 5 1 11 -4033 -1 1.04858e+06
;
#X obj 7 37 pddp/pddplink http://gerard.paresys.free.fr/ARGOPd/;
#X text 8 85 Construit sous / Build under Pd 0.43.4-extended;
#X obj 8 111 pddp/pddplink http://puredata.info/downloads/pd-extended
;
#X obj 7 50 pddp/pddplink http://paresys.pagesperso-orange.fr/ARGOPd/
;
#X text 7 98 or Pd-0.46-7 + deken;
#X restore 308 166 pd ?.;
#X text 282 80 7 12 2017;
#X connect 0 0 2 0;
#X connect 3 0 13 1;
#X connect 4 0 13 0;
#X connect 7 0 13 2;
#X connect 13 0 8 0;
#X connect 13 1 0 0;
#X connect 13 2 7 0;
#X connect 13 3 3 0;
#X coords 0 -1 1 1 246 36 1 100 100;
#X restore 197 79 pd ARGO;
#X connect 3 0 8 0;
#X connect 4 0 3 0;
#X connect 8 0 1 0;
#X connect 8 0 1 1;
#X connect 8 0 6 0;
#X connect 10 0 9 0;
#X connect 15 0 3 1;
#X connect 16 0 15 0;
