#N canvas 671 23 756 417 10;
#X declare -stdlib Gem;
#X obj 6 7 cnv 15 15 15 empty empty ExMM70b-GEMText2d.pd 0 8 1 14 -262144
-1 0;
#X text 301 201 <-- Click;
#X text 285 180 <-- Click;
#X text 322 223 <-- Click;
#X text 152 232 Text Input ->;
#X text 86 310 Sous MacOSX les fichiers de fontes de caractères;
#X text 86 322 sont dans:;
#X text 156 371 /Library/Fonts/;
#X text 155 323 /Bibliotheque/Fonts/;
#X text 87 358 Under MacOSX the font files;
#X text 87 370 are in:;
#X text 155 384 /Users/You.../Library/Fonts;
#X text 155 337 /Utilisateurs/Vous.../Bibliotheque/Fonts;
#X msg 239 181 Quoi?;
#X msg 251 203 Quand?;
#X msg 264 225 Comment?;
#X text 7 46 On/Off GEM ->;
#X text 389 263 <- Click to open a .ttf font file (Linux \, MacOSX
\, Windows);
#X text 492 274 a .dfont font file (MacOSX);
#X text 10 144 Render On ->;
#X text 280 58 <- Uncheck KeyShortCut before typing B \, F or G;
#X text 280 69 <- Decocher KeyShortCut avant de taper B \, F or G;
#X text 314 150 Clic On ->;
#N canvas 319 146 550 453 ARGO 0;
#X obj 101 101 cnv 10 298 46 empty ColorForm empty 20 12 0 14 -228856
-1 1.04858e+06;
#X obj 164 102 cnv 10 20 10 empty ColorForm GEM-Text2d. 1 5 1 14 -228856
-1 1.04858e+06;
#X obj 81 416 outlet;
#X obj 101 101 cnv 4 10 4 empty empty empty 20 12 0 14 -128992 -66577
0;
#X obj 373 285 snapshot~;
#X obj 373 306 change;
#X obj 373 5 inlet~;
#X obj 81 5 inlet;
#X text 85 82 gemlist;
#X text 84 146 gemlist;
#X obj 81 248 t a b;
#X symbolatom 100 129 49 0 0 0 - - -;
#X msg 207 350 font \$1;
#X msg 18 299 justify left base;
#X obj 247 101 cnv 4 10 4 empty empty empty 20 12 0 14 -260097 -66577
0;
#X text 239 83 Text;
#X obj 245 5 inlet;
#X obj 285 100 hsl 101 12 0 1 0 1 \$0-A ColorGEM empty 0 7 1 9 -262144
-1 -1 1000 0;
#X obj 428 28 cnv 15 60 30 empty empty empty 20 12 0 14 -24198 -66577
0;
#N canvas 378 178 434 506 Help 0;
#X obj 13 121 cnv 15 400 150 empty empty empty 20 12 0 14 -233017 -66577
0;
#X text 16 120 Citation;
#X obj 14 278 cnv 15 400 40 empty empty empty 20 12 0 14 -261681 -66577
0;
#X text 14 25 Sous MacOSX les fichiers de fontes de caractères;
#X text 14 37 sont dans:;
#X text 84 86 /Library/Fonts/;
#X text 83 38 /Bibliotheque/Fonts/;
#X text 15 73 Under MacOSX the font files;
#X text 15 85 are in:;
#X text 83 99 /Users/You.../Library/Fonts;
#X text 83 52 /Utilisateurs/Vous.../Bibliotheque/Fonts;
#X text 28 173 Any TrueType-font can be rendered. Per default a file
"arial.ttf" is searched in the paths. If it is not found you will not
see anything unless you load a valid font via the "font"-message. The
font-loader uses pd's search-paths \, so you could specify your path
aon the command-line and load fonts with just "font times.ttf".;
#X text 30 141 [text2d] renders one line of a text with the current
color \, but without(!) 3D-transformation;
#X text 27 282 Note: on some systems it might be necessary to turn
rendering ON before loading a font.;
#X text 16 325 ATTENTION;
#X text 37 339 Aliasing consomme beaucoup de CPU;
#X text 14 7 GEM-Text2d;
#X obj 13 368 cnv 15 400 120 empty empty empty 20 12 0 14 -258113 -66577
0;
#X text 26 425 Sans importance...;
#X text 42 401 error: [text3d]: cannot find font-file '.../vera.ttf'
;
#X text 17 377 - In Pd window:;
#X text 18 389 - Dans la fenêtre Pd:;
#X text 27 414 Not important ...;
#X restore 435 35 pd Help;
#X msg 3 211 set \$1;
#X obj 18 5 loadbang;
#X msg 4 144 set \$1;
#X msg 3 167 Quand?;
#X obj 127 25 openpanel;
#X msg 155 71 set \$1;
#X obj 128 45 t b s;
#X msg 111 163 set \$1;
#X obj 127 5 bang;
#X obj 107 184 cnv 15 400 50 empty empty empty 20 12 0 14 -260097 -66577
0;
#X obj 389 101 cnv 4 10 4 empty empty empty 20 12 0 14 -1 -66577 0
;
#X text 376 72 Control;
#X text 384 84 Size;
#X obj 101 143 cnv 4 10 4 empty empty empty 20 12 0 14 -128992 -66577
0;
#X obj 18 56 t b b b b;
#X text 109 183 Nom du fichier de font/ File font name;
#X text 404 109 2 HSLIDER superposés;
#X text 404 98 ATTENTION;
#X obj 285 100 hsl 101 12 0 1 0 0 \$0-A ColorGEM 100 0 8 1 12 -228856
-1 -1 671 0;
#X obj 81 393 text2d;
#X msg 139 350 alias \$1;
#X obj 115 100 tgl 12 1 \$0-A \$0-B Aliasing 15 6 1 9 -262144 -1 -1
1 1;
#X obj 373 326 * 1000;
#X obj 373 349 clip 0 1000;
#X text 299 85 16 8 2019;
#X obj 460 381 cnv 15 52 22 empty empty empty 20 12 0 14 -24198 -66577
0;
#N canvas 353 174 321 152 ?... 0;
#X obj 8 84 cnv 15 300 56 empty empty empty 20 12 0 14 -224896 -66577
0;
#X obj 8 7 cnv 18 300 70 empty empty ARGOPdMiniModules 3 10 1 14 -4033
-1 1.04858e+06;
#X obj 31 27 cnv 10 10 10 empty empty Gerard 0 5 1 11 -4033 -1 1.04858e+06
;
#X obj 69 27 cnv 10 10 10 empty empty Paresys 0 5 1 11 -4033 -1 1.04858e+06
;
#X obj 12 40 pddp/pddplink http://gerard.paresys.free.fr/ARGOPd/;
#X obj 13 121 pddp/pddplink http://puredata.info/downloads/pd-extended
;
#X obj 13 97 pddp/pddplink http://puredata.info/downloads/pure-data
;
#X text 13 85 Construit sous / Build under Pd-0.49...;
#X text 12 109 or Pd 0.43.4-extended;
#X obj 12 53 pddp/pddplink https://paresys.pagesperso-orange.fr/ARGOPd/
;
#X restore 463 384 pd ?...;
#X obj 103 113 hsl 290 15 0 127 0 0 \$0-A \$0-B empty -2 -8 0 10 -262144
-262144 -1 0 1;
#X symbolatom 100 113 49 0 0 0 - - -;
#X msg 112 202 Brush Script.ttf;
#X obj 207 326 zexy/list2symbol;
#X obj 32 350 zexy/list2symbol;
#X obj 3 189 zexy/list2symbol;
#X obj 245 45 zexy/list2symbol;
#N canvas 795 278 311 300 Size~ 0;
#X msg 161 151 set \$1;
#X obj 14 52 +~;
#X obj 88 265 outlet;
#X obj 162 109 snapshot~;
#X obj 162 131 change;
#X obj 59 11 inlet;
#X obj 12 11 inlet~;
#X obj 16 264 outlet~;
#X msg 59 153 label \$1;
#X obj 162 11 loadbang;
#X obj 162 52 metro 200;
#X obj 220 11 r SendFluid;
#X obj 59 131 cyclone/tosymbol;
#X obj 59 109 * 1000;
#X connect 0 0 2 0;
#X connect 1 0 3 0;
#X connect 1 0 7 0;
#X connect 3 0 4 0;
#X connect 4 0 0 0;
#X connect 5 0 1 1;
#X connect 5 0 13 0;
#X connect 6 0 1 0;
#X connect 8 0 2 0;
#X connect 9 0 10 0;
#X connect 10 0 3 0;
#X connect 11 0 10 1;
#X connect 12 0 8 0;
#X connect 13 0 12 0;
#X restore 373 161 pd Size~;
#X obj 200 243 zexy/list2symbol;
#X connect 4 0 5 0;
#X connect 5 0 42 0;
#X connect 6 0 54 0;
#X connect 7 0 10 0;
#X connect 10 0 39 0;
#X connect 10 1 4 0;
#X connect 11 0 22 0;
#X connect 11 0 51 0;
#X connect 12 0 39 0;
#X connect 13 0 39 0;
#X connect 16 0 53 0;
#X connect 17 0 54 1;
#X connect 20 0 11 0;
#X connect 21 0 34 0;
#X connect 22 0 23 0;
#X connect 23 0 52 0;
#X connect 24 0 26 0;
#X connect 25 0 48 0;
#X connect 26 0 48 0;
#X connect 26 1 25 0;
#X connect 27 0 49 0;
#X connect 28 0 24 0;
#X connect 34 0 11 0;
#X connect 34 1 23 0;
#X connect 34 2 48 0;
#X connect 34 3 49 0;
#X connect 39 0 2 0;
#X connect 40 0 39 0;
#X connect 41 0 40 0;
#X connect 42 0 43 0;
#X connect 43 0 39 1;
#X connect 47 0 28 0;
#X connect 48 0 27 0;
#X connect 48 0 50 0;
#X connect 49 0 55 0;
#X connect 50 0 12 0;
#X connect 51 0 39 0;
#X connect 52 0 20 0;
#X connect 53 0 11 0;
#X connect 54 0 4 0;
#X connect 54 1 38 0;
#X connect 55 0 25 0;
#X coords 0 -1 1 1 300 48 1 100 100;
#X restore 86 250 pd ARGO;
#X obj 613 92 switch~;
#N canvas 608 166 228 173 ARGOnOff 0;
#X obj 100 100 tgl 18 1 \$0-SendOnOff \$0-ReceiveOnOff On/Off 20 11
1 14 -4033 -1 -1 1 1;
#X obj 99 10 loadbang;
#X msg 99 33 \; pd dsp 1;
#X obj 100 129 outlet;
#X text -50 99 Audio On/Off du patch ->;
#X text -22 45 Audio General On ->;
#X text 107 82 17 3 2010;
#X connect 0 0 3 0;
#X connect 1 0 2 0;
#X coords 0 -1 1 1 65 18 2 100 100;
#X restore 613 74 pd ARGOnOff;
#X text 618 58 V;
#X text 618 51 |;
#X text 606 40 On/Off Patch;
#X text 636 52 (Audio);
#N canvas 523 227 384 325 ARGO 0;
#X obj 101 101 cnv 5 104 34 empty ColorAmpli empty 20 12 0 14 -262144
-1 1.04858e+06;
#X obj 85 290 outlet~;
#X obj 161 102 cnv 10 20 10 empty ColorAmpli Alea2. 1 5 1 14 -262144
-1 1.04858e+06;
#X obj 85 264 *~;
#X obj 103 125 hsl 101 12 -80 20 0 1 \$0-A ColorAmpli -28dB 0 7 1 9
-261299 -1 -1 5200 0;
#X obj 101 138 cnv 4 10 4 empty empty empty 20 12 0 14 -1 -66577 0
;
#X text 106 182 -> 0.0001..10 = -80dB..20dB;
#X obj 100 163 expr (pow(10 \, $f1 / 20));
#X text 107 140 -> -80..20;
#X obj 100 201 sel 0.0001;
#X msg 100 223 0;
#X obj 100 101 tgl 12 1 \$0-A \$0-B On 15 7 1 9 -262144 -1 -1 1 1;
#X obj 101 101 cnv 4 10 4 empty empty empty 20 12 0 14 -260097 -66577
0;
#X obj 22 290 switch~;
#X msg -24 119 help;
#X obj -24 205 zexy/noisi~;
#X obj -69 9 cnv 15 60 30 empty empty empty 20 12 0 14 -24198 -66577
0;
#N canvas 518 254 425 367 Help 0;
#X obj 8 47 cnv 15 400 300 empty empty empty 20 12 0 14 -233017 -66577
0;
#X text 12 49 Citation;
#X text 5 25 (library zexy);
#X text 33 80 draws a random number every n samples and interpolates
between;
#X text 22 64 noisi~;
#X text 34 107 the effect is that you get a bandlimited noise the bandwidth
of which can be controlled without having to use expensive filters
;
#X text 8 6 a bandlimited interpolating pseudo-noise generator;
#X text 35 161 creation : "noisi~ [<freq>]": ('0'(default) will produce
'white' noise);
#X text 34 187 <freq> : sampling-frequency (in Hz);
#X text 34 209 the seed of the pseudo-noise generator changes from
instance to instance \, so two noisi~-objects created at the same time
will produce different signals \, something the original noise~-object
misses;
#X text 34 276 for further details see DODGE/JERSE "computer music"
c3.9;
#X restore -62 15 pd Help;
#X text 8 8 Générateur Audio aléatoire continu;
#X text 8 22 Continuous Audio random generator;
#X obj 202 277 cnv 15 54 25 empty empty empty 20 12 0 14 -24198 -66577
0;
#N canvas 336 174 313 131 ???? 0;
#X obj 3 83 cnv 15 300 38 empty empty empty 20 12 0 14 -224896 -66577
0;
#X obj 3 6 cnv 18 300 70 empty empty ARGOPdMiniModules 3 10 1 14 -4033
-1 1.04858e+06;
#X obj 26 26 cnv 10 10 10 empty empty Gerard 0 5 1 11 -4033 -1 1.04858e+06
;
#X obj 64 26 cnv 10 10 10 empty empty Paresys 0 5 1 11 -4033 -1 1.04858e+06
;
#X obj 7 37 pddp/pddplink http://gerard.paresys.free.fr/ARGOPd/;
#X text 8 85 Construit sous / Build under Pd 0.43.4-extended;
#X obj 17 100 pddp/pddplink http://puredata.info/downloads/pd-extended
;
#X obj 7 50 pddp/pddplink http://paresys.pagesperso-orange.fr/ARGOPd/
;
#X restore 206 281 pd ????;
#N canvas 602 278 226 203 label 0;
#X obj 61 160 outlet;
#X obj 61 14 inlet;
#X msg 62 109 label \$1;
#X text 70 68 -> -80dB..20dB;
#X obj 145 13 inlet;
#X obj 61 51 cyclone/sprintf %ddB;
#X obj 61 86 cyclone/tosymbol;
#X connect 1 0 5 0;
#X connect 2 0 0 0;
#X connect 4 0 6 0;
#X connect 5 0 6 0;
#X connect 6 0 2 0;
#X restore 17 127 pd label;
#X obj 103 113 hsl 101 12 0.01 1000 1 1 \$0-A ColorAmpli 1Hz 0 7 1
9 -208064 -1 -1 4000 0;
#N canvas 595 360 241 178 label 0;
#X obj 30 134 outlet;
#X obj 30 13 inlet;
#X msg 30 108 label \$1;
#X obj 30 38 expr (int(1000 * $f1) / 1000) \;;
#X obj 30 62 cyclone/sprintf %sHz;
#X obj 30 85 cyclone/tosymbol;
#X connect 1 0 3 0;
#X connect 2 0 0 0;
#X connect 3 0 4 0;
#X connect 4 0 5 0;
#X connect 5 0 2 0;
#X restore 16 106 pd label;
#X obj -74 54 cnv 15 190 20 empty empty empty 20 12 0 14 -261682 -66577
0;
#X text -73 55 1: On 0: Off bang: Change ->;
#X obj 100 56 inlet;
#X text 149 84 2 8 2019;
#X connect 3 0 1 0;
#X connect 4 0 7 0;
#X connect 4 0 22 0;
#X connect 7 0 9 0;
#X connect 9 0 10 0;
#X connect 9 1 3 1;
#X connect 10 0 3 1;
#X connect 10 0 22 1;
#X connect 11 0 13 0;
#X connect 14 0 15 0;
#X connect 15 0 3 0;
#X connect 22 0 4 0;
#X connect 23 0 24 0;
#X connect 23 0 15 0;
#X connect 24 0 23 0;
#X connect 27 0 11 0;
#X coords 0 -1 1 1 106 42 1 100 100;
#X restore 379 152 pd ARGO;
#N canvas 423 177 281 233 ARGO 0;
#X obj 101 101 cnv 10 164 17 empty ColorForm empty 20 12 0 14 -228856
-1 1.04858e+06;
#X obj 187 105 cnv 10 20 10 empty ColorForm GEM-Head. 1 5 1 14 -228856
-1 1.04858e+06;
#X obj 101 114 cnv 4 10 4 empty empty empty 20 12 0 14 -128992 -66577
0;
#X text 84 119 gemlist;
#X obj 113 101 nbx 3 12 1 100 0 1 \$0-A \$0-B Render 33 7 1 9 -262144
-1 -1 50 256;
#X obj 101 169 gemhead;
#X msg 134 134 set \$1;
#X obj 101 200 outlet;
#X obj 101 101 tgl 12 1 \$0-A \$0-B empty 15 7 1 9 -262144 -1 -1 1
1;
#X text 40 98 On/Off ->;
#X obj 120 40 cnv 15 60 30 empty empty empty 20 12 0 14 -24198 -66577
0;
#N canvas 642 261 453 329 Help 0;
#X obj 5 56 cnv 15 430 200 empty empty empty 20 12 0 14 -233017 -66577
0;
#X text 8 56 Citation;
#X text 6 26 GEM-Head;
#X text 15 125 gemhead takes an argument to determine when it receives
the render command. The default value is 50 The lower the value is
\, the sooner the gemhead will receive the rendering command (a value
of 1 is the lowest possible value (see below)). This value becomes
important when you are doing alpha blending and for certain objects
(such as light).;
#X text 17 213 gemhead also accepts a 1 or 0 to enable and disable
rendering for the chain.;
#X text 15 76 gemhead connects the gem objects to the window manager.
The start of any gemList begins with the gemhead. Without the gemhead
\, gem objects will not receive the render command.;
#X restore 127 46 pd Help;
#X text 207 83 16 8 2019;
#X obj 210 187 cnv 15 54 25 empty empty empty 20 12 0 14 -24198 -66577
0;
#N canvas 350 196 313 131 ???? 0;
#X obj 3 83 cnv 15 300 38 empty empty empty 20 12 0 14 -224896 -66577
0;
#X obj 3 6 cnv 18 300 70 empty empty ARGOPdMiniModules 3 10 1 14 -4033
-1 1.04858e+06;
#X obj 26 26 cnv 10 10 10 empty empty Gerard 0 5 1 11 -4033 -1 1.04858e+06
;
#X obj 64 26 cnv 10 10 10 empty empty Paresys 0 5 1 11 -4033 -1 1.04858e+06
;
#X obj 7 50 pddp/pddplink http://pagesperso-orange.fr/Paresys/ARGOPd/
;
#X obj 7 37 pddp/pddplink http://gerard.paresys.free.fr/ARGOPd/;
#X text 8 85 Construit sous / Build under Pd 0.43.4-extended;
#X obj 17 100 pddp/pddplink http://puredata.info/downloads/pd-extended
;
#X restore 214 191 pd ????;
#X connect 4 0 6 0;
#X connect 5 0 7 0;
#X connect 6 0 5 0;
#X connect 8 0 5 0;
#X coords 0 -1 1 1 166 19 1 100 100;
#X restore 86 147 pd ARGO;
#N canvas 457 220 345 309 ARGO 0;
#X obj 101 101 cnv 10 144 54 empty ColorForm empty 20 12 0 14 -228856
-1 1.04858e+06;
#X obj 101 101 cnv 4 10 4 empty empty empty 20 12 0 14 -128992 -66577
0;
#X obj 162 108 cnv 10 20 10 empty ColorForm GEM-Color. 1 5 1 14 -228856
-1 1.04858e+06;
#X text 76 57 gemlist;
#X obj 101 151 cnv 4 10 4 empty empty empty 20 12 0 14 -128992 -66577
0;
#X text 79 281 gemlist;
#X obj 257 190 t b f;
#X obj 197 190 t b f;
#X obj 197 218 pack 0 0 0;
#X obj 82 265 outlet;
#X obj 82 245 color;
#X obj 82 77 inlet;
#X text 125 49 Control;
#X text 135 60 Red;
#X text 174 49 Control;
#X text 178 60 Green;
#X text 220 49 Control;
#X text 228 61 Blue;
#X obj 115 120 hsl 129 12 0 100 0 1 \$0-A \$0-B 84 0 8 1 12 -258049
-262144 -262144 10800 0;
#X obj 115 132 hsl 129 12 0 100 0 1 \$0-A \$0-B 0 0 8 1 12 -4033 -262144
-262144 0 0;
#X obj 115 144 hsl 129 12 0 100 0 1 \$0-A \$0-B 0 0 8 1 12 -64 -262144
-262144 0 0;
#X obj 81 18 cnv 15 60 30 empty empty empty 20 12 0 14 -24198 -66577
0;
#N canvas 369 208 421 215 Help 0;
#X obj 7 -95 cnv 15 400 200 empty empty empty 20 12 0 14 -233017 -66577
0;
#X text 10 -96 Citation;
#X text 19 -59 [color] sets the colour of all subsequent shape and
vertex operations until reset by another [color]/[colorRGB] object.
If you set the alpha-value \, you will beed an [alpha] object to enable
alpha-blending;
#X text 9 -73 Description: colouring;
#X restore 88 24 pd Help;
#X obj 235 101 cnv 4 10 4 empty empty empty 20 12 0 14 -260097 -66577
0;
#X obj 191 101 cnv 4 10 4 empty empty empty 20 12 0 14 -260097 -66577
0;
#X obj 143 101 cnv 4 10 4 empty empty empty 20 12 0 14 -260097 -66577
0;
#X obj 125 77 inlet;
#X obj 174 77 inlet;
#X obj 223 77 inlet;
#N canvas 795 278 198 218 color 0;
#X obj 68 186 outlet;
#X obj 68 10 inlet;
#X msg 68 141 label \$1;
#X obj 68 96 int;
#X obj 131 95 / 100;
#X obj 131 185 outlet;
#X obj 68 119 cyclone/tosymbol;
#X connect 1 0 3 0;
#X connect 1 0 4 0;
#X connect 2 0 0 0;
#X connect 3 0 6 0;
#X connect 4 0 5 0;
#X connect 6 0 2 0;
#X restore 91 167 pd color;
#N canvas 795 278 198 218 color 0;
#X obj 68 186 outlet;
#X obj 68 10 inlet;
#X msg 68 141 label \$1;
#X obj 68 96 int;
#X obj 131 95 / 100;
#X obj 131 185 outlet;
#X obj 68 119 cyclone/tosymbol;
#X connect 1 0 3 0;
#X connect 1 0 4 0;
#X connect 2 0 0 0;
#X connect 3 0 6 0;
#X connect 4 0 5 0;
#X connect 6 0 2 0;
#X restore 152 167 pd color;
#N canvas 795 278 198 218 color 0;
#X obj 68 186 outlet;
#X obj 68 10 inlet;
#X msg 68 141 label \$1;
#X obj 68 96 int;
#X obj 131 95 / 100;
#X obj 131 185 outlet;
#X obj 68 119 cyclone/tosymbol;
#X connect 1 0 3 0;
#X connect 1 0 4 0;
#X connect 2 0 0 0;
#X connect 3 0 6 0;
#X connect 4 0 5 0;
#X connect 6 0 2 0;
#X restore 212 167 pd color;
#X text 258 99 22 7 2018;
#X obj 287 254 cnv 15 42 25 empty empty empty 20 12 0 14 -24198 -66577
0;
#N canvas 336 174 309 137 ?. 0;
#X obj 3 83 cnv 15 300 46 empty empty empty 20 12 0 14 -224896 -66577
0;
#X obj 3 6 cnv 18 300 70 empty empty ARGOPdMiniModules 3 10 1 14 -4033
-1 1.04858e+06;
#X obj 26 26 cnv 10 10 10 empty empty Gerard 0 5 1 11 -4033 -1 1.04858e+06
;
#X obj 64 26 cnv 10 10 10 empty empty Paresys 0 5 1 11 -4033 -1 1.04858e+06
;
#X obj 7 37 pddp/pddplink http://gerard.paresys.free.fr/ARGOPd/;
#X text 8 85 Construit sous / Build under Pd 0.43.4-extended;
#X obj 8 111 pddp/pddplink http://puredata.info/downloads/pd-extended
;
#X obj 7 50 pddp/pddplink http://paresys.pagesperso-orange.fr/ARGOPd/
;
#X text 7 98 or Pd-0.46-7 + deken;
#X restore 291 258 pd ?.;
#X connect 6 0 8 0;
#X connect 6 1 8 2;
#X connect 7 0 8 0;
#X connect 7 1 8 1;
#X connect 8 0 10 1;
#X connect 10 0 9 0;
#X connect 11 0 10 0;
#X connect 18 0 29 0;
#X connect 19 0 30 0;
#X connect 20 0 31 0;
#X connect 26 0 18 0;
#X connect 27 0 19 0;
#X connect 28 0 20 0;
#X connect 29 0 18 0;
#X connect 29 1 8 0;
#X connect 30 0 19 0;
#X connect 30 1 7 0;
#X connect 31 0 20 0;
#X connect 31 1 6 0;
#X coords 0 -1 1 1 146 56 1 100 100;
#X restore 86 178 pd ARGO;
#X obj 395 11 declare -stdlib Gem;
#X text 390 287 <- Type a text and Return;
#X text 389 244 <- Size of text;
#N canvas 222 55 1072 759 ARGO 0;
#X obj 401 151 cnv 22 183 112 empty empty GEM. 5 12 1 18 -1 -262144
1.04858e+06;
#X obj 505 204 tgl 12 1 \$0-A \$0-ColorGEM (F)ullScreen 15 7 1 11 -24198
-1 -24198 0 1;
#X obj 403 174 tgl 12 1 \$0-A \$0-ColorGEM (G)EM 15 7 1 11 -24198 -1
-24198 1 1;
#X obj 505 189 tgl 12 1 \$0-A \$0-ColorGEM KeyShortCut 15 7 1 11 -24198
-1 -24198 0 1;
#X msg 391 307 set \$1;
#X msg 370 335 1;
#X msg 287 658 frame \$1;
#X obj 948 539 select 0 1;
#X msg 976 658 color 16 22 16;
#X msg 948 634 color 0 22 0;
#X obj 505 174 tgl 12 1 SendMode \$0-ColorGEM Compatible 15 7 1 11
-24198 -1 -24198 1 1;
#X obj 403 234 hradio 12 1 1 5 \$0-A \$0-ColorGEM 640x480 62 7 1 11
-24198 -1 -24198 2;
#X obj 184 279 t b f;
#N canvas 206 161 332 336 Dimension 0;
#X msg 120 175 set dimen 640 480;
#X msg 102 217 set dimen 320 240;
#X msg 131 154 label 640x480;
#X msg 112 196 label 320x240;
#X obj 102 17 inlet;
#X obj 25 299 outlet;
#X obj 246 299 outlet;
#X msg 82 260 set dimen 480 640;
#X msg 92 239 label 480x640;
#X msg 161 90 set dimen 1280 720;
#X msg 136 133 set dimen 1280 480;
#X msg 167 67 label 1280x720;
#X msg 146 112 label 1280x480;
#X obj 102 43 sel 0 1 2 3 4;
#X connect 0 0 6 0;
#X connect 1 0 6 0;
#X connect 2 0 5 0;
#X connect 3 0 5 0;
#X connect 4 0 13 0;
#X connect 7 0 6 0;
#X connect 8 0 5 0;
#X connect 9 0 6 0;
#X connect 10 0 6 0;
#X connect 11 0 5 0;
#X connect 12 0 5 0;
#X connect 13 0 8 0;
#X connect 13 0 7 0;
#X connect 13 1 3 0;
#X connect 13 1 1 0;
#X connect 13 2 2 0;
#X connect 13 2 0 0;
#X connect 13 3 12 0;
#X connect 13 3 10 0;
#X connect 13 4 11 0;
#X connect 13 4 9 0;
#X restore 211 304 pd Dimension;
#X obj 140 279 t b f;
#X obj 403 189 tgl 12 1 \$0-A \$0-ColorGEM (B)arMenu 15 7 1 11 -24198
-1 -24198 1 1;
#X obj 403 204 tgl 12 1 \$0-A \$0-ColorGEM (L)ight 15 7 1 11 -24198
-1 -24198 0 1;
#X obj 403 219 nbx 3 12 0 100 0 1 \$0-A \$0-ColorGEM BackGround 37
7 1 11 -24198 -1 -24198 90 256;
#X obj 522 234 tgl 12 1 \$0-A \$0-ColorGEM Screen2 15 7 1 11 -24198
-1 -24198 0 1;
#X obj 461 174 bng 12 250 50 0 \$0-A \$0-ColorGEM Info 15 7 1 11 -24198
-1 -24198;
#X obj 559 279 t b f;
#X obj 637 411 + 1;
#X msg 217 658 print;
#X msg 45 658 lighting \$1;
#X msg 123 658 color \$1 \$1 \$1;
#X obj 173 634 / 100;
#X obj 620 634 * 2;
#X obj 90 634 int;
#X obj 708 169 cnv 15 60 30 empty empty empty 20 12 0 14 -24198 -66577
0;
#N canvas 510 159 430 463 Help 0;
#X obj 16 35 cnv 15 380 90 empty empty empty 20 12 0 14 -233017 -66577
0;
#X text 21 33 Citation;
#X text 20 46 "GEM is the Graphics Environment for Multimedia. It was
originally written by Mark Danks to generate real-time computer graphics
\, especially for audio-visual compositions.";
#X text 20 96 "GEM is a collection of externals which allow the user
to create OpenGL graphics within Pd";
#X text 15 133 - Raccourcis clavier;
#X text 17 189 - En "FullScreen" taper F ou Pomme + Tab sous MacOSX...
;
#X text 125 202 taper F ou Alt + Tab sous Windows...;
#X text 125 214 taper F ou Alt + F4 sous Linux...;
#X text 40 358 Inconvenient: Charge CPU => la texture est calculée
(objet pix_texture) par le processeur de l'ordinateur et pas par la
carte video);
#X text 17 306 Il faut cocher compatible avec certaines cartes video
\, de certains PC \, sous Windows...;
#X text 18 332 Compatible Off -> mode 1: TEXTURE_RECTANGLE;
#X text 18 344 Compatible On -> mode 0: TEXTURE_2D;
#X text 13 10 - GEM On ouvre une fenetre;
#X text 139 132 g / G -> GEM On/Off;
#X text 140 146 f / F -> FullScreen On/Off;
#X text 141 159 b /B -> Menu bar On/Off;
#X text 141 173 Echap / Esc -> FullScreen Off;
#X text 20 432 16/9 = 512/288 = 1024/576 = 1152/648 = 1280/720 = 1440/810
;
#X text 14 420 16/10 = 512/320 = 1024/640 = 1152/720 = 1280x800 = 1440/900
;
#X text 348 407 = 1280/960;
#X text 25 408 4/3 = 160/120 = 320/240 = 512/384 = 640/480 = 1024x768
;
#X text 126 227 ou Echap / Esc...;
#X text 16 272 - Compatible envoie le message rectangle 1 ou rectangle
0 à tous les objets pix_texture des autres modules;
#X restore 715 175 pd Help;
#X msg 346 658 create;
#X msg 620 658 fullscreen \$1;
#X obj 370 360 sel 1;
#X msg 588 411 set \$1;
#X msg 393 658 dimen 640 480;
#X msg 258 658 1;
#X obj 370 438 select linux macos windows;
#X msg 201 334 set \$1;
#X msg 483 584 1;
#X msg 483 658 border \$1 \, menubar \$1;
#X msg 620 584 0;
#X obj 421 466 t b b b;
#X obj 370 466 t b b b;
#X obj 405 584 spigot;
#X obj 555 411 == 0;
#X obj 370 415 zexy/operating_system;
#X msg 711 634 2;
#X obj 403 249 tgl 12 1 \$0-A \$0-ColorGEM SingleBuffer 15 7 1 11 -24198
-1 -24198 0 1;
#X obj 487 249 bng 12 50 50 0 \$0-A \$0-ColorGEM Clear 15 7 1 11 -24198
-1 -24198;
#X obj 712 539 sel 0 1;
#X msg 711 584 set 2;
#X msg 756 584 set 1;
#X obj 536 249 bng 12 50 50 0 \$0-A \$0-ColorGEM Grade 15 7 1 11 -24198
-1 -24198;
#N canvas 1071 188 366 385 Graduation 0;
#X obj 161 78 until;
#X obj 161 100 f;
#X obj 209 100 + 1;
#X obj 237 101 sel 0;
#X obj 161 176 gemhead;
#X obj 161 350 GEMglEnd;
#X obj 161 224 GEMglBegin GL_LINES;
#X obj 161 122 t b f;
#X obj 161 249 GEMglVertex2f -10 0;
#X obj 161 272 GEMglVertex2f 10 0;
#X obj 161 294 GEMglVertex2f 0 -4;
#X obj 161 316 GEMglVertex2f 0 4;
#X obj 35 316 GEMglVertex2f 0 4;
#X obj 35 294 GEMglVertex2f 0 -4;
#X obj 161 198 color 0.8 0.8 0.8;
#X obj 127 17 inlet;
#X text 164 17 <- bang;
#X obj 34 175 gemhead;
#X obj 35 224 GEMglBegin GL_LINES;
#X msg 306 116 1;
#X msg 34 116 0;
#X obj 127 41 t b b b b;
#X obj 35 198 color 0.2 0.2 0.2;
#X obj 195 40 cnv 15 130 20 empty empty empty 20 12 0 14 -24198 -66577
0;
#X text 200 41 en mode SingleBuffer;
#X obj 34 18 loadbang;
#X obj 226 13 bng 15 250 50 0 empty empty empty 17 7 0 10 -262144 -1
-1;
#X obj 209 122 mod 23;
#X obj 274 198 - 12;
#X obj 35 249 GEMglVertex2f -10 0;
#X obj 35 272 GEMglVertex2f 10 0;
#X obj 294 13 bng 15 250 50 0 empty empty empty 17 7 0 10 -262144 -1
-1;
#X obj 259 11 bng 15 250 50 0 empty empty empty 17 7 0 10 -262144 -1
-1;
#X obj 333 16 bng 15 250 50 0 empty empty empty 17 7 0 10 -262144 -1
-1;
#X connect 0 0 1 0;
#X connect 1 0 2 0;
#X connect 1 0 7 0;
#X connect 2 0 27 0;
#X connect 3 0 0 1;
#X connect 4 0 14 0;
#X connect 6 0 8 0;
#X connect 7 0 4 0;
#X connect 7 1 28 0;
#X connect 8 0 9 0;
#X connect 9 0 10 0;
#X connect 10 0 11 0;
#X connect 11 0 5 0;
#X connect 12 0 5 0;
#X connect 13 0 12 0;
#X connect 14 0 6 0;
#X connect 15 0 21 0;
#X connect 17 0 22 0;
#X connect 18 0 29 0;
#X connect 19 0 4 0;
#X connect 19 0 17 0;
#X connect 20 0 17 0;
#X connect 20 0 4 0;
#X connect 21 0 20 0;
#X connect 21 1 17 0;
#X connect 21 2 0 0;
#X connect 21 3 19 0;
#X connect 22 0 18 0;
#X connect 25 0 20 0;
#X connect 26 0 21 0;
#X connect 27 0 1 1;
#X connect 27 0 3 0;
#X connect 28 0 8 2;
#X connect 28 0 9 2;
#X connect 28 0 10 1;
#X connect 28 0 11 1;
#X connect 29 0 30 0;
#X connect 30 0 13 0;
#X connect 31 0 4 0;
#X connect 32 0 17 0;
#X restore 639 315 pd Graduation;
#X obj 461 204 bng 12 250 50 0 \$0-A \$0-ColorGEM Save 15 7 1 11 -24198
-1 -24198;
#X obj 586 224 cnv 15 390 50 empty empty empty 20 12 0 14 -24198 -66577
0;
#X msg 738 339 0;
#X msg 769 339 2;
#X msg 798 339 4;
#X msg 859 339 8;
#X msg 829 339 5;
#X msg 738 367 destroy \, FSAA \$1 \, buffer 1 \, create \, 1;
#N canvas 669 277 404 282 SaveJpeg 0;
#X obj 207 46 loadbang;
#X obj 73 46 inlet;
#X text 6 242 Sauve la fenetre GEM au format JPEG dans le dossier du
patch;
#X obj 207 128 cyclone/tosymbol;
#X obj 207 103 cyclone/sprintf %s/GEMWindow;
#X obj 207 77 ggee/getdir;
#X text 7 229 Save the GEM window in JPEG format in the patch folder
;
#X obj 100 199 pix_write;
#X msg 110 153 color_format 3;
#X msg 207 153 file \$1 90;
#X obj 73 77 t b b;
#X obj 33 129 delay 100;
#X obj 33 153 gemhead 90;
#X connect 0 0 5 0;
#X connect 1 0 10 0;
#X connect 3 0 9 0;
#X connect 4 0 3 0;
#X connect 5 0 4 0;
#X connect 8 0 7 0;
#X connect 9 0 7 0;
#X connect 10 0 11 0;
#X connect 10 1 7 0;
#X connect 11 0 12 0;
#X connect 12 0 7 0;
#X restore 639 294 pd SaveJpeg;
#X obj 491 155 nbx 2 12 1 30 0 1 \$0-A \$0-ColorGEM Frames/sec 29 7
1 11 -24198 -1 -24198 10 256;
#X obj 880 105 cnv 15 100 80 empty empty empty 20 12 0 14 -24198 -66577
0;
#X text 903 107 library:;
#X text 884 119 pddp;
#X text 884 130 cyclone;
#X text 884 141 zexy;
#X text 884 153 Gem;
#X text 884 164 ggee;
#X obj 888 718 cnv 15 34 16 empty empty empty 20 12 0 14 -24198 -66577
0;
#N canvas 353 174 333 161 ?? 0;
#X obj 17 89 cnv 15 300 56 empty empty empty 20 12 0 14 -224896 -66577
0;
#X obj 17 12 cnv 18 300 70 empty empty ARGOPdMiniModules 3 10 1 14
-4033 -1 1.04858e+06;
#X obj 40 32 cnv 10 10 10 empty empty Gerard 0 5 1 11 -4033 -1 1.04858e+06
;
#X obj 78 32 cnv 10 10 10 empty empty Paresys 0 5 1 11 -4033 -1 1.04858e+06
;
#X obj 20 54 pddp/pddplink http://gerard.paresys.free.fr/ARGOPd/;
#X obj 22 126 pddp/pddplink http://puredata.info/downloads/pd-extended
;
#X obj 22 102 pddp/pddplink http://puredata.info/downloads/pure-data
;
#X text 22 90 Construit sous / Build under Pd-0.49...;
#X text 21 114 or Pd 0.43.4-extended;
#X obj 20 66 pddp/pddplink https://paresys.pagesperso-orange.fr/ARGOPd/
;
#X obj 20 42 pddp/pddplink https://github.com/gerardparesys/ARGOPd
;
#X restore 888 718 pd ??;
#X obj 866 391 tgl 15 0 empty empty empty 0 -6 0 10 -262144 -1 -1 0
1;
#X msg 866 410 topmost \$1;
#X obj 870 584 spigot 0;
#X msg 883 539 1;
#X obj 142 359 spigot 0;
#X obj 142 382 t b b b;
#X obj 142 334 spigot 0;
#X obj 505 279 t b f f;
#X obj 393 498 delay 30;
#X obj 280 527 delay 30;
#X obj 7 584 delay 30;
#X obj 700 99 receive Sendgemwin;
#X obj 258 718 send RenderGEM;
#X obj 948 718 send \$0-ColorGEM;
#X text 604 232 Sauve la fenetre GEM au format JPEG dans le dossier
du patch;
#X text 586 223 <- Save the GEM window in JPEG format in the patch
folder;
#X text 587 247 <- Clear and Grade only work in SingleBuffer;
#X text 606 258 Clear et Grade ne fonctionne qu'en SingleBuffer;
#X obj 741 287 cnv 15 150 20 empty empty empty 20 12 0 14 -258113 -66577
0;
#X text 746 289 Pb Save Red Gem 0.94;
#X obj 7 606 t b b b b;
#X obj 7 634 delay 300;
#X msg 7 658 bang;
#X msg 871 658 0 \, destroy;
#X msg 711 658 reset \, FSAA 4 \, buffer \$1;
#X obj 370 388 t b b b;
#X obj 448 279 t b f b;
#X obj 372 279 t b f f;
#X msg 914 539 0;
#X obj 461 718 gemwin;
#X obj 505 219 nbx 3 12 -100 1000 0 1 \$0-A \$0-ColorGEM Offset 37
7 1 11 -24198 -1 -24198 30 256;
#X msg 370 623 offset \$1 \$1;
#X obj 916 632 bng 15 250 50 0 empty empty empty 17 7 0 10 -262144
-1 -1;
#X obj 280 550 t b b b b;
#N canvas 275 146 715 493 KeyShortCut 0;
#X obj 467 22 key;
#X obj 467 70 spigot;
#X obj 335 22 gemkeyname;
#X obj 238 137 select 27;
#X msg 173 227 0;
#X obj 302 70 spigot;
#X obj 335 45 == 0;
#X obj 173 202 t b b;
#X msg 206 227 set 1;
#X obj 467 137 select 70 102 71 103 66 98 76 108;
#X obj 69 22 receive SendGEM;
#X obj 302 137 sel f F g G b B l L Escape;
#X obj 173 22 gemkeyboard;
#X obj 173 137 select 53;
#X text 7 136 Quit fullscreen with Esc ->;
#X text 166 351 (G)EM;
#X obj 168 335 outlet;
#X text 293 351 (B)arMenu;
#X obj 304 335 outlet;
#X text 389 351 (L)ight;
#X obj 389 335 outlet;
#X text 449 351 (F)ullScreen;
#X obj 467 335 outlet;
#X text 495 5 KeyShortCut;
#X obj 515 22 inlet;
#X obj 232 335 outlet;
#X text 137 399 esc key -> gemkeyboard -> 27 Windows & MacOS Pd-ceammc
;
#X text 137 411 esc key -> gemkeyboard -> 53 MacOS Pd-extended & Pd-Vanilla
;
#X text 137 423 esc key -> gemkeyboard -> 9 Ubuntu20.04 Pd0.50.2 GEM0.94
;
#X text 137 435 esc key -> gemkeyboard -> nothing MacOS Pd0.50.2 GEM0.94
;
#X connect 0 0 1 0;
#X connect 0 0 3 0;
#X connect 1 0 9 0;
#X connect 2 0 6 0;
#X connect 2 1 5 0;
#X connect 3 0 7 0;
#X connect 4 0 22 0;
#X connect 5 0 11 0;
#X connect 6 0 5 1;
#X connect 7 0 4 0;
#X connect 7 1 8 0;
#X connect 8 0 18 0;
#X connect 8 0 25 0;
#X connect 9 0 22 0;
#X connect 9 1 22 0;
#X connect 9 2 16 0;
#X connect 9 3 16 0;
#X connect 9 4 18 0;
#X connect 9 5 18 0;
#X connect 9 6 20 0;
#X connect 9 7 20 0;
#X connect 10 0 16 0;
#X connect 11 0 22 0;
#X connect 11 1 22 0;
#X connect 11 2 16 0;
#X connect 11 3 16 0;
#X connect 11 4 18 0;
#X connect 11 5 18 0;
#X connect 11 6 20 0;
#X connect 11 7 20 0;
#X connect 11 8 7 0;
#X connect 12 0 13 0;
#X connect 12 0 3 0;
#X connect 13 0 7 0;
#X connect 24 0 1 1;
#X restore 307 99 pd KeyShortCut;
#X text 590 165 14 4 2021;
#X connect 1 0 80 0;
#X connect 2 0 100 0;
#X connect 3 0 107 0;
#X connect 4 0 5 0;
#X connect 5 0 32 0;
#X connect 5 0 77 1;
#X connect 6 0 102 0;
#X connect 7 0 9 0;
#X connect 7 1 8 0;
#X connect 8 0 86 0;
#X connect 9 0 86 0;
#X connect 11 0 12 0;
#X connect 12 0 79 0;
#X connect 12 1 13 0;
#X connect 13 0 11 0;
#X connect 13 1 34 0;
#X connect 14 0 79 0;
#X connect 14 1 37 0;
#X connect 15 0 14 0;
#X connect 16 0 27 0;
#X connect 17 0 25 0;
#X connect 18 0 20 0;
#X connect 19 0 22 0;
#X connect 20 0 5 0;
#X connect 20 1 21 0;
#X connect 21 0 26 1;
#X connect 22 0 102 0;
#X connect 23 0 102 0;
#X connect 24 0 102 0;
#X connect 25 0 24 0;
#X connect 26 0 31 0;
#X connect 27 0 23 0;
#X connect 30 0 76 0;
#X connect 30 0 102 0;
#X connect 31 0 102 0;
#X connect 32 0 98 0;
#X connect 32 1 75 0;
#X connect 33 0 40 0;
#X connect 34 0 102 0;
#X connect 35 0 79 1;
#X connect 35 0 85 0;
#X connect 35 0 102 0;
#X connect 36 0 42 0;
#X connect 36 1 41 0;
#X connect 36 2 42 0;
#X connect 37 0 38 0;
#X connect 38 0 39 0;
#X connect 39 0 102 0;
#X connect 40 0 26 0;
#X connect 41 0 81 0;
#X connect 41 1 38 0;
#X connect 41 2 40 0;
#X connect 42 0 82 0;
#X connect 42 1 40 0;
#X connect 42 2 43 0;
#X connect 43 0 34 0;
#X connect 44 0 43 1;
#X connect 45 0 36 0;
#X connect 46 0 97 0;
#X connect 47 0 99 0;
#X connect 48 0 95 0;
#X connect 49 0 50 0;
#X connect 49 1 51 0;
#X connect 50 0 46 0;
#X connect 51 0 46 0;
#X connect 52 0 53 0;
#X connect 54 0 62 0;
#X connect 56 0 61 0;
#X connect 57 0 61 0;
#X connect 58 0 61 0;
#X connect 59 0 61 0;
#X connect 60 0 61 0;
#X connect 61 0 102 0;
#X connect 63 0 6 0;
#X connect 73 0 74 0;
#X connect 74 0 102 0;
#X connect 75 0 96 0;
#X connect 76 0 75 1;
#X connect 77 0 78 0;
#X connect 78 0 45 0;
#X connect 78 1 46 0;
#X connect 78 2 75 0;
#X connect 79 0 77 0;
#X connect 80 0 79 0;
#X connect 80 1 44 0;
#X connect 80 2 33 0;
#X connect 81 0 34 0;
#X connect 81 0 82 0;
#X connect 82 0 106 0;
#X connect 83 0 93 0;
#X connect 84 0 102 0;
#X connect 93 0 94 0;
#X connect 93 1 27 0;
#X connect 93 2 25 0;
#X connect 93 3 35 0;
#X connect 94 0 95 0;
#X connect 95 0 102 0;
#X connect 96 0 101 0;
#X connect 96 0 102 0;
#X connect 97 0 102 0;
#X connect 98 0 45 0;
#X connect 98 1 46 0;
#X connect 99 0 5 0;
#X connect 99 1 49 0;
#X connect 99 2 75 0;
#X connect 100 0 5 0;
#X connect 100 1 4 0;
#X connect 100 2 7 0;
#X connect 101 0 75 1;
#X connect 103 0 104 0;
#X connect 104 0 102 0;
#X connect 105 0 96 0;
#X connect 106 0 83 0;
#X connect 106 1 63 0;
#X connect 106 2 30 0;
#X connect 106 3 103 0;
#X connect 107 0 2 0;
#X connect 107 1 38 0;
#X connect 107 2 15 0;
#X connect 107 3 16 0;
#X connect 107 4 1 0;
#X coords 0 -1 1 1 185 114 1 400 150;
#X restore 92 26 pd ARGO;
#X obj 678 376 cnv 15 34 16 empty empty empty 20 12 0 14 -24198 -66577
0;
#N canvas 353 174 333 161 ?? 0;
#X obj 17 89 cnv 15 300 56 empty empty empty 20 12 0 14 -224896 -66577
0;
#X obj 17 12 cnv 18 300 70 empty empty ARGOPdMiniModules 3 10 1 14
-4033 -1 1.04858e+06;
#X obj 40 32 cnv 10 10 10 empty empty Gerard 0 5 1 11 -4033 -1 1.04858e+06
;
#X obj 78 32 cnv 10 10 10 empty empty Paresys 0 5 1 11 -4033 -1 1.04858e+06
;
#X obj 20 54 pddp/pddplink http://gerard.paresys.free.fr/ARGOPd/;
#X obj 22 126 pddp/pddplink http://puredata.info/downloads/pd-extended
;
#X obj 22 102 pddp/pddplink http://puredata.info/downloads/pure-data
;
#X text 22 90 Construit sous / Build under Pd-0.49...;
#X text 21 114 or Pd 0.43.4-extended;
#X obj 20 66 pddp/pddplink https://paresys.pagesperso-orange.fr/ARGOPd/
;
#X obj 20 42 pddp/pddplink https://github.com/gerardparesys/ARGOPd
;
#X restore 678 376 pd ??;
#X connect 13 0 23 1;
#X connect 14 0 23 1;
#X connect 15 0 23 1;
#X connect 25 0 24 0;
#X connect 30 0 23 2;
#X connect 31 0 32 0;
#X connect 32 0 23 0;
