#N canvas 365 23 477 364 10;
#X obj 7 8 cnv 15 15 15 empty empty ExMM1c-Sinus.pd 0 8 1 14 -262144
-66577 0;
#X obj 94 331 dac~ 1 2;
#X obj 35 137 switch~;
#N canvas 608 166 228 173 ARGOnOff 0;
#X obj 100 100 tgl 18 1 \$0-SendOnOff \$0-ReceiveOnOff On/Off 20 11
1 14 -4033 -1 -1 1 1;
#X obj 99 10 loadbang;
#X msg 99 33 \; pd dsp 1;
#X obj 100 129 outlet;
#X text -50 99 Audio On/Off du patch ->;
#X text -22 45 Audio General On ->;
#X text 107 82 17 3 2010;
#X connect 0 0 3 0;
#X connect 1 0 2 0;
#X coords 0 -1 1 1 65 18 2 100 100;
#X restore 35 119 pd ARGOnOff;
#X text 40 103 V;
#X text 40 96 |;
#X text 28 85 On/Off Patch;
#X text 10 245 Niveau general ->;
#X text 16 255 General level ->;
#X text 222 152 <- Contrôle de l'amplitude;
#X text 222 165 <- Control of the amplitude;
#N canvas 175 68 374 396 ARGO 0;
#X obj 101 101 cnv 20 116 34 empty ColorAmpli empty 20 12 0 14 -261299
-1 1.04858e+06;
#X obj 85 353 outlet~;
#X obj 157 104 cnv 10 20 10 empty ColorAmpli Ampli. 1 5 1 14 -261299
-1 1.04858e+06;
#X obj 85 43 inlet~;
#X obj 85 330 *~;
#X obj 115 118 hsl 101 12 -80 20 0 1 \$0-A ColorAmpli 0dB 0 7 1 9 -261299
-1 -1 8000 0;
#X obj 101 101 cnv 4 10 4 empty empty empty 20 12 0 14 -1 -66577 0
;
#X obj 101 131 cnv 4 10 4 empty empty empty 20 12 0 14 -1 -66577 0
;
#X msg -42 139 label \$1;
#X text 148 194 -> 0.0001..10 = -80dB..20dB;
#X obj 142 175 expr (pow(10 \, $f1 / 20));
#X obj 142 215 sel 0.0001;
#X msg 100 244 0;
#X obj 100 118 tgl 12 1 \$0-A \$0-B Mute 2 -5 1 9 -261299 -1 -1 0 1
;
#X obj 99 146 select 0 1;
#X obj 140 295 line~;
#X obj 140 275 pack 0 10;
#X msg 123 74 set 0;
#X obj -42 93 cyclone/sprintf %ddB;
#X obj -42 116 cyclone/tosymbol;
#X obj 261 342 cnv 15 42 25 empty empty empty 20 12 0 14 -24198 -66577
0;
#N canvas 336 174 309 137 ?. 0;
#X obj 3 83 cnv 15 300 46 empty empty empty 20 12 0 14 -224896 -66577
0;
#X obj 3 6 cnv 18 300 70 empty empty ARGOPdMiniModules 3 10 1 14 -4033
-1 1.04858e+06;
#X obj 26 26 cnv 10 10 10 empty empty Gerard 0 5 1 11 -4033 -1 1.04858e+06
;
#X obj 64 26 cnv 10 10 10 empty empty Paresys 0 5 1 11 -4033 -1 1.04858e+06
;
#X obj 7 37 pddp/pddplink http://gerard.paresys.free.fr/ARGOPd/;
#X text 8 85 Construit sous / Build under Pd 0.43.4-extended;
#X obj 8 111 pddp/pddplink http://puredata.info/downloads/pd-extended
;
#X obj 7 50 pddp/pddplink http://paresys.pagesperso-orange.fr/ARGOPd/
;
#X text 7 98 or Pd-0.46-7 + deken;
#X restore 265 346 pd ?.;
#X text 228 110 17 3 2016;
#X connect 3 0 4 0;
#X connect 4 0 1 0;
#X connect 5 0 10 0;
#X connect 5 0 18 0;
#X connect 8 0 5 0;
#X connect 10 0 11 0;
#X connect 11 0 12 0;
#X connect 11 1 16 0;
#X connect 11 1 17 0;
#X connect 12 0 16 0;
#X connect 12 0 19 0;
#X connect 13 0 14 0;
#X connect 14 0 5 0;
#X connect 14 1 12 0;
#X connect 15 0 4 1;
#X connect 16 0 15 0;
#X connect 17 0 13 0;
#X connect 18 0 19 0;
#X connect 19 0 8 0;
#X coords 0 -1 1 1 118 36 1 100 100;
#X restore 117 235 pd ARGO;
#N canvas 355 145 366 204 ARGO 0;
#X obj 92 143 osc~;
#X obj 101 101 cnv 20 244 34 empty ColorTime Oscill-Sinus. 165 8 1
14 -208064 -1 1.04858e+06;
#X obj 92 168 outlet~;
#X obj 100 106 nbx 7 12 0 20000 0 1 \$0-A ColorTime Hz 60 7 1 9 -208064
-1 -1 440 256;
#X obj 87 26 inlet~;
#X obj 101 131 cnv 4 10 4 empty empty empty 20 12 0 14 -1 -66577 0
;
#X obj 101 101 cnv 4 10 4 empty empty empty 20 12 0 14 -1728 -66577
0;
#X obj 103 118 hsl 241 12 0 1 0 0 \$0-A ColorTime empty 0 7 1 9 -262144
-1 -1 17700 0;
#X obj 103 118 hsl 241 12 0 1 0 0 \$0-A ColorTime A3 0 7 1 9 -208064
-1728 -1 17700 0;
#X text 155 147 2 HSLIDER superposés;
#X text 154 136 ATTENTION;
#X obj 197 52 cnv 15 60 30 empty empty empty 20 12 0 14 -24198 -66577
0;
#N canvas 161 113 425 238 Help 0;
#X obj 8 85 cnv 15 400 100 empty empty empty 20 12 0 14 -233017 -66577
0;
#X text 12 87 Citation;
#X text 10 45 Sensibilitée de l'entrée de contrôle de la fréquence:
;
#X text 10 57 1 = 240 1/2 ton = 20 octaves;
#X text 11 19 Oscillateur sinusoïdal;
#X text 22 106 The osc~ object outputs a cosine wave. If no argument
is supplied \, the input is taken to be an audio signal.;
#X restore 204 58 pd Help;
#N canvas 86 284 344 337 Freq-v8-sig- 0;
#X obj 227 64 ftom;
#X obj 277 223 mtof;
#X obj 139 148 +~;
#X obj 7 195 snapshot~;
#X obj 7 217 change;
#X msg 7 242 set \$1;
#X obj 139 251 clip~ 0 20000;
#X obj 139 228 mtof~;
#X obj 139 280 outlet~;
#X obj 278 40 inlet;
#X obj 227 40 inlet;
#X obj 36 280 outlet;
#X obj 277 280 outlet;
#X text 33 298 Hslider;
#X obj 139 40 inlet~;
#X obj 6 40 loadbang;
#X obj 227 280 outlet;
#X obj 277 162 * 240;
#X obj 277 185 - 108;
#X obj 139 176 *~ 240;
#X obj 139 198 -~ 108;
#X obj 227 87 + 108;
#X obj 227 109 / 240;
#X obj 7 93 metro 200;
#X obj 62 40 r SendFluid;
#X text 42 309 Over;
#X text 279 298 Number;
#X text 224 23 Number;
#X text 226 297 Hslider;
#X text 228 308 Under;
#X text 279 10 Hslider;
#X text 284 21 Under;
#X msg 227 250 set \$1;
#N canvas 220 243 583 317 pitchb-11-2010 0;
#X obj 78 119 mod 12;
#X obj 78 143 sel 0 1 2 3 4 5 6 7 8 9 10 11;
#X msg 254 178 A;
#X msg 308 178 B;
#X msg 200 178 G;
#X msg 11 178 C;
#X msg 65 178 D;
#X msg 119 178 E;
#X msg 146 178 F;
#X obj 212 9 inlet;
#X obj 385 123 div 12;
#X obj 212 87 t f f;
#X text 394 215 -> Numero de l'octave;
#X text 221 72 -> Numero MIDI de la note (69 = A3 = 440Hz);
#X msg 268 268 label \$1;
#X obj 268 291 outlet;
#X msg 38 178 Db;
#X msg 92 178 Eb;
#X msg 173 178 Gb;
#X msg 227 178 Ab;
#X msg 281 178 Bb;
#X text 377 86 (70 = A#3 = Bb3);
#X obj 268 246 symbol;
#X text 19 239 Impossible d'afficher # dans un label;
#X text 19 251 donc j'affiche b;
#X obj 212 59 int;
#X text 263 31 -> pour corriger certaines erreurs de calcul;
#X obj 385 152 - 12;
#X text 263 43 et le pb du passage a zero de mod 12;
#X obj 212 33 + 120.5;
#X obj 268 221 cyclone/sprintf %s%d;
#X connect 0 0 1 0;
#X connect 1 0 5 0;
#X connect 1 1 16 0;
#X connect 1 2 6 0;
#X connect 1 3 17 0;
#X connect 1 4 7 0;
#X connect 1 5 8 0;
#X connect 1 6 18 0;
#X connect 1 7 4 0;
#X connect 1 8 19 0;
#X connect 1 9 2 0;
#X connect 1 10 20 0;
#X connect 1 11 3 0;
#X connect 2 0 30 0;
#X connect 3 0 30 0;
#X connect 4 0 30 0;
#X connect 5 0 30 0;
#X connect 6 0 30 0;
#X connect 7 0 30 0;
#X connect 8 0 30 0;
#X connect 9 0 29 0;
#X connect 10 0 27 0;
#X connect 11 0 0 0;
#X connect 11 1 10 0;
#X connect 14 0 15 0;
#X connect 16 0 30 0;
#X connect 17 0 30 0;
#X connect 18 0 30 0;
#X connect 19 0 30 0;
#X connect 20 0 30 0;
#X connect 22 0 14 0;
#X connect 25 0 11 0;
#X connect 27 0 30 1;
#X connect 29 0 25 0;
#X connect 30 0 22 0;
#X restore 83 113 pd pitchb-11-2010;
#X connect 0 0 21 0;
#X connect 0 0 33 0;
#X connect 1 0 12 0;
#X connect 2 0 3 0;
#X connect 2 0 19 0;
#X connect 3 0 4 0;
#X connect 4 0 5 0;
#X connect 5 0 11 0;
#X connect 6 0 8 0;
#X connect 7 0 6 0;
#X connect 9 0 17 0;
#X connect 10 0 0 0;
#X connect 14 0 2 0;
#X connect 15 0 23 0;
#X connect 17 0 18 0;
#X connect 18 0 1 0;
#X connect 19 0 20 0;
#X connect 20 0 7 0;
#X connect 21 0 22 0;
#X connect 22 0 2 1;
#X connect 22 0 32 0;
#X connect 23 0 3 0;
#X connect 24 0 23 1;
#X connect 32 0 16 0;
#X connect 33 0 11 0;
#X restore 62 63 pd Freq-v8-sig-;
#X obj 304 162 cnv 15 42 25 empty empty empty 20 12 0 14 -24198 -66577
0;
#N canvas 336 174 309 137 ?. 0;
#X obj 3 83 cnv 15 300 46 empty empty empty 20 12 0 14 -224896 -66577
0;
#X obj 3 6 cnv 18 300 70 empty empty ARGOPdMiniModules 3 10 1 14 -4033
-1 1.04858e+06;
#X obj 26 26 cnv 10 10 10 empty empty Gerard 0 5 1 11 -4033 -1 1.04858e+06
;
#X obj 64 26 cnv 10 10 10 empty empty Paresys 0 5 1 11 -4033 -1 1.04858e+06
;
#X obj 7 37 pddp/pddplink http://gerard.paresys.free.fr/ARGOPd/;
#X text 8 85 Construit sous / Build under Pd 0.43.4-extended;
#X obj 8 111 pddp/pddplink http://puredata.info/downloads/pd-extended
;
#X obj 7 50 pddp/pddplink http://paresys.pagesperso-orange.fr/ARGOPd/
;
#X text 7 98 or Pd-0.46-7 + deken;
#X restore 308 166 pd ?.;
#X text 282 80 7 12 2017;
#X connect 0 0 2 0;
#X connect 3 0 13 1;
#X connect 4 0 13 0;
#X connect 7 0 13 2;
#X connect 13 0 8 0;
#X connect 13 1 0 0;
#X connect 13 2 7 0;
#X connect 13 3 3 0;
#X coords 0 -1 1 1 246 36 1 100 100;
#X restore 117 28 pd ARGO;
#N canvas 355 145 366 204 ARGO 0;
#X obj 92 143 osc~;
#X obj 101 101 cnv 20 244 34 empty ColorTime Oscill-Sinus. 165 8 1
14 -208064 -1 1.04858e+06;
#X obj 92 168 outlet~;
#X obj 100 106 nbx 7 12 0 20000 0 1 \$0-A ColorTime Hz 60 7 1 9 -208064
-1 -1 1.5 256;
#X obj 87 26 inlet~;
#X obj 101 131 cnv 4 10 4 empty empty empty 20 12 0 14 -1 -66577 0
;
#X obj 101 101 cnv 4 10 4 empty empty empty 20 12 0 14 -1728 -66577
0;
#X obj 103 118 hsl 241 12 0 1 0 0 \$0-A ColorTime empty 0 7 1 9 -262144
-1 -1 7864 0;
#X obj 103 118 hsl 241 12 0 1 0 0 \$0-A ColorTime G-5 0 7 1 9 -208064
-1728 -1 7864 0;
#X text 155 147 2 HSLIDER superposés;
#X text 154 136 ATTENTION;
#X obj 197 52 cnv 15 60 30 empty empty empty 20 12 0 14 -24198 -66577
0;
#N canvas 161 113 425 238 Help 0;
#X obj 8 85 cnv 15 400 100 empty empty empty 20 12 0 14 -233017 -66577
0;
#X text 12 87 Citation;
#X text 10 45 Sensibilitée de l'entrée de contrôle de la fréquence:
;
#X text 10 57 1 = 240 1/2 ton = 20 octaves;
#X text 11 19 Oscillateur sinusoïdal;
#X text 22 106 The osc~ object outputs a cosine wave. If no argument
is supplied \, the input is taken to be an audio signal.;
#X restore 204 58 pd Help;
#N canvas 86 284 344 337 Freq-v8-sig- 0;
#X obj 227 64 ftom;
#X obj 277 223 mtof;
#X obj 139 148 +~;
#X obj 7 195 snapshot~;
#X obj 7 217 change;
#X msg 7 242 set \$1;
#X obj 139 251 clip~ 0 20000;
#X obj 139 228 mtof~;
#X obj 139 280 outlet~;
#X obj 278 40 inlet;
#X obj 227 40 inlet;
#X obj 36 280 outlet;
#X obj 277 280 outlet;
#X text 33 298 Hslider;
#X obj 139 40 inlet~;
#X obj 6 40 loadbang;
#X obj 227 280 outlet;
#X obj 277 162 * 240;
#X obj 277 185 - 108;
#X obj 139 176 *~ 240;
#X obj 139 198 -~ 108;
#X obj 227 87 + 108;
#X obj 227 109 / 240;
#X obj 7 93 metro 200;
#X obj 62 40 r SendFluid;
#X text 42 309 Over;
#X text 279 298 Number;
#X text 224 23 Number;
#X text 226 297 Hslider;
#X text 228 308 Under;
#X text 279 10 Hslider;
#X text 284 21 Under;
#X msg 227 250 set \$1;
#N canvas 220 243 583 317 pitchb-11-2010 0;
#X obj 78 119 mod 12;
#X obj 78 143 sel 0 1 2 3 4 5 6 7 8 9 10 11;
#X msg 254 178 A;
#X msg 308 178 B;
#X msg 200 178 G;
#X msg 11 178 C;
#X msg 65 178 D;
#X msg 119 178 E;
#X msg 146 178 F;
#X obj 212 9 inlet;
#X obj 385 123 div 12;
#X obj 212 87 t f f;
#X text 394 215 -> Numero de l'octave;
#X text 221 72 -> Numero MIDI de la note (69 = A3 = 440Hz);
#X msg 268 268 label \$1;
#X obj 268 291 outlet;
#X msg 38 178 Db;
#X msg 92 178 Eb;
#X msg 173 178 Gb;
#X msg 227 178 Ab;
#X msg 281 178 Bb;
#X text 377 86 (70 = A#3 = Bb3);
#X obj 268 246 symbol;
#X text 19 239 Impossible d'afficher # dans un label;
#X text 19 251 donc j'affiche b;
#X obj 212 59 int;
#X text 263 31 -> pour corriger certaines erreurs de calcul;
#X obj 385 152 - 12;
#X text 263 43 et le pb du passage a zero de mod 12;
#X obj 212 33 + 120.5;
#X obj 268 221 cyclone/sprintf %s%d;
#X connect 0 0 1 0;
#X connect 1 0 5 0;
#X connect 1 1 16 0;
#X connect 1 2 6 0;
#X connect 1 3 17 0;
#X connect 1 4 7 0;
#X connect 1 5 8 0;
#X connect 1 6 18 0;
#X connect 1 7 4 0;
#X connect 1 8 19 0;
#X connect 1 9 2 0;
#X connect 1 10 20 0;
#X connect 1 11 3 0;
#X connect 2 0 30 0;
#X connect 3 0 30 0;
#X connect 4 0 30 0;
#X connect 5 0 30 0;
#X connect 6 0 30 0;
#X connect 7 0 30 0;
#X connect 8 0 30 0;
#X connect 9 0 29 0;
#X connect 10 0 27 0;
#X connect 11 0 0 0;
#X connect 11 1 10 0;
#X connect 14 0 15 0;
#X connect 16 0 30 0;
#X connect 17 0 30 0;
#X connect 18 0 30 0;
#X connect 19 0 30 0;
#X connect 20 0 30 0;
#X connect 22 0 14 0;
#X connect 25 0 11 0;
#X connect 27 0 30 1;
#X connect 29 0 25 0;
#X connect 30 0 22 0;
#X restore 83 113 pd pitchb-11-2010;
#X connect 0 0 21 0;
#X connect 0 0 33 0;
#X connect 1 0 12 0;
#X connect 2 0 3 0;
#X connect 2 0 19 0;
#X connect 3 0 4 0;
#X connect 4 0 5 0;
#X connect 5 0 11 0;
#X connect 6 0 8 0;
#X connect 7 0 6 0;
#X connect 9 0 17 0;
#X connect 10 0 0 0;
#X connect 14 0 2 0;
#X connect 15 0 23 0;
#X connect 17 0 18 0;
#X connect 18 0 1 0;
#X connect 19 0 20 0;
#X connect 20 0 7 0;
#X connect 21 0 22 0;
#X connect 22 0 2 1;
#X connect 22 0 32 0;
#X connect 23 0 3 0;
#X connect 24 0 23 1;
#X connect 32 0 16 0;
#X connect 33 0 11 0;
#X restore 62 63 pd Freq-v8-sig-;
#X obj 304 162 cnv 15 42 25 empty empty empty 20 12 0 14 -24198 -66577
0;
#N canvas 336 174 309 137 ?. 0;
#X obj 3 83 cnv 15 300 46 empty empty empty 20 12 0 14 -224896 -66577
0;
#X obj 3 6 cnv 18 300 70 empty empty ARGOPdMiniModules 3 10 1 14 -4033
-1 1.04858e+06;
#X obj 26 26 cnv 10 10 10 empty empty Gerard 0 5 1 11 -4033 -1 1.04858e+06
;
#X obj 64 26 cnv 10 10 10 empty empty Paresys 0 5 1 11 -4033 -1 1.04858e+06
;
#X obj 7 37 pddp/pddplink http://gerard.paresys.free.fr/ARGOPd/;
#X text 8 85 Construit sous / Build under Pd 0.43.4-extended;
#X obj 8 111 pddp/pddplink http://puredata.info/downloads/pd-extended
;
#X obj 7 50 pddp/pddplink http://paresys.pagesperso-orange.fr/ARGOPd/
;
#X text 7 98 or Pd-0.46-7 + deken;
#X restore 308 166 pd ?.;
#X text 282 80 7 12 2017;
#X connect 0 0 2 0;
#X connect 3 0 13 1;
#X connect 4 0 13 0;
#X connect 7 0 13 2;
#X connect 13 0 8 0;
#X connect 13 1 0 0;
#X connect 13 2 7 0;
#X connect 13 3 3 0;
#X coords 0 -1 1 1 246 36 1 100 100;
#X restore 216 72 pd ARGO;
#X obj 399 316 cnv 15 52 22 empty empty empty 20 12 0 14 -24198 -66577
0;
#N canvas 353 174 321 152 ?... 0;
#X obj 8 84 cnv 15 300 56 empty empty empty 20 12 0 14 -224896 -66577
0;
#X obj 8 7 cnv 18 300 70 empty empty ARGOPdMiniModules 3 10 1 14 -4033
-1 1.04858e+06;
#X obj 31 27 cnv 10 10 10 empty empty Gerard 0 5 1 11 -4033 -1 1.04858e+06
;
#X obj 69 27 cnv 10 10 10 empty empty Paresys 0 5 1 11 -4033 -1 1.04858e+06
;
#X obj 12 40 pddp/pddplink http://gerard.paresys.free.fr/ARGOPd/;
#X obj 13 121 pddp/pddplink http://puredata.info/downloads/pd-extended
;
#X obj 13 97 pddp/pddplink http://puredata.info/downloads/pure-data
;
#X text 13 85 Construit sous / Build under Pd-0.49...;
#X text 12 109 or Pd 0.43.4-extended;
#X obj 12 53 pddp/pddplink https://paresys.pagesperso-orange.fr/ARGOPd/
;
#X restore 402 319 pd ?...;
#N canvas 723 227 349 246 ARGO 0;
#X obj 101 101 cnv 20 104 34 empty ColorAmpli empty 20 12 0 14 -261299
-1 1.04858e+06;
#X obj 88 200 outlet~;
#X obj 134 104 cnv 10 20 10 empty ColorAmpli Ampli. 1 5 1 14 -261299
-1 1.04858e+06;
#X obj 88 74 inlet~;
#X obj 185 74 inlet~;
#X obj 87 173 *~;
#X obj 195 101 cnv 4 10 4 empty empty empty 20 12 0 14 -258113 -66577
0;
#X obj 101 101 cnv 4 10 4 empty empty empty 20 12 0 14 -1 -66577 0
;
#X obj 101 131 cnv 4 10 4 empty empty empty 20 12 0 14 -1 -66577 0
;
#X obj 103 118 hsl 101 12 0 1.25 0 1 \$0-A ColorAmpli empty 0 7 1 9
-262144 -1 -1 7000 0;
#X obj 103 118 hsl 101 12 0 1.25 0 0 \$0-A ColorAmpli -10dB 0 7 1 9
-261299 -258049 -1 0 0;
#X text 211 127 2 HSLIDER superposés;
#X text 210 116 <-- ATTENTION;
#X obj 215 154 cnv 15 60 30 empty empty empty 20 12 0 14 -24198 -66577
0;
#N canvas 346 353 425 238 Help 0;
#X text 11 19 Amplificateur à gain controlé logarithmiquement;
#X text 10 45 Sensibilitée de l'entrée de contrôle du gain:;
#X text 10 60 1 = +80 dB;
#X text 11 74 Cela signifie par exemple:;
#X text 189 86 1 = 0 dB;
#X text 171 98 0.75 = -20 dB;
#X text 171 111 0.5 = -40 dB;
#X text 171 124 0.25 = -60 dB;
#X text 171 74 1.25 = +20 dB (slider à droite);
#X text 189 137 0 = -80 dB (slider à gauche);
#X restore 222 160 pd Help;
#X text 22 33 Logarithmic Gain Controlled Amplifier;
#X text 209 97 30 3 2021;
#X text 22 49 Amplificateur à gain controlé logarithmiquement;
#X obj 271 199 cnv 15 34 16 empty empty empty 20 12 0 14 -24198 -66577
0;
#N canvas 353 174 333 161 ?? 0;
#X obj 17 89 cnv 15 300 56 empty empty empty 20 12 0 14 -224896 -66577
0;
#X obj 17 12 cnv 18 300 70 empty empty ARGOPdMiniModules 3 10 1 14
-4033 -1 1.04858e+06;
#X obj 40 32 cnv 10 10 10 empty empty Gerard 0 5 1 11 -4033 -1 1.04858e+06
;
#X obj 78 32 cnv 10 10 10 empty empty Paresys 0 5 1 11 -4033 -1 1.04858e+06
;
#X obj 20 54 pddp/pddplink http://gerard.paresys.free.fr/ARGOPd/;
#X obj 22 126 pddp/pddplink http://puredata.info/downloads/pd-extended
;
#X obj 22 102 pddp/pddplink http://puredata.info/downloads/pure-data
;
#X text 22 90 Construit sous / Build under Pd-0.49...;
#X text 21 114 or Pd 0.43.4-extended;
#X obj 20 66 pddp/pddplink https://paresys.pagesperso-orange.fr/ARGOPd/
;
#X obj 20 42 pddp/pddplink https://github.com/gerardparesys/ARGOPd
;
#X restore 271 199 pd ??;
#N canvas 593 326 583 314 Ampli-v2-log 0;
#X obj 253 60 loadbang;
#X msg 360 209 set \$1;
#X obj 181 99 +~;
#X obj 360 151 snapshot~;
#X obj 360 184 change;
#X obj 429 60 inlet;
#X obj 384 241 outlet;
#X obj 181 60 inlet~;
#X msg 429 209 label \$1;
#X obj 360 112 metro 200;
#X obj 312 60 r SendFluid;
#X text 381 257 Hslider;
#X text 424 33 Hslider;
#X text 389 269 Over;
#X text 429 44 Under;
#X obj 181 241 outlet~;
#X text 119 135 0..1.25 ->;
#X text 17 201 0.0001..10 = -80dB..20dB ->;
#X obj 429 88 * 80;
#X obj 429 112 - 80;
#X text 438 167 -> -80dB..20dB;
#X text 435 128 -> -80 .. 20;
#X text 377 282 0 .. 1.25;
#X text 416 21 0 .. 1.25;
#X text 315 8 Fluidité de;
#X text 314 19 l'affichage;
#X text 315 30 des sliders;
#X text 293 41 (200ms par défaut);
#X obj 429 184 cyclone/tosymbol;
#X obj 429 151 cyclone/sprintf %ddB;
#X obj 181 151 expr~ pow(10000 \, $v1)/10000;
#X connect 0 0 9 0;
#X connect 1 0 6 0;
#X connect 2 0 3 0;
#X connect 2 0 30 0;
#X connect 3 0 4 0;
#X connect 4 0 1 0;
#X connect 5 0 2 1;
#X connect 5 0 18 0;
#X connect 7 0 2 0;
#X connect 8 0 6 0;
#X connect 9 0 3 0;
#X connect 10 0 9 1;
#X connect 18 0 19 0;
#X connect 19 0 29 0;
#X connect 28 0 8 0;
#X connect 29 0 28 0;
#X connect 30 0 15 0;
#X restore 102 149 pd Ampli-v2-log;
#X connect 3 0 5 0;
#X connect 4 0 20 0;
#X connect 5 0 1 0;
#X connect 9 0 20 1;
#X connect 20 0 5 1;
#X connect 20 1 10 0;
#X coords 0 -1 1 1 106 36 1 100 100;
#X restore 216 115 pd ARGO;
#N canvas 723 227 349 246 ARGO 0;
#X obj 101 101 cnv 20 104 34 empty ColorAmpli empty 20 12 0 14 -261299
-1 1.04858e+06;
#X obj 88 200 outlet~;
#X obj 134 104 cnv 10 20 10 empty ColorAmpli Ampli. 1 5 1 14 -261299
-1 1.04858e+06;
#X obj 88 74 inlet~;
#X obj 185 74 inlet~;
#X obj 87 173 *~;
#X obj 195 101 cnv 4 10 4 empty empty empty 20 12 0 14 -258113 -66577
0;
#X obj 101 101 cnv 4 10 4 empty empty empty 20 12 0 14 -1 -66577 0
;
#X obj 101 131 cnv 4 10 4 empty empty empty 20 12 0 14 -1 -66577 0
;
#X obj 103 118 hsl 101 12 0 1.25 0 1 \$0-A ColorAmpli empty 0 7 1 9
-262144 -1 -1 5000 0;
#X obj 103 118 hsl 101 12 0 1.25 0 0 \$0-A ColorAmpli -30dB 0 7 1 9
-261299 -258049 -1 0 0;
#X text 211 127 2 HSLIDER superposés;
#X text 210 116 <-- ATTENTION;
#X obj 215 154 cnv 15 60 30 empty empty empty 20 12 0 14 -24198 -66577
0;
#N canvas 346 353 425 238 Help 0;
#X text 11 19 Amplificateur à gain controlé logarithmiquement;
#X text 10 45 Sensibilitée de l'entrée de contrôle du gain:;
#X text 10 60 1 = +80 dB;
#X text 11 74 Cela signifie par exemple:;
#X text 189 86 1 = 0 dB;
#X text 171 98 0.75 = -20 dB;
#X text 171 111 0.5 = -40 dB;
#X text 171 124 0.25 = -60 dB;
#X text 171 74 1.25 = +20 dB (slider à droite);
#X text 189 137 0 = -80 dB (slider à gauche);
#X restore 222 160 pd Help;
#X text 22 33 Logarithmic Gain Controlled Amplifier;
#X text 209 97 30 3 2021;
#X text 22 49 Amplificateur à gain controlé logarithmiquement;
#X obj 271 199 cnv 15 34 16 empty empty empty 20 12 0 14 -24198 -66577
0;
#N canvas 353 174 333 161 ?? 0;
#X obj 17 89 cnv 15 300 56 empty empty empty 20 12 0 14 -224896 -66577
0;
#X obj 17 12 cnv 18 300 70 empty empty ARGOPdMiniModules 3 10 1 14
-4033 -1 1.04858e+06;
#X obj 40 32 cnv 10 10 10 empty empty Gerard 0 5 1 11 -4033 -1 1.04858e+06
;
#X obj 78 32 cnv 10 10 10 empty empty Paresys 0 5 1 11 -4033 -1 1.04858e+06
;
#X obj 20 54 pddp/pddplink http://gerard.paresys.free.fr/ARGOPd/;
#X obj 22 126 pddp/pddplink http://puredata.info/downloads/pd-extended
;
#X obj 22 102 pddp/pddplink http://puredata.info/downloads/pure-data
;
#X text 22 90 Construit sous / Build under Pd-0.49...;
#X text 21 114 or Pd 0.43.4-extended;
#X obj 20 66 pddp/pddplink https://paresys.pagesperso-orange.fr/ARGOPd/
;
#X obj 20 42 pddp/pddplink https://github.com/gerardparesys/ARGOPd
;
#X restore 271 199 pd ??;
#N canvas 593 326 583 314 Ampli-v2-log 0;
#X obj 253 60 loadbang;
#X msg 360 209 set \$1;
#X obj 181 99 +~;
#X obj 360 151 snapshot~;
#X obj 360 184 change;
#X obj 429 60 inlet;
#X obj 384 241 outlet;
#X obj 181 60 inlet~;
#X msg 429 209 label \$1;
#X obj 360 112 metro 200;
#X obj 312 60 r SendFluid;
#X text 381 257 Hslider;
#X text 424 33 Hslider;
#X text 389 269 Over;
#X text 429 44 Under;
#X obj 181 241 outlet~;
#X text 119 135 0..1.25 ->;
#X text 17 201 0.0001..10 = -80dB..20dB ->;
#X obj 429 88 * 80;
#X obj 429 112 - 80;
#X text 438 167 -> -80dB..20dB;
#X text 435 128 -> -80 .. 20;
#X text 377 282 0 .. 1.25;
#X text 416 21 0 .. 1.25;
#X text 315 8 Fluidité de;
#X text 314 19 l'affichage;
#X text 315 30 des sliders;
#X text 293 41 (200ms par défaut);
#X obj 429 184 cyclone/tosymbol;
#X obj 429 151 cyclone/sprintf %ddB;
#X obj 181 151 expr~ pow(10000 \, $v1)/10000;
#X connect 0 0 9 0;
#X connect 1 0 6 0;
#X connect 2 0 3 0;
#X connect 2 0 30 0;
#X connect 3 0 4 0;
#X connect 4 0 1 0;
#X connect 5 0 2 1;
#X connect 5 0 18 0;
#X connect 7 0 2 0;
#X connect 8 0 6 0;
#X connect 9 0 3 0;
#X connect 10 0 9 1;
#X connect 18 0 19 0;
#X connect 19 0 29 0;
#X connect 28 0 8 0;
#X connect 29 0 28 0;
#X connect 30 0 15 0;
#X restore 102 149 pd Ampli-v2-log;
#X connect 3 0 5 0;
#X connect 4 0 20 0;
#X connect 5 0 1 0;
#X connect 9 0 20 1;
#X connect 20 0 5 1;
#X connect 20 1 10 0;
#X coords 0 -1 1 1 106 36 1 100 100;
#X restore 117 184 pd ARGO;
#X connect 3 0 2 0;
#X connect 11 0 1 1;
#X connect 11 0 1 0;
#X connect 12 0 17 0;
#X connect 13 0 16 0;
#X connect 16 0 17 1;
#X connect 17 0 11 0;
