#N canvas 437 45 515 346 10;
#X obj 83 313 dac~ 1 2;
#X text 24 139 Niveau general ->;
#X text 30 150 General level ->;
#X obj 21 81 switch~;
#N canvas 608 166 228 173 ARGOnOff 0;
#X obj 100 100 tgl 18 1 \$0-SendOnOff \$0-ReceiveOnOff On/Off 20 11
1 14 -4033 -1 -1 1 1;
#X obj 99 10 loadbang;
#X msg 99 33 \; pd dsp 1;
#X obj 100 129 outlet;
#X text -50 99 Audio On/Off du patch ->;
#X text -22 45 Audio General On ->;
#X text 107 82 17 3 2010;
#X connect 0 0 3 0;
#X connect 1 0 2 0;
#X coords 0 -1 1 1 65 18 2 100 100;
#X restore 21 63 pd ARGOnOff;
#X text 26 47 V;
#X text 26 40 |;
#X text 14 29 On/Off Patch;
#X text 44 41 (Audio);
#N canvas 175 68 374 396 ARGO 0;
#X obj 101 101 cnv 20 116 34 empty ColorAmpli empty 20 12 0 14 -261299
-1 1.04858e+06;
#X obj 85 353 outlet~;
#X obj 157 104 cnv 10 20 10 empty ColorAmpli Ampli. 1 5 1 14 -261299
-1 1.04858e+06;
#X obj 85 43 inlet~;
#X obj 85 330 *~;
#X obj 115 118 hsl 101 12 -80 20 0 1 \$0-A ColorAmpli 0dB 0 7 1 9 -261299
-1 -1 8000 0;
#X obj 101 101 cnv 4 10 4 empty empty empty 20 12 0 14 -1 -66577 0
;
#X obj 101 131 cnv 4 10 4 empty empty empty 20 12 0 14 -1 -66577 0
;
#X msg -42 139 label \$1;
#X text 148 194 -> 0.0001..10 = -80dB..20dB;
#X obj 142 175 expr (pow(10 \, $f1 / 20));
#X obj 142 215 sel 0.0001;
#X msg 100 244 0;
#X obj 100 118 tgl 12 1 \$0-A \$0-B Mute 2 -5 1 9 -261299 -1 -1 0 1
;
#X obj 99 146 select 0 1;
#X obj 140 295 line~;
#X obj 140 275 pack 0 10;
#X msg 123 74 set 0;
#X obj -42 93 cyclone/sprintf %ddB;
#X obj -42 116 cyclone/tosymbol;
#X obj 261 342 cnv 15 42 25 empty empty empty 20 12 0 14 -24198 -66577
0;
#N canvas 336 174 309 137 ?. 0;
#X obj 3 83 cnv 15 300 46 empty empty empty 20 12 0 14 -224896 -66577
0;
#X obj 3 6 cnv 18 300 70 empty empty ARGOPdMiniModules 3 10 1 14 -4033
-1 1.04858e+06;
#X obj 26 26 cnv 10 10 10 empty empty Gerard 0 5 1 11 -4033 -1 1.04858e+06
;
#X obj 64 26 cnv 10 10 10 empty empty Paresys 0 5 1 11 -4033 -1 1.04858e+06
;
#X obj 7 37 pddp/pddplink http://gerard.paresys.free.fr/ARGOPd/;
#X text 8 85 Construit sous / Build under Pd 0.43.4-extended;
#X obj 8 111 pddp/pddplink http://puredata.info/downloads/pd-extended
;
#X obj 7 50 pddp/pddplink http://paresys.pagesperso-orange.fr/ARGOPd/
;
#X text 7 98 or Pd-0.46-7 + deken;
#X restore 265 346 pd ?.;
#X text 228 110 17 3 2016;
#X connect 3 0 4 0;
#X connect 4 0 1 0;
#X connect 5 0 10 0;
#X connect 5 0 18 0;
#X connect 8 0 5 0;
#X connect 10 0 11 0;
#X connect 11 0 12 0;
#X connect 11 1 16 0;
#X connect 11 1 17 0;
#X connect 12 0 16 0;
#X connect 12 0 19 0;
#X connect 13 0 14 0;
#X connect 14 0 5 0;
#X connect 14 1 12 0;
#X connect 15 0 4 1;
#X connect 16 0 15 0;
#X connect 17 0 13 0;
#X connect 18 0 19 0;
#X connect 19 0 8 0;
#X coords 0 -1 1 1 118 36 1 100 100;
#X restore 130 128 pd ARGO;
#X obj 372 25 cnv 15 100 70 empty empty empty 20 12 0 14 -24198 -66577
0;
#X text 395 27 library:;
#X text 376 39 pddp;
#X text 376 50 cyclone;
#N canvas 432 42 236 269 ARGO 0;
#X obj 101 104 cnv 30 37 130 empty ColorAmpli empty 20 12 0 14 -1 -258113
0;
#X obj 101 110 vu 8 120 \$0-B empty 0 0 1 11 -1 -4034 1 0;
#X obj 74 34 inlet~;
#X obj 10 33 cnv 15 60 30 empty empty empty 20 12 0 14 -24198 -66577
0;
#N canvas 300 65 442 264 Help 0;
#X obj 12 48 cnv 15 400 150 empty empty empty 20 12 0 14 -233017 -66577
0;
#X text 16 50 Citation;
#X text 28 67 peakamp~ tracks and outputs the absolute value of the
peak amplitude of the incoming signal. It outputs when banged or using
its own internal clock. The peak value is reset each time peakamp~
outputs a value.;
#X text 29 123 cyclone library;
#X text 28 135 http://suita.chopin.edu.pl/~czaja/miXed/externs/cyclone.html
;
#X text 29 155 Voir doc Max/MSP MSP46ReferenceManual.pdf;
#X text 18 14 MM-Vumetre;
#X restore 17 39 pd Help;
#N canvas 541 112 317 265 VuMetre 0;
#X obj 48 19 inlet~;
#X obj 41 54 *~;
#X obj -25 132 snapshot~;
#X obj -25 155 sqrt;
#X obj -25 100 lop~ 10;
#X obj -25 179 rmstodb;
#X obj -88 19 loadbang;
#X obj -25 202 - 100;
#X obj 58 156 sqrt;
#X obj 58 180 rmstodb;
#X obj 58 203 - 100;
#X obj -89 102 metro 200;
#X obj -28 19 r SendFluid;
#X obj 58 102 cyclone/peakamp~ 1000;
#X obj -25 228 outlet;
#X obj 58 227 outlet;
#X connect 0 0 1 0;
#X connect 0 0 1 1;
#X connect 1 0 4 0;
#X connect 1 0 13 0;
#X connect 2 0 3 0;
#X connect 3 0 5 0;
#X connect 4 0 2 0;
#X connect 5 0 7 0;
#X connect 6 0 11 0;
#X connect 7 0 14 0;
#X connect 8 0 9 0;
#X connect 9 0 10 0;
#X connect 10 0 15 0;
#X connect 11 0 2 0;
#X connect 12 0 11 1;
#X connect 13 0 8 0;
#X restore 74 59 pd VuMetre;
#X obj 172 211 cnv 15 42 25 empty empty empty 20 12 0 14 -24198 -66577
0;
#N canvas 336 174 309 137 ?. 0;
#X obj 3 83 cnv 15 300 46 empty empty empty 20 12 0 14 -224896 -66577
0;
#X obj 3 6 cnv 18 300 70 empty empty ARGOPdMiniModules 3 10 1 14 -4033
-1 1.04858e+06;
#X obj 26 26 cnv 10 10 10 empty empty Gerard 0 5 1 11 -4033 -1 1.04858e+06
;
#X obj 64 26 cnv 10 10 10 empty empty Paresys 0 5 1 11 -4033 -1 1.04858e+06
;
#X obj 7 37 pddp/pddplink http://gerard.paresys.free.fr/ARGOPd/;
#X text 8 85 Construit sous / Build under Pd 0.43.4-extended;
#X obj 8 111 pddp/pddplink http://puredata.info/downloads/pd-extended
;
#X obj 7 50 pddp/pddplink http://paresys.pagesperso-orange.fr/ARGOPd/
;
#X text 7 98 or Pd-0.46-7 + deken;
#X restore 176 215 pd ?.;
#X text 127 87 3 3 2019;
#X connect 2 0 5 0;
#X connect 5 0 1 0;
#X connect 5 1 1 1;
#X coords 0 -1 1 1 39 135 2 100 100;
#X restore 35 194 pd ARGO;
#X obj 465 314 cnv 15 34 16 empty empty empty 20 12 0 14 -24198 -66577
0;
#N canvas 353 174 333 161 ?? 0;
#X obj 17 89 cnv 15 300 56 empty empty empty 20 12 0 14 -224896 -66577
0;
#X obj 17 12 cnv 18 300 70 empty empty ARGOPdMiniModules 3 10 1 14
-4033 -1 1.04858e+06;
#X obj 40 32 cnv 10 10 10 empty empty Gerard 0 5 1 11 -4033 -1 1.04858e+06
;
#X obj 78 32 cnv 10 10 10 empty empty Paresys 0 5 1 11 -4033 -1 1.04858e+06
;
#X obj 20 54 pddp/pddplink http://gerard.paresys.free.fr/ARGOPd/;
#X obj 22 126 pddp/pddplink http://puredata.info/downloads/pd-extended
;
#X obj 22 102 pddp/pddplink http://puredata.info/downloads/pure-data
;
#X text 22 90 Construit sous / Build under Pd-0.49...;
#X text 21 114 or Pd 0.43.4-extended;
#X obj 20 66 pddp/pddplink https://paresys.pagesperso-orange.fr/ARGOPd/
;
#X obj 20 42 pddp/pddplink https://github.com/gerardparesys/ARGOPd
;
#X restore 465 314 pd ??;
#N canvas 763 87 323 347 ARGO 0;
#X obj 101 101 cnv 20 104 34 empty ColorAmpli empty 20 12 0 14 -261299
-1 1.04858e+06;
#X obj 110 306 outlet~;
#X obj 141 104 cnv 10 20 10 empty ColorAmpli Mix. 1 5 1 14 -261299
-1 1.04858e+06;
#X obj 86 75 inlet~;
#X obj 179 75 inlet~;
#X obj 86 272 *~;
#X obj 103 118 hsl 101 12 -1 1 0 1 \$0-A ColorAmpli 1 0 7 1 9 -261299
-1 -1 10000 0;
#X msg -18 132 label \$1;
#X obj 101 101 cnv 4 10 4 empty empty empty 20 12 0 14 -1 -66577 0
;
#X obj 101 131 cnv 4 10 4 empty empty empty 20 12 0 14 -1 -66577 0
;
#X obj 195 101 cnv 4 10 4 empty empty empty 20 12 0 14 -1 -66577 0
;
#X obj 179 271 *~;
#X obj 194 244 line~;
#X obj 194 224 pack 0 10;
#X obj 101 146 expr ($f1 + 1) / 2;
#X obj 101 189 expr (1 - $f1);
#X obj 101 245 line~;
#X obj 101 225 pack 0 10;
#X obj -19 109 cyclone/tosymbol;
#X obj 227 292 cnv 15 42 25 empty empty empty 20 12 0 14 -24198 -66577
0;
#N canvas 336 174 309 137 ?. 0;
#X obj 3 83 cnv 15 300 46 empty empty empty 20 12 0 14 -224896 -66577
0;
#X obj 3 6 cnv 18 300 70 empty empty ARGOPdMiniModules 3 10 1 14 -4033
-1 1.04858e+06;
#X obj 26 26 cnv 10 10 10 empty empty Gerard 0 5 1 11 -4033 -1 1.04858e+06
;
#X obj 64 26 cnv 10 10 10 empty empty Paresys 0 5 1 11 -4033 -1 1.04858e+06
;
#X obj 7 37 pddp/pddplink http://gerard.paresys.free.fr/ARGOPd/;
#X text 8 85 Construit sous / Build under Pd 0.43.4-extended;
#X obj 8 111 pddp/pddplink http://puredata.info/downloads/pd-extended
;
#X obj 7 50 pddp/pddplink http://paresys.pagesperso-orange.fr/ARGOPd/
;
#X text 7 98 or Pd-0.46-7 + deken;
#X restore 231 296 pd ?.;
#X text 212 99 6 3 2016;
#X connect 3 0 5 0;
#X connect 4 0 11 0;
#X connect 5 0 1 0;
#X connect 6 0 14 0;
#X connect 6 0 18 0;
#X connect 7 0 6 0;
#X connect 11 0 1 0;
#X connect 12 0 11 1;
#X connect 13 0 12 0;
#X connect 14 0 13 0;
#X connect 14 0 15 0;
#X connect 15 0 17 0;
#X connect 16 0 5 1;
#X connect 17 0 16 0;
#X connect 18 0 7 0;
#X coords 0 -1 1 1 106 36 1 100 100;
#X restore 130 74 pd ARGO;
#N canvas 295 212 270 186 ARGO 0;
#X obj 114 105 cnv 10 20 10 empty empty WhiteNoise. 15 5 1 14 -262144
-1 1.04858e+06;
#X obj 101 113 cnv 4 10 4 empty empty empty 20 12 0 14 -1 -66577 0
;
#X obj 88 144 outlet~;
#X obj 87 71 noise~;
#X obj 100 100 tgl 12 1 \$0-A \$0-B On 14 6 1 10 -262144 -1 -1 1 1
;
#X obj 147 144 switch~;
#X connect 3 0 2 0;
#X connect 4 0 5 0;
#X coords 0 -1 1 1 110 18 2 100 100;
#X restore 111 32 pd ARGO;
#X obj 8 8 cnv 15 15 15 empty empty ExMM15h-Noise.pd 0 8 1 14 -262144
-1 0;
#N canvas 328 263 425 265 ARGO 0;
#X obj 129 107 cnv 5 1 1 empty empty BrownNoise. 0 0 1 14 -262144 -1
1.04858e+06;
#X obj 101 127 cnv 4 10 4 empty empty empty 20 12 0 14 -1 -66577 0
;
#X obj 87 223 outlet~;
#X obj 87 64 noise~;
#X obj 100 100 tgl 12 1 \$0-A \$0-B On 14 6 1 10 -262144 -1 -1 1 1
;
#X obj 30 223 switch~;
#X obj 87 197 fexpr~ if(abs($x+$y)>1.0 \, $y-$x \, $x+$y);
#X obj 369 223 cnv 15 34 16 empty empty empty 20 12 0 14 -24198 -66577
0;
#N canvas 353 174 333 161 ?? 0;
#X obj 17 89 cnv 15 300 56 empty empty empty 20 12 0 14 -224896 -66577
0;
#X obj 17 12 cnv 18 300 70 empty empty ARGOPdMiniModules 3 10 1 14
-4033 -1 1.04858e+06;
#X obj 40 32 cnv 10 10 10 empty empty Gerard 0 5 1 11 -4033 -1 1.04858e+06
;
#X obj 78 32 cnv 10 10 10 empty empty Paresys 0 5 1 11 -4033 -1 1.04858e+06
;
#X obj 20 54 pddp/pddplink http://gerard.paresys.free.fr/ARGOPd/;
#X obj 22 126 pddp/pddplink http://puredata.info/downloads/pd-extended
;
#X obj 22 102 pddp/pddplink http://puredata.info/downloads/pure-data
;
#X text 22 90 Construit sous / Build under Pd-0.49...;
#X text 21 114 or Pd 0.43.4-extended;
#X obj 20 66 pddp/pddplink https://paresys.pagesperso-orange.fr/ARGOPd/
;
#X obj 20 42 pddp/pddplink https://github.com/gerardparesys/ARGOPd
;
#X restore 369 223 pd ??;
#X obj 126 147 / 1000;
#X obj 103 114 hsl 105 12 1 1000 1 1 \$0-A ColorForm 50 3 7 1 9 -172009
-1 -1 5900 0;
#N canvas 555 145 241 227 label 0;
#X obj 40 36 inlet;
#X obj 40 181 outlet;
#X msg 40 148 label \$1;
#X obj 40 118 cyclone/tosymbol;
#X obj 40 88 cyclone/sprintf %s;
#X obj 40 62 expr (int($f1)) \;;
#X connect 0 0 5 0;
#X connect 2 0 1 0;
#X connect 3 0 2 0;
#X connect 4 0 3 0;
#X connect 5 0 4 0;
#X restore 21 115 pd label;
#X obj 87 172 *~ 0.01;
#X obj 19 9 pddp/pddplink https://lists.puredata.info/pipermail/pd-list/2015-11/112110.html
;
#X obj 21 22 pddp/pddplink https://forum.pdpatchrepo.info/topic/12460/brown-noise-generator
;
#X text 159 83 29 3 2021;
#X connect 3 0 12 0;
#X connect 4 0 5 0;
#X connect 6 0 2 0;
#X connect 9 0 12 1;
#X connect 10 0 11 0;
#X connect 10 0 9 0;
#X connect 11 0 10 0;
#X connect 12 0 6 0;
#X coords 0 -1 1 1 110 32 2 100 100;
#X restore 229 28 pd ARGO;
#N canvas 0 138 637 363 ARGO 0;
#X obj 267 27 inlet~;
#X obj 201 201 cnv 12 198 34 empty empty empty 20 12 0 14 -262144 -1
1.04858e+06;
#X obj 201 201 cnv 4 10 4 empty empty empty 20 12 0 14 -1 -66577 0
;
#X obj 200 219 vsl 12 128 0.01 100 1 1 \$0-A \$0-B empty 0 -9 0 10
-262144 -1 -1 6200 0;
#X obj 93 201 cnv 15 60 30 empty empty empty 20 12 0 14 -24198 -66577
0;
#N canvas 391 109 410 134 Help 0;
#X text 38 20 Spectrum;
#X text 37 41 With scope~ object of cyclone library;
#X text 37 61 Avec l'objet scope~ de la library cyclone;
#X restore 100 207 pd Help;
#X obj 213 222 cyclone/scope~ 297 127 8 3 128 0 32 0 0 0 0 255 0 0
255 255 255 0 98 102 0 empty;
#X obj 524 212 cnv 15 100 70 empty empty empty 20 12 0 14 -24198 -66577
0;
#X text 547 214 library:;
#X text 528 225 pddp;
#X text 528 238 cyclone;
#X obj 218 201 tgl 12 1 \$0-A \$0-B On 15 7 1 9 -262144 -1 -1 1 1;
#X obj 518 335 cnv 15 34 16 empty empty empty 20 12 0 14 -24198 -66577
0;
#N canvas 353 174 333 161 ?? 0;
#X obj 17 89 cnv 15 300 56 empty empty empty 20 12 0 14 -224896 -66577
0;
#X obj 17 12 cnv 18 300 70 empty empty ARGOPdMiniModules 3 10 1 14
-4033 -1 1.04858e+06;
#X obj 40 32 cnv 10 10 10 empty empty Gerard 0 5 1 11 -4033 -1 1.04858e+06
;
#X obj 78 32 cnv 10 10 10 empty empty Paresys 0 5 1 11 -4033 -1 1.04858e+06
;
#X obj 20 54 pddp/pddplink http://gerard.paresys.free.fr/ARGOPd/;
#X obj 22 126 pddp/pddplink http://puredata.info/downloads/pd-extended
;
#X obj 22 102 pddp/pddplink http://puredata.info/downloads/pure-data
;
#X text 22 90 Construit sous / Build under Pd-0.49...;
#X text 21 114 or Pd 0.43.4-extended;
#X obj 20 66 pddp/pddplink https://paresys.pagesperso-orange.fr/ARGOPd/
;
#X obj 20 42 pddp/pddplink https://github.com/gerardparesys/ARGOPd
;
#X restore 518 335 pd ??;
#X obj 232 96 rfft~;
#X msg 29 96 slide 10 10;
#X msg 10 127 slide 1 1;
#X obj 10 63 sel 0 1;
#X msg 22 244 frgb 255 0 0;
#X msg 23 266 brgb 255 255 255;
#X obj 109 27 cyclone/count~ 0 1024 1 1;
#X obj 232 127 cyclone/cartopol~;
#X obj 232 63 *~;
#X obj 278 201 tgl 12 1 \$0-SendLoop \$0-ReceiveLoop Gliss 15 6 1 9
-262144 -1 -1 1 1;
#X obj 93 335 switch~ 1024 1 1;
#X obj 109 157 cyclone/vectral~ 1024;
#X msg 25 287 range 0 32 \, 8 \, bufsize 128;
#X obj 109 96 *~ 0.54;
#X obj 346 27 loadbang;
#X obj 349 200 hsl 160 18 0 127 0 0 \$0-A \$0-B Spectrum(3000Hz/div).
-2 9 1 14 -262144 -262144 -1 0 1;
#X obj 313 63 bang;
#X obj 408 27 r pd-dsp-started;
#X text 452 182 2 5 2021;
#N canvas 735 342 333 296 label 0;
#X obj 68 93 samplerate~;
#X msg 68 186 label \$1;
#X obj 68 165 cyclone/tosymbol;
#X obj 68 141 cyclone/sprintf Spectrum(%sHz/div).;
#X obj 68 118 expr int(3000 * $f1 / 44100);
#X obj 68 68 inlet;
#X obj 68 215 outlet;
#X connect 0 0 4 0;
#X connect 1 0 6 0;
#X connect 2 0 1 0;
#X connect 3 0 2 0;
#X connect 4 0 3 0;
#X connect 5 0 0 0;
#X restore 346 127 pd label;
#X connect 0 0 22 0;
#X connect 3 0 22 1;
#X connect 11 0 24 0;
#X connect 11 0 30 0;
#X connect 14 0 21 0;
#X connect 14 1 21 1;
#X connect 15 0 25 0;
#X connect 16 0 25 0;
#X connect 17 0 16 0;
#X connect 17 1 15 0;
#X connect 18 0 6 0;
#X connect 19 0 6 0;
#X connect 20 0 27 0;
#X connect 20 0 25 1;
#X connect 21 0 25 2;
#X connect 22 0 14 0;
#X connect 23 0 17 0;
#X connect 25 0 6 0;
#X connect 26 0 6 0;
#X connect 27 0 25 0;
#X connect 28 0 33 0;
#X connect 30 0 33 0;
#X connect 31 0 33 0;
#X connect 33 0 29 0;
#X coords 0 -1 1 1 311 150 2 200 200;
#X restore 147 180 pd ARGO;
#X connect 4 0 3 0;
#X connect 9 0 0 1;
#X connect 9 0 0 0;
#X connect 9 0 14 0;
#X connect 9 0 21 0;
#X connect 17 0 9 0;
#X connect 18 0 17 0;
#X connect 20 0 17 1;
