#N canvas 301 23 386 202 10;
#X msg 315 91 1;
#X obj 195 129 readsf~;
#X obj 186 170 dac~;
#X msg 72 65 open \$1 0 \$2 1 \$3 \$4;
#X text 8 90 1 Clic ->;
#X text 254 90 2 Clic ->;
#X msg 71 22 \; pd dsp 1;
#X text 9 29 0 Clic ->;
#X msg 73 91 open Lune4.tif 0 532 1 3 l;
#X connect 0 0 1 0;
#X connect 1 0 2 0;
#X connect 1 0 2 1;
#X connect 8 0 1 0;
