#N canvas 320 23 467 444 10;
#X obj 8 8 cnv 15 15 15 empty empty ExMM10k-Delay2.pd 0 8 1 14 -262144
-1 0;
#N canvas 608 166 249 182 ARGOnOff 0;
#X obj 100 100 tgl 18 1 \$0-SendOnOff \$0-ReceiveOnOff On/Off 20 9
0 12 -4033 -1 -1 1 1;
#X obj 99 39 loadbang;
#X msg 99 62 \; pd dsp 1;
#X obj 100 129 outlet;
#X connect 0 0 3 0;
#X connect 1 0 2 0;
#X coords 0 -1 1 1 65 18 2 100 100;
#X restore 21 136 pd ARGOnOff;
#X obj 21 154 switch~;
#X text 14 102 On/Off patch;
#X text 26 120 V;
#X text 26 113 |;
#X text 224 11 Audio player 2 channels 1 output;
#X text 225 0 Lecteur Audio 2 canaux 1 sortie;
#X text 365 201 <- Retroaction;
#X text 365 211 <- Feedback;
#N canvas 158 81 772 490 ARGO 0;
#X obj 360 103 cnv 10 20 10 empty empty Play. 1 5 1 14 -262144 -1 1.04858e+06
;
#X obj 101 129 cnv 4 10 4 empty empty empty 20 12 0 14 -1 -66577 0
;
#X obj 82 450 outlet~;
#X obj -13 64 openpanel;
#X msg 212 378 1;
#X msg 137 330 0;
#X msg 34 115 set \$1;
#X msg 58 379 open \$1;
#X obj 197 291 t b b;
#X msg 167 378 set 0;
#X obj 175 233 sel 1 0;
#X obj 246 258 sel 1;
#X msg 117 379 set 1;
#X obj 42 7 loadbang;
#X obj 168 410 readsf~ 2;
#X obj 151 101 tgl 12 1 \$0-A \$0-B Play 14 6 1 9 -262144 -1 -1 1 1
;
#X obj 311 101 bng 12 250 50 0 \$0-A \$0-B Stop 14 6 1 9 -262144 -1
-1;
#X obj 249 101 tgl 12 1 \$0-A \$0-B Loop 15 6 1 9 -262144 -1 -1 1 1
;
#X obj 100 101 bng 12 250 50 0 \$0-A \$0-B empty 14 6 1 9 -262144 -1
-1;
#X obj 196 330 delay 5;
#X obj 101 6 inlet~;
#X obj 101 58 threshold~ 0.5 5 0.49 5;
#X obj 101 100 cnv 2 10 4 empty empty empty 20 12 0 14 -1 -66577 0
;
#X obj 102 101 cnv 2 8 2 empty empty empty 20 12 0 14 -262144 -66577
0;
#X text 75 81 Trig Decl;
#X obj -13 42 bang;
#X text 433 91 <- Click the name to change;
#X obj 49 170 cnv 15 400 50 empty empty empty 20 12 0 14 -260097 -66577
0;
#X text 51 169 Nom du fichier / File name;
#X text 451 178 <- Ajouter ../ devant le nom du fichier \; pour remonter
d'un dossier;
#X obj 570 45 cnv 15 60 30 empty empty empty 20 12 0 14 -24198 -66577
0;
#N canvas 309 46 570 589 Help 0;
#X obj 9 -296 cnv 15 400 100 empty empty empty 20 12 0 14 -233017 -66577
0;
#X text 12 -297 Citation;
#X obj 8 -51 cnv 15 550 310 empty empty empty 20 12 0 14 -258113 -66577
0;
#X text 20 -44 - Ne lit pas un fichier au format mp3 \, SoundDesigner
II (.SDII ou .SD2);
#X text 23 56 Solution: ouvrir puis sauver le fichier au format aiff
avec Audacity;
#X text 36 43 error: dsp: xxx.aiff: unknown or bad header format;
#X text 31 -281 READSF~ - read a soundfile;
#X text 30 -263 The wave \, aiff \, and nextstep formats are parsed
automatically \, although only 2- 3- and 4- byte samples are accepted
(4 bytes implies floating point and is not available in aiff format.)
;
#X text 13 -189 - Si le Patch est sauvé avec 1 Player contenant un
nom de fichier Audio \, ce fichier sera lu automatiquement à la prochaine
ouverture s'il n'a pas changé d'emplacement.;
#X text 191 206 If the sample rate of pd is set to 44100 \, files having
the sample rates of 44100 are correctly played \, other files will
be transposed.;
#X text 193 179 WARNING The sample rate of the output depends on the
system sample rate of pd:;
#X text 21 95 - ATTENTION Le taux d'échantillonnage de la lecture du
fichier dépends du taux d'échantillonnage de Pd.;
#X text 33 122 Si le taux d'échantillonnage de Pd est de 44100 (Menu
Preferences -> Audio Settings...) \, les fichiers échantillonnés à
44100 Hz sont lus correctement \, sinon ils sont transposés.;
#X text 12 -143 - Peut Ouvrir automatiquement 1 fichier qui se trouve
dans le même dossier que lui \, quelquesoit l'emplacement du dossier.
Pour cela ouvrir le module et taper le nom du fichier (sans chemin
d'accés) dans le message. Le dossier contenant le patch et le fichier
Audio est ainsi transportable.;
#X text 21 4 - Ne lit pas un fichier au format aiff "Entier petit boutien"
comme les pistes d'un CD Audio copiées avec le finder du Mac. Le message
d'erreur s'affichent:;
#X text 8 -434 MM Audio-Play;
#X text 18 -404 Le canal 2 d'un fichier Audio Stereo est mélangé au
canal 1;
#X text 18 -390 Les canaux 3 \, 4... d'un fichier Audio de plus de
2 canaux ne sont pas lus.;
#X text 197 -328 Channels 3 \, 4... of an Audio file of more than 2
channels are not read.;
#X text 197 -342 Channel 2 of a Stereo Audio file is mixed with channel
1;
#X text 19 -418 Lit un fichier Audio Mono (1 canal) au format aiff
\, wav.;
#X text 198 -357 Reads a Mono Audio file (1 channel) with aiff \, wav
format..;
#X restore 577 51 pd Help;
#X obj 246 232 f;
#X obj 174 142 f;
#X obj -12 84 t b b s;
#X obj 383 434 cnv 15 240 24 empty empty empty 20 12 0 14 -261682 -66577
0;
#X text 433 432 -> Bang à la fin du fichier;
#X text 434 442 -> Bang at the end of the file;
#X obj 388 438 outlet;
#X obj 54 236 zexy/list2symbol;
#X obj 103 114 hsl 275 14 0 127 0 0 \$0-A \$0-B empty -2 -8 0 10 -262144
-262144 -1 0 1;
#X symbolatom 100 114 47 0 0 0 - - #0-A;
#X obj 380 116 bng 12 50 20 0 \$0-A \$0-B empty 14 6 1 9 -262144 -1
-1;
#X obj 381 129 cnv 4 10 4 empty empty empty 20 12 0 14 -260097 -66577
0;
#X obj 630 435 cnv 15 42 25 empty empty empty 20 12 0 14 -24198 -66577
0;
#N canvas 336 174 309 137 ?. 0;
#X obj 3 83 cnv 15 300 46 empty empty empty 20 12 0 14 -224896 -66577
0;
#X obj 3 6 cnv 18 300 70 empty empty ARGOPdMiniModules 3 10 1 14 -4033
-1 1.04858e+06;
#X obj 26 26 cnv 10 10 10 empty empty Gerard 0 5 1 11 -4033 -1 1.04858e+06
;
#X obj 64 26 cnv 10 10 10 empty empty Paresys 0 5 1 11 -4033 -1 1.04858e+06
;
#X obj 7 37 pddp/pddplink http://gerard.paresys.free.fr/ARGOPd/;
#X text 8 85 Construit sous / Build under Pd 0.43.4-extended;
#X obj 8 111 pddp/pddplink http://puredata.info/downloads/pd-extended
;
#X obj 7 50 pddp/pddplink http://paresys.pagesperso-orange.fr/ARGOPd/
;
#X text 7 98 or Pd-0.46-7 + deken;
#X restore 634 439 pd ?.;
#X text 340 83 7 12 2017;
#X msg 53 189 cym.aiff;
#X connect 3 0 34 0;
#X connect 4 0 14 0;
#X connect 5 0 14 0;
#X connect 6 0 47 0;
#X connect 7 0 14 0;
#X connect 8 0 19 0;
#X connect 8 1 47 0;
#X connect 9 0 15 0;
#X connect 10 0 8 0;
#X connect 10 1 9 0;
#X connect 10 1 5 0;
#X connect 11 0 18 0;
#X connect 12 0 15 0;
#X connect 13 0 47 0;
#X connect 14 0 2 0;
#X connect 14 1 2 0;
#X connect 14 2 9 0;
#X connect 14 2 32 0;
#X connect 14 2 42 0;
#X connect 15 0 33 0;
#X connect 16 0 5 0;
#X connect 16 0 9 0;
#X connect 17 0 32 1;
#X connect 18 0 8 0;
#X connect 19 0 4 0;
#X connect 19 0 12 0;
#X connect 20 0 21 0;
#X connect 21 0 18 0;
#X connect 25 0 3 0;
#X connect 32 0 11 0;
#X connect 33 0 10 0;
#X connect 34 0 33 0;
#X connect 34 1 47 0;
#X connect 34 2 6 0;
#X connect 39 0 7 0;
#X connect 39 0 41 0;
#X connect 40 0 25 0;
#X connect 42 0 38 0;
#X connect 47 0 39 0;
#X coords 0 -1 1 1 292 34 2 100 100;
#X restore 119 32 pd ARGO;
#X obj 148 407 dac~ 1 2;
#N canvas 175 68 381 386 ARGO 0;
#X obj 101 101 cnv 20 116 34 empty ColorAmpli empty 20 12 0 14 -261299
-1 1.04858e+06;
#X obj 85 353 outlet~;
#X obj 157 104 cnv 10 20 10 empty ColorAmpli Ampli. 1 5 1 14 -261299
-1 1.04858e+06;
#X obj 85 43 inlet~;
#X obj 85 330 *~;
#X obj 115 118 hsl 101 12 -80 20 0 1 \$0-A ColorAmpli 0dB 0 7 1 9 -261299
-1 -1 8000 0;
#X obj 101 101 cnv 4 10 4 empty empty empty 20 12 0 14 -1 -66577 0
;
#X obj 101 131 cnv 4 10 4 empty empty empty 20 12 0 14 -1 -66577 0
;
#X obj 207 101 cnv 4 10 4 empty empty empty 20 12 0 14 -1 -66577 0
;
#X obj 207 131 cnv 4 10 4 empty empty empty 20 12 0 14 -1 -66577 0
;
#X obj 222 352 outlet~;
#X obj 222 42 inlet~;
#X obj 222 329 *~;
#X msg -42 138 label \$1;
#X text 148 194 -> 0.0001..10 = -80dB..20dB;
#X obj 142 175 expr (pow(10 \, $f1 / 20));
#X obj 142 215 sel 0.0001;
#X msg 100 244 0;
#X obj 100 118 tgl 12 1 \$0-A \$0-B Mute 2 -5 1 9 -261299 -1 -1 0 1
;
#X obj 99 146 select 0 1;
#X obj 140 295 line~;
#X obj 140 275 pack 0 10;
#X msg 123 74 set 0;
#X obj -42 92 cyclone/sprintf %ddB;
#X text 228 110 6 3 2016;
#X obj -42 115 cyclone/tosymbol;
#X obj 273 344 cnv 15 42 25 empty empty empty 20 12 0 14 -24198 -66577
0;
#N canvas 336 174 309 137 ?. 0;
#X obj 3 83 cnv 15 300 46 empty empty empty 20 12 0 14 -224896 -66577
0;
#X obj 3 6 cnv 18 300 70 empty empty ARGOPdMiniModules 3 10 1 14 -4033
-1 1.04858e+06;
#X obj 26 26 cnv 10 10 10 empty empty Gerard 0 5 1 11 -4033 -1 1.04858e+06
;
#X obj 64 26 cnv 10 10 10 empty empty Paresys 0 5 1 11 -4033 -1 1.04858e+06
;
#X obj 7 37 pddp/pddplink http://gerard.paresys.free.fr/ARGOPd/;
#X text 8 85 Construit sous / Build under Pd 0.43.4-extended;
#X obj 8 111 pddp/pddplink http://puredata.info/downloads/pd-extended
;
#X obj 7 50 pddp/pddplink http://paresys.pagesperso-orange.fr/ARGOPd/
;
#X text 7 98 or Pd-0.46-7 + deken;
#X restore 277 348 pd ?.;
#X connect 3 0 4 0;
#X connect 4 0 1 0;
#X connect 5 0 15 0;
#X connect 5 0 23 0;
#X connect 11 0 12 0;
#X connect 12 0 10 0;
#X connect 13 0 5 0;
#X connect 15 0 16 0;
#X connect 16 0 17 0;
#X connect 16 1 21 0;
#X connect 16 1 22 0;
#X connect 17 0 21 0;
#X connect 17 0 25 0;
#X connect 18 0 19 0;
#X connect 19 0 5 0;
#X connect 19 1 17 0;
#X connect 20 0 12 1;
#X connect 20 0 4 1;
#X connect 21 0 20 0;
#X connect 22 0 18 0;
#X connect 23 0 25 0;
#X connect 25 0 13 0;
#X coords 0 -1 1 1 118 36 1 100 100;
#X restore 119 244 pd ARGO;
#N canvas 446 64 251 267 ARGO 0;
#X obj 101 104 cnv 30 49 130 empty ColorAmpli empty 20 12 0 14 -1 -258113
0;
#X obj 102 110 vu 8 120 \$0-B empty 0 0 1 11 -1 -4034 0 0;
#X obj 49 35 inlet~;
#X obj 22 108 cnv 15 60 30 empty empty empty 20 12 0 14 -24198 -66577
0;
#N canvas 300 65 442 264 Help 0;
#X obj 12 48 cnv 15 400 150 empty empty empty 20 12 0 14 -233017 -66577
0;
#X text 16 50 Citation;
#X text 28 67 peakamp~ tracks and outputs the absolute value of the
peak amplitude of the incoming signal. It outputs when banged or using
its own internal clock. The peak value is reset each time peakamp~
outputs a value.;
#X text 29 123 cyclone library;
#X text 28 135 http://suita.chopin.edu.pl/~czaja/miXed/externs/cyclone.html
;
#X text 29 155 Voir doc Max/MSP MSP46ReferenceManual.pdf;
#X text 18 14 MM-Vumetre;
#X restore 29 114 pd Help;
#N canvas 541 112 317 265 VuMetre 0;
#X obj 48 19 inlet~;
#X obj 41 54 *~;
#X obj -25 132 snapshot~;
#X obj -25 155 sqrt;
#X obj -25 100 lop~ 10;
#X obj -25 179 rmstodb;
#X obj -88 19 loadbang;
#X obj -25 202 - 100;
#X obj 58 156 sqrt;
#X obj 58 180 rmstodb;
#X obj 58 203 - 100;
#X obj -89 102 metro 200;
#X obj -28 19 r SendFluid;
#X obj 58 102 cyclone/peakamp~ 1000;
#X obj -25 228 outlet;
#X obj 58 227 outlet;
#X connect 0 0 1 0;
#X connect 0 0 1 1;
#X connect 1 0 4 0;
#X connect 1 0 13 0;
#X connect 2 0 3 0;
#X connect 3 0 5 0;
#X connect 4 0 2 0;
#X connect 5 0 7 0;
#X connect 6 0 11 0;
#X connect 7 0 14 0;
#X connect 8 0 9 0;
#X connect 9 0 10 0;
#X connect 10 0 15 0;
#X connect 11 0 2 0;
#X connect 12 0 11 1;
#X connect 13 0 8 0;
#X restore 49 63 pd VuMetre;
#X obj 172 211 cnv 15 42 25 empty empty empty 20 12 0 14 -24198 -66577
0;
#N canvas 336 174 309 137 ?. 0;
#X obj 3 83 cnv 15 300 46 empty empty empty 20 12 0 14 -224896 -66577
0;
#X obj 3 6 cnv 18 300 70 empty empty ARGOPdMiniModules 3 10 1 14 -4033
-1 1.04858e+06;
#X obj 26 26 cnv 10 10 10 empty empty Gerard 0 5 1 11 -4033 -1 1.04858e+06
;
#X obj 64 26 cnv 10 10 10 empty empty Paresys 0 5 1 11 -4033 -1 1.04858e+06
;
#X obj 7 37 pddp/pddplink http://gerard.paresys.free.fr/ARGOPd/;
#X text 8 85 Construit sous / Build under Pd 0.43.4-extended;
#X obj 8 111 pddp/pddplink http://puredata.info/downloads/pd-extended
;
#X obj 7 50 pddp/pddplink http://paresys.pagesperso-orange.fr/ARGOPd/
;
#X text 7 98 or Pd-0.46-7 + deken;
#X restore 176 215 pd ?.;
#X obj 113 110 vu 8 120 \$0-B empty 0 0 1 11 -1 -4034 1 0;
#X obj 126 35 inlet~;
#N canvas 541 112 317 265 VuMetre 0;
#X obj 48 19 inlet~;
#X obj 41 54 *~;
#X obj -25 132 snapshot~;
#X obj -25 155 sqrt;
#X obj -25 100 lop~ 10;
#X obj -25 179 rmstodb;
#X obj -88 19 loadbang;
#X obj -25 202 - 100;
#X obj 58 156 sqrt;
#X obj 58 180 rmstodb;
#X obj 58 203 - 100;
#X obj -89 102 metro 200;
#X obj -28 19 r SendFluid;
#X obj 58 102 cyclone/peakamp~ 1000;
#X obj -25 228 outlet;
#X obj 58 227 outlet;
#X connect 0 0 1 0;
#X connect 0 0 1 1;
#X connect 1 0 4 0;
#X connect 1 0 13 0;
#X connect 2 0 3 0;
#X connect 3 0 5 0;
#X connect 4 0 2 0;
#X connect 5 0 7 0;
#X connect 6 0 11 0;
#X connect 7 0 14 0;
#X connect 8 0 9 0;
#X connect 9 0 10 0;
#X connect 10 0 15 0;
#X connect 11 0 2 0;
#X connect 12 0 11 1;
#X connect 13 0 8 0;
#X restore 126 63 pd VuMetre;
#X text 153 87 3 3 2019;
#X connect 2 0 5 0;
#X connect 5 0 1 0;
#X connect 5 1 1 1;
#X connect 9 0 10 0;
#X connect 10 0 8 0;
#X connect 10 1 8 1;
#X coords 0 -1 1 1 51 135 2 100 100;
#X restore 242 289 pd ARGO;
#X obj 402 406 cnv 15 52 22 empty empty empty 20 12 0 14 -24198 -66577
0;
#N canvas 353 174 321 152 ?... 0;
#X obj 8 84 cnv 15 300 56 empty empty empty 20 12 0 14 -224896 -66577
0;
#X obj 8 7 cnv 18 300 70 empty empty ARGOPdMiniModules 3 10 1 14 -4033
-1 1.04858e+06;
#X obj 31 27 cnv 10 10 10 empty empty Gerard 0 5 1 11 -4033 -1 1.04858e+06
;
#X obj 69 27 cnv 10 10 10 empty empty Paresys 0 5 1 11 -4033 -1 1.04858e+06
;
#X obj 12 40 pddp/pddplink http://gerard.paresys.free.fr/ARGOPd/;
#X obj 13 121 pddp/pddplink http://puredata.info/downloads/pd-extended
;
#X obj 13 97 pddp/pddplink http://puredata.info/downloads/pure-data
;
#X text 13 85 Construit sous / Build under Pd-0.49...;
#X text 12 109 or Pd 0.43.4-extended;
#X obj 12 53 pddp/pddplink https://paresys.pagesperso-orange.fr/ARGOPd/
;
#X restore 405 409 pd ?...;
#X text 13 255 Niveau general ->;
#X text 19 265 General level ->;
#N canvas 358 45 466 323 ARGO 0;
#X obj 263 45 cnv 15 60 30 empty empty empty 20 12 0 14 -24198 -66577
0;
#N canvas 537 176 286 105 Help 0;
#X text 15 20 Un "Bang" sort X fois par minute.;
#X text 13 52 A "Bang" outputs X times per minute.;
#X restore 270 51 pd Help;
#X obj 200 32 inlet;
#X obj 195 249 cnv 15 170 24 empty empty empty 20 12 0 14 -261682 -66577
0;
#X obj 200 253 outlet;
#X obj 201 101 cnv 10 132 35 empty ColorForm Metronome. 53 9 1 14 -208064
-1 1.04858e+06;
#X obj 200 124 bng 12 50 10 0 \$0-A \$0-B empty 14 6 1 9 -262144 -1
-1;
#X obj 201 132 cnv 4 10 4 empty empty empty 20 12 0 14 -260097 -66577
0;
#X obj 200 112 nbx 3 12 1 999 0 1 \$0-A ColorTime BPM 36 8 1 11 -208064
-1 -1 75 256;
#X obj 200 100 tgl 12 1 \$0-A \$0-B empty 17 7 0 10 -262144 -1 -1 1
1;
#X obj 7 96 cnv 15 190 20 empty empty empty 20 12 0 14 -261682 -66577
0;
#X text 8 97 1: Play 0: Stop bang: Change ->;
#X obj 201 101 cnv 4 10 4 empty empty empty 20 12 0 14 -260097 -66577
0;
#X obj 120 183 metro 300;
#X obj 171 160 expr 60000 / $f1;
#X text 205 286 Bang;
#X text 213 272 |;
#X text 213 277 v;
#X obj 376 235 cnv 15 42 25 empty empty empty 20 12 0 14 -24198 -66577
0;
#N canvas 336 174 316 152 ?. 0;
#X obj 8 84 cnv 15 300 56 empty empty empty 20 12 0 14 -224896 -66577
0;
#X obj 8 7 cnv 18 300 70 empty empty ARGOPdMiniModules 3 10 1 14 -4033
-1 1.04858e+06;
#X obj 31 27 cnv 10 10 10 empty empty Gerard 0 5 1 11 -4033 -1 1.04858e+06
;
#X obj 69 27 cnv 10 10 10 empty empty Paresys 0 5 1 11 -4033 -1 1.04858e+06
;
#X obj 12 40 pddp/pddplink http://gerard.paresys.free.fr/ARGOPd/;
#X text 13 85 Construit sous / Build under Pd 0.43.4-extended;
#X obj 13 111 pddp/pddplink http://puredata.info/downloads/pd-extended
;
#X obj 12 53 pddp/pddplink http://paresys.pagesperso-orange.fr/ARGOPd/
;
#X text 12 98 or Pd-0.48;
#X obj 13 124 pddp/pddplink http://puredata.info/downloads/pure-data
;
#X restore 380 239 pd ?.;
#X text 277 83 8 6 2018;
#X connect 2 0 9 0;
#X connect 6 0 4 0;
#X connect 8 0 14 0;
#X connect 9 0 13 0;
#X connect 13 0 6 0;
#X connect 14 0 13 1;
#X coords 0 -1 1 1 134 37 2 200 100;
#X restore 293 74 pd ARGO;
#N canvas 383 56 627 559 ARGO 0;
#X obj 454 139 cnv 15 60 30 empty empty empty 20 12 0 14 -24198 -66577
0;
#N canvas 402 65 405 152 Help 0;
#X text 9 25 Nbr = Nombre - Number;
#X text 21 69 - La valeur du nombre est sauvegardée avec le patch ou
est placé le MM.;
#X text 10 52 Modif par rapport a la version precedente du MM Nbr:
;
#X text 23 96 - Le nombre n'est pas sorti a l'ouverture du patch \,
il faut envoyer un bang a l'entrée du MM.;
#X restore 461 145 pd Help;
#X obj 143 77 cnv 15 170 24 empty empty empty 20 12 0 14 -261682 -66577
0;
#X obj 300 80 inlet;
#X obj 343 514 cnv 15 170 24 empty empty empty 20 12 0 14 -261682 -66577
0;
#X obj 348 518 outlet;
#X obj 301 201 cnv 10 132 46 empty ColorForm Nbr. 105 9 1 14 -261476
-1 1.04858e+06;
#X obj 300 201 bng 12 50 50 0 \$0-A \$0-B empty 14 6 1 9 -262144 -1
-1;
#X obj 301 201 cnv 4 10 4 empty empty empty 20 12 0 14 -260097 -66577
0;
#X obj 301 243 cnv 4 10 4 empty empty empty 20 12 0 14 -260097 -66577
0;
#X obj 315 206 nbx 4 12 59 9999 0 1 \$0-A ColorTime max 40 7 1 9 -262144
-1 -1 367 256;
#X text 143 84 Input anything message ->;
#X text 143 74 N'importe quel message ->;
#X obj 315 230 nbx 4 12 -999 9999 0 1 \$0-A ColorTime min 40 7 1 9
-262144 -1 -1 58 256;
#X obj 432 370 random;
#X obj 431 321 -;
#X obj 391 266 + 1;
#X obj 431 346 t b f;
#X text 393 512 -> Nombre;
#X text 394 522 -> Number;
#X obj 464 396 +;
#X msg 470 309 range \$1 9999;
#X obj 154 262 + 1;
#X obj 171 426 int;
#X obj 131 426 + 1;
#X obj 154 359 int;
#X obj 154 285 t f f;
#X obj 154 334 select 1;
#X obj 154 310 >;
#X obj 375 200 vradio 12 1 1 4 \$0-A \$0-B --> 16 6 1 9 -262144 -1
-1 3;
#X obj 389 212 cnv 5 5 5 empty empty <-- 0 6 1 9 -261476 -1 0;
#X obj 389 225 cnv 5 5 5 empty empty <--> 0 6 1 9 -261476 -1 0;
#X obj 389 237 cnv 5 5 5 empty empty Alea 0 6 1 9 -261476 -1 0;
#X obj 261 431 int;
#X obj 218 360 int;
#X obj 218 286 t f f;
#X obj 218 335 select 1;
#X obj 218 263 - 1;
#X obj 218 311 <;
#X obj 310 290 + 1;
#X obj 316 312 t f f;
#X obj 313 365 select 1;
#X obj 330 431 int;
#X obj 310 337 >;
#X msg 324 263 -1;
#X obj 371 363 select 1;
#X obj 371 339 <;
#X msg 359 263 1;
#X obj 309 391 t b b;
#X obj 372 390 t b b;
#X obj 158 164 >;
#X obj 158 232 int;
#X obj 158 187 select 1;
#X obj 158 141 t b f;
#X obj 97 231 int;
#X obj 97 187 select 1;
#X obj 97 142 t b f;
#X obj 97 165 <;
#X obj 97 208 delay 5;
#X obj 429 261 t b f f f f f b f;
#X obj 158 209 delay 5;
#X obj 528 284 + 1;
#X obj 300 218 nbx 4 12 -999 9999 0 1 \$0-A ColorTime empty 40 7 1
9 -262144 -1 -1 281 256;
#X msg 341 151 set \$1;
#X msg 383 178 281;
#X obj 355 80 loadbang;
#X msg 311 151 1;
#X obj 348 492 spigot 0;
#X obj 355 103 delay 300;
#X obj 355 126 t b b b;
#X obj 548 508 cnv 15 48 25 empty empty empty 20 12 0 14 -24198 -66577
0;
#N canvas 350 196 308 136 ??? 0;
#X obj -6 87 cnv 15 300 38 empty empty empty 20 12 0 14 -224896 -66577
0;
#X obj -6 10 cnv 18 300 70 empty empty ARGOPdMiniModules 3 10 1 14
-4033 -1 1.04858e+06;
#X obj 13 31 cnv 10 10 10 empty empty Gerard 0 5 1 11 -4033 -1 1.04858e+06
;
#X obj 55 30 cnv 10 10 10 empty empty Paresys 0 5 1 11 -4033 -1 1.04858e+06
;
#X text -1 89 Construit sous / Build under Pd 0.42.5-extended;
#X obj 6 43 pddp/pddplink http://pagesperso-orange.fr/Paresys/ARGOPd/
;
#X obj 6 58 pddp/pddplink http://gerard.paresys.free.fr/ARGOPd/;
#X obj 46 105 pddp/pddplink http://puredata.info/downloads;
#X restore 552 512 pd ???;
#X obj 239 464 cyclone/switch 4;
#X text 435 214 4 8 2019;
#X connect 3 0 7 0;
#X connect 7 0 14 0;
#X connect 7 0 23 0;
#X connect 7 0 33 0;
#X connect 7 0 42 0;
#X connect 10 0 16 0;
#X connect 10 0 28 1;
#X connect 10 0 34 1;
#X connect 10 0 43 1;
#X connect 10 0 51 1;
#X connect 10 0 53 0;
#X connect 13 0 59 0;
#X connect 14 0 20 0;
#X connect 15 0 17 0;
#X connect 16 0 15 0;
#X connect 17 0 14 0;
#X connect 17 1 14 1;
#X connect 20 0 72 4;
#X connect 21 0 10 0;
#X connect 22 0 26 0;
#X connect 23 0 72 1;
#X connect 24 0 72 0;
#X connect 25 0 23 1;
#X connect 26 0 28 0;
#X connect 26 1 23 1;
#X connect 27 0 25 0;
#X connect 28 0 27 0;
#X connect 29 0 24 0;
#X connect 33 0 72 2;
#X connect 34 0 33 1;
#X connect 35 0 38 0;
#X connect 35 1 33 1;
#X connect 36 0 34 0;
#X connect 37 0 35 0;
#X connect 38 0 36 0;
#X connect 39 0 40 0;
#X connect 40 0 43 0;
#X connect 40 0 46 0;
#X connect 40 1 42 1;
#X connect 41 0 48 0;
#X connect 42 0 72 3;
#X connect 43 0 41 0;
#X connect 44 0 39 1;
#X connect 45 0 49 0;
#X connect 46 0 45 0;
#X connect 47 0 39 1;
#X connect 48 0 39 0;
#X connect 48 1 44 0;
#X connect 49 0 39 0;
#X connect 49 1 47 0;
#X connect 50 0 52 0;
#X connect 51 0 62 0;
#X connect 52 0 60 0;
#X connect 53 0 50 0;
#X connect 53 1 50 1;
#X connect 54 0 62 0;
#X connect 55 0 58 0;
#X connect 56 0 57 0;
#X connect 56 1 57 1;
#X connect 57 0 55 0;
#X connect 58 0 54 0;
#X connect 59 0 15 0;
#X connect 59 1 15 1;
#X connect 59 2 20 1;
#X connect 59 3 54 1;
#X connect 59 4 56 0;
#X connect 59 5 25 1;
#X connect 59 5 46 1;
#X connect 59 5 38 1;
#X connect 59 6 10 0;
#X connect 59 7 61 0;
#X connect 60 0 51 0;
#X connect 61 0 21 0;
#X connect 62 0 22 0;
#X connect 62 0 37 0;
#X connect 62 0 39 0;
#X connect 62 0 50 0;
#X connect 62 0 57 0;
#X connect 62 0 67 0;
#X connect 63 0 64 0;
#X connect 64 0 62 0;
#X connect 65 0 68 0;
#X connect 66 0 67 1;
#X connect 67 0 5 0;
#X connect 67 0 63 0;
#X connect 68 0 69 0;
#X connect 69 1 66 0;
#X connect 69 2 64 0;
#X connect 72 0 62 0;
#X coords 0 -1 1 1 134 48 2 300 200;
#X restore 293 119 pd ARGO;
#N canvas 374 191 328 279 ARGO 0;
#X obj 101 101 cnv 20 132 45 empty ColorTime Delay2. 75 8 1 14 -208064
-1 1.04858e+06;
#X obj 85 239 outlet~;
#X obj 85 54 inlet~;
#X obj 101 142 cnv 4 10 4 empty empty empty 20 12 0 14 -1 -66577 0
;
#X obj 101 101 cnv 4 10 4 empty empty empty 0 0 0 9 -1 -66577 0;
#X obj 103 117 hsl 129 12 1 10000 1 1 \$0-A ColorTime 281ms 0 7 1 9
-208064 -1728 -1 7836 0;
#N canvas 245 108 165 192 Timems 0;
#X obj 27 141 outlet;
#X obj 27 37 inlet;
#X msg 27 116 label \$1;
#X text 27 161 Hslider;
#X text 31 16 Hslider;
#X obj 27 72 cyclone/sprintf %dms;
#X obj 27 94 cyclone/tosymbol;
#X connect 1 0 5 0;
#X connect 2 0 0 0;
#X connect 5 0 6 0;
#X connect 6 0 2 0;
#X restore 16 95 pd Timems;
#X obj 12 13 cnv 15 60 30 empty empty empty 20 12 0 14 -24198 -66577
0;
#N canvas 347 68 424 306 Help 0;
#X text 8 5 Delay Audio = Retard Audio;
#X obj 7 39 cnv 15 400 100 empty empty empty 20 12 0 14 -233017 -66577
0;
#X text 11 41 Citation;
#X text 39 60 Library Cyclone;
#X text 8 142 comb~ 100 0 1 0.9 0.5;
#X text 22 156 - 100 = max delay time (msec);
#X text 23 169 - 0 = Delay time (msec) for a past sample to be added
into the current output.;
#X text 23 194 - 1 = Amplitude coefficient for scaling the amount of
the input sample to be sent to the output.;
#X text 25 221 - 0.9 = Amplitude coefficient for scaling the amount
of the delayed past input sample to be added to the output.;
#X text 26 248 - 0.5 = Amplitude coefficient for scaling the amount
of the delayed past output sample to be added to the output.;
#X text 39 75 docs based on the MAX/MSP reference (c) cycling'74;
#X text 8 21 Delay Audio avec un objet comb~;
#X restore 19 20 pd Help;
#X obj 151 54 inlet;
#X obj 214 54 inlet;
#X msg 120 161 clear;
#X obj 103 129 hsl 129 12 0 100 0 1 \$0-A ColorTime 37 0 7 1 9 -261299
-258113 -1 4800 0;
#N canvas 143 155 194 282 Label100 0;
#X obj 85 184 outlet;
#X obj 58 62 inlet;
#X msg 57 148 label \$1;
#X text 82 198 Hslider;
#X text 58 32 Hslider;
#X text 60 43 Under;
#X obj 58 104 cyclone/sprintf %d;
#X obj 57 126 cyclone/tosymbol;
#X connect 1 0 6 0;
#X connect 2 0 0 0;
#X connect 6 0 7 0;
#X connect 7 0 2 0;
#X restore 11 134 pd Label100;
#X obj 162 101 cnv 4 10 4 empty empty empty 20 12 0 14 -260097 -66577
0;
#X obj 223 101 cnv 4 10 4 empty empty empty 20 12 0 14 -260097 -66577
0;
#X obj 120 102 bng 12 250 50 0 \$0-A \$0-B Reset 14 6 1 9 -208064 -1
-1;
#X obj 244 183 / 100;
#X text 151 24 Delay;
#X text 138 36 1..10000ms;
#X text 206 24 Feedback;
#X text 144 13 Message;
#X text 209 13 Message;
#X obj 85 210 cyclone/comb~ 10000 0 0 1 0;
#X obj 249 240 cnv 15 42 25 empty empty empty 20 12 0 14 -24198 -66577
0;
#N canvas 336 174 309 137 ?. 0;
#X obj 3 83 cnv 15 300 46 empty empty empty 20 12 0 14 -224896 -66577
0;
#X obj 3 6 cnv 18 300 70 empty empty ARGOPdMiniModules 3 10 1 14 -4033
-1 1.04858e+06;
#X obj 26 26 cnv 10 10 10 empty empty Gerard 0 5 1 11 -4033 -1 1.04858e+06
;
#X obj 64 26 cnv 10 10 10 empty empty Paresys 0 5 1 11 -4033 -1 1.04858e+06
;
#X obj 7 37 pddp/pddplink http://gerard.paresys.free.fr/ARGOPd/;
#X text 8 85 Construit sous / Build under Pd 0.43.4-extended;
#X obj 8 111 pddp/pddplink http://puredata.info/downloads/pd-extended
;
#X obj 7 50 pddp/pddplink http://paresys.pagesperso-orange.fr/ARGOPd/
;
#X text 7 98 or Pd-0.46-7 + deken;
#X restore 253 244 pd ?.;
#X text 184 82 24 3 2016;
#X text 203 36 ..0..100..;
#X connect 2 0 23 0;
#X connect 5 0 6 0;
#X connect 5 0 23 1;
#X connect 6 0 5 0;
#X connect 9 0 5 0;
#X connect 10 0 12 0;
#X connect 11 0 23 0;
#X connect 12 0 13 0;
#X connect 12 0 17 0;
#X connect 13 0 12 0;
#X connect 16 0 11 0;
#X connect 17 0 23 4;
#X connect 23 0 1 0;
#X coords 0 -1 1 1 134 47 1 100 100;
#X restore 230 181 pd ARGO;
#X connect 1 0 2 0;
#X connect 10 0 12 0;
#X connect 10 0 20 0;
#X connect 12 0 11 0;
#X connect 12 0 13 0;
#X connect 12 1 11 1;
#X connect 12 1 13 1;
#X connect 18 0 19 0;
#X connect 19 0 20 1;
#X connect 20 0 12 1;
