#N canvas 492 23 453 540 10;
#X obj 21 95 switch~;
#N canvas 608 166 228 173 ARGOnOff 0;
#X obj 100 100 tgl 18 1 \$0-SendOnOff \$0-ReceiveOnOff On/Off 20 11
1 14 -4033 -1 -1 1 1;
#X obj 99 10 loadbang;
#X msg 99 33 \; pd dsp 1;
#X obj 100 129 outlet;
#X text -50 99 Audio On/Off du patch ->;
#X text -22 45 Audio General On ->;
#X text 107 82 17 3 2010;
#X connect 0 0 3 0;
#X connect 1 0 2 0;
#X coords 0 -1 1 1 65 18 2 100 100;
#X restore 21 77 pd ARGOnOff;
#X text 26 61 V;
#X text 26 54 |;
#X text 14 43 On/Off Patch;
#X text 44 55 (Audio);
#X text 112 32 Based on Andy Farnell's work: "efficient-percussion.pd"
;
#X obj 10 11 cnv 15 15 15 empty empty ExMM179b-Percu.pd 0 8 1 14 -262144
-66577 0;
#N canvas 277 135 489 394 ARGO 0;
#X obj 101 101 cnv 6 132 33 empty ColorForm Kick. 95 8 1 14 -262144
-1 1.04858e+06;
#X obj 100 101 bng 12 50 50 0 \$0-A \$0-B empty 14 6 1 9 -262144 -1
-1;
#X obj 101 101 cnv 4 10 4 empty empty empty 20 12 0 14 -260097 -66577
0;
#X obj 101 130 cnv 4 10 4 empty empty empty 20 12 0 14 -1 -66577 0
;
#X obj 316 207 cnv 15 60 30 empty empty empty 20 12 0 14 -24198 -66577
0;
#N canvas 423 182 473 307 Help 0;
#X obj 27 84 cnv 15 400 200 empty empty empty 20 12 0 14 -233017 -66577
0;
#X text 30 83 Citation;
#X text 44 98 "It's 3 techno drums that are quite efficient. The kick
and snare contain no oscillators but use a wrapped line segment. Total
DSP count - 4 multiplies and a cos. This trick is extended in the snare
with a feedback around a second function which results in a chaotic
band of noise around the center frequency. Becuase we use [vline~]
and always start on the same phase they sound pretty tight.";
#X text 14 12 Kick = Grosse caisse;
#X text 30 45 Based on Andy Farnell's work: "efficient-percussion.pd"
;
#X obj 30 59 pddp/pddplink https://forum.pdpatchrepo.info/topic/1025/fairly-efficient-analog-drums
;
#X restore 323 213 pd Help;
#X obj 39 96 cnv 15 60 20 empty empty empty 20 12 0 14 -261682 -66577
0;
#X obj 103 117 hsl 129 12 2 130 0 1 \$0-A ColorTime 70 3 7 1 9 -188398
-1 -1 6800 0;
#X obj 141 103 tgl 12 1 \$0-A \$0-B On 15 6 1 9 -262144 -1 -1 1 1;
#X obj 84 364 outlet~;
#X obj 100 62 inlet;
#X text 54 99 Bang ->;
#N canvas 604 279 211 265 label 0;
#X msg 55 148 label \$1;
#X obj 55 74 int;
#X obj 56 25 inlet;
#X obj 55 172 outlet;
#X obj 55 125 cyclone/tosymbol;
#X connect 0 0 3 0;
#X connect 1 0 4 0;
#X connect 2 0 1 0;
#X connect 4 0 0 0;
#X restore 31 126 pd label;
#X obj 148 213 vline~;
#X obj 84 339 *~;
#X obj 84 314 cos~;
#X obj 84 290 *~;
#X obj 84 267 *~;
#X obj 99 165 t f f;
#X obj 84 243 *~;
#X msg 148 191 1 0 0 \, 0 \$1 0;
#X obj 137 365 switch~;
#X obj 351 355 cnv 15 52 22 empty empty empty 20 12 0 14 -24198 -66577
0;
#N canvas 353 174 321 152 ?... 0;
#X obj 8 84 cnv 15 300 56 empty empty empty 20 12 0 14 -224896 -66577
0;
#X obj 8 7 cnv 18 300 70 empty empty ARGOPdMiniModules 3 10 1 14 -4033
-1 1.04858e+06;
#X obj 31 27 cnv 10 10 10 empty empty Gerard 0 5 1 11 -4033 -1 1.04858e+06
;
#X obj 69 27 cnv 10 10 10 empty empty Paresys 0 5 1 11 -4033 -1 1.04858e+06
;
#X obj 12 40 pddp/pddplink http://gerard.paresys.free.fr/ARGOPd/;
#X obj 13 121 pddp/pddplink http://puredata.info/downloads/pd-extended
;
#X obj 13 97 pddp/pddplink http://puredata.info/downloads/pure-data
;
#X text 13 85 Construit sous / Build under Pd-0.49...;
#X text 12 109 or Pd 0.43.4-extended;
#X obj 12 53 pddp/pddplink https://paresys.pagesperso-orange.fr/ARGOPd/
;
#X restore 354 358 pd ?...;
#X text 173 82 23 8 2019;
#X text 10 14 Based on Andy Farnell's work: "efficient-percussion.pd"
;
#X obj 10 28 pddp/pddplink https://forum.pdpatchrepo.info/topic/1025/fairly-efficient-analog-drums
;
#X obj 99 191 / 33.9;
#X msg 359 62 33.9;
#X msg 322 62 30.5;
#X msg 397 62 36.1;
#X connect 1 0 7 0;
#X connect 7 0 12 0;
#X connect 7 0 18 0;
#X connect 8 0 21 0;
#X connect 10 0 1 0;
#X connect 12 0 7 0;
#X connect 13 0 14 1;
#X connect 13 0 19 0;
#X connect 13 0 16 1;
#X connect 14 0 9 0;
#X connect 15 0 14 0;
#X connect 16 0 15 0;
#X connect 17 0 16 0;
#X connect 18 0 27 0;
#X connect 18 1 20 0;
#X connect 19 0 17 1;
#X connect 19 0 17 0;
#X connect 20 0 13 0;
#X connect 27 0 19 1;
#X connect 28 0 27 1;
#X connect 29 0 27 1;
#X connect 30 0 27 1;
#X coords 0 -1 1 1 134 35 1 100 100;
#X restore 14 142 pd ARGO;
#N canvas 294 23 471 428 ARGO 0;
#X obj 101 101 cnv 6 132 45 empty ColorForm Hi-Hat. 60 8 1 14 -262144
-1 1.04858e+06;
#X obj 100 101 bng 12 50 50 0 \$0-A \$0-B empty 14 6 1 9 -262144 -1
-1;
#X obj 101 101 cnv 4 10 4 empty empty empty 20 12 0 14 -260097 -66577
0;
#X obj 101 142 cnv 4 10 4 empty empty empty 20 12 0 14 -1 -66577 0
;
#X obj 350 168 cnv 15 60 30 empty empty empty 20 12 0 14 -24198 -66577
0;
#N canvas 541 140 464 326 Help 0;
#X obj 20 84 cnv 15 400 200 empty empty empty 20 12 0 14 -233017 -66577
0;
#X text 23 83 Citation;
#X obj 21 284 pddp/pddplink http://obiwannabe.co.uk;
#X text 37 98 "It's 3 techno drums that are quite efficient. The kick
and snare contain no oscillators but use a wrapped line segment. Total
DSP count - 4 multiplies and a cos. This trick is extended in the snare
with a feedback around a second function which results in a chaotic
band of noise around the center frequency. Becuase we use [vline~]
and always start on the same phase they sound pretty tight.";
#X text 7 12 Hi-hat = Charleston;
#X text 37 205 "The theory is FM \, or rather chaos theory for numerical
systems. The feedback is used so that the FM system modulates itself.
At just the right settings it becomes a noise generator.";
#X text 22 41 Based on Andy Farnell's work: "efficient-percussion.pd"
;
#X obj 22 55 pddp/pddplink https://forum.pdpatchrepo.info/topic/1025/fairly-efficient-analog-drums
;
#X restore 357 174 pd Help;
#X obj 39 96 cnv 15 60 20 empty empty empty 20 12 0 14 -261682 -66577
0;
#X obj 103 117 hsl 129 12 10 1000 1 1 \$0-A ColorTime 60 3 7 1 9 -188398
-1 -1 5000 0;
#X obj 123 103 tgl 12 1 \$0-A \$0-B On 15 6 1 9 -262144 -1 -1 1 1;
#X obj 82 377 outlet~;
#X obj 100 74 inlet;
#X text 52 97 Bang ->;
#N canvas 604 279 156 161 label 0;
#X msg 56 86 label \$1;
#X obj 56 39 int;
#X obj 56 15 inlet;
#X obj 56 110 outlet;
#X obj 56 63 cyclone/tosymbol;
#X connect 0 0 3 0;
#X connect 1 0 4 0;
#X connect 2 0 1 0;
#X connect 4 0 0 0;
#X restore 31 119 pd label;
#N canvas 363 22 233 436 hhnoise 0;
#X obj 63 406 outlet~;
#X obj 30 175 *~;
#X obj 63 304 +~;
#X obj 63 353 osc~;
#X obj 79 251 *~;
#X obj 30 67 unpack f f f f f;
#X obj 63 275 sig~;
#X obj 30 114 osc~;
#X obj 45 138 osc~;
#N canvas 730 22 450 300 programmer 0;
#X msg 99 193 2834.65 2165.35 0.811024 1771.65 6708.66;
#X obj 244 63 hsl 128 15 0 5000 0 0 empty empty modf1 32 7 1 8 -262144
-1 -1 0 1;
#X obj 136 147 pack f f f f f;
#X obj 136 124 t b;
#X msg 136 169 set \$1 \$2 \$3 \$4 \$5;
#X obj 244 78 hsl 128 15 0 5000 0 0 empty empty modf2 32 7 1 8 -262144
-1 -1 0 1;
#X obj 244 93 hsl 128 15 0 1 0 0 empty empty env 32 7 1 8 -262144 -1
-1 0 1;
#X obj 244 108 hsl 128 15 0 5000 0 0 empty empty fm_amount 32 7 1 8
-262144 -1 -1 0 1;
#X obj 244 123 hsl 128 15 0 12000 0 0 empty empty base_freq 32 7 1
8 -262144 -1 -1 0 1;
#X obj 95 150 del 2;
#X obj 96 224 outlet;
#X msg 122 259 1141.73 472.441 0.645669 2874.02 10299.2;
#X msg 149 230 748.031 1023.62 0.173228 1968.5 9259.84;
#X msg 183 277 2834.65 2165.35 0.511811 4370.08 8125.98;
#X obj 304 162 loadbang;
#X connect 0 0 10 0;
#X connect 1 0 2 0;
#X connect 1 0 3 0;
#X connect 2 0 4 0;
#X connect 3 0 2 0;
#X connect 3 0 9 0;
#X connect 4 0 0 0;
#X connect 5 0 2 1;
#X connect 5 0 3 0;
#X connect 6 0 2 2;
#X connect 6 0 3 0;
#X connect 7 0 2 3;
#X connect 7 0 3 0;
#X connect 8 0 2 4;
#X connect 8 0 3 0;
#X connect 9 0 0 0;
#X connect 11 0 10 0;
#X connect 12 0 10 0;
#X connect 13 0 10 0;
#X connect 14 0 12 0;
#X restore 30 41 pd programmer;
#X obj -5 175 +~;
#N canvas 0 22 450 300 xf 0;
#X obj 107 37 inlet~;
#X obj 158 37 inlet~;
#X obj 123 135 *~;
#X obj 152 134 *~;
#X obj 134 178 outlet~;
#X obj 171 87 sig~ 1;
#X obj 169 108 -~;
#X obj 227 37 inlet~ xfade;
#X connect 0 0 2 0;
#X connect 1 0 3 0;
#X connect 2 0 4 0;
#X connect 3 0 4 0;
#X connect 5 0 6 0;
#X connect 6 0 3 1;
#X connect 7 0 6 1;
#X connect 7 0 2 1;
#X restore 17 215 pd xf;
#X text 103 176 2 ringmod;
#X obj 58 175 *~;
#X obj 57 12 inlet~ spectrum env;
#X obj 63 329 +~;
#X text 104 353 fbfm;
#X obj 11 380 *~ 600;
#X obj -26 329 zexy/pack~;
#X obj -26 353 zexy/unpack~;
#X connect 1 0 11 1;
#X connect 2 0 15 0;
#X connect 3 0 0 0;
#X connect 3 0 17 0;
#X connect 4 0 2 1;
#X connect 5 0 7 0;
#X connect 5 1 8 0;
#X connect 5 2 13 1;
#X connect 5 3 4 1;
#X connect 5 4 6 0;
#X connect 6 0 2 0;
#X connect 7 0 1 0;
#X connect 7 0 10 0;
#X connect 8 0 1 1;
#X connect 8 0 10 1;
#X connect 9 0 5 0;
#X connect 10 0 11 0;
#X connect 11 0 4 0;
#X connect 13 0 11 2;
#X connect 14 0 13 0;
#X connect 15 0 3 0;
#X connect 17 0 18 0;
#X connect 18 0 19 0;
#X connect 19 0 15 1;
#X restore 82 321 pd hhnoise;
#X obj 82 352 *~;
#X obj 82 291 vline~;
#X obj 151 322 *~;
#X msg 82 266 \$1 0 0 \, 0 \$2 1;
#X obj 82 241 pack f f;
#X obj 222 184 t f f;
#X obj 100 184 t f f;
#X msg 222 158 0.6;
#X msg 100 161 1;
#X obj 127 210 *;
#X obj 249 209 *;
#X obj 222 101 bng 12 50 50 0 \$0-A \$0-B empty 14 6 1 9 -262144 -1
-1;
#X obj 223 101 cnv 4 10 4 empty empty empty 20 12 0 14 -260097 -66577
0;
#X obj 222 74 inlet;
#X obj 103 129 hsl 129 12 10 1000 1 1 \$0-A ColorTime 697 3 7 1 9 -188398
-1 -1 11800 0;
#N canvas 604 279 156 161 label 0;
#X msg 56 86 label \$1;
#X obj 56 39 int;
#X obj 56 15 inlet;
#X obj 56 110 outlet;
#X obj 56 63 cyclone/tosymbol;
#X connect 0 0 3 0;
#X connect 1 0 4 0;
#X connect 2 0 1 0;
#X connect 4 0 0 0;
#X restore 32 144 pd label;
#X text 272 204 700;
#X text 150 204 60;
#X obj 174 377 switch~;
#X obj 235 98 cnv 15 60 20 empty empty empty 20 12 0 14 -261682 -66577
0;
#X text 237 98 <- Bang;
#X obj 394 373 cnv 15 52 22 empty empty empty 20 12 0 14 -24198 -66577
0;
#N canvas 353 174 321 152 ?... 0;
#X obj 8 84 cnv 15 300 56 empty empty empty 20 12 0 14 -224896 -66577
0;
#X obj 8 7 cnv 18 300 70 empty empty ARGOPdMiniModules 3 10 1 14 -4033
-1 1.04858e+06;
#X obj 31 27 cnv 10 10 10 empty empty Gerard 0 5 1 11 -4033 -1 1.04858e+06
;
#X obj 69 27 cnv 10 10 10 empty empty Paresys 0 5 1 11 -4033 -1 1.04858e+06
;
#X obj 12 40 pddp/pddplink http://gerard.paresys.free.fr/ARGOPd/;
#X obj 13 121 pddp/pddplink http://puredata.info/downloads/pd-extended
;
#X obj 13 97 pddp/pddplink http://puredata.info/downloads/pure-data
;
#X text 13 85 Construit sous / Build under Pd-0.49...;
#X text 12 109 or Pd 0.43.4-extended;
#X obj 12 53 pddp/pddplink https://paresys.pagesperso-orange.fr/ARGOPd/
;
#X restore 397 376 pd ?...;
#X text 150 85 23 8 2019;
#X text 13 29 Based on Andy Farnell's work: "efficient-percussion.pd"
;
#X obj 13 43 pddp/pddplink https://forum.pdpatchrepo.info/topic/1025/fairly-efficient-analog-drums
;
#X connect 1 0 22 0;
#X connect 7 0 12 0;
#X connect 7 0 23 1;
#X connect 8 0 32 0;
#X connect 10 0 1 0;
#X connect 12 0 7 0;
#X connect 13 0 14 0;
#X connect 14 0 9 0;
#X connect 15 0 16 0;
#X connect 15 0 16 1;
#X connect 15 0 13 0;
#X connect 16 0 14 1;
#X connect 17 0 15 0;
#X connect 18 0 17 0;
#X connect 19 0 18 0;
#X connect 19 1 24 0;
#X connect 20 0 18 0;
#X connect 20 1 23 0;
#X connect 21 0 19 0;
#X connect 22 0 20 0;
#X connect 23 0 18 1;
#X connect 24 0 18 1;
#X connect 25 0 21 0;
#X connect 27 0 25 0;
#X connect 28 0 29 0;
#X connect 28 0 24 1;
#X connect 29 0 28 0;
#X coords 0 -1 1 1 134 47 1 100 100;
#X restore 159 130 pd ARGO;
#N canvas 323 23 457 495 ARGO 0;
#X obj 101 101 cnv 6 132 33 empty ColorForm Snare. 85 8 1 14 -262144
-1 1.04858e+06;
#X obj 100 101 bng 12 50 50 0 \$0-A \$0-B empty 14 6 1 9 -262144 -1
-1;
#X obj 101 101 cnv 4 10 4 empty empty empty 20 12 0 14 -260097 -66577
0;
#X obj 101 130 cnv 4 10 4 empty empty empty 20 12 0 14 -1 -66577 0
;
#X obj 303 204 cnv 15 60 30 empty empty empty 20 12 0 14 -24198 -66577
0;
#N canvas 423 182 484 334 Help 0;
#X obj 28 91 cnv 15 400 200 empty empty empty 20 12 0 14 -233017 -66577
0;
#X text 31 90 Citation;
#X text 43 218 "The theory is FM \, or rather chaos theory for numerical
systems. The feedback is used so that the FM system modulates itself.
At just the right settings it becomes a noise generator.";
#X text 15 19 Snare = Snare drum = Caisse claire;
#X text 45 105 "It's 3 techno drums that are quite efficient. The kick
and snare contain no oscillators but use a wrapped line segment. Total
DSP count - 4 multiplies and a cos. This trick is extended in the snare
with a feedback around a second function which results in a chaotic
band of noise around the center frequency. Because we use [vline~]
and always start on the same phase they sound pretty tight.";
#X text 30 46 Based on Andy Farnell's work: "efficient-percussion.pd"
;
#X obj 30 60 pddp/pddplink https://forum.pdpatchrepo.info/topic/1025/fairly-efficient-analog-drums
;
#X restore 310 210 pd Help;
#X obj 39 96 cnv 15 60 20 empty empty empty 20 12 0 14 -261682 -66577
0;
#X obj 103 117 hsl 129 12 10 500 1 1 \$0-A ColorTime 70 3 7 1 9 -188398
-1 -1 6400 0;
#X obj 141 103 tgl 12 1 \$0-A \$0-B On 15 6 1 9 -262144 -1 -1 1 1;
#X obj 270 462 switch~;
#X obj 155 280 vline~;
#X obj 140 437 *~;
#X obj 113 334 cos~;
#X obj 128 229 t f f;
#X obj 113 311 *~;
#X obj 140 462 outlet~;
#X obj 100 74 inlet;
#X obj 155 310 *~;
#X obj 140 414 cos~;
#X obj 98 383 *~;
#X obj 155 344 *~;
#X obj 128 255 /;
#X msg 155 255 1 0 0 \, 0 \$1 3;
#X obj 19 372 zexy/pack~;
#X obj 19 396 zexy/unpack~;
#X obj 66 191 del 5;
#X text 51 94 Bang ->;
#X msg 146 180 6;
#N canvas 332 190 187 154 label 0;
#X msg 56 86 label \$1;
#X obj 56 39 int;
#X obj 56 15 inlet;
#X obj 56 110 outlet;
#X obj 56 63 cyclone/tosymbol;
#X connect 0 0 3 0;
#X connect 1 0 4 0;
#X connect 2 0 1 0;
#X connect 4 0 0 0;
#X restore 31 119 pd label;
#X obj 113 359 +~ 5;
#X text 27 355 feedback;
#X obj 119 153 t b b;
#X obj 346 447 cnv 15 52 22 empty empty empty 20 12 0 14 -24198 -66577
0;
#N canvas 353 174 321 152 ?... 0;
#X obj 8 84 cnv 15 300 56 empty empty empty 20 12 0 14 -224896 -66577
0;
#X obj 8 7 cnv 18 300 70 empty empty ARGOPdMiniModules 3 10 1 14 -4033
-1 1.04858e+06;
#X obj 31 27 cnv 10 10 10 empty empty Gerard 0 5 1 11 -4033 -1 1.04858e+06
;
#X obj 69 27 cnv 10 10 10 empty empty Paresys 0 5 1 11 -4033 -1 1.04858e+06
;
#X obj 12 40 pddp/pddplink http://gerard.paresys.free.fr/ARGOPd/;
#X obj 13 121 pddp/pddplink http://puredata.info/downloads/pd-extended
;
#X obj 13 97 pddp/pddplink http://puredata.info/downloads/pure-data
;
#X text 13 85 Construit sous / Build under Pd-0.49...;
#X text 12 109 or Pd 0.43.4-extended;
#X obj 12 53 pddp/pddplink https://paresys.pagesperso-orange.fr/ARGOPd/
;
#X restore 349 450 pd ?...;
#X text 194 83 23 8 2019;
#X text 13 29 Based on Andy Farnell's work: "efficient-percussion.pd"
;
#X obj 13 43 pddp/pddplink https://forum.pdpatchrepo.info/topic/1025/fairly-efficient-analog-drums
;
#X connect 1 0 31 0;
#X connect 7 0 13 0;
#X connect 7 0 28 0;
#X connect 8 0 9 0;
#X connect 10 0 14 0;
#X connect 10 0 17 0;
#X connect 10 0 17 1;
#X connect 11 0 23 0;
#X connect 11 0 15 0;
#X connect 12 0 29 0;
#X connect 13 0 21 0;
#X connect 13 1 22 0;
#X connect 14 0 12 0;
#X connect 16 0 1 0;
#X connect 17 0 20 0;
#X connect 17 0 20 1;
#X connect 18 0 11 0;
#X connect 19 0 18 0;
#X connect 20 0 11 1;
#X connect 21 0 14 1;
#X connect 22 0 10 0;
#X connect 23 0 24 0;
#X connect 24 0 19 0;
#X connect 25 0 7 0;
#X connect 27 0 21 1;
#X connect 28 0 7 0;
#X connect 29 0 19 1;
#X connect 31 0 25 0;
#X connect 31 1 27 0;
#X coords 0 -1 1 1 134 35 1 100 100;
#X restore 302 142 pd ARGO;
#N canvas 589 58 369 227 ARGO 0;
#X obj 73 153 outlet;
#X obj 101 101 cnv 10 132 29 empty ColorForm Key. 104 8 1 14 -261476
-1 1.04858e+06;
#X obj 100 118 bng 12 100 50 0 \$0-A \$0-B empty 14 6 1 9 -262144 -1
-1;
#X obj 101 126 cnv 4 10 4 empty empty empty 20 12 0 14 -260097 -66577
0;
#X obj 115 6 keyname;
#X obj 82 54 spigot;
#X obj 115 32 == 0;
#X obj 82 77 select Left Right Up Down;
#X obj 128 118 bng 12 100 50 0 \$0-A \$0-B empty 14 6 1 9 -262144 -1
-1;
#X obj 129 126 cnv 4 10 4 empty empty empty 20 12 0 14 -260097 -66577
0;
#X obj 160 118 bng 12 100 50 0 \$0-A \$0-B empty 14 6 1 9 -262144 -1
-1;
#X obj 161 126 cnv 4 10 4 empty empty empty 20 12 0 14 -260097 -66577
0;
#X obj 192 118 bng 12 100 50 0 \$0-A \$0-B empty 14 6 1 9 -262144 -1
-1;
#X obj 193 126 cnv 4 10 4 empty empty empty 20 12 0 14 -260097 -66577
0;
#X text 102 100 <;
#X text 131 100 >;
#X text 163 103 ^;
#X text 194 100 v;
#X text 77 172 bang;
#X obj 117 153 outlet;
#X text 121 172 bang;
#X obj 161 153 outlet;
#X text 165 172 bang;
#X obj 205 153 outlet;
#X text 209 172 bang;
#X obj 248 153 outlet;
#X text 252 172 bang;
#X obj 222 118 bng 12 100 50 0 \$0-A \$0-B empty 14 6 1 9 -262144 -1
-1;
#X obj 223 126 cnv 4 10 4 empty empty empty 20 12 0 14 -260097 -66577
0;
#X obj 305 163 cnv 15 52 22 empty empty empty 20 12 0 14 -24198 -66577
0;
#N canvas 353 174 321 152 ?... 0;
#X obj 8 84 cnv 15 300 56 empty empty empty 20 12 0 14 -224896 -66577
0;
#X obj 8 7 cnv 18 300 70 empty empty ARGOPdMiniModules 3 10 1 14 -4033
-1 1.04858e+06;
#X obj 31 27 cnv 10 10 10 empty empty Gerard 0 5 1 11 -4033 -1 1.04858e+06
;
#X obj 69 27 cnv 10 10 10 empty empty Paresys 0 5 1 11 -4033 -1 1.04858e+06
;
#X obj 12 40 pddp/pddplink http://gerard.paresys.free.fr/ARGOPd/;
#X obj 13 121 pddp/pddplink http://puredata.info/downloads/pd-extended
;
#X obj 13 97 pddp/pddplink http://puredata.info/downloads/pure-data
;
#X text 13 85 Construit sous / Build under Pd-0.49...;
#X text 12 109 or Pd 0.43.4-extended;
#X obj 12 53 pddp/pddplink https://paresys.pagesperso-orange.fr/ARGOPd/
;
#X restore 308 166 pd ?...;
#X text 237 106 23 8 2019;
#X connect 2 0 0 0;
#X connect 4 0 6 0;
#X connect 4 1 5 0;
#X connect 5 0 7 0;
#X connect 6 0 5 1;
#X connect 7 0 2 0;
#X connect 7 1 8 0;
#X connect 7 2 10 0;
#X connect 7 3 12 0;
#X connect 7 4 27 0;
#X connect 8 0 19 0;
#X connect 10 0 21 0;
#X connect 12 0 23 0;
#X connect 27 0 25 0;
#X coords 0 -1 1 1 134 31 2 100 100;
#X restore 170 73 pd ARGO;
#X text 67 238 Niveau general ->;
#X text 73 229 General level ->;
#N canvas 167 144 481 379 ARGO 0;
#X obj 201 101 cnv 20 104 34 empty ColorAmpli empty 20 12 0 14 -261299
-1 1.04858e+06;
#X obj 186 350 outlet~;
#X obj 258 106 cnv 10 20 10 empty ColorAmpli Ampli. 1 5 1 14 -261299
-1 1.04858e+06;
#X obj 186 61 inlet~;
#X obj 186 320 *~;
#X obj 203 118 hsl 101 12 -80 20 0 1 \$0-A ColorAmpli -10dB 0 7 1 9
-261299 -1 -1 7000 0;
#X obj 201 101 cnv 4 10 4 empty empty empty 20 12 0 14 -1 -66577 0
;
#X obj 201 131 cnv 4 10 4 empty empty empty 20 12 0 14 -1 -66577 0
;
#X obj 295 101 cnv 4 10 4 empty empty empty 20 12 0 14 -1 -66577 0
;
#X obj 295 131 cnv 4 10 4 empty empty empty 20 12 0 14 -1 -66577 0
;
#X obj 310 60 inlet~;
#X obj 310 320 *~;
#X obj 364 350 outlet~;
#X obj 364 60 inlet~;
#X obj 364 320 *~;
#X obj 248 101 cnv 4 10 4 empty empty empty 20 12 0 14 -1 -66577 0
;
#X msg 58 144 label \$1;
#X text 207 163 -> 0.0001..10 = -80dB..20dB;
#X obj 201 144 expr (pow(10 \, $f1 / 20));
#X obj 201 181 sel 0.0001;
#X msg 201 205 0;
#X obj 325 232 * 0.7;
#X obj 201 279 line~;
#X obj 201 256 pack 0 10;
#X obj 325 279 line~;
#X obj 325 256 pack 0 10;
#X obj 57 86 cyclone/sprintf %ddB;
#X text 247 79 17 1 2018;
#X obj 416 342 cnv 15 42 25 empty empty empty 20 12 0 14 -24198 -66577
0;
#N canvas 336 174 309 137 ?. 0;
#X obj 3 83 cnv 15 300 46 empty empty empty 20 12 0 14 -224896 -66577
0;
#X obj 3 6 cnv 18 300 70 empty empty ARGOPdMiniModules 3 10 1 14 -4033
-1 1.04858e+06;
#X obj 26 26 cnv 10 10 10 empty empty Gerard 0 5 1 11 -4033 -1 1.04858e+06
;
#X obj 64 26 cnv 10 10 10 empty empty Paresys 0 5 1 11 -4033 -1 1.04858e+06
;
#X obj 7 37 pddp/pddplink http://gerard.paresys.free.fr/ARGOPd/;
#X text 8 85 Construit sous / Build under Pd 0.43.4-extended;
#X obj 8 111 pddp/pddplink http://puredata.info/downloads/pd-extended
;
#X obj 7 50 pddp/pddplink http://paresys.pagesperso-orange.fr/ARGOPd/
;
#X text 7 98 or Pd-0.46-7 + deken;
#X restore 420 346 pd ?.;
#X obj 57 121 symbol;
#X connect 3 0 4 0;
#X connect 4 0 1 0;
#X connect 5 0 18 0;
#X connect 5 0 26 0;
#X connect 10 0 11 0;
#X connect 11 0 1 0;
#X connect 11 0 12 0;
#X connect 13 0 14 0;
#X connect 14 0 12 0;
#X connect 16 0 5 0;
#X connect 18 0 19 0;
#X connect 19 0 20 0;
#X connect 19 1 21 0;
#X connect 19 1 23 0;
#X connect 20 0 21 0;
#X connect 20 0 23 0;
#X connect 20 0 30 0;
#X connect 21 0 25 0;
#X connect 22 0 4 1;
#X connect 22 0 14 1;
#X connect 23 0 22 0;
#X connect 24 0 11 1;
#X connect 25 0 24 0;
#X connect 26 0 30 0;
#X connect 30 0 16 0;
#X coords 0 -1 1 1 106 36 1 200 100;
#X restore 175 219 pd ARGO;
#X obj 261 507 dac~;
#X text 127 483 |;
#X text 127 478 ^;
#X text 89 492 Click to record;
#N canvas 446 64 251 267 ARGO 0;
#X obj 101 104 cnv 30 49 130 empty ColorAmpli empty 20 12 0 14 -1 -258113
0;
#X obj 102 110 vu 8 120 \$0-B empty 0 0 1 11 -1 -4034 0 0;
#X obj 49 35 inlet~;
#X obj 22 108 cnv 15 60 30 empty empty empty 20 12 0 14 -24198 -66577
0;
#N canvas 300 65 442 264 Help 0;
#X obj 12 48 cnv 15 400 150 empty empty empty 20 12 0 14 -233017 -66577
0;
#X text 16 50 Citation;
#X text 28 67 peakamp~ tracks and outputs the absolute value of the
peak amplitude of the incoming signal. It outputs when banged or using
its own internal clock. The peak value is reset each time peakamp~
outputs a value.;
#X text 29 123 cyclone library;
#X text 28 135 http://suita.chopin.edu.pl/~czaja/miXed/externs/cyclone.html
;
#X text 29 155 Voir doc Max/MSP MSP46ReferenceManual.pdf;
#X text 18 14 MM-Vumetre;
#X restore 29 114 pd Help;
#N canvas 541 112 317 265 VuMetre 0;
#X obj 48 19 inlet~;
#X obj 41 54 *~;
#X obj -25 132 snapshot~;
#X obj -25 155 sqrt;
#X obj -25 100 lop~ 10;
#X obj -25 179 rmstodb;
#X obj -88 19 loadbang;
#X obj -25 202 - 100;
#X obj 58 156 sqrt;
#X obj 58 180 rmstodb;
#X obj 58 203 - 100;
#X obj -89 102 metro 200;
#X obj -28 19 r SendFluid;
#X obj 58 102 cyclone/peakamp~ 1000;
#X obj -25 228 outlet;
#X obj 58 227 outlet;
#X connect 0 0 1 0;
#X connect 0 0 1 1;
#X connect 1 0 4 0;
#X connect 1 0 13 0;
#X connect 2 0 3 0;
#X connect 3 0 5 0;
#X connect 4 0 2 0;
#X connect 5 0 7 0;
#X connect 6 0 11 0;
#X connect 7 0 14 0;
#X connect 8 0 9 0;
#X connect 9 0 10 0;
#X connect 10 0 15 0;
#X connect 11 0 2 0;
#X connect 12 0 11 1;
#X connect 13 0 8 0;
#X restore 49 63 pd VuMetre;
#X obj 172 211 cnv 15 42 25 empty empty empty 20 12 0 14 -24198 -66577
0;
#N canvas 336 174 309 137 ?. 0;
#X obj 3 83 cnv 15 300 46 empty empty empty 20 12 0 14 -224896 -66577
0;
#X obj 3 6 cnv 18 300 70 empty empty ARGOPdMiniModules 3 10 1 14 -4033
-1 1.04858e+06;
#X obj 26 26 cnv 10 10 10 empty empty Gerard 0 5 1 11 -4033 -1 1.04858e+06
;
#X obj 64 26 cnv 10 10 10 empty empty Paresys 0 5 1 11 -4033 -1 1.04858e+06
;
#X obj 7 37 pddp/pddplink http://gerard.paresys.free.fr/ARGOPd/;
#X text 8 85 Construit sous / Build under Pd 0.43.4-extended;
#X obj 8 111 pddp/pddplink http://puredata.info/downloads/pd-extended
;
#X obj 7 50 pddp/pddplink http://paresys.pagesperso-orange.fr/ARGOPd/
;
#X text 7 98 or Pd-0.46-7 + deken;
#X restore 176 215 pd ?.;
#X obj 113 110 vu 8 120 \$0-B empty 0 0 1 11 -1 -4034 1 0;
#X obj 126 35 inlet~;
#N canvas 541 112 317 265 VuMetre 0;
#X obj 48 19 inlet~;
#X obj 41 54 *~;
#X obj -25 132 snapshot~;
#X obj -25 155 sqrt;
#X obj -25 100 lop~ 10;
#X obj -25 179 rmstodb;
#X obj -88 19 loadbang;
#X obj -25 202 - 100;
#X obj 58 156 sqrt;
#X obj 58 180 rmstodb;
#X obj 58 203 - 100;
#X obj -89 102 metro 200;
#X obj -28 19 r SendFluid;
#X obj 58 102 cyclone/peakamp~ 1000;
#X obj -25 228 outlet;
#X obj 58 227 outlet;
#X connect 0 0 1 0;
#X connect 0 0 1 1;
#X connect 1 0 4 0;
#X connect 1 0 13 0;
#X connect 2 0 3 0;
#X connect 3 0 5 0;
#X connect 4 0 2 0;
#X connect 5 0 7 0;
#X connect 6 0 11 0;
#X connect 7 0 14 0;
#X connect 8 0 9 0;
#X connect 9 0 10 0;
#X connect 10 0 15 0;
#X connect 11 0 2 0;
#X connect 12 0 11 1;
#X connect 13 0 8 0;
#X restore 126 63 pd VuMetre;
#X text 153 87 3 3 2019;
#X connect 2 0 5 0;
#X connect 5 0 1 0;
#X connect 5 1 1 1;
#X connect 9 0 10 0;
#X connect 10 0 8 0;
#X connect 10 1 8 1;
#X coords 0 -1 1 1 51 135 2 100 100;
#X restore 314 391 pd ARGO;
#X obj 378 501 cnv 15 52 22 empty empty empty 20 12 0 14 -24198 -66577
0;
#N canvas 353 174 321 152 ?... 0;
#X obj 8 84 cnv 15 300 56 empty empty empty 20 12 0 14 -224896 -66577
0;
#X obj 8 7 cnv 18 300 70 empty empty ARGOPdMiniModules 3 10 1 14 -4033
-1 1.04858e+06;
#X obj 31 27 cnv 10 10 10 empty empty Gerard 0 5 1 11 -4033 -1 1.04858e+06
;
#X obj 69 27 cnv 10 10 10 empty empty Paresys 0 5 1 11 -4033 -1 1.04858e+06
;
#X obj 12 40 pddp/pddplink http://gerard.paresys.free.fr/ARGOPd/;
#X obj 13 121 pddp/pddplink http://puredata.info/downloads/pd-extended
;
#X obj 13 97 pddp/pddplink http://puredata.info/downloads/pure-data
;
#X text 13 85 Construit sous / Build under Pd-0.49...;
#X text 12 109 or Pd 0.43.4-extended;
#X obj 12 53 pddp/pddplink https://paresys.pagesperso-orange.fr/ARGOPd/
;
#X restore 381 504 pd ?...;
#N canvas 286 45 728 239 ARGO 0;
#X obj 239 36 inlet~;
#X text 77 17 Left input;
#X text 224 17 Right input;
#X text 356 37 Stereo wav file format recorder;
#X text 356 52 Enregistreur de fichier audio wav à 2 canaux (stereo)
;
#X obj 88 36 inlet~;
#X obj 171 198 writesf~ 2;
#X text 356 67 L'extension .wav est ajoutée au nom du fichier automatiquement
;
#X obj 103 100 hsl 161 17 0 127 0 0 \$0-A \$0-B Record. 103 10 1 14
-261299 -261299 -1 0 1;
#X obj 255 101 cnv 4 10 4 empty empty empty 20 12 0 14 -1 -66577 0
;
#X obj 101 101 cnv 4 10 4 empty empty empty 20 12 0 14 -1 -66577 0
;
#X obj 112 100 nbx 4 17 0 9999 0 0 \$0-A ColorTime sec 59 9 1 15 -208064
-1 -1 0 256;
#X text 355 103 Clic n'importe où pour commencer un enregistrement
Audio -> Clic encore pour arrêter l'enregistrement;
#X text 456 130 Click anywhere to start recording Audio ->;
#X text 455 142 Click again to stop recording;
#X text 121 122 Hslider caché transformé en bouton;
#N canvas 415 66 351 399 record2 0;
#X obj 136 95 sel 0 1;
#X msg 171 260 start;
#X msg 107 259 stop;
#X msg 155 150 open \$1;
#X obj 155 126 savepanel;
#X obj 165 203 delay 1000;
#X obj 245 323 float;
#X obj 291 322 + 1;
#X obj 223 295 metro 1000;
#X msg 291 296 -1;
#X msg 11 257 0;
#X msg 42 257 1;
#X obj 66 210 t b b;
#X obj 165 229 t b b b b;
#N canvas 317 143 290 366 CouleurRecord2 0;
#X obj 122 -19 +;
#X obj 122 37 +;
#X obj 61 -75 * -65536;
#X obj 117 -75 * -256;
#X obj 163 -77 * -1;
#X obj 122 68 - 1;
#X obj 115 -202 inlet;
#X text 77 -97 R;
#X text 123 -99 G;
#X text 172 -98 B;
#X obj 122 123 outlet;
#X text 170 -169 Rouge;
#X msg 134 -121 255;
#X msg 167 -121 0;
#X obj 115 -178 sel 0 1;
#X text 56 -170 Rose;
#X msg 73 -121 200;
#X msg 40 -121 252;
#X obj 134 -148 t b b b;
#X msg 198 -121 0;
#X msg 104 -121 200;
#X obj 40 -148 t b b b;
#X msg 122 96 color \$1 \$1 -1;
#X connect 0 0 1 1;
#X connect 1 0 5 0;
#X connect 2 0 1 0;
#X connect 3 0 0 0;
#X connect 4 0 0 1;
#X connect 5 0 22 0;
#X connect 6 0 14 0;
#X connect 12 0 2 0;
#X connect 13 0 3 0;
#X connect 14 0 21 0;
#X connect 14 1 18 0;
#X connect 16 0 3 0;
#X connect 17 0 2 0;
#X connect 18 0 12 0;
#X connect 18 1 13 0;
#X connect 18 2 19 0;
#X connect 19 0 4 0;
#X connect 20 0 4 0;
#X connect 21 0 17 0;
#X connect 21 1 16 0;
#X connect 21 2 20 0;
#X connect 22 0 10 0;
#X restore 25 326 pd CouleurRecord2;
#X obj 136 75 tgl 15 0 \$0-A \$0-B empty 19 9 1 12 -262144 -258113
-1 0 1;
#X obj 136 30 b;
#X obj 136 52 delay 200;
#X obj 136 8 inlet;
#X obj 25 356 outlet;
#X text 22 372 Couleur;
#X obj 291 356 outlet;
#X text 288 372 Compteur;
#X obj 155 356 outlet;
#X text 152 372 writesf;
#X obj 199 176 t b b;
#X msg 72 33 0;
#X obj 72 8 loadbang;
#X msg 260 124 set 0;
#X msg 261 173 set 1;
#X obj 261 149 b;
#X connect 0 0 12 0;
#X connect 0 1 4 0;
#X connect 0 1 28 0;
#X connect 1 0 23 0;
#X connect 2 0 8 0;
#X connect 2 0 23 0;
#X connect 3 0 23 0;
#X connect 3 0 25 0;
#X connect 4 0 3 0;
#X connect 4 0 30 0;
#X connect 5 0 13 0;
#X connect 6 0 7 0;
#X connect 7 0 6 1;
#X connect 7 0 21 0;
#X connect 8 0 6 0;
#X connect 9 0 7 0;
#X connect 10 0 14 0;
#X connect 11 0 14 0;
#X connect 12 0 10 0;
#X connect 12 1 2 0;
#X connect 13 0 11 0;
#X connect 13 1 1 0;
#X connect 13 2 8 0;
#X connect 13 3 9 0;
#X connect 14 0 19 0;
#X connect 15 0 0 0;
#X connect 16 0 17 0;
#X connect 17 0 15 0;
#X connect 18 0 16 0;
#X connect 25 0 5 0;
#X connect 25 1 9 0;
#X connect 26 0 15 0;
#X connect 27 0 26 0;
#X connect 28 0 15 0;
#X connect 29 0 15 0;
#X connect 30 0 29 0;
#X restore 56 147 pd record2;
#X obj 636 186 cnv 15 42 25 empty empty empty 20 12 0 14 -24198 -66577
0;
#N canvas 336 174 309 137 ?. 0;
#X obj 3 83 cnv 15 300 46 empty empty empty 20 12 0 14 -224896 -66577
0;
#X obj 3 6 cnv 18 300 70 empty empty ARGOPdMiniModules 3 10 1 14 -4033
-1 1.04858e+06;
#X obj 26 26 cnv 10 10 10 empty empty Gerard 0 5 1 11 -4033 -1 1.04858e+06
;
#X obj 64 26 cnv 10 10 10 empty empty Paresys 0 5 1 11 -4033 -1 1.04858e+06
;
#X obj 7 37 pddp/pddplink http://gerard.paresys.free.fr/ARGOPd/;
#X text 8 85 Construit sous / Build under Pd 0.43.4-extended;
#X obj 8 111 pddp/pddplink http://puredata.info/downloads/pd-extended
;
#X obj 7 50 pddp/pddplink http://paresys.pagesperso-orange.fr/ARGOPd/
;
#X text 7 98 or Pd-0.46-7 + deken;
#X restore 640 190 pd ?.;
#X text 175 81 7 3 2016;
#X connect 0 0 6 1;
#X connect 5 0 6 0;
#X connect 8 0 16 0;
#X connect 16 0 8 0;
#X connect 16 1 6 0;
#X connect 16 2 11 0;
#X coords 0 -1 1 1 166 17 1 100 100;
#X restore 49 460 pd ARGO;
#N canvas 333 135 711 339 ARGO 0;
#X obj 101 101 cnv 20 130 76 empty ColorForm empty 20 12 0 14 -188398
-1 1.04858e+06;
#X obj 162 104 cnv 10 40 10 empty ColorForm Freeverb. 1 5 1 14 -188398
-1 1.04858e+06;
#X obj 101 173 cnv 4 10 4 empty empty empty 20 12 0 14 -1 -66577 0
;
#X obj 221 173 cnv 4 10 4 empty empty empty 0 0 0 9 -1 -66577 0;
#X obj 87 74 inlet~;
#X obj 211 74 inlet~;
#X obj 101 101 cnv 4 10 4 empty empty empty 20 12 0 14 -1 -66577 0
;
#X obj 97 310 outlet~;
#X obj 208 310 outlet~;
#X obj 221 101 cnv 4 10 4 empty empty empty 0 0 0 9 -1 -66577 0;
#X obj 103 136 hsl 127 12 0 1 0 1 \$0-A ColorForm Brill 0 7 1 9 -188398
-1 -1 9800 0;
#X obj 103 124 hsl 127 12 0 1 0 1 \$0-A ColorForm Size 0 7 1 9 -188398
-1 -1 6300 0;
#X obj 103 160 hsl 127 12 0 1 0 1 \$0-A ColorAmpli Dir 0 7 1 9 -261299
-1 -1 2100 0;
#X obj 103 148 hsl 127 12 0 1 0 1 \$0-A ColorAmpli Stereo 0 7 1 9 -261299
-1 -1 12600 0;
#X msg 12 225 roomsize \$1;
#X msg 328 225 damping \$1;
#X msg 167 225 width \$1;
#X msg 229 225 wet \$1;
#X msg 277 225 dry \$1;
#X obj 277 179 - 1;
#X obj 277 202 * -1;
#X obj 12 202 * 1.1;
#X obj 328 179 * -2.3;
#X obj 328 202 + 2.3;
#X msg 100 225 freeze \$1;
#X obj 113 100 tgl 12 1 \$0-A \$0-B Freeze 14 7 1 9 -262144 -1 -1 0
1;
#X obj 386 98 cnv 15 60 30 empty empty empty 20 12 0 14 -24198 -66577
0;
#N canvas 584 107 469 218 Help 0;
#X obj 10 11 cnv 15 440 180 empty empty empty 20 12 0 14 -228856 -66577
0;
#X text 13 11 Citation;
#X text 20 101 "freeverb~ is a simple implementation of the standard
Schroeder/Moorer reverb model. It uses 8 comb filters in parallel on
both channels. It then feeds the result of the reverb through 4 allpass
filters in series on both channels. These "smooth" the sound. The filters
on the right channel are slightly detuned compared to the left channel
in order to create a stereo effect.";
#X text 19 24 freeverb~ version 1.2 - reverb external for Pure Data
and Max/MSP written by Olaf Matthes <olaf.matthes@gmx.de> - based on
Freeverb \, the free \, studio-quality reverb SOURCE CODE in the public
domain. Written by Jezar at Dreampoint - http://www.dreampoint.co.uk
This software is published under GPL terms \, see file LICENSE.;
#X restore 393 105 pd Help;
#X obj 97 278 freeverb~/freeverb~;
#X obj 647 289 cnv 15 42 25 empty empty empty 20 12 0 14 -24198 -66577
0;
#N canvas 336 174 316 152 ?. 0;
#X obj 8 84 cnv 15 300 56 empty empty empty 20 12 0 14 -224896 -66577
0;
#X obj 8 7 cnv 18 300 70 empty empty ARGOPdMiniModules 3 10 1 14 -4033
-1 1.04858e+06;
#X obj 31 27 cnv 10 10 10 empty empty Gerard 0 5 1 11 -4033 -1 1.04858e+06
;
#X obj 69 27 cnv 10 10 10 empty empty Paresys 0 5 1 11 -4033 -1 1.04858e+06
;
#X obj 12 40 pddp/pddplink http://gerard.paresys.free.fr/ARGOPd/;
#X text 13 85 Construit sous / Build under Pd 0.43.4-extended;
#X obj 13 111 pddp/pddplink http://puredata.info/downloads/pd-extended
;
#X obj 12 53 pddp/pddplink http://paresys.pagesperso-orange.fr/ARGOPd/
;
#X text 12 98 or Pd-0.48;
#X obj 13 124 pddp/pddplink http://puredata.info/downloads/pure-data
;
#X restore 651 293 pd ?.;
#X obj 578 79 cnv 15 100 70 empty empty empty 20 12 0 14 -24198 -66577
0;
#X text 601 81 library:;
#X text 582 92 freeverb~;
#X msg 520 225 print;
#X msg 567 225 bypass \$1;
#X obj 567 179 tgl 15 0 empty empty empty 17 7 0 10 -262144 -1 -1 0
1;
#X text 583 106 pddp;
#X msg 400 225 firstpassfilter \$1;
#X msg 637 225 dry \$1;
#X obj 638 202 / 100;
#X obj 638 179 nbx 5 14 0 100 0 0 empty empty empty 0 -8 0 10 -262144
-1 -1 0 256;
#X text 139 83 21 7 2018;
#X obj 113 112 tgl 12 1 \$0-A \$0-B FirstPass 14 7 1 9 -262144 -1 -1
0 1;
#X connect 4 0 28 0;
#X connect 5 0 28 1;
#X connect 10 0 22 0;
#X connect 11 0 21 0;
#X connect 12 0 19 0;
#X connect 12 0 17 0;
#X connect 13 0 16 0;
#X connect 14 0 28 0;
#X connect 15 0 28 0;
#X connect 16 0 28 0;
#X connect 17 0 28 0;
#X connect 18 0 28 0;
#X connect 19 0 20 0;
#X connect 20 0 18 0;
#X connect 21 0 14 0;
#X connect 22 0 23 0;
#X connect 23 0 15 0;
#X connect 24 0 28 0;
#X connect 25 0 24 0;
#X connect 28 0 7 0;
#X connect 28 1 8 0;
#X connect 34 0 28 0;
#X connect 35 0 28 0;
#X connect 36 0 35 0;
#X connect 38 0 28 0;
#X connect 39 0 28 0;
#X connect 40 0 39 0;
#X connect 41 0 40 0;
#X connect 43 0 38 0;
#X coords 0 -1 1 1 132 78 1 100 100;
#X restore 160 274 pd ARGO;
#X connect 1 0 0 0;
#X connect 8 0 14 0;
#X connect 8 0 14 1;
#X connect 9 0 14 1;
#X connect 10 0 14 2;
#X connect 10 0 14 1;
#X connect 11 0 8 0;
#X connect 11 1 10 0;
#X connect 11 2 9 0;
#X connect 11 3 9 1;
#X connect 14 0 23 0;
#X connect 14 1 23 1;
#X connect 23 0 22 0;
#X connect 23 0 15 0;
#X connect 23 0 19 0;
#X connect 23 1 22 1;
#X connect 23 1 15 1;
#X connect 23 1 19 1;
