#N canvas 525 23 485 508 10;
#N canvas 413 140 402 279 ARGO 0;
#X obj 101 101 cnv 10 88 41 \$0-A \$0-B empty 20 12 0 14 -1 -1 1.04858e+06
;
#X obj 101 109 nbx 4 12 0 1e+37 0 0 \$0 \$0-ReceiveCpuPeak CPUPeak
42 7 1 10 -24198 -1 -24198 14 256;
#X obj 101 122 nbx 4 12 0 1e+37 0 0 \$0 \$0-ReceiveCpuMean CPUMean
42 7 1 10 -24198 -1 -24198 14 256;
#X text 141 83 5 3 2009;
#X obj 145 -55 cputime;
#X obj 145 -76 t b b;
#X text 188 24 (c) musil@iem.kug.ac.at;
#X text 230 37 IEM KUG;
#X text 78 18 CPU-load;
#X obj 144 -125 loadbang;
#X text 205 48 graz \, austria 2001;
#X obj 145 -100 metro 500;
#X obj 145 -34 * 0.2;
#X text 237 -88 -dsp-load in %;
#X text 228 -101 measure average- and peak-;
#X obj 37 18 * 100;
#X obj 37 63 int;
#X obj 37 41 + 0.499;
#X obj 37 86 * 0.01;
#N canvas 524 162 422 273 1p1zmodif 0;
#X text 134 89 (c) musil@iem.kug.ac.at;
#X text 179 99 IEM KUG;
#X obj 14 195 +;
#X text 151 108 graz \, austria 2001;
#X text 135 71 y[n] = a0*x[n] + a1*x[n-1] + b1*y[n-1];
#X text 18 13 x[n];
#X text 16 244 y[n];
#X text 84 111 y[n-1];
#X text 134 56 <float> control-IIR-filter 1.order;
#X obj 15 28 inlet;
#X obj 14 228 outlet;
#X obj 15 112 * 0.1;
#X obj 59 156 * 0.9;
#X text 139 144 a1 = 0;
#X text 139 155 b1 = 0.9;
#X text 139 133 a0 = 0.1;
#X obj 15 50 t f b;
#X text 135 40 Inspiré de 1p1z;
#X obj 59 112 f 0;
#X connect 2 0 10 0;
#X connect 2 0 18 1;
#X connect 9 0 16 0;
#X connect 11 0 2 0;
#X connect 12 0 2 1;
#X connect 16 0 11 0;
#X connect 16 1 18 0;
#X connect 18 0 12 0;
#X restore 37 -8 pd 1p1zmodif;
#X text 146 9 Inspiré de 5.reference/iemabs/help-dsp.pd;
#X connect 4 0 12 0;
#X connect 5 0 4 0;
#X connect 5 1 4 1;
#X connect 9 0 11 0;
#X connect 11 0 5 0;
#X connect 12 0 19 0;
#X connect 12 0 1 0;
#X connect 15 0 17 0;
#X connect 16 0 18 0;
#X connect 17 0 16 0;
#X connect 18 0 2 0;
#X connect 19 0 15 0;
#X coords 0 -1 1 1 90 43 1 100 100;
#X restore 363 23 pd ARGO;
#X obj 18 16 cnv 15 15 15 empty empty ExMM100-18Animals.pd 0 8 1 14
-262144 -66577 0;
#N canvas 89 116 1020 409 (subpatch) 0;
#N canvas 0 23 538 497 chirper 0;
#X obj 222 357 *~;
#X obj 222 260 cos~;
#X obj 222 238 +~ 0.25;
#X obj 222 282 clip~ 0 1;
#X obj 237 324 osc~ 12342;
#X obj 251 304 osc~ 5134;
#X obj 239 171 wrap~;
#X obj 223 214 +~;
#X obj 160 133 clip~ 0 1;
#X obj 160 170 wrap~;
#X obj 239 134 clip~ 1 4;
#X obj 205 94 *~ 44;
#X obj 204 71 phasor~ 0.8;
#X obj 222 381 *~ 0.05;
#X obj 221 431 *~;
#X obj 220 458 outlet~;
#X obj 237 406 inlet;
#X connect 0 0 13 0;
#X connect 1 0 3 0;
#X connect 2 0 1 0;
#X connect 3 0 0 0;
#X connect 4 0 0 1;
#X connect 5 0 0 1;
#X connect 6 0 7 1;
#X connect 7 0 2 0;
#X connect 8 0 9 0;
#X connect 9 0 7 0;
#X connect 10 0 6 0;
#X connect 11 0 8 0;
#X connect 11 0 10 0;
#X connect 12 0 11 0;
#X connect 13 0 14 0;
#X connect 14 0 15 0;
#X connect 16 0 14 1;
#X restore 288 200 pd chirper;
#N canvas 0 23 772 704 mosquito 0;
#X obj 157 329 phasor~ 600;
#X obj 247 329 phasor~ 600;
#X obj 248 304 +~;
#X obj 264 276 osc~ 0.2;
#X obj 226 234 +~;
#X obj 289 98 noise~;
#X obj 289 120 lop~ 1;
#X obj 289 142 *~ 2000;
#X obj 214 554 *~;
#X obj 263 555 *~;
#X obj 237 488 sig~ 1;
#X obj 236 513 -~;
#X obj 226 143 lop~ 0.2;
#X obj 341 256 noise~;
#X obj 343 347 clip~ 0 1;
#X obj 343 323 *~ 1e+09;
#X obj 342 278 lop~ 0.2;
#X obj 343 300 lop~ 0.2;
#X obj 196 430 *~;
#X obj 314 203 lop~ 0.5;
#X obj 303 166 *~ 0.2;
#X obj 194 456 *~ 0.02;
#X obj 226 167 *~ 3000;
#X obj 226 189 +~ 600;
#X obj 159 384 bp~ 8000 12;
#X obj 250 387 bp~ 8000 12;
#X obj 214 587 *~;
#X obj 262 586 *~;
#X obj 227 620 outlet~;
#X obj 158 358 *~ 0.97;
#X obj 248 358 *~ 0.97;
#X obj 300 553 inlet;
#X connect 0 0 29 0;
#X connect 1 0 30 0;
#X connect 2 0 1 0;
#X connect 3 0 2 1;
#X connect 4 0 0 0;
#X connect 4 0 2 0;
#X connect 5 0 6 0;
#X connect 5 0 12 0;
#X connect 6 0 7 0;
#X connect 7 0 4 1;
#X connect 7 0 3 0;
#X connect 7 0 20 0;
#X connect 8 0 26 0;
#X connect 9 0 27 0;
#X connect 10 0 11 0;
#X connect 11 0 8 1;
#X connect 12 0 22 0;
#X connect 13 0 16 0;
#X connect 14 0 18 1;
#X connect 15 0 14 0;
#X connect 16 0 17 0;
#X connect 17 0 15 0;
#X connect 18 0 21 0;
#X connect 19 0 11 1;
#X connect 19 0 9 1;
#X connect 20 0 19 0;
#X connect 21 0 8 0;
#X connect 21 0 9 0;
#X connect 22 0 23 0;
#X connect 23 0 4 0;
#X connect 24 0 18 0;
#X connect 25 0 18 0;
#X connect 26 0 28 0;
#X connect 29 0 24 0;
#X connect 30 0 25 0;
#X connect 31 0 27 1;
#X connect 31 0 26 1;
#X restore 350 174 pd mosquito;
#N canvas 0 23 632 558 rattler 0;
#X obj 121 158 sig~ 1;
#X obj 121 190 /~;
#X obj 174 167 +~ 1;
#X obj 175 141 *~;
#X obj 230 167 noise~;
#X obj 121 215 *~;
#X obj 121 309 *~;
#X obj 230 213 *~ 0.1;
#X obj 317 186 clip~ 0 1;
#X obj 121 342 *~ 0.2;
#X obj 316 163 *~ 3;
#X obj 317 211 *~ 1;
#X obj 175 112 *~ 6;
#X obj 317 140 osc~ 0.5;
#X obj 175 90 osc~ 10;
#X obj 230 189 bp~ 7000 13;
#X obj 121 241 bp~ 6000 16;
#X obj 122 390 *~;
#X obj 121 415 outlet~;
#X obj 138 365 inlet;
#X connect 0 0 1 0;
#X connect 1 0 5 0;
#X connect 2 0 1 1;
#X connect 3 0 2 0;
#X connect 4 0 15 0;
#X connect 5 0 16 0;
#X connect 6 0 9 0;
#X connect 7 0 16 0;
#X connect 8 0 11 0;
#X connect 9 0 17 0;
#X connect 10 0 8 0;
#X connect 11 0 6 1;
#X connect 12 0 3 0;
#X connect 12 0 3 1;
#X connect 13 0 10 0;
#X connect 14 0 12 0;
#X connect 15 0 5 1;
#X connect 15 0 7 0;
#X connect 16 0 6 0;
#X connect 17 0 18 0;
#X connect 19 0 17 1;
#X restore 268 59 pd rattler;
#N canvas 0 23 519 413 critters2 0;
#X obj 93 226 *~;
#X obj 94 188 *~;
#X obj 94 152 *~;
#X obj 126 46 unpack 1 2 3 4;
#X obj 92 253 hip~ 20;
#X obj 95 107 cos~;
#X obj 158 106 cos~;
#X obj 233 105 cos~;
#X obj 303 105 cos~;
#X obj 303 75 phasor~;
#X obj 234 75 phasor~;
#X obj 158 76 phasor~;
#X obj 96 76 phasor~;
#X obj 126 -1 loadbang;
#X text 129 296 night critters \, ajf2005;
#X obj 108 270 osc~ 0.01;
#X obj 91 295 *~;
#X obj 91 317 *~ 0.007;
#X msg 126 23 2012 4 20 2;
#X obj 92 345 *~;
#X obj 92 375 outlet~;
#X obj 158 316 inlet;
#X connect 0 0 4 0;
#X connect 1 0 0 0;
#X connect 2 0 1 0;
#X connect 3 0 12 0;
#X connect 3 1 11 0;
#X connect 3 2 10 0;
#X connect 3 3 9 0;
#X connect 4 0 16 0;
#X connect 5 0 2 0;
#X connect 6 0 2 1;
#X connect 7 0 1 1;
#X connect 8 0 0 1;
#X connect 9 0 8 0;
#X connect 10 0 7 0;
#X connect 11 0 6 0;
#X connect 12 0 5 0;
#X connect 13 0 18 0;
#X connect 15 0 16 1;
#X connect 16 0 17 0;
#X connect 17 0 19 0;
#X connect 18 0 3 0;
#X connect 19 0 20 0;
#X connect 21 0 19 1;
#X restore 400 110 pd critters2;
#N canvas 0 23 427 758 frog 0;
#X obj 95 461 *~ 1;
#X obj 105 564 *~ 0.45;
#X obj 163 164 vline~;
#X obj 148 339 wrap~;
#X obj 148 390 *~;
#X obj 97 413 sig~ 1;
#X obj 96 440 /~;
#X obj 148 416 +~ 1;
#X obj 148 318 -~ 1;
#X obj 12 520 vcf~ 800 40;
#X obj 96 521 vcf~ 1 40;
#X obj 168 520 vcf~ 2600 20;
#X obj 201 445 *~ 120;
#X obj 157 446 *~ 60;
#X obj 254 445 *~ 340;
#X msg 163 143 1 \, 0 400;
#X msg 241 64 80;
#X msg 276 64 60;
#X msg 314 64 40;
#X obj 147 272 *~;
#X obj 96 590 hip~ 10;
#X obj 254 35 loadbang;
#X obj 163 73 metro 1000;
#X obj 163 121 sel 0;
#X obj 149 192 sig~ 1;
#X obj 148 215 -~;
#X obj 149 364 *~ 42;
#X obj 148 244 *~ 2.3;
#X obj 156 470 +~ 600;
#X obj 201 470 +~ 1500;
#X obj 254 470 +~ 2300;
#X obj 148 295 *~ 4;
#X obj 202 419 *~ 0.35;
#X obj 163 96 random 7;
#X obj 96 652 *~;
#X obj 95 615 *~ 0.1;
#X obj 95 678 outlet~;
#X obj 377 35 inlet;
#X connect 0 0 9 0;
#X connect 0 0 10 0;
#X connect 0 0 11 0;
#X connect 1 0 20 0;
#X connect 2 0 25 1;
#X connect 3 0 26 0;
#X connect 4 0 7 0;
#X connect 5 0 6 0;
#X connect 6 0 0 0;
#X connect 7 0 6 1;
#X connect 8 0 3 0;
#X connect 9 0 1 0;
#X connect 10 0 20 0;
#X connect 11 0 1 0;
#X connect 12 0 29 0;
#X connect 13 0 28 0;
#X connect 14 0 30 0;
#X connect 15 0 2 0;
#X connect 16 0 9 2;
#X connect 17 0 10 2;
#X connect 18 0 11 2;
#X connect 19 0 31 0;
#X connect 19 0 32 0;
#X connect 20 0 35 0;
#X connect 21 0 18 0;
#X connect 21 0 17 0;
#X connect 21 0 16 0;
#X connect 21 0 22 0;
#X connect 22 0 33 0;
#X connect 23 0 15 0;
#X connect 24 0 25 0;
#X connect 25 0 27 0;
#X connect 26 0 4 0;
#X connect 26 0 4 1;
#X connect 27 0 19 0;
#X connect 27 0 19 1;
#X connect 28 0 9 1;
#X connect 29 0 10 1;
#X connect 30 0 11 1;
#X connect 31 0 8 0;
#X connect 32 0 12 0;
#X connect 32 0 13 0;
#X connect 32 0 14 0;
#X connect 33 0 23 0;
#X connect 34 0 36 0;
#X connect 35 0 34 0;
#X connect 37 0 34 1;
#X restore 204 56 pd frog;
#N canvas 0 23 543 733 frog2 0;
#X obj 95 461 *~ 1;
#X obj 105 564 *~ 0.45;
#X obj 208 153 vline~;
#X obj 148 339 wrap~;
#X obj 148 390 *~;
#X obj 97 413 sig~ 1;
#X obj 96 440 /~;
#X obj 148 416 +~ 1;
#X obj 148 318 -~ 1;
#X obj 149 364 *~ 122;
#X obj 12 520 vcf~ 800 40;
#X obj 96 521 vcf~ 1 40;
#X obj 168 520 vcf~ 2600 20;
#X obj 201 393 *~ -1;
#X obj 262 304 sig~ 1;
#X obj 261 327 -~;
#X obj 261 361 min~ 0.5;
#X obj 201 361 max~ 0.9;
#X obj 147 272 *~;
#X obj 148 220 *~ -1;
#X obj 208 188 min~ 0.5;
#X obj 147 189 max~ 0.5;
#X obj 96 590 hip~ 10;
#X obj 299 32 loadbang;
#X obj 208 110 sel 0;
#X obj 156 470 +~ 900;
#X obj 201 470 +~ 1800;
#X obj 254 470 +~ 2900;
#X obj 254 445 *~ 240;
#X obj 201 445 *~ 90;
#X obj 157 446 *~ 40;
#X obj 200 417 *~ 3;
#X obj 148 244 *~ 3;
#X msg 208 132 1 \, 0 200;
#X obj 148 295 *~ 2;
#X msg 359 53 30;
#X msg 321 53 40;
#X msg 286 53 50;
#X obj 208 62 metro 700;
#X obj 208 85 random 7;
#X obj 96 634 *~;
#X obj 96 611 *~ 0.2;
#X obj 95 657 outlet~;
#X obj 156 612 inlet;
#X connect 0 0 10 0;
#X connect 0 0 11 0;
#X connect 0 0 12 0;
#X connect 1 0 22 0;
#X connect 2 0 15 1;
#X connect 2 0 21 0;
#X connect 2 0 20 0;
#X connect 3 0 9 0;
#X connect 4 0 7 0;
#X connect 5 0 6 0;
#X connect 6 0 0 0;
#X connect 7 0 6 1;
#X connect 8 0 3 0;
#X connect 9 0 4 0;
#X connect 9 0 4 1;
#X connect 10 0 1 0;
#X connect 11 0 22 0;
#X connect 12 0 1 0;
#X connect 13 0 31 0;
#X connect 14 0 15 0;
#X connect 15 0 16 0;
#X connect 15 0 17 0;
#X connect 16 0 31 0;
#X connect 17 0 13 0;
#X connect 18 0 34 0;
#X connect 19 0 32 0;
#X connect 20 0 32 0;
#X connect 21 0 19 0;
#X connect 22 0 41 0;
#X connect 23 0 35 0;
#X connect 23 0 36 0;
#X connect 23 0 37 0;
#X connect 23 0 38 0;
#X connect 24 0 33 0;
#X connect 25 0 10 1;
#X connect 26 0 11 1;
#X connect 27 0 12 1;
#X connect 28 0 27 0;
#X connect 29 0 26 0;
#X connect 30 0 25 0;
#X connect 31 0 28 0;
#X connect 31 0 29 0;
#X connect 31 0 30 0;
#X connect 32 0 18 0;
#X connect 32 0 18 1;
#X connect 33 0 2 0;
#X connect 34 0 8 0;
#X connect 35 0 12 2;
#X connect 36 0 11 2;
#X connect 37 0 10 2;
#X connect 38 0 39 0;
#X connect 39 0 24 0;
#X connect 40 0 42 0;
#X connect 41 0 40 0;
#X connect 43 0 40 1;
#X restore 206 108 pd frog2;
#N canvas 0 23 532 508 frog 0;
#X obj 111 124 noise~;
#X obj 112 159 *~;
#X obj 161 75 *~;
#X obj 161 100 *~;
#X obj 162 123 *~;
#X obj 112 286 *~;
#X obj 113 235 vcf~ 500 1;
#X obj 203 139 +~ 450;
#X obj 111 312 *~;
#X obj 162 261 osc~ 12;
#X obj 222 194 loadbang;
#X obj 161 51 osc~ 0.4444;
#X msg 222 216 80;
#X obj 112 208 bp~ 510 220;
#X obj 111 182 bp~ 450 220;
#X obj 205 117 *~ 70;
#X obj 113 262 *~ 60;
#X obj 111 444 *~;
#X obj 125 368 lop~ 1;
#X obj 369 158 bng 15 250 50 0 empty empty empty 0 -6 0 8 -262144 -1
-1;
#X obj 302 231 sel 0 1;
#X msg 300 253 0;
#X msg 335 253 1;
#X obj 301 208 random 4;
#X obj 110 391 *~;
#X obj 301 183 metro 1300;
#X obj 110 336 *~ 0.4;
#X obj 111 471 outlet~;
#X obj 128 419 inlet;
#X connect 0 0 1 0;
#X connect 1 0 14 0;
#X connect 2 0 3 0;
#X connect 2 0 3 1;
#X connect 2 0 5 1;
#X connect 2 0 15 0;
#X connect 3 0 4 0;
#X connect 3 0 4 1;
#X connect 4 0 1 1;
#X connect 5 0 8 0;
#X connect 6 0 16 0;
#X connect 7 0 6 1;
#X connect 8 0 26 0;
#X connect 9 0 8 1;
#X connect 10 0 12 0;
#X connect 10 0 25 0;
#X connect 11 0 2 0;
#X connect 11 0 2 1;
#X connect 12 0 6 2;
#X connect 13 0 6 0;
#X connect 14 0 13 0;
#X connect 15 0 7 0;
#X connect 16 0 5 0;
#X connect 17 0 27 0;
#X connect 18 0 24 1;
#X connect 19 0 25 0;
#X connect 20 0 21 0;
#X connect 20 1 22 0;
#X connect 21 0 18 0;
#X connect 22 0 18 0;
#X connect 23 0 20 0;
#X connect 24 0 17 0;
#X connect 25 0 23 0;
#X connect 26 0 24 0;
#X connect 28 0 17 1;
#X restore 205 173 pd frog reson;
#N canvas 0 23 537 503 cricket 0;
#X obj 141 220 cos~;
#X obj 156 140 cos~;
#X obj 141 197 +~;
#X obj 104 164 wrap~;
#X obj 119 344 *~ 0.07;
#X obj 156 168 *~ 0.2;
#X obj 140 247 *~;
#X obj 156 119 wrap~;
#X obj 119 281 *~;
#X obj 66 162 cos~;
#X obj 129 57 phasor~ 18;
#X obj 104 140 *~ 250;
#X obj 156 95 *~ 2.1;
#X obj 264 179 *~;
#X obj 212 104 noise~;
#X obj 212 126 lop~ 5;
#X obj 197 224 *~;
#X obj 198 200 +~ 0.6;
#X obj 211 157 *~ 12;
#X obj 264 131 phasor~ -2;
#X obj 261 -9 noise~;
#X obj 262 13 lop~ 0.2;
#X obj 263 35 lop~ 0.2;
#X obj 263 82 clip~ 0 1;
#X obj 263 58 *~ 1e+09;
#X obj 119 311 *~;
#X obj 263 108 *~ -2;
#X obj 264 154 lop~ 8;
#X obj 119 393 *~;
#X obj 119 418 outlet~;
#X obj 135 368 inlet;
#X connect 0 0 6 0;
#X connect 1 0 5 0;
#X connect 2 0 0 0;
#X connect 3 0 2 0;
#X connect 4 0 28 0;
#X connect 5 0 2 1;
#X connect 6 0 8 1;
#X connect 7 0 1 0;
#X connect 8 0 25 0;
#X connect 9 0 8 0;
#X connect 10 0 11 0;
#X connect 10 0 12 0;
#X connect 10 0 9 0;
#X connect 11 0 3 0;
#X connect 12 0 7 0;
#X connect 13 0 16 1;
#X connect 14 0 15 0;
#X connect 15 0 18 0;
#X connect 15 0 27 0;
#X connect 16 0 6 1;
#X connect 17 0 16 0;
#X connect 18 0 17 0;
#X connect 19 0 27 0;
#X connect 20 0 21 0;
#X connect 21 0 22 0;
#X connect 22 0 24 0;
#X connect 23 0 25 1;
#X connect 23 0 26 0;
#X connect 24 0 23 0;
#X connect 25 0 4 0;
#X connect 26 0 19 0;
#X connect 27 0 13 1;
#X connect 27 0 13 0;
#X connect 28 0 29 0;
#X connect 30 0 28 1;
#X restore 24 36 pd cricket;
#N canvas 0 23 531 585 cricket 0;
#X obj 141 220 cos~;
#X obj 156 140 cos~;
#X obj 141 197 +~;
#X obj 104 164 wrap~;
#X obj 119 344 *~ 0.07;
#X obj 156 168 *~ 0.2;
#X obj 140 247 *~;
#X obj 156 119 wrap~;
#X obj 119 281 *~;
#X obj 66 162 cos~;
#X obj 104 140 *~ 250;
#X obj 156 95 *~ 2.1;
#X obj 264 179 *~;
#X obj 212 104 noise~;
#X obj 212 126 lop~ 5;
#X obj 197 224 *~;
#X obj 198 200 +~ 0.6;
#X obj 211 157 *~ 12;
#X obj 264 131 phasor~ -2;
#X obj 261 -9 noise~;
#X obj 262 13 lop~ 0.2;
#X obj 263 35 lop~ 0.2;
#X obj 263 82 clip~ 0 1;
#X obj 263 58 *~ 1e+09;
#X obj 119 311 *~;
#X obj 264 154 lop~ 8;
#X obj 129 57 phasor~ 21;
#X obj 263 108 *~ -4;
#X obj 119 392 *~;
#X obj 115 420 outlet~;
#X obj 135 367 inlet;
#X connect 0 0 6 0;
#X connect 1 0 5 0;
#X connect 2 0 0 0;
#X connect 3 0 2 0;
#X connect 4 0 28 0;
#X connect 5 0 2 1;
#X connect 6 0 8 1;
#X connect 7 0 1 0;
#X connect 8 0 24 0;
#X connect 9 0 8 0;
#X connect 10 0 3 0;
#X connect 11 0 7 0;
#X connect 12 0 15 1;
#X connect 13 0 14 0;
#X connect 14 0 17 0;
#X connect 14 0 25 0;
#X connect 15 0 6 1;
#X connect 16 0 15 0;
#X connect 17 0 16 0;
#X connect 18 0 25 0;
#X connect 19 0 20 0;
#X connect 20 0 21 0;
#X connect 21 0 23 0;
#X connect 22 0 24 1;
#X connect 22 0 27 0;
#X connect 23 0 22 0;
#X connect 24 0 4 0;
#X connect 25 0 12 1;
#X connect 25 0 12 0;
#X connect 26 0 10 0;
#X connect 26 0 11 0;
#X connect 26 0 9 0;
#X connect 27 0 18 0;
#X connect 28 0 29 0;
#X connect 30 0 28 1;
#X restore 26 65 pd cricket;
#N canvas 0 23 559 558 cricket 0;
#X obj 141 220 cos~;
#X obj 156 140 cos~;
#X obj 141 197 +~;
#X obj 104 164 wrap~;
#X obj 119 344 *~ 0.07;
#X obj 156 168 *~ 0.2;
#X obj 140 247 *~;
#X obj 156 119 wrap~;
#X obj 119 281 *~;
#X obj 66 162 cos~;
#X obj 104 140 *~ 250;
#X obj 156 95 *~ 2.1;
#X obj 264 179 *~;
#X obj 212 104 noise~;
#X obj 212 126 lop~ 5;
#X obj 197 224 *~;
#X obj 198 200 +~ 0.6;
#X obj 211 157 *~ 12;
#X obj 264 131 phasor~ -2;
#X obj 261 -9 noise~;
#X obj 263 82 clip~ 0 1;
#X obj 263 58 *~ 1e+09;
#X obj 119 311 *~;
#X obj 264 154 lop~ 8;
#X obj 129 57 phasor~ 12;
#X obj 263 108 *~ -3;
#X obj 263 35 lop~ 0.1;
#X obj 262 13 lop~ 0.1;
#X obj 120 393 *~;
#X obj 120 426 outlet~;
#X obj 136 368 inlet;
#X connect 0 0 6 0;
#X connect 1 0 5 0;
#X connect 2 0 0 0;
#X connect 3 0 2 0;
#X connect 4 0 28 0;
#X connect 5 0 2 1;
#X connect 6 0 8 1;
#X connect 7 0 1 0;
#X connect 8 0 22 0;
#X connect 9 0 8 0;
#X connect 10 0 3 0;
#X connect 11 0 7 0;
#X connect 12 0 15 1;
#X connect 13 0 14 0;
#X connect 14 0 17 0;
#X connect 14 0 23 0;
#X connect 15 0 6 1;
#X connect 16 0 15 0;
#X connect 17 0 16 0;
#X connect 18 0 23 0;
#X connect 19 0 27 0;
#X connect 20 0 22 1;
#X connect 20 0 25 0;
#X connect 21 0 20 0;
#X connect 22 0 4 0;
#X connect 23 0 12 1;
#X connect 23 0 12 0;
#X connect 24 0 10 0;
#X connect 24 0 11 0;
#X connect 24 0 9 0;
#X connect 25 0 18 0;
#X connect 26 0 21 0;
#X connect 27 0 26 0;
#X connect 28 0 29 0;
#X connect 30 0 28 1;
#X restore 25 95 pd cricket;
#N canvas 0 23 586 454 cricket 0;
#X obj 216 113 osc~ 3000;
#X obj 151 119 *~;
#X obj 152 42 osc~ 3.6;
#X obj 151 147 *~;
#X obj 152 69 +~ 1;
#X obj 152 93 *~ 0.5;
#X obj 151 173 *~;
#X obj 217 88 +~ 3000;
#X obj 216 63 *~ 300;
#X obj 151 203 *~;
#X obj 217 40 osc~ 120;
#X obj 296 25 noise~;
#X obj 298 116 clip~ 0 1;
#X obj 298 92 *~ 1e+09;
#X obj 298 69 lop~ 0.1;
#X obj 297 47 lop~ 0.1;
#X obj 151 231 *~;
#X obj 164 315 *~;
#X obj 152 265 *~ 0.05;
#X obj 152 346 outlet~;
#X obj 180 290 inlet;
#X connect 0 0 9 1;
#X connect 1 0 3 0;
#X connect 1 0 3 1;
#X connect 2 0 4 0;
#X connect 3 0 6 0;
#X connect 3 0 6 1;
#X connect 4 0 5 0;
#X connect 5 0 1 0;
#X connect 5 0 1 1;
#X connect 6 0 9 0;
#X connect 7 0 0 0;
#X connect 8 0 7 0;
#X connect 9 0 16 0;
#X connect 10 0 8 0;
#X connect 11 0 15 0;
#X connect 12 0 16 1;
#X connect 13 0 12 0;
#X connect 14 0 13 0;
#X connect 15 0 14 0;
#X connect 16 0 18 0;
#X connect 17 0 19 0;
#X connect 18 0 17 0;
#X connect 20 0 17 1;
#X restore 9 172 pd cricket japanese;
#N canvas 0 23 724 521 bullcricket 0;
#X obj 118 47 *~ 4;
#X obj 73 86 clip~ 0 1;
#X obj 153 87 clip~ 1 2;
#X obj 153 109 -~ 1;
#X obj 152 134 wrap~;
#X obj 136 167 +~;
#X obj 262 133 cos~;
#X obj 216 131 cos~;
#X obj 223 296 *~;
#X obj 221 161 *~;
#X obj 118 24 phasor~ 1;
#X obj 136 243 cos~;
#X obj 136 219 -~ 0.75;
#X obj 136 197 *~ 0.5;
#X obj 237 190 +~;
#X obj 240 85 phasor~ 20;
#X obj 261 110 *~ 900;
#X obj 322 208 clip~ 0 1;
#X obj 322 184 *~ 1e+09;
#X obj 293 261 *~;
#X obj 302 152 osc~ 0.057;
#X obj 378 152 osc~ 0.027;
#X obj 237 212 hip~ 2000;
#X obj 441 446 *~;
#X obj 223 320 hip~ 30;
#X obj 223 345 lop~ 3000;
#X obj 441 472 outlet~;
#X obj 223 393 clip~ -0.1 0.1;
#X obj 223 368 *~ 0.4;
#X obj 456 19 inlet;
#X connect 0 0 1 0;
#X connect 0 0 2 0;
#X connect 1 0 5 0;
#X connect 2 0 3 0;
#X connect 3 0 4 0;
#X connect 4 0 5 1;
#X connect 5 0 13 0;
#X connect 6 0 9 1;
#X connect 6 0 14 1;
#X connect 7 0 9 0;
#X connect 7 0 14 1;
#X connect 8 0 24 0;
#X connect 9 0 14 0;
#X connect 10 0 0 0;
#X connect 11 0 8 0;
#X connect 12 0 11 0;
#X connect 13 0 12 0;
#X connect 14 0 22 0;
#X connect 15 0 7 0;
#X connect 15 0 16 0;
#X connect 16 0 6 0;
#X connect 17 0 19 1;
#X connect 18 0 17 0;
#X connect 19 0 8 1;
#X connect 20 0 18 0;
#X connect 21 0 18 0;
#X connect 22 0 19 0;
#X connect 23 0 26 0;
#X connect 24 0 25 0;
#X connect 25 0 28 0;
#X connect 27 0 23 0;
#X connect 28 0 27 0;
#X connect 29 0 23 1;
#X restore 5 126 pd bullcricket;
#N canvas 0 23 494 370 critters 0;
#X obj 93 226 *~;
#X obj 94 188 *~;
#X obj 94 152 *~;
#X obj 126 46 unpack 1 2 3 4;
#X obj 92 253 hip~ 20;
#X obj 95 107 cos~;
#X obj 158 106 cos~;
#X obj 233 105 cos~;
#X obj 303 105 cos~;
#X obj 303 75 phasor~;
#X obj 234 75 phasor~;
#X obj 158 76 phasor~;
#X obj 96 76 phasor~;
#X obj 126 -1 loadbang;
#X text 129 296 night critters \, ajf2005;
#X msg 126 23 2134 4.279 20.4 15.5;
#X obj 108 270 osc~ 0.01;
#X obj 91 295 *~;
#X obj 91 317 *~ 0.007;
#X obj 90 382 *~;
#X obj 90 415 outlet~;
#X obj 106 357 inlet;
#X connect 0 0 4 0;
#X connect 1 0 0 0;
#X connect 2 0 1 0;
#X connect 3 0 12 0;
#X connect 3 1 11 0;
#X connect 3 2 10 0;
#X connect 3 3 9 0;
#X connect 4 0 17 0;
#X connect 5 0 2 0;
#X connect 6 0 2 1;
#X connect 7 0 1 1;
#X connect 8 0 0 1;
#X connect 9 0 8 0;
#X connect 10 0 7 0;
#X connect 11 0 6 0;
#X connect 12 0 5 0;
#X connect 13 0 15 0;
#X connect 15 0 3 0;
#X connect 16 0 17 1;
#X connect 17 0 18 0;
#X connect 18 0 19 0;
#X connect 19 0 20 0;
#X connect 21 0 19 1;
#X restore 405 54 pd critters;
#N canvas 0 23 531 564 bee 0;
#X obj 60 238 phasor~ 600;
#X obj 150 238 phasor~ 600;
#X obj 151 213 +~;
#X obj 167 185 osc~ 0.2;
#X obj 129 143 +~;
#X obj 172 -8 noise~;
#X obj 192 29 lop~ 1;
#X obj 192 51 *~ 2000;
#X obj 116 443 *~;
#X obj 165 444 *~;
#X obj 154 365 sig~ 1;
#X obj 138 402 -~;
#X obj 62 293 bp~ 6000 12;
#X obj 153 296 bp~ 6000 12;
#X obj 92 28 lop~ 0.2;
#X obj 92 52 *~ 5000;
#X obj 324 201 noise~;
#X obj 326 292 clip~ 0 1;
#X obj 326 268 *~ 1e+09;
#X obj 325 223 lop~ 0.2;
#X obj 326 245 lop~ 0.2;
#X obj 99 339 *~;
#X obj 92 74 +~ 300;
#X obj 397 303 lop~ 0.5;
#X obj 399 200 *~ 0.2;
#X obj 97 365 *~ 0.02;
#X obj 167 481 *~;
#X obj 115 484 *~;
#X obj 131 514 outlet~;
#X obj 182 514 outlet~;
#X obj -28 266 expr~ if ($v1 > 0.97 \, 1 \, 0);
#X obj 151 267 expr~ if ($v1 > 0.97 \, 1 \, 0);
#X obj 199 445 inlet;
#X connect 0 0 30 0;
#X connect 1 0 31 0;
#X connect 2 0 1 0;
#X connect 3 0 2 1;
#X connect 4 0 0 0;
#X connect 4 0 2 0;
#X connect 5 0 6 0;
#X connect 5 0 14 0;
#X connect 6 0 7 0;
#X connect 7 0 4 1;
#X connect 7 0 3 0;
#X connect 7 0 24 0;
#X connect 8 0 27 0;
#X connect 9 0 26 0;
#X connect 10 0 11 0;
#X connect 11 0 8 1;
#X connect 12 0 21 0;
#X connect 13 0 21 0;
#X connect 14 0 15 0;
#X connect 15 0 22 0;
#X connect 16 0 19 0;
#X connect 17 0 21 1;
#X connect 18 0 17 0;
#X connect 19 0 20 0;
#X connect 20 0 18 0;
#X connect 21 0 25 0;
#X connect 22 0 4 0;
#X connect 23 0 11 1;
#X connect 23 0 9 1;
#X connect 24 0 23 0;
#X connect 25 0 8 0;
#X connect 25 0 9 0;
#X connect 26 0 29 0;
#X connect 27 0 28 0;
#X connect 30 0 12 0;
#X connect 31 0 13 0;
#X connect 32 0 26 1;
#X connect 32 0 27 1;
#X restore 350 108 pd bee;
#N canvas 0 23 607 636 fly 0;
#X obj 110 164 +~ 284;
#X obj 110 185 phasor~ 640;
#X obj 96 395 /~;
#X obj 112 368 +~ 1;
#X obj 113 344 *~;
#X obj 66 344 sig~ 1;
#X obj 110 77 noise~;
#X obj 110 98 lop~ 2;
#X obj 110 116 lop~ 2;
#X obj 110 136 *~ 2000;
#X obj 111 208 -~ 0.5;
#X obj 111 240 *~;
#X obj 111 264 *~ -4;
#X obj 111 293 +~ 1;
#X obj 172 113 * 4;
#X obj 222 155 / 500;
#X obj 105 422 *~;
#X obj 174 83 line;
#X msg 214 54 280 60;
#X obj 112 316 *~ 16;
#X obj 107 443 bp~ 2000 0.3;
#X msg 169 55 0 20;
#X obj 173 25 sel 0 1;
#X obj 264 -26 loadbang;
#X obj 127 -15 bng 15 250 50 0 empty empty empty 0 -6 0 8 -262144 -1
-1;
#X obj 174 -24 metro 1000;
#X obj 174 -1 random 3;
#X obj 112 517 *~;
#X obj 108 470 *~ 0.007;
#X obj 112 547 outlet~;
#X obj 128 492 inlet;
#X connect 0 0 1 0;
#X connect 1 0 10 0;
#X connect 2 0 16 0;
#X connect 3 0 2 1;
#X connect 4 0 3 0;
#X connect 5 0 2 0;
#X connect 6 0 7 0;
#X connect 7 0 8 0;
#X connect 8 0 9 0;
#X connect 9 0 0 0;
#X connect 10 0 11 0;
#X connect 10 0 11 1;
#X connect 11 0 12 0;
#X connect 12 0 13 0;
#X connect 13 0 19 0;
#X connect 14 0 9 1;
#X connect 15 0 16 1;
#X connect 16 0 20 0;
#X connect 17 0 15 0;
#X connect 17 0 14 0;
#X connect 17 0 0 1;
#X connect 18 0 17 0;
#X connect 19 0 4 0;
#X connect 19 0 4 1;
#X connect 20 0 28 0;
#X connect 21 0 17 0;
#X connect 22 0 21 0;
#X connect 22 1 18 0;
#X connect 23 0 25 0;
#X connect 24 0 25 0;
#X connect 25 0 26 0;
#X connect 26 0 22 0;
#X connect 27 0 29 0;
#X connect 28 0 27 0;
#X connect 30 0 27 1;
#X restore 350 57 pd fly;
#N canvas 0 23 682 607 circada1 0;
#X obj 17 7 noise~;
#X obj 17 75 hip~ 5000;
#X obj 17 96 hip~ 5000;
#X obj 17 117 lop~ 8000;
#X obj 17 138 lop~ 8000;
#X obj 99 216 *~;
#X obj 187 216 *~;
#X obj 99 317 *~;
#X obj 116 271 +~;
#X obj 99 337 bp~ 6000 7;
#X obj 99 358 hip~ 4000;
#X obj 99 240 *~;
#X obj 99 168 *~ -90;
#X obj 99 144 +~ 1;
#X obj 143 96 lop~ 2;
#X obj 143 72 lop~ 2;
#X obj 99 120 *~ 30;
#X obj 187 120 *~ 10;
#X obj 187 144 +~ 1;
#X obj 187 168 *~ -20;
#X obj 99 192 phasor~;
#X obj 187 192 phasor~;
#X obj 116 295 lop~ 70;
#X obj 307 103 metro 3000;
#X obj 308 78 loadbang;
#X obj 375 78 bng 15 250 50 0 empty empty empty 0 -6 0 8 -262144 -1
-1;
#X obj 308 151 sel 0 1;
#X obj 99 402 *~;
#X obj 157 379 lop~ 1;
#X msg 279 198 0;
#X msg 314 198 1;
#X obj 307 128 random 3;
#X obj 98 437 *~;
#X obj 99 380 *~ 0.1;
#X obj 98 468 outlet~;
#X obj 246 381 inlet;
#X connect 0 0 1 0;
#X connect 0 0 15 0;
#X connect 1 0 2 0;
#X connect 2 0 3 0;
#X connect 3 0 4 0;
#X connect 4 0 7 0;
#X connect 5 0 11 0;
#X connect 5 0 11 1;
#X connect 6 0 8 1;
#X connect 7 0 9 0;
#X connect 8 0 22 0;
#X connect 9 0 10 0;
#X connect 10 0 33 0;
#X connect 11 0 8 0;
#X connect 12 0 20 0;
#X connect 13 0 12 0;
#X connect 14 0 16 0;
#X connect 14 0 17 0;
#X connect 15 0 14 0;
#X connect 16 0 13 0;
#X connect 17 0 18 0;
#X connect 18 0 19 0;
#X connect 19 0 21 0;
#X connect 20 0 5 0;
#X connect 20 0 5 1;
#X connect 21 0 6 0;
#X connect 21 0 6 1;
#X connect 22 0 7 1;
#X connect 23 0 31 0;
#X connect 24 0 23 0;
#X connect 25 0 23 0;
#X connect 26 0 29 0;
#X connect 26 1 30 0;
#X connect 27 0 32 0;
#X connect 28 0 27 1;
#X connect 29 0 28 0;
#X connect 30 0 28 0;
#X connect 31 0 26 0;
#X connect 32 0 34 0;
#X connect 33 0 27 0;
#X connect 35 0 32 1;
#X restore 477 53 pd circada1;
#X obj 350 137 tgl 15 1 empty empty Mosquito 0 -6 0 8 -262144 -1 -1
0 1;
#X obj 350 37 tgl 15 1 empty empty Fly 0 -6 0 8 -262144 -1 -1 0 1;
#X obj 350 87 tgl 15 1 empty empty Bee 0 -6 0 8 -262144 -1 -1 0 1;
#X obj 119 117 tgl 15 1 empty empty Bull_Cricket 0 -6 0 8 -262144 -1
-1 0 1;
#X obj 117 144 tgl 15 1 empty empty Japanese_Cricket 0 -6 0 8 -262144
-1 -1 0 1;
#X obj 288 90 tgl 15 1 empty empty Flutter 0 -6 0 8 -262144 -1 -1 0
1;
#X obj 118 33 tgl 15 1 empty empty Cricket1 0 -6 0 8 -262144 -1 -1
0 1;
#X obj 118 61 tgl 15 1 empty empty Cricket2 0 -6 0 8 -262144 -1 -1
0 1;
#X obj 119 89 tgl 15 1 empty empty Criket3 0 -6 0 8 -262144 -1 -1 0
1;
#X obj 288 37 tgl 15 1 empty empty Rattler 0 -6 0 8 -262144 -1 -1 0
1;
#X obj 289 137 tgl 15 1 empty empty Chirper 0 -6 0 8 -262144 -1 -1
0 1;
#X obj 206 138 tgl 15 1 empty empty Frog_Resonance 0 -6 0 8 -262144
-1 -1 0 1;
#X obj 406 87 tgl 15 1 empty empty Critters2 0 -6 0 8 -262144 -1 -1
1 1;
#X obj 405 36 tgl 15 1 empty empty Critters 0 -6 0 8 -262144 -1 -1
0 1;
#X obj 204 36 tgl 15 1 empty empty Frog1 0 -6 0 8 -262144 -1 -1 1 1
;
#X obj 205 89 tgl 15 1 empty empty Frog2 0 -6 0 8 -262144 -1 -1 0 1
;
#X obj 477 33 tgl 15 1 empty empty Circada1 0 -6 0 8 -262144 -1 -1
0 1;
#N canvas 0 23 548 524 circada2 0;
#X obj 187 27 noise~;
#X obj 139 106 +~ 1;
#X obj 224 125 +~ 1;
#X obj 224 83 lop~ 5;
#X obj 224 62 lop~ 5;
#X obj 139 169 hip~ 12000;
#X obj 139 190 hip~ 12000;
#X obj 139 148 phasor~;
#X obj 139 127 *~ -120;
#X obj 224 167 osc~;
#X obj 224 104 *~ 0;
#X obj 224 188 clip~ 0 1;
#X obj 150 223 bp~ 5000 30;
#X obj 234 223 bp~ 6000 30;
#X obj 223 248 bp~ 8000 30;
#X obj 139 248 bp~ 7000 30;
#X obj 138 309 *~;
#X obj 138 330 bp~ 6000 5;
#X obj 224 146 *~ -12;
#X obj 139 64 bp~ 120 40;
#X obj 139 85 *~ 190;
#X obj 138 406 *~;
#X obj 138 359 *~;
#X obj 222 329 lop~ 1;
#X obj 381 54 loadbang;
#X obj 448 54 bng 15 250 50 0 empty empty empty 0 -6 0 8 -262144 -1
-1;
#X obj 381 127 sel 0 1;
#X msg 352 174 0;
#X msg 387 174 1;
#X obj 380 104 random 4;
#X obj 380 79 metro 1000;
#X obj 138 288 *~ 0.7;
#X obj 138 450 outlet~;
#X obj 154 384 inlet;
#X connect 0 0 4 0;
#X connect 0 0 19 0;
#X connect 1 0 8 0;
#X connect 2 0 18 0;
#X connect 3 0 10 0;
#X connect 4 0 3 0;
#X connect 5 0 6 0;
#X connect 6 0 12 0;
#X connect 6 0 13 0;
#X connect 6 0 14 0;
#X connect 6 0 15 0;
#X connect 7 0 5 0;
#X connect 8 0 7 0;
#X connect 9 0 11 0;
#X connect 10 0 2 0;
#X connect 11 0 16 1;
#X connect 12 0 31 0;
#X connect 13 0 31 0;
#X connect 14 0 31 0;
#X connect 15 0 31 0;
#X connect 16 0 17 0;
#X connect 17 0 22 0;
#X connect 18 0 9 0;
#X connect 19 0 20 0;
#X connect 20 0 1 0;
#X connect 21 0 32 0;
#X connect 22 0 21 0;
#X connect 23 0 22 1;
#X connect 24 0 30 0;
#X connect 25 0 30 0;
#X connect 26 0 27 0;
#X connect 26 1 28 0;
#X connect 27 0 23 0;
#X connect 28 0 23 0;
#X connect 29 0 26 0;
#X connect 30 0 29 0;
#X connect 31 0 16 0;
#X connect 33 0 21 1;
#X restore 479 105 pd circada2;
#X obj 479 84 tgl 15 1 empty empty Circada2 0 -6 0 8 -262144 -1 -1
0 1;
#N canvas 0 23 590 525 flutter 0;
#X obj 121 158 sig~ 1;
#X obj 121 190 /~;
#X obj 174 167 +~ 1;
#X obj 175 141 *~;
#X obj 175 90 osc~ 20;
#X obj 230 167 noise~;
#X obj 121 215 *~;
#X obj 230 189 hip~ 8000;
#X obj 175 112 *~ 14;
#X obj 320 68 noise~;
#X obj 322 159 clip~ 0 1;
#X obj 322 135 *~ 1e+09;
#X obj 121 309 *~;
#X obj 121 241 bp~ 10000 15;
#X obj 230 213 *~ 0.1;
#X obj 304 226 clip~ 0 1;
#X obj 305 251 *~;
#X obj 303 181 osc~ 0.3;
#X obj 321 90 lop~ 0.2;
#X obj 322 112 lop~ 0.2;
#X obj 121 342 *~ 0.2;
#X obj 303 203 *~ 3;
#X obj 122 389 *~;
#X obj 121 411 outlet~;
#X obj 138 364 inlet;
#X connect 0 0 1 0;
#X connect 1 0 6 0;
#X connect 2 0 1 1;
#X connect 3 0 2 0;
#X connect 4 0 8 0;
#X connect 5 0 7 0;
#X connect 6 0 13 0;
#X connect 7 0 6 1;
#X connect 7 0 14 0;
#X connect 8 0 3 0;
#X connect 8 0 3 1;
#X connect 9 0 18 0;
#X connect 10 0 16 1;
#X connect 11 0 10 0;
#X connect 12 0 20 0;
#X connect 13 0 12 0;
#X connect 14 0 13 0;
#X connect 15 0 16 0;
#X connect 16 0 12 1;
#X connect 17 0 21 0;
#X connect 18 0 19 0;
#X connect 19 0 11 0;
#X connect 20 0 22 0;
#X connect 21 0 15 0;
#X connect 22 0 23 0;
#X connect 24 0 22 1;
#X restore 271 110 pd flutter;
#X obj 558 43 cnv 15 400 180 empty empty empty 20 12 0 14 -233017 -66577
0;
#X text 568 86 de berenger.recoules et ales.cerny;
#X text 587 107 "pdLive! is a set of patches that I took hereby and
re-aranged to build an environnement to use pd as a live instrument
\, mixer \, looper \, effect ... sufitiently friendly. The environnement
is develloped so that every loop recording and some effects can be
synched to a Master metronome making things much more easy.";
#X text 565 46 Trouvé dans pdLive!-v2.4.zip;
#X text 587 187 "Thanks to the pd community for sharing their patchs
and thus making this project possible.";
#X text 567 59 pdLive/Factory/Gen_Noise_ManyInsects.pd;
#X obj 101 159 cnv 4 10 4 empty empty empty 20 12 0 14 -1 -66577 0
;
#X obj 171 250 *~ 10;
#X obj 171 284 outlet~;
#X text 126 346 J'ai conservé les niveaux sonores relatifs des 18 animaux.
;
#X text 125 358 et tout amplifié...;
#X text 610 240 Assemblage de patches de Andy Farnell par Berenger
Recoules;
#X obj 903 267 cnv 15 52 22 empty empty empty 20 12 0 14 -24198 -66577
0;
#N canvas 353 174 321 152 ?... 0;
#X obj 8 84 cnv 15 300 56 empty empty empty 20 12 0 14 -224896 -66577
0;
#X obj 8 7 cnv 18 300 70 empty empty ARGOPdMiniModules 3 10 1 14 -4033
-1 1.04858e+06;
#X obj 31 27 cnv 10 10 10 empty empty Gerard 0 5 1 11 -4033 -1 1.04858e+06
;
#X obj 69 27 cnv 10 10 10 empty empty Paresys 0 5 1 11 -4033 -1 1.04858e+06
;
#X obj 12 40 pddp/pddplink http://gerard.paresys.free.fr/ARGOPd/;
#X obj 13 121 pddp/pddplink http://puredata.info/downloads/pd-extended
;
#X obj 13 97 pddp/pddplink http://puredata.info/downloads/pure-data
;
#X text 13 85 Construit sous / Build under Pd-0.49...;
#X text 12 109 or Pd 0.43.4-extended;
#X obj 12 53 pddp/pddplink https://paresys.pagesperso-orange.fr/ARGOPd/
;
#X restore 906 270 pd ?...;
#X text 533 21 31 8 2019;
#X obj 611 254 pddp/pddplink http://aspress.co.uk/sd/practical27.html
;
#X obj 568 73 pddp/pddplink http://code.google.com/p/pdlive/;
#X obj 431 250 *~ 10;
#X obj 431 284 outlet~;
#X obj 519 159 cnv 4 10 4 empty empty empty 20 12 0 14 -1 -66577 0
;
#X text 95 318 I kept the relative sound levels of the 18 animals.
;
#X text 97 332 And everything amplified ..;
#X obj 450 143 cnv 15 15 15 empty empty 18Animals. 0 8 1 14 -262144
-66577 0;
#X connect 0 0 43 0;
#X connect 1 0 53 0;
#X connect 2 0 43 0;
#X connect 3 0 53 0;
#X connect 4 0 43 0;
#X connect 5 0 43 0;
#X connect 6 0 43 0;
#X connect 7 0 43 0;
#X connect 8 0 43 0;
#X connect 9 0 43 0;
#X connect 10 0 43 0;
#X connect 11 0 43 0;
#X connect 12 0 53 0;
#X connect 13 0 53 0;
#X connect 14 0 53 0;
#X connect 15 0 53 0;
#X connect 16 0 1 0;
#X connect 17 0 14 0;
#X connect 18 0 13 0;
#X connect 19 0 11 0;
#X connect 20 0 10 0;
#X connect 21 0 35 0;
#X connect 22 0 7 0;
#X connect 23 0 8 0;
#X connect 24 0 9 0;
#X connect 25 0 2 0;
#X connect 26 0 0 0;
#X connect 27 0 6 0;
#X connect 28 0 3 0;
#X connect 29 0 12 0;
#X connect 30 0 4 0;
#X connect 31 0 5 0;
#X connect 32 0 15 0;
#X connect 33 0 53 0;
#X connect 34 0 33 0;
#X connect 35 0 43 0;
#X connect 43 0 44 0;
#X connect 53 0 54 0;
#X coords 0 1 100 -1 430 144 1 100 20;
#X restore 20 88 graph;
#X text 30 446 Assemblage de patches de Andy Farnell par Berenger Recoules
;
#X obj 204 418 dac~ 1 2;
#N canvas 175 68 381 386 ARGO 0;
#X obj 101 101 cnv 20 116 34 empty ColorAmpli empty 20 12 0 14 -261299
-1 1.04858e+06;
#X obj 85 353 outlet~;
#X obj 157 104 cnv 10 20 10 empty ColorAmpli Ampli. 1 5 1 14 -261299
-1 1.04858e+06;
#X obj 85 43 inlet~;
#X obj 85 330 *~;
#X obj 115 118 hsl 101 12 -80 20 0 1 \$0-A ColorAmpli 0dB 0 7 1 9 -261299
-1 -1 8000 0;
#X obj 101 101 cnv 4 10 4 empty empty empty 20 12 0 14 -1 -66577 0
;
#X obj 101 131 cnv 4 10 4 empty empty empty 20 12 0 14 -1 -66577 0
;
#X obj 207 101 cnv 4 10 4 empty empty empty 20 12 0 14 -1 -66577 0
;
#X obj 207 131 cnv 4 10 4 empty empty empty 20 12 0 14 -1 -66577 0
;
#X obj 222 352 outlet~;
#X obj 222 42 inlet~;
#X obj 222 329 *~;
#X msg -42 138 label \$1;
#X text 148 194 -> 0.0001..10 = -80dB..20dB;
#X obj 142 175 expr (pow(10 \, $f1 / 20));
#X obj 142 215 sel 0.0001;
#X msg 100 244 0;
#X obj 100 118 tgl 12 1 \$0-A \$0-B Mute 2 -5 1 9 -261299 -1 -1 0 1
;
#X obj 99 146 select 0 1;
#X obj 140 295 line~;
#X obj 140 275 pack 0 10;
#X msg 123 74 set 0;
#X obj -42 92 cyclone/sprintf %ddB;
#X text 228 110 6 3 2016;
#X obj -42 115 cyclone/tosymbol;
#X obj 273 344 cnv 15 42 25 empty empty empty 20 12 0 14 -24198 -66577
0;
#N canvas 336 174 309 137 ?. 0;
#X obj 3 83 cnv 15 300 46 empty empty empty 20 12 0 14 -224896 -66577
0;
#X obj 3 6 cnv 18 300 70 empty empty ARGOPdMiniModules 3 10 1 14 -4033
-1 1.04858e+06;
#X obj 26 26 cnv 10 10 10 empty empty Gerard 0 5 1 11 -4033 -1 1.04858e+06
;
#X obj 64 26 cnv 10 10 10 empty empty Paresys 0 5 1 11 -4033 -1 1.04858e+06
;
#X obj 7 37 pddp/pddplink http://gerard.paresys.free.fr/ARGOPd/;
#X text 8 85 Construit sous / Build under Pd 0.43.4-extended;
#X obj 8 111 pddp/pddplink http://puredata.info/downloads/pd-extended
;
#X obj 7 50 pddp/pddplink http://paresys.pagesperso-orange.fr/ARGOPd/
;
#X text 7 98 or Pd-0.46-7 + deken;
#X restore 277 348 pd ?.;
#X connect 3 0 4 0;
#X connect 4 0 1 0;
#X connect 5 0 15 0;
#X connect 5 0 23 0;
#X connect 11 0 12 0;
#X connect 12 0 10 0;
#X connect 13 0 5 0;
#X connect 15 0 16 0;
#X connect 16 0 17 0;
#X connect 16 1 21 0;
#X connect 16 1 22 0;
#X connect 17 0 21 0;
#X connect 17 0 25 0;
#X connect 18 0 19 0;
#X connect 19 0 5 0;
#X connect 19 1 17 0;
#X connect 20 0 12 1;
#X connect 20 0 4 1;
#X connect 21 0 20 0;
#X connect 22 0 18 0;
#X connect 23 0 25 0;
#X connect 25 0 13 0;
#X coords 0 -1 1 1 118 36 1 100 100;
#X restore 175 255 pd ARGO;
#N canvas 446 64 251 267 ARGO 0;
#X obj 101 104 cnv 30 49 130 empty ColorAmpli empty 20 12 0 14 -1 -258113
0;
#X obj 102 110 vu 8 120 \$0-B empty 0 0 1 11 -1 -4034 0 0;
#X obj 49 35 inlet~;
#X obj 22 108 cnv 15 60 30 empty empty empty 20 12 0 14 -24198 -66577
0;
#N canvas 300 65 442 264 Help 0;
#X obj 12 48 cnv 15 400 150 empty empty empty 20 12 0 14 -233017 -66577
0;
#X text 16 50 Citation;
#X text 28 67 peakamp~ tracks and outputs the absolute value of the
peak amplitude of the incoming signal. It outputs when banged or using
its own internal clock. The peak value is reset each time peakamp~
outputs a value.;
#X text 29 123 cyclone library;
#X text 28 135 http://suita.chopin.edu.pl/~czaja/miXed/externs/cyclone.html
;
#X text 29 155 Voir doc Max/MSP MSP46ReferenceManual.pdf;
#X text 18 14 MM-Vumetre;
#X restore 29 114 pd Help;
#N canvas 541 112 317 265 VuMetre 0;
#X obj 48 19 inlet~;
#X obj 41 54 *~;
#X obj -25 132 snapshot~;
#X obj -25 155 sqrt;
#X obj -25 100 lop~ 10;
#X obj -25 179 rmstodb;
#X obj -88 19 loadbang;
#X obj -25 202 - 100;
#X obj 58 156 sqrt;
#X obj 58 180 rmstodb;
#X obj 58 203 - 100;
#X obj -89 102 metro 200;
#X obj -28 19 r SendFluid;
#X obj 58 102 cyclone/peakamp~ 1000;
#X obj -25 228 outlet;
#X obj 58 227 outlet;
#X connect 0 0 1 0;
#X connect 0 0 1 1;
#X connect 1 0 4 0;
#X connect 1 0 13 0;
#X connect 2 0 3 0;
#X connect 3 0 5 0;
#X connect 4 0 2 0;
#X connect 5 0 7 0;
#X connect 6 0 11 0;
#X connect 7 0 14 0;
#X connect 8 0 9 0;
#X connect 9 0 10 0;
#X connect 10 0 15 0;
#X connect 11 0 2 0;
#X connect 12 0 11 1;
#X connect 13 0 8 0;
#X restore 49 63 pd VuMetre;
#X obj 172 211 cnv 15 42 25 empty empty empty 20 12 0 14 -24198 -66577
0;
#N canvas 336 174 309 137 ?. 0;
#X obj 3 83 cnv 15 300 46 empty empty empty 20 12 0 14 -224896 -66577
0;
#X obj 3 6 cnv 18 300 70 empty empty ARGOPdMiniModules 3 10 1 14 -4033
-1 1.04858e+06;
#X obj 26 26 cnv 10 10 10 empty empty Gerard 0 5 1 11 -4033 -1 1.04858e+06
;
#X obj 64 26 cnv 10 10 10 empty empty Paresys 0 5 1 11 -4033 -1 1.04858e+06
;
#X obj 7 37 pddp/pddplink http://gerard.paresys.free.fr/ARGOPd/;
#X text 8 85 Construit sous / Build under Pd 0.43.4-extended;
#X obj 8 111 pddp/pddplink http://puredata.info/downloads/pd-extended
;
#X obj 7 50 pddp/pddplink http://paresys.pagesperso-orange.fr/ARGOPd/
;
#X text 7 98 or Pd-0.46-7 + deken;
#X restore 176 215 pd ?.;
#X obj 113 110 vu 8 120 \$0-B empty 0 0 1 11 -1 -4034 1 0;
#X obj 126 35 inlet~;
#N canvas 541 112 317 265 VuMetre 0;
#X obj 48 19 inlet~;
#X obj 41 54 *~;
#X obj -25 132 snapshot~;
#X obj -25 155 sqrt;
#X obj -25 100 lop~ 10;
#X obj -25 179 rmstodb;
#X obj -88 19 loadbang;
#X obj -25 202 - 100;
#X obj 58 156 sqrt;
#X obj 58 180 rmstodb;
#X obj 58 203 - 100;
#X obj -89 102 metro 200;
#X obj -28 19 r SendFluid;
#X obj 58 102 cyclone/peakamp~ 1000;
#X obj -25 228 outlet;
#X obj 58 227 outlet;
#X connect 0 0 1 0;
#X connect 0 0 1 1;
#X connect 1 0 4 0;
#X connect 1 0 13 0;
#X connect 2 0 3 0;
#X connect 3 0 5 0;
#X connect 4 0 2 0;
#X connect 5 0 7 0;
#X connect 6 0 11 0;
#X connect 7 0 14 0;
#X connect 8 0 9 0;
#X connect 9 0 10 0;
#X connect 10 0 15 0;
#X connect 11 0 2 0;
#X connect 12 0 11 1;
#X connect 13 0 8 0;
#X restore 126 63 pd VuMetre;
#X text 153 87 3 3 2019;
#X connect 2 0 5 0;
#X connect 5 0 1 0;
#X connect 5 1 1 1;
#X connect 9 0 10 0;
#X connect 10 0 8 0;
#X connect 10 1 8 1;
#X coords 0 -1 1 1 51 135 2 100 100;
#X restore 298 300 pd ARGO;
#X obj 358 414 cnv 15 52 22 empty empty empty 20 12 0 14 -24198 -66577
0;
#N canvas 353 174 321 152 ?... 0;
#X obj 8 84 cnv 15 300 56 empty empty empty 20 12 0 14 -224896 -66577
0;
#X obj 8 7 cnv 18 300 70 empty empty ARGOPdMiniModules 3 10 1 14 -4033
-1 1.04858e+06;
#X obj 31 27 cnv 10 10 10 empty empty Gerard 0 5 1 11 -4033 -1 1.04858e+06
;
#X obj 69 27 cnv 10 10 10 empty empty Paresys 0 5 1 11 -4033 -1 1.04858e+06
;
#X obj 12 40 pddp/pddplink http://gerard.paresys.free.fr/ARGOPd/;
#X obj 13 121 pddp/pddplink http://puredata.info/downloads/pd-extended
;
#X obj 13 97 pddp/pddplink http://puredata.info/downloads/pure-data
;
#X text 13 85 Construit sous / Build under Pd-0.49...;
#X text 12 109 or Pd 0.43.4-extended;
#X obj 12 53 pddp/pddplink https://paresys.pagesperso-orange.fr/ARGOPd/
;
#X restore 361 417 pd ?...;
#X text 69 266 Niveau general ->;
#X text 75 276 General level ->;
#X obj 222 61 switch~;
#N canvas 608 166 228 173 ARGOnOff 0;
#X obj 100 100 tgl 18 1 \$0-SendOnOff \$0-ReceiveOnOff On/Off 20 11
1 14 -4033 -1 -1 1 1;
#X obj 99 10 loadbang;
#X msg 99 33 \; pd dsp 1;
#X obj 100 129 outlet;
#X text -50 99 Audio On/Off du patch ->;
#X text -22 45 Audio General On ->;
#X text 107 82 17 3 2010;
#X connect 0 0 3 0;
#X connect 1 0 2 0;
#X coords 0 -1 1 1 65 18 2 100 100;
#X restore 222 43 pd ARGOnOff;
#X text 227 27 V;
#X text 227 20 |;
#X text 215 9 On/Off Patch;
#X text 245 21 (Audio);
#X obj 30 463 pddp/pddplink http://aspress.co.uk/sd/practical27.html
;
#X connect 2 0 5 0;
#X connect 2 1 5 1;
#X connect 5 0 4 0;
#X connect 5 0 6 0;
#X connect 5 1 4 1;
#X connect 5 1 6 1;
#X connect 12 0 11 0;
