#N canvas 677 35 531 401 10;
#X declare -stdlib Gem;
#X obj 7 8 cnv 15 15 15 empty empty ExMM32d-GEMVideo-Rotate.pd 0 8
1 14 -262144 -1 0;
#X text 28 25 Connecter une camera à l'ordinateur en USB \, Firewire..
;
#X text 28 38 Connect a camera to the computer via USB \, Firewire
..;
#X text 18 71 On/Off camera ->;
#X obj 375 8 declare -stdlib Gem;
#N canvas 699 162 402 388 ARGO 0;
#X obj 101 101 cnv 10 144 39 empty ColorForm empty 20 12 0 14 -228856
-1 1.04858e+06;
#X obj 153 104 cnv 10 20 10 empty ColorForm GEM-Circle. 1 5 1 14 -228856
-1 1.04858e+06;
#X obj 101 136 cnv 4 10 4 empty empty empty 20 12 0 14 -128992 -66577
0;
#X obj 82 326 outlet;
#X obj 101 101 cnv 4 10 4 empty empty empty 20 12 0 14 -128992 -66577
0;
#X obj 179 117 nbx 2 12 1 99 0 1 \$0-A ColorGEM empty 0 0 1 9 -262144
-1 -1 2 256;
#X msg 21 262 width \$1;
#X msg 104 234 quality \$1;
#X obj -2 117 == 0;
#X obj -2 28 r SendMode;
#X obj -2 97 nbx 1 14 -1e+37 1e+37 0 1 empty empty empty 0 -6 0 10
-262144 -1 -1 0 256;
#X msg 185 261 draw line;
#X msg 255 261 draw fill;
#X obj 235 101 cnv 4 10 4 empty empty empty 20 12 0 14 -1 -66577 0
;
#X obj 225 28 inlet~;
#X obj 82 28 inlet;
#X text 220 72 Control;
#X text 228 84 Size;
#X text 87 142 gemlist;
#X obj 201 117 tgl 12 1 \$0-A ColorGEM Line 15 6 1 9 -262144 -1 -1
0 1;
#X obj 178 235 sel 1;
#X text 85 81 gemlist;
#X obj 83 190 t a b;
#X obj 115 129 hsl 129 12 0 1 0 1 \$0-A \$0-B empty 0 7 1 9 -262144
-1 -1 5100 0;
#X obj 115 129 hsl 129 12 0 1 0 0 \$0-A \$0-B 3.9 0 8 1 12 -228856
-1 -1 5100 0;
#X text 250 138 2 HSLIDER superposés;
#X text 250 127 ATTENTION;
#N canvas 445 173 275 255 GEMSize~ 0;
#X obj 25 43 +~;
#X obj 143 203 outlet;
#X obj 143 10 inlet;
#X obj 25 12 inlet~;
#X msg 143 158 label \$1;
#X obj 143 68 int;
#X obj 143 44 * 100;
#X obj 143 94 / 10;
#X obj -15 12 inlet;
#X obj 25 77 snapshot~;
#X obj 25 99 change;
#X obj 25 158 clip 0 100;
#X obj 25 135 * 10;
#X obj 25 202 outlet;
#X msg 94 158 set \$1;
#X obj 143 135 cyclone/tosymbol;
#X connect 0 0 9 0;
#X connect 2 0 0 1;
#X connect 2 0 6 0;
#X connect 3 0 0 0;
#X connect 4 0 1 0;
#X connect 5 0 7 0;
#X connect 6 0 5 0;
#X connect 7 0 15 0;
#X connect 8 0 9 0;
#X connect 9 0 10 0;
#X connect 10 0 12 0;
#X connect 10 0 14 0;
#X connect 11 0 13 0;
#X connect 12 0 11 0;
#X connect 14 0 1 0;
#X connect 15 0 4 0;
#X restore 324 261 pd GEMSize~;
#X obj 273 60 cnv 15 60 30 empty empty empty 20 12 0 14 -24198 -66577
0;
#N canvas 358 215 424 266 Help 0;
#X obj 9 -83 cnv 15 400 200 empty empty empty 20 12 0 14 -233017 -66577
0;
#X text 12 -84 Citation;
#X text 25 -63 The circle object renders a circle flat disc at the
current position with current color. The look of the circle can be
changed with the draw message \, its size can be changed via the second
inlet.;
#X text 10 122 SendMode est envoyé par ARGOGeneral (Toggle "Compatible")
;
#X text 10 137 Utile avec certaines cartes video de certains PC sous
Windows...;
#X restore 280 66 pd Help;
#X obj 100 118 tgl 12 1 \$0-A ColorGEM Quality 15 6 1 9 -262144 -1
-1 1 1;
#X obj 100 106 tgl 12 1 \$0-A ColorGEM On/Off 15 6 1 9 -262144 -1 -1
1 1;
#X obj 83 164 spigot;
#X msg -2 142 rectangle \$1;
#X obj 83 261 pix_texture;
#X text 153 82 27 2 2016;
#X obj 335 315 cnv 15 54 25 empty empty empty 20 12 0 14 -24198 -66577
0;
#N canvas 336 174 313 131 ???? 0;
#X obj 3 83 cnv 15 300 38 empty empty empty 20 12 0 14 -224896 -66577
0;
#X obj 3 6 cnv 18 300 70 empty empty ARGOPdMiniModules 3 10 1 14 -4033
-1 1.04858e+06;
#X obj 26 26 cnv 10 10 10 empty empty Gerard 0 5 1 11 -4033 -1 1.04858e+06
;
#X obj 64 26 cnv 10 10 10 empty empty Paresys 0 5 1 11 -4033 -1 1.04858e+06
;
#X obj 7 37 pddp/pddplink http://gerard.paresys.free.fr/ARGOPd/;
#X text 8 85 Construit sous / Build under Pd 0.43.4-extended;
#X obj 17 100 pddp/pddplink http://puredata.info/downloads/pd-extended
;
#X obj 7 50 pddp/pddplink http://paresys.pagesperso-orange.fr/ARGOPd/
;
#X restore 339 319 pd ????;
#X obj 83 303 circle;
#X connect 5 0 6 0;
#X connect 6 0 38 0;
#X connect 7 0 34 0;
#X connect 8 0 33 0;
#X connect 9 0 10 0;
#X connect 10 0 8 0;
#X connect 11 0 38 0;
#X connect 12 0 38 0;
#X connect 14 0 27 1;
#X connect 15 0 32 0;
#X connect 19 0 20 0;
#X connect 20 0 11 0;
#X connect 20 1 12 0;
#X connect 22 0 34 0;
#X connect 22 1 27 0;
#X connect 23 0 27 2;
#X connect 27 0 38 1;
#X connect 27 1 24 0;
#X connect 30 0 7 0;
#X connect 31 0 32 1;
#X connect 31 0 34 0;
#X connect 32 0 22 0;
#X connect 33 0 34 0;
#X connect 34 0 38 0;
#X connect 38 0 3 0;
#X coords 0 -1 1 1 146 41 1 100 100;
#X restore 119 332 pd ARGO;
#N canvas 346 164 402 392 ARGO 0;
#X obj 101 101 cnv 10 144 54 empty ColorForm empty 20 12 0 14 -228856
-1 1.04858e+06;
#X obj 101 101 cnv 4 10 4 empty empty empty 20 12 0 14 -128992 -66577
0;
#X obj 151 108 cnv 10 20 10 empty ColorForm GEM-Rotation. 1 5 1 14
-228856 -1 1.04858e+06;
#X text 71 59 gemlist;
#X obj 101 151 cnv 4 10 4 empty empty empty 20 12 0 14 -128992 -66577
0;
#X text 70 359 gemlist;
#X obj 235 101 cnv 4 10 4 empty empty empty 20 12 0 14 -1 -66577 0
;
#X obj 115 120 hsl 129 12 0 1 0 1 \$0-A \$0-B empty 0 7 1 9 -262144
-1 -1 6400 0;
#X obj 115 132 hsl 129 12 0 1 0 1 \$0-A \$0-B empty 0 7 1 9 -262144
-1 -1 6400 0;
#X obj 115 144 hsl 129 12 0 1 0 1 \$0-A \$0-B empty 0 8 1 12 -262144
-1 -1 6400 0;
#X obj 249 74 inlet~;
#X obj 143 101 cnv 4 10 4 empty empty empty 20 12 0 14 -1 -66577 0
;
#X obj 191 101 cnv 4 10 4 empty empty empty 20 12 0 14 -1 -66577 0
;
#X obj 131 74 inlet~;
#X obj 183 74 inlet~;
#X text 131 47 Control;
#X text 187 47 Control;
#X text 246 47 Control;
#X text 141 59 X;
#X text 191 59 Y;
#X text 254 59 Z;
#X obj 75 343 outlet;
#X obj 75 323 rotateXYZ 0 0 0;
#X obj 77 74 inlet;
#X obj 249 230 snapshot~;
#X obj 249 252 change;
#X obj 176 230 snapshot~;
#X obj 176 252 change;
#X obj 104 230 snapshot~;
#X obj 104 252 change;
#X obj 18 166 t a b b b;
#X obj 115 120 hsl 129 12 0 1 0 0 \$0-A \$0-B 0 0 8 1 12 -228856 -1
-1 6400 0;
#X obj 104 276 * 360;
#X obj 104 297 - 180;
#N canvas 795 278 241 330 GEMRot~ 0;
#X msg 124 150 set \$1;
#X obj 15 51 +~;
#X obj 89 300 outlet;
#X obj 102 88 snapshot~;
#X obj 125 130 change;
#X obj 60 10 inlet;
#X obj 15 10 inlet~;
#X obj 17 299 outlet~;
#X obj 100 11 loadbang;
#X obj 101 51 metro 200;
#X obj 158 12 r SendFluid;
#X msg 60 189 label \$1;
#X obj 59 144 int;
#X obj 57 87 * 360;
#X obj 57 113 - 180;
#X obj 60 167 cyclone/tosymbol;
#X connect 0 0 2 0;
#X connect 1 0 3 0;
#X connect 1 0 7 0;
#X connect 3 0 4 0;
#X connect 4 0 0 0;
#X connect 5 0 1 1;
#X connect 5 0 13 0;
#X connect 6 0 1 0;
#X connect 8 0 9 0;
#X connect 9 0 3 0;
#X connect 10 0 9 1;
#X connect 11 0 2 0;
#X connect 12 0 15 0;
#X connect 13 0 14 0;
#X connect 14 0 12 0;
#X connect 15 0 11 0;
#X restore 104 203 pd GEMRot~;
#N canvas 795 278 241 330 GEMRot~ 0;
#X msg 124 150 set \$1;
#X obj 15 51 +~;
#X obj 89 300 outlet;
#X obj 102 88 snapshot~;
#X obj 125 130 change;
#X obj 60 10 inlet;
#X obj 15 10 inlet~;
#X obj 17 299 outlet~;
#X obj 100 11 loadbang;
#X obj 101 51 metro 200;
#X obj 158 12 r SendFluid;
#X msg 60 189 label \$1;
#X obj 59 144 int;
#X obj 57 87 * 360;
#X obj 57 113 - 180;
#X obj 60 167 cyclone/tosymbol;
#X connect 0 0 2 0;
#X connect 1 0 3 0;
#X connect 1 0 7 0;
#X connect 3 0 4 0;
#X connect 4 0 0 0;
#X connect 5 0 1 1;
#X connect 5 0 13 0;
#X connect 6 0 1 0;
#X connect 8 0 9 0;
#X connect 9 0 3 0;
#X connect 10 0 9 1;
#X connect 11 0 2 0;
#X connect 12 0 15 0;
#X connect 13 0 14 0;
#X connect 14 0 12 0;
#X connect 15 0 11 0;
#X restore 176 203 pd GEMRot~;
#X obj 115 132 hsl 129 12 0 1 0 0 \$0-A \$0-B 0 0 8 1 12 -228856 -1
-1 6400 0;
#X obj 176 276 * 360;
#X obj 176 297 - 180;
#X obj 249 276 * 360;
#X obj 249 297 - 180;
#N canvas 795 278 241 330 GEMRot~ 0;
#X msg 124 150 set \$1;
#X obj 15 51 +~;
#X obj 89 300 outlet;
#X obj 102 88 snapshot~;
#X obj 125 130 change;
#X obj 60 10 inlet;
#X obj 15 10 inlet~;
#X obj 17 299 outlet~;
#X obj 100 11 loadbang;
#X obj 101 51 metro 200;
#X obj 158 12 r SendFluid;
#X msg 60 189 label \$1;
#X obj 59 144 int;
#X obj 57 87 * 360;
#X obj 57 113 - 180;
#X obj 60 167 cyclone/tosymbol;
#X connect 0 0 2 0;
#X connect 1 0 3 0;
#X connect 1 0 7 0;
#X connect 3 0 4 0;
#X connect 4 0 0 0;
#X connect 5 0 1 1;
#X connect 5 0 13 0;
#X connect 6 0 1 0;
#X connect 8 0 9 0;
#X connect 9 0 3 0;
#X connect 10 0 9 1;
#X connect 11 0 2 0;
#X connect 12 0 15 0;
#X connect 13 0 14 0;
#X connect 14 0 12 0;
#X connect 15 0 11 0;
#X restore 249 203 pd GEMRot~;
#X obj 115 144 hsl 129 12 0 1 0 0 \$0-A \$0-B 0 0 8 1 12 -228856 -1
-1 10767 0;
#X obj 102 120 cnv 5 5 5 empty ColorForm X 0 8 1 12 -228856 -1 1.04858e+06
;
#X obj 102 132 cnv 5 5 5 empty ColorForm Y 0 8 1 12 -228856 -1 1.04858e+06
;
#X text 255 132 2 HSLIDER superposés;
#X text 255 121 ATTENTION;
#X obj 80 14 cnv 15 60 30 empty empty empty 20 12 0 14 -24198 -66577
0;
#N canvas 312 59 421 380 Help 0;
#X obj 7 215 cnv 15 400 150 empty empty empty 20 12 0 14 -258113 -66577
0;
#X text 10 218 - Erreur dans la fenêtre Pd:;
#X obj 6 7 cnv 15 400 200 empty empty empty 20 12 0 14 -233017 -66577
0;
#X text 9 6 Citation;
#X text 19 27 Description: rotation;
#X text 22 42 rotate accepts a gemList and changes the current transformation
matrix by the specified rotation;
#X text 19 76 the rotation around the X- \, Y- and Z-axis (in this
order) can be specified separately by arguments and changed via inlets.
;
#X restore 87 20 pd Help;
#X text 255 101 26 7 2108;
#X obj 322 335 cnv 15 42 25 empty empty empty 20 12 0 14 -24198 -66577
0;
#N canvas 336 174 309 137 ?. 0;
#X obj 3 83 cnv 15 300 46 empty empty empty 20 12 0 14 -224896 -66577
0;
#X obj 3 6 cnv 18 300 70 empty empty ARGOPdMiniModules 3 10 1 14 -4033
-1 1.04858e+06;
#X obj 26 26 cnv 10 10 10 empty empty Gerard 0 5 1 11 -4033 -1 1.04858e+06
;
#X obj 64 26 cnv 10 10 10 empty empty Paresys 0 5 1 11 -4033 -1 1.04858e+06
;
#X obj 7 37 pddp/pddplink http://gerard.paresys.free.fr/ARGOPd/;
#X text 8 85 Construit sous / Build under Pd 0.43.4-extended;
#X obj 8 111 pddp/pddplink http://puredata.info/downloads/pd-extended
;
#X obj 7 50 pddp/pddplink http://paresys.pagesperso-orange.fr/ARGOPd/
;
#X text 7 98 or Pd-0.46-7 + deken;
#X restore 326 339 pd ?.;
#X connect 7 0 34 1;
#X connect 8 0 35 1;
#X connect 9 0 41 1;
#X connect 10 0 41 0;
#X connect 13 0 34 0;
#X connect 14 0 35 0;
#X connect 22 0 21 0;
#X connect 23 0 30 0;
#X connect 24 0 25 0;
#X connect 25 0 39 0;
#X connect 26 0 27 0;
#X connect 27 0 37 0;
#X connect 28 0 29 0;
#X connect 29 0 32 0;
#X connect 30 0 22 0;
#X connect 30 1 28 0;
#X connect 30 2 26 0;
#X connect 30 3 24 0;
#X connect 32 0 33 0;
#X connect 33 0 22 1;
#X connect 34 0 28 0;
#X connect 34 1 31 0;
#X connect 35 0 26 0;
#X connect 35 1 36 0;
#X connect 37 0 38 0;
#X connect 38 0 22 2;
#X connect 39 0 40 0;
#X connect 40 0 22 3;
#X connect 41 0 24 0;
#X connect 41 1 42 0;
#X coords 0 -1 1 1 146 56 1 100 100;
#X restore 119 267 pd ARGO;
#X obj 22 221 switch~;
#N canvas 713 198 257 230 ARGOnOff 0;
#X obj 100 106 tgl 18 1 \$0-SendOnOff \$0-ReceiveOnOff On/Off. 20 10
1 14 -4033 -1 -1 1 1;
#X obj 100 171 outlet;
#X text -52 106 Audio On/Off du patch ->;
#X obj 100 37 inlet;
#X obj 101 101 cnv 4 10 4 empty empty empty 20 12 0 14 -260097 -66577
0;
#X obj 101 125 cnv 4 10 4 empty empty empty 20 12 0 14 -260097 -66577
0;
#X obj 100 -25 loadbang;
#X msg 100 -2 \; pd dsp 1;
#X text -21 10 Audio General On ->;
#X text 130 83 14 3 2016;
#X connect 0 0 1 0;
#X connect 3 0 0 0;
#X connect 6 0 7 0;
#X coords 0 -1 1 1 65 30 2 100 100;
#X restore 22 191 pd ARGOnOff;
#X text 23 175 V;
#X text 23 168 |;
#X text 11 157 On/Off Patch;
#X text 41 169 (Audio);
#N canvas 397 68 469 375 ARGO 0;
#X obj 101 101 cnv 20 244 34 empty ColorTime Oscill-TriRectangle. 79
9 1 14 -208064 -1 1.04858e+06;
#X obj 110 341 outlet~;
#X obj 101 131 cnv 4 10 4 empty empty empty 20 12 0 14 -1 -66577 0
;
#X obj 101 101 cnv 4 10 4 empty empty empty 20 12 0 14 -1728 -66577
0;
#X obj 163 341 outlet~;
#X obj 335 131 cnv 4 10 4 empty empty empty 0 0 0 9 -1 -66577 0;
#X obj 92 154 phasor~;
#X obj 167 187 -~ 0.5;
#X obj 187 246 *~;
#X obj 268 292 +~ 0.125;
#X obj 217 341 outlet~;
#X obj 110 316 *~ 2;
#X obj 164 315 *~ -2;
#X obj 218 316 *~ 2;
#X obj 268 316 *~ 8;
#X obj 268 341 outlet~;
#X obj 256 131 cnv 4 10 4 empty empty empty 0 0 0 9 -1 -66577 0;
#X obj 177 131 cnv 4 10 4 empty empty empty 0 0 0 9 -1 -66577 0;
#X text 84 134 Ramp up;
#X text 155 135 Ramp down;
#X text 233 136 Rectangle;
#X text 313 136 Triangle;
#X obj 100 106 nbx 7 12 0 20000 0 1 \$0-A ColorTime Hz 60 7 1 9 -208064
-1 -1 0.0602885 256;
#X obj 87 26 inlet~;
#X obj 103 118 hsl 241 12 0 1 0 0 \$0-A ColorTime empty 0 7 1 9 -262144
-1 -1 2300 0;
#X obj 103 118 hsl 241 12 0 1 0 0 \$0-A ColorTime B-10 0 7 1 9 -208064
-1728 -1 2300 0;
#X obj 70 193 cnv 15 60 30 empty empty empty 20 12 0 14 -24198 -66577
0;
#N canvas 371 90 425 238 Help 0;
#X obj 8 85 cnv 15 400 100 empty empty empty 20 12 0 14 -233017 -66577
0;
#X text 12 87 Citation;
#X text 10 45 Sensibilitée de l'entrée de contrôle de la fréquence:
;
#X text 10 57 1 = 240 1/2 ton = 20 octaves;
#X text 21 103 The phasor~ object outputs a sawtooth signal...;
#X text 11 6 Oscillateur en forme de Rampes Rectangle Triangle;
#X text 11 23 Rampe = Dent de scie = Sawtooth;
#X restore 77 199 pd Help;
#X text 196 62 2 HSLIDER superposés;
#X text 220 51 ATTENTION;
#N canvas 686 258 344 337 Freq-v7-sig- 0;
#X obj 228 58 ftom;
#X obj 281 217 mtof;
#X obj 143 142 +~;
#X obj 11 172 snapshot~;
#X obj 11 194 change;
#X msg 11 219 set \$1;
#X obj 143 245 clip~ 0 20000;
#X obj 143 222 mtof~;
#X obj 143 274 outlet~;
#X obj 281 35 inlet;
#X obj 228 34 inlet;
#X obj 66 274 outlet;
#X obj 281 274 outlet;
#X text 63 292 Hslider;
#X obj 143 39 inlet~;
#X obj 10 38 loadbang;
#X obj 231 274 outlet;
#X obj 281 156 * 240;
#X obj 281 179 - 108;
#X obj 143 170 *~ 240;
#X obj 143 192 -~ 108;
#X obj 228 81 + 108;
#X obj 228 103 / 240;
#X obj 11 87 metro 200;
#X obj 66 38 r SendFluid;
#X text 72 303 Over;
#X text 283 292 Number;
#X text 224 17 Number;
#X text 230 291 Hslider;
#X text 232 302 Under;
#X text 283 5 Hslider;
#X text 288 16 Under;
#X msg 231 244 set \$1;
#N canvas 459 170 558 314 pitchb 0;
#X obj 77 119 mod 12;
#X obj 77 143 sel 0 1 2 3 4 5 6 7 8 9 10 11;
#X msg 253 178 A;
#X msg 307 178 B;
#X msg 199 178 G;
#X msg 10 178 C;
#X msg 64 178 D;
#X msg 118 178 E;
#X msg 145 178 F;
#X obj 211 9 inlet;
#X obj 384 123 div 12;
#X obj 211 87 t f f;
#X text 390 195 -> Numero de l'octave;
#X text 220 72 -> Numero MIDI de la note (69 = A3 = 440Hz);
#X msg 267 268 label \$1;
#X obj 267 291 outlet;
#X msg 37 178 Db;
#X msg 91 178 Eb;
#X msg 172 178 Gb;
#X msg 226 178 Ab;
#X msg 280 178 Bb;
#X text 376 86 (70 = A#3 = Bb3);
#X obj 267 246 symbol;
#X text 18 239 Impossible d'afficher # dans un label;
#X text 18 251 donc j'affiche b;
#X obj 211 59 int;
#X text 262 31 -> pour corriger certaines erreurs de calcul;
#X obj 211 33 + 120.1;
#X obj 384 152 - 12;
#X text 262 43 et le pb du passage a zero de mod 12;
#X obj 267 221 cyclone/sprintf %s%d;
#X connect 0 0 1 0;
#X connect 1 0 5 0;
#X connect 1 1 16 0;
#X connect 1 2 6 0;
#X connect 1 3 17 0;
#X connect 1 4 7 0;
#X connect 1 5 8 0;
#X connect 1 6 18 0;
#X connect 1 7 4 0;
#X connect 1 8 19 0;
#X connect 1 9 2 0;
#X connect 1 10 20 0;
#X connect 1 11 3 0;
#X connect 2 0 30 0;
#X connect 3 0 30 0;
#X connect 4 0 30 0;
#X connect 5 0 30 0;
#X connect 6 0 30 0;
#X connect 7 0 30 0;
#X connect 8 0 30 0;
#X connect 9 0 27 0;
#X connect 10 0 28 0;
#X connect 11 0 0 0;
#X connect 11 1 10 0;
#X connect 14 0 15 0;
#X connect 16 0 30 0;
#X connect 17 0 30 0;
#X connect 18 0 30 0;
#X connect 19 0 30 0;
#X connect 20 0 30 0;
#X connect 22 0 14 0;
#X connect 25 0 11 0;
#X connect 27 0 25 0;
#X connect 28 0 30 1;
#X connect 30 0 22 0;
#X restore 79 142 pd pitchb;
#X connect 0 0 21 0;
#X connect 0 0 33 0;
#X connect 1 0 12 0;
#X connect 2 0 3 0;
#X connect 2 0 19 0;
#X connect 3 0 4 0;
#X connect 4 0 5 0;
#X connect 5 0 11 0;
#X connect 6 0 8 0;
#X connect 7 0 6 0;
#X connect 9 0 17 0;
#X connect 10 0 0 0;
#X connect 14 0 2 0;
#X connect 15 0 23 0;
#X connect 17 0 18 0;
#X connect 18 0 1 0;
#X connect 19 0 20 0;
#X connect 20 0 7 0;
#X connect 21 0 22 0;
#X connect 22 0 2 1;
#X connect 22 0 32 0;
#X connect 23 0 3 0;
#X connect 24 0 23 1;
#X connect 32 0 16 0;
#X connect 33 0 11 0;
#X restore 62 63 pd Freq-v7-sig-;
#X obj 221 216 expr~ ($v1 < 0) - 0.5;
#X obj 353 46 cnv 15 100 70 empty empty empty 20 12 0 14 -24198 -66577
0;
#X text 376 48 library:;
#X text 357 59 pddp;
#X obj 365 331 cnv 15 42 25 empty empty empty 20 12 0 14 -24198 -66577
0;
#N canvas 336 174 316 152 ?. 0;
#X obj 8 84 cnv 15 300 56 empty empty empty 20 12 0 14 -224896 -66577
0;
#X obj 8 7 cnv 18 300 70 empty empty ARGOPdMiniModules 3 10 1 14 -4033
-1 1.04858e+06;
#X obj 31 27 cnv 10 10 10 empty empty Gerard 0 5 1 11 -4033 -1 1.04858e+06
;
#X obj 69 27 cnv 10 10 10 empty empty Paresys 0 5 1 11 -4033 -1 1.04858e+06
;
#X obj 12 40 pddp/pddplink http://gerard.paresys.free.fr/ARGOPd/;
#X text 13 85 Construit sous / Build under Pd 0.43.4-extended;
#X obj 13 111 pddp/pddplink http://puredata.info/downloads/pd-extended
;
#X obj 12 53 pddp/pddplink http://paresys.pagesperso-orange.fr/ARGOPd/
;
#X text 12 98 or Pd-0.48;
#X obj 13 124 pddp/pddplink http://puredata.info/downloads/pure-data
;
#X restore 369 335 pd ?.;
#X text 357 72 cyclone;
#X text 280 81 12 3 2018;
#X connect 6 0 7 0;
#X connect 7 0 11 0;
#X connect 7 0 12 0;
#X connect 7 0 8 0;
#X connect 7 0 31 0;
#X connect 8 0 9 0;
#X connect 9 0 14 0;
#X connect 11 0 1 0;
#X connect 12 0 4 0;
#X connect 13 0 10 0;
#X connect 14 0 15 0;
#X connect 22 0 30 1;
#X connect 23 0 30 0;
#X connect 24 0 30 2;
#X connect 30 0 25 0;
#X connect 30 1 6 0;
#X connect 30 2 24 0;
#X connect 30 3 22 0;
#X connect 31 0 8 1;
#X connect 31 0 13 0;
#X coords 0 -1 1 1 246 36 1 100 100;
#X restore 258 179 pd ARGO;
#N canvas 175 68 374 396 ARGO 0;
#X obj 101 101 cnv 20 116 34 empty ColorAmpli empty 20 12 0 14 -261299
-1 1.04858e+06;
#X obj 85 353 outlet~;
#X obj 157 104 cnv 10 20 10 empty ColorAmpli Ampli. 1 5 1 14 -261299
-1 1.04858e+06;
#X obj 85 43 inlet~;
#X obj 85 330 *~;
#X obj 115 118 hsl 101 12 -80 20 0 1 \$0-A ColorAmpli -8dB 0 7 1 9
-261299 -1 -1 7200 0;
#X obj 101 101 cnv 4 10 4 empty empty empty 20 12 0 14 -1 -66577 0
;
#X obj 101 131 cnv 4 10 4 empty empty empty 20 12 0 14 -1 -66577 0
;
#X msg -42 139 label \$1;
#X text 148 194 -> 0.0001..10 = -80dB..20dB;
#X obj 142 175 expr (pow(10 \, $f1 / 20));
#X obj 142 215 sel 0.0001;
#X msg 100 244 0;
#X obj 100 118 tgl 12 1 \$0-A \$0-B Mute 2 -5 1 9 -261299 -1 -1 0 1
;
#X obj 99 146 select 0 1;
#X obj 140 295 line~;
#X obj 140 275 pack 0 10;
#X msg 123 74 set 0;
#X obj -42 93 cyclone/sprintf %ddB;
#X obj -42 116 cyclone/tosymbol;
#X obj 261 342 cnv 15 42 25 empty empty empty 20 12 0 14 -24198 -66577
0;
#N canvas 336 174 309 137 ?. 0;
#X obj 3 83 cnv 15 300 46 empty empty empty 20 12 0 14 -224896 -66577
0;
#X obj 3 6 cnv 18 300 70 empty empty ARGOPdMiniModules 3 10 1 14 -4033
-1 1.04858e+06;
#X obj 26 26 cnv 10 10 10 empty empty Gerard 0 5 1 11 -4033 -1 1.04858e+06
;
#X obj 64 26 cnv 10 10 10 empty empty Paresys 0 5 1 11 -4033 -1 1.04858e+06
;
#X obj 7 37 pddp/pddplink http://gerard.paresys.free.fr/ARGOPd/;
#X text 8 85 Construit sous / Build under Pd 0.43.4-extended;
#X obj 8 111 pddp/pddplink http://puredata.info/downloads/pd-extended
;
#X obj 7 50 pddp/pddplink http://paresys.pagesperso-orange.fr/ARGOPd/
;
#X text 7 98 or Pd-0.46-7 + deken;
#X restore 265 346 pd ?.;
#X text 228 110 17 3 2016;
#X connect 3 0 4 0;
#X connect 4 0 1 0;
#X connect 5 0 10 0;
#X connect 5 0 18 0;
#X connect 8 0 5 0;
#X connect 10 0 11 0;
#X connect 11 0 12 0;
#X connect 11 1 16 0;
#X connect 11 1 17 0;
#X connect 12 0 16 0;
#X connect 12 0 19 0;
#X connect 13 0 14 0;
#X connect 14 0 5 0;
#X connect 14 1 12 0;
#X connect 15 0 4 1;
#X connect 16 0 15 0;
#X connect 17 0 13 0;
#X connect 18 0 19 0;
#X connect 19 0 8 0;
#X coords 0 -1 1 1 118 36 1 100 100;
#X restore 258 222 pd ARGO;
#X obj 456 359 cnv 15 34 16 empty empty empty 20 12 0 14 -24198 -66577
0;
#N canvas 353 174 333 161 ?? 0;
#X obj 17 89 cnv 15 300 56 empty empty empty 20 12 0 14 -224896 -66577
0;
#X obj 17 12 cnv 18 300 70 empty empty ARGOPdMiniModules 3 10 1 14
-4033 -1 1.04858e+06;
#X obj 40 32 cnv 10 10 10 empty empty Gerard 0 5 1 11 -4033 -1 1.04858e+06
;
#X obj 78 32 cnv 10 10 10 empty empty Paresys 0 5 1 11 -4033 -1 1.04858e+06
;
#X obj 20 54 pddp/pddplink http://gerard.paresys.free.fr/ARGOPd/;
#X obj 22 126 pddp/pddplink http://puredata.info/downloads/pd-extended
;
#X obj 22 102 pddp/pddplink http://puredata.info/downloads/pure-data
;
#X text 22 90 Construit sous / Build under Pd-0.49...;
#X text 21 114 or Pd 0.43.4-extended;
#X obj 20 66 pddp/pddplink https://paresys.pagesperso-orange.fr/ARGOPd/
;
#X obj 20 42 pddp/pddplink https://github.com/gerardparesys/ARGOPd
;
#X restore 456 359 pd ??;
#N canvas 653 263 557 485 ARGO 0;
#X obj 201 101 cnv 10 164 86 empty ColorForm empty 20 12 0 14 -228856
-1 1.04858e+06;
#X obj 276 105 cnv 10 20 10 empty ColorForm GEM-Video. 1 5 1 14 -228856
-1 1.04858e+06;
#X obj 201 183 cnv 4 10 4 empty empty empty 20 12 0 14 -128992 -66577
0;
#X text 184 188 gemlist;
#X obj 193 457 outlet;
#X obj 212 100 nbx 3 12 1 100 0 1 \$0-A \$0-B Render 33 7 1 9 -262144
-1 -1 50 256;
#X msg 117 156 set \$1;
#X obj 213 117 bng 12 250 50 0 \$0-A ColorGEM empty 0 0 1 9 -262144
-1 -1;
#X obj 213 134 bng 12 250 50 0 \$0-A ColorGEM Config 16 7 1 9 -262144
-1 -1;
#X obj 225 117 nbx 3 12 0 10 0 1 \$0-A ColorGEM Device 32 7 1 9 -262144
-1 -1 0 256;
#X obj 306 116 vradio 12 1 1 6 \$0-A ColorGEM 1600x1200 14 7 1 9 -262144
-1 -1 2;
#X obj 320 131 cnv 10 20 10 empty empty 1280x960 0 4 1 9 -228856 -1
0;
#X obj 321 143 cnv 10 20 10 empty empty 640x480 0 4 1 9 -228856 -1
0;
#X obj 321 155 cnv 10 20 10 empty empty 320x240 0 4 1 9 -228856 -1
0;
#X obj 320 167 cnv 10 20 10 empty empty 160x120 0 4 1 9 -228856 -1
0;
#X obj 321 179 cnv 6 20 6 empty empty 80x60 0 4 1 9 -228856 -1 0;
#X obj 213 152 vradio 12 1 1 3 \$0-A ColorGEM RGBA 15 7 1 9 -262144
-1 -1 1;
#X obj 228 167 cnv 7 20 6 empty empty YUV 0 4 1 9 -228856 -1 0;
#X obj 186 217 gemhead;
#X obj 193 405 pix_video;
#X msg 98 306 dialog;
#X msg 146 306 device \$1;
#X obj 146 281 change;
#X msg 416 339 dimen 160 120;
#X msg 415 316 dimen 320 240;
#X msg 414 295 dimen 640 480;
#X msg 412 274 dimen 1280 960;
#X obj 412 226 select 0 1 2 3 4 5;
#X msg 412 251 dimen 1600 1200;
#X msg 417 360 dimen 80 60;
#X obj 412 205 change;
#X msg 213 306 colorspace RGBA;
#X msg 241 329 colorspace YUV;
#X obj 213 249 change;
#X obj 213 281 select 0 1;
#X msg 32 306 enumerate;
#X obj 410 127 cnv 15 60 30 empty empty empty 20 12 0 14 -24198 -66577
0;
#N canvas 386 23 445 611 Help 0;
#X text 92 -40 http://webcam-osx.sourceforge.net/;
#X text 5 -90 - Fonctionne avec:;
#X text 32 -78 - WebCam Philips USB SPC900NC;
#X text 90 -52 + Driver Quicktime macam;
#X text 61 -64 - Sous MacOSX.4 + Pd 0.39.2-extended;
#X text 90 -2 + Driver Philips;
#X text 61 -27 - Sous WindowsXP + Pd 0.38.4-extended;
#X text 61 50 - Sous MacOSX.4 + Pd 0.39.2-extended;
#X text 90 62 sans driver specifique;
#X text 32 37 - Camescope Panasonic DV TriCCD NV-GS500 connecté USB
;
#X text 61 -14 - Sous WindowsXP + Pd 0.39.2-extended;
#X obj 4 324 cnv 15 400 320 empty empty empty 20 12 0 14 -258113 -66577
0;
#X text 51 487 Solution: cocher Compatible;
#X text 51 499 Se produit avec certaines cartes video \, de certains
PC \, sous Windows...;
#X text 51 524 Inconvenient: Charge CPU => la texture est calculée
(objet pix_texture) par le processeur de l'ordinateur et pas par la
carte video);
#X text 39 464 GL: énumérant non valide (répété);
#X text 7 323 - Erreur dans la fenêtre Pd:;
#X text 18 336 - Sous MacOSX:;
#X text 39 347 could not make new SG channnel;
#X text 41 394 GEM: pix_videoDarwin: no video yet;
#X text 42 405 pix_videoDarwin: SGIdle failed;
#X text 18 452 - Sous WindowsXP;
#X text 39 475 OpenGL: invalid enumerant (repeated);
#X text 30 596 error: pix_videoDS: Could not open device: 0;
#X text 39 608 en l'absence d'une camera connectée;
#X text 39 619 ou en l'absence du driver de la camera;
#X text 51 358 en l'absence d'une camera connectée;
#X text 51 368 ou en l'absence du driver de la camera;
#X text 51 416 Ce module ne fonctionne pas sous Pd 0.38.4-extended
;
#X text 18 584 - error: pix_videoDS: No video capture devices found!
;
#X text 5 199 - Avec une seule camera: essayer device 0;
#X text 32 76 - WebCam USB Logitech QuickCam Pro5000;
#X text 61 89 - Sous WindowsXP + Driver Logitech;
#X text 61 102 - Sous MacOSX + Driver macam v 0.9.1.;
#X text 5 214 - En cas d'absence d'image (reduite a un point);
#X text 40 227 - Essayer - Quitter Pd et relancer;
#X text 17 255 YUV = Luma \, ChromaB \, ChromaR;
#X text 5 243 - RGB = Red \, Green \, Blue;
#X text 5 -106 - ATTENTION: GEM doit etre "On";
#X text 7 274 ATTENTION un patch contenant un MiniModule GEM-Video
peut prendre 10 secondes a s'ouvrir avec certaines cameras. Patience...
;
#X text 61 9 - Sous Linux Ubuntu 8.04 + Pd 0.41.4-extended sans driver
specifique;
#X text 51 378 ou si une autre application utilise la camera;
#X obj 5 650 cnv 15 380 370 empty empty empty 20 12 0 14 -258113 -66577
0;
#X text 10 859 dialog ne fonctionne pas sous Linux;
#X text 16 689 - RGBA ne fonctionne pas sous MacOSX + Pd-0.42.5-extended
;
#X text 16 668 - Grey fonctionne sous Windows \, Linux;
#X text 16 658 - Grey ne fonctionne pas sous MacOSX;
#X text 10 648 colorspace;
#X text 16 679 - RGBA fonctionne sous MacOSX + Pd-0.41.4-extended;
#X text 78 918 video driver 0: video4linux;
#X text 78 928 video driver 1: ieee1394 for linux;
#X text 10 711 enumerate;
#X text 16 721 - ne fonctionne pas sous MacOSX + Pd-0.42.5-extended
\, Linux;
#X text 166 699 sous MacOSX + Pd-0.43.4-extended;
#X text 10 747 dimen;
#X text 16 757 - dimen ne fonctionne pas sous Windows;
#X text 10 786 0/1 On/Off;
#X text 10 822 quality;
#X text 16 832 - ne fonctionne pas sous Windows \, Linux;
#X text 16 842 - fonctionne sous MacOSX mais pas d'effet visible;
#X text 10 878 driver;
#X text 16 888 - ne fonctionne pas sous MacOSX \, Windows;
#X text 16 898 - fonctionne sous Linux;
#X text 78 908 Par ex: la fen Pd a l'ouverture du patch:;
#X text 16 964 - ne fonctionnent pas sous MacOSX \, Windows;
#X text 16 974 - fonctionnent sous Linux;
#X text 10 953 channel \, mode;
#X text 79 114 Fonctionne avec 3 WebCam identiques connectees en choisissant
Device 0 \, 1 et 2;
#X text 10 994 swap ne fonctionne pas sous MacOSX \, Windows;
#X text 16 731 - fonctionne sous Windows \, MacOSX \, Linux;
#X text 259 731 + Pd-0.43.4-extended;
#X text 16 768 - fonctionne sous MacOSX \, Linux;
#X text 17 800 - fonctionne sous Windows \, MacOSX \, Linux;
#X text 260 800 + Pd-0.43.4-extended;
#X restore 417 133 pd Help;
#X obj 228 179 cnv 7 20 6 empty empty Grey 0 4 1 9 -228856 -1 0;
#X obj 24 24 loadbang;
#X obj 200 100 tgl 12 1 \$0-A \$0-B empty 15 7 1 9 -262144 -1 -1 1
1;
#X msg 318 305 reset;
#X obj 262 134 bng 12 250 50 0 \$0-A ColorGEM Reset 16 7 1 9 -262144
-1 -1;
#X obj 200 24 inlet;
#X obj 34 98 cnv 15 160 20 empty empty empty 20 12 0 14 -261682 -66577
0;
#X obj 201 101 cnv 4 10 4 empty empty empty 20 12 0 14 -260097 -66577
0;
#X text 37 99 1:On 0:Off bang:Change ->;
#X obj 355 20 cnv 15 190 24 empty empty empty 20 12 0 14 -261682 -66577
0;
#X obj 354 100 bng 12 50 50 0 \$0-A \$0-B empty 14 6 1 9 -262144 -1
-1;
#X obj 355 101 cnv 4 10 4 empty empty empty 20 12 0 14 -260097 -66577
0;
#X text 391 19 <- N'importe quel message;
#X text 391 29 <- Input anything message;
#X obj 354 24 inlet;
#X text 363 48 Utile en mode SingleBuffer;
#N canvas 846 154 387 420 Test 0;
#X msg 62 81 driver \$1;
#X msg 61 58 0;
#X msg 122 58 2;
#X msg 91 58 1;
#X msg 52 4 0;
#X msg 113 4 2;
#X msg 82 4 1;
#X msg 53 34 quality \$1;
#X msg 144 5 3;
#X msg 63 107 0;
#X msg 124 107 2;
#X msg 93 107 1;
#X msg 158 108 3;
#X msg 64 137 channel \$1;
#X msg 69 183 mode NTSC;
#X msg 64 159 mode PAL;
#X obj 51 -19 tgl 15 0 empty empty empty 17 7 0 10 -262144 -1 -1 0
1;
#X text 71 -19 On/Off;
#X msg 77 208 zoom 2 2;
#X msg 101 295 colorspace Gray;
#X msg 238 114 0;
#X msg 268 114 1;
#X msg 239 137 swap \$1;
#X msg 241 163 dimen 800 600;
#X msg 241 186 dimen 400 300;
#X msg 243 207 dimen 799 599;
#X msg 243 230 dimen 512 512;
#X obj 23 334 outlet;
#X msg 244 81 close;
#X text 287 86 close the device;
#X msg 244 39 open 1;
#X msg 245 60 open 2;
#X msg 243 15 open 0;
#X text 289 40 open device;
#X connect 0 0 27 0;
#X connect 1 0 0 0;
#X connect 2 0 0 0;
#X connect 3 0 0 0;
#X connect 4 0 7 0;
#X connect 5 0 7 0;
#X connect 6 0 7 0;
#X connect 7 0 27 0;
#X connect 8 0 7 0;
#X connect 9 0 13 0;
#X connect 10 0 13 0;
#X connect 11 0 13 0;
#X connect 12 0 13 0;
#X connect 13 0 27 0;
#X connect 14 0 27 0;
#X connect 15 0 27 0;
#X connect 16 0 27 0;
#X connect 18 0 27 0;
#X connect 19 0 27 0;
#X connect 20 0 22 0;
#X connect 21 0 22 0;
#X connect 22 0 27 0;
#X connect 23 0 27 0;
#X connect 24 0 27 0;
#X connect 25 0 27 0;
#X connect 26 0 27 0;
#X connect 28 0 27 0;
#X connect 30 0 27 0;
#X connect 31 0 27 0;
#X connect 32 0 27 0;
#X restore 63 367 pd Test;
#X msg 270 352 colorspace Grey;
#X obj 244 457 print GEM-Video;
#X obj 244 432 spigot;
#X obj 262 176 tgl 12 1 \$0-A \$0-B Print 14 7 1 9 -262144 -1 -1 0
1;
#X obj 436 457 cnv 15 34 16 empty empty empty 20 12 0 14 -24198 -66577
0;
#N canvas 353 174 333 161 ?? 0;
#X obj 17 89 cnv 15 300 56 empty empty empty 20 12 0 14 -224896 -66577
0;
#X obj 17 12 cnv 18 300 70 empty empty ARGOPdMiniModules 3 10 1 14
-4033 -1 1.04858e+06;
#X obj 40 32 cnv 10 10 10 empty empty Gerard 0 5 1 11 -4033 -1 1.04858e+06
;
#X obj 78 32 cnv 10 10 10 empty empty Paresys 0 5 1 11 -4033 -1 1.04858e+06
;
#X obj 20 54 pddp/pddplink http://gerard.paresys.free.fr/ARGOPd/;
#X obj 22 126 pddp/pddplink http://puredata.info/downloads/pd-extended
;
#X obj 22 102 pddp/pddplink http://puredata.info/downloads/pure-data
;
#X text 22 90 Construit sous / Build under Pd-0.49...;
#X text 21 114 or Pd 0.43.4-extended;
#X obj 20 66 pddp/pddplink https://paresys.pagesperso-orange.fr/ARGOPd/
;
#X obj 20 42 pddp/pddplink https://github.com/gerardparesys/ARGOPd
;
#X restore 436 457 pd ??;
#X obj 24 156 delay 1000;
#X text 295 84 1 4 2021;
#X obj 68 186 delay 1000;
#X connect 5 0 6 0;
#X connect 6 0 18 0;
#X connect 7 0 35 0;
#X connect 8 0 20 0;
#X connect 9 0 22 0;
#X connect 10 0 30 0;
#X connect 16 0 33 0;
#X connect 18 0 19 0;
#X connect 19 0 4 0;
#X connect 19 1 57 0;
#X connect 20 0 19 0;
#X connect 21 0 19 0;
#X connect 21 0 57 0;
#X connect 22 0 21 0;
#X connect 23 0 19 0;
#X connect 24 0 19 0;
#X connect 25 0 19 0;
#X connect 26 0 19 0;
#X connect 27 0 28 0;
#X connect 27 1 26 0;
#X connect 27 2 25 0;
#X connect 27 3 24 0;
#X connect 27 4 23 0;
#X connect 27 5 29 0;
#X connect 28 0 19 0;
#X connect 29 0 19 0;
#X connect 30 0 27 0;
#X connect 31 0 19 0;
#X connect 32 0 19 0;
#X connect 33 0 34 0;
#X connect 34 0 31 0;
#X connect 34 1 32 0;
#X connect 34 2 55 0;
#X connect 35 0 19 0;
#X connect 39 0 61 0;
#X connect 40 0 18 0;
#X connect 41 0 19 0;
#X connect 42 0 41 0;
#X connect 43 0 40 0;
#X connect 48 0 18 0;
#X connect 52 0 48 0;
#X connect 54 0 19 0;
#X connect 55 0 19 0;
#X connect 57 0 56 0;
#X connect 58 0 57 1;
#X connect 61 0 22 0;
#X connect 61 0 63 0;
#X connect 63 0 33 0;
#X coords 0 -1 1 1 166 88 1 200 100;
#X restore 120 66 pd ARGO;
#N canvas 222 55 1072 759 ARGO 0;
#X obj 401 151 cnv 22 183 112 empty empty GEM. 5 12 1 18 -1 -262144
1.04858e+06;
#X obj 505 204 tgl 12 1 \$0-A \$0-ColorGEM (F)ullScreen 15 7 1 11 -24198
-1 -24198 0 1;
#X obj 403 174 tgl 12 1 \$0-A \$0-ColorGEM (G)EM 15 7 1 11 -24198 -1
-24198 1 1;
#X obj 505 189 tgl 12 1 \$0-A \$0-ColorGEM KeyShortCut 15 7 1 11 -24198
-1 -24198 0 1;
#X msg 391 307 set \$1;
#X msg 370 335 1;
#X msg 287 658 frame \$1;
#X obj 948 539 select 0 1;
#X msg 976 658 color 16 22 16;
#X msg 948 634 color 0 22 0;
#X obj 505 174 tgl 12 1 SendMode \$0-ColorGEM Compatible 15 7 1 11
-24198 -1 -24198 0 1;
#X obj 403 234 hradio 12 1 1 5 \$0-A \$0-ColorGEM 640x480 62 7 1 11
-24198 -1 -24198 2;
#X obj 184 279 t b f;
#N canvas 206 161 332 336 Dimension 0;
#X msg 120 175 set dimen 640 480;
#X msg 102 217 set dimen 320 240;
#X msg 131 154 label 640x480;
#X msg 112 196 label 320x240;
#X obj 102 17 inlet;
#X obj 25 299 outlet;
#X obj 246 299 outlet;
#X msg 82 260 set dimen 480 640;
#X msg 92 239 label 480x640;
#X msg 161 90 set dimen 1280 720;
#X msg 136 133 set dimen 1280 480;
#X msg 167 67 label 1280x720;
#X msg 146 112 label 1280x480;
#X obj 102 43 sel 0 1 2 3 4;
#X connect 0 0 6 0;
#X connect 1 0 6 0;
#X connect 2 0 5 0;
#X connect 3 0 5 0;
#X connect 4 0 13 0;
#X connect 7 0 6 0;
#X connect 8 0 5 0;
#X connect 9 0 6 0;
#X connect 10 0 6 0;
#X connect 11 0 5 0;
#X connect 12 0 5 0;
#X connect 13 0 8 0;
#X connect 13 0 7 0;
#X connect 13 1 3 0;
#X connect 13 1 1 0;
#X connect 13 2 2 0;
#X connect 13 2 0 0;
#X connect 13 3 12 0;
#X connect 13 3 10 0;
#X connect 13 4 11 0;
#X connect 13 4 9 0;
#X restore 211 304 pd Dimension;
#X obj 140 279 t b f;
#X obj 403 189 tgl 12 1 \$0-A \$0-ColorGEM (B)arMenu 15 7 1 11 -24198
-1 -24198 1 1;
#X obj 403 204 tgl 12 1 \$0-A \$0-ColorGEM (L)ight 15 7 1 11 -24198
-1 -24198 0 1;
#X obj 403 219 nbx 3 12 0 100 0 1 \$0-A \$0-ColorGEM BackGround 37
7 1 11 -24198 -1 -24198 50 256;
#X obj 522 234 tgl 12 1 \$0-A \$0-ColorGEM Screen2 15 7 1 11 -24198
-1 -24198 0 1;
#X obj 461 174 bng 12 250 50 0 \$0-A \$0-ColorGEM Info 15 7 1 11 -24198
-1 -24198;
#X obj 559 279 t b f;
#X obj 637 411 + 1;
#X msg 217 658 print;
#X msg 45 658 lighting \$1;
#X msg 123 658 color \$1 \$1 \$1;
#X obj 173 634 / 100;
#X obj 620 634 * 2;
#X obj 90 634 int;
#X obj 708 169 cnv 15 60 30 empty empty empty 20 12 0 14 -24198 -66577
0;
#N canvas 510 159 430 463 Help 0;
#X obj 16 35 cnv 15 380 90 empty empty empty 20 12 0 14 -233017 -66577
0;
#X text 21 33 Citation;
#X text 20 46 "GEM is the Graphics Environment for Multimedia. It was
originally written by Mark Danks to generate real-time computer graphics
\, especially for audio-visual compositions.";
#X text 20 96 "GEM is a collection of externals which allow the user
to create OpenGL graphics within Pd";
#X text 15 133 - Raccourcis clavier;
#X text 17 189 - En "FullScreen" taper F ou Pomme + Tab sous MacOSX...
;
#X text 125 202 taper F ou Alt + Tab sous Windows...;
#X text 125 214 taper F ou Alt + F4 sous Linux...;
#X text 40 358 Inconvenient: Charge CPU => la texture est calculée
(objet pix_texture) par le processeur de l'ordinateur et pas par la
carte video);
#X text 17 306 Il faut cocher compatible avec certaines cartes video
\, de certains PC \, sous Windows...;
#X text 18 332 Compatible Off -> mode 1: TEXTURE_RECTANGLE;
#X text 18 344 Compatible On -> mode 0: TEXTURE_2D;
#X text 13 10 - GEM On ouvre une fenetre;
#X text 139 132 g / G -> GEM On/Off;
#X text 140 146 f / F -> FullScreen On/Off;
#X text 141 159 b /B -> Menu bar On/Off;
#X text 141 173 Echap / Esc -> FullScreen Off;
#X text 20 432 16/9 = 512/288 = 1024/576 = 1152/648 = 1280/720 = 1440/810
;
#X text 14 420 16/10 = 512/320 = 1024/640 = 1152/720 = 1280x800 = 1440/900
;
#X text 348 407 = 1280/960;
#X text 25 408 4/3 = 160/120 = 320/240 = 512/384 = 640/480 = 1024x768
;
#X text 126 227 ou Echap / Esc...;
#X text 16 272 - Compatible envoie le message rectangle 1 ou rectangle
0 à tous les objets pix_texture des autres modules;
#X restore 715 175 pd Help;
#X msg 346 658 create;
#X msg 620 658 fullscreen \$1;
#X obj 370 360 sel 1;
#X msg 588 411 set \$1;
#X msg 393 658 dimen 640 480;
#X msg 258 658 1;
#X obj 370 438 select linux macos windows;
#X msg 201 334 set \$1;
#X msg 483 584 1;
#X msg 483 658 border \$1 \, menubar \$1;
#X msg 620 584 0;
#X obj 421 466 t b b b;
#X obj 370 466 t b b b;
#X obj 405 584 spigot;
#X obj 555 411 == 0;
#X obj 370 415 zexy/operating_system;
#X msg 711 634 2;
#X obj 403 249 tgl 12 1 \$0-A \$0-ColorGEM SingleBuffer 15 7 1 11 -24198
-1 -24198 0 1;
#X obj 487 249 bng 12 50 50 0 \$0-A \$0-ColorGEM Clear 15 7 1 11 -24198
-1 -24198;
#X obj 712 539 sel 0 1;
#X msg 711 584 set 2;
#X msg 756 584 set 1;
#X obj 536 249 bng 12 50 50 0 \$0-A \$0-ColorGEM Grade 15 7 1 11 -24198
-1 -24198;
#N canvas 1071 188 366 385 Graduation 0;
#X obj 161 78 until;
#X obj 161 100 f;
#X obj 209 100 + 1;
#X obj 237 101 sel 0;
#X obj 161 176 gemhead;
#X obj 161 350 GEMglEnd;
#X obj 161 224 GEMglBegin GL_LINES;
#X obj 161 122 t b f;
#X obj 161 249 GEMglVertex2f -10 0;
#X obj 161 272 GEMglVertex2f 10 0;
#X obj 161 294 GEMglVertex2f 0 -4;
#X obj 161 316 GEMglVertex2f 0 4;
#X obj 35 316 GEMglVertex2f 0 4;
#X obj 35 294 GEMglVertex2f 0 -4;
#X obj 161 198 color 0.8 0.8 0.8;
#X obj 127 17 inlet;
#X text 164 17 <- bang;
#X obj 34 175 gemhead;
#X obj 35 224 GEMglBegin GL_LINES;
#X msg 306 116 1;
#X msg 34 116 0;
#X obj 127 41 t b b b b;
#X obj 35 198 color 0.2 0.2 0.2;
#X obj 195 40 cnv 15 130 20 empty empty empty 20 12 0 14 -24198 -66577
0;
#X text 200 41 en mode SingleBuffer;
#X obj 34 18 loadbang;
#X obj 226 13 bng 15 250 50 0 empty empty empty 17 7 0 10 -262144 -1
-1;
#X obj 209 122 mod 23;
#X obj 274 198 - 12;
#X obj 35 249 GEMglVertex2f -10 0;
#X obj 35 272 GEMglVertex2f 10 0;
#X obj 294 13 bng 15 250 50 0 empty empty empty 17 7 0 10 -262144 -1
-1;
#X obj 259 11 bng 15 250 50 0 empty empty empty 17 7 0 10 -262144 -1
-1;
#X obj 333 16 bng 15 250 50 0 empty empty empty 17 7 0 10 -262144 -1
-1;
#X connect 0 0 1 0;
#X connect 1 0 2 0;
#X connect 1 0 7 0;
#X connect 2 0 27 0;
#X connect 3 0 0 1;
#X connect 4 0 14 0;
#X connect 6 0 8 0;
#X connect 7 0 4 0;
#X connect 7 1 28 0;
#X connect 8 0 9 0;
#X connect 9 0 10 0;
#X connect 10 0 11 0;
#X connect 11 0 5 0;
#X connect 12 0 5 0;
#X connect 13 0 12 0;
#X connect 14 0 6 0;
#X connect 15 0 21 0;
#X connect 17 0 22 0;
#X connect 18 0 29 0;
#X connect 19 0 4 0;
#X connect 19 0 17 0;
#X connect 20 0 17 0;
#X connect 20 0 4 0;
#X connect 21 0 20 0;
#X connect 21 1 17 0;
#X connect 21 2 0 0;
#X connect 21 3 19 0;
#X connect 22 0 18 0;
#X connect 25 0 20 0;
#X connect 26 0 21 0;
#X connect 27 0 1 1;
#X connect 27 0 3 0;
#X connect 28 0 8 2;
#X connect 28 0 9 2;
#X connect 28 0 10 1;
#X connect 28 0 11 1;
#X connect 29 0 30 0;
#X connect 30 0 13 0;
#X connect 31 0 4 0;
#X connect 32 0 17 0;
#X restore 639 315 pd Graduation;
#X obj 461 204 bng 12 250 50 0 \$0-A \$0-ColorGEM Save 15 7 1 11 -24198
-1 -24198;
#X obj 586 224 cnv 15 390 50 empty empty empty 20 12 0 14 -24198 -66577
0;
#X msg 738 339 0;
#X msg 769 339 2;
#X msg 798 339 4;
#X msg 859 339 8;
#X msg 829 339 5;
#X msg 738 367 destroy \, FSAA \$1 \, buffer 1 \, create \, 1;
#N canvas 669 277 404 282 SaveJpeg 0;
#X obj 207 46 loadbang;
#X obj 73 46 inlet;
#X text 6 242 Sauve la fenetre GEM au format JPEG dans le dossier du
patch;
#X obj 207 128 cyclone/tosymbol;
#X obj 207 103 cyclone/sprintf %s/GEMWindow;
#X obj 207 77 ggee/getdir;
#X text 7 229 Save the GEM window in JPEG format in the patch folder
;
#X obj 100 199 pix_write;
#X msg 110 153 color_format 3;
#X msg 207 153 file \$1 90;
#X obj 73 77 t b b;
#X obj 33 129 delay 100;
#X obj 33 153 gemhead 90;
#X connect 0 0 5 0;
#X connect 1 0 10 0;
#X connect 3 0 9 0;
#X connect 4 0 3 0;
#X connect 5 0 4 0;
#X connect 8 0 7 0;
#X connect 9 0 7 0;
#X connect 10 0 11 0;
#X connect 10 1 7 0;
#X connect 11 0 12 0;
#X connect 12 0 7 0;
#X restore 639 294 pd SaveJpeg;
#X obj 491 155 nbx 2 12 1 30 0 1 \$0-A \$0-ColorGEM Frames/sec 29 7
1 11 -24198 -1 -24198 10 256;
#X obj 880 105 cnv 15 100 80 empty empty empty 20 12 0 14 -24198 -66577
0;
#X text 903 107 library:;
#X text 884 119 pddp;
#X text 884 130 cyclone;
#X text 884 141 zexy;
#X text 884 153 Gem;
#X text 884 164 ggee;
#X obj 888 718 cnv 15 34 16 empty empty empty 20 12 0 14 -24198 -66577
0;
#N canvas 353 174 333 161 ?? 0;
#X obj 17 89 cnv 15 300 56 empty empty empty 20 12 0 14 -224896 -66577
0;
#X obj 17 12 cnv 18 300 70 empty empty ARGOPdMiniModules 3 10 1 14
-4033 -1 1.04858e+06;
#X obj 40 32 cnv 10 10 10 empty empty Gerard 0 5 1 11 -4033 -1 1.04858e+06
;
#X obj 78 32 cnv 10 10 10 empty empty Paresys 0 5 1 11 -4033 -1 1.04858e+06
;
#X obj 20 54 pddp/pddplink http://gerard.paresys.free.fr/ARGOPd/;
#X obj 22 126 pddp/pddplink http://puredata.info/downloads/pd-extended
;
#X obj 22 102 pddp/pddplink http://puredata.info/downloads/pure-data
;
#X text 22 90 Construit sous / Build under Pd-0.49...;
#X text 21 114 or Pd 0.43.4-extended;
#X obj 20 66 pddp/pddplink https://paresys.pagesperso-orange.fr/ARGOPd/
;
#X obj 20 42 pddp/pddplink https://github.com/gerardparesys/ARGOPd
;
#X restore 888 718 pd ??;
#X obj 866 391 tgl 15 0 empty empty empty 0 -6 0 10 -262144 -1 -1 0
1;
#X msg 866 410 topmost \$1;
#X obj 870 584 spigot 0;
#X msg 883 539 1;
#X obj 142 359 spigot 0;
#X obj 142 382 t b b b;
#X obj 142 334 spigot 0;
#X obj 505 279 t b f f;
#X obj 393 498 delay 30;
#X obj 280 527 delay 30;
#X obj 7 584 delay 30;
#X obj 700 99 receive Sendgemwin;
#X obj 258 718 send RenderGEM;
#X obj 948 718 send \$0-ColorGEM;
#X text 604 232 Sauve la fenetre GEM au format JPEG dans le dossier
du patch;
#X text 586 223 <- Save the GEM window in JPEG format in the patch
folder;
#X text 587 247 <- Clear and Grade only work in SingleBuffer;
#X text 606 258 Clear et Grade ne fonctionne qu'en SingleBuffer;
#X obj 741 287 cnv 15 150 20 empty empty empty 20 12 0 14 -258113 -66577
0;
#X text 746 289 Pb Save Red Gem 0.94;
#X obj 7 606 t b b b b;
#X obj 7 634 delay 300;
#X msg 7 658 bang;
#X msg 871 658 0 \, destroy;
#X msg 711 658 reset \, FSAA 4 \, buffer \$1;
#X obj 370 388 t b b b;
#X obj 448 279 t b f b;
#X obj 372 279 t b f f;
#X msg 914 539 0;
#X obj 461 718 gemwin;
#X obj 505 219 nbx 3 12 -100 1000 0 1 \$0-A \$0-ColorGEM Offset 37
7 1 11 -24198 -1 -24198 30 256;
#X msg 370 623 offset \$1 \$1;
#X obj 916 632 bng 15 250 50 0 empty empty empty 17 7 0 10 -262144
-1 -1;
#X obj 280 550 t b b b b;
#N canvas 275 146 715 493 KeyShortCut 0;
#X obj 467 22 key;
#X obj 467 70 spigot;
#X obj 335 22 gemkeyname;
#X obj 238 137 select 27;
#X msg 173 227 0;
#X obj 302 70 spigot;
#X obj 335 45 == 0;
#X obj 173 202 t b b;
#X msg 206 227 set 1;
#X obj 467 137 select 70 102 71 103 66 98 76 108;
#X obj 69 22 receive SendGEM;
#X obj 302 137 sel f F g G b B l L Escape;
#X obj 173 22 gemkeyboard;
#X obj 173 137 select 53;
#X text 7 136 Quit fullscreen with Esc ->;
#X text 166 351 (G)EM;
#X obj 168 335 outlet;
#X text 293 351 (B)arMenu;
#X obj 304 335 outlet;
#X text 389 351 (L)ight;
#X obj 389 335 outlet;
#X text 449 351 (F)ullScreen;
#X obj 467 335 outlet;
#X text 495 5 KeyShortCut;
#X obj 515 22 inlet;
#X obj 232 335 outlet;
#X text 137 399 esc key -> gemkeyboard -> 27 Windows & MacOS Pd-ceammc
;
#X text 137 411 esc key -> gemkeyboard -> 53 MacOS Pd-extended & Pd-Vanilla
;
#X text 137 423 esc key -> gemkeyboard -> 9 Ubuntu20.04 Pd0.50.2 GEM0.94
;
#X text 137 435 esc key -> gemkeyboard -> nothing MacOS Pd0.50.2 GEM0.94
;
#X connect 0 0 1 0;
#X connect 0 0 3 0;
#X connect 1 0 9 0;
#X connect 2 0 6 0;
#X connect 2 1 5 0;
#X connect 3 0 7 0;
#X connect 4 0 22 0;
#X connect 5 0 11 0;
#X connect 6 0 5 1;
#X connect 7 0 4 0;
#X connect 7 1 8 0;
#X connect 8 0 18 0;
#X connect 8 0 25 0;
#X connect 9 0 22 0;
#X connect 9 1 22 0;
#X connect 9 2 16 0;
#X connect 9 3 16 0;
#X connect 9 4 18 0;
#X connect 9 5 18 0;
#X connect 9 6 20 0;
#X connect 9 7 20 0;
#X connect 10 0 16 0;
#X connect 11 0 22 0;
#X connect 11 1 22 0;
#X connect 11 2 16 0;
#X connect 11 3 16 0;
#X connect 11 4 18 0;
#X connect 11 5 18 0;
#X connect 11 6 20 0;
#X connect 11 7 20 0;
#X connect 11 8 7 0;
#X connect 12 0 13 0;
#X connect 12 0 3 0;
#X connect 13 0 7 0;
#X connect 24 0 1 1;
#X restore 307 99 pd KeyShortCut;
#X text 590 165 14 4 2021;
#X connect 1 0 80 0;
#X connect 2 0 100 0;
#X connect 3 0 107 0;
#X connect 4 0 5 0;
#X connect 5 0 32 0;
#X connect 5 0 77 1;
#X connect 6 0 102 0;
#X connect 7 0 9 0;
#X connect 7 1 8 0;
#X connect 8 0 86 0;
#X connect 9 0 86 0;
#X connect 11 0 12 0;
#X connect 12 0 79 0;
#X connect 12 1 13 0;
#X connect 13 0 11 0;
#X connect 13 1 34 0;
#X connect 14 0 79 0;
#X connect 14 1 37 0;
#X connect 15 0 14 0;
#X connect 16 0 27 0;
#X connect 17 0 25 0;
#X connect 18 0 20 0;
#X connect 19 0 22 0;
#X connect 20 0 5 0;
#X connect 20 1 21 0;
#X connect 21 0 26 1;
#X connect 22 0 102 0;
#X connect 23 0 102 0;
#X connect 24 0 102 0;
#X connect 25 0 24 0;
#X connect 26 0 31 0;
#X connect 27 0 23 0;
#X connect 30 0 76 0;
#X connect 30 0 102 0;
#X connect 31 0 102 0;
#X connect 32 0 98 0;
#X connect 32 1 75 0;
#X connect 33 0 40 0;
#X connect 34 0 102 0;
#X connect 35 0 79 1;
#X connect 35 0 85 0;
#X connect 35 0 102 0;
#X connect 36 0 42 0;
#X connect 36 1 41 0;
#X connect 36 2 42 0;
#X connect 37 0 38 0;
#X connect 38 0 39 0;
#X connect 39 0 102 0;
#X connect 40 0 26 0;
#X connect 41 0 81 0;
#X connect 41 1 38 0;
#X connect 41 2 40 0;
#X connect 42 0 82 0;
#X connect 42 1 40 0;
#X connect 42 2 43 0;
#X connect 43 0 34 0;
#X connect 44 0 43 1;
#X connect 45 0 36 0;
#X connect 46 0 97 0;
#X connect 47 0 99 0;
#X connect 48 0 95 0;
#X connect 49 0 50 0;
#X connect 49 1 51 0;
#X connect 50 0 46 0;
#X connect 51 0 46 0;
#X connect 52 0 53 0;
#X connect 54 0 62 0;
#X connect 56 0 61 0;
#X connect 57 0 61 0;
#X connect 58 0 61 0;
#X connect 59 0 61 0;
#X connect 60 0 61 0;
#X connect 61 0 102 0;
#X connect 63 0 6 0;
#X connect 73 0 74 0;
#X connect 74 0 102 0;
#X connect 75 0 96 0;
#X connect 76 0 75 1;
#X connect 77 0 78 0;
#X connect 78 0 45 0;
#X connect 78 1 46 0;
#X connect 78 2 75 0;
#X connect 79 0 77 0;
#X connect 80 0 79 0;
#X connect 80 1 44 0;
#X connect 80 2 33 0;
#X connect 81 0 34 0;
#X connect 81 0 82 0;
#X connect 82 0 106 0;
#X connect 83 0 93 0;
#X connect 84 0 102 0;
#X connect 93 0 94 0;
#X connect 93 1 27 0;
#X connect 93 2 25 0;
#X connect 93 3 35 0;
#X connect 94 0 95 0;
#X connect 95 0 102 0;
#X connect 96 0 101 0;
#X connect 96 0 102 0;
#X connect 97 0 102 0;
#X connect 98 0 45 0;
#X connect 98 1 46 0;
#X connect 99 0 5 0;
#X connect 99 1 49 0;
#X connect 99 2 75 0;
#X connect 100 0 5 0;
#X connect 100 1 4 0;
#X connect 100 2 7 0;
#X connect 101 0 75 1;
#X connect 103 0 104 0;
#X connect 104 0 102 0;
#X connect 105 0 96 0;
#X connect 106 0 83 0;
#X connect 106 1 63 0;
#X connect 106 2 30 0;
#X connect 106 3 103 0;
#X connect 107 0 2 0;
#X connect 107 1 38 0;
#X connect 107 2 15 0;
#X connect 107 3 16 0;
#X connect 107 4 1 0;
#X coords 0 -1 1 1 185 114 1 400 150;
#X restore 322 57 pd ARGO;
#X connect 6 0 5 0;
#X connect 8 0 7 0;
#X connect 13 0 14 0;
#X connect 14 0 6 3;
#X connect 17 0 6 0;
