#N canvas 219 22 738 559 10;
#X obj 11 143 cnv 15 15 15 empty empty ExMM203a-bubbler.pd 0 8 1 14
-262144 -66577 0;
#N canvas 259 24 819 651 ARGO 0;
#X obj 301 251 cnv 20 142 172 empty ColorForm +bubbler. 81 10 1 14
-188398 -1 1.04858e+06;
#X obj 301 419 cnv 4 10 4 empty empty empty 20 12 0 14 -1 -66577 0
;
#X obj 433 419 cnv 4 10 4 empty empty empty 0 0 0 9 -1 -66577 0;
#X obj 267 177 inlet~;
#X obj 424 177 inlet~;
#X obj 266 627 outlet~;
#X obj 393 627 outlet~;
#X obj 303 274 hsl 139 12 1 10000 1 1 \$0-A ColorForm Time=2632ms 3
6 1 9 -208064 -262144 -1 11800 0;
#X obj 43 176 cnv 15 60 30 empty empty empty 20 12 0 14 -24198 -66577
0;
#N canvas 433 87 466 216 Help 0;
#X obj 8 67 cnv 15 440 130 empty empty empty 20 12 0 14 -228856 -66577
0;
#N canvas 233 260 1035 558 bubbler 0;
#X text 19 160 time \, feedback \, filter freq \, resonance- these
are identical in function to the same parameters in "+delay~". The
only exception is that the range of time is from 20 milliseconds to
10 seconds.;
#X text 17 233 time variation - this will select a random delay time
for each grain from time - (time vari * time) to time + (time vari
* time). This control has a range from 0% to 100%.;
#X text 15 294 density - this controls the number of grains present
at any given moment. It varies from 0% to 200%. At 100% \, grains are
created at a rate so that two grains are present (on average). This
is done because each grain is enveloped \, and it is necessary to overlap
grains for smooth audio.;
#X text 17 391 grain size - this is the size of each grain as a percentage
of the delay time. This control varies from 0% to 50%.;
#X text 521 27 g start vari - this control varies from 0% to 100%.
At 0% grains will be created at a fixed frequency (grain rate) dependent
on the grain size and density \, for synchronous granular synthesis.
When the g start vari is increased \, the grain start time will deviate
from this fixed frequency.;
#X text 519 280 grain reversal - this will randomly reverse the grain.
At 0% \, none of the grains will be reversed \, at 100% \, all of the
grains will be reversed. This is especially effective when the grain
size and delay time is large.;
#X text 522 230 octave variation - this will add a random octave pitch
shift to each grain.;
#X text 20 31 This is a granular delay. That is \, small or large bits
of sound (grains) are read from the delay \, and are recombined before
sending to the output and feedback. The grains of sound are given smooth
envelopes \, so that they can be recombined without transient distortion.
The start of the grain \, the delay in each grain \, the playback direction
and the pitch of each grain can be randomized.;
#X text 16 437 Dry/Delay volume-controls the volume of the original
signal (dry) or the delayed signal (delay);
#X text 16 480 Mix-controls the ratio of dry-delay in the output. Ranges
from 0 to 100% (0% all dry \, 100% all delay). Adjust mix \, then adjust
volumes as desired.;
#X text 17 5 +bubbler~;
#X text 522 127 pitch shift/octave - these controls give each grain
a pitch shift. Pitch shifting is controlled via MIDI input to the right
inlet \, given as a note/velocity pair. When multiple MIDI notes are
held \, the pitch shift values are randomly selected from the collection
for each grain. The octave value is added to the pitch shift.;
#X text 520 362 12tet/just - this button sets the pitch shifting to
12 tone equal temperament \, or to just intonation.;
#X restore 34 138 pd bubbler details;
#X text 31 81 This is a delay using granular synthesis. Small clips
(grains) of audio are read and re-ordered before being sent to the
delay output. Various parameters such as playback direction and pitch
of each grain can be controlled.;
#X text 11 67 Citation +bubbler;
#X text 32 158 Tom Erbe 2012;
#X obj 9 42 pddp/pddplink http://soundhack.henfast.com/freeware/;
#X text 9 27 a pd external in soundhack-0.0.8-pd;
#X text 8 2 MM +bubbler;
#X text 9 15 Based on Tom Erbe's work: "+bubbler~";
#X obj 32 172 pddp/pddplink http://music.ucsd.edu/b/Tom+Erbe;
#X restore 50 183 pd Help;
#X obj 300 382 hradio 12 1 1 9 \$0-A ColorForm 0Oct 110 6 1 10 -208064
-1 -1 4;
#N canvas 406 211 214 168 label 0;
#X msg 38 108 label \$1;
#X obj 38 14 inlet;
#X obj 38 136 outlet;
#X obj 38 40 - 4;
#X obj 126 135 outlet;
#X obj 38 64 cyclone/sprintf %dOct;
#X obj 38 86 symbol;
#X connect 0 0 2 0;
#X connect 1 0 3 0;
#X connect 3 0 4 0;
#X connect 3 0 5 0;
#X connect 5 0 6 0;
#X connect 6 0 0 0;
#X restore 193 363 pd label;
#N canvas 251 216 292 221 label 0;
#X msg 119 118 label \$1;
#X obj 119 46 inlet;
#X obj 118 146 outlet;
#X obj 119 74 cyclone/sprintf Time=%dms;
#X obj 119 96 symbol;
#X connect 0 0 2 0;
#X connect 1 0 3 0;
#X connect 3 0 4 0;
#X connect 4 0 0 0;
#X restore 189 188 pd label;
#X obj 303 406 hsl 139 12 0 100 0 1 \$0-A ColorAmpli Effect=50% 0 7
1 9 -261299 -262144 -1 7000 0;
#N canvas 560 290 286 223 DirEffect 0;
#X obj 19 -3 inlet~;
#X obj 232 -3 inlet~;
#X obj 68 -3 inlet~;
#X obj 183 -3 inlet~;
#X obj 19 160 outlet~;
#X obj 183 160 outlet~;
#X text 27 -22 Dir1;
#X text 190 -22 Dir2;
#X text 230 -22 Effect2;
#X text 66 -22 Effect1;
#X obj 183 113 *~;
#X obj 68 113 *~;
#X obj 232 113 *~;
#X obj 130 56 - 1;
#X obj 130 82 * -1;
#X obj 19 113 *~;
#X obj 130 -3 inlet;
#X obj 130 21 / 100;
#X text 127 -22 0...100;
#X connect 0 0 15 0;
#X connect 1 0 12 0;
#X connect 2 0 11 0;
#X connect 3 0 10 0;
#X connect 10 0 5 0;
#X connect 11 0 4 0;
#X connect 12 0 5 0;
#X connect 13 0 14 0;
#X connect 14 0 10 1;
#X connect 14 0 15 1;
#X connect 15 0 4 0;
#X connect 16 0 17 0;
#X connect 17 0 13 0;
#X connect 17 0 11 1;
#X connect 17 0 12 1;
#X restore 304 601 pd DirEffect;
#X obj 301 251 cnv 4 10 4 empty empty empty 20 12 0 14 -1 -66577 0
;
#X obj 433 251 cnv 4 10 4 empty empty empty 0 0 0 9 -1 -66577 0;
#X obj 318 250 bng 12 50 50 0 \$0-A \$0-B Init 14 6 1 10 -262144 -1
-1;
#X obj 303 298 hsl 139 12 0 200 0 1 \$0-A ColorForm Feedback=65% 3
6 1 9 -261299 -262144 -1 4500 0;
#N canvas 406 211 292 221 label 0;
#X msg 119 118 label \$1;
#X obj 119 46 inlet;
#X obj 119 146 outlet;
#X obj 119 74 cyclone/sprintf Feedback=%d%%;
#X obj 119 96 symbol;
#X connect 0 0 2 0;
#X connect 1 0 3 0;
#X connect 3 0 4 0;
#X connect 4 0 0 0;
#X restore 189 228 pd label;
#X obj 318 262 bng 12 50 50 0 \$0-A \$0-B Silence 14 6 1 10 -262144
-1 -1;
#X obj 316 570 +bubbler~;
#X obj 344 538 t a;
#X msg 87 446 timeVariation \$1;
#X msg 34 446 time \$1;
#X msg 569 376 20000;
#X msg 512 348 0;
#X msg 594 348 832.6;
#X msg 616 376 50;
#X msg 540 376 80;
#X msg 553 348 10;
#X obj 501 309 t b b b b b b b b b b;
#X msg 638 348 4;
#X obj 303 286 hsl 139 12 0 100 0 1 \$0-A ColorForm TimeVariation=100%
3 6 1 9 -208064 -262144 -1 13800 0;
#N canvas 285 316 292 221 label 0;
#X msg 119 118 label \$1;
#X obj 119 46 inlet;
#X obj 118 146 outlet;
#X obj 119 74 cyclone/sprintf TimeVariation=%d%%;
#X obj 119 96 symbol;
#X connect 0 0 2 0;
#X connect 1 0 3 0;
#X connect 3 0 4 0;
#X connect 4 0 0 0;
#X restore 189 208 pd label;
#X msg 195 446 feedback \$1;
#X msg 360 446 resonance \$1;
#X msg 271 446 filterFreq \$1;
#X obj 303 310 hsl 139 12 20 20000 1 1 \$0-A ColorForm FilterFreq=13400Hz
3 6 1 9 -188398 -262144 -1 13000 0;
#N canvas 406 211 292 221 label 0;
#X msg 119 118 label \$1;
#X obj 119 46 inlet;
#X obj 119 146 outlet;
#X obj 119 74 cyclone/sprintf FilterFreq=%dHz;
#X obj 119 96 symbol;
#X connect 0 0 2 0;
#X connect 1 0 3 0;
#X connect 3 0 4 0;
#X connect 4 0 0 0;
#X restore 190 248 pd label;
#X obj 303 322 hsl 139 12 0 100 0 1 \$0-A ColorForm FilterReso=0% 3
6 1 9 -188398 -262144 -1 0 0;
#N canvas 406 211 292 221 label 0;
#X msg 119 118 label \$1;
#X obj 119 46 inlet;
#X obj 119 146 outlet;
#X obj 119 74 cyclone/sprintf FilterReso=%d%%;
#X obj 119 96 symbol;
#X connect 0 0 2 0;
#X connect 1 0 3 0;
#X connect 3 0 4 0;
#X connect 4 0 0 0;
#X restore 190 267 pd label;
#X obj 80 308 delay 1000;
#X obj 61 220 t b b b;
#X msg 34 473 density \$1;
#X msg 105 473 grainSize \$1;
#X msg 191 473 grainStartVariation \$1;
#X obj 303 334 hsl 139 12 0 200 0 1 \$0-A ColorForm GrainDensity=150%
3 6 1 9 -212212 -262144 -1 10400 0;
#N canvas 251 216 292 221 label 0;
#X msg 119 118 label \$1;
#X obj 119 46 inlet;
#X obj 118 146 outlet;
#X obj 119 74 cyclone/sprintf GrainDensity=%d%%;
#X obj 119 96 symbol;
#X connect 0 0 2 0;
#X connect 1 0 3 0;
#X connect 3 0 4 0;
#X connect 4 0 0 0;
#X restore 190 286 pd label;
#X obj 303 346 hsl 139 12 0 50 0 1 \$0-A ColorForm GrainSize=50% 3
6 1 9 -212212 -262144 -1 13800 0;
#N canvas 251 216 292 221 label 0;
#X msg 119 118 label \$1;
#X obj 119 46 inlet;
#X obj 118 146 outlet;
#X obj 119 74 cyclone/sprintf GrainSize=%d%%;
#X obj 119 96 symbol;
#X connect 0 0 2 0;
#X connect 1 0 3 0;
#X connect 3 0 4 0;
#X connect 4 0 0 0;
#X restore 191 305 pd label;
#X obj 303 358 hsl 139 12 0 100 0 1 \$0-A ColorForm GrainStart=46%
3 6 1 9 -212212 -262144 -1 6400 0;
#N canvas 251 216 292 221 label 0;
#X msg 119 118 label \$1;
#X obj 119 46 inlet;
#X obj 118 146 outlet;
#X obj 120 74 cyclone/sprintf GrainStart=%d%%;
#X obj 119 96 symbol;
#X connect 0 0 2 0;
#X connect 1 0 3 0;
#X connect 3 0 4 0;
#X connect 4 0 0 0;
#X restore 191 324 pd label;
#N canvas 251 216 292 221 label 0;
#X msg 119 118 label \$1;
#X obj 119 46 inlet;
#X obj 118 146 outlet;
#X obj 120 74 cyclone/sprintf Effect=%d%%;
#X obj 119 96 symbol;
#X connect 0 0 2 0;
#X connect 1 0 3 0;
#X connect 3 0 4 0;
#X connect 4 0 0 0;
#X restore 194 422 pd label;
#X msg 35 497 octave \$1;
#X msg 336 474 grainReversal \$1;
#X msg 108 497 octaveVariation \$1;
#X obj 303 370 hsl 139 12 0 100 0 1 \$0-A ColorForm GrainReversal=0%
3 6 1 9 -212212 -262144 -1 100 0;
#N canvas 251 216 292 221 label 0;
#X msg 119 118 label \$1;
#X obj 119 46 inlet;
#X obj 118 146 outlet;
#X obj 120 74 cyclone/sprintf GrainReversal=%d%%;
#X obj 119 96 symbol;
#X connect 0 0 2 0;
#X connect 1 0 3 0;
#X connect 3 0 4 0;
#X connect 4 0 0 0;
#X restore 193 342 pd label;
#X obj 300 394 hradio 12 1 1 3 \$0-A ColorForm Var=1Oct 38 6 1 10 -208064
-1 -1 1;
#N canvas 406 211 214 168 label 0;
#X msg 38 108 label \$1;
#X obj 38 14 inlet;
#X obj 38 136 outlet;
#X obj 38 64 cyclone/sprintf Var=%dOct;
#X obj 38 86 symbol;
#X connect 0 0 2 0;
#X connect 1 0 3 0;
#X connect 3 0 4 0;
#X connect 4 0 0 0;
#X restore 194 383 pd label;
#X obj 384 394 hradio 12 1 1 2 \$0-A ColorForm 12tet 26 6 1 10 -208064
-1 -1 0;
#N canvas 539 257 201 248 label 0;
#X msg 30 136 label \$1;
#X obj 38 14 inlet;
#X obj 30 164 outlet;
#X obj 38 37 select 0 1;
#X obj 112 164 outlet;
#X msg 78 72 just;
#X msg 38 71 12tet;
#X obj 30 114 symbol;
#X connect 0 0 2 0;
#X connect 1 0 3 0;
#X connect 3 0 6 0;
#X connect 3 1 5 0;
#X connect 5 0 4 0;
#X connect 5 0 7 0;
#X connect 6 0 4 0;
#X connect 6 0 7 0;
#X connect 7 0 0 0;
#X restore 194 402 pd label;
#X obj 366 251 cnv 4 10 4 empty empty empty 20 12 0 14 -260097 -66577
0;
#X obj 348 177 inlet;
#X text 352 161 MIDI;
#X obj 53 29 cnv 15 730 130 empty empty empty 20 12 0 14 -4033 -66577
0;
#X obj 188 95 pddp/pddplink http://puredata.info/docs/faq/how-do-i-install-externals-and-help-files
;
#X text 57 31 ATTENTION ce MiniModule utilise des objets qui ne sont
pas inclus dans Pd-extended.;
#X text 425 31 WARNING this MiniModule uses objects that are not included
in Pd-extended.;
#X text 59 67 Placer les fichiers correpondants dans le même dossier
que le patch contenant le MiniModule ou dans un dosier spécial:;
#X text 425 67 Put the corresponding files in the same folder as the
patch containing the MiniModule or in a special folder:;
#X text 330 109 MacOS: +bubbler~.pd_darwin;
#X text 318 120 Windows: +bubbler~.dll;
#X text 312 131 Linux32b: +bubbler~.pd_linux;
#X text 312 142 Linux64b: linux64/+bubbler~.pd_linux;
#X text 630 141 cf ExMM203-Bubbler;
#X msg 126 344 0;
#X obj 80 242 delay 100;
#X obj 137 263 * 2;
#X msg 36 341 50;
#X obj 382 570 +bubbler~;
#X msg 491 402 time 100;
#X obj 486 177 loadbang;
#X obj 486 202 delay 100;
#X obj 427 227 delay 100;
#X text 549 199 pour un effet stereo;
#X msg 445 479 60 0 \, 61 0 \, 62 0 \, 63 0 \, 64 0 \, 65 0 \, 66 0
\, 67 0 \, 68 0 \, 69 0 \, 70 0 \, 71 0;
#X msg 445 440 60 1 \, 61 1 \, 62 1 \, 63 1 \, 64 1 \, 65 1 \, 66 1
\, 67 1 \, 68 1 \, 69 1 \, 70 1 \, 71 1;
#X obj 417 538 t a;
#X obj 137 285 max 300;
#X obj 701 593 cnv 15 42 25 empty empty empty 20 12 0 14 -24198 -66577
0;
#N canvas 336 174 309 137 ?. 0;
#X obj 3 83 cnv 15 300 46 empty empty empty 20 12 0 14 -224896 -66577
0;
#X obj 3 6 cnv 18 300 70 empty empty ARGOPdMiniModules 3 10 1 14 -4033
-1 1.04858e+06;
#X obj 26 26 cnv 10 10 10 empty empty Gerard 0 5 1 11 -4033 -1 1.04858e+06
;
#X obj 64 26 cnv 10 10 10 empty empty Paresys 0 5 1 11 -4033 -1 1.04858e+06
;
#X obj 7 37 pddp/pddplink http://gerard.paresys.free.fr/ARGOPd/;
#X text 8 85 Construit sous / Build under Pd 0.43.4-extended;
#X obj 8 111 pddp/pddplink http://puredata.info/downloads/pd-extended
;
#X obj 7 50 pddp/pddplink http://paresys.pagesperso-orange.fr/ARGOPd/
;
#X text 7 98 or Pd-0.46-7 + deken;
#X restore 705 597 pd ?.;
#X text 493 252 13 2 2018;
#X connect 3 0 14 0;
#X connect 3 0 21 0;
#X connect 4 0 14 3;
#X connect 4 0 81 0;
#X connect 7 0 12 0;
#X connect 7 0 24 0;
#X connect 7 0 79 0;
#X connect 10 0 11 0;
#X connect 11 0 10 0;
#X connect 11 1 54 0;
#X connect 12 0 7 0;
#X connect 13 0 14 2;
#X connect 13 0 53 0;
#X connect 14 0 5 0;
#X connect 14 1 6 0;
#X connect 17 0 31 0;
#X connect 18 0 19 0;
#X connect 18 0 35 0;
#X connect 19 0 18 0;
#X connect 20 0 43 0;
#X connect 21 0 14 1;
#X connect 22 0 21 0;
#X connect 22 0 81 0;
#X connect 23 0 22 0;
#X connect 24 0 22 0;
#X connect 25 0 38 0;
#X connect 26 0 18 0;
#X connect 26 0 51 0;
#X connect 26 0 57 0;
#X connect 26 0 59 0;
#X connect 26 0 61 0;
#X connect 27 0 7 0;
#X connect 28 0 33 0;
#X connect 28 0 40 0;
#X connect 28 0 13 0;
#X connect 29 0 47 0;
#X connect 30 0 49 0;
#X connect 31 0 87 0;
#X connect 31 1 88 0;
#X connect 31 2 26 0;
#X connect 31 3 29 0;
#X connect 31 4 30 0;
#X connect 31 6 25 0;
#X connect 31 7 27 0;
#X connect 31 8 28 0;
#X connect 31 9 32 0;
#X connect 32 0 10 0;
#X connect 33 0 34 0;
#X connect 33 0 23 0;
#X connect 34 0 33 0;
#X connect 35 0 22 0;
#X connect 36 0 22 0;
#X connect 37 0 22 0;
#X connect 38 0 39 0;
#X connect 38 0 37 0;
#X connect 39 0 38 0;
#X connect 40 0 41 0;
#X connect 40 0 36 0;
#X connect 41 0 40 0;
#X connect 42 0 7 0;
#X connect 42 0 18 0;
#X connect 43 1 78 0;
#X connect 43 2 77 0;
#X connect 44 0 22 0;
#X connect 45 0 22 0;
#X connect 46 0 22 0;
#X connect 47 0 48 0;
#X connect 47 0 44 0;
#X connect 48 0 47 0;
#X connect 49 0 50 0;
#X connect 49 0 45 0;
#X connect 50 0 49 0;
#X connect 51 0 52 0;
#X connect 51 0 46 0;
#X connect 52 0 51 0;
#X connect 53 0 13 0;
#X connect 54 0 22 0;
#X connect 55 0 22 0;
#X connect 56 0 22 0;
#X connect 57 0 58 0;
#X connect 57 0 55 0;
#X connect 58 0 57 0;
#X connect 59 0 60 0;
#X connect 59 0 56 0;
#X connect 60 0 59 0;
#X connect 61 0 62 0;
#X connect 62 0 61 0;
#X connect 62 1 22 0;
#X connect 64 0 89 0;
#X connect 77 0 35 0;
#X connect 78 0 80 0;
#X connect 78 0 42 0;
#X connect 79 0 90 0;
#X connect 80 0 24 0;
#X connect 81 0 14 4;
#X connect 82 0 81 0;
#X connect 83 0 84 0;
#X connect 84 0 82 0;
#X connect 84 0 85 0;
#X connect 85 0 7 0;
#X connect 87 0 89 0;
#X connect 88 0 89 0;
#X connect 89 0 81 1;
#X connect 89 0 21 1;
#X connect 90 0 42 1;
#X coords 0 -1 1 1 144 174 1 300 250;
#X restore 388 188 pd ARGO;
#X obj 62 206 pddp/pddplink http://soundhack.henfast.com/freeware/
;
#X text 62 191 a pd external in soundhack-0.0.8-pd;
#X text 61 166 MM +bubbler;
#X text 62 179 Based on Tom Erbe's work: "+bubbler~";
#X obj 4 6 cnv 15 730 130 empty empty empty 20 12 0 14 -4033 -66577
0;
#X obj 139 72 pddp/pddplink http://puredata.info/docs/faq/how-do-i-install-externals-and-help-files
;
#X text 10 44 Placer les fichiers correpondants dans le même dossier
que le patch contenant le MiniModule ou dans un dosier spécial:;
#X text 376 44 Put the corresponding files in the same folder as the
patch containing the MiniModule or in a special folder:;
#X text 281 86 MacOS: +bubbler~.pd_darwin;
#X text 269 97 Windows: +bubbler~.dll;
#X text 263 108 Linux32b: +bubbler~.pd_linux;
#X text 263 119 Linux64b: linux64/+bubbler~.pd_linux;
#X text 623 116 cf ExMM203-Bubbler;
#X text 8 8 ATTENTION +bubbler utilise des objets qui ne sont pas inclus
dans Pd-extended.;
#X text 376 8 WARNING +bubbler uses objects that are not included in
Pd-extended.;
#X obj 326 138 cnv 15 54 25 empty empty empty 20 12 0 14 -24198 -66577
0;
#X text 331 140 Clic ->;
#X text 59 220 "This is a delay using granular synthesis.";
#X obj 467 535 dac~ 1 2;
#X text 247 539 .wav file format recorder;
#X text 245 527 Enregistreur audio au format .wav;
#X text 293 375 Niveau general ->;
#X text 299 385 General level ->;
#X text 341 516 |;
#X text 341 511 ^;
#N canvas 413 140 402 279 ARGO 0;
#X obj 101 101 cnv 10 95 41 \$0-A \$0-B empty 20 12 0 14 -1 -1 1.04858e+06
;
#X obj 101 109 nbx 4 12 0 1e+37 0 0 \$0 \$0-ReceiveCpuPeak CPUPeak
45 7 1 11 -24198 -1 -24198 14 256;
#X obj 101 122 nbx 4 12 0 1e+37 0 0 \$0 \$0-ReceiveCpuMean CPUMean
45 7 1 11 -24198 -1 -24198 13.5 256;
#X obj 145 -55 cputime;
#X obj 145 -76 t b b;
#X text 188 24 (c) musil@iem.kug.ac.at;
#X text 230 37 IEM KUG;
#X text 78 18 CPU-load;
#X obj 144 -125 loadbang;
#X text 205 48 graz \, austria 2001;
#X obj 145 -100 metro 500;
#X obj 145 -34 * 0.2;
#X text 237 -88 -dsp-load in %;
#X text 228 -101 measure average- and peak-;
#X obj 37 18 * 100;
#X obj 37 63 int;
#X obj 37 41 + 0.499;
#X obj 37 86 * 0.01;
#N canvas 524 162 422 273 1p1zmodif 0;
#X text 134 89 (c) musil@iem.kug.ac.at;
#X text 179 99 IEM KUG;
#X obj 14 195 +;
#X text 151 108 graz \, austria 2001;
#X text 135 71 y[n] = a0*x[n] + a1*x[n-1] + b1*y[n-1];
#X text 18 13 x[n];
#X text 16 244 y[n];
#X text 84 111 y[n-1];
#X text 134 56 <float> control-IIR-filter 1.order;
#X obj 15 28 inlet;
#X obj 14 228 outlet;
#X obj 15 112 * 0.1;
#X obj 59 156 * 0.9;
#X text 139 144 a1 = 0;
#X text 139 155 b1 = 0.9;
#X text 139 133 a0 = 0.1;
#X obj 15 50 t f b;
#X text 135 40 Inspiré de 1p1z;
#X obj 59 112 f 0;
#X connect 2 0 10 0;
#X connect 2 0 18 1;
#X connect 9 0 16 0;
#X connect 11 0 2 0;
#X connect 12 0 2 1;
#X connect 16 0 11 0;
#X connect 16 1 18 0;
#X connect 18 0 12 0;
#X restore 37 -8 pd 1p1zmodif;
#X text 146 9 Inspiré de 5.reference/iemabs/help-dsp.pd;
#X text 141 83 25 3 2010;
#X connect 3 0 11 0;
#X connect 4 0 3 0;
#X connect 4 1 3 1;
#X connect 8 0 10 0;
#X connect 10 0 4 0;
#X connect 11 0 18 0;
#X connect 11 0 1 0;
#X connect 14 0 16 0;
#X connect 15 0 17 0;
#X connect 16 0 15 0;
#X connect 17 0 2 0;
#X connect 18 0 14 0;
#X coords 0 -1 1 1 97 43 1 100 100;
#X restore 75 372 pd ARGO;
#X obj 91 307 switch~;
#N canvas 608 166 228 173 ARGOnOff 0;
#X obj 100 100 tgl 18 1 \$0-SendOnOff \$0-ReceiveOnOff On/Off 20 11
1 14 -4033 -1 -1 1 1;
#X obj 99 10 loadbang;
#X msg 99 33 \; pd dsp 1;
#X obj 100 129 outlet;
#X text -50 99 Audio On/Off du patch ->;
#X text -22 45 Audio General On ->;
#X text 107 82 17 3 2010;
#X connect 0 0 3 0;
#X connect 1 0 2 0;
#X coords 0 -1 1 1 65 18 2 100 100;
#X restore 91 289 pd ARGOnOff;
#X text 96 273 V;
#X text 96 266 |;
#X text 84 255 On/Off Patch;
#X text 114 267 (Audio);
#N canvas 194 101 772 490 ARGO 0;
#X obj 360 103 cnv 10 20 10 empty empty Play. 1 5 1 14 -262144 -1 1.04858e+06
;
#X obj 82 450 outlet~;
#X obj -13 64 openpanel;
#X msg 212 378 1;
#X msg 137 330 0;
#X msg 34 115 set \$1;
#X msg 58 379 open \$1;
#X obj 197 291 t b b;
#X msg 167 378 set 0;
#X obj 175 233 sel 1 0;
#X obj 246 258 sel 1;
#X msg 117 379 set 1;
#X obj 42 7 loadbang;
#X obj 168 410 readsf~ 2;
#X obj 151 101 tgl 12 1 \$0-A \$0-B Play 14 6 1 9 -262144 -1 -1 1 1
;
#X obj 311 101 bng 12 250 50 0 \$0-A \$0-B Stop 14 6 1 9 -262144 -1
-1;
#X obj 249 101 tgl 12 1 \$0-A \$0-B Loop 15 6 1 9 -262144 -1 -1 0 1
;
#X obj 100 101 bng 12 250 50 0 \$0-A \$0-B empty 14 6 1 9 -262144 -1
-1;
#X obj 196 330 delay 5;
#X obj 101 6 inlet~;
#X obj 101 58 threshold~ 0.5 5 0.49 5;
#X obj 101 100 cnv 2 10 4 empty empty empty 20 12 0 14 -1 -66577 0
;
#X obj 102 101 cnv 2 8 2 empty empty empty 20 12 0 14 -262144 -66577
0;
#X text 75 81 Trig Decl;
#X obj -13 42 bang;
#X text 433 91 <- Click the name to change;
#X obj 49 170 cnv 15 400 50 empty empty empty 20 12 0 14 -260097 -66577
0;
#X text 51 169 Nom du fichier / File name;
#X text 451 178 <- Ajouter ../ devant le nom du fichier \; pour remonter
d'un dossier;
#X obj 570 45 cnv 15 60 30 empty empty empty 20 12 0 14 -24198 -66577
0;
#N canvas 309 46 570 589 Help 0;
#X obj 9 -296 cnv 15 400 100 empty empty empty 20 12 0 14 -233017 -66577
0;
#X text 12 -297 Citation;
#X obj 8 -51 cnv 15 550 310 empty empty empty 20 12 0 14 -258113 -66577
0;
#X text 20 -44 - Ne lit pas un fichier au format mp3 \, SoundDesigner
II (.SDII ou .SD2);
#X text 23 56 Solution: ouvrir puis sauver le fichier au format aiff
avec Audacity;
#X text 36 43 error: dsp: xxx.aiff: unknown or bad header format;
#X text 31 -281 READSF~ - read a soundfile;
#X text 30 -263 The wave \, aiff \, and nextstep formats are parsed
automatically \, although only 2- 3- and 4- byte samples are accepted
(4 bytes implies floating point and is not available in aiff format.)
;
#X text 13 -189 - Si le Patch est sauvé avec 1 Player contenant un
nom de fichier Audio \, ce fichier sera lu automatiquement à la prochaine
ouverture s'il n'a pas changé d'emplacement.;
#X text 191 206 If the sample rate of pd is set to 44100 \, files having
the sample rates of 44100 are correctly played \, other files will
be transposed.;
#X text 193 179 WARNING The sample rate of the output depends on the
system sample rate of pd:;
#X text 21 95 - ATTENTION Le taux d'échantillonnage de la lecture du
fichier dépends du taux d'échantillonnage de Pd.;
#X text 33 122 Si le taux d'échantillonnage de Pd est de 44100 (Menu
Preferences -> Audio Settings...) \, les fichiers échantillonnés à
44100 Hz sont lus correctement \, sinon ils sont transposés.;
#X text 12 -143 - Peut Ouvrir automatiquement 1 fichier qui se trouve
dans le même dossier que lui \, quelquesoit l'emplacement du dossier.
Pour cela ouvrir le module et taper le nom du fichier (sans chemin
d'accés) dans le message. Le dossier contenant le patch et le fichier
Audio est ainsi transportable.;
#X text 21 4 - Ne lit pas un fichier au format aiff "Entier petit boutien"
comme les pistes d'un CD Audio copiées avec le finder du Mac. Le message
d'erreur s'affichent:;
#X text 8 -434 MM Audio-Play;
#X text 18 -404 Le canal 2 d'un fichier Audio Stereo est mélangé au
canal 1;
#X text 18 -390 Les canaux 3 \, 4... d'un fichier Audio de plus de
2 canaux ne sont pas lus.;
#X text 197 -328 Channels 3 \, 4... of an Audio file of more than 2
channels are not read.;
#X text 197 -342 Channel 2 of a Stereo Audio file is mixed with channel
1;
#X text 19 -418 Lit un fichier Audio Mono (1 canal) au format aiff
\, wav.;
#X text 198 -357 Reads a Mono Audio file (1 channel) with aiff \, wav
format..;
#X restore 577 51 pd Help;
#X obj 246 232 f;
#X obj 174 142 f;
#X obj -12 84 t b b s;
#X obj 383 434 cnv 15 240 24 empty empty empty 20 12 0 14 -261682 -66577
0;
#X text 433 432 -> Bang à la fin du fichier;
#X text 434 442 -> Bang at the end of the file;
#X obj 388 438 outlet;
#X obj 54 236 zexy/list2symbol;
#X text 340 83 26 2 2016;
#X obj 634 434 cnv 15 54 25 empty empty empty 20 12 0 14 -24198 -66577
0;
#N canvas 336 174 313 131 ???? 0;
#X obj 3 83 cnv 15 300 38 empty empty empty 20 12 0 14 -224896 -66577
0;
#X obj 3 6 cnv 18 300 70 empty empty ARGOPdMiniModules 3 10 1 14 -4033
-1 1.04858e+06;
#X obj 26 26 cnv 10 10 10 empty empty Gerard 0 5 1 11 -4033 -1 1.04858e+06
;
#X obj 64 26 cnv 10 10 10 empty empty Paresys 0 5 1 11 -4033 -1 1.04858e+06
;
#X obj 7 37 pddp/pddplink http://gerard.paresys.free.fr/ARGOPd/;
#X text 8 85 Construit sous / Build under Pd 0.43.4-extended;
#X obj 17 100 pddp/pddplink http://puredata.info/downloads/pd-extended
;
#X obj 7 50 pddp/pddplink http://paresys.pagesperso-orange.fr/ARGOPd/
;
#X restore 638 438 pd ????;
#X obj 103 114 hsl 275 14 0 127 0 0 \$0-A \$0-B empty -2 -8 0 10 -262144
-262144 -1 0 1;
#X symbolatom 100 114 47 0 0 0 - - #0-A, f 47;
#X obj 380 116 bng 12 50 20 0 \$0-A \$0-B empty 14 6 1 9 -262144 -1
-1;
#X obj 223 444 outlet~;
#X obj 242 129 cnv 4 10 4 empty empty empty 20 12 0 14 -1 -66577 0
;
#X obj 101 129 cnv 4 10 4 empty empty empty 20 12 0 14 -1 -66577 0
;
#X obj 381 129 cnv 4 10 4 empty empty empty 20 12 0 14 -260097 -66577
0;
#X msg 53 189 å·¦-å³(Chine).wav;
#X connect 2 0 33 0;
#X connect 3 0 13 0;
#X connect 4 0 13 0;
#X connect 5 0 49 0;
#X connect 6 0 13 0;
#X connect 7 0 18 0;
#X connect 7 1 49 0;
#X connect 8 0 14 0;
#X connect 9 0 7 0;
#X connect 9 1 8 0;
#X connect 9 1 4 0;
#X connect 10 0 17 0;
#X connect 11 0 14 0;
#X connect 12 0 49 0;
#X connect 13 0 1 0;
#X connect 13 1 45 0;
#X connect 13 2 8 0;
#X connect 13 2 31 0;
#X connect 13 2 44 0;
#X connect 14 0 32 0;
#X connect 15 0 4 0;
#X connect 15 0 8 0;
#X connect 16 0 31 1;
#X connect 17 0 7 0;
#X connect 18 0 3 0;
#X connect 18 0 11 0;
#X connect 19 0 20 0;
#X connect 20 0 17 0;
#X connect 24 0 2 0;
#X connect 31 0 10 0;
#X connect 32 0 9 0;
#X connect 33 0 32 0;
#X connect 33 1 49 0;
#X connect 33 2 5 0;
#X connect 38 0 6 0;
#X connect 38 0 43 0;
#X connect 42 0 24 0;
#X connect 44 0 37 0;
#X connect 49 0 38 0;
#X coords 0 -1 1 1 292 34 2 100 100;
#X restore 388 140 pd ARGO;
#X obj 683 521 cnv 15 42 25 empty empty empty 20 12 0 14 -24198 -66577
0;
#N canvas 336 174 309 137 ?. 0;
#X obj 3 83 cnv 15 300 46 empty empty empty 20 12 0 14 -224896 -66577
0;
#X obj 3 6 cnv 18 300 70 empty empty ARGOPdMiniModules 3 10 1 14 -4033
-1 1.04858e+06;
#X obj 26 26 cnv 10 10 10 empty empty Gerard 0 5 1 11 -4033 -1 1.04858e+06
;
#X obj 64 26 cnv 10 10 10 empty empty Paresys 0 5 1 11 -4033 -1 1.04858e+06
;
#X obj 7 37 pddp/pddplink http://gerard.paresys.free.fr/ARGOPd/;
#X text 8 85 Construit sous / Build under Pd 0.43.4-extended;
#X obj 8 111 pddp/pddplink http://puredata.info/downloads/pd-extended
;
#X obj 7 50 pddp/pddplink http://paresys.pagesperso-orange.fr/ARGOPd/
;
#X text 7 98 or Pd-0.46-7 + deken;
#X restore 687 525 pd ?.;
#N canvas 175 68 381 386 ARGO 0;
#X obj 101 101 cnv 20 116 34 empty ColorAmpli empty 20 12 0 14 -261299
-1 1.04858e+06;
#X obj 85 353 outlet~;
#X obj 157 104 cnv 10 20 10 empty ColorAmpli Ampli. 1 5 1 14 -261299
-1 1.04858e+06;
#X obj 85 43 inlet~;
#X obj 85 330 *~;
#X obj 115 118 hsl 101 12 -80 20 0 1 \$0-A ColorAmpli -10dB 0 7 1 9
-261299 -1 -1 7000 0;
#X obj 101 101 cnv 4 10 4 empty empty empty 20 12 0 14 -1 -66577 0
;
#X obj 101 131 cnv 4 10 4 empty empty empty 20 12 0 14 -1 -66577 0
;
#X obj 207 101 cnv 4 10 4 empty empty empty 20 12 0 14 -1 -66577 0
;
#X obj 207 131 cnv 4 10 4 empty empty empty 20 12 0 14 -1 -66577 0
;
#X obj 222 352 outlet~;
#X obj 222 42 inlet~;
#X obj 222 329 *~;
#X msg -42 138 label \$1;
#X text 148 194 -> 0.0001..10 = -80dB..20dB;
#X obj 142 175 expr (pow(10 \, $f1 / 20));
#X obj 142 215 sel 0.0001;
#X msg 100 244 0;
#X obj 100 118 tgl 12 1 \$0-A \$0-B Mute 2 -5 1 9 -261299 -1 -1 0 1
;
#X obj 99 146 select 0 1;
#X obj 140 295 line~;
#X obj 140 275 pack 0 10;
#X msg 123 74 set 0;
#X obj -42 92 cyclone/sprintf %ddB;
#X text 228 110 6 3 2016;
#X obj -42 115 cyclone/tosymbol;
#X obj 273 344 cnv 15 42 25 empty empty empty 20 12 0 14 -24198 -66577
0;
#N canvas 336 174 309 137 ?. 0;
#X obj 3 83 cnv 15 300 46 empty empty empty 20 12 0 14 -224896 -66577
0;
#X obj 3 6 cnv 18 300 70 empty empty ARGOPdMiniModules 3 10 1 14 -4033
-1 1.04858e+06;
#X obj 26 26 cnv 10 10 10 empty empty Gerard 0 5 1 11 -4033 -1 1.04858e+06
;
#X obj 64 26 cnv 10 10 10 empty empty Paresys 0 5 1 11 -4033 -1 1.04858e+06
;
#X obj 7 37 pddp/pddplink http://gerard.paresys.free.fr/ARGOPd/;
#X text 8 85 Construit sous / Build under Pd 0.43.4-extended;
#X obj 8 111 pddp/pddplink http://puredata.info/downloads/pd-extended
;
#X obj 7 50 pddp/pddplink http://paresys.pagesperso-orange.fr/ARGOPd/
;
#X text 7 98 or Pd-0.46-7 + deken;
#X restore 277 348 pd ?.;
#X connect 3 0 4 0;
#X connect 4 0 1 0;
#X connect 5 0 15 0;
#X connect 5 0 23 0;
#X connect 11 0 12 0;
#X connect 12 0 10 0;
#X connect 13 0 5 0;
#X connect 15 0 16 0;
#X connect 16 0 17 0;
#X connect 16 1 21 0;
#X connect 16 1 22 0;
#X connect 17 0 21 0;
#X connect 17 0 25 0;
#X connect 18 0 19 0;
#X connect 19 0 5 0;
#X connect 19 1 17 0;
#X connect 20 0 12 1;
#X connect 20 0 4 1;
#X connect 21 0 20 0;
#X connect 22 0 18 0;
#X connect 23 0 25 0;
#X connect 25 0 13 0;
#X coords 0 -1 1 1 118 36 1 100 100;
#X restore 401 370 pd ARGO;
#N canvas 286 45 728 239 ARGO 0;
#X obj 239 36 inlet~;
#X text 77 17 Left input;
#X text 224 17 Right input;
#X text 356 37 Stereo wav file format recorder;
#X text 356 52 Enregistreur de fichier audio wav à 2 canaux (stereo)
;
#X obj 88 36 inlet~;
#X obj 171 198 writesf~ 2;
#X text 356 67 L'extension .wav est ajoutée au nom du fichier automatiquement
;
#X obj 103 100 hsl 161 17 0 127 0 0 \$0-A \$0-B Record. 103 10 1 14
-261299 -261299 -1 0 1;
#X obj 255 101 cnv 4 10 4 empty empty empty 20 12 0 14 -1 -66577 0
;
#X obj 101 101 cnv 4 10 4 empty empty empty 20 12 0 14 -1 -66577 0
;
#X obj 112 100 nbx 4 17 0 9999 0 0 \$0-A ColorTime sec 59 9 1 15 -208064
-1 -1 0 256;
#X text 355 103 Clic n'importe où pour commencer un enregistrement
Audio -> Clic encore pour arrêter l'enregistrement;
#X text 456 130 Click anywhere to start recording Audio ->;
#X text 455 142 Click again to stop recording;
#X text 121 122 Hslider caché transformé en bouton;
#N canvas 415 66 351 399 record2 0;
#X obj 136 95 sel 0 1;
#X msg 171 260 start;
#X msg 107 259 stop;
#X msg 155 150 open \$1;
#X obj 155 126 savepanel;
#X obj 165 203 delay 1000;
#X obj 245 323 float;
#X obj 291 322 + 1;
#X obj 223 295 metro 1000;
#X msg 291 296 -1;
#X msg 11 257 0;
#X msg 42 257 1;
#X obj 66 210 t b b;
#X obj 165 229 t b b b b;
#N canvas 317 143 290 366 CouleurRecord2 0;
#X obj 122 -19 +;
#X obj 122 37 +;
#X obj 61 -75 * -65536;
#X obj 117 -75 * -256;
#X obj 163 -77 * -1;
#X obj 122 68 - 1;
#X obj 115 -202 inlet;
#X text 77 -97 R;
#X text 123 -99 G;
#X text 172 -98 B;
#X obj 122 123 outlet;
#X text 170 -169 Rouge;
#X msg 134 -121 255;
#X msg 167 -121 0;
#X obj 115 -178 sel 0 1;
#X text 56 -170 Rose;
#X msg 73 -121 200;
#X msg 40 -121 252;
#X obj 134 -148 t b b b;
#X msg 198 -121 0;
#X msg 104 -121 200;
#X obj 40 -148 t b b b;
#X msg 122 96 color \$1 \$1 -1;
#X connect 0 0 1 1;
#X connect 1 0 5 0;
#X connect 2 0 1 0;
#X connect 3 0 0 0;
#X connect 4 0 0 1;
#X connect 5 0 22 0;
#X connect 6 0 14 0;
#X connect 12 0 2 0;
#X connect 13 0 3 0;
#X connect 14 0 21 0;
#X connect 14 1 18 0;
#X connect 16 0 3 0;
#X connect 17 0 2 0;
#X connect 18 0 12 0;
#X connect 18 1 13 0;
#X connect 18 2 19 0;
#X connect 19 0 4 0;
#X connect 20 0 4 0;
#X connect 21 0 17 0;
#X connect 21 1 16 0;
#X connect 21 2 20 0;
#X connect 22 0 10 0;
#X restore 25 326 pd CouleurRecord2;
#X obj 136 75 tgl 15 0 \$0-A \$0-B empty 19 9 1 12 -262144 -258113
-1 0 1;
#X obj 136 30 b;
#X obj 136 52 delay 200;
#X obj 136 8 inlet;
#X obj 25 356 outlet;
#X text 22 372 Couleur;
#X obj 291 356 outlet;
#X text 288 372 Compteur;
#X obj 155 356 outlet;
#X text 152 372 writesf;
#X obj 199 176 t b b;
#X msg 72 33 0;
#X obj 72 8 loadbang;
#X msg 260 124 set 0;
#X msg 261 173 set 1;
#X obj 261 149 b;
#X connect 0 0 12 0;
#X connect 0 1 4 0;
#X connect 0 1 28 0;
#X connect 1 0 23 0;
#X connect 2 0 8 0;
#X connect 2 0 23 0;
#X connect 3 0 23 0;
#X connect 3 0 25 0;
#X connect 4 0 3 0;
#X connect 4 0 30 0;
#X connect 5 0 13 0;
#X connect 6 0 7 0;
#X connect 7 0 6 1;
#X connect 7 0 21 0;
#X connect 8 0 6 0;
#X connect 9 0 7 0;
#X connect 10 0 14 0;
#X connect 11 0 14 0;
#X connect 12 0 10 0;
#X connect 12 1 2 0;
#X connect 13 0 11 0;
#X connect 13 1 1 0;
#X connect 13 2 8 0;
#X connect 13 3 9 0;
#X connect 14 0 19 0;
#X connect 15 0 0 0;
#X connect 16 0 17 0;
#X connect 17 0 15 0;
#X connect 18 0 16 0;
#X connect 25 0 5 0;
#X connect 25 1 9 0;
#X connect 26 0 15 0;
#X connect 27 0 26 0;
#X connect 28 0 15 0;
#X connect 29 0 15 0;
#X connect 30 0 29 0;
#X restore 56 147 pd record2;
#X obj 636 186 cnv 15 42 25 empty empty empty 20 12 0 14 -24198 -66577
0;
#N canvas 336 174 309 137 ?. 0;
#X obj 3 83 cnv 15 300 46 empty empty empty 20 12 0 14 -224896 -66577
0;
#X obj 3 6 cnv 18 300 70 empty empty ARGOPdMiniModules 3 10 1 14 -4033
-1 1.04858e+06;
#X obj 26 26 cnv 10 10 10 empty empty Gerard 0 5 1 11 -4033 -1 1.04858e+06
;
#X obj 64 26 cnv 10 10 10 empty empty Paresys 0 5 1 11 -4033 -1 1.04858e+06
;
#X obj 7 37 pddp/pddplink http://gerard.paresys.free.fr/ARGOPd/;
#X text 8 85 Construit sous / Build under Pd 0.43.4-extended;
#X obj 8 111 pddp/pddplink http://puredata.info/downloads/pd-extended
;
#X obj 7 50 pddp/pddplink http://paresys.pagesperso-orange.fr/ARGOPd/
;
#X text 7 98 or Pd-0.46-7 + deken;
#X restore 640 190 pd ?.;
#X text 175 81 7 3 2016;
#X connect 0 0 6 1;
#X connect 5 0 6 0;
#X connect 8 0 16 0;
#X connect 16 0 8 0;
#X connect 16 1 6 0;
#X connect 16 2 11 0;
#X coords 0 -1 1 1 166 17 1 100 100;
#X restore 251 495 pd ARGO;
#N canvas 540 393 251 267 ARGO 0;
#X obj 101 101 cnv 30 49 130 empty ColorAmpli empty 20 12 0 14 -1 -258113
0;
#X obj 102 106 vu 8 120 \$0-B empty 0 0 1 11 -1 -4034 0 0;
#X obj 49 32 inlet~;
#X obj 22 105 cnv 15 60 30 empty empty empty 20 12 0 14 -24198 -66577
0;
#N canvas 300 65 442 264 Help 0;
#X obj 12 48 cnv 15 400 150 empty empty empty 20 12 0 14 -233017 -66577
0;
#X text 16 50 Citation;
#X text 28 67 peakamp~ tracks and outputs the absolute value of the
peak amplitude of the incoming signal. It outputs when banged or using
its own internal clock. The peak value is reset each time peakamp~
outputs a value.;
#X text 29 123 cyclone library;
#X text 28 135 http://suita.chopin.edu.pl/~czaja/miXed/externs/cyclone.html
;
#X text 29 155 Voir doc Max/MSP MSP46ReferenceManual.pdf;
#X text 18 14 MM-Vumetre;
#X restore 29 111 pd Help;
#N canvas 541 112 317 265 VuMetre 0;
#X obj 48 19 inlet~;
#X obj 41 54 *~;
#X obj -25 132 snapshot~;
#X obj -25 155 sqrt;
#X obj -25 100 lop~ 10;
#X obj -25 179 rmstodb;
#X obj -88 19 loadbang;
#X obj -25 202 - 100;
#X obj 58 156 sqrt;
#X obj 58 180 rmstodb;
#X obj 58 203 - 100;
#X obj -89 102 metro 200;
#X obj -28 19 r SendFluid;
#X obj 58 102 cyclone/peakamp~ 1000;
#X obj -25 228 outlet;
#X obj 58 227 outlet;
#X connect 0 0 1 0;
#X connect 0 0 1 1;
#X connect 1 0 4 0;
#X connect 1 0 13 0;
#X connect 2 0 3 0;
#X connect 3 0 5 0;
#X connect 4 0 2 0;
#X connect 5 0 7 0;
#X connect 6 0 11 0;
#X connect 7 0 14 0;
#X connect 8 0 9 0;
#X connect 9 0 10 0;
#X connect 10 0 15 0;
#X connect 11 0 2 0;
#X connect 12 0 11 1;
#X connect 13 0 8 0;
#X restore 49 60 pd VuMetre;
#X obj 172 208 cnv 15 42 25 empty empty empty 20 12 0 14 -24198 -66577
0;
#N canvas 336 174 309 137 ?. 0;
#X obj 3 83 cnv 15 300 46 empty empty empty 20 12 0 14 -224896 -66577
0;
#X obj 3 6 cnv 18 300 70 empty empty ARGOPdMiniModules 3 10 1 14 -4033
-1 1.04858e+06;
#X obj 26 26 cnv 10 10 10 empty empty Gerard 0 5 1 11 -4033 -1 1.04858e+06
;
#X obj 64 26 cnv 10 10 10 empty empty Paresys 0 5 1 11 -4033 -1 1.04858e+06
;
#X obj 7 37 pddp/pddplink http://gerard.paresys.free.fr/ARGOPd/;
#X text 8 85 Construit sous / Build under Pd 0.43.4-extended;
#X obj 8 111 pddp/pddplink http://puredata.info/downloads/pd-extended
;
#X obj 7 50 pddp/pddplink http://paresys.pagesperso-orange.fr/ARGOPd/
;
#X text 7 98 or Pd-0.46-7 + deken;
#X restore 176 212 pd ?.;
#X obj 113 106 vu 8 120 \$0-B empty 0 0 1 11 -1 -4034 1 0;
#X obj 126 32 inlet~;
#N canvas 541 112 317 265 VuMetre 0;
#X obj 48 19 inlet~;
#X obj 41 54 *~;
#X obj -25 132 snapshot~;
#X obj -25 155 sqrt;
#X obj -25 100 lop~ 10;
#X obj -25 179 rmstodb;
#X obj -88 19 loadbang;
#X obj -25 202 - 100;
#X obj 58 156 sqrt;
#X obj 58 180 rmstodb;
#X obj 58 203 - 100;
#X obj -89 102 metro 200;
#X obj -28 19 r SendFluid;
#X obj 58 102 cyclone/peakamp~ 1000;
#X obj -25 228 outlet;
#X obj 58 227 outlet;
#X connect 0 0 1 0;
#X connect 0 0 1 1;
#X connect 1 0 4 0;
#X connect 1 0 13 0;
#X connect 2 0 3 0;
#X connect 3 0 5 0;
#X connect 4 0 2 0;
#X connect 5 0 7 0;
#X connect 6 0 11 0;
#X connect 7 0 14 0;
#X connect 8 0 9 0;
#X connect 9 0 10 0;
#X connect 10 0 15 0;
#X connect 11 0 2 0;
#X connect 12 0 11 1;
#X connect 13 0 8 0;
#X restore 126 60 pd VuMetre;
#X text 153 84 17 3 2016;
#X connect 2 0 5 0;
#X connect 5 0 1 0;
#X connect 5 1 1 1;
#X connect 9 0 10 0;
#X connect 10 0 8 0;
#X connect 10 1 8 1;
#X coords 0 -1 1 1 51 132 2 100 100;
#X restore 530 420 pd ARGO;
#X connect 1 0 37 0;
#X connect 1 1 37 1;
#X connect 29 0 28 0;
#X connect 34 0 1 0;
#X connect 34 1 1 2;
#X connect 37 0 20 0;
#X connect 37 0 38 0;
#X connect 37 0 39 0;
#X connect 37 1 20 1;
#X connect 37 1 38 1;
#X connect 37 1 39 1;
