#N canvas 217 23 751 447 10;
#X obj 4 5 cnv 15 15 15 empty empty ExMM99a-PitchShift2.pd 0 8 1 14
-262144 -1 0;
#X text 188 300 Adjust ->;
#X floatatom 392 257 5 0 0 2 - - -;
#X msg 360 227 -5;
#X msg 425 227 5;
#X msg 392 227 0;
#X obj 168 230 switch~;
#N canvas 608 166 228 173 ARGOnOff 0;
#X obj 100 100 tgl 18 1 \$0-SendOnOff \$0-ReceiveOnOff On/Off 20 11
1 14 -4033 -1 -1 1 1;
#X obj 99 10 loadbang;
#X msg 99 33 \; pd dsp 1;
#X obj 100 129 outlet;
#X text -50 99 Audio On/Off du patch ->;
#X text -22 45 Audio General On ->;
#X text 107 82 17 3 2010;
#X connect 0 0 3 0;
#X connect 1 0 2 0;
#X coords 0 -1 1 1 65 18 2 100 100;
#X restore 168 212 pd ARGOnOff;
#X text 173 196 V;
#X text 173 189 |;
#X text 161 178 On/Off Patch;
#X text 402 279 <- -24..+12 semitones;
#X obj 13 26 cnv 15 730 140 empty empty empty 20 12 0 14 -4033 -66577
0;
#X obj 142 98 pddp/pddplink http://puredata.info/docs/faq/how-do-i-install-externals-and-help-files
;
#X text 379 65 Put the corresponding file in the same folder as the
patch containing the MiniModule or in a special folder:;
#X text 18 65 Placer le fichier correpondant dans le même dossier que
le patch contenant le MiniModule ou dans un dosier spécial:;
#X text 58 115 Sous MacOS exige soundtouch~.pd_darwin.;
#X text 58 128 Sous Linux exige soundtouch~.pd_linux.;
#X text 58 141 Sous Windows exige soundtouch~.dll.;
#X text 430 115 Under MacOS requires soundtouch~.pd_darwin.;
#X text 430 128 Under Linux requires soundtouch~.pd_linux.;
#X text 430 141 Under Windows requires Soundtouch~.dll.;
#N canvas 293 120 776 424 ARGO 0;
#X obj 319 104 cnv 10 20 10 empty empty Audio-Play. 1 5 1 14 -262144
-1 1.04858e+06;
#X obj 101 131 cnv 4 10 4 empty empty empty 20 12 0 14 -1 -66577 0
;
#X obj 111 317 outlet~;
#X obj -14 44 openpanel;
#X msg 25 100 set \$1;
#X obj -67 -45 loadbang;
#X text 14 260 avec espace;
#X obj 194 101 tgl 12 1 \$0-A \$0-B Play-2.7sec 14 6 1 9 -262144 -1
-1 1 1;
#X obj 158 101 bng 12 250 50 0 \$0-A \$0-B Stop 14 6 1 9 -262144 -1
-1;
#X obj 121 101 tgl 12 1 \$0-A \$0-B Loop 14 6 1 9 -262144 -1 -1 1 1
;
#X obj 100 101 bng 12 250 50 0 \$0-A \$0-B empty 14 6 1 9 -262144 -1
-1;
#X obj -14 22 bang;
#X obj -5 146 cnv 15 400 50 empty empty empty 20 12 0 14 -260097 -66577
0;
#X text -3 145 Nom du fichier / File name;
#X obj 101 101 cnv 4 10 4 empty empty empty 20 12 0 14 -260097 -66577
0;
#X obj 388 123 bng 12 50 20 0 \$0-A \$0-B empty 0 0 1 9 -262144 -1
-1;
#X obj 389 131 cnv 4 10 4 empty empty empty 20 12 0 14 -260097 -66577
0;
#X obj -7 -48 cnv 15 240 24 empty empty empty 20 12 0 14 -261682 -66577
0;
#X obj -6 -45 inlet;
#X obj 382 313 cnv 15 240 24 empty empty empty 20 12 0 14 -261682 -66577
0;
#X text 432 311 -> Bang à la fin du fichier;
#X text 433 321 -> Bang at the end of the file;
#X obj 387 317 outlet;
#X obj 97 -18 r \$0-SendOnOff;
#X obj 97 5 select 0;
#X obj 507 80 cnv 15 60 30 empty empty empty 20 12 0 14 -24198 -66577
0;
#N canvas 274 41 583 622 Help 0;
#X obj 15 147 cnv 15 400 100 empty empty empty 20 12 0 14 -233017 -66577
0;
#X text 18 146 Citation;
#X obj 14 392 cnv 15 550 310 empty empty empty 20 12 0 14 -258113 -66577
0;
#X text 26 399 - Ne lit pas un fichier au format mp3 \, SoundDesigner
II (.SDII ou .SD2);
#X text 29 499 Solution: ouvrir puis sauver le fichier au format aiff
avec Audacity;
#X text 42 486 error: dsp: xxx.aiff: unknown or bad header format;
#X text 37 162 READSF~ - read a soundfile;
#X text 36 180 The wave \, aiff \, and nextstep formats are parsed
automatically \, although only 2- 3- and 4- byte samples are accepted
(4 bytes implies floating point and is not available in aiff format.)
;
#X text 19 254 - Si le Patch est sauvé avec 1 Player contenant un nom
de fichier Audio \, ce fichier sera lu automatiquement à la prochaine
ouverture s'il n'a pas changé d'emplacement.;
#X text 27 538 - ATTENTION Le taux d'échantillonnage de la lecture
du fichier dépends du taux d'échantillonnage de Pd.;
#X text 39 565 Si le taux d'échantillonnage de Pd est de 44100 (Menu
Preferences -> Audio Settings...) \, les fichiers échantillonnés à
44100 Hz sont lus correctement \, sinon ils sont transposés.;
#X text 18 300 - Peut Ouvrir automatiquement 1 fichier qui se trouve
dans le même dossier que lui \, quelquesoit l'emplacement du dossier.
Pour cela ouvrir le module et taper le nom du fichier (sans chemin
d'accés) dans le message. Le dossier contenant le patch et le fichier
Audio est ainsi transportable.;
#X text 27 447 - Ne lit pas un fichier au format aiff "Entier petit
boutien" comme les pistes d'un CD Audio copiées avec le finder du Mac.
Le message d'erreur s'affichent:;
#X text 5 4 MM Audio-Play;
#X text 199 622 WARNING The sample rate of the output depends on the
system sample rate of Pd:;
#X text 197 649 If the sample rate of Pd is set to 44100 \, files having
the sample rates of 44100 are correctly played \, other files will
be transposed.;
#X text 200 99 A Mono Audio file is read on the left output.;
#X text 30 37 Le canal d'un fichier Audio Mono est lu sur la sortie
1;
#X text 30 24 Lit un fichier Audio 1 canal au format aiff \, wav.;
#X text 30 50 Les canaux 2 \, 3... d'un fichier Audio de plus de 1
canal ne sont pas lus.;
#X text 199 72 Reads a 1 channel Audio file with aiff \, wav format..
;
#X text 200 113 Channels 1 \, 2... of an Audio file of more than 1
channel are not read.;
#X restore 514 86 pd Help;
#X obj -14 67 t b b s;
#X obj 389 101 cnv 4 10 4 empty empty empty 20 12 0 14 -260097 -66577
0;
#X obj 481 -48 cnv 15 200 24 empty empty empty 20 12 0 14 -261682 -66577
0;
#X obj 485 -45 inlet;
#X text 522 -50 <- Nom d'un fichier Audio;
#X text 523 -40 <- Name of an Audio file;
#X text 12 239 list2symbol pour;
#X text 12 250 les noms de fichier;
#X obj 293 101 cnv 4 10 4 empty empty empty 20 12 0 14 -260097 -66577
0;
#X obj 237 -48 cnv 15 240 24 empty empty empty 20 12 0 14 -261682 -66577
0;
#X obj 241 -45 inlet;
#X text 278 -50 <- Nom d'un fichier Audio + Play;
#X text 279 -40 <- Name of an Audio file + Play;
#X text 415 172 ../ before the name goes up one level;
#X text 31 -51 <- N'importe quel message -> Play;
#X text 31 -40 <- Any message -> Play;
#X obj 193 -19 cnv 15 100 24 empty empty empty 20 12 0 14 -261682 -66577
0;
#X obj 194 -16 inlet;
#X text 231 -22 <- 1 Play;
#X text 231 -11 <- 0 Stop;
#X obj 195 102 cnv 4 10 4 empty empty empty 20 12 0 14 -260097 -66577
0;
#N canvas 238 155 791 372 player 0;
#X msg 235 158 1;
#X msg 204 158 0;
#X msg 120 158 open \$1;
#X obj 189 93 t b b;
#X msg 321 95 set 0;
#X obj 188 59 sel 1 0;
#X obj 263 95 sel 1;
#X msg 276 158 set 1;
#X obj 263 56 f;
#X obj 188 34 f;
#X obj 235 295 outlet;
#X text 237 311 readsf;
#X obj 321 9 inlet;
#X text 323 -20 bang;
#X obj 321 295 outlet;
#X text 331 324 Play;
#X obj 253 9 inlet;
#X text 258 -8 Loop;
#X obj 127 9 inlet;
#X text 132 -9 Stop;
#X obj 15 9 inlet;
#X text 20 -8 Open;
#X text 144 324 Trig Decl;
#X text 157 311 bang;
#X obj 149 295 outlet;
#X text 305 -8 End of file;
#X obj 188 9 inlet;
#X text 193 -8 Play;
#X obj 68 295 outlet;
#X text 46 311 Nom du fichier;
#X text 52 324 File name;
#X text 57 -8 Trig Decl;
#X text 70 -20 bang;
#X obj 72 9 inlet;
#X obj 258 128 delay 2;
#X text 189 -20 Toggle;
#X text 327 311 Toggle;
#N canvas 448 247 285 285 chrono 0;
#X obj 65 116 metro 100;
#X obj 112 173 float;
#X obj 161 143 + 1;
#X msg 128 116 0;
#X obj 84 85 t b b;
#X obj 84 61 inlet;
#X obj 112 230 outlet;
#X obj 112 198 / 10;
#X text 82 14 chrono;
#X obj 218 61 inlet;
#X msg 218 88 0;
#X obj 161 117 * 10;
#X text 113 245 number;
#X text 80 39 Start;
#X text 218 41 Stop;
#X connect 0 0 1 0;
#X connect 1 0 7 0;
#X connect 2 0 1 1;
#X connect 3 0 1 0;
#X connect 4 0 0 0;
#X connect 4 1 3 0;
#X connect 5 0 4 0;
#X connect 7 0 6 0;
#X connect 7 0 11 0;
#X connect 9 0 10 0;
#X connect 10 0 0 0;
#X connect 11 0 2 0;
#X restore 331 199 pd chrono;
#X msg 330 264 label \$1;
#X obj 330 242 cyclone/tosymbol;
#X obj 331 221 cyclone/sprintf Play-%ssec;
#X connect 0 0 10 0;
#X connect 0 0 37 0;
#X connect 1 0 10 0;
#X connect 1 0 37 1;
#X connect 2 0 10 0;
#X connect 3 0 34 0;
#X connect 3 1 28 0;
#X connect 4 0 14 0;
#X connect 5 0 3 0;
#X connect 5 1 4 0;
#X connect 5 1 1 0;
#X connect 6 0 24 0;
#X connect 7 0 14 0;
#X connect 8 0 6 0;
#X connect 9 0 5 0;
#X connect 12 0 8 0;
#X connect 12 0 4 0;
#X connect 12 0 37 1;
#X connect 16 0 8 1;
#X connect 18 0 4 0;
#X connect 18 0 1 0;
#X connect 20 0 2 0;
#X connect 26 0 9 0;
#X connect 33 0 3 0;
#X connect 34 0 0 0;
#X connect 34 0 7 0;
#X connect 37 0 40 0;
#X connect 38 0 14 0;
#X connect 39 0 38 0;
#X connect 40 0 39 0;
#X restore 171 246 pd player;
#X obj 241 12 t b b a;
#X obj 485 12 t b b a;
#X text 397 160 <- ../ devant le nom remonte d'un dossier;
#X obj 0 201 zexy/list2symbol;
#X obj 280 52 zexy/list2symbol;
#X obj 103 116 hsl 279 14 0 127 0 0 \$0-A \$0-B empty -2 -8 0 10 -262144
-262144 -1 0 1;
#X symbolatom 100 116 47 0 0 0 - - -;
#X obj 629 314 cnv 15 42 25 empty empty empty 20 12 0 14 -24198 -66577
0;
#N canvas 336 174 309 137 ?. 0;
#X obj 3 83 cnv 15 300 46 empty empty empty 20 12 0 14 -224896 -66577
0;
#X obj 3 6 cnv 18 300 70 empty empty ARGOPdMiniModules 3 10 1 14 -4033
-1 1.04858e+06;
#X obj 26 26 cnv 10 10 10 empty empty Gerard 0 5 1 11 -4033 -1 1.04858e+06
;
#X obj 64 26 cnv 10 10 10 empty empty Paresys 0 5 1 11 -4033 -1 1.04858e+06
;
#X obj 7 37 pddp/pddplink http://gerard.paresys.free.fr/ARGOPd/;
#X text 8 85 Construit sous / Build under Pd 0.43.4-extended;
#X obj 8 111 pddp/pddplink http://puredata.info/downloads/pd-extended
;
#X obj 7 50 pddp/pddplink http://paresys.pagesperso-orange.fr/ARGOPd/
;
#X text 7 98 or Pd-0.46-7 + deken;
#X restore 633 318 pd ?.;
#X obj 214 274 readsf~;
#X text 403 96 29 3 2017;
#X msg 0 162 bell.aiff;
#X connect 3 0 27 0;
#X connect 4 0 60 0;
#X connect 5 0 60 0;
#X connect 7 0 48 3;
#X connect 8 0 48 2;
#X connect 9 0 48 4;
#X connect 10 0 48 1;
#X connect 11 0 3 0;
#X connect 15 0 22 0;
#X connect 18 0 10 0;
#X connect 23 0 24 0;
#X connect 24 0 8 0;
#X connect 27 0 48 3;
#X connect 27 1 60 0;
#X connect 27 2 4 0;
#X connect 30 0 50 0;
#X connect 37 0 49 0;
#X connect 44 0 7 0;
#X connect 48 0 60 0;
#X connect 48 1 10 0;
#X connect 48 2 58 0;
#X connect 48 3 7 0;
#X connect 49 0 10 0;
#X connect 49 1 60 0;
#X connect 49 2 53 0;
#X connect 50 0 48 2;
#X connect 50 1 60 0;
#X connect 50 2 53 0;
#X connect 52 0 48 0;
#X connect 52 0 55 0;
#X connect 53 0 4 0;
#X connect 54 0 11 0;
#X connect 58 0 2 0;
#X connect 58 1 48 5;
#X connect 58 1 15 0;
#X connect 60 0 52 0;
#X coords 0 -1 1 1 300 36 2 100 100;
#X restore 249 177 pd ARGO;
#N canvas 362 47 318 312 ARGO 0;
#X obj 101 101 cnv 10 148 46 empty ColorForm PitchShift2. 65 9 1 14
-188398 -1 1.04858e+06;
#X obj 101 143 cnv 4 10 4 empty empty empty 20 12 0 14 -1 -66577 0
;
#X obj 93 50 inlet~;
#X obj 101 101 cnv 4 10 4 empty empty empty 20 12 0 14 -1 -66577 0
;
#X obj 93 262 outlet~;
#X obj 18 14 cnv 15 60 30 empty empty empty 20 12 0 14 -24198 -66577
0;
#N canvas 373 23 423 575 Help 0;
#X obj 10 28 cnv 15 400 310 empty empty empty 20 12 0 14 -233017 -66577
0;
#X text 13 30 Citation;
#X text 312 2 = Transposition;
#X text 10 5 PitchShift = Pitch shifting = Décalage en hauteur;
#X text 13 342 [soundtouch~] for Pd written by Katja Vetter;
#X text 14 387 based on Olli Parviainen's SoundTouch library;
#X obj 14 404 pddp/pddplink http://www.surina.net/soundtouch/;
#X text 25 47 [soundtouch~] is a Pure Data implementation of Olli Parviainen's
SoundTouch library \, ported by Katja Vetter. The class is implemented
as a real-time pitch shifter \, converting an audio stream to different
pitch. [soundtouch~] version 0.9 \, Aug 2011 for SoundTouch version
1.6 and Pure Data version 0.42;
#X obj 30 358 pddp/pddplink http://www.katjaas.nl/pitchshift/pitchshift.html
;
#X obj 30 370 pddp/pddplink http://www.katjaas.nl/pitchshift/soundtouch%7E.html
;
#X obj 14 416 pddp/pddplink http://www.surina.net/article/time-and-pitch-scaling.html
;
#X text 304 309 Katja Vetter;
#X text 25 138 "For me \, Pure Data's appeal is in it's unlimited options
for processing input signals. Therefore \, I am not going to worry
about soundfiles and index imprecision. I am more than happy with SoundTouch
built into [soundtouch~] as a realtime pitch shifter. My main purpose
for it is the transformation of speech and solo instruments in live
performance. Combined with the parametric Fourier filter described
on an earlier page \, and enhancements like filtering \, compression
and distortion \, the pitch shifter should be able to do a huge variety
of voice transformations. A single artist could impersonate a multitude
of characters with help of such a 'voicetrafo' module. More about that
on the page Instant Decomposer.";
#X obj 10 441 cnv 15 400 120 empty empty empty 20 12 0 14 -258113 -66577
0;
#X text 26 462 Notice that clicks and cracks during pitch-factor changes
are inherent to the way soundtouch~ binaries were built for this distribution
\, and a compile-time option exists to trade these artifacts for a
longer latency time (see section 'how to build'). Please do not send
me bug reports about this \, but instead recompile the class according
to your preference.;
#X text 18 446 Clicks;
#X restore 25 20 pd Help;
#X obj 103 118 hsl 145 12 -24 12 0 1 \$0-A ColorTime 5semitone 0 7
1 9 -208064 -1728 -1 11600 0;
#X obj 239 101 cnv 4 10 4 empty empty empty 20 12 0 14 -260097 -66577
0;
#N canvas 484 315 248 191 label 0;
#X obj 56 160 outlet;
#X obj 56 14 inlet;
#X msg 56 126 label \$1;
#X obj 56 41 expr (int(100 * $f1) / 100) \;;
#X obj 56 104 cyclone/tosymbol;
#X obj 56 70 cyclone/sprintf %ssemitone;
#X connect 1 0 3 0;
#X connect 2 0 0 0;
#X connect 3 0 5 0;
#X connect 4 0 2 0;
#X connect 5 0 4 0;
#X restore 16 108 pd label;
#X obj 149 47 cnv 15 100 24 empty empty empty 20 12 0 14 -261682 -66577
0;
#X text 149 44 Nombre ->;
#X text 149 54 Number ->;
#X obj 209 50 inlet;
#X obj 103 130 hsl 145 12 10 100 0 1 \$0-A ColorTime 40ms 0 7 1 9 -208064
-1728 -1 4900 0;
#N canvas 408 244 224 198 label 0;
#X obj 65 139 outlet;
#X obj 65 20 inlet;
#X msg 65 105 label \$1;
#X obj 65 83 cyclone/tosymbol;
#X obj 65 49 cyclone/sprintf %dms;
#X connect 1 0 4 0;
#X connect 2 0 0 0;
#X connect 3 0 2 0;
#X connect 4 0 3 0;
#X restore 16 136 pd label;
#X obj 93 237 soundtouch~ 40;
#X obj 174 207 exp;
#X obj 174 186 * 0.05776;
#X text 171 28 -24..+12 semitones;
#X msg 100 207 set \$1;
#X obj 218 241 cnv 15 52 22 empty empty empty 20 12 0 14 -24198 -66577
0;
#N canvas 353 174 321 152 ?... 0;
#X obj 8 84 cnv 15 300 56 empty empty empty 20 12 0 14 -224896 -66577
0;
#X obj 8 7 cnv 18 300 70 empty empty ARGOPdMiniModules 3 10 1 14 -4033
-1 1.04858e+06;
#X obj 31 27 cnv 10 10 10 empty empty Gerard 0 5 1 11 -4033 -1 1.04858e+06
;
#X obj 69 27 cnv 10 10 10 empty empty Paresys 0 5 1 11 -4033 -1 1.04858e+06
;
#X obj 12 40 pddp/pddplink http://gerard.paresys.free.fr/ARGOPd/;
#X obj 13 121 pddp/pddplink http://puredata.info/downloads/pd-extended
;
#X obj 13 97 pddp/pddplink http://puredata.info/downloads/pure-data
;
#X text 13 85 Construit sous / Build under Pd-0.49...;
#X text 12 109 or Pd 0.43.4-extended;
#X obj 12 53 pddp/pddplink https://paresys.pagesperso-orange.fr/ARGOPd/
;
#X restore 221 244 pd ?...;
#X text 195 83 1 9 2019;
#X connect 2 0 16 0;
#X connect 7 0 9 0;
#X connect 7 0 18 0;
#X connect 9 0 7 0;
#X connect 13 0 7 0;
#X connect 14 0 15 0;
#X connect 14 0 20 0;
#X connect 15 0 14 0;
#X connect 16 0 4 0;
#X connect 17 0 16 1;
#X connect 18 0 17 0;
#X connect 20 0 16 0;
#X coords 0 -1 1 1 150 48 1 100 100;
#X restore 249 286 pd ARGO;
#X obj 226 414 dac~ 1 2;
#X text 142 355 Niveau general ->;
#X text 148 365 General level ->;
#N canvas 175 68 374 396 ARGO 0;
#X obj 101 101 cnv 20 116 34 empty ColorAmpli empty 20 12 0 14 -261299
-1 1.04858e+06;
#X obj 85 353 outlet~;
#X obj 157 104 cnv 10 20 10 empty ColorAmpli Ampli. 1 5 1 14 -261299
-1 1.04858e+06;
#X obj 85 43 inlet~;
#X obj 85 330 *~;
#X obj 115 118 hsl 101 12 -80 20 0 1 \$0-A ColorAmpli -7dB 0 7 1 9
-261299 -1 -1 7300 0;
#X obj 101 101 cnv 4 10 4 empty empty empty 20 12 0 14 -1 -66577 0
;
#X obj 101 131 cnv 4 10 4 empty empty empty 20 12 0 14 -1 -66577 0
;
#X msg -42 139 label \$1;
#X text 148 194 -> 0.0001..10 = -80dB..20dB;
#X obj 142 175 expr (pow(10 \, $f1 / 20));
#X obj 142 215 sel 0.0001;
#X msg 100 244 0;
#X obj 100 118 tgl 12 1 \$0-A \$0-B Mute 2 -5 1 9 -261299 -1 -1 0 1
;
#X obj 99 146 select 0 1;
#X obj 140 295 line~;
#X obj 140 275 pack 0 10;
#X msg 123 74 set 0;
#X obj -42 93 cyclone/sprintf %ddB;
#X obj -42 116 cyclone/tosymbol;
#X obj 261 342 cnv 15 42 25 empty empty empty 20 12 0 14 -24198 -66577
0;
#N canvas 336 174 309 137 ?. 0;
#X obj 3 83 cnv 15 300 46 empty empty empty 20 12 0 14 -224896 -66577
0;
#X obj 3 6 cnv 18 300 70 empty empty ARGOPdMiniModules 3 10 1 14 -4033
-1 1.04858e+06;
#X obj 26 26 cnv 10 10 10 empty empty Gerard 0 5 1 11 -4033 -1 1.04858e+06
;
#X obj 64 26 cnv 10 10 10 empty empty Paresys 0 5 1 11 -4033 -1 1.04858e+06
;
#X obj 7 37 pddp/pddplink http://gerard.paresys.free.fr/ARGOPd/;
#X text 8 85 Construit sous / Build under Pd 0.43.4-extended;
#X obj 8 111 pddp/pddplink http://puredata.info/downloads/pd-extended
;
#X obj 7 50 pddp/pddplink http://paresys.pagesperso-orange.fr/ARGOPd/
;
#X text 7 98 or Pd-0.46-7 + deken;
#X restore 265 346 pd ?.;
#X text 228 110 17 3 2016;
#X connect 3 0 4 0;
#X connect 4 0 1 0;
#X connect 5 0 10 0;
#X connect 5 0 18 0;
#X connect 8 0 5 0;
#X connect 10 0 11 0;
#X connect 11 0 12 0;
#X connect 11 1 16 0;
#X connect 11 1 17 0;
#X connect 12 0 16 0;
#X connect 12 0 19 0;
#X connect 13 0 14 0;
#X connect 14 0 5 0;
#X connect 14 1 12 0;
#X connect 15 0 4 1;
#X connect 16 0 15 0;
#X connect 17 0 13 0;
#X connect 18 0 19 0;
#X connect 19 0 8 0;
#X coords 0 -1 1 1 118 36 1 100 100;
#X restore 249 345 pd ARGO;
#X obj 668 406 cnv 15 52 22 empty empty empty 20 12 0 14 -24198 -66577
0;
#N canvas 353 174 321 152 ?... 0;
#X obj 8 84 cnv 15 300 56 empty empty empty 20 12 0 14 -224896 -66577
0;
#X obj 8 7 cnv 18 300 70 empty empty ARGOPdMiniModules 3 10 1 14 -4033
-1 1.04858e+06;
#X obj 31 27 cnv 10 10 10 empty empty Gerard 0 5 1 11 -4033 -1 1.04858e+06
;
#X obj 69 27 cnv 10 10 10 empty empty Paresys 0 5 1 11 -4033 -1 1.04858e+06
;
#X obj 12 40 pddp/pddplink http://gerard.paresys.free.fr/ARGOPd/;
#X obj 13 121 pddp/pddplink http://puredata.info/downloads/pd-extended
;
#X obj 13 97 pddp/pddplink http://puredata.info/downloads/pure-data
;
#X text 13 85 Construit sous / Build under Pd-0.49...;
#X text 12 109 or Pd 0.43.4-extended;
#X obj 12 53 pddp/pddplink https://paresys.pagesperso-orange.fr/ARGOPd/
;
#X restore 671 409 pd ?...;
#X text 16 29 ATTENTION PitchShift2 utilise un objet qui n'est pas
inclus dans Pd ou Pd-extended.;
#X text 379 29 WARNING PitchShift2 uses an object that is not included
in Pd or Pd-extended.;
#X connect 2 0 23 1;
#X connect 3 0 2 0;
#X connect 4 0 2 0;
#X connect 5 0 2 0;
#X connect 7 0 6 0;
#X connect 22 0 23 0;
#X connect 23 0 27 0;
#X connect 27 0 24 0;
#X connect 27 0 24 1;
