#N canvas 650 23 288 516 10;
#X declare -stdlib Gem;
#X obj 7 9 cnv 15 15 15 empty empty ExMM210c-GEMVolume-Wave.pd 0 8
1 14 -262144 -1 0;
#X text 69 193 V;
#X text 69 186 |;
#X text 66 175 On/Off;
#X obj 112 436 bng 15 250 50 0 empty empty empty 17 7 0 10 -262144
-1 -1;
#X obj 129 431 cnv 15 54 25 empty empty empty 20 12 0 14 -24198 -66577
0;
#X text 131 434 <- Clic;
#N canvas 86 22 1025 608 ARGO 0;
#X obj 101 101 cnv 22 183 112 empty empty GEM. 5 12 1 18 -1 -262144
1.04858e+06;
#X obj 205 154 tgl 12 1 \$0-A \$0-ColorGEM (F)ullScreen 15 7 1 11 -24198
-1 -24198 0 1;
#X obj 103 124 tgl 12 1 \$0-A \$0-ColorGEM (G)EM 15 7 1 11 -24198 -1
-24198 1 1;
#X obj 205 139 tgl 12 1 \$0-A \$0-ColorGEM KeyShortCut 15 7 1 11 -24198
-1 -24198 0 1;
#X obj 283 -26 key;
#X msg 89 246 set \$1;
#X msg 70 268 1;
#X msg -36 505 frame \$1;
#X obj 283 11 spigot;
#X obj 70 -28 gemkeyname;
#X obj 628 453 select 0 1;
#X obj 80 220 t b f f f;
#X msg 644 500 color 16 22 16;
#X msg 629 477 color 0 22 0;
#X obj 181 67 select 65 97 70 102 76 108 71 103 66 98;
#X obj -25 -25 r SendGEM;
#X obj 630 534 s \$0-ColorGEM;
#X obj 205 124 tgl 12 1 SendMode \$0-ColorGEM Compatible 15 7 1 11
-24198 -1 -24198 0 1;
#X obj 53 68 select 27;
#X msg -21 134 0;
#X obj 103 184 hradio 12 1 1 4 \$0-A \$0-ColorGEM 640x480 51 7 1 11
-24198 -1 -24198 2;
#X obj 248 220 t b f;
#N canvas 206 161 410 300 Dimension 0;
#X msg 196 103 set dimen 1280 720;
#X msg 180 145 set dimen 640 480;
#X msg 162 187 set dimen 320 240;
#X msg 191 124 label 640x480;
#X msg 206 82 label 1280x720;
#X msg 172 166 label 320x240;
#X obj 162 12 inlet;
#X obj 85 255 outlet;
#X obj 306 264 outlet;
#X obj 162 38 sel 0 1 2 3;
#X msg 142 230 set dimen 480 640;
#X msg 152 209 label 480x640;
#X connect 0 0 8 0;
#X connect 1 0 8 0;
#X connect 2 0 8 0;
#X connect 3 0 7 0;
#X connect 4 0 7 0;
#X connect 5 0 7 0;
#X connect 6 0 9 0;
#X connect 9 0 11 0;
#X connect 9 0 10 0;
#X connect 9 1 5 0;
#X connect 9 1 2 0;
#X connect 9 2 3 0;
#X connect 9 2 1 0;
#X connect 9 3 4 0;
#X connect 9 3 0 0;
#X connect 10 0 8 0;
#X connect 11 0 7 0;
#X restore 163 305 pd Dimension;
#X text 150 -29 Sortir de fullscreen;
#X text 146 -19 sous Linux avec Esc ->;
#X text -72 37 Sortir de fullscreen;
#X text -84 47 sous MacOS avec Esc ->;
#X obj 189 220 t b f;
#X obj 103 139 tgl 12 1 \$0-A \$0-ColorGEM (B)arMenu 15 7 1 11 -24198
-1 -24198 1 1;
#X obj 36 16 spigot;
#X obj 69 -6 == 0;
#X obj -47 68 sel f F g G b B;
#X obj 293 220 t b f b;
#X obj -21 112 t b b;
#X msg 6 158 set 1;
#X obj 103 154 tgl 12 1 \$0-A \$0-ColorGEM (L)ight 15 7 1 11 -24198
-1 -24198 0 1;
#X obj 103 169 nbx 3 12 0 100 0 1 \$0-A \$0-ColorGEM BackGround 37
7 1 11 -24198 -1 -24198 0 256;
#X obj 205 169 tgl 12 1 \$0-A \$0-ColorGEM Screen2 15 7 1 11 -24198
-1 -24198 0 1;
#X obj 205 185 bng 12 250 50 0 \$0-A \$0-ColorGEM Info 15 7 1 11 -24198
-1 -24198;
#X obj 351 220 t b f;
#X obj 386 343 + 1;
#X msg -106 505 print;
#X msg -278 505 lighting \$1;
#X msg -200 505 color \$1 \$1 \$1;
#X obj -200 480 / 100;
#X obj 297 473 * 2;
#X obj -278 481 int;
#X obj -243 149 cnv 15 60 30 empty empty empty 20 12 0 14 -24198 -66577
0;
#N canvas 241 55 427 568 Help 0;
#X obj 11 -6 cnv 15 380 90 empty empty empty 20 12 0 14 -233017 -66577
0;
#X text 16 -8 Citation;
#X text 15 5 "GEM is the Graphics Environment for Multimedia. It was
originally written by Mark Danks to generate real-time computer graphics
\, especially for audio-visual compositions.";
#X text 15 55 "GEM is a collection of externals which allow the user
to create OpenGL graphics within Pd";
#X text 10 92 - Raccourcis clavier;
#X text 12 148 - En "FullScreen" taper F ou Pomme + Tab sous MacOSX...
;
#X text 120 161 taper F ou Alt + Tab sous Windows...;
#X text 120 173 taper F ou Alt + F4 sous Linux...;
#X obj 10 425 cnv 15 400 190 empty empty empty 20 12 0 14 -258113 -66577
0;
#X text 13 431 Impossible de supprimer la barre de menu sous MacOSX.5
+ Pd-0.41.4-extended;
#X text 13 457 Pas de probleme sous MacOSX.4 + Pd-0.41.4-extended;
#X text 25 513 Solution: Quitter Pd et relancer;
#X text 14 474 - Problème Windows: Quand on sort de fullscreen le dessin
des objets dans les patches est buggé (taille du texte \, HSlider décalés...)
;
#X text 26 525 Vu avec carte Matrox + Windows XP SP2 + Pd-0.41.4-extended
;
#X text 18 582 Solution: cocher Compatible;
#X text 35 317 Inconvenient: Charge CPU => la texture est calculée
(objet pix_texture) par le processeur de l'ordinateur et pas par la
carte video);
#X text 18 559 GL: énumérant non valide (répété);
#X text 18 570 OpenGL: invalid enumérant (repeat);
#X text 14 545 - Erreur dans la fenêtre Pd:;
#X text 12 265 Il faut cocher compatible avec certaines cartes video
\, de certains PC \, sous Windows...;
#X text 13 291 Compatible Off -> mode 1: TEXTURE_RECTANGLE;
#X text 13 303 Compatible On -> mode 0: TEXTURE_2D;
#X text 8 -31 - GEM On ouvre une fenetre;
#X text 134 91 g / G -> GEM On/Off;
#X text 135 105 f / F -> FullScreen On/Off;
#X text 136 118 b /B -> Menu bar On/Off;
#X text 136 132 Echap / Esc -> FullScreen Off;
#X text 15 391 16/9 = 512/288 = 1024/576 = 1152/648 = 1280/720 = 1440/810
;
#X text 9 379 16/10 = 512/320 = 1024/640 = 1152/720 = 1280x800 = 1440/900
;
#X text 343 366 = 1280/960;
#X text 20 367 4/3 = 160/120 = 320/240 = 512/384 = 640/480 = 1024x768
;
#X text 121 186 ou Echap / Esc...;
#X text 22 654 Clear envoye 300ms apres reinitialisation de le fenetre
GEM;
#X text 21 668 Clear envoye 300ms apres Background;
#X text 10 627 Modif par rapport a la version du 6 11 2011 du MM GEM-Control
avec option SingleBuffer:;
#X text 10 682 Modif par rapport a la version du 28 5 2012:;
#X text 21 720 Ajout bouton Save;
#X text 21 693 Ajout bouton Grade;
#X text 10 709 Modif par rapport a la version du 5 7 2012:;
#X obj 9 738 cnv 15 400 80 empty empty empty 20 12 0 14 -258113 -66577
0;
#X text 12 744 Probleme sous MacOSX + Pd-0.42.5-extended;
#X text 12 793 Pas de probleme sous MacOSX + Pd-0.43.1-extended;
#X text 21 758 Save crée un fichier au format tiff nommé GEMWindow000xx.jpg
;
#X text 21 771 Ce fichier est visible correctement avec ImageJ;
#X text 10 825 Modif par rapport a la version du 10 7 2012:;
#X text 21 837 Ajout Message FSAA 4;
#X text 10 850 Modif par rapport a la version du 16 7 2012:;
#X text 21 862 Ajout delay 100 dans SaveJpeg pour eviter image vide
dans le mode DoubleBuffer;
#X text 11 231 - Compatible envoie le message rectangle 1 ou rectangle
0 à tous les objets pix_texture des autres modules;
#X text 21 904 Message frame apres message create;
#X text 10 892 Modif par rapport a la version du 4 10 2012:;
#X text 22 940 Suppression KeyShortCut On toujours;
#X text 23 953 mrpeach/str to_list remplace par iemlib/iem_symtoalist
;
#X text 10 922 Change par rapport version precedente:;
#X restore -236 155 pd Help;
#X msg 23 505 create;
#X msg 548 505 destroy;
#X msg 508 505 reset;
#X msg 297 505 fullscreen \$1;
#X msg 603 505 0;
#X obj 161 556 gemwin;
#X obj 70 296 sel 1;
#X msg 288 343 set \$1;
#X obj 581 449 t b b;
#X obj 548 472 delay 200;
#X msg 70 505 dimen 640 480;
#X msg -65 505 1;
#X obj 70 370 select linux macos windows;
#X msg 337 343 set \$1;
#X msg 160 473 1;
#X msg 160 505 border \$1 \, menubar \$1;
#X obj -23 552 cnv 15 120 30 empty empty empty 20 12 0 14 -258113 -66577
0;
#X obj -6 559 s RenderGEM;
#X obj -16 450 delay 300;
#X obj -65 374 delay 300;
#X msg 297 449 0;
#X obj 70 427 delay 300;
#X obj 121 398 t b b b;
#X obj 70 398 t b b b;
#X obj 84 450 spigot;
#X obj 255 343 == 0;
#X obj 70 347 zexy/operating_system;
#X msg 388 478 2;
#X obj 103 199 tgl 12 1 \$0-A \$0-ColorGEM SingleBuffer 15 7 1 11 -24198
-1 -24198 0 1;
#X msg 388 505 buffer \$1;
#X obj 187 199 bng 12 50 50 0 \$0-A \$0-ColorGEM Clear 15 7 1 11 -24198
-1 -24198;
#X obj 363 421 sel 0 1;
#X msg 362 444 set 2;
#X msg 407 444 set 1;
#X obj -149 476 delay 300;
#X obj -149 387 b;
#X obj 236 199 bng 12 50 50 0 \$0-A \$0-ColorGEM Grade 15 7 1 11 -24198
-1 -24198;
#N canvas 516 98 335 378 Graduation 0;
#X obj 146 74 until;
#X obj 146 96 f;
#X obj 194 96 + 1;
#X obj 222 97 sel 0;
#X obj 146 172 gemhead;
#X obj 146 346 GEMglEnd;
#X obj 146 220 GEMglBegin GL_LINES;
#X obj 146 118 t b f;
#X obj 146 245 GEMglVertex2f -10 0;
#X obj 146 268 GEMglVertex2f 10 0;
#X obj 146 290 GEMglVertex2f 0 -4;
#X obj 146 312 GEMglVertex2f 0 4;
#X obj 20 312 GEMglVertex2f 0 4;
#X obj 20 290 GEMglVertex2f 0 -4;
#X obj 146 194 color 0.8 0.8 0.8;
#X obj 20 245 GEMglVertex2f -7 0;
#X obj 20 268 GEMglVertex2f 7 0;
#X obj 259 194 - 7;
#X obj 194 118 mod 15;
#X obj 112 13 inlet;
#X text 149 13 <- bang;
#X obj 19 171 gemhead;
#X obj 20 220 GEMglBegin GL_LINES;
#X msg 291 112 1;
#X msg 19 112 0;
#X obj 112 37 t b b b b;
#X obj 20 194 color 0.2 0.2 0.2;
#X obj 180 36 cnv 15 130 20 empty empty empty 20 12 0 14 -24198 -66577
0;
#X text 185 37 en mode SingleBuffer;
#X obj 19 14 loadbang;
#X connect 0 0 1 0;
#X connect 1 0 2 0;
#X connect 1 0 7 0;
#X connect 2 0 18 0;
#X connect 3 0 0 1;
#X connect 4 0 14 0;
#X connect 6 0 8 0;
#X connect 7 0 4 0;
#X connect 7 1 17 0;
#X connect 8 0 9 0;
#X connect 9 0 10 0;
#X connect 10 0 11 0;
#X connect 11 0 5 0;
#X connect 12 0 5 0;
#X connect 13 0 12 0;
#X connect 14 0 6 0;
#X connect 15 0 16 0;
#X connect 16 0 13 0;
#X connect 17 0 8 2;
#X connect 17 0 9 2;
#X connect 17 0 10 1;
#X connect 17 0 11 1;
#X connect 18 0 1 1;
#X connect 18 0 3 0;
#X connect 19 0 25 0;
#X connect 21 0 26 0;
#X connect 22 0 15 0;
#X connect 23 0 4 0;
#X connect 23 0 21 0;
#X connect 24 0 21 0;
#X connect 24 0 4 0;
#X connect 25 0 24 0;
#X connect 25 1 21 0;
#X connect 25 2 0 0;
#X connect 25 3 23 0;
#X connect 26 0 22 0;
#X connect 29 0 24 0;
#X restore 395 301 pd Graduation;
#X obj 335 397 t b f;
#X obj 289 196 cnv 15 310 20 empty empty empty 20 12 0 14 -24198 -66577
0;
#X text 290 197 <- Clear et Grade ne fonctionne qu'en SingleBuffer
;
#X obj 242 184 bng 12 250 50 0 \$0-A \$0-ColorGEM Save 15 7 1 11 -24198
-1 -24198;
#X obj 289 174 cnv 15 340 20 empty empty empty 20 12 0 14 -24198 -66577
0;
#X text 290 174 <- Sauve la fenetre GEM en JPEG dans le dossier du
patch;
#X msg 489 333 0;
#X msg 520 333 2;
#X msg 549 333 4;
#X msg 610 333 8;
#X msg 580 333 5;
#X msg 489 361 destroy \, FSAA \$1 \, buffer 1 \, create \, 1;
#X msg 456 505 FSAA 4;
#X obj 70 320 t b b b b b b;
#N canvas 318 287 399 229 SaveJpeg 0;
#X obj 90 163 pix_write;
#X obj 11 125 gemhead 100;
#X msg 167 25 bang;
#X obj 102 25 loadbang;
#X obj 53 25 inlet;
#X obj 53 58 t b b;
#X text 10 187 Sauve la fenetre GEM au format JPEG dans le dossier
du patch;
#X msg 167 124 file \$1 80;
#X obj 11 96 delay 100;
#X obj 167 100 cyclone/tosymbol;
#X obj 167 77 cyclone/sprintf %s/GEMWindow;
#X obj 167 55 ggee/getdir;
#X connect 1 0 0 0;
#X connect 2 0 11 0;
#X connect 3 0 11 0;
#X connect 4 0 5 0;
#X connect 5 0 8 0;
#X connect 5 1 0 0;
#X connect 7 0 0 0;
#X connect 8 0 1 0;
#X connect 9 0 7 0;
#X connect 10 0 9 0;
#X connect 11 0 10 0;
#X restore 406 273 pd SaveJpeg;
#X msg -100 250 set \$1;
#X msg -100 283 15;
#X obj -127 225 t b f;
#X obj 191 105 nbx 2 12 1 30 0 1 \$0-A \$0-ColorGEM Frames/sec 29 7
1 11 -24198 -1 -24198 15 256;
#X obj -16 473 t b b b;
#X text 290 109 27 3 2017;
#X obj 583 542 cnv 15 42 25 empty empty empty 20 12 0 14 -24198 -66577
0;
#N canvas 336 174 309 137 ?. 0;
#X obj 3 83 cnv 15 300 46 empty empty empty 20 12 0 14 -224896 -66577
0;
#X obj 3 6 cnv 18 300 70 empty empty ARGOPdMiniModules 3 10 1 14 -4033
-1 1.04858e+06;
#X obj 26 26 cnv 10 10 10 empty empty Gerard 0 5 1 11 -4033 -1 1.04858e+06
;
#X obj 64 26 cnv 10 10 10 empty empty Paresys 0 5 1 11 -4033 -1 1.04858e+06
;
#X obj 7 37 pddp/pddplink http://gerard.paresys.free.fr/ARGOPd/;
#X text 8 85 Construit sous / Build under Pd 0.43.4-extended;
#X obj 8 111 pddp/pddplink http://puredata.info/downloads/pd-extended
;
#X obj 7 50 pddp/pddplink http://paresys.pagesperso-orange.fr/ARGOPd/
;
#X text 7 98 or Pd-0.46-7 + deken;
#X restore 587 546 pd ?.;
#X obj 53 42 iemlib/iem_symtoalist;
#X connect 1 0 32 0;
#X connect 2 0 11 0;
#X connect 3 0 8 1;
#X connect 4 0 8 0;
#X connect 4 0 18 0;
#X connect 5 0 6 0;
#X connect 6 0 55 0;
#X connect 7 0 54 0;
#X connect 8 0 14 0;
#X connect 9 0 30 0;
#X connect 9 1 29 0;
#X connect 10 0 13 0;
#X connect 10 1 12 0;
#X connect 11 0 6 0;
#X connect 11 1 5 0;
#X connect 11 3 10 0;
#X connect 12 0 16 0;
#X connect 13 0 16 0;
#X connect 14 2 1 0;
#X connect 14 3 1 0;
#X connect 14 6 2 0;
#X connect 14 7 2 0;
#X connect 14 8 28 0;
#X connect 14 9 28 0;
#X connect 15 0 2 0;
#X connect 18 0 33 0;
#X connect 19 0 1 0;
#X connect 20 0 21 0;
#X connect 21 0 6 0;
#X connect 21 1 22 0;
#X connect 22 0 20 0;
#X connect 22 1 59 0;
#X connect 27 0 6 0;
#X connect 27 1 62 0;
#X connect 28 0 27 0;
#X connect 29 0 31 0;
#X connect 29 0 110 0;
#X connect 30 0 29 1;
#X connect 31 0 1 0;
#X connect 31 1 1 0;
#X connect 31 2 2 0;
#X connect 31 3 2 0;
#X connect 31 4 28 0;
#X connect 31 5 28 0;
#X connect 32 0 6 0;
#X connect 32 1 74 0;
#X connect 32 1 56 0;
#X connect 33 0 19 0;
#X connect 33 1 34 0;
#X connect 34 0 28 0;
#X connect 34 0 63 0;
#X connect 35 0 46 0;
#X connect 36 0 44 0;
#X connect 36 0 84 0;
#X connect 37 0 39 0;
#X connect 38 0 41 0;
#X connect 39 0 6 0;
#X connect 39 1 40 0;
#X connect 40 0 45 1;
#X connect 41 0 54 0;
#X connect 42 0 54 0;
#X connect 43 0 54 0;
#X connect 44 0 43 0;
#X connect 45 0 52 0;
#X connect 46 0 42 0;
#X connect 49 0 54 0;
#X connect 50 0 54 0;
#X connect 51 0 54 0;
#X connect 52 0 54 0;
#X connect 53 0 54 0;
#X connect 55 0 100 0;
#X connect 55 1 57 0;
#X connect 56 0 69 0;
#X connect 57 0 58 0;
#X connect 57 1 53 0;
#X connect 58 0 50 0;
#X connect 59 0 54 0;
#X connect 60 0 54 0;
#X connect 60 0 66 0;
#X connect 61 0 72 0;
#X connect 61 1 71 0;
#X connect 61 2 72 0;
#X connect 62 0 63 0;
#X connect 63 0 64 0;
#X connect 64 0 54 0;
#X connect 67 0 106 0;
#X connect 68 0 60 0;
#X connect 68 0 46 0;
#X connect 68 0 44 0;
#X connect 68 0 83 0;
#X connect 69 0 45 0;
#X connect 70 0 67 0;
#X connect 70 0 59 0;
#X connect 71 0 70 0;
#X connect 71 1 63 0;
#X connect 71 2 69 0;
#X connect 72 0 67 0;
#X connect 72 1 69 0;
#X connect 72 2 73 0;
#X connect 73 0 59 0;
#X connect 74 0 73 1;
#X connect 75 0 61 0;
#X connect 76 0 78 0;
#X connect 77 0 87 0;
#X connect 78 0 54 0;
#X connect 79 0 54 0;
#X connect 80 0 81 0;
#X connect 80 1 82 0;
#X connect 81 0 76 0;
#X connect 82 0 76 0;
#X connect 83 0 79 0;
#X connect 84 0 83 0;
#X connect 85 0 86 0;
#X connect 87 0 6 0;
#X connect 87 1 80 0;
#X connect 90 0 101 0;
#X connect 93 0 98 0;
#X connect 94 0 98 0;
#X connect 95 0 98 0;
#X connect 96 0 98 0;
#X connect 97 0 98 0;
#X connect 98 0 54 0;
#X connect 99 0 54 0;
#X connect 100 0 75 0;
#X connect 100 1 76 0;
#X connect 100 2 99 0;
#X connect 100 3 51 0;
#X connect 100 4 50 0;
#X connect 100 5 53 0;
#X connect 102 0 103 0;
#X connect 103 0 7 0;
#X connect 104 0 103 0;
#X connect 104 1 102 0;
#X connect 105 0 104 0;
#X connect 106 0 68 0;
#X connect 106 1 103 0;
#X connect 106 2 49 0;
#X connect 110 0 18 0;
#X coords 0 -1 1 1 185 114 1 100 100;
#X restore 87 56 pd ARGO;
#N canvas 423 177 281 233 ARGO 0;
#X obj 101 101 cnv 10 164 17 empty ColorForm empty 20 12 0 14 -228856
-1 1.04858e+06;
#X obj 187 105 cnv 10 20 10 empty ColorForm GEM-Head. 1 5 1 14 -228856
-1 1.04858e+06;
#X obj 101 114 cnv 4 10 4 empty empty empty 20 12 0 14 -128992 -66577
0;
#X text 84 119 gemlist;
#X obj 113 101 nbx 3 12 1 100 0 1 \$0-A \$0-B Render 33 7 1 9 -262144
-1 -1 50 256;
#X obj 101 169 gemhead;
#X msg 134 134 set \$1;
#X obj 101 200 outlet;
#X obj 101 101 tgl 12 1 \$0-A \$0-B empty 15 7 1 9 -262144 -1 -1 1
1;
#X text 40 98 On/Off ->;
#X obj 120 40 cnv 15 60 30 empty empty empty 20 12 0 14 -24198 -66577
0;
#N canvas 642 261 453 329 Help 0;
#X obj 5 56 cnv 15 430 200 empty empty empty 20 12 0 14 -233017 -66577
0;
#X text 8 56 Citation;
#X text 6 26 GEM-Head;
#X text 15 125 gemhead takes an argument to determine when it receives
the render command. The default value is 50 The lower the value is
\, the sooner the gemhead will receive the rendering command (a value
of 1 is the lowest possible value (see below)). This value becomes
important when you are doing alpha blending and for certain objects
(such as light).;
#X text 17 213 gemhead also accepts a 1 or 0 to enable and disable
rendering for the chain.;
#X text 15 76 gemhead connects the gem objects to the window manager.
The start of any gemList begins with the gemhead. Without the gemhead
\, gem objects will not receive the render command.;
#X restore 127 46 pd Help;
#X text 207 83 16 8 2019;
#X obj 210 187 cnv 15 54 25 empty empty empty 20 12 0 14 -24198 -66577
0;
#N canvas 350 196 313 131 ???? 0;
#X obj 3 83 cnv 15 300 38 empty empty empty 20 12 0 14 -224896 -66577
0;
#X obj 3 6 cnv 18 300 70 empty empty ARGOPdMiniModules 3 10 1 14 -4033
-1 1.04858e+06;
#X obj 26 26 cnv 10 10 10 empty empty Gerard 0 5 1 11 -4033 -1 1.04858e+06
;
#X obj 64 26 cnv 10 10 10 empty empty Paresys 0 5 1 11 -4033 -1 1.04858e+06
;
#X obj 7 50 pddp/pddplink http://pagesperso-orange.fr/Paresys/ARGOPd/
;
#X obj 7 37 pddp/pddplink http://gerard.paresys.free.fr/ARGOPd/;
#X text 8 85 Construit sous / Build under Pd 0.43.4-extended;
#X obj 17 100 pddp/pddplink http://puredata.info/downloads/pd-extended
;
#X restore 214 191 pd ????;
#X connect 4 0 6 0;
#X connect 5 0 7 0;
#X connect 6 0 5 0;
#X connect 8 0 5 0;
#X coords 0 -1 1 1 166 19 1 100 100;
#X restore 66 210 pd ARGO;
#N canvas 48 158 396 395 ARGO 0;
#X obj 101 101 cnv 10 144 54 empty ColorForm empty 20 12 0 14 -228856
-1 1.04858e+06;
#X obj 101 101 cnv 4 10 4 empty empty empty 20 12 0 14 -128992 -66577
0;
#X obj 162 109 cnv 10 20 10 empty ColorForm GEM-Color. 1 5 1 14 -228856
-1 1.04858e+06;
#X text 76 57 gemlist;
#X obj 101 151 cnv 4 10 4 empty empty empty 20 12 0 14 -128992 -66577
0;
#X text 86 156 gemlist;
#X obj 235 101 cnv 4 10 4 empty empty empty 20 12 0 14 -1 -66577 0
;
#X obj 115 120 hsl 129 12 0 1 0 1 \$0-A \$0-B empty 0 6 1 9 -262144
-1 -1 12800 0;
#X obj 115 132 hsl 129 12 0 1 0 1 \$0-A \$0-B empty 0 6 1 9 -262144
-1 -1 0 0;
#X obj 115 144 hsl 129 12 0 1 0 1 \$0-A \$0-B empty 0 6 1 9 -262144
-1 -1 0 0;
#X obj 265 258 t b f;
#X obj 183 256 t b f;
#X obj 133 316 pack 0 0 0;
#X obj 82 365 outlet;
#X obj 82 77 inlet;
#X obj 223 77 inlet~;
#X obj 143 101 cnv 4 10 4 empty empty empty 20 12 0 14 -1 -66577 0
;
#X obj 191 101 cnv 4 10 4 empty empty empty 20 12 0 14 -1 -66577 0
;
#X obj 125 77 inlet~;
#X obj 174 77 inlet~;
#X text 125 49 Control;
#X text 135 60 Red;
#X text 174 49 Control;
#X text 178 60 Green;
#X text 220 49 Control;
#X text 228 61 Blue;
#X obj 82 178 t a b b b;
#X obj 115 120 hsl 129 12 0 1 0 0 \$0-A \$0-B 100 0 8 1 12 -258049
-262144 -262144 12800 0;
#X obj 115 132 hsl 129 12 0 1 0 0 \$0-A \$0-B 0 0 8 1 12 -4033 -262144
-262144 0 0;
#X obj 115 144 hsl 129 12 0 1 0 0 \$0-A \$0-B 0 0 8 1 12 -64 -262144
-262144 0 0;
#X text 252 131 2 HSLIDER superposés;
#X text 252 120 ATTENTION;
#X obj 81 18 cnv 15 60 30 empty empty empty 20 12 0 14 -24198 -66577
0;
#N canvas 312 59 436 225 Help 0;
#X obj 9 9 cnv 15 400 200 empty empty empty 20 12 0 14 -233017 -66577
0;
#X text 12 8 Citation;
#X text 21 45 [color] sets the colour of all subsequent shape and vertex
operations until reset by another [color]/[colorRGB] object. If you
set the alpha-value \, you will beed an [alpha] object to enable alpha-blending
;
#X text 11 31 Description: colouring;
#X restore 88 24 pd Help;
#N canvas 795 278 235 259 Couleur 0;
#X msg 72 147 set \$1;
#X obj 54 46 +~;
#X obj 126 192 outlet;
#X obj 126 16 inlet;
#X obj 54 16 inlet~;
#X msg 126 147 label \$1;
#X obj 126 81 * 100;
#X obj 126 102 int;
#X obj 7 16 inlet;
#X obj 54 101 clip 0 1;
#X obj 54 74 snapshot~;
#X obj 54 123 change;
#X obj 54 191 outlet;
#X obj 126 125 cyclone/tosymbol;
#X connect 0 0 2 0;
#X connect 1 0 10 0;
#X connect 3 0 1 1;
#X connect 3 0 6 0;
#X connect 4 0 1 0;
#X connect 5 0 2 0;
#X connect 6 0 7 0;
#X connect 7 0 13 0;
#X connect 8 0 10 0;
#X connect 9 0 11 0;
#X connect 10 0 9 0;
#X connect 11 0 12 0;
#X connect 11 0 0 0;
#X connect 13 0 5 0;
#X restore 109 227 pd Couleur;
#N canvas 795 278 254 223 Couleur 0;
#X msg 83 142 set \$1;
#X obj 65 41 +~;
#X obj 137 187 outlet;
#X obj 137 11 inlet;
#X obj 65 11 inlet~;
#X msg 137 142 label \$1;
#X obj 137 76 * 100;
#X obj 137 97 int;
#X obj 18 11 inlet;
#X obj 65 96 clip 0 1;
#X obj 65 69 snapshot~;
#X obj 65 118 change;
#X obj 65 186 outlet;
#X obj 137 120 cyclone/tosymbol;
#X connect 0 0 2 0;
#X connect 1 0 10 0;
#X connect 3 0 1 1;
#X connect 3 0 6 0;
#X connect 4 0 1 0;
#X connect 5 0 2 0;
#X connect 6 0 7 0;
#X connect 7 0 13 0;
#X connect 8 0 10 0;
#X connect 9 0 11 0;
#X connect 10 0 9 0;
#X connect 11 0 12 0;
#X connect 11 0 0 0;
#X connect 13 0 5 0;
#X restore 183 227 pd Couleur;
#N canvas 795 278 249 217 Couleur 0;
#X msg 74 140 set \$1;
#X obj 56 39 +~;
#X obj 128 185 outlet;
#X obj 128 9 inlet;
#X obj 56 9 inlet~;
#X msg 128 140 label \$1;
#X obj 128 74 * 100;
#X obj 128 95 int;
#X obj 9 9 inlet;
#X obj 56 94 clip 0 1;
#X obj 56 67 snapshot~;
#X obj 56 116 change;
#X obj 56 184 outlet;
#X obj 128 118 cyclone/tosymbol;
#X connect 0 0 2 0;
#X connect 1 0 10 0;
#X connect 3 0 1 1;
#X connect 3 0 6 0;
#X connect 4 0 1 0;
#X connect 5 0 2 0;
#X connect 6 0 7 0;
#X connect 7 0 13 0;
#X connect 8 0 10 0;
#X connect 9 0 11 0;
#X connect 10 0 9 0;
#X connect 11 0 12 0;
#X connect 11 0 0 0;
#X connect 13 0 5 0;
#X restore 265 227 pd Couleur;
#X obj 82 342 color;
#X obj 307 340 cnv 15 54 25 empty empty empty 20 12 0 14 -24198 -66577
0;
#N canvas 336 174 313 131 ???? 0;
#X obj 3 83 cnv 15 300 38 empty empty empty 20 12 0 14 -224896 -66577
0;
#X obj 3 6 cnv 18 300 70 empty empty ARGOPdMiniModules 3 10 1 14 -4033
-1 1.04858e+06;
#X obj 26 26 cnv 10 10 10 empty empty Gerard 0 5 1 11 -4033 -1 1.04858e+06
;
#X obj 64 26 cnv 10 10 10 empty empty Paresys 0 5 1 11 -4033 -1 1.04858e+06
;
#X obj 7 37 pddp/pddplink http://gerard.paresys.free.fr/ARGOPd/;
#X text 8 85 Construit sous / Build under Pd 0.43.4-extended;
#X obj 17 100 pddp/pddplink http://puredata.info/downloads/pd-extended
;
#X obj 7 50 pddp/pddplink http://paresys.pagesperso-orange.fr/ARGOPd/
;
#X restore 311 344 pd ????;
#X text 258 99 27 2 2016;
#X connect 7 0 34 2;
#X connect 8 0 35 2;
#X connect 9 0 36 2;
#X connect 10 0 12 0;
#X connect 10 1 12 2;
#X connect 11 0 12 0;
#X connect 11 1 12 1;
#X connect 12 0 37 1;
#X connect 14 0 26 0;
#X connect 15 0 36 1;
#X connect 18 0 34 1;
#X connect 19 0 35 1;
#X connect 26 0 37 0;
#X connect 26 1 34 0;
#X connect 26 2 35 0;
#X connect 26 3 36 0;
#X connect 34 0 12 0;
#X connect 34 1 27 0;
#X connect 35 0 11 0;
#X connect 35 1 28 0;
#X connect 36 0 10 0;
#X connect 36 1 29 0;
#X connect 37 0 13 0;
#X coords 0 -1 1 1 146 56 1 100 100;
#X restore 66 238 pd ARGO;
#N canvas 346 164 402 392 ARGO 0;
#X obj 101 101 cnv 10 144 54 empty ColorForm empty 20 12 0 14 -228856
-1 1.04858e+06;
#X obj 101 101 cnv 4 10 4 empty empty empty 20 12 0 14 -128992 -66577
0;
#X obj 151 108 cnv 10 20 10 empty ColorForm GEM-Rotation. 1 5 1 14
-228856 -1 1.04858e+06;
#X text 71 59 gemlist;
#X obj 101 151 cnv 4 10 4 empty empty empty 20 12 0 14 -128992 -66577
0;
#X text 70 359 gemlist;
#X obj 235 101 cnv 4 10 4 empty empty empty 20 12 0 14 -1 -66577 0
;
#X obj 115 120 hsl 129 12 0 1 0 1 \$0-A \$0-B empty 0 7 1 9 -262144
-1 -1 3800 0;
#X obj 115 132 hsl 129 12 0 1 0 1 \$0-A \$0-B empty 0 7 1 9 -262144
-1 -1 6400 0;
#X obj 115 144 hsl 129 12 0 1 0 1 \$0-A \$0-B empty 0 8 1 12 -262144
-1 -1 6400 0;
#X obj 249 74 inlet~;
#X obj 143 101 cnv 4 10 4 empty empty empty 20 12 0 14 -1 -66577 0
;
#X obj 191 101 cnv 4 10 4 empty empty empty 20 12 0 14 -1 -66577 0
;
#X obj 131 74 inlet~;
#X obj 183 74 inlet~;
#X text 131 47 Control;
#X text 187 47 Control;
#X text 246 47 Control;
#X text 141 59 X;
#X text 191 59 Y;
#X text 254 59 Z;
#X obj 75 343 outlet;
#X obj 75 323 rotateXYZ 0 0 0;
#X obj 77 74 inlet;
#X obj 249 230 snapshot~;
#X obj 249 252 change;
#X obj 176 230 snapshot~;
#X obj 176 252 change;
#X obj 104 230 snapshot~;
#X obj 104 252 change;
#X obj 18 166 t a b b b;
#X obj 115 120 hsl 129 12 0 1 0 0 \$0-A \$0-B -73 0 8 1 12 -228856
-1 -1 3800 0;
#X obj 104 276 * 360;
#X obj 104 297 - 180;
#N canvas 795 278 241 330 GEMRot~ 0;
#X msg 124 150 set \$1;
#X obj 15 51 +~;
#X obj 89 300 outlet;
#X obj 102 88 snapshot~;
#X obj 125 130 change;
#X obj 60 10 inlet;
#X obj 15 10 inlet~;
#X obj 17 299 outlet~;
#X obj 100 11 loadbang;
#X obj 101 51 metro 200;
#X obj 158 12 r SendFluid;
#X msg 60 189 label \$1;
#X obj 59 144 int;
#X obj 57 87 * 360;
#X obj 57 113 - 180;
#X obj 60 167 cyclone/tosymbol;
#X connect 0 0 2 0;
#X connect 1 0 3 0;
#X connect 1 0 7 0;
#X connect 3 0 4 0;
#X connect 4 0 0 0;
#X connect 5 0 1 1;
#X connect 5 0 13 0;
#X connect 6 0 1 0;
#X connect 8 0 9 0;
#X connect 9 0 3 0;
#X connect 10 0 9 1;
#X connect 11 0 2 0;
#X connect 12 0 15 0;
#X connect 13 0 14 0;
#X connect 14 0 12 0;
#X connect 15 0 11 0;
#X restore 104 203 pd GEMRot~;
#N canvas 795 278 241 330 GEMRot~ 0;
#X msg 124 150 set \$1;
#X obj 15 51 +~;
#X obj 89 300 outlet;
#X obj 102 88 snapshot~;
#X obj 125 130 change;
#X obj 60 10 inlet;
#X obj 15 10 inlet~;
#X obj 17 299 outlet~;
#X obj 100 11 loadbang;
#X obj 101 51 metro 200;
#X obj 158 12 r SendFluid;
#X msg 60 189 label \$1;
#X obj 59 144 int;
#X obj 57 87 * 360;
#X obj 57 113 - 180;
#X obj 60 167 cyclone/tosymbol;
#X connect 0 0 2 0;
#X connect 1 0 3 0;
#X connect 1 0 7 0;
#X connect 3 0 4 0;
#X connect 4 0 0 0;
#X connect 5 0 1 1;
#X connect 5 0 13 0;
#X connect 6 0 1 0;
#X connect 8 0 9 0;
#X connect 9 0 3 0;
#X connect 10 0 9 1;
#X connect 11 0 2 0;
#X connect 12 0 15 0;
#X connect 13 0 14 0;
#X connect 14 0 12 0;
#X connect 15 0 11 0;
#X restore 176 203 pd GEMRot~;
#X obj 115 132 hsl 129 12 0 1 0 0 \$0-A \$0-B 0 0 8 1 12 -228856 -1
-1 6400 0;
#X obj 176 276 * 360;
#X obj 176 297 - 180;
#X obj 249 276 * 360;
#X obj 249 297 - 180;
#N canvas 795 278 241 330 GEMRot~ 0;
#X msg 124 150 set \$1;
#X obj 15 51 +~;
#X obj 89 300 outlet;
#X obj 102 88 snapshot~;
#X obj 125 130 change;
#X obj 60 10 inlet;
#X obj 15 10 inlet~;
#X obj 17 299 outlet~;
#X obj 100 11 loadbang;
#X obj 101 51 metro 200;
#X obj 158 12 r SendFluid;
#X msg 60 189 label \$1;
#X obj 59 144 int;
#X obj 57 87 * 360;
#X obj 57 113 - 180;
#X obj 60 167 cyclone/tosymbol;
#X connect 0 0 2 0;
#X connect 1 0 3 0;
#X connect 1 0 7 0;
#X connect 3 0 4 0;
#X connect 4 0 0 0;
#X connect 5 0 1 1;
#X connect 5 0 13 0;
#X connect 6 0 1 0;
#X connect 8 0 9 0;
#X connect 9 0 3 0;
#X connect 10 0 9 1;
#X connect 11 0 2 0;
#X connect 12 0 15 0;
#X connect 13 0 14 0;
#X connect 14 0 12 0;
#X connect 15 0 11 0;
#X restore 249 203 pd GEMRot~;
#X obj 115 144 hsl 129 12 0 1 0 0 \$0-A \$0-B 0 0 8 1 12 -228856 -1
-1 6400 0;
#X obj 102 120 cnv 5 5 5 empty ColorForm X 0 8 1 12 -228856 -1 1.04858e+06
;
#X obj 102 132 cnv 5 5 5 empty ColorForm Y 0 8 1 12 -228856 -1 1.04858e+06
;
#X text 255 132 2 HSLIDER superposés;
#X text 255 121 ATTENTION;
#X obj 80 14 cnv 15 60 30 empty empty empty 20 12 0 14 -24198 -66577
0;
#N canvas 312 59 421 380 Help 0;
#X obj 7 215 cnv 15 400 150 empty empty empty 20 12 0 14 -258113 -66577
0;
#X text 10 218 - Erreur dans la fenêtre Pd:;
#X obj 6 7 cnv 15 400 200 empty empty empty 20 12 0 14 -233017 -66577
0;
#X text 9 6 Citation;
#X text 19 27 Description: rotation;
#X text 22 42 rotate accepts a gemList and changes the current transformation
matrix by the specified rotation;
#X text 19 76 the rotation around the X- \, Y- and Z-axis (in this
order) can be specified separately by arguments and changed via inlets.
;
#X restore 87 20 pd Help;
#X text 255 101 26 7 2108;
#X obj 322 335 cnv 15 42 25 empty empty empty 20 12 0 14 -24198 -66577
0;
#N canvas 336 174 309 137 ?. 0;
#X obj 3 83 cnv 15 300 46 empty empty empty 20 12 0 14 -224896 -66577
0;
#X obj 3 6 cnv 18 300 70 empty empty ARGOPdMiniModules 3 10 1 14 -4033
-1 1.04858e+06;
#X obj 26 26 cnv 10 10 10 empty empty Gerard 0 5 1 11 -4033 -1 1.04858e+06
;
#X obj 64 26 cnv 10 10 10 empty empty Paresys 0 5 1 11 -4033 -1 1.04858e+06
;
#X obj 7 37 pddp/pddplink http://gerard.paresys.free.fr/ARGOPd/;
#X text 8 85 Construit sous / Build under Pd 0.43.4-extended;
#X obj 8 111 pddp/pddplink http://puredata.info/downloads/pd-extended
;
#X obj 7 50 pddp/pddplink http://paresys.pagesperso-orange.fr/ARGOPd/
;
#X text 7 98 or Pd-0.46-7 + deken;
#X restore 326 339 pd ?.;
#X connect 7 0 34 1;
#X connect 8 0 35 1;
#X connect 9 0 41 1;
#X connect 10 0 41 0;
#X connect 13 0 34 0;
#X connect 14 0 35 0;
#X connect 22 0 21 0;
#X connect 23 0 30 0;
#X connect 24 0 25 0;
#X connect 25 0 39 0;
#X connect 26 0 27 0;
#X connect 27 0 37 0;
#X connect 28 0 29 0;
#X connect 29 0 32 0;
#X connect 30 0 22 0;
#X connect 30 1 28 0;
#X connect 30 2 26 0;
#X connect 30 3 24 0;
#X connect 32 0 33 0;
#X connect 33 0 22 1;
#X connect 34 0 28 0;
#X connect 34 1 31 0;
#X connect 35 0 26 0;
#X connect 35 1 36 0;
#X connect 37 0 38 0;
#X connect 38 0 22 2;
#X connect 39 0 40 0;
#X connect 40 0 22 3;
#X connect 41 0 24 0;
#X connect 41 1 42 0;
#X coords 0 -1 1 1 146 56 1 100 100;
#X restore 66 370 pd ARGO;
#X obj 219 478 cnv 15 52 22 empty empty empty 20 12 0 14 -24198 -66577
0;
#N canvas 353 174 321 152 ?... 0;
#X obj 8 84 cnv 15 300 56 empty empty empty 20 12 0 14 -224896 -66577
0;
#X obj 8 7 cnv 18 300 70 empty empty ARGOPdMiniModules 3 10 1 14 -4033
-1 1.04858e+06;
#X obj 31 27 cnv 10 10 10 empty empty Gerard 0 5 1 11 -4033 -1 1.04858e+06
;
#X obj 69 27 cnv 10 10 10 empty empty Paresys 0 5 1 11 -4033 -1 1.04858e+06
;
#X obj 12 40 pddp/pddplink http://gerard.paresys.free.fr/ARGOPd/;
#X obj 13 121 pddp/pddplink http://puredata.info/downloads/pd-extended
;
#X obj 13 97 pddp/pddplink http://puredata.info/downloads/pure-data
;
#X text 13 85 Construit sous / Build under Pd-0.49...;
#X text 12 109 or Pd 0.43.4-extended;
#X obj 12 53 pddp/pddplink https://paresys.pagesperso-orange.fr/ARGOPd/
;
#X restore 222 481 pd ?...;
#N canvas 408 220 401 337 ARGO 0;
#X obj 101 101 cnv 10 144 54 empty ColorForm empty 20 12 0 14 -228856
-1 1.04858e+06;
#X obj 101 101 cnv 4 10 4 empty empty empty 20 12 0 14 -128992 -66577
0;
#X obj 152 109 cnv 10 20 10 empty ColorForm GEM-Position. 1 5 1 14
-228856 -1 1.04858e+06;
#X text 74 34 gemlist;
#X obj 101 151 cnv 4 10 4 empty empty empty 20 12 0 14 -128992 -66577
0;
#X text 83 156 gemlist;
#X obj 235 101 cnv 4 10 4 empty empty empty 20 12 0 14 -1 -66577 0
;
#X obj 232 64 inlet~;
#X obj 143 101 cnv 4 10 4 empty empty empty 20 12 0 14 -1 -66577 0
;
#X obj 192 101 cnv 4 10 4 empty empty empty 20 12 0 14 -1 -66577 0
;
#X obj 131 63 inlet~;
#X obj 181 64 inlet~;
#X text 131 35 Control;
#X text 181 35 Control;
#X text 229 34 Control;
#X text 141 46 X;
#X text 185 46 Y;
#X text 237 46 Z;
#X obj 78 294 outlet;
#X obj 77 62 inlet;
#X obj 77 268 translateXYZ 1 2 0;
#X obj 77 174 t a b b b;
#X obj 115 120 hsl 129 12 0 1 0 1 \$0-A \$0-B empty 0 7 1 9 -262144
-1 -1 6400 0;
#X obj 115 132 hsl 129 12 0 1 0 1 \$0-A \$0-B empty 0 7 1 9 -262144
-1 -1 6400 0;
#X obj 115 144 hsl 129 12 0 1 0 1 \$0-A \$0-B empty 0 8 1 12 -262144
-1 -1 9100 0;
#X obj 115 120 hsl 129 12 0 1 0 0 \$0-A \$0-B 0 0 8 1 12 -228856 -1
-1 6400 0;
#X obj 115 132 hsl 129 12 0 1 0 0 \$0-A \$0-B 0 0 8 1 12 -228856 -1
-1 6400 0;
#X obj 115 144 hsl 129 12 0 1 0 0 \$0-A \$0-B 2.1 0 8 1 12 -228856
-1 -1 9100 0;
#X obj 102 120 cnv 5 5 5 empty ColorForm X 0 8 1 12 -228856 -1 1.04858e+06
;
#X obj 102 132 cnv 5 5 5 empty ColorForm Y 0 8 1 12 -228856 -1 1.04858e+06
;
#N canvas 811 243 267 244 GEMPos~ 0;
#X msg 96 154 set \$1;
#X obj 54 48 +~;
#X obj 148 200 outlet;
#X obj 148 11 inlet;
#X obj 54 11 inlet~;
#X msg 148 154 label \$1;
#X obj 148 81 int;
#X obj 148 32 - 0.5;
#X obj 11 12 inlet;
#X obj 54 82 snapshot~;
#X obj 54 104 change;
#X obj 54 154 - 0.5;
#X obj 54 175 * 20;
#X obj 54 200 outlet;
#X obj 148 58 * 200;
#X obj 148 107 / 10;
#X obj 148 132 cyclone/tosymbol;
#X connect 0 0 2 0;
#X connect 1 0 9 0;
#X connect 3 0 1 1;
#X connect 3 0 7 0;
#X connect 4 0 1 0;
#X connect 5 0 2 0;
#X connect 6 0 15 0;
#X connect 7 0 14 0;
#X connect 8 0 9 0;
#X connect 9 0 10 0;
#X connect 10 0 11 0;
#X connect 10 0 0 0;
#X connect 11 0 12 0;
#X connect 12 0 13 0;
#X connect 14 0 6 0;
#X connect 15 0 16 0;
#X connect 16 0 5 0;
#X restore 96 234 pd GEMPos~;
#X text 256 133 2 HSLIDER superposés;
#X text 256 122 ATTENTION;
#X obj 8 8 cnv 15 60 30 empty empty empty 20 12 0 14 -24198 -66577
0;
#N canvas 312 59 421 380 Help 0;
#X obj 8 113 cnv 15 400 150 empty empty empty 20 12 0 14 -258113 -66577
0;
#X text 11 116 - Erreur dans la fenêtre Pd:;
#X obj 7 -95 cnv 15 400 200 empty empty empty 20 12 0 14 -233017 -66577
0;
#X text 10 -96 Citation;
#X text 18 -73 Description: translation;
#X text 25 -28 the translation is determined by a vector (X Y Z);
#X text 30 -59 [translateXYZ] accepts a gemList and changes the current
transformation matrix by the specified translation;
#X restore 15 14 pd Help;
#X obj 112 108 bng 12 250 50 0 \$0-A \$0-B Zero 15 7 1 11 -262144 -1
-1;
#X msg 29 123 0.5;
#N canvas 795 278 259 234 GEMPos~ 0;
#X msg 95 154 set \$1;
#X obj 53 48 +~;
#X obj 147 200 outlet;
#X obj 147 11 inlet;
#X obj 53 11 inlet~;
#X msg 147 154 label \$1;
#X obj 147 81 int;
#X obj 147 32 - 0.5;
#X obj 10 12 inlet;
#X obj 53 82 snapshot~;
#X obj 53 104 change;
#X obj 53 154 - 0.5;
#X obj 53 175 * 20;
#X obj 53 200 outlet;
#X obj 147 58 * 200;
#X obj 147 107 / 10;
#X obj 147 132 cyclone/tosymbol;
#X connect 0 0 2 0;
#X connect 1 0 9 0;
#X connect 3 0 1 1;
#X connect 3 0 7 0;
#X connect 4 0 1 0;
#X connect 5 0 2 0;
#X connect 6 0 15 0;
#X connect 7 0 14 0;
#X connect 8 0 9 0;
#X connect 9 0 10 0;
#X connect 10 0 11 0;
#X connect 10 0 0 0;
#X connect 11 0 12 0;
#X connect 12 0 13 0;
#X connect 14 0 6 0;
#X connect 15 0 16 0;
#X connect 16 0 5 0;
#X restore 166 235 pd GEMPos~;
#N canvas 795 278 270 230 GEMPos~ 0;
#X msg 102 155 set \$1;
#X obj 60 49 +~;
#X obj 154 201 outlet;
#X obj 154 12 inlet;
#X obj 60 12 inlet~;
#X msg 154 155 label \$1;
#X obj 154 82 int;
#X obj 154 33 - 0.5;
#X obj 17 13 inlet;
#X obj 60 83 snapshot~;
#X obj 60 105 change;
#X obj 60 155 - 0.5;
#X obj 60 201 outlet;
#X obj 154 108 / 10;
#X obj 60 176 * 10;
#X obj 154 59 * 100;
#X obj 154 133 cyclone/tosymbol;
#X connect 0 0 2 0;
#X connect 1 0 9 0;
#X connect 3 0 1 1;
#X connect 3 0 7 0;
#X connect 4 0 1 0;
#X connect 5 0 2 0;
#X connect 6 0 13 0;
#X connect 7 0 15 0;
#X connect 8 0 9 0;
#X connect 9 0 10 0;
#X connect 10 0 11 0;
#X connect 10 0 0 0;
#X connect 11 0 14 0;
#X connect 13 0 16 0;
#X connect 14 0 12 0;
#X connect 15 0 6 0;
#X connect 16 0 5 0;
#X restore 235 235 pd GEMPos~;
#X text 254 101 17 8 2019;
#X obj 301 277 cnv 15 52 22 empty empty empty 20 12 0 14 -24198 -66577
0;
#N canvas 353 174 321 152 ?... 0;
#X obj 8 84 cnv 15 300 56 empty empty empty 20 12 0 14 -224896 -66577
0;
#X obj 8 7 cnv 18 300 70 empty empty ARGOPdMiniModules 3 10 1 14 -4033
-1 1.04858e+06;
#X obj 31 27 cnv 10 10 10 empty empty Gerard 0 5 1 11 -4033 -1 1.04858e+06
;
#X obj 69 27 cnv 10 10 10 empty empty Paresys 0 5 1 11 -4033 -1 1.04858e+06
;
#X obj 12 40 pddp/pddplink http://gerard.paresys.free.fr/ARGOPd/;
#X obj 13 121 pddp/pddplink http://puredata.info/downloads/pd-extended
;
#X obj 13 97 pddp/pddplink http://puredata.info/downloads/pure-data
;
#X text 13 85 Construit sous / Build under Pd-0.49...;
#X text 12 109 or Pd 0.43.4-extended;
#X obj 12 53 pddp/pddplink https://paresys.pagesperso-orange.fr/ARGOPd/
;
#X restore 304 280 pd ?...;
#X connect 7 0 38 1;
#X connect 10 0 30 1;
#X connect 11 0 37 1;
#X connect 19 0 21 0;
#X connect 20 0 18 0;
#X connect 21 0 20 0;
#X connect 21 1 30 0;
#X connect 21 2 37 0;
#X connect 21 3 38 0;
#X connect 22 0 30 2;
#X connect 23 0 37 2;
#X connect 24 0 38 2;
#X connect 30 0 20 1;
#X connect 30 1 25 0;
#X connect 35 0 36 0;
#X connect 36 0 22 0;
#X connect 36 0 23 0;
#X connect 36 0 24 0;
#X connect 37 0 20 2;
#X connect 37 1 26 0;
#X connect 38 0 20 3;
#X connect 38 1 27 0;
#X coords 0 -1 1 1 146 56 1 100 100;
#X restore 66 304 pd ARGO;
#N canvas 653 81 787 733 X-ARGO 0;
#X obj 101 101 cnv 10 144 39 empty ColorForm empty 20 12 0 14 -228856
-1 1.04858e+06;
#X obj 101 136 cnv 4 10 4 empty empty empty 20 12 0 14 -128992 -66577
0;
#X obj 90 682 outlet;
#X obj 101 101 cnv 4 10 4 empty empty empty 20 12 0 14 -128992 -66577
0;
#X obj -45 425 pix_texture;
#X obj -58 82 == 0;
#X obj -58 14 r SendMode;
#X obj -58 62 nbx 1 14 -1e+37 1e+37 0 1 empty empty empty 0 -6 0 10
-262144 -1 -1 0 256;
#X msg 33 425 draw line;
#X msg 103 425 draw fill;
#X obj 235 101 cnv 4 10 4 empty empty empty 20 12 0 14 -1 -66577 0
;
#X obj 333 14 inlet~;
#X obj 67 14 inlet;
#X text 221 72 Control;
#X text 87 142 gemlist;
#X obj 146 117 tgl 12 1 \$0-A ColorGEM Line 15 6 1 9 -262144 -1 -1
1 1;
#X obj 51 397 sel 1;
#X text 87 83 gemlist;
#X text 252 137 2 HSLIDER superposŽs;
#X text 252 125 ATTENTION;
#X obj 161 106 cnv 10 20 10 empty ColorForm GEM-Wave. 1 5 1 14 -228856
-1 1.04858e+06;
#X obj 100 117 tgl 12 1 \$0-A ColorGEM Quality 15 6 1 9 -262144 -1
-1 1 1;
#X obj 100 105 tgl 12 1 \$0-A ColorGEM On 15 6 1 9 -262144 -1 -1 1
1;
#X obj 67 181 spigot;
#X msg -58 107 rectangle \$1;
#X text 511 45 15 12 2015;
#X obj 112 129 nbx 3 12 -50 50 0 1 \$0-A \$0-B Str 31 7 1 9 -262144
-1 -1 30 256;
#X obj 143 101 bng 12 50 50 0 \$0-A \$0-B empty 14 6 1 9 -262144 -1
-1;
#X obj 144 101 cnv 4 10 4 empty empty empty 20 12 0 14 -260097 -66577
0;
#X obj 190 101 cnv 4 10 4 empty empty empty 20 12 0 14 -1 -66577 0
;
#X text 225 84 Horiz;
#X text 139 83 bang;
#X text 171 72 Control;
#X text 175 84 height;
#X obj 181 117 tgl 12 1 \$0-A ColorGEM Alea 15 6 1 9 -262144 -1 -1
0 1;
#X obj 217 117 bng 12 250 50 0 \$0-A \$0-B Stp 15 6 1 9 -262144 -1
-1;
#X msg -41 319 quality \$1;
#X msg 252 425 noise \$1;
#X obj 252 378 metro 100;
#X obj 523 322 vradio 11 1 0 11 empty empty action -10 -6 0 8 -262144
-1 -1 1;
#X floatatom 585 225 5 0 100 0 - - -;
#X obj 585 243 / 100;
#X msg 585 262 K1 \$1;
#X obj -44 449 t a b;
#X floatatom 585 285 5 0 100 0 - - -;
#X obj 585 303 / 100;
#X floatatom 585 345 5 0 100 0 - - -;
#X obj 585 363 / 100;
#X floatatom 635 225 5 0 100 0 - - -;
#X obj 635 243 / 100;
#X floatatom 635 285 5 0 100 0 - - -;
#X obj 635 303 / 100;
#X floatatom 635 345 5 0 100 0 - - -;
#X obj 635 363 / 100;
#X msg 635 262 D1 \$1;
#X msg 635 322 D2 \$1;
#X msg 635 382 D3 \$1;
#X msg 585 382 K3 \$1;
#X msg 585 322 K2 \$1;
#X obj 554 339 t a;
#X obj 554 279 t a;
#X obj 554 399 t a;
#X msg 523 272 1;
#X obj 90 623 newWave 50 50;
#X msg 313 426 force \$1 \$2 \$3;
#X msg 252 401 0.005;
#X obj 327 310 until;
#X obj 327 336 f;
#X obj 357 336 + 1;
#X obj 327 287 t f b;
#X msg 327 266 48;
#X msg 366 312 1;
#X obj 327 384 f;
#X obj 328 239 t b f;
#X obj 327 359 t b f;
#X obj 314 404 pack f f 0.005;
#X floatatom 288 530 5 0 0 2 size - -;
#X obj 162 129 hsl 82 12 0 1 0 1 \$0-A \$0-B empty 0 7 1 9 -262144
-1 -1 4050 0;
#X obj 162 129 hsl 82 12 0 1 0 0 \$0-A \$0-B -0.1 0 8 1 12 -228856
-1 -1 4000 0;
#X msg 5 189 0.5;
#X obj 415 398 tgl 15 1 \$0-A ColorGEM empty 15 6 1 9 -262144 -1 -1
0 1;
#X msg 5 169 0;
#X obj 66 219 t a b b;
#X obj 274 14 inlet~;
#X msg 415 427 texture \$1;
#N canvas 1065 395 269 274 CtrlHorizontal~ 0;
#X msg 103 159 set \$1;
#X obj 61 53 +~;
#X obj 155 206 outlet;
#X obj 155 16 inlet;
#X obj 61 16 inlet~;
#X msg 155 160 label \$1;
#X obj 155 86 int;
#X obj 18 17 inlet;
#X obj 61 87 snapshot~;
#X obj 61 109 change;
#X obj 61 205 outlet;
#X obj 155 112 / 10;
#X text 20 118 0..1;
#X text 202 18 0..1;
#X obj 61 180 + 1;
#X text 19 180 1..48;
#X obj 61 155 * 47;
#X text 214 159 -10..10;
#X obj 155 40 - 0.5;
#X obj 155 63 * 200;
#X obj 155 138 cyclone/tosymbol;
#X connect 0 0 2 0;
#X connect 1 0 8 0;
#X connect 3 0 1 1;
#X connect 3 0 18 0;
#X connect 4 0 1 0;
#X connect 5 0 2 0;
#X connect 6 0 11 0;
#X connect 7 0 8 0;
#X connect 8 0 9 0;
#X connect 9 0 0 0;
#X connect 9 0 16 0;
#X connect 11 0 20 0;
#X connect 14 0 10 0;
#X connect 16 0 14 0;
#X connect 18 0 19 0;
#X connect 19 0 6 0;
#X connect 20 0 5 0;
#X restore 328 193 pd CtrlHorizontal~;
#N canvas 602 259 203 228 CtrlHeight~ 0;
#X msg 99 156 set \$1;
#X obj 57 50 +~;
#X obj 151 202 outlet;
#X obj 151 13 inlet;
#X obj 57 13 inlet~;
#X obj 14 14 inlet;
#X obj 57 84 snapshot~;
#X obj 57 106 change;
#X obj 57 202 outlet;
#X connect 0 0 2 0;
#X connect 1 0 6 0;
#X connect 3 0 1 1;
#X connect 4 0 1 0;
#X connect 5 0 6 0;
#X connect 6 0 7 0;
#X connect 7 0 0 0;
#X connect 7 0 8 0;
#X restore 89 368 pd CtrlHeight~;
#X obj 328 217 f;
#X obj -31 147 bng 12 250 50 0 \$0-A \$0-B Zero 15 6 1 9 -262144 -1
-1;
#X obj 409 14 loadbang;
#X text 233 684 On excite la surface sur tous les points de la verticale.
;
#X obj 504 73 cnv 15 60 30 empty empty empty 20 12 0 14 -24198 -66577
0;
#N canvas 187 342 455 425 Help 0;
#X obj 17 149 cnv 15 400 200 empty empty empty 20 12 0 14 -233017 -66577
0;
#X text 20 148 Citation;
#X text 18 369 Utile avec certaines cartes video de certains PC sous
Windows...;
#X text 18 354 SendMode est envoyŽ par MM GEM (Toggle "Compatible")
;
#X text 34 210 The newWaves object renders a number of waving square
at the current position with current color. The size of the square
can be changed via the inlet2 \, the height of the wave can be set
via the 3rd inlet. You can also set the wave-form (inlet4);
#X text 25 193 Description: Renders a waving square (mass-spring-system)
;
#X text 30 30 * bang : pour exciter l'onde selon les paramÌ¬tres encours
\; * stop : pour arrÌ»ter l'onde \; * noise : pour lancer du bruit.
;
#X text 30 10 On peut passer des messages dans la seconde entrÌ©e :
;
#X text 30 80 Les entrÌ©es 3 et 4 permettent de varier la force du
point d'excitation verticalement et horizontalement.;
#X restore 511 79 pd Help;
#X obj 125 14 inlet;
#X msg 184 425 noise 0.5;
#X obj 125 49 route stop noise;
#X text 511 25 Creation Pertuit;
#X text 249 97 17 8 2019;
#X obj 649 647 cnv 15 52 22 empty empty empty 20 12 0 14 -24198 -66577
0;
#N canvas 353 174 321 152 ?... 0;
#X obj 8 84 cnv 15 300 56 empty empty empty 20 12 0 14 -224896 -66577
0;
#X obj 8 7 cnv 18 300 70 empty empty ARGOPdMiniModules 3 10 1 14 -4033
-1 1.04858e+06;
#X obj 31 27 cnv 10 10 10 empty empty Gerard 0 5 1 11 -4033 -1 1.04858e+06
;
#X obj 69 27 cnv 10 10 10 empty empty Paresys 0 5 1 11 -4033 -1 1.04858e+06
;
#X obj 12 40 pddp/pddplink http://gerard.paresys.free.fr/ARGOPd/;
#X obj 13 121 pddp/pddplink http://puredata.info/downloads/pd-extended
;
#X obj 13 97 pddp/pddplink http://puredata.info/downloads/pure-data
;
#X text 13 85 Construit sous / Build under Pd-0.49...;
#X text 12 109 or Pd 0.43.4-extended;
#X obj 12 53 pddp/pddplink https://paresys.pagesperso-orange.fr/ARGOPd/
;
#X restore 652 650 pd ?...;
#X connect 4 0 43 0;
#X connect 5 0 24 0;
#X connect 6 0 7 0;
#X connect 7 0 5 0;
#X connect 8 0 63 0;
#X connect 9 0 63 0;
#X connect 11 0 85 1;
#X connect 12 0 23 0;
#X connect 15 0 16 0;
#X connect 16 0 8 0;
#X connect 16 1 9 0;
#X connect 21 0 36 0;
#X connect 22 0 23 1;
#X connect 23 0 82 0;
#X connect 24 0 4 0;
#X connect 26 0 86 2;
#X connect 27 0 87 0;
#X connect 34 0 38 0;
#X connect 35 0 62 0;
#X connect 36 0 4 0;
#X connect 37 0 63 0;
#X connect 38 0 65 0;
#X connect 39 0 63 3;
#X connect 40 0 41 0;
#X connect 41 0 42 0;
#X connect 42 0 60 0;
#X connect 43 0 63 0;
#X connect 43 1 63 0;
#X connect 44 0 45 0;
#X connect 45 0 58 0;
#X connect 46 0 47 0;
#X connect 47 0 57 0;
#X connect 48 0 49 0;
#X connect 49 0 54 0;
#X connect 50 0 51 0;
#X connect 51 0 55 0;
#X connect 52 0 53 0;
#X connect 53 0 56 0;
#X connect 54 0 60 0;
#X connect 55 0 59 0;
#X connect 56 0 61 0;
#X connect 57 0 61 0;
#X connect 58 0 59 0;
#X connect 59 0 61 0;
#X connect 60 0 59 0;
#X connect 61 0 63 0;
#X connect 62 0 39 0;
#X connect 63 0 2 0;
#X connect 64 0 63 0;
#X connect 65 0 37 0;
#X connect 66 0 67 0;
#X connect 67 0 68 0;
#X connect 67 0 74 0;
#X connect 68 0 67 1;
#X connect 69 0 66 0;
#X connect 69 1 71 0;
#X connect 70 0 69 0;
#X connect 71 0 67 1;
#X connect 72 0 75 0;
#X connect 73 0 70 0;
#X connect 73 1 72 1;
#X connect 74 0 72 0;
#X connect 74 1 75 1;
#X connect 75 0 64 0;
#X connect 76 0 63 1;
#X connect 77 0 85 2;
#X connect 79 0 77 0;
#X connect 80 0 84 0;
#X connect 81 0 26 0;
#X connect 82 0 4 0;
#X connect 82 1 85 0;
#X connect 82 2 86 0;
#X connect 83 0 86 1;
#X connect 84 0 63 0;
#X connect 85 0 87 0;
#X connect 85 1 78 0;
#X connect 86 0 63 2;
#X connect 86 1 26 0;
#X connect 87 0 73 0;
#X connect 88 0 81 0;
#X connect 88 0 79 0;
#X connect 89 0 62 0;
#X connect 93 0 95 0;
#X connect 94 0 63 0;
#X connect 95 0 35 0;
#X connect 95 1 94 0;
#X connect 95 2 27 0;
#X coords 0 -1 1 1 146 41 1 100 100;
#X restore 66 460 pd X-ARGO;
#X obj 153 35 declare -stdlib Gem;
#X obj 10 130 switch~;
#N canvas 608 166 228 173 ARGOnOff 0;
#X obj 100 100 tgl 18 1 \$0-SendOnOff \$0-ReceiveOnOff On/Off 20 11
1 14 -4033 -1 -1 1 1;
#X obj 99 10 loadbang;
#X msg 99 33 \; pd dsp 1;
#X obj 100 129 outlet;
#X text -50 99 Audio On/Off du patch ->;
#X text -22 45 Audio General On ->;
#X text 107 82 17 3 2010;
#X connect 0 0 3 0;
#X connect 1 0 2 0;
#X coords 0 -1 1 1 65 18 2 100 100;
#X restore 10 112 pd ARGOnOff;
#X text 15 96 V;
#X text 15 89 |;
#X text 3 78 On/Off Patch;
#X text 33 90 (Audio);
#X connect 4 0 14 1;
#X connect 8 0 9 0;
#X connect 9 0 13 0;
#X connect 10 0 14 0;
#X connect 13 0 10 0;
#X connect 17 0 16 0;
