#N canvas 523 23 622 463 10;
#N canvas 608 166 249 182 ARGOnOff 0;
#X obj 100 100 tgl 18 1 \$0-SendOnOff \$0-ReceiveOnOff On/Off 20 9
0 12 -4033 -1 -1 1 1;
#X obj 99 39 loadbang;
#X msg 99 62 \; pd dsp 1;
#X obj 100 129 outlet;
#X connect 0 0 3 0;
#X connect 1 0 2 0;
#X coords 0 -1 1 1 65 18 2 100 100;
#X restore 66 59 pd ARGOnOff;
#X obj 66 84 switch~;
#X text 15 143 NoteMIDI 0..127 = C-2..G8 ->;
#X text 141 154 Bang ->;
#X obj 13 13 cnv 15 15 15 empty empty ExMM109b-Synth9.pd 0 8 1 14 -262144
-1 0;
#X obj 227 417 dac~ 1 2;
#X text 89 241 Niveau general ->;
#X text 95 251 General level ->;
#X text 326 175 Bruit blanc -> Enveloppe -> Filtre passe-bande;
#X text 326 190 White noise -> Envelope -> Bandpass filter;
#X obj 453 154 * 3;
#X text 194 20 Start/Stop ->;
#N canvas 446 64 251 267 ARGO 0;
#X obj 101 104 cnv 30 49 130 empty ColorAmpli empty 20 12 0 14 -1 -258113
0;
#X obj 102 110 vu 8 120 \$0-B empty 0 0 1 11 -1 -4034 0 0;
#X obj 49 35 inlet~;
#X obj 22 108 cnv 15 60 30 empty empty empty 20 12 0 14 -24198 -66577
0;
#N canvas 300 65 442 264 Help 0;
#X obj 12 48 cnv 15 400 150 empty empty empty 20 12 0 14 -233017 -66577
0;
#X text 16 50 Citation;
#X text 28 67 peakamp~ tracks and outputs the absolute value of the
peak amplitude of the incoming signal. It outputs when banged or using
its own internal clock. The peak value is reset each time peakamp~
outputs a value.;
#X text 29 123 cyclone library;
#X text 28 135 http://suita.chopin.edu.pl/~czaja/miXed/externs/cyclone.html
;
#X text 29 155 Voir doc Max/MSP MSP46ReferenceManual.pdf;
#X text 18 14 MM-Vumetre;
#X restore 29 114 pd Help;
#N canvas 541 112 317 265 VuMetre 0;
#X obj 48 19 inlet~;
#X obj 41 54 *~;
#X obj -25 132 snapshot~;
#X obj -25 155 sqrt;
#X obj -25 100 lop~ 10;
#X obj -25 179 rmstodb;
#X obj -88 19 loadbang;
#X obj -25 202 - 100;
#X obj 58 156 sqrt;
#X obj 58 180 rmstodb;
#X obj 58 203 - 100;
#X obj -89 102 metro 200;
#X obj -28 19 r SendFluid;
#X obj 58 102 cyclone/peakamp~ 1000;
#X obj -25 228 outlet;
#X obj 58 227 outlet;
#X connect 0 0 1 0;
#X connect 0 0 1 1;
#X connect 1 0 4 0;
#X connect 1 0 13 0;
#X connect 2 0 3 0;
#X connect 3 0 5 0;
#X connect 4 0 2 0;
#X connect 5 0 7 0;
#X connect 6 0 11 0;
#X connect 7 0 14 0;
#X connect 8 0 9 0;
#X connect 9 0 10 0;
#X connect 10 0 15 0;
#X connect 11 0 2 0;
#X connect 12 0 11 1;
#X connect 13 0 8 0;
#X restore 49 63 pd VuMetre;
#X obj 172 211 cnv 15 42 25 empty empty empty 20 12 0 14 -24198 -66577
0;
#N canvas 336 174 309 137 ?. 0;
#X obj 3 83 cnv 15 300 46 empty empty empty 20 12 0 14 -224896 -66577
0;
#X obj 3 6 cnv 18 300 70 empty empty ARGOPdMiniModules 3 10 1 14 -4033
-1 1.04858e+06;
#X obj 26 26 cnv 10 10 10 empty empty Gerard 0 5 1 11 -4033 -1 1.04858e+06
;
#X obj 64 26 cnv 10 10 10 empty empty Paresys 0 5 1 11 -4033 -1 1.04858e+06
;
#X obj 7 37 pddp/pddplink http://gerard.paresys.free.fr/ARGOPd/;
#X text 8 85 Construit sous / Build under Pd 0.43.4-extended;
#X obj 8 111 pddp/pddplink http://puredata.info/downloads/pd-extended
;
#X obj 7 50 pddp/pddplink http://paresys.pagesperso-orange.fr/ARGOPd/
;
#X text 7 98 or Pd-0.46-7 + deken;
#X restore 176 215 pd ?.;
#X obj 113 110 vu 8 120 \$0-B empty 0 0 1 11 -1 -4034 1 0;
#X obj 126 35 inlet~;
#N canvas 541 112 317 265 VuMetre 0;
#X obj 48 19 inlet~;
#X obj 41 54 *~;
#X obj -25 132 snapshot~;
#X obj -25 155 sqrt;
#X obj -25 100 lop~ 10;
#X obj -25 179 rmstodb;
#X obj -88 19 loadbang;
#X obj -25 202 - 100;
#X obj 58 156 sqrt;
#X obj 58 180 rmstodb;
#X obj 58 203 - 100;
#X obj -89 102 metro 200;
#X obj -28 19 r SendFluid;
#X obj 58 102 cyclone/peakamp~ 1000;
#X obj -25 228 outlet;
#X obj 58 227 outlet;
#X connect 0 0 1 0;
#X connect 0 0 1 1;
#X connect 1 0 4 0;
#X connect 1 0 13 0;
#X connect 2 0 3 0;
#X connect 3 0 5 0;
#X connect 4 0 2 0;
#X connect 5 0 7 0;
#X connect 6 0 11 0;
#X connect 7 0 14 0;
#X connect 8 0 9 0;
#X connect 9 0 10 0;
#X connect 10 0 15 0;
#X connect 11 0 2 0;
#X connect 12 0 11 1;
#X connect 13 0 8 0;
#X restore 126 63 pd VuMetre;
#X text 153 87 3 3 2019;
#X connect 2 0 5 0;
#X connect 5 0 1 0;
#X connect 5 1 1 1;
#X connect 9 0 10 0;
#X connect 10 0 8 0;
#X connect 10 1 8 1;
#X coords 0 -1 1 1 51 135 2 100 100;
#X restore 310 306 pd ARGO;
#X obj 478 416 cnv 15 52 22 empty empty empty 20 12 0 14 -24198 -66577
0;
#N canvas 353 174 321 152 ?... 0;
#X obj 8 84 cnv 15 300 56 empty empty empty 20 12 0 14 -224896 -66577
0;
#X obj 8 7 cnv 18 300 70 empty empty ARGOPdMiniModules 3 10 1 14 -4033
-1 1.04858e+06;
#X obj 31 27 cnv 10 10 10 empty empty Gerard 0 5 1 11 -4033 -1 1.04858e+06
;
#X obj 69 27 cnv 10 10 10 empty empty Paresys 0 5 1 11 -4033 -1 1.04858e+06
;
#X obj 12 40 pddp/pddplink http://gerard.paresys.free.fr/ARGOPd/;
#X obj 13 121 pddp/pddplink http://puredata.info/downloads/pd-extended
;
#X obj 13 97 pddp/pddplink http://puredata.info/downloads/pure-data
;
#X text 13 85 Construit sous / Build under Pd-0.49...;
#X text 12 109 or Pd 0.43.4-extended;
#X obj 12 53 pddp/pddplink https://paresys.pagesperso-orange.fr/ARGOPd/
;
#X restore 481 419 pd ?...;
#N canvas 255 35 367 262 ARGO 0;
#X obj 272 45 cnv 15 60 30 empty empty empty 20 12 0 14 -24198 -66577
0;
#N canvas 424 180 418 133 Help 0;
#X text 10 51 Un "Bang" sort chaque X msec.;
#X text 8 83 A "Bang" outputs every X msec.;
#X restore 279 51 pd Help;
#X obj 95 198 cnv 15 170 24 empty empty empty 20 12 0 14 -261682 -66577
0;
#X obj 100 202 outlet;
#X obj 101 101 cnv 10 132 36 empty ColorForm Oscill. 80 9 1 14 -208064
-1 1.04858e+06;
#X obj 100 125 bng 12 50 50 0 \$0-A \$0-B empty 14 6 1 9 -262144 -1
-1;
#X obj 101 133 cnv 4 10 4 empty empty empty 20 12 0 14 -260097 -66577
0;
#X obj 100 113 nbx 6 12 1 999999 0 1 \$0-A ColorTime ms 40 17 1 9 -208064
-1 -1 93 256;
#X text 146 206 -> Bang;
#X text 145 196 -> Bang;
#X obj 100 100 tgl 12 1 \$0-A \$0-B empty 17 7 0 10 -262144 -1 -1 1
1;
#X obj 68 8 cnv 15 90 60 empty empty empty 20 12 0 14 -261682 -66577
0;
#X obj 101 101 cnv 4 10 4 empty empty empty 20 12 0 14 -260097 -66577
0;
#X obj 28 145 metro 300;
#X obj 223 101 cnv 4 10 4 empty empty empty 20 12 0 14 -260097 -66577
0;
#X obj 215 45 inlet;
#X text 238 95 <- ms;
#X obj 270 202 cnv 15 52 22 empty empty empty 20 12 0 14 -24198 -66577
0;
#N canvas 353 174 321 152 ?... 0;
#X obj 8 84 cnv 15 300 56 empty empty empty 20 12 0 14 -224896 -66577
0;
#X obj 8 7 cnv 18 300 70 empty empty ARGOPdMiniModules 3 10 1 14 -4033
-1 1.04858e+06;
#X obj 31 27 cnv 10 10 10 empty empty Gerard 0 5 1 11 -4033 -1 1.04858e+06
;
#X obj 69 27 cnv 10 10 10 empty empty Paresys 0 5 1 11 -4033 -1 1.04858e+06
;
#X obj 12 40 pddp/pddplink http://gerard.paresys.free.fr/ARGOPd/;
#X obj 13 121 pddp/pddplink http://puredata.info/downloads/pd-extended
;
#X obj 13 97 pddp/pddplink http://puredata.info/downloads/pure-data
;
#X text 13 85 Construit sous / Build under Pd-0.49...;
#X text 12 109 or Pd 0.43.4-extended;
#X obj 12 53 pddp/pddplink https://paresys.pagesperso-orange.fr/ARGOPd/
;
#X restore 273 205 pd ?...;
#X text 177 83 21 8 2019;
#X text 89 10 1: Play;
#X text 89 20 0: Stop;
#X text 71 30 bang: Change;
#X obj 100 45 inlet;
#X text 222 26 ms;
#X connect 5 0 3 0;
#X connect 7 0 13 1;
#X connect 10 0 13 0;
#X connect 13 0 5 0;
#X connect 15 0 7 0;
#X connect 23 0 10 0;
#X coords 0 -1 1 1 134 38 2 100 100;
#X restore 279 25 pd ARGO;
#N canvas 175 68 381 386 ARGO 0;
#X obj 101 101 cnv 20 116 34 empty ColorAmpli empty 20 12 0 14 -261299
-1 1.04858e+06;
#X obj 85 353 outlet~;
#X obj 157 104 cnv 10 20 10 empty ColorAmpli Ampli. 1 5 1 14 -261299
-1 1.04858e+06;
#X obj 85 43 inlet~;
#X obj 85 330 *~;
#X obj 115 118 hsl 101 12 -80 20 0 1 \$0-A ColorAmpli -10dB 0 7 1 9
-261299 -1 -1 7000 0;
#X obj 101 101 cnv 4 10 4 empty empty empty 20 12 0 14 -1 -66577 0
;
#X obj 101 131 cnv 4 10 4 empty empty empty 20 12 0 14 -1 -66577 0
;
#X obj 207 101 cnv 4 10 4 empty empty empty 20 12 0 14 -1 -66577 0
;
#X obj 207 131 cnv 4 10 4 empty empty empty 20 12 0 14 -1 -66577 0
;
#X obj 222 352 outlet~;
#X obj 222 42 inlet~;
#X obj 222 329 *~;
#X msg -42 138 label \$1;
#X text 148 194 -> 0.0001..10 = -80dB..20dB;
#X obj 142 175 expr (pow(10 \, $f1 / 20));
#X obj 142 215 sel 0.0001;
#X msg 100 244 0;
#X obj 100 118 tgl 12 1 \$0-A \$0-B Mute 2 -5 1 9 -261299 -1 -1 0 1
;
#X obj 99 146 select 0 1;
#X obj 140 295 line~;
#X obj 140 275 pack 0 10;
#X msg 123 74 set 0;
#X obj -42 92 cyclone/sprintf %ddB;
#X text 228 110 6 3 2016;
#X obj -42 115 cyclone/tosymbol;
#X obj 273 344 cnv 15 42 25 empty empty empty 20 12 0 14 -24198 -66577
0;
#N canvas 336 174 309 137 ?. 0;
#X obj 3 83 cnv 15 300 46 empty empty empty 20 12 0 14 -224896 -66577
0;
#X obj 3 6 cnv 18 300 70 empty empty ARGOPdMiniModules 3 10 1 14 -4033
-1 1.04858e+06;
#X obj 26 26 cnv 10 10 10 empty empty Gerard 0 5 1 11 -4033 -1 1.04858e+06
;
#X obj 64 26 cnv 10 10 10 empty empty Paresys 0 5 1 11 -4033 -1 1.04858e+06
;
#X obj 7 37 pddp/pddplink http://gerard.paresys.free.fr/ARGOPd/;
#X text 8 85 Construit sous / Build under Pd 0.43.4-extended;
#X obj 8 111 pddp/pddplink http://puredata.info/downloads/pd-extended
;
#X obj 7 50 pddp/pddplink http://paresys.pagesperso-orange.fr/ARGOPd/
;
#X text 7 98 or Pd-0.46-7 + deken;
#X restore 277 348 pd ?.;
#X connect 3 0 4 0;
#X connect 4 0 1 0;
#X connect 5 0 15 0;
#X connect 5 0 23 0;
#X connect 11 0 12 0;
#X connect 12 0 10 0;
#X connect 13 0 5 0;
#X connect 15 0 16 0;
#X connect 16 0 17 0;
#X connect 16 1 21 0;
#X connect 16 1 22 0;
#X connect 17 0 21 0;
#X connect 17 0 25 0;
#X connect 18 0 19 0;
#X connect 19 0 5 0;
#X connect 19 1 17 0;
#X connect 20 0 12 1;
#X connect 20 0 4 1;
#X connect 21 0 20 0;
#X connect 22 0 18 0;
#X connect 23 0 25 0;
#X connect 25 0 13 0;
#X coords 0 -1 1 1 118 36 1 100 100;
#X restore 195 231 pd ARGO;
#N canvas 416 190 424 430 ARGO 0;
#X obj 178 383 outlet~;
#X obj 68 117 cnv 15 60 30 empty empty empty 20 12 0 14 -24198 -66577
0;
#N canvas 300 362 421 88 Help 0;
#X text 73 32 Bruit blanc -> Enveloppe -> Filtre passe-bande;
#X text 74 54 White noise -> Envelope -> Bandpass filter;
#X text 48 9 Synth9 = Synthétiseur 9 = Synthesizer 9;
#X restore 75 123 pd Help;
#N canvas 512 211 264 245 Freq-v6 0;
#X obj 33 34 inlet;
#X obj 33 188 outlet;
#X text 30 205 Hslider;
#X text 28 13 Hslider;
#X obj 157 160 clip 0 20000;
#X obj 157 136 mtof;
#X obj 157 187 outlet;
#X text 154 205 Freq Hz;
#N canvas 220 243 583 317 pitchb-11-2010 0;
#X obj 70 111 mod 12;
#X obj 70 135 sel 0 1 2 3 4 5 6 7 8 9 10 11;
#X msg 246 170 A;
#X msg 300 170 B;
#X msg 192 170 G;
#X msg 3 170 C;
#X msg 57 170 D;
#X msg 111 170 E;
#X msg 138 170 F;
#X obj 204 1 inlet;
#X obj 377 115 div 12;
#X obj 204 79 t f f;
#X text 334 190 -> Numero de l'octave;
#X text 213 64 -> Numero MIDI de la note (69 = A3 = 440Hz);
#X msg 260 260 label \$1;
#X obj 260 283 outlet;
#X msg 30 170 Db;
#X msg 84 170 Eb;
#X msg 165 170 Gb;
#X msg 219 170 Ab;
#X msg 273 170 Bb;
#X text 369 78 (70 = A#3 = Bb3);
#X obj 260 238 symbol;
#X text 11 231 Impossible d'afficher # dans un label;
#X text 11 243 donc j'affiche b;
#X obj 204 51 int;
#X text 255 23 -> pour corriger certaines erreurs de calcul;
#X obj 377 144 - 12;
#X text 255 35 et le pb du passage a zero de mod 12;
#X obj 204 25 + 120.5;
#X obj 260 213 cyclone/sprintf %s%d;
#X connect 0 0 1 0;
#X connect 1 0 5 0;
#X connect 1 1 16 0;
#X connect 1 2 6 0;
#X connect 1 3 17 0;
#X connect 1 4 7 0;
#X connect 1 5 8 0;
#X connect 1 6 18 0;
#X connect 1 7 4 0;
#X connect 1 8 19 0;
#X connect 1 9 2 0;
#X connect 1 10 20 0;
#X connect 1 11 3 0;
#X connect 2 0 30 0;
#X connect 3 0 30 0;
#X connect 4 0 30 0;
#X connect 5 0 30 0;
#X connect 6 0 30 0;
#X connect 7 0 30 0;
#X connect 8 0 30 0;
#X connect 9 0 29 0;
#X connect 10 0 27 0;
#X connect 11 0 0 0;
#X connect 11 1 10 0;
#X connect 14 0 15 0;
#X connect 16 0 30 0;
#X connect 17 0 30 0;
#X connect 18 0 30 0;
#X connect 19 0 30 0;
#X connect 20 0 30 0;
#X connect 22 0 14 0;
#X connect 25 0 11 0;
#X connect 27 0 30 1;
#X connect 29 0 25 0;
#X connect 30 0 22 0;
#X restore 33 99 pd pitchb-11-2010;
#X connect 0 0 5 0;
#X connect 0 0 8 0;
#X connect 4 0 6 0;
#X connect 5 0 4 0;
#X connect 8 0 1 0;
#X restore 245 195 pd Freq-v6;
#X obj 201 101 cnv 6 132 68 empty ColorForm Synth9. 80 8 1 14 -262144
-1 1.04858e+06;
#X obj 200 101 bng 12 50 50 0 \$0-A \$0-B empty 14 6 1 9 -262144 -1
-1;
#X obj 201 101 cnv 4 10 4 empty empty empty 20 12 0 14 -260097 -66577
0;
#X obj 201 165 cnv 4 10 4 empty empty empty 20 12 0 14 -1 -66577 0
;
#X obj 203 117 hsl 129 12 0 128 0 1 \$0-A ColorTime A4 0 7 1 9 -208064
-1 -1 8100 0;
#X obj 246 69 t b f;
#X obj 202 143 cnv 6 2 2 empty ColorForm Decay 0 4 1 9 -262144 -1 1.04858e+06
;
#X obj 202 132 cnv 6 2 2 empty ColorForm Attack 0 4 1 9 -262144 -1
1.04858e+06;
#X obj 323 165 cnv 4 10 4 empty empty empty 0 0 0 9 -1 -66577 0;
#X obj 89 195 noise~;
#X obj 263 302 bp~;
#X obj 263 383 outlet~;
#N canvas 375 291 296 329 Q 0;
#X obj 37 198 line;
#X obj 40 135 + 1;
#X obj 39 156 clip 1 200;
#X msg 38 177 \$1 100;
#X obj 40 93 * 1;
#X obj 41 72 * 1;
#X obj 42 49 t f f f;
#X obj 37 220 outlet;
#X obj 39 114 * 200;
#X obj 88 -71 inlet;
#X obj 183 213 outlet;
#X msg 182 82 label \$1;
#X obj 182 60 tosymbol;
#X obj 182 8 * 100;
#X obj 182 32 int;
#X obj 126 213 outlet;
#X obj 124 117 expr max((100 - $f1) \, 4);
#X obj 132 145 expr max( $f1 \, 4);
#X connect 0 0 7 0;
#X connect 1 0 2 0;
#X connect 2 0 3 0;
#X connect 3 0 0 0;
#X connect 4 0 8 0;
#X connect 5 0 4 0;
#X connect 6 0 5 0;
#X connect 6 1 5 1;
#X connect 6 2 4 1;
#X connect 8 0 1 0;
#X connect 9 0 13 0;
#X connect 9 0 6 0;
#X connect 11 0 10 0;
#X connect 12 0 11 0;
#X connect 13 0 14 0;
#X connect 13 0 17 0;
#X connect 14 0 12 0;
#X connect 17 0 15 0;
#X restore 205 250 pd Q;
#X obj 233 153 hsl 99 12 0 1 0 1 \$0-A ColorForm 91 0 7 1 9 -188398
-1 -1 9000 0;
#X obj 221 156 cnv 6 2 2 empty ColorForm Q 0 4 1 9 -262144 -1 1.04858e+06
;
#X obj 203 154 cnv 6 2 2 empty ColorForm ms 0 4 1 9 -262144 -1 1.04858e+06
;
#X obj 233 129 hsl 99 12 0.1 10000 1 1 \$0-A ColorForm 0.36 0 7 1 9
-208064 -1 -1 1100 0;
#X obj 233 141 hsl 99 12 0.1 10000 1 1 \$0-A ColorForm 63.99 0 7 1
9 -208064 -1 -1 5500 0;
#N canvas 578 234 450 300 label-ms 0;
#X msg 156 171 label \$1;
#X obj 156 111 expr (int(100 * $f1) / 100) \;;
#X obj 154 84 inlet;
#X obj 157 200 outlet;
#X obj 156 131 cyclone/sprintf %s;
#X obj 156 151 cyclone/tosymbol;
#X connect 0 0 3 0;
#X connect 1 0 4 0;
#X connect 2 0 1 0;
#X connect 4 0 5 0;
#X connect 5 0 0 0;
#X restore 344 120 pd label-ms;
#N canvas 0 23 450 300 label-ms 0;
#X msg 156 171 label \$1;
#X obj 156 111 expr (int(100 * $f1) / 100) \;;
#X obj 154 84 inlet;
#X obj 157 200 outlet;
#X obj 156 151 cyclone/tosymbol;
#X obj 156 131 cyclone/sprintf %s;
#X connect 0 0 3 0;
#X connect 1 0 5 0;
#X connect 2 0 1 0;
#X connect 4 0 0 0;
#X connect 5 0 4 0;
#X restore 345 142 pd label-ms;
#X obj 200 44 route bang float;
#X obj 14 8 cnv 15 240 30 empty empty empty 20 12 0 14 -261682 -66577
0;
#X obj 200 15 inlet;
#X text 22 9 NoteMIDI;
#X text 77 9 0..127 = C-2..G8 ->;
#X text 150 23 Bang ->;
#X obj 89 269 *~;
#X obj 137 195 creb/ead~ 1 50;
#X text 64 349 vcf~;
#X obj 316 195 noise~;
#X obj 316 269 *~;
#X obj 178 302 bp~;
#X obj 178 353 *~ 0;
#X obj 263 353 *~ 0;
#X text 64 333 cyclone/tanh~;
#X obj 357 378 cnv 15 52 22 empty empty empty 20 12 0 14 -24198 -66577
0;
#N canvas 353 174 321 152 ?... 0;
#X obj 8 84 cnv 15 300 56 empty empty empty 20 12 0 14 -224896 -66577
0;
#X obj 8 7 cnv 18 300 70 empty empty ARGOPdMiniModules 3 10 1 14 -4033
-1 1.04858e+06;
#X obj 31 27 cnv 10 10 10 empty empty Gerard 0 5 1 11 -4033 -1 1.04858e+06
;
#X obj 69 27 cnv 10 10 10 empty empty Paresys 0 5 1 11 -4033 -1 1.04858e+06
;
#X obj 12 40 pddp/pddplink http://gerard.paresys.free.fr/ARGOPd/;
#X obj 13 121 pddp/pddplink http://puredata.info/downloads/pd-extended
;
#X obj 13 97 pddp/pddplink http://puredata.info/downloads/pure-data
;
#X text 13 85 Construit sous / Build under Pd-0.49...;
#X text 12 109 or Pd 0.43.4-extended;
#X obj 12 53 pddp/pddplink https://paresys.pagesperso-orange.fr/ARGOPd/
;
#X restore 360 381 pd ?...;
#X text 304 80 24 8 2019;
#X connect 3 0 8 0;
#X connect 3 1 14 1;
#X connect 3 1 35 1;
#X connect 5 0 31 0;
#X connect 8 0 3 0;
#X connect 9 0 5 0;
#X connect 9 1 8 0;
#X connect 13 0 30 0;
#X connect 14 0 37 0;
#X connect 16 0 14 2;
#X connect 16 0 35 2;
#X connect 16 1 36 1;
#X connect 16 1 37 1;
#X connect 16 2 17 0;
#X connect 17 0 16 0;
#X connect 20 0 22 0;
#X connect 20 0 31 1;
#X connect 21 0 23 0;
#X connect 21 0 31 2;
#X connect 22 0 20 0;
#X connect 23 0 21 0;
#X connect 24 0 5 0;
#X connect 24 1 9 0;
#X connect 26 0 24 0;
#X connect 30 0 35 0;
#X connect 31 0 30 1;
#X connect 31 0 34 1;
#X connect 33 0 34 0;
#X connect 34 0 14 0;
#X connect 35 0 36 0;
#X connect 36 0 0 0;
#X connect 37 0 15 0;
#X coords 0 -1 1 1 134 70 1 200 100;
#X restore 189 150 pd ARGO;
#N canvas 368 44 417 329 ARGO 0;
#X obj 101 101 cnv 20 131 67 empty ColorForm Chaos. 80 7 1 14 -261476
-1 1.04858e+06;
#X obj 104 115 hsl 127 12 3 4 0 1 \$0-A ColorForm P=3.912 0 7 1 9 -262144
-1 -1 11500 0;
#X obj 174 37 cnv 15 60 30 empty empty empty 20 12 0 14 -24198 -66577
0;
#N canvas 314 68 448 175 Help 0;
#X text 30 27 n+1;
#X text 103 27 n;
#X text 157 26 n;
#X text 61 22 = P * X * (1 - X );
#X text 12 21 - X;
#X text 191 21 chaotique si 0 < X < 1 et 3.57 < P < 4;
#X text 11 73 - En faisant varier P de 3 à 4 \, on passe d'une oscillation
régulière \, stable \, à une variation chaotique... La limite est P
= 3.57. C'est le "scénario de Feigenbaum".;
#X obj 33 48 pddplink http://fr.wikipedia.org/wiki/Image:Diagramme_de_bifurcation.png
;
#X obj 30 118 pddplink http://fr.wikipedia.org/wiki/Théorie_du_chaos
;
#X obj 29 133 pddplink http://en.wikipedia.org/wiki/Chaos_theory;
#X restore 181 44 pd Help;
#N canvas 385 69 294 182 Chaos 0;
#X obj 223 33 inlet;
#X text 236 14 P;
#X text 86 13 X;
#X text 33 152 P * X * (1 - X);
#X text 9 102 0 < X < 1;
#X obj 70 32 inlet;
#X obj 70 63 expr $f2 * $f1 * (1 - $f1);
#X obj 70 102 clip 0.001 0.999;
#X obj 70 134 outlet;
#X connect 0 0 6 1;
#X connect 5 0 6 0;
#X connect 6 0 7 0;
#X connect 7 0 8 0;
#X restore 24 198 pd Chaos;
#X obj 100 100 bng 12 50 50 0 \$0-A \$0-B empty 14 6 1 9 -262144 -1
-1;
#X obj 101 101 cnv 4 10 4 empty empty empty 20 12 0 14 -260097 -66577
0;
#X obj 101 164 cnv 4 10 4 empty empty empty 20 12 0 14 -260097 -66577
0;
#X obj -57 29 cnv 15 170 24 empty empty empty 20 12 0 14 -261682 -66577
0;
#X obj 100 32 inlet;
#X text -57 36 Input anything message ->;
#X text -57 26 N'importe quel message ->;
#X obj 24 173 float;
#X obj 104 127 hsl 127 12 0 1 0 1 \$0-A ColorForm X=0.292 0 7 1 9 -262144
-1 -1 3687 0;
#N canvas 389 277 212 161 labelP 0;
#X msg 15 103 label \$1;
#X obj 14 36 expr (int(1000 * $f1) / 1000) \;;
#X obj 14 12 inlet;
#X obj 15 126 outlet;
#X obj 15 59 cyclone/sprintf P=%s;
#X obj 15 81 cyclone/tosymbol;
#X connect 0 0 3 0;
#X connect 1 0 4 0;
#X connect 2 0 1 0;
#X connect 4 0 5 0;
#X connect 5 0 0 0;
#X restore -19 63 pd labelP;
#N canvas 389 277 212 161 labelX 0;
#X msg 15 103 label \$1;
#X obj 14 36 expr (int(1000 * $f1) / 1000) \;;
#X obj 14 12 inlet;
#X obj 15 126 outlet;
#X obj 15 59 cyclone/sprintf X=%s;
#X obj 15 81 cyclone/tosymbol;
#X connect 0 0 3 0;
#X connect 1 0 4 0;
#X connect 2 0 1 0;
#X connect 4 0 5 0;
#X connect 5 0 0 0;
#X restore -18 90 pd labelX;
#X obj 100 243 int;
#X obj 100 266 outlet;
#X obj 103 139 hsl 128 12 0 127 0 1 \$0-A ColorForm max=92 0 7 1 9
-261299 -1 -1 9200 0;
#N canvas 389 277 212 161 labelMax 0;
#X msg 15 103 label \$1;
#X obj 15 30 inlet;
#X obj 15 126 outlet;
#X obj 15 81 cyclone/tosymbol;
#X obj 15 59 cyclone/sprintf max=%s;
#X connect 0 0 2 0;
#X connect 1 0 4 0;
#X connect 3 0 0 0;
#X connect 4 0 3 0;
#X restore -47 120 pd labelMax;
#N canvas 389 277 212 161 labelMin 0;
#X msg 15 103 label \$1;
#X obj 15 30 inlet;
#X obj 15 126 outlet;
#X obj 15 81 cyclone/tosymbol;
#X obj 15 59 cyclone/sprintf min=%s;
#X connect 0 0 2 0;
#X connect 1 0 4 0;
#X connect 3 0 0 0;
#X connect 4 0 3 0;
#X restore -49 146 pd labelMin;
#X obj 103 151 hsl 128 12 0 127 0 1 \$0-A ColorForm min=77 0 7 1 9
-261299 -1 -1 7700 0;
#X text 107 184 -> X = P * X * (1 - X);
#X obj 100 216 expr $f1 * ($f3 - $f2) + $f2;
#X text 96 284 Integer;
#X text 96 299 0..127;
#X obj 220 273 cnv 15 52 22 empty empty empty 20 12 0 14 -24198 -66577
0;
#N canvas 353 174 321 152 ?... 0;
#X obj 8 84 cnv 15 300 56 empty empty empty 20 12 0 14 -224896 -66577
0;
#X obj 8 7 cnv 18 300 70 empty empty ARGOPdMiniModules 3 10 1 14 -4033
-1 1.04858e+06;
#X obj 31 27 cnv 10 10 10 empty empty Gerard 0 5 1 11 -4033 -1 1.04858e+06
;
#X obj 69 27 cnv 10 10 10 empty empty Paresys 0 5 1 11 -4033 -1 1.04858e+06
;
#X obj 12 40 pddp/pddplink http://gerard.paresys.free.fr/ARGOPd/;
#X obj 13 121 pddp/pddplink http://puredata.info/downloads/pd-extended
;
#X obj 13 97 pddp/pddplink http://puredata.info/downloads/pure-data
;
#X text 13 85 Construit sous / Build under Pd-0.49...;
#X text 12 109 or Pd 0.43.4-extended;
#X obj 12 53 pddp/pddplink https://paresys.pagesperso-orange.fr/ARGOPd/
;
#X restore 223 276 pd ?...;
#X text 169 84 18 8 2019;
#X connect 1 0 4 1;
#X connect 1 0 14 0;
#X connect 4 0 13 0;
#X connect 5 0 12 0;
#X connect 9 0 5 0;
#X connect 12 0 4 0;
#X connect 13 0 15 0;
#X connect 13 0 12 1;
#X connect 13 0 23 0;
#X connect 14 0 1 0;
#X connect 15 0 13 0;
#X connect 16 0 17 0;
#X connect 18 0 19 0;
#X connect 18 0 23 2;
#X connect 19 0 18 0;
#X connect 20 0 21 0;
#X connect 21 0 20 0;
#X connect 21 0 23 1;
#X connect 23 0 16 0;
#X coords 0 -1 1 1 133 69 1 100 100;
#X restore 189 75 pd ARGO;
#N canvas 368 44 417 329 ARGO 0;
#X obj 101 101 cnv 20 131 67 empty ColorForm Chaos. 80 7 1 14 -261476
-1 1.04858e+06;
#X obj 104 115 hsl 127 12 3 4 0 1 \$0-A ColorForm P=3.936 0 7 1 9 -262144
-1 -1 11800 0;
#X obj 174 37 cnv 15 60 30 empty empty empty 20 12 0 14 -24198 -66577
0;
#N canvas 314 68 448 175 Help 0;
#X text 30 27 n+1;
#X text 103 27 n;
#X text 157 26 n;
#X text 61 22 = P * X * (1 - X );
#X text 12 21 - X;
#X text 191 21 chaotique si 0 < X < 1 et 3.57 < P < 4;
#X text 11 73 - En faisant varier P de 3 à 4 \, on passe d'une oscillation
régulière \, stable \, à une variation chaotique... La limite est P
= 3.57. C'est le "scénario de Feigenbaum".;
#X obj 33 48 pddplink http://fr.wikipedia.org/wiki/Image:Diagramme_de_bifurcation.png
;
#X obj 30 118 pddplink http://fr.wikipedia.org/wiki/Théorie_du_chaos
;
#X obj 29 133 pddplink http://en.wikipedia.org/wiki/Chaos_theory;
#X restore 181 44 pd Help;
#N canvas 385 69 294 182 Chaos 0;
#X obj 223 33 inlet;
#X text 236 14 P;
#X text 86 13 X;
#X text 33 152 P * X * (1 - X);
#X text 9 102 0 < X < 1;
#X obj 70 32 inlet;
#X obj 70 63 expr $f2 * $f1 * (1 - $f1);
#X obj 70 102 clip 0.001 0.999;
#X obj 70 134 outlet;
#X connect 0 0 6 1;
#X connect 5 0 6 0;
#X connect 6 0 7 0;
#X connect 7 0 8 0;
#X restore 24 198 pd Chaos;
#X obj 100 100 bng 12 50 50 0 \$0-A \$0-B empty 14 6 1 9 -262144 -1
-1;
#X obj 101 101 cnv 4 10 4 empty empty empty 20 12 0 14 -260097 -66577
0;
#X obj 101 164 cnv 4 10 4 empty empty empty 20 12 0 14 -260097 -66577
0;
#X obj -57 29 cnv 15 170 24 empty empty empty 20 12 0 14 -261682 -66577
0;
#X obj 100 32 inlet;
#X text -57 36 Input anything message ->;
#X text -57 26 N'importe quel message ->;
#X obj 24 173 float;
#X obj 104 127 hsl 127 12 0 1 0 1 \$0-A ColorForm X=0.168 0 7 1 9 -262144
-1 -1 2120 0;
#N canvas 389 277 212 161 labelP 0;
#X msg 15 103 label \$1;
#X obj 14 36 expr (int(1000 * $f1) / 1000) \;;
#X obj 14 12 inlet;
#X obj 15 126 outlet;
#X obj 15 59 cyclone/sprintf P=%s;
#X obj 15 81 cyclone/tosymbol;
#X connect 0 0 3 0;
#X connect 1 0 4 0;
#X connect 2 0 1 0;
#X connect 4 0 5 0;
#X connect 5 0 0 0;
#X restore -19 63 pd labelP;
#N canvas 389 277 212 161 labelX 0;
#X msg 15 103 label \$1;
#X obj 14 36 expr (int(1000 * $f1) / 1000) \;;
#X obj 14 12 inlet;
#X obj 15 126 outlet;
#X obj 15 59 cyclone/sprintf X=%s;
#X obj 15 81 cyclone/tosymbol;
#X connect 0 0 3 0;
#X connect 1 0 4 0;
#X connect 2 0 1 0;
#X connect 4 0 5 0;
#X connect 5 0 0 0;
#X restore -18 90 pd labelX;
#X obj 100 243 int;
#X obj 100 266 outlet;
#X obj 103 139 hsl 128 12 0 127 0 1 \$0-A ColorForm max=91 0 7 1 9
-261299 -1 -1 9100 0;
#N canvas 389 277 212 161 labelMax 0;
#X msg 15 103 label \$1;
#X obj 15 30 inlet;
#X obj 15 126 outlet;
#X obj 15 81 cyclone/tosymbol;
#X obj 15 59 cyclone/sprintf max=%s;
#X connect 0 0 2 0;
#X connect 1 0 4 0;
#X connect 3 0 0 0;
#X connect 4 0 3 0;
#X restore -47 120 pd labelMax;
#N canvas 389 277 212 161 labelMin 0;
#X msg 15 103 label \$1;
#X obj 15 30 inlet;
#X obj 15 126 outlet;
#X obj 15 81 cyclone/tosymbol;
#X obj 15 59 cyclone/sprintf min=%s;
#X connect 0 0 2 0;
#X connect 1 0 4 0;
#X connect 3 0 0 0;
#X connect 4 0 3 0;
#X restore -49 146 pd labelMin;
#X obj 103 151 hsl 128 12 0 127 0 1 \$0-A ColorForm min=19 0 7 1 9
-261299 -1 -1 1900 0;
#X text 107 184 -> X = P * X * (1 - X);
#X obj 100 216 expr $f1 * ($f3 - $f2) + $f2;
#X text 96 284 Integer;
#X text 96 299 0..127;
#X obj 220 273 cnv 15 52 22 empty empty empty 20 12 0 14 -24198 -66577
0;
#N canvas 353 174 321 152 ?... 0;
#X obj 8 84 cnv 15 300 56 empty empty empty 20 12 0 14 -224896 -66577
0;
#X obj 8 7 cnv 18 300 70 empty empty ARGOPdMiniModules 3 10 1 14 -4033
-1 1.04858e+06;
#X obj 31 27 cnv 10 10 10 empty empty Gerard 0 5 1 11 -4033 -1 1.04858e+06
;
#X obj 69 27 cnv 10 10 10 empty empty Paresys 0 5 1 11 -4033 -1 1.04858e+06
;
#X obj 12 40 pddp/pddplink http://gerard.paresys.free.fr/ARGOPd/;
#X obj 13 121 pddp/pddplink http://puredata.info/downloads/pd-extended
;
#X obj 13 97 pddp/pddplink http://puredata.info/downloads/pure-data
;
#X text 13 85 Construit sous / Build under Pd-0.49...;
#X text 12 109 or Pd 0.43.4-extended;
#X obj 12 53 pddp/pddplink https://paresys.pagesperso-orange.fr/ARGOPd/
;
#X restore 223 276 pd ?...;
#X text 169 84 18 8 2019;
#X connect 1 0 4 1;
#X connect 1 0 14 0;
#X connect 4 0 13 0;
#X connect 5 0 12 0;
#X connect 9 0 5 0;
#X connect 12 0 4 0;
#X connect 13 0 15 0;
#X connect 13 0 12 1;
#X connect 13 0 23 0;
#X connect 14 0 1 0;
#X connect 15 0 13 0;
#X connect 16 0 17 0;
#X connect 18 0 19 0;
#X connect 18 0 23 2;
#X connect 19 0 18 0;
#X connect 20 0 21 0;
#X connect 21 0 20 0;
#X connect 21 0 23 1;
#X connect 23 0 16 0;
#X coords 0 -1 1 1 133 69 1 100 100;
#X restore 453 75 pd ARGO;
#N canvas 416 45 303 292 ARGO 0;
#X obj 84 251 outlet~;
#X obj 84 56 inlet~;
#X obj 101 101 cnv 12 93 15 empty ColorAmpli Tanh. 47 9 1 14 -261299
-1 1.04858e+06;
#X obj 101 112 cnv 4 10 4 empty empty empty 20 12 0 14 -1 -66577 0
;
#X obj 101 101 cnv 4 10 4 empty empty empty 20 12 0 14 -1 -66577 0
;
#X obj 84 204 cyclone/tanh~;
#X obj 14 57 cnv 15 60 30 empty empty empty 20 12 0 14 -24198 -66577
0;
#N canvas 254 158 427 320 Help 0;
#X obj 10 9 cnv 15 400 290 empty empty empty 20 12 0 14 -233017 -66577
0;
#X text 13 8 Citation;
#X text 29 34 cyclone library;
#X text 29 46 calculate hyperbolic tangent function;
#X text 29 23 tanh~;
#X text 29 168 cf doc Max/MSP -> MSP46ReferenceManual.pdf;
#X text 29 94 outputs signal values always between -1 and 1;
#X text 29 114 turn a sine wave into a square wave by cranking up the
volume!;
#X text 29 63 can be used to simulate analog distortion \, and is much
"smoother" than using clip~;
#X obj 29 146 pddp/pddplink http://suita.chopin.edu.pl/~czaja/miXed/externs/cyclone.html
;
#X restore 21 63 pd Help;
#X obj 184 112 cnv 4 10 4 empty empty empty 20 12 0 14 -1 -66577 0
;
#X obj 184 101 cnv 4 10 4 empty empty empty 20 12 0 14 -1 -66577 0
;
#X obj 177 251 outlet~;
#X obj 177 56 inlet~;
#X obj 177 204 cyclone/tanh~;
#X obj 84 178 *~;
#X obj 116 103 tgl 12 1 \$0-A \$0-B On 15 6 1 10 -262144 -1 -1 1 1
;
#X obj 117 143 == 0;
#X obj 177 179 *~;
#X obj 56 178 *~;
#X obj 209 180 *~;
#X obj 231 246 cnv 15 52 22 empty empty empty 20 12 0 14 -24198 -66577
0;
#N canvas 353 174 321 152 ?... 0;
#X obj 8 84 cnv 15 300 56 empty empty empty 20 12 0 14 -224896 -66577
0;
#X obj 8 7 cnv 18 300 70 empty empty ARGOPdMiniModules 3 10 1 14 -4033
-1 1.04858e+06;
#X obj 31 27 cnv 10 10 10 empty empty Gerard 0 5 1 11 -4033 -1 1.04858e+06
;
#X obj 69 27 cnv 10 10 10 empty empty Paresys 0 5 1 11 -4033 -1 1.04858e+06
;
#X obj 12 40 pddp/pddplink http://gerard.paresys.free.fr/ARGOPd/;
#X obj 13 121 pddp/pddplink http://puredata.info/downloads/pd-extended
;
#X obj 13 97 pddp/pddplink http://puredata.info/downloads/pure-data
;
#X text 13 85 Construit sous / Build under Pd-0.49...;
#X text 12 109 or Pd 0.43.4-extended;
#X obj 12 53 pddp/pddplink https://paresys.pagesperso-orange.fr/ARGOPd/
;
#X restore 234 249 pd ?...;
#X text 112 85 24 8 2019;
#X connect 1 0 13 0;
#X connect 1 0 17 0;
#X connect 5 0 0 0;
#X connect 11 0 16 0;
#X connect 11 0 18 0;
#X connect 12 0 10 0;
#X connect 13 0 5 0;
#X connect 14 0 13 1;
#X connect 14 0 15 0;
#X connect 14 0 16 1;
#X connect 15 0 17 1;
#X connect 15 0 18 1;
#X connect 16 0 12 0;
#X connect 17 0 0 0;
#X connect 18 0 10 0;
#X coords 0 -1 1 1 95 17 2 100 100;
#X restore 207 277 pd ARGO;
#X connect 0 0 1 0;
#X connect 10 0 15 1;
#X connect 15 0 18 0;
#X connect 15 0 19 0;
#X connect 16 0 20 0;
#X connect 16 1 20 1;
#X connect 17 0 16 0;
#X connect 17 1 16 1;
#X connect 18 0 17 0;
#X connect 19 0 10 0;
#X connect 20 0 5 0;
#X connect 20 0 12 0;
#X connect 20 1 5 1;
#X connect 20 1 12 1;
