#N canvas 394 64 409 449 10;
#X declare -stdlib Gem;
#X obj 208 60 separator;
#N canvas 310 151 409 233 ARGO 0;
#X obj 296 51 cnv 15 60 30 empty empty empty 20 12 0 14 -24198 -66577
0;
#N canvas 612 235 406 159 Help 0;
#X obj 11 37 cnv 15 380 90 empty empty empty 20 12 0 14 -233017 -66577
0;
#X text 16 37 Citation;
#X text 7 12 - GEM-Fog;
#X text 25 52 - fogmode 0/1/2/3 : set the fog mode (OFF/LINEAR/EXP/EXP^2)
;
#X text 25 66 - fog num : the fog density;
#X text 25 81 - fogcolor R G B : the color of the fog;
#X restore 303 57 pd Help;
#X obj 213 188 gemwin;
#X msg 142 158 fogmode \$1;
#X msg 213 158 fog \$1;
#X obj 213 130 / 100;
#X msg 260 158 fogcolor \$1 \$1 \$1;
#X obj 260 129 / 100;
#X obj 101 101 cnv 10 183 20 empty empty GEM-Fog 2 11 1 14 -1 -262144
1.04858e+06;
#X obj 166 105 hradio 12 1 1 4 \$0-A \$0-ColorGEM empty 51 6 1 11 -262144
-1 -262144 0;
#X obj 214 105 nbx 3 12 0 300 0 1 \$0-A \$0-ColorGEM empty 33 6 1 11
-262144 -1 -262144 90 256;
#X obj 248 105 nbx 3 12 0 300 0 1 \$0-A \$0-ColorGEM empty 33 6 1 11
-262144 -1 -262144 80 256;
#X obj 166 70 t b b b;
#X obj 140 11 cnv 15 120 30 empty empty empty 20 12 0 14 -258113 -66577
0;
#X obj 167 18 r RenderGEM;
#X obj 166 45 select 1;
#X obj 323 182 cnv 15 42 25 empty empty empty 20 12 0 14 -24198 -66577
0;
#N canvas 336 174 309 137 ?. 0;
#X obj 3 83 cnv 15 300 46 empty empty empty 20 12 0 14 -224896 -66577
0;
#X obj 3 6 cnv 18 300 70 empty empty ARGOPdMiniModules 3 10 1 14 -4033
-1 1.04858e+06;
#X obj 26 26 cnv 10 10 10 empty empty Gerard 0 5 1 11 -4033 -1 1.04858e+06
;
#X obj 64 26 cnv 10 10 10 empty empty Paresys 0 5 1 11 -4033 -1 1.04858e+06
;
#X obj 7 37 pddp/pddplink http://gerard.paresys.free.fr/ARGOPd/;
#X text 8 85 Construit sous / Build under Pd 0.43.4-extended;
#X obj 8 111 pddp/pddplink http://puredata.info/downloads/pd-extended
;
#X obj 7 50 pddp/pddplink http://paresys.pagesperso-orange.fr/ARGOPd/
;
#X text 7 98 or Pd-0.46-7 + deken;
#X restore 327 186 pd ?.;
#X text 243 84 27 3 2017;
#X connect 3 0 2 0;
#X connect 4 0 2 0;
#X connect 5 0 4 0;
#X connect 6 0 2 0;
#X connect 7 0 6 0;
#X connect 9 0 3 0;
#X connect 10 0 5 0;
#X connect 11 0 7 0;
#X connect 12 0 9 0;
#X connect 12 1 10 0;
#X connect 12 2 11 0;
#X connect 14 0 15 0;
#X connect 15 0 12 0;
#X coords 0 -1 1 1 185 22 1 100 100;
#X restore 202 145 pd ARGO;
#N canvas 133 24 916 633 ARGO 0;
#X obj 101 101 cnv 22 183 99 empty empty GEM. 5 12 1 18 -1 -262144
1.04858e+06;
#X obj 205 154 tgl 12 1 \$0-A \$0-ColorGEM (F)ullScreen 15 7 1 11 -262144
-1 -262144 0 1;
#X obj 103 124 tgl 12 1 \$0-A \$0-ColorGEM (G)EM 15 7 1 11 -262144
-1 -262144 0 1;
#X obj 191 105 nbx 2 12 1 30 0 1 \$0-A \$0-ColorGEM Frames/sec 29 7
1 11 -262144 -1 -262144 15 256;
#X obj 205 139 tgl 12 1 \$0-A \$0-ColorGEM KeyShortCut 15 7 1 11 -262144
-1 -262144 0 1;
#X obj 283 -26 key;
#X msg 89 243 set \$1;
#X msg 70 268 0;
#X msg -65 506 frame \$1;
#X obj 283 11 spigot;
#X obj 70 -28 gemkeyname;
#X obj 506 455 select 0 1;
#X obj 80 217 t b f f f;
#X msg 522 502 color 16 22 16;
#X msg 507 479 color 0 22 0;
#X obj 181 67 select 65 97 70 102 76 108 71 103 66 98;
#X obj -25 -25 r SendGEM;
#X obj 508 536 s \$0-ColorGEM;
#X obj 205 124 tgl 12 1 SendMode \$0-ColorGEM Compatible 15 7 1 11
-262144 -1 -262144 0 1;
#X obj 53 68 select 27;
#X msg -21 134 0;
#X obj 103 184 hradio 12 1 1 4 \$0-A \$0-ColorGEM 640x480 51 7 1 11
-262144 -1 -262144 2;
#X obj 248 217 t b f;
#N canvas 206 161 410 300 Dimension 0;
#X msg 196 103 set dimen 1280 720;
#X msg 180 145 set dimen 640 480;
#X msg 162 187 set dimen 320 240;
#X msg 191 124 label 640x480;
#X msg 206 82 label 1280x720;
#X msg 172 166 label 320x240;
#X obj 162 12 inlet;
#X obj 85 255 outlet;
#X obj 306 264 outlet;
#X obj 162 38 sel 0 1 2 3;
#X msg 142 230 set dimen 480 640;
#X msg 152 209 label 480x640;
#X connect 0 0 8 0;
#X connect 1 0 8 0;
#X connect 2 0 8 0;
#X connect 3 0 7 0;
#X connect 4 0 7 0;
#X connect 5 0 7 0;
#X connect 6 0 9 0;
#X connect 9 0 11 0;
#X connect 9 0 10 0;
#X connect 9 1 5 0;
#X connect 9 1 2 0;
#X connect 9 2 3 0;
#X connect 9 2 1 0;
#X connect 9 3 4 0;
#X connect 9 3 0 0;
#X connect 10 0 8 0;
#X connect 11 0 7 0;
#X restore 163 305 pd Dimension;
#X text 150 -29 Sortir de fullscreen;
#X text 146 -19 sous Linux avec Esc ->;
#X text -72 37 Sortir de fullscreen;
#X text -84 47 sous MacOS avec Esc ->;
#X obj 189 217 t b f;
#X obj 103 139 tgl 12 1 \$0-A \$0-ColorGEM (B)arMenu 15 7 1 11 -262144
-1 -262144 1 1;
#X obj 36 16 spigot;
#X obj 69 -6 == 0;
#X obj -47 68 sel f F g G b B;
#X obj 293 217 t b f b;
#X obj -21 112 t b b;
#X msg 6 158 set 1;
#X obj 103 154 tgl 12 1 \$0-A \$0-ColorGEM (L)ight 15 7 1 11 -262144
-1 -262144 0 1;
#X obj 103 169 nbx 3 12 0 100 0 1 \$0-A \$0-ColorGEM BackGround 37
7 1 11 -262144 -1 -262144 50 256;
#X obj 205 169 tgl 12 1 \$0-A \$0-ColorGEM Screen2 15 7 1 11 -262144
-1 -262144 0 1;
#X obj 205 184 bng 12 250 50 0 \$0-A \$0-ColorGEM Info 15 7 1 11 -262144
-1 -262144;
#X obj 351 217 t b f;
#X obj 386 343 + 1;
#X msg -105 505 print;
#X msg -278 505 lighting \$1;
#X msg -200 505 color \$1 \$1 \$1;
#X obj -200 480 / 100;
#X obj 297 473 * 2;
#X obj -278 481 int;
#X obj -243 149 cnv 15 60 30 empty empty empty 20 12 0 14 -24198 -66577
0;
#N canvas 403 109 421 480 Help 0;
#X obj 11 -6 cnv 15 380 90 empty empty empty 20 12 0 14 -233017 -66577
0;
#X text 16 -8 Citation;
#X text 15 5 "GEM is the Graphics Environment for Multimedia. It was
originally written by Mark Danks to generate real-time computer graphics
\, especially for audio-visual compositions.";
#X text 15 55 "GEM is a collection of externals which allow the user
to create OpenGL graphics within Pd";
#X text 10 92 - Raccourcis clavier;
#X text 12 148 - En "FullScreen" taper F ou Pomme + Tab sous MacOSX...
;
#X text 120 161 taper F ou Alt + Tab sous Windows...;
#X text 120 173 taper F ou Alt + F4 sous Linux...;
#X obj 10 425 cnv 15 400 190 empty empty empty 20 12 0 14 -258113 -66577
0;
#X text 13 431 Impossible de supprimer la barre de menu sous MacOSX.5
+ Pd-0.41.4-extended;
#X text 13 457 Pas de probleme sous MacOSX.4 + Pd-0.41.4-extended;
#X text 25 513 Solution: Quitter Pd et relancer;
#X text 14 474 - Problème Windows: Quand on sort de fullscreen le dessin
des objets dans les patches est buggé (taille du texte \, HSlider décalés...)
;
#X text 26 525 Vu avec carte Matrox + Windows XP SP2 + Pd-0.41.4-extended
;
#X text 18 582 Solution: cocher Compatible;
#X text 35 317 Inconvenient: Charge CPU => la texture est calculée
(objet pix_texture) par le processeur de l'ordinateur et pas par la
carte video);
#X text 18 559 GL: énumérant non valide (répété);
#X text 18 570 OpenGL: invalid enumérant (repeat);
#X text 14 545 - Erreur dans la fenêtre Pd:;
#X text 12 265 Il faut cocher compatible avec certaines cartes video
\, de certains PC \, sous Windows...;
#X text 13 291 Compatible Off -> mode 1: TEXTURE_RECTANGLE;
#X text 13 303 Compatible On -> mode 0: TEXTURE_2D;
#X text 8 -31 - GEM On ouvre une fenetre;
#X text 134 91 g / G -> GEM On/Off;
#X text 135 105 f / F -> FullScreen On/Off;
#X text 136 118 b /B -> Menu bar On/Off;
#X text 136 132 Echap / Esc -> FullScreen Off;
#X text 15 391 16/9 = 512/288 = 1024/576 = 1152/648 = 1280/720 = 1440/810
;
#X text 9 379 16/10 = 512/320 = 1024/640 = 1152/720 = 1280x800 = 1440/900
;
#X text 343 366 = 1280/960;
#X text 20 367 4/3 = 160/120 = 320/240 = 512/384 = 640/480 = 1024x768
;
#X text 121 186 ou Echap / Esc...;
#X text 11 239 - Compatible envoie le message mode 1 ou mode 0 à tous
les objets pix_texture des autres modules;
#X text 23 634 Suppression KeyShortCut On toujours;
#X text 24 647 mrpeach/str to_list remplace par iemlib/iem_symtoalist
;
#X text 11 616 Change par rapport version precedente:;
#X restore -236 155 pd Help;
#X msg 23 506 create;
#X msg 426 505 destroy;
#X msg 386 505 reset;
#X msg 297 505 fullscreen \$1;
#X msg 481 505 0;
#X obj 161 556 gemwin;
#X obj 70 296 sel 1;
#X msg 288 343 set \$1;
#X obj 459 440 t b b;
#X obj 426 463 delay 200;
#X msg 70 505 dimen 640 480;
#X msg -6 506 1;
#X obj 70 370 select linux macos windows;
#X msg 337 343 set \$1;
#X msg 160 473 1;
#X msg 160 505 border \$1 \, menubar \$1;
#X obj -23 552 cnv 15 120 30 empty empty empty 20 12 0 14 -258113 -66577
0;
#X obj -6 559 s RenderGEM;
#X obj 23 451 delay 300;
#X obj -6 473 delay 300;
#X msg 297 449 0;
#X obj 70 427 delay 300;
#X obj 121 398 t b b b;
#X obj 70 398 t b b b;
#X obj 84 450 spigot;
#X obj 255 343 == 0;
#X obj 70 320 t b b b b;
#X obj 70 347 zexy/operating_system;
#X text 289 115 27 3 2017;
#X obj 53 42 iemlib/iem_symtoalist;
#X obj 515 557 cnv 15 42 25 empty empty empty 20 12 0 14 -24198 -66577
0;
#N canvas 336 174 309 137 ?. 0;
#X obj 3 83 cnv 15 300 46 empty empty empty 20 12 0 14 -224896 -66577
0;
#X obj 3 6 cnv 18 300 70 empty empty ARGOPdMiniModules 3 10 1 14 -4033
-1 1.04858e+06;
#X obj 26 26 cnv 10 10 10 empty empty Gerard 0 5 1 11 -4033 -1 1.04858e+06
;
#X obj 64 26 cnv 10 10 10 empty empty Paresys 0 5 1 11 -4033 -1 1.04858e+06
;
#X obj 7 37 pddp/pddplink http://gerard.paresys.free.fr/ARGOPd/;
#X text 8 85 Construit sous / Build under Pd 0.43.4-extended;
#X obj 8 111 pddp/pddplink http://puredata.info/downloads/pd-extended
;
#X obj 7 50 pddp/pddplink http://paresys.pagesperso-orange.fr/ARGOPd/
;
#X text 7 98 or Pd-0.46-7 + deken;
#X restore 519 561 pd ?.;
#X connect 1 0 33 0;
#X connect 2 0 12 0;
#X connect 3 0 8 0;
#X connect 4 0 9 1;
#X connect 5 0 9 0;
#X connect 5 0 19 0;
#X connect 6 0 7 0;
#X connect 7 0 56 0;
#X connect 8 0 55 0;
#X connect 9 0 15 0;
#X connect 10 0 31 0;
#X connect 10 1 30 0;
#X connect 11 0 14 0;
#X connect 11 1 13 0;
#X connect 12 0 7 0;
#X connect 12 1 6 0;
#X connect 12 3 11 0;
#X connect 13 0 17 0;
#X connect 14 0 17 0;
#X connect 15 2 1 0;
#X connect 15 3 1 0;
#X connect 15 6 2 0;
#X connect 15 7 2 0;
#X connect 15 8 29 0;
#X connect 15 9 29 0;
#X connect 16 0 2 0;
#X connect 19 0 34 0;
#X connect 20 0 1 0;
#X connect 21 0 22 0;
#X connect 22 0 7 0;
#X connect 22 1 23 0;
#X connect 23 0 21 0;
#X connect 23 1 60 0;
#X connect 28 0 7 0;
#X connect 28 1 63 0;
#X connect 29 0 28 0;
#X connect 30 0 32 0;
#X connect 30 0 79 0;
#X connect 31 0 30 1;
#X connect 32 0 1 0;
#X connect 32 1 1 0;
#X connect 32 2 2 0;
#X connect 32 3 2 0;
#X connect 32 4 29 0;
#X connect 32 5 29 0;
#X connect 33 0 7 0;
#X connect 33 1 75 0;
#X connect 33 1 57 0;
#X connect 34 0 20 0;
#X connect 34 1 35 0;
#X connect 35 0 29 0;
#X connect 35 0 64 0;
#X connect 36 0 47 0;
#X connect 37 0 45 0;
#X connect 38 0 40 0;
#X connect 39 0 42 0;
#X connect 40 0 7 0;
#X connect 40 1 41 0;
#X connect 41 0 46 1;
#X connect 42 0 55 0;
#X connect 43 0 55 0;
#X connect 44 0 55 0;
#X connect 45 0 44 0;
#X connect 46 0 53 0;
#X connect 47 0 43 0;
#X connect 50 0 55 0;
#X connect 51 0 55 0;
#X connect 52 0 55 0;
#X connect 53 0 55 0;
#X connect 54 0 55 0;
#X connect 56 0 76 0;
#X connect 56 1 58 0;
#X connect 57 0 70 0;
#X connect 58 0 59 0;
#X connect 58 1 54 0;
#X connect 59 0 51 0;
#X connect 60 0 55 0;
#X connect 61 0 55 0;
#X connect 61 0 67 0;
#X connect 62 0 73 0;
#X connect 62 1 72 0;
#X connect 62 2 73 0;
#X connect 63 0 64 0;
#X connect 64 0 65 0;
#X connect 65 0 55 0;
#X connect 68 0 50 0;
#X connect 68 0 69 0;
#X connect 69 0 61 0;
#X connect 69 0 47 0;
#X connect 69 0 45 0;
#X connect 70 0 46 0;
#X connect 71 0 68 0;
#X connect 71 0 60 0;
#X connect 72 0 71 0;
#X connect 72 1 64 0;
#X connect 72 2 70 0;
#X connect 73 0 68 0;
#X connect 73 1 70 0;
#X connect 73 2 74 0;
#X connect 74 0 60 0;
#X connect 75 0 74 1;
#X connect 76 0 77 0;
#X connect 76 1 52 0;
#X connect 76 2 51 0;
#X connect 76 3 54 0;
#X connect 77 0 62 0;
#X connect 79 0 19 0;
#X coords 0 -1 1 1 185 101 1 100 100;
#X restore 11 96 pd ARGO;
#X obj 227 369 cnv 15 90 30 empty empty empty 20 12 0 14 -24198 -66577
0;
#N canvas 384 87 434 352 GEM-Help 0;
#X text 6 5 GEM-Help;
#X obj 21 25 cnv 15 400 310 empty empty empty 20 12 0 14 -233017 -66577
0;
#X text 24 24 Citation;
#X text 37 46 Gem is based on OpenGL \, which uses the graphics card
to do the processing. That means that instead of directly controlling
the data like you do with Pd messages or audio \, in Gem you are controlling
a "pointer" to the data on the video card.;
#X text 37 120 [gemwin] is a pointer to the output buffer of your video
card. The screen you are looking at is that output buffer drawn to
the screen.;
#X text 37 171 So even if there are multiple [gemwin] objects \, there
is only one screen. Each [gemwin] object is then a pointer to the same
window.;
#X text 37 224 Images can be stored in various formats/color-spaces.
;
#X text 37 238 GREY-scale images have no color-component \, while YUV
is missing the Alpha-channel.;
#X text 37 291 You can use [pix_rgba] to convert images of any format
into RGBA-space. If your image already is in RGBA-space \, this will
do nothing.;
#X text 37 265 Traditionally \, RGBA is the native colour-space of
Gem \, although it is quite CPU-consumptive.;
#X restore 236 376 pd GEM-Help;
#N canvas 528 22 315 323 ARGO 0;
#X obj 101 101 cnv 5 144 51 empty ColorForm GEM-Camera. 50 9 1 14 -1
-262144 1.04858e+06;
#X obj 115 116 hsl 101 12 -10 10 0 1 \$0-A \$0-B 0 0 8 1 12 -262144
-33289 -33289 5000 0;
#X obj 103 117 cnv 1 1 1 \$0-A \$0-ColorGEM X 0 7 1 12 -262144 -262144
1.04858e+06;
#X obj 100 14 cnv 15 60 30 empty empty empty 20 12 0 14 -24198 -66577
0;
#N canvas 312 59 420 226 Help 0;
#X obj 8 13 cnv 15 400 200 empty empty empty 20 12 0 14 -233017 -66577
0;
#X text 11 12 Citation;
#X text 23 33 view <x> <y> <z>::;
#X text 33 50 translate the camera / set the viewpoint:: the viewing-direction
will not be changed.;
#X text 30 90 default: 0 0 4;
#X text 29 109 the viewing direction defaults to "0 0 1" \, with y-axis
as "up";
#X restore 107 20 pd Help;
#X obj 103 129 cnv 1 1 1 \$0-A \$0-ColorGEM Y 0 7 1 12 -262144 -262144
1.04858e+06;
#X obj 103 141 cnv 1 1 1 \$0-A \$0-ColorGEM Z 0 7 1 12 -262144 -262144
1.04858e+06;
#N canvas 836 56 220 219 label 0;
#X msg 31 145 label \$1;
#X obj 31 75 int;
#X obj 31 20 inlet;
#X obj 67 182 outlet;
#X obj 96 22 receive \$0-ColorGEM;
#X obj 31 49 * 10;
#X obj 31 99 / 10;
#X msg 96 146 color \$1 12 12;
#X obj 31 123 cyclone/tosymbol;
#X connect 0 0 3 0;
#X connect 1 0 6 0;
#X connect 2 0 5 0;
#X connect 4 0 7 0;
#X connect 5 0 1 0;
#X connect 6 0 8 0;
#X connect 7 0 3 0;
#X connect 8 0 0 0;
#X restore 37 108 pd label;
#X msg 93 66 0;
#X msg 127 66 4;
#X obj 101 104 bng 12 250 50 0 \$0-A \$0-ColorGEM Zero 15 7 1 11 -262144
-1 -262144;
#X obj 115 128 hsl 101 12 -10 10 0 1 \$0-A \$0-B 0 0 8 1 12 -262144
-33289 -33289 5000 0;
#N canvas 836 56 220 219 label 0;
#X msg 31 145 label \$1;
#X obj 31 75 int;
#X obj 31 20 inlet;
#X obj 67 182 outlet;
#X obj 96 22 receive \$0-ColorGEM;
#X obj 31 49 * 10;
#X obj 31 99 / 10;
#X msg 96 146 color \$1 12 12;
#X obj 31 123 cyclone/tosymbol;
#X connect 0 0 3 0;
#X connect 1 0 6 0;
#X connect 2 0 5 0;
#X connect 4 0 7 0;
#X connect 5 0 1 0;
#X connect 6 0 8 0;
#X connect 7 0 3 0;
#X connect 8 0 0 0;
#X restore 36 130 pd label;
#X obj 115 140 hsl 101 12 0 20 0 1 \$0-A \$0-B 4 0 8 1 12 -262144 -33289
-33289 2000 0;
#N canvas 836 56 220 219 label 0;
#X msg 31 145 label \$1;
#X obj 31 75 int;
#X obj 31 20 inlet;
#X obj 67 182 outlet;
#X obj 96 22 receive \$0-ColorGEM;
#X obj 31 49 * 10;
#X obj 31 99 / 10;
#X msg 96 146 color \$1 12 12;
#X obj 31 123 cyclone/tosymbol;
#X connect 0 0 3 0;
#X connect 1 0 6 0;
#X connect 2 0 5 0;
#X connect 4 0 7 0;
#X connect 5 0 1 0;
#X connect 6 0 8 0;
#X connect 7 0 3 0;
#X connect 8 0 0 0;
#X restore 37 152 pd label;
#X obj 112 207 pack f f f;
#X obj 168 170 t b f;
#X obj 126 169 t b f;
#X msg 112 238 view \$1 \$2 \$3;
#X obj 112 270 gemwin;
#X obj 193 55 t b b b;
#X obj 167 -4 cnv 15 120 30 empty empty empty 20 12 0 14 -258113 -66577
0;
#X obj 194 3 r RenderGEM;
#X obj 193 30 select 1;
#X text 227 82 27 3 2017;
#X obj 213 261 cnv 15 42 25 empty empty empty 20 12 0 14 -24198 -66577
0;
#N canvas 336 174 309 137 ?. 0;
#X obj 3 83 cnv 15 300 46 empty empty empty 20 12 0 14 -224896 -66577
0;
#X obj 3 6 cnv 18 300 70 empty empty ARGOPdMiniModules 3 10 1 14 -4033
-1 1.04858e+06;
#X obj 26 26 cnv 10 10 10 empty empty Gerard 0 5 1 11 -4033 -1 1.04858e+06
;
#X obj 64 26 cnv 10 10 10 empty empty Paresys 0 5 1 11 -4033 -1 1.04858e+06
;
#X obj 7 37 pddp/pddplink http://gerard.paresys.free.fr/ARGOPd/;
#X text 8 85 Construit sous / Build under Pd 0.43.4-extended;
#X obj 8 111 pddp/pddplink http://puredata.info/downloads/pd-extended
;
#X obj 7 50 pddp/pddplink http://paresys.pagesperso-orange.fr/ARGOPd/
;
#X text 7 98 or Pd-0.46-7 + deken;
#X restore 217 265 pd ?.;
#X connect 1 0 7 0;
#X connect 1 0 15 0;
#X connect 7 0 1 0;
#X connect 8 0 1 0;
#X connect 8 0 11 0;
#X connect 9 0 13 0;
#X connect 10 0 8 0;
#X connect 10 0 9 0;
#X connect 11 0 12 0;
#X connect 11 0 17 0;
#X connect 12 0 11 0;
#X connect 13 0 14 0;
#X connect 13 0 16 0;
#X connect 14 0 13 0;
#X connect 15 0 18 0;
#X connect 16 0 15 0;
#X connect 16 1 15 2;
#X connect 17 0 15 0;
#X connect 17 1 15 1;
#X connect 18 0 19 0;
#X connect 20 0 1 0;
#X connect 20 1 11 0;
#X connect 20 2 13 0;
#X connect 22 0 23 0;
#X connect 23 0 20 0;
#X coords 0 -1 1 1 146 53 1 100 100;
#X restore 202 186 pd ARGO;
#X obj 208 91 pix_buf;
#N canvas 86 22 1025 608 ARGO 0;
#X obj 101 101 cnv 22 183 112 empty empty GEM. 5 12 1 18 -1 -262144
1.04858e+06;
#X obj 205 154 tgl 12 1 \$0-A \$0-ColorGEM (F)ullScreen 15 7 1 11 -262144
-1 -262144 0 1;
#X obj 103 124 tgl 12 1 \$0-A \$0-ColorGEM (G)EM 15 7 1 11 -262144
-1 -262144 0 1;
#X obj 205 139 tgl 12 1 \$0-A \$0-ColorGEM KeyShortCut 15 7 1 11 -262144
-1 -262144 0 1;
#X obj 283 -26 key;
#X msg 89 246 set \$1;
#X msg 70 268 0;
#X msg -36 505 frame \$1;
#X obj 283 11 spigot;
#X obj 70 -28 gemkeyname;
#X obj 628 453 select 0 1;
#X obj 80 220 t b f f f;
#X msg 644 500 color 16 22 16;
#X msg 629 477 color 0 22 0;
#X obj 181 67 select 65 97 70 102 76 108 71 103 66 98;
#X obj -25 -25 r SendGEM;
#X obj 630 534 s \$0-ColorGEM;
#X obj 205 124 tgl 12 1 SendMode \$0-ColorGEM Compatible 15 7 1 11
-262144 -1 -262144 0 1;
#X obj 53 68 select 27;
#X msg -21 134 0;
#X obj 103 184 hradio 12 1 1 4 \$0-A \$0-ColorGEM 640x480 51 7 1 11
-262144 -1 -262144 2;
#X obj 248 220 t b f;
#N canvas 206 161 410 300 Dimension 0;
#X msg 196 103 set dimen 1280 720;
#X msg 180 145 set dimen 640 480;
#X msg 162 187 set dimen 320 240;
#X msg 191 124 label 640x480;
#X msg 206 82 label 1280x720;
#X msg 172 166 label 320x240;
#X obj 162 12 inlet;
#X obj 85 255 outlet;
#X obj 306 264 outlet;
#X obj 162 38 sel 0 1 2 3;
#X msg 142 230 set dimen 480 640;
#X msg 152 209 label 480x640;
#X connect 0 0 8 0;
#X connect 1 0 8 0;
#X connect 2 0 8 0;
#X connect 3 0 7 0;
#X connect 4 0 7 0;
#X connect 5 0 7 0;
#X connect 6 0 9 0;
#X connect 9 0 11 0;
#X connect 9 0 10 0;
#X connect 9 1 5 0;
#X connect 9 1 2 0;
#X connect 9 2 3 0;
#X connect 9 2 1 0;
#X connect 9 3 4 0;
#X connect 9 3 0 0;
#X connect 10 0 8 0;
#X connect 11 0 7 0;
#X restore 163 305 pd Dimension;
#X text 150 -29 Sortir de fullscreen;
#X text 146 -19 sous Linux avec Esc ->;
#X text -72 37 Sortir de fullscreen;
#X text -84 47 sous MacOS avec Esc ->;
#X obj 189 220 t b f;
#X obj 103 139 tgl 12 1 \$0-A \$0-ColorGEM (B)arMenu 15 7 1 11 -262144
-1 -262144 1 1;
#X obj 36 16 spigot;
#X obj 69 -6 == 0;
#X obj -47 68 sel f F g G b B;
#X obj 293 220 t b f b;
#X obj -21 112 t b b;
#X msg 6 158 set 1;
#X obj 103 154 tgl 12 1 \$0-A \$0-ColorGEM (L)ight 15 7 1 11 -262144
-1 -262144 0 1;
#X obj 103 169 nbx 3 12 0 100 0 1 \$0-A \$0-ColorGEM BackGround 37
7 1 11 -262144 -1 -262144 50 256;
#X obj 205 169 tgl 12 1 \$0-A \$0-ColorGEM Screen2 15 7 1 11 -262144
-1 -262144 0 1;
#X obj 205 185 bng 12 250 50 0 \$0-A \$0-ColorGEM Info 15 7 1 11 -262144
-1 -262144;
#X obj 351 220 t b f;
#X obj 386 343 + 1;
#X msg -106 505 print;
#X msg -278 505 lighting \$1;
#X msg -200 505 color \$1 \$1 \$1;
#X obj -200 480 / 100;
#X obj 297 473 * 2;
#X obj -278 481 int;
#X obj -243 149 cnv 15 60 30 empty empty empty 20 12 0 14 -24198 -66577
0;
#N canvas 241 55 427 568 Help 0;
#X obj 11 -6 cnv 15 380 90 empty empty empty 20 12 0 14 -233017 -66577
0;
#X text 16 -8 Citation;
#X text 15 5 "GEM is the Graphics Environment for Multimedia. It was
originally written by Mark Danks to generate real-time computer graphics
\, especially for audio-visual compositions.";
#X text 15 55 "GEM is a collection of externals which allow the user
to create OpenGL graphics within Pd";
#X text 10 92 - Raccourcis clavier;
#X text 12 148 - En "FullScreen" taper F ou Pomme + Tab sous MacOSX...
;
#X text 120 161 taper F ou Alt + Tab sous Windows...;
#X text 120 173 taper F ou Alt + F4 sous Linux...;
#X obj 10 425 cnv 15 400 190 empty empty empty 20 12 0 14 -258113 -66577
0;
#X text 13 431 Impossible de supprimer la barre de menu sous MacOSX.5
+ Pd-0.41.4-extended;
#X text 13 457 Pas de probleme sous MacOSX.4 + Pd-0.41.4-extended;
#X text 25 513 Solution: Quitter Pd et relancer;
#X text 14 474 - Problème Windows: Quand on sort de fullscreen le dessin
des objets dans les patches est buggé (taille du texte \, HSlider décalés...)
;
#X text 26 525 Vu avec carte Matrox + Windows XP SP2 + Pd-0.41.4-extended
;
#X text 18 582 Solution: cocher Compatible;
#X text 35 317 Inconvenient: Charge CPU => la texture est calculée
(objet pix_texture) par le processeur de l'ordinateur et pas par la
carte video);
#X text 18 559 GL: énumérant non valide (répété);
#X text 18 570 OpenGL: invalid enumérant (repeat);
#X text 14 545 - Erreur dans la fenêtre Pd:;
#X text 12 265 Il faut cocher compatible avec certaines cartes video
\, de certains PC \, sous Windows...;
#X text 13 291 Compatible Off -> mode 1: TEXTURE_RECTANGLE;
#X text 13 303 Compatible On -> mode 0: TEXTURE_2D;
#X text 8 -31 - GEM On ouvre une fenetre;
#X text 134 91 g / G -> GEM On/Off;
#X text 135 105 f / F -> FullScreen On/Off;
#X text 136 118 b /B -> Menu bar On/Off;
#X text 136 132 Echap / Esc -> FullScreen Off;
#X text 15 391 16/9 = 512/288 = 1024/576 = 1152/648 = 1280/720 = 1440/810
;
#X text 9 379 16/10 = 512/320 = 1024/640 = 1152/720 = 1280x800 = 1440/900
;
#X text 343 366 = 1280/960;
#X text 20 367 4/3 = 160/120 = 320/240 = 512/384 = 640/480 = 1024x768
;
#X text 121 186 ou Echap / Esc...;
#X text 22 654 Clear envoye 300ms apres reinitialisation de le fenetre
GEM;
#X text 21 668 Clear envoye 300ms apres Background;
#X text 10 627 Modif par rapport a la version du 6 11 2011 du MM GEM-Control
avec option SingleBuffer:;
#X text 10 682 Modif par rapport a la version du 28 5 2012:;
#X text 21 720 Ajout bouton Save;
#X text 21 693 Ajout bouton Grade;
#X text 10 709 Modif par rapport a la version du 5 7 2012:;
#X obj 9 738 cnv 15 400 80 empty empty empty 20 12 0 14 -258113 -66577
0;
#X text 12 744 Probleme sous MacOSX + Pd-0.42.5-extended;
#X text 12 793 Pas de probleme sous MacOSX + Pd-0.43.1-extended;
#X text 21 758 Save crée un fichier au format tiff nommé GEMWindow000xx.jpg
;
#X text 21 771 Ce fichier est visible correctement avec ImageJ;
#X text 10 825 Modif par rapport a la version du 10 7 2012:;
#X text 21 837 Ajout Message FSAA 4;
#X text 10 850 Modif par rapport a la version du 16 7 2012:;
#X text 21 862 Ajout delay 100 dans SaveJpeg pour eviter image vide
dans le mode DoubleBuffer;
#X text 11 231 - Compatible envoie le message rectangle 1 ou rectangle
0 à tous les objets pix_texture des autres modules;
#X text 21 904 Message frame apres message create;
#X text 10 892 Modif par rapport a la version du 4 10 2012:;
#X text 22 940 Suppression KeyShortCut On toujours;
#X text 23 953 mrpeach/str to_list remplace par iemlib/iem_symtoalist
;
#X text 10 922 Change par rapport version precedente:;
#X restore -236 155 pd Help;
#X msg 23 505 create;
#X msg 548 505 destroy;
#X msg 508 505 reset;
#X msg 297 505 fullscreen \$1;
#X msg 603 505 0;
#X obj 161 556 gemwin;
#X obj 70 296 sel 1;
#X msg 288 343 set \$1;
#X obj 581 449 t b b;
#X obj 548 472 delay 200;
#X msg 70 505 dimen 640 480;
#X msg -65 505 1;
#X obj 70 370 select linux macos windows;
#X msg 337 343 set \$1;
#X msg 160 473 1;
#X msg 160 505 border \$1 \, menubar \$1;
#X obj -23 552 cnv 15 120 30 empty empty empty 20 12 0 14 -258113 -66577
0;
#X obj -6 559 s RenderGEM;
#X obj -16 450 delay 300;
#X obj -65 374 delay 300;
#X msg 297 449 0;
#X obj 70 427 delay 300;
#X obj 121 398 t b b b;
#X obj 70 398 t b b b;
#X obj 84 450 spigot;
#X obj 255 343 == 0;
#X obj 70 347 zexy/operating_system;
#X msg 388 478 2;
#X obj 103 199 tgl 12 1 \$0-A \$0-ColorGEM SingleBuffer 15 7 1 11 -262144
-1 -262144 0 1;
#X msg 388 505 buffer \$1;
#X obj 187 199 bng 12 50 50 0 \$0-A \$0-ColorGEM Clear 15 7 1 11 -262144
-1 -262144;
#X obj 363 421 sel 0 1;
#X msg 362 444 set 2;
#X msg 407 444 set 1;
#X obj -149 476 delay 300;
#X obj -149 387 b;
#X obj 236 199 bng 12 50 50 0 \$0-A \$0-ColorGEM Grade 15 7 1 11 -262144
-1 -262144;
#N canvas 516 98 335 378 Graduation 0;
#X obj 146 74 until;
#X obj 146 96 f;
#X obj 194 96 + 1;
#X obj 222 97 sel 0;
#X obj 146 172 gemhead;
#X obj 146 346 GEMglEnd;
#X obj 146 220 GEMglBegin GL_LINES;
#X obj 146 118 t b f;
#X obj 146 245 GEMglVertex2f -10 0;
#X obj 146 268 GEMglVertex2f 10 0;
#X obj 146 290 GEMglVertex2f 0 -4;
#X obj 146 312 GEMglVertex2f 0 4;
#X obj 20 312 GEMglVertex2f 0 4;
#X obj 20 290 GEMglVertex2f 0 -4;
#X obj 146 194 color 0.8 0.8 0.8;
#X obj 20 245 GEMglVertex2f -7 0;
#X obj 20 268 GEMglVertex2f 7 0;
#X obj 259 194 - 7;
#X obj 194 118 mod 15;
#X obj 112 13 inlet;
#X text 149 13 <- bang;
#X obj 19 171 gemhead;
#X obj 20 220 GEMglBegin GL_LINES;
#X msg 291 112 1;
#X msg 19 112 0;
#X obj 112 37 t b b b b;
#X obj 20 194 color 0.2 0.2 0.2;
#X obj 180 36 cnv 15 130 20 empty empty empty 20 12 0 14 -24198 -66577
0;
#X text 185 37 en mode SingleBuffer;
#X obj 19 14 loadbang;
#X connect 0 0 1 0;
#X connect 1 0 2 0;
#X connect 1 0 7 0;
#X connect 2 0 18 0;
#X connect 3 0 0 1;
#X connect 4 0 14 0;
#X connect 6 0 8 0;
#X connect 7 0 4 0;
#X connect 7 1 17 0;
#X connect 8 0 9 0;
#X connect 9 0 10 0;
#X connect 10 0 11 0;
#X connect 11 0 5 0;
#X connect 12 0 5 0;
#X connect 13 0 12 0;
#X connect 14 0 6 0;
#X connect 15 0 16 0;
#X connect 16 0 13 0;
#X connect 17 0 8 2;
#X connect 17 0 9 2;
#X connect 17 0 10 1;
#X connect 17 0 11 1;
#X connect 18 0 1 1;
#X connect 18 0 3 0;
#X connect 19 0 25 0;
#X connect 21 0 26 0;
#X connect 22 0 15 0;
#X connect 23 0 4 0;
#X connect 23 0 21 0;
#X connect 24 0 21 0;
#X connect 24 0 4 0;
#X connect 25 0 24 0;
#X connect 25 1 21 0;
#X connect 25 2 0 0;
#X connect 25 3 23 0;
#X connect 26 0 22 0;
#X connect 29 0 24 0;
#X restore 395 301 pd Graduation;
#X obj 335 397 t b f;
#X obj 289 196 cnv 15 310 20 empty empty empty 20 12 0 14 -24198 -66577
0;
#X text 290 197 <- Clear et Grade ne fonctionne qu'en SingleBuffer
;
#X obj 242 184 bng 12 250 50 0 \$0-A \$0-ColorGEM Save 15 7 1 11 -262144
-1 -262144;
#X obj 289 174 cnv 15 340 20 empty empty empty 20 12 0 14 -24198 -66577
0;
#X text 290 174 <- Sauve la fenetre GEM en JPEG dans le dossier du
patch;
#X msg 489 333 0;
#X msg 520 333 2;
#X msg 549 333 4;
#X msg 610 333 8;
#X msg 580 333 5;
#X msg 489 361 destroy \, FSAA \$1 \, buffer 1 \, create \, 1;
#X msg 456 505 FSAA 4;
#X obj 70 320 t b b b b b b;
#N canvas 318 287 399 229 SaveJpeg 0;
#X obj 90 163 pix_write;
#X obj 11 125 gemhead 100;
#X msg 167 25 bang;
#X obj 102 25 loadbang;
#X obj 53 25 inlet;
#X obj 53 58 t b b;
#X text 10 187 Sauve la fenetre GEM au format JPEG dans le dossier
du patch;
#X msg 167 124 file \$1 80;
#X obj 11 96 delay 100;
#X obj 167 100 cyclone/tosymbol;
#X obj 167 77 cyclone/sprintf %s/GEMWindow;
#X obj 167 55 ggee/getdir;
#X connect 1 0 0 0;
#X connect 2 0 11 0;
#X connect 3 0 11 0;
#X connect 4 0 5 0;
#X connect 5 0 8 0;
#X connect 5 1 0 0;
#X connect 7 0 0 0;
#X connect 8 0 1 0;
#X connect 9 0 7 0;
#X connect 10 0 9 0;
#X connect 11 0 10 0;
#X restore 406 273 pd SaveJpeg;
#X msg -100 250 set \$1;
#X msg -100 283 15;
#X obj -127 225 t b f;
#X obj 191 105 nbx 2 12 1 30 0 1 \$0-A \$0-ColorGEM Frames/sec 29 7
1 11 -262144 -1 -262144 15 256;
#X obj -16 473 t b b b;
#X text 290 109 27 3 2017;
#X obj 583 542 cnv 15 42 25 empty empty empty 20 12 0 14 -24198 -66577
0;
#N canvas 336 174 309 137 ?. 0;
#X obj 3 83 cnv 15 300 46 empty empty empty 20 12 0 14 -224896 -66577
0;
#X obj 3 6 cnv 18 300 70 empty empty ARGOPdMiniModules 3 10 1 14 -4033
-1 1.04858e+06;
#X obj 26 26 cnv 10 10 10 empty empty Gerard 0 5 1 11 -4033 -1 1.04858e+06
;
#X obj 64 26 cnv 10 10 10 empty empty Paresys 0 5 1 11 -4033 -1 1.04858e+06
;
#X obj 7 37 pddp/pddplink http://gerard.paresys.free.fr/ARGOPd/;
#X text 8 85 Construit sous / Build under Pd 0.43.4-extended;
#X obj 8 111 pddp/pddplink http://puredata.info/downloads/pd-extended
;
#X obj 7 50 pddp/pddplink http://paresys.pagesperso-orange.fr/ARGOPd/
;
#X text 7 98 or Pd-0.46-7 + deken;
#X restore 587 546 pd ?.;
#X obj 53 42 iemlib/iem_symtoalist;
#X connect 1 0 32 0;
#X connect 2 0 11 0;
#X connect 3 0 8 1;
#X connect 4 0 8 0;
#X connect 4 0 18 0;
#X connect 5 0 6 0;
#X connect 6 0 55 0;
#X connect 7 0 54 0;
#X connect 8 0 14 0;
#X connect 9 0 30 0;
#X connect 9 1 29 0;
#X connect 10 0 13 0;
#X connect 10 1 12 0;
#X connect 11 0 6 0;
#X connect 11 1 5 0;
#X connect 11 3 10 0;
#X connect 12 0 16 0;
#X connect 13 0 16 0;
#X connect 14 2 1 0;
#X connect 14 3 1 0;
#X connect 14 6 2 0;
#X connect 14 7 2 0;
#X connect 14 8 28 0;
#X connect 14 9 28 0;
#X connect 15 0 2 0;
#X connect 18 0 33 0;
#X connect 19 0 1 0;
#X connect 20 0 21 0;
#X connect 21 0 6 0;
#X connect 21 1 22 0;
#X connect 22 0 20 0;
#X connect 22 1 59 0;
#X connect 27 0 6 0;
#X connect 27 1 62 0;
#X connect 28 0 27 0;
#X connect 29 0 31 0;
#X connect 29 0 110 0;
#X connect 30 0 29 1;
#X connect 31 0 1 0;
#X connect 31 1 1 0;
#X connect 31 2 2 0;
#X connect 31 3 2 0;
#X connect 31 4 28 0;
#X connect 31 5 28 0;
#X connect 32 0 6 0;
#X connect 32 1 74 0;
#X connect 32 1 56 0;
#X connect 33 0 19 0;
#X connect 33 1 34 0;
#X connect 34 0 28 0;
#X connect 34 0 63 0;
#X connect 35 0 46 0;
#X connect 36 0 44 0;
#X connect 36 0 84 0;
#X connect 37 0 39 0;
#X connect 38 0 41 0;
#X connect 39 0 6 0;
#X connect 39 1 40 0;
#X connect 40 0 45 1;
#X connect 41 0 54 0;
#X connect 42 0 54 0;
#X connect 43 0 54 0;
#X connect 44 0 43 0;
#X connect 45 0 52 0;
#X connect 46 0 42 0;
#X connect 49 0 54 0;
#X connect 50 0 54 0;
#X connect 51 0 54 0;
#X connect 52 0 54 0;
#X connect 53 0 54 0;
#X connect 55 0 100 0;
#X connect 55 1 57 0;
#X connect 56 0 69 0;
#X connect 57 0 58 0;
#X connect 57 1 53 0;
#X connect 58 0 50 0;
#X connect 59 0 54 0;
#X connect 60 0 54 0;
#X connect 60 0 66 0;
#X connect 61 0 72 0;
#X connect 61 1 71 0;
#X connect 61 2 72 0;
#X connect 62 0 63 0;
#X connect 63 0 64 0;
#X connect 64 0 54 0;
#X connect 67 0 106 0;
#X connect 68 0 60 0;
#X connect 68 0 46 0;
#X connect 68 0 44 0;
#X connect 68 0 83 0;
#X connect 69 0 45 0;
#X connect 70 0 67 0;
#X connect 70 0 59 0;
#X connect 71 0 70 0;
#X connect 71 1 63 0;
#X connect 71 2 69 0;
#X connect 72 0 67 0;
#X connect 72 1 69 0;
#X connect 72 2 73 0;
#X connect 73 0 59 0;
#X connect 74 0 73 1;
#X connect 75 0 61 0;
#X connect 76 0 78 0;
#X connect 77 0 87 0;
#X connect 78 0 54 0;
#X connect 79 0 54 0;
#X connect 80 0 81 0;
#X connect 80 1 82 0;
#X connect 81 0 76 0;
#X connect 82 0 76 0;
#X connect 83 0 79 0;
#X connect 84 0 83 0;
#X connect 85 0 86 0;
#X connect 87 0 6 0;
#X connect 87 1 80 0;
#X connect 90 0 101 0;
#X connect 93 0 98 0;
#X connect 94 0 98 0;
#X connect 95 0 98 0;
#X connect 96 0 98 0;
#X connect 97 0 98 0;
#X connect 98 0 54 0;
#X connect 99 0 54 0;
#X connect 100 0 75 0;
#X connect 100 1 76 0;
#X connect 100 2 99 0;
#X connect 100 3 51 0;
#X connect 100 4 50 0;
#X connect 100 5 53 0;
#X connect 102 0 103 0;
#X connect 103 0 7 0;
#X connect 104 0 103 0;
#X connect 104 1 102 0;
#X connect 105 0 104 0;
#X connect 106 0 68 0;
#X connect 106 1 103 0;
#X connect 106 2 49 0;
#X connect 110 0 18 0;
#X coords 0 -1 1 1 185 114 1 100 100;
#X restore 11 203 pd ARGO;
#X text 202 237 ExMM31p-GEMFilm-Blur-vertical.pd;
#X text 206 106 ExMM72e-GEMSlideShow2-Blur2;
#X text 206 117 ExMM169a;
#N canvas 395 87 416 270 ARGO 0;
#X obj 46 -9 cnv 15 60 30 empty empty empty 20 12 0 14 -24198 -66577
0;
#N canvas 730 181 392 161 Help 0;
#X text 16 101 GemUI_abstractions04/GemUI_abstractions04gem_window-help.pd
;
#X text 15 88 Voir:;
#X text 16 112 de raphael Isdant;
#X obj 17 126 pddp/pddplink http://www.raphaelisdant.fr/workshop/;
#X text 16 26 Mesure le nombre de frames / seconde de GEM en mode double
buffer;
#X text 15 52 Measures the number of frames / second of GEM in double
buffer mode;
#X restore 53 -3 pd Help;
#X obj 159 -80 realtime;
#X obj 159 -128 gemhead 99;
#X msg 159 78 label \$1;
#X obj 101 101 cnv 22 183 25 empty empty GEM. 5 12 1 18 -1 -262144
1.04858e+06;
#X obj 162 106 hsl 2 8 0 127 0 0 \$0-A \$0-ColorGEM 0_Frames/sec 10
8 1 14 -262144 -1 -262144 0 1;
#X obj 150 105 cnv 15 20 20 empty empty empty 20 12 0 14 -1 -66577
0;
#X obj 217 -13 delay 1000;
#X msg 217 10 0;
#X obj 159 -56 expr min(int((1000 / $f1) + 0.5) \, 100);
#X obj 159 -12 change;
#X obj 217 -35 b;
#X obj 159 -105 t b b;
#X obj 159 35 cyclone/sprintf %s_Frames/sec;
#X obj 159 56 cyclone/tosymbol;
#X text 229 85 30 3 2016;
#X obj 344 65 cnv 15 42 25 empty empty empty 20 12 0 14 -24198 -66577
0;
#N canvas 336 174 309 137 ?. 0;
#X obj 3 83 cnv 15 300 46 empty empty empty 20 12 0 14 -224896 -66577
0;
#X obj 3 6 cnv 18 300 70 empty empty ARGOPdMiniModules 3 10 1 14 -4033
-1 1.04858e+06;
#X obj 26 26 cnv 10 10 10 empty empty Gerard 0 5 1 11 -4033 -1 1.04858e+06
;
#X obj 64 26 cnv 10 10 10 empty empty Paresys 0 5 1 11 -4033 -1 1.04858e+06
;
#X obj 7 37 pddp/pddplink http://gerard.paresys.free.fr/ARGOPd/;
#X text 8 85 Construit sous / Build under Pd 0.43.4-extended;
#X obj 8 111 pddp/pddplink http://puredata.info/downloads/pd-extended
;
#X obj 7 50 pddp/pddplink http://paresys.pagesperso-orange.fr/ARGOPd/
;
#X text 7 98 or Pd-0.46-7 + deken;
#X restore 348 69 pd ?.;
#X connect 2 0 10 0;
#X connect 3 0 13 0;
#X connect 4 0 6 0;
#X connect 8 0 9 0;
#X connect 9 0 14 0;
#X connect 10 0 11 0;
#X connect 10 0 12 0;
#X connect 11 0 14 0;
#X connect 12 0 8 0;
#X connect 13 0 2 0;
#X connect 13 1 2 1;
#X connect 14 0 15 0;
#X connect 15 0 4 0;
#X coords 0 -1 1 1 185 27 1 100 100;
#X restore 202 262 pd ARGO;
#N canvas 105 22 1024 616 ARGO 0;
#X obj 101 101 cnv 22 183 112 empty empty GEM. 5 12 1 18 -1 -262144
1.04858e+06;
#X obj 205 154 tgl 12 1 \$0-A \$0-ColorGEM (F)ullScreen 15 7 1 11 -262144
-1 -262144 0 1;
#X obj 103 124 tgl 12 1 \$0-A \$0-ColorGEM (G)EM 15 7 1 11 -262144
-1 -262144 0 1;
#X obj 205 139 tgl 12 1 \$0-A \$0-ColorGEM KeyShortCut 15 7 1 11 -262144
-1 -262144 0 1;
#X obj 283 -26 key;
#X msg 89 246 set \$1;
#X msg 70 268 0;
#X msg -36 505 frame \$1;
#X obj 283 11 spigot;
#X obj 70 -28 gemkeyname;
#X obj 628 453 select 0 1;
#X obj 80 220 t b f f f;
#X msg 644 500 color 16 22 16;
#X msg 629 477 color 0 22 0;
#X obj 181 67 select 65 97 70 102 76 108 71 103 66 98;
#X obj -25 -25 r SendGEM;
#X obj 630 534 s \$0-ColorGEM;
#X obj 205 124 tgl 12 1 SendMode \$0-ColorGEM Compatible 15 7 1 11
-262144 -1 -262144 0 1;
#X obj 53 68 select 27;
#X msg -21 134 0;
#X obj 103 184 hradio 12 1 1 5 \$0-A \$0-ColorGEM 640x480 62 7 1 11
-262144 -1 -262144 2;
#X obj 248 220 t b f;
#N canvas 206 161 332 336 Dimension 0;
#X msg 120 175 set dimen 640 480;
#X msg 102 217 set dimen 320 240;
#X msg 131 154 label 640x480;
#X msg 112 196 label 320x240;
#X obj 102 17 inlet;
#X obj 25 299 outlet;
#X obj 246 299 outlet;
#X msg 82 260 set dimen 480 640;
#X msg 92 239 label 480x640;
#X msg 161 90 set dimen 1280 720;
#X msg 136 133 set dimen 1280 480;
#X msg 167 67 label 1280x720;
#X msg 146 112 label 1280x480;
#X obj 102 43 sel 0 1 2 3 4;
#X connect 0 0 6 0;
#X connect 1 0 6 0;
#X connect 2 0 5 0;
#X connect 3 0 5 0;
#X connect 4 0 13 0;
#X connect 7 0 6 0;
#X connect 8 0 5 0;
#X connect 9 0 6 0;
#X connect 10 0 6 0;
#X connect 11 0 5 0;
#X connect 12 0 5 0;
#X connect 13 0 8 0;
#X connect 13 0 7 0;
#X connect 13 1 3 0;
#X connect 13 1 1 0;
#X connect 13 2 2 0;
#X connect 13 2 0 0;
#X connect 13 3 12 0;
#X connect 13 3 10 0;
#X connect 13 4 11 0;
#X connect 13 4 9 0;
#X restore 163 305 pd Dimension;
#X text 150 -29 Sortir de fullscreen;
#X text 146 -19 sous Linux avec Esc ->;
#X text -72 37 Sortir de fullscreen;
#X text -84 47 sous MacOS avec Esc ->;
#X obj 189 220 t b f;
#X obj 103 139 tgl 12 1 \$0-A \$0-ColorGEM (B)arMenu 15 7 1 11 -262144
-1 -262144 1 1;
#X obj 36 16 spigot;
#X obj 69 -6 == 0;
#X obj -47 68 sel f F g G b B;
#X obj 293 220 t b f b;
#X obj -21 112 t b b;
#X msg 6 158 set 1;
#X obj 103 154 tgl 12 1 \$0-A \$0-ColorGEM (L)ight 15 7 1 11 -262144
-1 -262144 0 1;
#X obj 103 169 nbx 3 12 0 100 0 1 \$0-A \$0-ColorGEM BackGround 37
7 1 11 -262144 -1 -262144 76 256;
#X obj 205 169 tgl 12 1 \$0-A \$0-ColorGEM Screen2 15 7 1 11 -262144
-1 -262144 0 1;
#X obj 161 124 bng 12 250 50 0 \$0-A \$0-ColorGEM Info 15 7 1 11 -262144
-1 -262144;
#X obj 351 220 t b f;
#X obj 386 343 + 1;
#X msg -106 505 print;
#X msg -278 505 lighting \$1;
#X msg -200 505 color \$1 \$1 \$1;
#X obj -200 480 / 100;
#X obj 297 473 * 2;
#X obj -278 481 int;
#X obj -243 149 cnv 15 60 30 empty empty empty 20 12 0 14 -24198 -66577
0;
#N canvas 241 55 427 568 Help 0;
#X obj 11 -6 cnv 15 380 90 empty empty empty 20 12 0 14 -233017 -66577
0;
#X text 16 -8 Citation;
#X text 15 5 "GEM is the Graphics Environment for Multimedia. It was
originally written by Mark Danks to generate real-time computer graphics
\, especially for audio-visual compositions.";
#X text 15 55 "GEM is a collection of externals which allow the user
to create OpenGL graphics within Pd";
#X text 10 92 - Raccourcis clavier;
#X text 12 148 - En "FullScreen" taper F ou Pomme + Tab sous MacOSX...
;
#X text 120 161 taper F ou Alt + Tab sous Windows...;
#X text 120 173 taper F ou Alt + F4 sous Linux...;
#X obj 10 425 cnv 15 400 190 empty empty empty 20 12 0 14 -258113 -66577
0;
#X text 13 431 Impossible de supprimer la barre de menu sous MacOSX.5
+ Pd-0.41.4-extended;
#X text 13 457 Pas de probleme sous MacOSX.4 + Pd-0.41.4-extended;
#X text 25 513 Solution: Quitter Pd et relancer;
#X text 14 474 - Problème Windows: Quand on sort de fullscreen le dessin
des objets dans les patches est buggé (taille du texte \, HSlider décalés...)
;
#X text 26 525 Vu avec carte Matrox + Windows XP SP2 + Pd-0.41.4-extended
;
#X text 18 582 Solution: cocher Compatible;
#X text 35 317 Inconvenient: Charge CPU => la texture est calculée
(objet pix_texture) par le processeur de l'ordinateur et pas par la
carte video);
#X text 18 559 GL: énumérant non valide (répété);
#X text 18 570 OpenGL: invalid enumérant (repeat);
#X text 14 545 - Erreur dans la fenêtre Pd:;
#X text 12 265 Il faut cocher compatible avec certaines cartes video
\, de certains PC \, sous Windows...;
#X text 13 291 Compatible Off -> mode 1: TEXTURE_RECTANGLE;
#X text 13 303 Compatible On -> mode 0: TEXTURE_2D;
#X text 8 -31 - GEM On ouvre une fenetre;
#X text 134 91 g / G -> GEM On/Off;
#X text 135 105 f / F -> FullScreen On/Off;
#X text 136 118 b /B -> Menu bar On/Off;
#X text 136 132 Echap / Esc -> FullScreen Off;
#X text 15 391 16/9 = 512/288 = 1024/576 = 1152/648 = 1280/720 = 1440/810
;
#X text 9 379 16/10 = 512/320 = 1024/640 = 1152/720 = 1280x800 = 1440/900
;
#X text 343 366 = 1280/960;
#X text 20 367 4/3 = 160/120 = 320/240 = 512/384 = 640/480 = 1024x768
;
#X text 121 186 ou Echap / Esc...;
#X text 22 654 Clear envoye 300ms apres reinitialisation de le fenetre
GEM;
#X text 21 668 Clear envoye 300ms apres Background;
#X text 10 627 Modif par rapport a la version du 6 11 2011 du MM GEM-Control
avec option SingleBuffer:;
#X text 10 682 Modif par rapport a la version du 28 5 2012:;
#X text 21 720 Ajout bouton Save;
#X text 21 693 Ajout bouton Grade;
#X text 10 709 Modif par rapport a la version du 5 7 2012:;
#X obj 9 738 cnv 15 400 80 empty empty empty 20 12 0 14 -258113 -66577
0;
#X text 12 744 Probleme sous MacOSX + Pd-0.42.5-extended;
#X text 12 793 Pas de probleme sous MacOSX + Pd-0.43.1-extended;
#X text 21 758 Save crée un fichier au format tiff nommé GEMWindow000xx.jpg
;
#X text 21 771 Ce fichier est visible correctement avec ImageJ;
#X text 10 825 Modif par rapport a la version du 10 7 2012:;
#X text 21 837 Ajout Message FSAA 4;
#X text 10 850 Modif par rapport a la version du 16 7 2012:;
#X text 21 862 Ajout delay 100 dans SaveJpeg pour eviter image vide
dans le mode DoubleBuffer;
#X text 11 231 - Compatible envoie le message rectangle 1 ou rectangle
0 à tous les objets pix_texture des autres modules;
#X text 21 904 Message frame apres message create;
#X text 10 892 Modif par rapport a la version du 4 10 2012:;
#X text 23 936 Suppression KeyShortCut On toujours;
#X text 24 949 mrpeach/str to_list remplace par iemlib/iem_symtoalist
;
#X text 8 924 Change par rapport version precedente:;
#X restore -236 155 pd Help;
#X msg 23 505 create;
#X msg 548 505 destroy;
#X msg 508 505 reset;
#X msg 297 505 fullscreen \$1;
#X msg 603 505 0;
#X obj 161 556 gemwin;
#X obj 70 296 sel 1;
#X msg 288 343 set \$1;
#X obj 581 449 t b b;
#X obj 548 472 delay 200;
#X msg 70 505 dimen 640 480;
#X msg -65 505 1;
#X obj 70 370 select linux macos windows;
#X msg 337 343 set \$1;
#X msg 160 473 1;
#X msg 160 505 border \$1 \, menubar \$1;
#X obj -23 552 cnv 15 120 30 empty empty empty 20 12 0 14 -258113 -66577
0;
#X obj -6 559 s RenderGEM;
#X obj -16 450 delay 300;
#X obj -65 374 delay 300;
#X msg 297 449 0;
#X obj 70 427 delay 300;
#X obj 121 398 t b b b;
#X obj 70 398 t b b b;
#X obj 84 450 spigot;
#X obj 255 343 == 0;
#X obj 70 347 zexy/operating_system;
#X obj 117 67 select 27;
#X msg 388 478 2;
#X obj 103 199 tgl 12 1 \$0-A \$0-ColorGEM SingleBuffer 15 7 1 11 -262144
-1 -262144 0 1;
#X msg 388 505 buffer \$1;
#X obj 187 199 bng 12 50 50 0 \$0-A \$0-ColorGEM Clear 15 7 1 11 -262144
-1 -262144;
#X obj 363 421 sel 0 1;
#X msg 362 444 set 2;
#X msg 407 444 set 1;
#X obj -149 476 delay 300;
#X obj -149 387 b;
#X obj 236 199 bng 12 50 50 0 \$0-A \$0-ColorGEM Grade 15 7 1 11 -262144
-1 -262144;
#N canvas 516 98 366 385 Graduation 0;
#X obj 161 78 until;
#X obj 161 100 f;
#X obj 209 100 + 1;
#X obj 237 101 sel 0;
#X obj 161 176 gemhead;
#X obj 161 350 GEMglEnd;
#X obj 161 224 GEMglBegin GL_LINES;
#X obj 161 122 t b f;
#X obj 161 249 GEMglVertex2f -10 0;
#X obj 161 272 GEMglVertex2f 10 0;
#X obj 161 294 GEMglVertex2f 0 -4;
#X obj 161 316 GEMglVertex2f 0 4;
#X obj 35 316 GEMglVertex2f 0 4;
#X obj 35 294 GEMglVertex2f 0 -4;
#X obj 161 198 color 0.8 0.8 0.8;
#X obj 35 249 GEMglVertex2f -7 0;
#X obj 35 272 GEMglVertex2f 7 0;
#X obj 274 198 - 7;
#X obj 209 122 mod 15;
#X obj 127 17 inlet;
#X text 164 17 <- bang;
#X obj 34 175 gemhead;
#X obj 35 224 GEMglBegin GL_LINES;
#X msg 306 116 1;
#X msg 34 116 0;
#X obj 127 41 t b b b b;
#X obj 35 198 color 0.2 0.2 0.2;
#X obj 195 40 cnv 15 130 20 empty empty empty 20 12 0 14 -24198 -66577
0;
#X text 200 41 en mode SingleBuffer;
#X obj 34 18 loadbang;
#X connect 0 0 1 0;
#X connect 1 0 2 0;
#X connect 1 0 7 0;
#X connect 2 0 18 0;
#X connect 3 0 0 1;
#X connect 4 0 14 0;
#X connect 6 0 8 0;
#X connect 7 0 4 0;
#X connect 7 1 17 0;
#X connect 8 0 9 0;
#X connect 9 0 10 0;
#X connect 10 0 11 0;
#X connect 11 0 5 0;
#X connect 12 0 5 0;
#X connect 13 0 12 0;
#X connect 14 0 6 0;
#X connect 15 0 16 0;
#X connect 16 0 13 0;
#X connect 17 0 8 2;
#X connect 17 0 9 2;
#X connect 17 0 10 1;
#X connect 17 0 11 1;
#X connect 18 0 1 1;
#X connect 18 0 3 0;
#X connect 19 0 25 0;
#X connect 21 0 26 0;
#X connect 22 0 15 0;
#X connect 23 0 4 0;
#X connect 23 0 21 0;
#X connect 24 0 21 0;
#X connect 24 0 4 0;
#X connect 25 0 24 0;
#X connect 25 1 21 0;
#X connect 25 2 0 0;
#X connect 25 3 23 0;
#X connect 26 0 22 0;
#X connect 29 0 24 0;
#X restore 395 301 pd Graduation;
#X obj 335 397 t b f;
#X obj 289 196 cnv 15 310 20 empty empty empty 20 12 0 14 -24198 -66577
0;
#X text 290 197 <- Clear et Grade ne fonctionne qu'en SingleBuffer
;
#X obj 236 184 bng 12 250 50 0 \$0-A \$0-ColorGEM Save 15 7 1 11 -262144
-1 -262144;
#X obj 289 174 cnv 15 340 20 empty empty empty 20 12 0 14 -24198 -66577
0;
#X text 290 174 <- Sauve la fenetre GEM en JPEG dans le dossier du
patch;
#X msg 489 333 0;
#X msg 520 333 2;
#X msg 549 333 4;
#X msg 610 333 8;
#X msg 580 333 5;
#X msg 489 361 destroy \, FSAA \$1 \, buffer 1 \, create \, 1;
#X msg 456 505 FSAA 4;
#X obj 70 320 t b b b b b b;
#N canvas 318 287 378 229 SaveJpeg 0;
#X obj 84 159 pix_write;
#X obj 5 121 gemhead 100;
#X msg 161 21 bang;
#X obj 96 21 loadbang;
#X obj 47 21 inlet;
#X obj 47 54 t b b;
#X text 4 183 Sauve la fenetre GEM au format JPEG dans le dossier du
patch;
#X msg 161 120 file \$1 80;
#X obj 5 92 delay 100;
#X obj 161 96 cyclone/tosymbol;
#X obj 161 73 cyclone/sprintf %s/GEMWindow;
#X obj 161 51 ggee/getdir;
#X connect 1 0 0 0;
#X connect 2 0 11 0;
#X connect 3 0 11 0;
#X connect 4 0 5 0;
#X connect 5 0 8 0;
#X connect 5 1 0 0;
#X connect 7 0 0 0;
#X connect 8 0 1 0;
#X connect 9 0 7 0;
#X connect 10 0 9 0;
#X connect 11 0 10 0;
#X restore 406 273 pd SaveJpeg;
#X msg -100 250 set \$1;
#X msg -100 283 15;
#X obj -127 225 t b f;
#X obj 191 105 nbx 2 12 1 30 0 1 \$0-A \$0-ColorGEM Frames/sec 29 7
1 11 -262144 -1 -262144 15 256;
#X obj -16 473 t b b b;
#X obj 53 42 iemlib/iem_symtoalist;
#X text 290 115 27 3 2017;
#X obj 580 547 cnv 15 42 25 empty empty empty 20 12 0 14 -24198 -66577
0;
#N canvas 336 174 309 137 ?. 0;
#X obj 3 83 cnv 15 300 46 empty empty empty 20 12 0 14 -224896 -66577
0;
#X obj 3 6 cnv 18 300 70 empty empty ARGOPdMiniModules 3 10 1 14 -4033
-1 1.04858e+06;
#X obj 26 26 cnv 10 10 10 empty empty Gerard 0 5 1 11 -4033 -1 1.04858e+06
;
#X obj 64 26 cnv 10 10 10 empty empty Paresys 0 5 1 11 -4033 -1 1.04858e+06
;
#X obj 7 37 pddp/pddplink http://gerard.paresys.free.fr/ARGOPd/;
#X text 8 85 Construit sous / Build under Pd 0.43.4-extended;
#X obj 8 111 pddp/pddplink http://puredata.info/downloads/pd-extended
;
#X obj 7 50 pddp/pddplink http://paresys.pagesperso-orange.fr/ARGOPd/
;
#X text 7 98 or Pd-0.46-7 + deken;
#X restore 584 551 pd ?.;
#X connect 1 0 32 0;
#X connect 2 0 11 0;
#X connect 3 0 8 1;
#X connect 4 0 8 0;
#X connect 4 0 18 0;
#X connect 4 0 76 0;
#X connect 5 0 6 0;
#X connect 6 0 55 0;
#X connect 7 0 54 0;
#X connect 8 0 14 0;
#X connect 9 0 30 0;
#X connect 9 1 29 0;
#X connect 10 0 13 0;
#X connect 10 1 12 0;
#X connect 11 0 6 0;
#X connect 11 1 5 0;
#X connect 11 3 10 0;
#X connect 12 0 16 0;
#X connect 13 0 16 0;
#X connect 14 2 1 0;
#X connect 14 3 1 0;
#X connect 14 6 2 0;
#X connect 14 7 2 0;
#X connect 14 8 28 0;
#X connect 14 9 28 0;
#X connect 15 0 2 0;
#X connect 18 0 33 0;
#X connect 19 0 1 0;
#X connect 20 0 21 0;
#X connect 21 0 6 0;
#X connect 21 1 22 0;
#X connect 22 0 20 0;
#X connect 22 1 59 0;
#X connect 27 0 6 0;
#X connect 27 1 62 0;
#X connect 28 0 27 0;
#X connect 29 0 31 0;
#X connect 29 0 108 0;
#X connect 30 0 29 1;
#X connect 31 0 1 0;
#X connect 31 1 1 0;
#X connect 31 2 2 0;
#X connect 31 3 2 0;
#X connect 31 4 28 0;
#X connect 31 5 28 0;
#X connect 32 0 6 0;
#X connect 32 1 74 0;
#X connect 32 1 56 0;
#X connect 33 0 19 0;
#X connect 33 1 34 0;
#X connect 34 0 28 0;
#X connect 34 0 63 0;
#X connect 35 0 46 0;
#X connect 36 0 44 0;
#X connect 36 0 85 0;
#X connect 37 0 39 0;
#X connect 38 0 41 0;
#X connect 39 0 6 0;
#X connect 39 1 40 0;
#X connect 40 0 45 1;
#X connect 41 0 54 0;
#X connect 42 0 54 0;
#X connect 43 0 54 0;
#X connect 44 0 43 0;
#X connect 45 0 52 0;
#X connect 46 0 42 0;
#X connect 49 0 54 0;
#X connect 50 0 54 0;
#X connect 51 0 54 0;
#X connect 52 0 54 0;
#X connect 53 0 54 0;
#X connect 55 0 101 0;
#X connect 55 1 57 0;
#X connect 56 0 69 0;
#X connect 57 0 58 0;
#X connect 57 1 53 0;
#X connect 58 0 50 0;
#X connect 59 0 54 0;
#X connect 60 0 54 0;
#X connect 60 0 66 0;
#X connect 61 0 72 0;
#X connect 61 1 71 0;
#X connect 61 2 72 0;
#X connect 62 0 63 0;
#X connect 63 0 64 0;
#X connect 64 0 54 0;
#X connect 67 0 107 0;
#X connect 68 0 60 0;
#X connect 68 0 46 0;
#X connect 68 0 44 0;
#X connect 68 0 84 0;
#X connect 69 0 45 0;
#X connect 70 0 67 0;
#X connect 70 0 59 0;
#X connect 71 0 70 0;
#X connect 71 1 63 0;
#X connect 71 2 69 0;
#X connect 72 0 67 0;
#X connect 72 1 69 0;
#X connect 72 2 73 0;
#X connect 73 0 59 0;
#X connect 74 0 73 1;
#X connect 75 0 61 0;
#X connect 76 0 33 0;
#X connect 77 0 79 0;
#X connect 78 0 88 0;
#X connect 79 0 54 0;
#X connect 80 0 54 0;
#X connect 81 0 82 0;
#X connect 81 1 83 0;
#X connect 82 0 77 0;
#X connect 83 0 77 0;
#X connect 84 0 80 0;
#X connect 85 0 84 0;
#X connect 86 0 87 0;
#X connect 88 0 6 0;
#X connect 88 1 81 0;
#X connect 91 0 102 0;
#X connect 94 0 99 0;
#X connect 95 0 99 0;
#X connect 96 0 99 0;
#X connect 97 0 99 0;
#X connect 98 0 99 0;
#X connect 99 0 54 0;
#X connect 100 0 54 0;
#X connect 101 0 75 0;
#X connect 101 1 77 0;
#X connect 101 2 100 0;
#X connect 101 3 51 0;
#X connect 101 4 50 0;
#X connect 101 5 53 0;
#X connect 103 0 104 0;
#X connect 104 0 7 0;
#X connect 105 0 104 0;
#X connect 105 1 103 0;
#X connect 106 0 105 0;
#X connect 107 0 68 0;
#X connect 107 1 104 0;
#X connect 107 2 49 0;
#X connect 108 0 18 0;
#X coords 0 -1 1 1 185 114 1 100 100;
#X restore 11 323 pd ARGO;
#X obj 223 8 declare -stdlib Gem;
#X text 201 346 ExMM210g-GEMVolume-Cube-Multi.pd;
#N canvas 17 72 652 557 ARGO 0;
#X obj 467 98 cnv 15 60 30 empty empty empty 20 12 0 14 -24198 -66577
0;
#N canvas 385 43 441 621 Help 0;
#X obj 11 30 cnv 15 380 90 empty empty empty 20 12 0 14 -233017 -66577
0;
#X text 16 28 Citation;
#X text 15 41 "GEM is the Graphics Environment for Multimedia. It was
originally written by Mark Danks to generate real-time computer graphics
\, especially for audio-visual compositions.";
#X text 15 91 "GEM is a collection of externals which allow the user
to create OpenGL graphics within Pd";
#X text 10 128 - Raccourcis clavier;
#X text 12 184 - En "FullScreen" taper F ou Pomme + Tab sous MacOSX...
;
#X text 120 197 taper F ou Alt + Tab sous Windows...;
#X text 120 209 taper F ou Alt + F4 sous Linux...;
#X obj 12 434 cnv 15 400 190 empty empty empty 20 12 0 14 -258113 -66577
0;
#X text 15 440 Impossible de supprimer la barre de menu sous MacOSX.5
+ Pd-0.41.4-extended;
#X text 15 466 Pas de probleme sous MacOSX.4 + Pd-0.41.4-extended;
#X text 27 522 Solution: Quitter Pd et relancer;
#X text 16 483 - Problème Windows: Quand on sort de fullscreen le dessin
des objets dans les patches est buggé (taille du texte \, HSlider décalés...)
;
#X text 28 534 Vu avec carte Matrox + Windows XP SP2 + Pd-0.41.4-extended
;
#X text 20 591 Solution: cocher Compatible;
#X text 37 326 Inconvenient: Charge CPU => la texture est calculée
(objet pix_texture) par le processeur de l'ordinateur et pas par la
carte video);
#X text 20 568 GL: énumérant non valide (répété);
#X text 20 579 OpenGL: invalid enumérant (repeat);
#X text 16 554 - Erreur dans la fenêtre Pd:;
#X text 14 274 Il faut cocher compatible avec certaines cartes video
\, de certains PC \, sous Windows...;
#X text 15 300 Compatible Off -> mode 1: TEXTURE_RECTANGLE;
#X text 15 312 Compatible On -> mode 0: TEXTURE_2D;
#X text 8 5 - GEM On ouvre une fenetre;
#X text 134 127 g / G -> GEM On/Off;
#X text 135 141 f / F -> FullScreen On/Off;
#X text 136 154 b /B -> Menu bar On/Off;
#X text 136 168 Echap / Esc -> FullScreen Off;
#X text 17 400 16/9 = 512/288 = 1024/576 = 1152/648 = 1280/720 = 1440/810
;
#X text 11 388 16/10 = 512/320 = 1024/640 = 1152/720 = 1280x800 = 1440/900
;
#X text 345 375 = 1280/960;
#X text 22 376 4/3 = 160/120 = 320/240 = 512/384 = 640/480 = 1024x768
;
#X text 121 222 ou Echap / Esc...;
#X text 13 248 - Compatible envoie le message mode 1 ou mode 0 à tous
les objets pix_texture des autres modules;
#X text 24 647 Suppression KeyShortCut On toujours;
#X text 25 660 mrpeach/str to_list remplace par iemlib/iem_symtoalist
;
#X text 12 629 Change par rapport version precedente:;
#X restore 474 104 pd Help;
#X obj 101 101 cnv 22 183 69 empty empty GEM. 5 12 1 18 -1 -262144
1.04858e+06;
#X obj 191 154 tgl 12 1 \$0-A \$0-ColorGEM (F)ullScreen 15 7 1 11 -262144
-1 -262144 0 1;
#X obj 103 124 tgl 12 1 \$0-A \$0-ColorGEM (G)EM 15 7 1 11 -262144
-1 -262144 0 1;
#X obj 191 105 nbx 2 12 1 30 0 1 \$0-A \$0-ColorGEM Frames/sec 26 7
1 11 -262144 -1 -262144 15 256;
#X obj 191 139 tgl 12 1 \$0-A \$0-ColorGEM KeyShortCut 15 7 1 11 -262144
-1 -262144 0 1;
#X obj 283 -26 key;
#X msg 15 462 create;
#X msg 429 460 destroy;
#X msg 387 460 reset;
#X msg 296 460 fullscreen \$1;
#X msg 489 460 0;
#X obj 78 251 sel 1;
#X msg 296 298 set \$1;
#X msg 95 204 set \$1;
#X msg 78 229 0;
#X msg -80 461 frame \$1;
#X obj 462 395 t b b;
#X obj 429 418 delay 200;
#X msg 64 461 dimen 320 240;
#X msg -15 463 1;
#X obj 283 11 spigot;
#X obj 516 391 select 0 1;
#X obj 78 178 t b f f f;
#X msg 532 438 color 16 22 16;
#X msg 517 415 color 0 22 0;
#X obj 188 67 select 65 97 70 102 76 108 71 103 66 98;
#X obj -25 -25 r SendGEM;
#X obj 517 483 s \$0-ColorGEM;
#X obj 191 124 tgl 12 1 SendMode \$0-ColorGEM Compatible 15 7 1 11
-262144 -1 -262144 0 1;
#X msg -21 134 0;
#X obj 103 154 hradio 12 1 1 3 \$0-A \$0-ColorGEM 320x240 39 7 1 11
-262144 -1 -262144 0;
#X obj 248 178 t b f;
#N canvas 0 22 450 300 Dimension 0;
#X obj 169 76 sel 0 1 2;
#X msg 203 141 set dimen 1280 720;
#X msg 187 183 set dimen 640 480;
#X msg 169 225 set dimen 320 240;
#X msg 198 162 label 640x480;
#X msg 213 120 label 1280x720;
#X msg 179 204 label 320x240;
#X obj 169 50 inlet;
#X obj 103 257 outlet;
#X obj 303 259 outlet;
#X connect 0 0 3 0;
#X connect 0 0 6 0;
#X connect 0 1 2 0;
#X connect 0 1 4 0;
#X connect 0 2 1 0;
#X connect 0 2 5 0;
#X connect 1 0 9 0;
#X connect 2 0 9 0;
#X connect 3 0 9 0;
#X connect 4 0 8 0;
#X connect 5 0 8 0;
#X connect 6 0 8 0;
#X connect 7 0 0 0;
#X restore 275 213 pd Dimension;
#X obj 78 325 select linux macos windows;
#X text 150 -29 Sortir de fullscreen;
#X text 146 -19 sous Linux avec Esc ->;
#X text -70 37 Sortir de fullscreen;
#X text -82 47 sous MacOS avec Esc ->;
#X msg 345 298 set \$1;
#X msg 157 437 1;
#X obj 187 179 t b f;
#X msg 157 461 border \$1 \, menubar \$1;
#X obj 103 139 tgl 12 1 \$0-A \$0-ColorGEM (B)arMenu 15 7 1 11 -262144
-1 -262144 1 1;
#X obj 36 16 spigot;
#X obj 69 -6 == 0;
#X obj 146 204 t b f b;
#X obj -21 112 t b b;
#X msg 6 158 set 1;
#X obj -32 500 cnv 15 120 30 empty empty empty 20 12 0 14 -258113 -66577
0;
#X obj -15 507 s RenderGEM;
#X obj 15 415 delay 300;
#X obj -15 438 delay 300;
#X msg 296 434 0;
#X obj 64 391 delay 300;
#X obj 129 361 t b b b;
#X obj 78 361 t b b b;
#X obj 78 414 spigot;
#X obj 263 298 == 0;
#X obj 78 275 t b b b b;
#X obj 78 302 zexy/operating_system;
#X obj 56 -28 gemkeyname;
#X obj 169 511 gemwin;
#X text 289 115 27 3 2017;
#X obj 520 505 cnv 15 42 25 empty empty empty 20 12 0 14 -24198 -66577
0;
#N canvas 336 174 309 137 ?. 0;
#X obj 3 83 cnv 15 300 46 empty empty empty 20 12 0 14 -224896 -66577
0;
#X obj 3 6 cnv 18 300 70 empty empty ARGOPdMiniModules 3 10 1 14 -4033
-1 1.04858e+06;
#X obj 26 26 cnv 10 10 10 empty empty Gerard 0 5 1 11 -4033 -1 1.04858e+06
;
#X obj 64 26 cnv 10 10 10 empty empty Paresys 0 5 1 11 -4033 -1 1.04858e+06
;
#X obj 7 37 pddp/pddplink http://gerard.paresys.free.fr/ARGOPd/;
#X text 8 85 Construit sous / Build under Pd 0.43.4-extended;
#X obj 8 111 pddp/pddplink http://puredata.info/downloads/pd-extended
;
#X obj 7 50 pddp/pddplink http://paresys.pagesperso-orange.fr/ARGOPd/
;
#X text 7 98 or Pd-0.46-7 + deken;
#X restore 524 509 pd ?.;
#X obj 59 40 iemlib/iem_symtoalist;
#X obj 91 67 select 27;
#X obj -47 67 select f F g G b B;
#X connect 3 0 47 0;
#X connect 4 0 24 0;
#X connect 5 0 17 0;
#X connect 6 0 22 1;
#X connect 7 0 22 0;
#X connect 7 0 68 0;
#X connect 8 0 63 0;
#X connect 9 0 63 0;
#X connect 10 0 63 0;
#X connect 11 0 63 0;
#X connect 12 0 63 0;
#X connect 13 0 60 0;
#X connect 13 1 18 0;
#X connect 14 0 54 0;
#X connect 15 0 16 0;
#X connect 16 0 13 0;
#X connect 17 0 63 0;
#X connect 18 0 19 0;
#X connect 18 1 12 0;
#X connect 19 0 9 0;
#X connect 20 0 63 0;
#X connect 21 0 51 0;
#X connect 21 0 63 0;
#X connect 22 0 27 0;
#X connect 23 0 26 0;
#X connect 23 1 25 0;
#X connect 24 0 16 0;
#X connect 24 1 15 0;
#X connect 24 3 23 0;
#X connect 25 0 29 0;
#X connect 26 0 29 0;
#X connect 27 2 3 0;
#X connect 27 3 3 0;
#X connect 27 6 4 0;
#X connect 27 7 4 0;
#X connect 27 8 44 0;
#X connect 27 9 44 0;
#X connect 28 0 4 0;
#X connect 31 0 3 0;
#X connect 32 0 33 0;
#X connect 33 0 16 0;
#X connect 33 1 34 0;
#X connect 34 0 32 0;
#X connect 34 1 20 0;
#X connect 35 0 57 0;
#X connect 35 1 56 0;
#X connect 35 2 57 0;
#X connect 40 0 41 0;
#X connect 41 0 43 0;
#X connect 42 0 16 0;
#X connect 42 1 40 0;
#X connect 43 0 63 0;
#X connect 44 0 42 0;
#X connect 45 0 67 0;
#X connect 45 0 69 0;
#X connect 46 0 45 1;
#X connect 47 0 16 0;
#X connect 47 1 14 0;
#X connect 47 1 59 0;
#X connect 48 0 31 0;
#X connect 48 1 49 0;
#X connect 49 0 44 0;
#X connect 49 0 41 0;
#X connect 52 0 8 0;
#X connect 52 0 53 0;
#X connect 53 0 21 0;
#X connect 54 0 11 0;
#X connect 55 0 52 0;
#X connect 55 0 20 0;
#X connect 56 0 55 0;
#X connect 56 1 41 0;
#X connect 56 2 54 0;
#X connect 57 0 52 0;
#X connect 57 1 54 0;
#X connect 57 2 58 0;
#X connect 58 0 20 0;
#X connect 59 0 58 1;
#X connect 60 0 61 0;
#X connect 60 1 10 0;
#X connect 60 2 9 0;
#X connect 60 3 12 0;
#X connect 61 0 35 0;
#X connect 62 0 46 0;
#X connect 62 1 45 0;
#X connect 67 0 68 0;
#X connect 68 0 48 0;
#X connect 69 0 3 0;
#X connect 69 1 3 0;
#X connect 69 2 4 0;
#X connect 69 3 4 0;
#X connect 69 4 44 0;
#X connect 69 5 44 0;
#X coords 0 -1 1 1 185 71 1 100 100;
#X restore 11 19 pd ARGO;
#X obj 342 401 cnv 15 42 25 empty empty empty 20 12 0 14 -24198 -66577
0;
#N canvas 336 174 309 137 ?. 0;
#X obj 3 83 cnv 15 300 46 empty empty empty 20 12 0 14 -224896 -66577
0;
#X obj 3 6 cnv 18 300 70 empty empty ARGOPdMiniModules 3 10 1 14 -4033
-1 1.04858e+06;
#X obj 26 26 cnv 10 10 10 empty empty Gerard 0 5 1 11 -4033 -1 1.04858e+06
;
#X obj 64 26 cnv 10 10 10 empty empty Paresys 0 5 1 11 -4033 -1 1.04858e+06
;
#X obj 7 37 pddp/pddplink http://gerard.paresys.free.fr/ARGOPd/;
#X text 8 85 Construit sous / Build under Pd 0.43.4-extended;
#X obj 8 111 pddp/pddplink http://puredata.info/downloads/pd-extended
;
#X obj 7 50 pddp/pddplink http://paresys.pagesperso-orange.fr/ARGOPd/
;
#X text 7 98 or Pd-0.46-7 + deken;
#X restore 346 405 pd ?.;
#X text 222 26 (Pd-0.47 + deken);
#X text 201 165 ExMM34c-GEMRotation-Fog;
#N canvas 3 215 761 443 ARGO 0;
#X obj 609 124 cnv 15 60 30 empty empty empty 20 12 0 14 -24198 -66577
0;
#N canvas 436 395 428 227 Help 0;
#X obj 15 48 cnv 15 380 140 empty empty empty 20 12 0 14 -233017 -66577
0;
#X text 20 48 Citation;
#X text 11 23 GEM-Multi;
#X text 42 70 Description: take a screenshot and texture it;
#X text 26 84 When banged [pix_snap2tex] will take a snapshot of the
current render buffer and immediately texture it to any geometric object
attached. You can specify the close-up you want to be grabbed via offset/dimension-pairs.
;
#X text 25 138 When grabbing \, be sure that something is in the rendering-buffer
\, else you will get a black texture.;
#X restore 616 130 pd Help;
#X obj 101 101 cnv 10 183 34 empty empty GEM-Multi. 2 11 1 14 -1 -262144
1.04858e+06;
#X obj 230 120 nbx 3 12 0 100 0 1 \$0-A \$0-ColorGEM Val 37 7 1 11
-262144 -1 -262144 100 256;
#X obj 140 11 cnv 15 120 30 empty empty empty 20 12 0 14 -258113 -66577
0;
#X obj 167 18 r RenderGEM;
#X obj 166 45 select 1;
#X obj 104 120 hradio 12 1 1 6 \$0-A \$0-ColorGEM 640x480 75 7 1 11
-262144 -1 -262144 3;
#X floatatom 459 229 5 0 0 0 width - -;
#X floatatom 592 228 5 0 0 1 height - -;
#X obj 505 236 pack f f;
#X msg 435 173 1280 720;
#X msg 379 173 640 480;
#X msg 324 172 320 240;
#X msg 267 173 480 640;
#X obj 417 93 select 0 1 2 3 4 5;
#X obj 502 173 bang;
#X msg 192 261 0 0;
#X obj 104 250 t b a;
#X obj 104 320 alpha;
#X obj 104 220 gemhead -1;
#X obj 104 354 colorRGB 1 1 1 0.9;
#X obj 104 292 pix_snap2tex;
#X obj 104 180 != 0;
#X obj 104 400 rectangle 4 3;
#X obj 209 329 * 0.01;
#X obj 180 105 nbx 3 12 0 2000 0 1 \$0-A \$0-ColorGEM x 37 7 1 11 -262144
-1 -262144 6 256;
#X obj 230 105 nbx 3 12 0 2000 0 1 \$0-A \$0-ColorGEM y 37 7 1 11 -262144
-1 -262144 4 256;
#X obj 173 236 t l b l;
#X msg 293 225 label \$1x\$2;
#X msg 195 154 label Off;
#X obj 166 70 t b b b b;
#X obj 293 248 t l b b;
#X msg 332 272 label FullScrn;
#X text 608 85 15 12 2015;
#X text 339 15 Superpose l'image de la fenÌ»tre GEM sur elle-mÌ»me
;
#X text 339 29 Superimposes screenshots and texture them;
#X obj 534 141 bng 15 250 50 0 empty empty empty 17 7 0 10 -262144
-1 -1;
#X obj 626 383 cnv 15 52 22 empty empty empty 20 12 0 14 -24198 -66577
0;
#N canvas 353 174 321 152 ?... 0;
#X obj 8 84 cnv 15 300 56 empty empty empty 20 12 0 14 -224896 -66577
0;
#X obj 8 7 cnv 18 300 70 empty empty ARGOPdMiniModules 3 10 1 14 -4033
-1 1.04858e+06;
#X obj 31 27 cnv 10 10 10 empty empty Gerard 0 5 1 11 -4033 -1 1.04858e+06
;
#X obj 69 27 cnv 10 10 10 empty empty Paresys 0 5 1 11 -4033 -1 1.04858e+06
;
#X obj 12 40 pddp/pddplink http://gerard.paresys.free.fr/ARGOPd/;
#X obj 13 121 pddp/pddplink http://puredata.info/downloads/pd-extended
;
#X obj 13 97 pddp/pddplink http://puredata.info/downloads/pure-data
;
#X text 13 85 Construit sous / Build under Pd-0.49...;
#X text 12 109 or Pd 0.43.4-extended;
#X obj 12 53 pddp/pddplink https://paresys.pagesperso-orange.fr/ARGOPd/
;
#X restore 629 386 pd ?...;
#X text 237 84 19 8 2019;
#X obj 502 203 hcs/screensize;
#X text 474 276 Attention \, le plein Ì©cran ne redimensionne pas la
fenetre mise en memoire : il faut changer la taille dans les cases
a cocher., f 46;
#X text 608 72 Creation Pertuit;
#X connect 3 0 25 0;
#X connect 5 0 6 0;
#X connect 6 0 31 0;
#X connect 7 0 15 0;
#X connect 7 0 23 0;
#X connect 10 0 32 0;
#X connect 11 0 28 0;
#X connect 12 0 28 0;
#X connect 13 0 28 0;
#X connect 14 0 28 0;
#X connect 15 0 30 0;
#X connect 15 1 14 0;
#X connect 15 2 13 0;
#X connect 15 3 12 0;
#X connect 15 4 11 0;
#X connect 15 5 16 0;
#X connect 16 0 41 0;
#X connect 17 0 22 1;
#X connect 18 0 22 0;
#X connect 18 1 22 0;
#X connect 19 0 21 0;
#X connect 20 0 18 0;
#X connect 21 0 24 0;
#X connect 22 0 19 0;
#X connect 23 0 20 0;
#X connect 25 0 21 4;
#X connect 26 0 24 1;
#X connect 27 0 24 2;
#X connect 28 0 22 2;
#X connect 28 1 17 0;
#X connect 28 2 29 0;
#X connect 29 0 7 0;
#X connect 30 0 7 0;
#X connect 31 0 7 0;
#X connect 31 1 26 0;
#X connect 31 2 27 0;
#X connect 31 3 3 0;
#X connect 32 0 22 2;
#X connect 32 1 17 0;
#X connect 32 2 33 0;
#X connect 33 0 7 0;
#X connect 37 0 41 0;
#X connect 41 0 8 0;
#X connect 41 0 10 0;
#X connect 41 1 9 0;
#X connect 41 1 10 1;
#X coords 0 -1 1 1 185 36 1 100 100;
#X restore 202 311 pd ARGO;
