#N canvas 439 64 334 371 10;
#X obj 26 16 *~;
#X obj 25 70 max~;
#X obj 26 44 /~;
#X obj 25 96 min~;
#X obj 25 122 clip~;
#X text 62 119 -> example ->;
#X obj 146 119 clip~ -1 1;
#X obj 26 148 abs~;
#X obj 26 200 lop~ 4000;
#X obj 26 227 hip~ 40;
#X obj 27 254 bp~ 400 10;
#X text 103 198 -> LowPass filter 4000 Hz;
#X text 97 226 -> HighPass filter 40 Hz;
#X text 73 252 -> -> BandPass filter 400 Hz Q= 10;
#X obj 26 282 zexy/pack~;
#X obj 26 306 zexy/unpack~;
#X text 108 292 ExMM10b-DelayFeedback-Methode2.pd;
#X obj 27 333 chaos/lorenz;
#X text 111 332 ExMM165a-GEM-Chaos4-Lorenz.pd;
#X text 61 16 ExMM4-RingModulation;
#X obj 26 174 random;
#X text 75 173 ExMM2i-Player-Files;
#X connect 14 0 15 0;
