#N canvas 396 65 421 313 10;
#N canvas 276 44 725 391 ARGO 0;
#X obj 101 101 cnv 10 95 41 \$0-A \$0-B 16-ARGOBus 4 21 1 14 -1 -24198
1.04858e+06;
#X text 44 112 9 9 2011;
#X obj 342 211 catch~ ARGOBus7;
#X obj 342 243 send~ ARGOBus7;
#X obj 453 211 catch~ ARGOBus8;
#X obj 453 243 send~ ARGOBus8;
#X obj 118 154 catch~ ARGOBus1;
#X obj 118 185 send~ ARGOBus1;
#X obj 230 154 catch~ ARGOBus2;
#X obj 230 185 send~ ARGOBus2;
#X obj 342 154 catch~ ARGOBus3;
#X obj 342 185 send~ ARGOBus3;
#X obj 453 154 catch~ ARGOBus4;
#X obj 453 185 send~ ARGOBus4;
#X obj 118 211 catch~ ARGOBus5;
#X obj 118 243 send~ ARGOBus5;
#X obj 230 243 send~ ARGOBus6;
#X obj 230 211 catch~ ARGOBus6;
#X obj 118 271 catch~ ARGOBus9;
#X obj 118 301 send~ ARGOBus9;
#X obj 230 271 catch~ ARGOBus10;
#X obj 230 301 send~ ARGOBus10;
#X obj 342 271 catch~ ARGOBus11;
#X obj 342 301 send~ ARGOBus11;
#X obj 453 271 catch~ ARGOBus12;
#X obj 453 301 send~ ARGOBus12;
#X obj 118 332 catch~ ARGOBus13;
#X obj 118 361 send~ ARGOBus13;
#X obj 230 332 catch~ ARGOBus14;
#X obj 230 361 send~ ARGOBus14;
#X obj 342 332 catch~ ARGOBus15;
#X obj 342 361 send~ ARGOBus15;
#X obj 453 332 catch~ ARGOBus16;
#X obj 453 361 send~ ARGOBus16;
#X obj 342 97 catch~ ARGOBus0;
#X obj 342 126 send~ ARGOBus0;
#X text 233 105 Pas de liaison ->;
#X text 275 116 No link ->;
#X obj 665 352 cnv 15 48 25 empty empty empty 20 12 0 14 -24198 -66577
0;
#N canvas 350 196 308 136 ??? 0;
#X obj -6 87 cnv 15 300 38 empty empty empty 20 12 0 14 -224896 -66577
0;
#X obj -6 10 cnv 18 300 70 empty empty ARGOPdMiniModules 3 10 1 14
-4033 -1 1.04858e+06;
#X obj 13 31 cnv 10 10 10 empty empty Gerard 0 5 1 11 -4033 -1 1.04858e+06
;
#X obj 55 30 cnv 10 10 10 empty empty Paresys 0 5 1 11 -4033 -1 1.04858e+06
;
#X text -1 89 Construit sous / Build under Pd 0.42.5-extended;
#X obj 6 43 pddp/pddplink http://pagesperso-orange.fr/Paresys/ARGOPd/
;
#X obj 6 58 pddp/pddplink http://gerard.paresys.free.fr/ARGOPd/;
#X obj 46 105 pddp/pddplink http://puredata.info/downloads;
#X restore 669 356 pd ???;
#X text 5 50 Un ARGOBus fait une liaison Audio entre des MM a l'interieur
d'un patch ou entre des patches.;
#X text 376 50 An ARGOBus is an Audio link between MM within a patch
or between patches.;
#X text 3 17 1 et 1 seul MM "16-ARGOBus" doit etre present pour utiliser
les MM ARGOBus.;
#X text 375 17 1 and only 1 MM "16-ARGOBus" must be present to use
the MM ARGOBus.;
#X connect 2 0 3 0;
#X connect 4 0 5 0;
#X connect 6 0 7 0;
#X connect 8 0 9 0;
#X connect 10 0 11 0;
#X connect 12 0 13 0;
#X connect 14 0 15 0;
#X connect 17 0 16 0;
#X connect 18 0 19 0;
#X connect 20 0 21 0;
#X connect 22 0 23 0;
#X connect 24 0 25 0;
#X connect 26 0 27 0;
#X connect 28 0 29 0;
#X connect 30 0 31 0;
#X connect 32 0 33 0;
#X coords 0 -1 1 1 97 43 1 100 100;
#X restore 124 78 pd ARGO;
#X text 19 38 Un ARGOBus fait une liaison Audio entre des MM a l'interieur
d'un patch ou entre des patches.;
#X text 14 231 An ARGOBus is an Audio link between MM within a patch
or between patches.;
#X text 17 5 1 et 1 seul MM "16-ARGOBus" doit etre present pour utiliser
les MM ARGOBus.;
#X text 13 198 1 and only 1 MM "16-ARGOBus" must be present to use
the MM ARGOBus.;
#X text 116 267 cf ExMM10b-DelayFeedback-Methode3.pd;
#X text 115 280 cf ExMM10g-DelayReverb.pd;
#X obj 346 276 cnv 15 52 22 empty empty empty 20 12 0 14 -24198 -66577
0;
#N canvas 353 174 321 152 ?... 0;
#X obj 8 84 cnv 15 300 56 empty empty empty 20 12 0 14 -224896 -66577
0;
#X obj 8 7 cnv 18 300 70 empty empty ARGOPdMiniModules 3 10 1 14 -4033
-1 1.04858e+06;
#X obj 31 27 cnv 10 10 10 empty empty Gerard 0 5 1 11 -4033 -1 1.04858e+06
;
#X obj 69 27 cnv 10 10 10 empty empty Paresys 0 5 1 11 -4033 -1 1.04858e+06
;
#X obj 12 40 pddp/pddplink http://gerard.paresys.free.fr/ARGOPd/;
#X obj 13 121 pddp/pddplink http://puredata.info/downloads/pd-extended
;
#X obj 13 97 pddp/pddplink http://puredata.info/downloads/pure-data
;
#X text 13 85 Construit sous / Build under Pd-0.49...;
#X text 12 109 or Pd 0.43.4-extended;
#X obj 12 53 pddp/pddplink https://paresys.pagesperso-orange.fr/ARGOPd/
;
#X restore 349 279 pd ?...;
#N canvas 394 211 276 269 ARGO 0;
#X obj 102 236 outlet~;
#X msg 102 194 set \$1;
#X obj 100 130 change;
#X obj 102 215 r~ ARGOBus0;
#X obj 101 101 cnv 10 103 16 empty empty ARGOBus. 28 10 1 14 -262144
-1 1.04858e+06;
#X text 80 45 MM 16-ARGOBus must be opened;
#X text 31 52 Warning;
#X text 168 81 9 9 2011;
#X text 21 21 Attention;
#X text 81 14 MM 16-ARGOBus doit être ouvert;
#X text 81 27 pour utiliser ce MiniModule.;
#X text 80 58 to use this MiniModule;
#X obj 101 113 cnv 4 10 4 empty empty empty 20 12 0 14 -1 -66577 0
;
#X obj 100 100 nbx 2 12 0 16 0 1 \$0-A \$0-B empty 0 0 1 9 -262144
-1 -1 3 256;
#X obj 102 173 cyclone/tosymbol;
#X obj 101 152 cyclone/sprintf ARGOBus%d;
#X obj 205 224 cnv 15 52 22 empty empty empty 20 12 0 14 -24198 -66577
0;
#N canvas 353 174 321 152 ?... 0;
#X obj 8 84 cnv 15 300 56 empty empty empty 20 12 0 14 -224896 -66577
0;
#X obj 8 7 cnv 18 300 70 empty empty ARGOPdMiniModules 3 10 1 14 -4033
-1 1.04858e+06;
#X obj 31 27 cnv 10 10 10 empty empty Gerard 0 5 1 11 -4033 -1 1.04858e+06
;
#X obj 69 27 cnv 10 10 10 empty empty Paresys 0 5 1 11 -4033 -1 1.04858e+06
;
#X obj 12 40 pddp/pddplink http://gerard.paresys.free.fr/ARGOPd/;
#X obj 13 121 pddp/pddplink http://puredata.info/downloads/pd-extended
;
#X obj 13 97 pddp/pddplink http://puredata.info/downloads/pure-data
;
#X text 13 85 Construit sous / Build under Pd-0.49...;
#X text 12 109 or Pd 0.43.4-extended;
#X obj 12 53 pddp/pddplink https://paresys.pagesperso-orange.fr/ARGOPd/
;
#X restore 208 227 pd ?...;
#X connect 1 0 3 0;
#X connect 2 0 15 0;
#X connect 3 0 0 0;
#X connect 13 0 2 0;
#X connect 14 0 1 0;
#X connect 15 0 14 0;
#X coords 0 -1 1 1 105 18 2 100 100;
#X restore 126 133 pd ARGO;
#N canvas 353 156 301 268 ARGO 0;
#X obj 101 101 cnv 10 103 16 empty empty ARGOBus. 28 10 1 14 -262144
-1 1.04858e+06;
#X obj 89 76 inlet~;
#X obj 101 101 cnv 4 10 4 empty empty empty 20 12 0 14 -1 -66577 0
;
#X obj 100 106 nbx 2 12 0 16 0 1 \$0-A \$0-B empty 0 0 1 9 -262144
-1 -1 3 256;
#X obj 100 127 change;
#X msg 100 195 set \$1;
#X obj 89 222 throw~ ARGOBus0;
#X text 80 39 MM 16-ARGOBus must be opened;
#X text 31 46 Warning;
#X text 21 15 Attention;
#X text 81 8 MM 16-ARGOBus doit être ouvert;
#X text 81 21 pour utiliser ce MiniModule.;
#X text 80 52 to use this MiniModule;
#X obj 100 151 cyclone/sprintf ARGOBus%d;
#X obj 100 174 cyclone/tosymbol;
#X obj 214 223 cnv 15 52 22 empty empty empty 20 12 0 14 -24198 -66577
0;
#N canvas 353 174 321 152 ?... 0;
#X obj 8 84 cnv 15 300 56 empty empty empty 20 12 0 14 -224896 -66577
0;
#X obj 8 7 cnv 18 300 70 empty empty ARGOPdMiniModules 3 10 1 14 -4033
-1 1.04858e+06;
#X obj 31 27 cnv 10 10 10 empty empty Gerard 0 5 1 11 -4033 -1 1.04858e+06
;
#X obj 69 27 cnv 10 10 10 empty empty Paresys 0 5 1 11 -4033 -1 1.04858e+06
;
#X obj 12 40 pddp/pddplink http://gerard.paresys.free.fr/ARGOPd/;
#X obj 13 121 pddp/pddplink http://puredata.info/downloads/pd-extended
;
#X obj 13 97 pddp/pddplink http://puredata.info/downloads/pure-data
;
#X text 13 85 Construit sous / Build under Pd-0.49...;
#X text 12 109 or Pd 0.43.4-extended;
#X obj 12 53 pddp/pddplink https://paresys.pagesperso-orange.fr/ARGOPd/
;
#X restore 217 226 pd ?...;
#X text 150 83 6 9 2019;
#X connect 1 0 6 0;
#X connect 3 0 4 0;
#X connect 4 0 13 0;
#X connect 5 0 6 0;
#X connect 13 0 14 0;
#X connect 14 0 5 0;
#X coords 0 -1 1 1 105 18 2 100 100;
#X restore 126 158 pd ARGO;
