#N canvas 96 65 1055 422 10;
#N canvas 521 157 348 442 MIDICtrlChange 0;
#X obj 101 101 cnv 10 125 36 empty ColorMIDI empty 5 28 1 14 -262103
-1 1.04858e+06;
#X obj 129 103 cnv 9 9 9 empty ColorMIDI Ch 0 5 1 9 -262103 -1 1.04858e+06
;
#X obj 184 103 cnv 10 20 10 empty ColorMIDI InNote 1 5 1 14 -262103
-1 1.04858e+06;
#X obj 123 113 nbx 2 11 1 16 0 1 \$0-A ColorMIDI empty 0 0 1 9 -262103
-1 -1 1 256;
#X obj 101 113 nbx 2 11 0 4 0 1 \$0-A ColorMIDI empty 0 0 1 9 -262103
-1 -1 1 256;
#X obj 124 -118 / 16;
#X obj 124 -97 int;
#X obj 123 -76 + 1;
#X obj 178 -147 - 1;
#X obj 207 -118 mod 16;
#X obj 207 -76 + 1;
#X obj 123 -55 == 1;
#X obj 207 -55 == 1;
#X obj 90 7 spigot;
#X obj 90 -26 spigot;
#X obj 105 103 cnv 9 9 9 empty ColorMIDI Port 0 5 1 9 -262103 -1 1.04858e+06
;
#X obj 112 127 nbx 3 11 0 128 0 1 \$0-A ColorMIDI empty 0 0 1 9 -262103
-1 -1 75 256;
#X obj 187 127 nbx 3 11 0 128 0 1 \$0-A ColorMIDI empty 0 0 1 9 -262103
-1 -1 0 256;
#X obj 143 128 cnv 9 9 9 empty ColorMIDI Pitch 0 5 1 9 -262103 -1 1.04858e+06
;
#X obj 173 128 cnv 9 9 9 empty ColorMIDI Vel 0 5 1 9 -262103 -1 1.04858e+06
;
#X obj 144 -171 notein;
#X obj 160 7 spigot;
#X obj 160 -26 spigot;
#X text 89 137 Pitch;
#X text 198 138 Velocity;
#X obj 145 112 tgl 12 1 \$0-A \$0-B NoteOff 14 6 1 9 -262103 -1 -1
0 1;
#X obj 91 76 spigot;
#X obj 124 53 > 0;
#X obj 139 31 +;
#X obj 45 13 cnv 15 41 30 empty empty empty 20 12 0 14 -24198 -66577
0;
#N canvas 350 196 381 103 ? 0;
#X obj 5 49 cnv 15 370 38 empty empty empty 20 12 0 14 -224896 -66577
0;
#X text 6 65 Voir/Look at: http://puredata.info/downloads;
#X obj 4 12 cnv 18 370 30 empty empty ARGOPdMiniModules 1 10 1 14 -4033
-1 1.04858e+06;
#X obj 7 31 cnv 10 10 10 empty empty Gerard 0 5 1 9 -4033 -1 1.04858e+06
;
#X obj 38 31 cnv 10 10 10 empty empty Paresys 0 5 1 9 -4033 -1 1.04858e+06
;
#X obj 175 20 cnv 10 10 10 empty empty http://pagesperso-orange.fr/Paresys/ARGOPd/
0 5 1 9 -4033 -1 1.04858e+06;
#X obj 175 31 cnv 10 10 10 empty empty http://gerard.paresys.free.fr/ARGOPd/
0 5 1 9 -4033 -1 1.04858e+06;
#X text 6 51 Construit sous / Build under Pd 0.41.4-extended;
#X restore 51 20 pd ?;
#X obj 94 176 / 240;
#X obj 94 199 sig~;
#X obj 94 220 outlet~;
#X obj 209 198 sig~;
#X obj 209 219 outlet~;
#X obj 94 155 - 60;
#X obj 209 175 / 128;
#X text 67 248 = 261.626 Hz;
#X text 5 235 C3 = Do3 = note MIDI 60 envoie un signal nul en sortie
;
#X obj 101 133 cnv 4 10 4 empty empty empty 20 12 0 14 -1 -66577 0
;
#X obj 216 133 cnv 4 10 4 empty empty empty 20 12 0 14 -1 -66577 0
;
#X text 230 126 <- 2 Audio OutPuts;
#X text 189 81 18 2 2010;
#X obj 22 -26 cnv 15 60 30 empty empty empty 20 12 0 14 -24198 -66577
0;
#N canvas 334 205 426 225 Help 0;
#X obj -75 44 cnv 15 400 100 empty empty empty 20 12 0 14 -233017 -66577
0;
#X text -72 43 Citation;
#X text -59 59 The [notein] object reads incoming MIDI notes and reports
their note number \, velocity and channel number.;
#X restore 29 -20 pd Help;
#X connect 3 0 12 1;
#X connect 4 0 11 1;
#X connect 5 0 6 0;
#X connect 6 0 7 0;
#X connect 7 0 11 0;
#X connect 8 0 5 0;
#X connect 8 0 9 0;
#X connect 9 0 10 0;
#X connect 10 0 12 0;
#X connect 11 0 14 1;
#X connect 11 0 22 1;
#X connect 12 0 13 1;
#X connect 12 0 21 1;
#X connect 13 0 26 0;
#X connect 14 0 13 0;
#X connect 16 0 36 0;
#X connect 17 0 37 0;
#X connect 20 0 14 0;
#X connect 20 1 22 0;
#X connect 20 2 8 0;
#X connect 21 0 17 0;
#X connect 21 0 28 0;
#X connect 22 0 21 0;
#X connect 25 0 28 1;
#X connect 26 0 16 0;
#X connect 27 0 26 1;
#X connect 28 0 27 0;
#X connect 31 0 32 0;
#X connect 32 0 33 0;
#X connect 34 0 35 0;
#X connect 36 0 31 0;
#X connect 37 0 34 0;
#X coords 0 -1 1 1 127 38 1 100 100;
#X restore 133 77 pd MIDICtrlChange;
#N canvas 393 87 245 384 MIDICtrlChange 0;
#X obj 101 101 cnv 10 125 36 empty ColorMIDI empty 5 28 1 14 -262103
-1 1.04858e+06;
#X obj 144 103 cnv 9 9 9 empty ColorMIDI Control 0 5 1 9 -262103 -1
1.04858e+06;
#X obj 143 128 cnv 9 9 9 empty ColorMIDI Value 0 5 1 9 -262103 -1 1.04858e+06
;
#X obj 128 103 cnv 9 9 9 empty ColorMIDI Ch 0 5 1 9 -262103 -1 1.04858e+06
;
#X obj 103 103 cnv 9 9 9 empty ColorMIDI Port 0 5 1 9 -262103 -1 1.04858e+06
;
#X obj 190 103 cnv 10 20 10 empty ColorMIDI InCtrl 1 5 1 14 -262103
-1 1.04858e+06;
#X obj 145 113 nbx 3 11 0 128 0 1 \$0-A ColorMIDI empty 0 0 1 9 -262103
-1 -1 1 256;
#X obj 112 127 nbx 3 11 0 128 0 1 \$0-A ColorMIDI empty 0 0 1 9 -262103
-1 -1 0 256;
#X obj 123 113 nbx 2 11 1 16 0 1 \$0-A ColorMIDI empty 0 0 1 9 -262103
-1 -1 1 256;
#X obj 101 113 nbx 2 11 0 4 0 1 \$0-A ColorMIDI empty 0 0 1 9 -262103
-1 -1 1 256;
#X obj 92 167 / 240;
#X obj 119 -72 / 16;
#X obj 119 -50 int;
#X obj 118 -29 + 1;
#X obj 146 -96 - 1;
#X obj 173 -72 mod 16;
#X obj 173 -29 + 1;
#X obj 119 -118 ctlin;
#X obj 92 146 - 64;
#X obj 85 73 spigot;
#X obj 156 38 == 1;
#X obj 118 -4 == 1;
#X obj 173 -4 == 1;
#X obj 85 48 spigot;
#X obj 85 21 spigot;
#X obj 92 235 outlet~;
#X obj 101 133 cnv 4 10 4 empty empty empty 20 12 0 14 -1 -66577 0
;
#X obj 34 14 cnv 15 41 30 empty empty empty 20 12 0 14 -24198 -66577
0;
#N canvas 350 196 381 103 ? 0;
#X obj 5 49 cnv 15 370 38 empty empty empty 20 12 0 14 -224896 -66577
0;
#X text 6 65 Voir/Look at: http://puredata.info/downloads;
#X obj 4 12 cnv 18 370 30 empty empty ARGOPdMiniModules 1 10 1 14 -4033
-1 1.04858e+06;
#X obj 7 31 cnv 10 10 10 empty empty Gerard 0 5 1 9 -4033 -1 1.04858e+06
;
#X obj 38 31 cnv 10 10 10 empty empty Paresys 0 5 1 9 -4033 -1 1.04858e+06
;
#X obj 175 20 cnv 10 10 10 empty empty http://pagesperso-orange.fr/Paresys/ARGOPd/
0 5 1 9 -4033 -1 1.04858e+06;
#X obj 175 31 cnv 10 10 10 empty empty http://gerard.paresys.free.fr/ARGOPd/
0 5 1 9 -4033 -1 1.04858e+06;
#X text 6 51 Construit sous / Build under Pd 0.41.4-extended;
#X restore 40 21 pd ?;
#X text 4 126 Audio OutPut ->;
#X obj 92 212 line~;
#X msg 91 190 \$1 10;
#X text 182 84 16 2 2010;
#X obj 175 115 cnv 10 20 10 empty ColorMIDI Change 1 5 1 14 -262103
-1 1.04858e+06;
#X connect 6 0 20 1;
#X connect 7 0 18 0;
#X connect 8 0 22 1;
#X connect 9 0 21 1;
#X connect 10 0 31 0;
#X connect 11 0 12 0;
#X connect 12 0 13 0;
#X connect 13 0 21 0;
#X connect 14 0 11 0;
#X connect 14 0 15 0;
#X connect 15 0 16 0;
#X connect 16 0 22 0;
#X connect 17 0 24 0;
#X connect 17 1 20 0;
#X connect 17 2 14 0;
#X connect 18 0 10 0;
#X connect 19 0 7 0;
#X connect 20 0 19 1;
#X connect 21 0 24 1;
#X connect 22 0 23 1;
#X connect 23 0 19 0;
#X connect 24 0 23 0;
#X connect 30 0 25 0;
#X connect 31 0 30 0;
#X coords 0 -1 1 1 127 38 1 100 100;
#X restore 264 77 pd MIDICtrlChange;
#N canvas 393 87 256 376 MIDICtrlChange 0;
#X obj 101 101 cnv 10 125 36 empty ColorMIDI empty 5 28 1 14 -262103
-1 1.04858e+06;
#X obj 144 103 cnv 9 9 9 empty ColorMIDI Control 0 5 1 9 -262103 -1
1.04858e+06;
#X obj 143 128 cnv 9 9 9 empty ColorMIDI Value 0 5 1 9 -262103 -1 1.04858e+06
;
#X obj 128 103 cnv 9 9 9 empty ColorMIDI Ch 0 5 1 9 -262103 -1 1.04858e+06
;
#X obj 103 103 cnv 9 9 9 empty ColorMIDI Port 0 5 1 9 -262103 -1 1.04858e+06
;
#X obj 178 103 cnv 10 20 10 empty ColorMIDI InBend 1 5 1 14 -262103
-1 1.04858e+06;
#X obj 112 127 nbx 3 11 0 128 0 1 \$0-A ColorMIDI empty 0 0 1 9 -262103
-1 -1 64 256;
#X obj 122 112 nbx 2 11 1 16 0 1 \$0-A ColorMIDI empty 0 0 1 9 -262103
-1 -1 1 256;
#X obj 100 112 nbx 2 11 0 4 0 1 \$0-A ColorMIDI empty 0 0 1 9 -262103
-1 -1 3 256;
#X obj 92 167 / 240;
#X obj 119 -72 / 16;
#X obj 119 -50 int;
#X obj 118 -29 + 1;
#X obj 146 -96 - 1;
#X obj 173 -72 mod 16;
#X obj 173 -29 + 1;
#X obj 92 146 - 64;
#X obj 118 -4 == 1;
#X obj 173 -4 == 1;
#X obj 85 48 spigot;
#X obj 85 21 spigot;
#X obj 94 236 outlet~;
#X obj 101 133 cnv 4 10 4 empty empty empty 20 12 0 14 -1 -66577 0
;
#X obj 34 14 cnv 15 41 30 empty empty empty 20 12 0 14 -24198 -66577
0;
#N canvas 350 196 381 103 ? 0;
#X obj 5 49 cnv 15 370 38 empty empty empty 20 12 0 14 -224896 -66577
0;
#X text 6 65 Voir/Look at: http://puredata.info/downloads;
#X obj 4 12 cnv 18 370 30 empty empty ARGOPdMiniModules 1 10 1 14 -4033
-1 1.04858e+06;
#X obj 7 31 cnv 10 10 10 empty empty Gerard 0 5 1 9 -4033 -1 1.04858e+06
;
#X obj 38 31 cnv 10 10 10 empty empty Paresys 0 5 1 9 -4033 -1 1.04858e+06
;
#X obj 175 20 cnv 10 10 10 empty empty http://pagesperso-orange.fr/Paresys/ARGOPd/
0 5 1 9 -4033 -1 1.04858e+06;
#X obj 175 31 cnv 10 10 10 empty empty http://gerard.paresys.free.fr/ARGOPd/
0 5 1 9 -4033 -1 1.04858e+06;
#X text 6 51 Construit sous / Build under Pd 0.41.4-extended;
#X restore 40 21 pd ?;
#X text 4 126 Audio OutPut ->;
#X obj 119 -118 bendin;
#X obj 85 74 / 128;
#X obj 93 212 line~;
#X msg 92 190 \$1 10;
#X obj 26 -32 cnv 15 60 30 empty empty empty 20 12 0 14 -24198 -66577
0;
#N canvas 334 205 426 225 Help 0;
#X obj 4 73 cnv 15 400 100 empty empty empty 20 12 0 14 -233017 -66577
0;
#X text 7 72 Citation;
#X text 17 153 ... ad nauseam.;
#X text 17 87 The [bendin] object reads incoming pitch bend values
and reports them. If started with no arguments it reports the channel
number through the right outlet.;
#X text 17 130 Output (int) is a 14-bit pitchbend value;
#X restore 33 -26 pd Help;
#X text 182 84 17 2 2010;
#X connect 6 0 16 0;
#X connect 7 0 18 1;
#X connect 8 0 17 1;
#X connect 9 0 29 0;
#X connect 10 0 11 0;
#X connect 11 0 12 0;
#X connect 12 0 17 0;
#X connect 13 0 10 0;
#X connect 13 0 14 0;
#X connect 14 0 15 0;
#X connect 15 0 18 0;
#X connect 16 0 9 0;
#X connect 17 0 20 1;
#X connect 18 0 19 1;
#X connect 19 0 27 0;
#X connect 20 0 19 0;
#X connect 26 0 20 0;
#X connect 26 1 13 0;
#X connect 27 0 6 0;
#X connect 28 0 21 0;
#X connect 29 0 28 0;
#X coords 0 -1 1 1 127 38 1 100 100;
#X restore 395 77 pd MIDICtrlChange;
#N canvas 213 111 607 258 MIDICtrlChange 0;
#X obj 101 101 cnv 10 346 57 empty ColorMIDI empty 5 28 1 14 -262103
-1 1.04858e+06;
#X obj 245 105 cnv 9 9 9 empty ColorMIDI Ch 0 5 1 9 -262103 -1 1.04858e+06
;
#X obj 104 105 cnv 10 20 10 empty ColorMIDI Korg-nanoPAD 1 5 1 14 -262103
-1 1.04858e+06;
#X obj 239 115 nbx 2 11 1 16 0 1 \$0-A ColorMIDI empty 0 0 1 9 -262103
-1 -1 1 256;
#X obj 217 115 nbx 2 11 0 4 0 1 \$0-A ColorMIDI empty 0 0 1 9 -262103
-1 -1 1 256;
#X obj 221 105 cnv 9 9 9 empty ColorMIDI Port 0 5 1 9 -262103 -1 1.04858e+06
;
#X obj 150 -52 notein;
#X obj 261 114 tgl 12 1 \$0-A \$0-B NoteOff 14 6 1 9 -262103 -1 -1
0 1;
#X obj 18 -23 cnv 15 41 30 empty empty empty 20 12 0 14 -24198 -66577
0;
#N canvas 350 196 381 103 ? 0;
#X obj 5 49 cnv 15 370 38 empty empty empty 20 12 0 14 -224896 -66577
0;
#X text 6 65 Voir/Look at: http://puredata.info/downloads;
#X obj 4 12 cnv 18 370 30 empty empty ARGOPdMiniModules 1 10 1 14 -4033
-1 1.04858e+06;
#X obj 7 31 cnv 10 10 10 empty empty Gerard 0 5 1 9 -4033 -1 1.04858e+06
;
#X obj 38 31 cnv 10 10 10 empty empty Paresys 0 5 1 9 -4033 -1 1.04858e+06
;
#X obj 175 20 cnv 10 10 10 empty empty http://pagesperso-orange.fr/Paresys/ARGOPd/
0 5 1 9 -4033 -1 1.04858e+06;
#X obj 175 31 cnv 10 10 10 empty empty http://gerard.paresys.free.fr/ARGOPd/
0 5 1 9 -4033 -1 1.04858e+06;
#X text 6 51 Construit sous / Build under Pd 0.41.4-extended;
#X restore 24 -16 pd ?;
#X text 451 132 18 2 2010;
#X obj 71 -23 cnv 15 60 30 empty empty empty 20 12 0 14 -24198 -66577
0;
#N canvas 352 194 423 187 Help 0;
#X obj -66 48 cnv 15 400 100 empty empty empty 20 12 0 14 -233017 -66577
0;
#X text -63 47 Citation;
#X text -50 63 The [notein] object reads incoming MIDI notes and reports
their note number \, velocity and channel number.;
#X text -25 18 http://www.korg.com/product.aspx?pd=415;
#X text -51 3 Korg-nanoPAD;
#X restore 78 -17 pd Help;
#X obj 389 123 bng 16 250 50 0 empty empty 10 3 9 1 9 -257985 -260097
-1;
#X obj 409 123 bng 16 250 50 0 empty empty 11 3 9 1 9 -257985 -260097
-1;
#X obj 429 123 bng 16 250 50 0 empty empty 12 3 9 1 9 -257985 -260097
-1;
#X obj 369 103 bng 16 250 50 0 empty empty 3 6 9 1 9 -257985 -260097
-1;
#X obj 349 103 bng 16 250 50 0 empty empty 2 6 9 1 9 -257985 -260097
-1;
#X obj 329 103 bng 16 250 50 0 empty empty 1 6 9 1 9 -257985 -260097
-1;
#X obj 429 103 bng 16 250 50 0 empty empty 6 6 9 1 9 -257985 -260097
-1;
#X obj 409 103 bng 16 250 50 0 empty empty 5 6 9 1 9 -257985 -260097
-1;
#X obj 389 103 bng 16 250 50 0 empty empty 4 6 9 1 9 -257985 -260097
-1;
#X obj 349 123 bng 16 250 50 0 empty empty 8 6 9 1 9 -257985 -260097
-1;
#X obj 329 123 bng 16 250 50 0 empty empty 7 6 9 1 9 -257985 -260097
-1;
#X obj 369 123 bng 16 250 50 0 empty empty 9 6 9 1 9 -257985 -260097
-1;
#X obj 100 142 nbx 3 11 0 127 0 1 \$0-A ColorMIDI empty 0 0 1 9 -260097
-1 -1 127 256;
#X obj 101 154 cnv 4 10 4 empty empty empty 20 12 0 14 -260097 -66577
0;
#X obj 82 181 outlet;
#X obj 129 142 nbx 3 11 0 127 0 1 \$0-A ColorMIDI empty 0 0 1 9 -260097
-1 -1 77 256;
#X obj 130 154 cnv 4 10 4 empty empty empty 20 12 0 14 -260097 -66577
0;
#X obj 114 181 outlet;
#X obj 158 142 nbx 3 11 0 127 0 1 \$0-A ColorMIDI empty 0 0 1 9 -260097
-1 -1 62 256;
#X obj 161 154 cnv 4 10 4 empty empty empty 20 12 0 14 -260097 -66577
0;
#X obj 146 181 outlet;
#X obj 187 142 nbx 3 11 0 127 0 1 \$0-A ColorMIDI empty 0 0 1 9 -260097
-1 -1 75 256;
#X obj 192 154 cnv 4 10 4 empty empty empty 20 12 0 14 -260097 -66577
0;
#X obj 178 181 outlet;
#X obj 216 142 nbx 3 11 0 127 0 1 \$0-A ColorMIDI empty 0 0 1 9 -260097
-1 -1 69 256;
#X obj 223 154 cnv 4 10 4 empty empty empty 20 12 0 14 -260097 -66577
0;
#X obj 210 181 outlet;
#X obj 245 142 nbx 3 11 0 127 0 1 \$0-A ColorMIDI empty 0 0 1 9 -260097
-1 -1 74 256;
#X obj 253 154 cnv 4 10 4 empty empty empty 20 12 0 14 -260097 -66577
0;
#X obj 242 181 outlet;
#X obj 274 142 nbx 3 11 0 127 0 1 \$0-A ColorMIDI empty 0 0 1 9 -260097
-1 -1 55 256;
#X obj 285 154 cnv 4 10 4 empty empty empty 20 12 0 14 -260097 -66577
0;
#X obj 274 181 outlet;
#X obj 303 142 nbx 3 11 0 127 0 1 \$0-A ColorMIDI empty 0 0 1 9 -260097
-1 -1 119 256;
#X obj 315 154 cnv 4 10 4 empty empty empty 20 12 0 14 -260097 -66577
0;
#X obj 306 181 outlet;
#X obj 332 142 nbx 3 11 0 127 0 1 \$0-A ColorMIDI empty 0 0 1 9 -260097
-1 -1 98 256;
#X obj 346 154 cnv 4 10 4 empty empty empty 20 12 0 14 -260097 -66577
0;
#X obj 337 181 outlet;
#X obj 361 142 nbx 3 11 0 127 0 1 \$0-A ColorMIDI empty 0 0 1 9 -260097
-1 -1 50 256;
#X obj 377 154 cnv 4 10 4 empty empty empty 20 12 0 14 -260097 -66577
0;
#X obj 369 181 outlet;
#X obj 390 142 nbx 3 11 0 127 0 1 \$0-A ColorMIDI empty 0 0 1 9 -260097
-1 -1 71 256;
#X obj 408 154 cnv 4 10 4 empty empty empty 20 12 0 14 -260097 -66577
0;
#X obj 401 181 outlet;
#X obj 419 142 nbx 3 11 0 127 0 1 \$0-A ColorMIDI empty 0 0 1 9 -260097
-1 -1 92 256;
#X obj 437 154 cnv 4 10 4 empty empty empty 20 12 0 14 -260097 -66577
0;
#X obj 433 181 outlet;
#X obj 6 42 t b a;
#X msg 33 65 set \$1;
#X obj 156 1 route 39 48 45 43 51 49 36 38 40 42 44 46;
#X obj 54 41 t b a;
#X msg 81 64 set \$1;
#X obj 101 41 t b a;
#X msg 128 64 set \$1;
#X obj 149 40 t b a;
#X msg 176 63 set \$1;
#X obj 195 40 t b a;
#X msg 222 63 set \$1;
#X obj 243 39 t b a;
#X msg 270 62 set \$1;
#X obj 290 39 t b a;
#X msg 317 62 set \$1;
#X obj 338 38 t b a;
#X msg 365 61 set \$1;
#X obj 386 37 t b a;
#X msg 413 60 set \$1;
#X obj 434 36 t b a;
#X msg 461 59 set \$1;
#X obj 481 36 t b a;
#X msg 508 59 set \$1;
#X obj 529 35 t b a;
#X msg 556 58 set \$1;
#X text 433 161 <- 0..127;
#N canvas 740 76 377 416 MIDIGate 0;
#X obj 66 -28 / 16;
#X obj 66 -7 int;
#X obj 65 14 + 1;
#X obj 164 -64 - 1;
#X obj 162 -28 mod 16;
#X obj 162 14 + 1;
#X obj 65 35 == 1;
#X obj 161 63 == 1;
#X obj 33 98 spigot;
#X obj 32 64 spigot;
#X obj 103 95 spigot;
#X obj 102 64 spigot;
#X obj 33 -89 inlet;
#X obj 106 -90 inlet;
#X obj 163 -89 inlet;
#X obj 214 -90 inlet;
#X obj 271 -89 inlet;
#X obj 316 -88 inlet;
#X obj 34 184 spigot;
#X obj 67 161 > 0;
#X obj 131 129 +;
#X obj 60 209 pack 1 2;
#X obj 60 239 outlet;
#X connect 0 0 1 0;
#X connect 1 0 2 0;
#X connect 2 0 6 0;
#X connect 3 0 0 0;
#X connect 3 0 4 0;
#X connect 4 0 5 0;
#X connect 5 0 7 0;
#X connect 6 0 9 1;
#X connect 6 0 11 1;
#X connect 7 0 8 1;
#X connect 7 0 10 1;
#X connect 8 0 18 0;
#X connect 9 0 8 0;
#X connect 10 0 20 0;
#X connect 10 0 21 1;
#X connect 11 0 10 0;
#X connect 12 0 9 0;
#X connect 13 0 11 0;
#X connect 14 0 3 0;
#X connect 15 0 6 1;
#X connect 16 0 7 1;
#X connect 17 0 20 1;
#X connect 18 0 21 0;
#X connect 19 0 18 1;
#X connect 20 0 19 0;
#X connect 21 0 22 0;
#X restore 156 -24 pd MIDIGate;
#X connect 3 0 87 4;
#X connect 4 0 87 3;
#X connect 6 0 87 0;
#X connect 6 1 87 1;
#X connect 6 2 87 2;
#X connect 7 0 87 5;
#X connect 13 0 52 0;
#X connect 14 0 55 0;
#X connect 15 0 58 0;
#X connect 16 0 31 0;
#X connect 17 0 28 0;
#X connect 18 0 25 0;
#X connect 19 0 40 0;
#X connect 20 0 37 0;
#X connect 21 0 34 0;
#X connect 22 0 46 0;
#X connect 23 0 43 0;
#X connect 24 0 49 0;
#X connect 25 0 27 0;
#X connect 28 0 30 0;
#X connect 31 0 33 0;
#X connect 34 0 36 0;
#X connect 37 0 39 0;
#X connect 40 0 42 0;
#X connect 43 0 45 0;
#X connect 46 0 48 0;
#X connect 49 0 51 0;
#X connect 52 0 54 0;
#X connect 55 0 57 0;
#X connect 58 0 60 0;
#X connect 61 0 18 0;
#X connect 61 1 62 0;
#X connect 62 0 25 0;
#X connect 63 0 61 0;
#X connect 63 1 64 0;
#X connect 63 2 66 0;
#X connect 63 3 68 0;
#X connect 63 4 70 0;
#X connect 63 5 72 0;
#X connect 63 6 74 0;
#X connect 63 7 76 0;
#X connect 63 8 78 0;
#X connect 63 9 80 0;
#X connect 63 10 82 0;
#X connect 63 11 84 0;
#X connect 64 0 17 0;
#X connect 64 1 65 0;
#X connect 65 0 28 0;
#X connect 66 0 16 0;
#X connect 66 1 67 0;
#X connect 67 0 31 0;
#X connect 68 0 21 0;
#X connect 68 1 69 0;
#X connect 69 0 34 0;
#X connect 70 0 20 0;
#X connect 70 1 71 0;
#X connect 71 0 37 0;
#X connect 72 0 19 0;
#X connect 72 1 73 0;
#X connect 73 0 40 0;
#X connect 74 0 23 0;
#X connect 74 1 75 0;
#X connect 75 0 43 0;
#X connect 76 0 22 0;
#X connect 76 1 77 0;
#X connect 77 0 46 0;
#X connect 78 0 24 0;
#X connect 78 1 79 0;
#X connect 79 0 49 0;
#X connect 80 0 13 0;
#X connect 80 1 81 0;
#X connect 81 0 52 0;
#X connect 82 0 14 0;
#X connect 82 1 83 0;
#X connect 83 0 55 0;
#X connect 84 0 15 0;
#X connect 84 1 85 0;
#X connect 85 0 58 0;
#X connect 87 0 63 0;
#X coords 0 -1 1 1 348 59 1 100 100;
#X restore 133 163 pd MIDICtrlChange;
#X obj 526 41 cnv 2 2 290 empty empty empty 20 12 0 14 -1 -66577 0
;
#X obj 130 238 cnv 2 810 2 empty empty empty 20 12 0 14 -1 -66577 0
;
#N canvas 68 135 587 267 MIDI 0;
#X obj 101 201 cnv 10 105 36 empty ColorMIDI Note. 40 7 1 14 -262103
-1 1.04858e+06;
#X obj 6 82 / 16;
#X obj 6 107 int;
#X obj 5 128 + 1;
#X obj 95 50 - 1;
#X obj 112 82 mod 16;
#X obj 112 128 + 1;
#X obj 130 214 cnv 9 9 9 empty ColorMIDI Ch 0 5 1 9 -262103 -1 1.04858e+06
;
#X obj 104 214 cnv 9 9 9 empty ColorMIDI Port 0 5 1 9 -262103 -1 1.04858e+06
;
#X obj 174 11 notein;
#X obj 163 214 cnv 9 9 9 empty ColorMIDI Pitch 0 5 1 9 -262103 -1 1.04858e+06
;
#X obj 189 214 cnv 9 9 9 empty ColorMIDI Vel 0 5 1 9 -262103 -1 1.04858e+06
;
#X obj 103 223 hsl 18 15 0 127 0 0 \$0-A \$0-B 1 0 8 1 10 -262103 -262103
-1 0 1;
#X msg 5 172 label \$1;
#X obj 126 223 hsl 18 15 0 127 0 0 \$0-A \$0-B 1 0 8 1 10 -262103 -262103
-1 0 1;
#X msg 112 172 label \$1;
#X obj 164 223 hsl 18 15 0 127 0 0 \$0-A \$0-B 75 0 8 1 10 -262103
-262103 -1 0 1;
#X msg 348 172 label \$1;
#X obj 187 223 hsl 18 15 0 127 0 0 \$0-A \$0-B 0 0 8 1 10 -262103 -262103
-1 0 1;
#X msg 455 172 label \$1;
#X obj 218 150 cyclone/speedlim 100;
#X obj 146 223 bng 15 50 50 0 \$0-A \$0-B empty 6 9 0 9 -257985 -260097
-1;
#X obj 403 37 cnv 15 60 30 empty empty empty 20 12 0 14 -24198 -66577
0;
#N canvas 334 205 546 168 Help 0;
#X obj 12 13 cnv 15 400 100 empty empty empty 20 12 0 14 -233017 -66577
0;
#X text 15 12 Citation;
#X obj 9 137 pddp/pddplink http://madamebutterface.com/assets/documents/MIDI%201.0%20Detailed%20Specification.pdf
;
#X text 11 122 MIDI 1 Detailed Specification v4.2.pdf;
#X text 25 55 The [notein] object reads incoming MIDI notes and reports
their note number \, velocity and channel number. Without the argument
it reads from all MIDI channels (omni).;
#X text 26 31 - read incoming stream of MIDI notes.;
#X restore 410 43 pd Help;
#X obj 5 150 cyclone/tosymbol;
#X obj 348 150 cyclone/tosymbol;
#X obj 112 150 cyclone/tosymbol;
#X obj 455 150 cyclone/tosymbol;
#X obj 496 211 cnv 15 52 22 empty empty empty 20 12 0 14 -24198 -66577
0;
#N canvas 353 174 321 152 ?... 0;
#X obj 8 84 cnv 15 300 56 empty empty empty 20 12 0 14 -224896 -66577
0;
#X obj 8 7 cnv 18 300 70 empty empty ARGOPdMiniModules 3 10 1 14 -4033
-1 1.04858e+06;
#X obj 31 27 cnv 10 10 10 empty empty Gerard 0 5 1 11 -4033 -1 1.04858e+06
;
#X obj 69 27 cnv 10 10 10 empty empty Paresys 0 5 1 11 -4033 -1 1.04858e+06
;
#X obj 12 40 pddp/pddplink http://gerard.paresys.free.fr/ARGOPd/;
#X obj 13 121 pddp/pddplink http://puredata.info/downloads/pd-extended
;
#X obj 13 97 pddp/pddplink http://puredata.info/downloads/pure-data
;
#X text 13 85 Construit sous / Build under Pd-0.49...;
#X text 12 109 or Pd 0.43.4-extended;
#X obj 12 53 pddp/pddplink https://paresys.pagesperso-orange.fr/ARGOPd/
;
#X restore 499 214 pd ?...;
#X text 196 185 22 8 2019;
#X connect 1 0 2 0;
#X connect 2 0 3 0;
#X connect 3 0 24 0;
#X connect 4 0 1 0;
#X connect 4 0 5 0;
#X connect 5 0 6 0;
#X connect 6 0 26 0;
#X connect 9 0 20 0;
#X connect 9 0 25 0;
#X connect 9 1 27 0;
#X connect 9 2 4 0;
#X connect 13 0 12 0;
#X connect 15 0 14 0;
#X connect 17 0 16 0;
#X connect 19 0 18 0;
#X connect 20 0 21 0;
#X connect 24 0 13 0;
#X connect 25 0 17 0;
#X connect 26 0 15 0;
#X connect 27 0 19 0;
#X coords 0 -1 1 1 107 38 1 100 200;
#X restore 143 31 pd MIDI;
#N canvas 200 138 589 280 MIDI 0;
#X obj 101 201 cnv 10 105 36 empty ColorMIDI ControlChange. 4 7 1 14
-262103 -1 1.04858e+06;
#X obj 144 5 ctlin;
#X obj 166 214 cnv 9 9 9 empty ColorMIDI Ctrl 0 5 1 9 -262103 -1 1.04858e+06
;
#X obj 191 217 cnv 2 9 9 empty ColorMIDI Val 0 2 1 9 -262103 -1 1.04858e+06
;
#X obj 130 214 cnv 9 9 9 empty ColorMIDI Ch 0 5 1 9 -262103 -1 1.04858e+06
;
#X obj 103 214 cnv 9 9 9 empty ColorMIDI Port 0 5 1 9 -262103 -1 1.04858e+06
;
#X obj 9 74 / 16;
#X obj 9 99 int;
#X obj 8 120 + 1;
#X obj 65 45 - 1;
#X obj 114 74 mod 16;
#X obj 114 120 + 1;
#X obj 103 223 hsl 18 15 0 127 0 0 \$0-A \$0-B 1 0 8 1 10 -262103 -262103
-1 0 1;
#X msg 8 164 label \$1;
#X obj 126 223 hsl 18 15 0 127 0 0 \$0-A \$0-B 1 0 8 1 10 -262103 -262103
-1 0 1;
#X msg 114 164 label \$1;
#X obj 164 223 hsl 18 15 0 127 0 0 \$0-A \$0-B 1 0 8 1 10 -262103 -262103
-1 0 1;
#X msg 347 164 label \$1;
#X obj 187 223 hsl 18 15 0 127 0 0 \$0-A \$0-B 0 0 8 1 10 -262103 -262103
-1 0 1;
#X msg 452 164 label \$1;
#X obj 218 142 cyclone/speedlim 100;
#X obj 146 223 bng 15 50 50 0 \$0-A \$0-B empty 6 9 0 9 -257985 -260097
-1;
#X obj 440 33 cnv 15 60 30 empty empty empty 20 12 0 14 -24198 -66577
0;
#N canvas 334 205 545 172 Help 0;
#X obj 12 13 cnv 15 400 100 empty empty empty 20 12 0 14 -233017 -66577
0;
#X text 15 12 Citation;
#X obj 9 137 pddp/pddplink http://madamebutterface.com/assets/documents/MIDI%201.0%20Detailed%20Specification.pdf
;
#X text 21 42 The [ctlin] object reads control change messages directly
from the MIDI port. See a MIDI-specification chart near you for control
change message numbers and their meannings (MIDI implementation documents
are freely available on the internet in c=various forms).;
#X text 21 26 - read incoming Control Change messages;
#X text 11 122 MIDI 1 Detailed Specification v4.2.pdf;
#X restore 447 39 pd Help;
#X obj 452 142 cyclone/tosymbol;
#X obj 347 142 cyclone/tosymbol;
#X obj 114 142 cyclone/tosymbol;
#X obj 8 142 cyclone/tosymbol;
#X obj 485 221 cnv 15 52 22 empty empty empty 20 12 0 14 -24198 -66577
0;
#N canvas 353 174 321 152 ?... 0;
#X obj 8 84 cnv 15 300 56 empty empty empty 20 12 0 14 -224896 -66577
0;
#X obj 8 7 cnv 18 300 70 empty empty ARGOPdMiniModules 3 10 1 14 -4033
-1 1.04858e+06;
#X obj 31 27 cnv 10 10 10 empty empty Gerard 0 5 1 11 -4033 -1 1.04858e+06
;
#X obj 69 27 cnv 10 10 10 empty empty Paresys 0 5 1 11 -4033 -1 1.04858e+06
;
#X obj 12 40 pddp/pddplink http://gerard.paresys.free.fr/ARGOPd/;
#X obj 13 121 pddp/pddplink http://puredata.info/downloads/pd-extended
;
#X obj 13 97 pddp/pddplink http://puredata.info/downloads/pure-data
;
#X text 13 85 Construit sous / Build under Pd-0.49...;
#X text 12 109 or Pd 0.43.4-extended;
#X obj 12 53 pddp/pddplink https://paresys.pagesperso-orange.fr/ARGOPd/
;
#X restore 488 224 pd ?...;
#X text 198 184 22 8 2019;
#X connect 1 0 20 0;
#X connect 1 0 24 0;
#X connect 1 1 25 0;
#X connect 1 2 9 0;
#X connect 6 0 7 0;
#X connect 7 0 8 0;
#X connect 8 0 27 0;
#X connect 9 0 6 0;
#X connect 9 0 10 0;
#X connect 10 0 11 0;
#X connect 11 0 26 0;
#X connect 13 0 12 0;
#X connect 15 0 14 0;
#X connect 17 0 16 0;
#X connect 19 0 18 0;
#X connect 20 0 21 0;
#X connect 24 0 19 0;
#X connect 25 0 17 0;
#X connect 26 0 15 0;
#X connect 27 0 13 0;
#X coords 0 -1 1 1 107 38 1 100 200;
#X restore 275 31 pd MIDI;
#N canvas 403 134 477 250 MIDI 0;
#X obj 101 201 cnv 10 105 36 empty ColorMIDI PitchBend. 25 7 1 14 -262103
-1 1.04858e+06;
#X obj 138 214 cnv 9 9 9 empty ColorMIDI Ch 0 5 1 9 -262103 -1 1.04858e+06
;
#X obj 113 214 cnv 9 9 9 empty ColorMIDI Port 0 5 1 9 -262103 -1 1.04858e+06
;
#X obj 145 9 bendin;
#X obj 362 121 / 128;
#X obj 387 39 cnv 15 60 30 empty empty empty 20 12 0 14 -24198 -66577
0;
#N canvas 334 205 545 172 Help 0;
#X obj 12 13 cnv 15 400 100 empty empty empty 20 12 0 14 -233017 -66577
0;
#X text 15 12 Citation;
#X text 25 93 ... ad nauseam.;
#X text 25 27 The [bendin] object reads incoming pitch bend values
and reports them. If started with no arguments it reports the channel
number through the right outlet.;
#X text 25 70 Output (int) is a 14-bit pitchbend value;
#X obj 9 137 pddp/pddplink http://madamebutterface.com/assets/documents/MIDI%201.0%20Detailed%20Specification.pdf
;
#X text 11 122 MIDI 1 Detailed Specification v4.2.pdf;
#X restore 394 45 pd Help;
#X obj 190 217 cnv 2 9 9 empty ColorMIDI Val 0 2 1 9 -262103 -1 1.04858e+06
;
#X obj 23 77 / 16;
#X obj 23 102 int;
#X obj 22 123 + 1;
#X obj 87 46 - 1;
#X obj 127 77 mod 16;
#X obj 127 123 + 1;
#X obj 103 223 hsl 18 15 0 127 0 0 \$0-A \$0-B 1 0 8 1 10 -262103 -262103
-1 0 1;
#X msg 22 167 label \$1;
#X obj 126 223 hsl 18 15 0 127 0 0 \$0-A \$0-B 5 0 8 1 10 -262103 -262103
-1 0 1;
#X msg 127 167 label \$1;
#X obj 187 223 hsl 18 15 0 127 0 0 \$0-A \$0-B 81 0 8 1 10 -262103
-262103 -1 0 1;
#X msg 362 167 label \$1;
#X obj 232 145 cyclone/speedlim 100;
#X obj 146 223 bng 15 50 50 0 \$0-A \$0-B empty 6 9 0 9 -257985 -260097
-1;
#X obj 362 145 cyclone/tosymbol;
#X obj 127 145 cyclone/tosymbol;
#X obj 22 145 cyclone/tosymbol;
#X obj 347 215 cnv 15 52 22 empty empty empty 20 12 0 14 -24198 -66577
0;
#N canvas 353 174 321 152 ?... 0;
#X obj 8 84 cnv 15 300 56 empty empty empty 20 12 0 14 -224896 -66577
0;
#X obj 8 7 cnv 18 300 70 empty empty ARGOPdMiniModules 3 10 1 14 -4033
-1 1.04858e+06;
#X obj 31 27 cnv 10 10 10 empty empty Gerard 0 5 1 11 -4033 -1 1.04858e+06
;
#X obj 69 27 cnv 10 10 10 empty empty Paresys 0 5 1 11 -4033 -1 1.04858e+06
;
#X obj 12 40 pddp/pddplink http://gerard.paresys.free.fr/ARGOPd/;
#X obj 13 121 pddp/pddplink http://puredata.info/downloads/pd-extended
;
#X obj 13 97 pddp/pddplink http://puredata.info/downloads/pure-data
;
#X text 13 85 Construit sous / Build under Pd-0.49...;
#X text 12 109 or Pd 0.43.4-extended;
#X obj 12 53 pddp/pddplink https://paresys.pagesperso-orange.fr/ARGOPd/
;
#X restore 350 218 pd ?...;
#X text 177 183 22 8 2019;
#X connect 3 0 4 0;
#X connect 3 0 20 0;
#X connect 3 1 11 0;
#X connect 4 0 22 0;
#X connect 8 0 9 0;
#X connect 9 0 10 0;
#X connect 10 0 24 0;
#X connect 11 0 8 0;
#X connect 11 0 12 0;
#X connect 12 0 13 0;
#X connect 13 0 23 0;
#X connect 15 0 14 0;
#X connect 17 0 16 0;
#X connect 19 0 18 0;
#X connect 20 0 21 0;
#X connect 22 0 19 0;
#X connect 23 0 17 0;
#X connect 24 0 15 0;
#X coords 0 -1 1 1 107 38 1 100 200;
#X restore 406 31 pd MIDI;
#N canvas 435 86 446 184 MIDI 0;
#X text 97 144 MIDI;
#X obj 385 131 cnv 15 48 25 empty empty empty 20 12 0 14 -24198 -66577
0;
#N canvas 350 196 308 136 ??? 0;
#X obj -6 87 cnv 15 300 38 empty empty empty 20 12 0 14 -224896 -66577
0;
#X obj -6 10 cnv 18 300 70 empty empty ARGOPdMiniModules 3 10 1 14
-4033 -1 1.04858e+06;
#X obj 13 31 cnv 10 10 10 empty empty Gerard 0 5 1 11 -4033 -1 1.04858e+06
;
#X obj 55 30 cnv 10 10 10 empty empty Paresys 0 5 1 11 -4033 -1 1.04858e+06
;
#X text -1 89 Construit sous / Build under Pd 0.42.5-extended;
#X obj 6 43 pddp/pddplink http://pagesperso-orange.fr/Paresys/ARGOPd/
;
#X obj 6 58 pddp/pddplink http://gerard.paresys.free.fr/ARGOPd/;
#X obj 46 105 pddp/pddplink http://puredata.info/downloads;
#X restore 389 135 pd ???;
#X obj 131 75 cyclone/speedlim 100;
#X obj 101 101 cnv 5 125 15 empty ColorMIDI In 100 9 1 14 -262103 -1
1.04858e+06;
#X obj 131 103 bng 12 50 50 0 \$0-A \$0-B empty 6 9 0 9 -257985 -260097
-1;
#X obj 100 105 tgl 12 1 \$0-A \$0-B On 14 7 1 9 -257985 -1 -1 0 1;
#X obj 101 112 cnv 4 10 4 empty empty empty 20 12 0 14 -260097 -66577
0;
#X obj 91 46 spigot;
#X obj 91 19 midiin;
#X obj 91 127 outlet;
#X text 9 22 MM MIDI-In;
#X text 168 138 Object midiout;
#X text 133 126 -> To MM-MIDI-Out;
#X obj 139 -19 cnv 15 300 85 empty empty empty 20 12 0 14 -258113 -66577
0;
#X text 172 0 - Pd-0.42.5-extended + MacOS;
#X text 172 47 - Pd-0.42.5-extended + Windows;
#X text 145 -13 MIDI In fonctionne sous: works under:;
#X text 144 34 MIDI In ne fonctionne pas: does not work under:;
#X text 172 11 - Pd-0.42.5-extended + Ubuntu;
#X obj 9 72 cnv 15 60 30 empty empty empty 20 12 0 14 -24198 -66577
0;
#N canvas 263 231 423 171 Help 0;
#X obj 10 -36 cnv 15 400 100 empty empty empty 20 12 0 14 -233017 -66577
0;
#X text 13 -37 Citation;
#X text 35 -18 This object is always omni and;
#X text 34 -2 outputs the port number instead;
#X text 35 16 of the channel.;
#X text 8 -64 MM MIDI-In;
#X text 10 73 cf ExMM80b-MIDI-Visu.pd;
#X restore 16 78 pd Help;
#X text 230 100 26 1 2012;
#X connect 3 0 5 0;
#X connect 6 0 8 1;
#X connect 8 0 3 0;
#X connect 8 0 10 0;
#X connect 9 0 8 0;
#X coords 0 -1 1 1 127 17 1 100 100;
#X restore 533 142 pd MIDI;
#N canvas 3 69 1134 212 MIDI-Key 0;
#X obj 160 59 inlet;
#X obj 158 153 outlet;
#X obj 101 101 cnv 5 1022 38 empty empty empty 20 12 0 14 -262103 -1
0;
#X obj 100 119 hradio 8 1 0 128 \$0-A \$0-B empty 0 -8 0 10 -262144
-1 -1 0;
#X obj 589 112 cnv 5 6 6 empty empty empty 20 12 0 14 -1 -66577 0;
#X obj 605 112 cnv 5 6 6 empty empty empty 20 12 0 14 -1 -66577 0;
#X obj 629 112 cnv 5 6 6 empty empty empty 20 12 0 14 -1 -66577 0;
#X obj 645 112 cnv 5 6 6 empty empty empty 20 12 0 14 -1 -66577 0;
#X obj 661 112 cnv 5 6 6 empty empty empty 20 12 0 14 -1 -66577 0;
#X text 673 125 C4;
#X obj 685 112 cnv 5 6 6 empty empty empty 20 12 0 14 -1 -66577 0;
#X obj 701 112 cnv 5 6 6 empty empty empty 20 12 0 14 -1 -66577 0;
#X obj 725 112 cnv 5 6 6 empty empty empty 20 12 0 14 -1 -66577 0;
#X obj 741 112 cnv 5 6 6 empty empty empty 20 12 0 14 -1 -66577 0;
#X obj 757 112 cnv 5 6 6 empty empty empty 20 12 0 14 -1 -66577 0;
#X text 769 125 C5;
#X obj 781 112 cnv 5 6 6 empty empty empty 20 12 0 14 -1 -66577 0;
#X obj 797 112 cnv 5 6 6 empty empty empty 20 12 0 14 -1 -66577 0;
#X obj 821 112 cnv 5 6 6 empty empty empty 20 12 0 14 -1 -66577 0;
#X obj 837 112 cnv 5 6 6 empty empty empty 20 12 0 14 -1 -66577 0;
#X obj 853 112 cnv 5 6 6 empty empty empty 20 12 0 14 -1 -66577 0;
#X text 865 125 C6;
#X obj 877 112 cnv 5 6 6 empty empty empty 20 12 0 14 -1 -66577 0;
#X obj 893 112 cnv 5 6 6 empty empty empty 20 12 0 14 -1 -66577 0;
#X obj 917 112 cnv 5 6 6 empty empty empty 20 12 0 14 -1 -66577 0;
#X obj 933 112 cnv 5 6 6 empty empty empty 20 12 0 14 -1 -66577 0;
#X obj 949 112 cnv 5 6 6 empty empty empty 20 12 0 14 -1 -66577 0;
#X text 961 125 C7;
#X obj 973 112 cnv 5 6 6 empty empty empty 20 12 0 14 -1 -66577 0;
#X obj 989 112 cnv 5 6 6 empty empty empty 20 12 0 14 -1 -66577 0;
#X obj 1013 112 cnv 5 6 6 empty empty empty 20 12 0 14 -1 -66577 0
;
#X obj 1029 112 cnv 5 6 6 empty empty empty 20 12 0 14 -1 -66577 0
;
#X obj 1045 112 cnv 5 6 6 empty empty empty 20 12 0 14 -1 -66577 0
;
#X obj 1069 112 cnv 5 6 6 empty empty empty 20 12 0 14 -1 -66577 0
;
#X obj 1085 112 cnv 5 6 6 empty empty empty 20 12 0 14 -1 -66577 0
;
#X obj 1109 112 cnv 5 6 6 empty empty empty 20 12 0 14 -1 -66577 0
;
#X text 1057 125 C8;
#X obj 109 112 cnv 5 6 6 empty empty empty 20 12 0 14 -1 -66577 0;
#X obj 125 112 cnv 5 6 6 empty empty empty 20 12 0 14 -1 -66577 0;
#X obj 149 112 cnv 5 6 6 empty empty empty 20 12 0 14 -1 -66577 0;
#X obj 165 112 cnv 5 6 6 empty empty empty 20 12 0 14 -1 -66577 0;
#X obj 181 112 cnv 5 6 6 empty empty empty 20 12 0 14 -1 -66577 0;
#X obj 205 112 cnv 5 6 6 empty empty empty 20 12 0 14 -1 -66577 0;
#X obj 221 112 cnv 5 6 6 empty empty empty 20 12 0 14 -1 -66577 0;
#X obj 245 112 cnv 5 6 6 empty empty empty 20 12 0 14 -1 -66577 0;
#X obj 261 112 cnv 5 6 6 empty empty empty 20 12 0 14 -1 -66577 0;
#X obj 277 112 cnv 5 6 6 empty empty empty 20 12 0 14 -1 -66577 0;
#X obj 301 112 cnv 5 6 6 empty empty empty 20 12 0 14 -1 -66577 0;
#X obj 317 112 cnv 5 6 6 empty empty empty 20 12 0 14 -1 -66577 0;
#X obj 341 112 cnv 5 6 6 empty empty empty 20 12 0 14 -1 -66577 0;
#X obj 357 112 cnv 5 6 6 empty empty empty 20 12 0 14 -1 -66577 0;
#X obj 373 112 cnv 5 6 6 empty empty empty 20 12 0 14 -1 -66577 0;
#X obj 397 112 cnv 5 6 6 empty empty empty 20 12 0 14 -1 -66577 0;
#X obj 413 112 cnv 5 6 6 empty empty empty 20 12 0 14 -1 -66577 0;
#X obj 437 112 cnv 5 6 6 empty empty empty 20 12 0 14 -1 -66577 0;
#X obj 453 112 cnv 5 6 6 empty empty empty 20 12 0 14 -1 -66577 0;
#X obj 469 112 cnv 5 6 6 empty empty empty 20 12 0 14 -1 -66577 0;
#X obj 493 112 cnv 5 6 6 empty empty empty 20 12 0 14 -1 -66577 0;
#X obj 509 112 cnv 5 6 6 empty empty empty 20 12 0 14 -1 -66577 0;
#X obj 533 112 cnv 5 6 6 empty empty empty 20 12 0 14 -1 -66577 0;
#X obj 549 112 cnv 5 6 6 empty empty empty 20 12 0 14 -1 -66577 0;
#X obj 565 112 cnv 5 6 6 empty empty empty 20 12 0 14 -1 -66577 0;
#X text 577 125 C3;
#X text 481 125 C2;
#X text 385 125 C1;
#X text 289 125 C0;
#X text 189 125 C-1;
#X obj 101 101 bng 12 250 50 0 \$0-A \$0-B empty 0 8 1 14 -262144 -1
-1;
#X obj 102 102 cnv 4 10 4 empty empty empty 20 12 0 14 -260097 -66577
0;
#X obj 101 135 cnv 4 10 4 empty empty empty 20 12 0 14 -260097 -66577
0;
#X obj 1075 173 cnv 15 48 25 empty empty empty 20 12 0 14 -24198 -66577
0;
#N canvas 350 196 308 136 ??? 0;
#X obj -6 87 cnv 15 300 38 empty empty empty 20 12 0 14 -224896 -66577
0;
#X obj -6 10 cnv 18 300 70 empty empty ARGOPdMiniModules 3 10 1 14
-4033 -1 1.04858e+06;
#X obj 13 31 cnv 10 10 10 empty empty Gerard 0 5 1 11 -4033 -1 1.04858e+06
;
#X obj 55 30 cnv 10 10 10 empty empty Paresys 0 5 1 11 -4033 -1 1.04858e+06
;
#X text -1 89 Construit sous / Build under Pd 0.42.5-extended;
#X obj 6 43 pddp/pddplink http://pagesperso-orange.fr/Paresys/ARGOPd/
;
#X obj 6 58 pddp/pddplink http://gerard.paresys.free.fr/ARGOPd/;
#X obj 46 105 pddp/pddplink http://puredata.info/downloads;
#X restore 1079 177 pd ???;
#X text 713 78 26 1 2012;
#X text 478 63 MM MIDI-Keyboard;
#X connect 0 0 3 0;
#X connect 0 0 67 0;
#X connect 3 0 1 0;
#X coords 0 -1 1 1 1024 40 1 100 100;
#X restore 10 339 pd MIDI-Key;
#N canvas 301 104 316 220 ARGO 0;
#X obj 101 101 cnv 3 118 12 empty empty empty 20 12 0 14 -262103 -1
0;
#X obj 184 103 cnv 3 5 5 empty ColorAmpli MIDI. 1 5 1 14 -262103 -1
1.04858e+06;
#X obj 101 101 bng 12 250 50 0 \$0-A \$0-B Settings 14 6 1 10 -262144
-1 -1;
#X obj 247 181 cnv 15 54 25 empty empty empty 20 12 0 14 -24198 -66577
0;
#N canvas 336 174 313 131 ???? 0;
#X obj 3 83 cnv 15 300 38 empty empty empty 20 12 0 14 -224896 -66577
0;
#X obj 3 6 cnv 18 300 70 empty empty ARGOPdMiniModules 3 10 1 14 -4033
-1 1.04858e+06;
#X obj 26 26 cnv 10 10 10 empty empty Gerard 0 5 1 11 -4033 -1 1.04858e+06
;
#X obj 64 26 cnv 10 10 10 empty empty Paresys 0 5 1 11 -4033 -1 1.04858e+06
;
#X obj 7 37 pddp/pddplink http://gerard.paresys.free.fr/ARGOPd/;
#X text 8 85 Construit sous / Build under Pd 0.43.4-extended;
#X obj 17 100 pddp/pddplink http://puredata.info/downloads/pd-extended
;
#X obj 7 50 pddp/pddplink http://paresys.pagesperso-orange.fr/ARGOPd/
;
#X restore 251 185 pd ????;
#X text 177 82 5 3 2016;
#X obj 101 123 mediasettings/midisettings;
#X obj 17 105 cnv 15 60 30 empty empty empty 20 12 0 14 -24198 -66577
0;
#N canvas 334 205 431 139 Help 0;
#X obj 12 13 cnv 15 400 100 empty empty empty 20 12 0 14 -233017 -66577
0;
#X text 15 12 Citation;
#X obj 30 71 pddp/pddplink http://integralive.org;
#X text 30 30 mediasettings - get/set audio and MIDI settings within
Pd NOTE: this library has been developed for the IntegraLive project
;
#X text 28 85 IOhannes m zmoelnig (zmoelnig AT iem DOT at);
#X restore 24 111 pd Help;
#X obj 101 148 print MIDI-Settings;
#X text 6 26 midisettings - query and manipulate MIDI settings;
#X connect 2 0 6 0;
#X connect 6 0 9 0;
#X coords 0 -1 1 1 120 14 2 100 100;
#X restore 467 7 pd ARGO;
#N canvas 413 23 323 509 MIDICtrlChange 0;
#X obj 101 401 cnv 10 125 36 empty ColorMIDI InNote. 78 8 1 14 -262103
-1 1.04858e+06;
#X obj 142 404 cnv 9 9 9 empty ColorMIDI Ch 0 5 1 9 -262103 -1 1.04858e+06
;
#X obj 135 414 nbx 2 12 1 16 0 1 \$0-A ColorMIDI empty 0 0 1 9 -262103
-1 -1 1 256;
#X obj 112 414 nbx 2 12 0 4 0 1 \$0-A ColorMIDI empty 0 0 1 9 -262103
-1 -1 1 256;
#X obj 124 124 / 16;
#X obj 124 149 int;
#X obj 123 170 + 1;
#X obj 167 99 - 1;
#X obj 206 124 mod 16;
#X obj 206 170 + 1;
#X obj 123 195 == 1;
#X obj 206 195 == 1;
#X obj 71 252 spigot;
#X obj 71 219 spigot;
#X obj 116 404 cnv 9 9 9 empty ColorMIDI Port 0 5 1 9 -262103 -1 1.04858e+06
;
#X obj 112 426 nbx 3 12 0 127 0 1 \$0-A ColorMIDI empty 0 0 1 9 -208064
-1 -1 75 256;
#X obj 144 428 cnv 9 9 9 empty ColorMIDI Pitch 0 5 1 9 -262103 -1 1.04858e+06
;
#X obj 171 428 cnv 9 9 9 empty ColorMIDI Vel 0 5 1 9 -262103 -1 1.04858e+06
;
#X obj 133 75 notein;
#X obj 160 248 spigot;
#X obj 160 221 spigot;
#X text 89 437 Pitch;
#X text 198 437 Velocity;
#X obj 101 433 cnv 4 10 4 empty empty empty 20 12 0 14 -260097 -66577
0;
#X obj 216 433 cnv 4 10 4 empty empty empty 20 12 0 14 -260097 -66577
0;
#X obj 86 461 outlet;
#X obj 201 461 outlet;
#X obj 158 414 tgl 12 1 \$0-A \$0-B NoteOff 15 6 1 9 -262103 -1 -1
0 1;
#X obj 69 324 spigot;
#X obj 102 301 > 0;
#X obj 103 279 +;
#X obj 185 426 nbx 3 12 0 127 0 1 \$0-A ColorMIDI empty 0 0 1 9 -261299
-1 -1 0 256;
#X obj 100 414 bng 12 50 50 0 \$0-A \$0-B empty 6 9 0 9 -257985 -260097
-1;
#X obj 56 410 t b b;
#X msg 95 370 set \$1;
#X obj 69 347 t b f;
#X text 200 478 0..127;
#X text 86 478 0..127;
#X msg 188 326 set \$1;
#X obj 254 464 cnv 15 42 25 empty empty empty 20 12 0 14 -24198 -66577
0;
#N canvas 336 174 309 137 ?. 0;
#X obj 3 83 cnv 15 300 46 empty empty empty 20 12 0 14 -224896 -66577
0;
#X obj 3 6 cnv 18 300 70 empty empty ARGOPdMiniModules 3 10 1 14 -4033
-1 1.04858e+06;
#X obj 26 26 cnv 10 10 10 empty empty Gerard 0 5 1 11 -4033 -1 1.04858e+06
;
#X obj 64 26 cnv 10 10 10 empty empty Paresys 0 5 1 11 -4033 -1 1.04858e+06
;
#X obj 7 37 pddp/pddplink http://gerard.paresys.free.fr/ARGOPd/;
#X text 8 85 Construit sous / Build under Pd 0.43.4-extended;
#X obj 8 111 pddp/pddplink http://puredata.info/downloads/pd-extended
;
#X obj 7 50 pddp/pddplink http://paresys.pagesperso-orange.fr/ARGOPd/
;
#X text 7 98 or Pd-0.46-7 + deken;
#X restore 258 468 pd ?.;
#X text 192 382 15 2 2018;
#X connect 2 0 11 1;
#X connect 3 0 10 1;
#X connect 4 0 5 0;
#X connect 5 0 6 0;
#X connect 6 0 10 0;
#X connect 7 0 4 0;
#X connect 7 0 8 0;
#X connect 8 0 9 0;
#X connect 9 0 11 0;
#X connect 10 0 13 1;
#X connect 10 0 20 1;
#X connect 11 0 12 1;
#X connect 11 0 19 1;
#X connect 12 0 28 0;
#X connect 13 0 12 0;
#X connect 15 0 25 0;
#X connect 18 0 13 0;
#X connect 18 1 20 0;
#X connect 18 2 7 0;
#X connect 19 0 30 0;
#X connect 19 0 38 0;
#X connect 20 0 19 0;
#X connect 27 0 30 1;
#X connect 28 0 35 0;
#X connect 29 0 28 1;
#X connect 30 0 29 0;
#X connect 31 0 26 0;
#X connect 32 0 33 0;
#X connect 33 0 15 0;
#X connect 33 1 31 0;
#X connect 34 0 15 0;
#X connect 35 0 32 0;
#X connect 35 1 34 0;
#X connect 38 0 31 0;
#X coords 0 -1 1 1 127 38 1 100 400;
#X restore 133 120 pd MIDICtrlChange;
#N canvas 435 86 357 221 MIDICtrlChange 0;
#X obj 101 101 cnv 5 125 22 empty ColorMIDI Silence. 75 8 1 14 -262103
-1 1.04858e+06;
#X obj 160 101 cnv 9 9 9 empty ColorMIDI Ch 0 5 1 9 -262103 -1 1.04858e+06
;
#X obj 153 112 nbx 2 12 1 16 0 1 \$0-A ColorMIDI empty 0 0 1 9 -262103
-1 -1 1 256;
#X obj 130 112 nbx 2 12 1 4 0 1 \$0-A ColorMIDI empty 0 0 1 9 -262103
-1 -1 1 256;
#X obj 134 101 cnv 9 9 9 empty ColorMIDI Port 0 5 1 9 -262103 -1 1.04858e+06
;
#X obj 170 158 expr 16*($f1-1) + ($f2);
#X obj 170 133 t b f;
#N canvas 506 239 187 273 silence 0;
#X obj 106 145 + 1;
#X obj 49 146 float;
#X obj 49 120 until;
#X msg 93 94 0;
#X obj 66 65 t b b;
#X msg 49 172 \$1 0;
#X obj 67 31 inlet;
#X obj 49 211 outlet;
#X text 70 13 bang;
#X text 45 230 noteout;
#X msg 49 94 128;
#X connect 0 0 1 1;
#X connect 1 0 0 0;
#X connect 1 0 5 0;
#X connect 2 0 1 0;
#X connect 3 0 1 1;
#X connect 4 0 10 0;
#X connect 4 1 3 0;
#X connect 5 0 7 0;
#X connect 6 0 4 0;
#X connect 10 0 2 0;
#X restore 100 159 pd silence;
#X obj 100 196 noteout;
#X obj 100 100 bng 24 50 50 0 \$0-A \$0-B empty 14 7 1 9 -257985 -260097
-1;
#X text 241 105 Silence = "Panic";
#X text 46 71 MM MIDI-Silence;
#X text 176 81 8 6 2018;
#X obj 294 183 cnv 15 42 25 empty empty empty 20 12 0 14 -24198 -66577
0;
#N canvas 336 174 316 152 ?. 0;
#X obj 8 84 cnv 15 300 56 empty empty empty 20 12 0 14 -224896 -66577
0;
#X obj 8 7 cnv 18 300 70 empty empty ARGOPdMiniModules 3 10 1 14 -4033
-1 1.04858e+06;
#X obj 31 27 cnv 10 10 10 empty empty Gerard 0 5 1 11 -4033 -1 1.04858e+06
;
#X obj 69 27 cnv 10 10 10 empty empty Paresys 0 5 1 11 -4033 -1 1.04858e+06
;
#X obj 12 40 pddp/pddplink http://gerard.paresys.free.fr/ARGOPd/;
#X text 13 85 Construit sous / Build under Pd 0.43.4-extended;
#X obj 13 111 pddp/pddplink http://puredata.info/downloads/pd-extended
;
#X obj 12 53 pddp/pddplink http://paresys.pagesperso-orange.fr/ARGOPd/
;
#X text 12 98 or Pd-0.48;
#X obj 13 124 pddp/pddplink http://puredata.info/downloads/pure-data
;
#X restore 298 187 pd ?.;
#X connect 2 0 6 0;
#X connect 3 0 5 0;
#X connect 5 0 8 2;
#X connect 6 0 5 0;
#X connect 6 1 5 1;
#X connect 7 0 8 0;
#X connect 9 0 7 0;
#X coords 0 -1 1 1 127 24 1 100 100;
#X restore 396 289 pd MIDICtrlChange;
#N canvas 37 262 349 279 MIDICtrlChange 0;
#X obj 101 101 cnv 10 125 43 empty ColorMIDI OutNote. 63 25 1 14 -262103
-1 1.04858e+06;
#X obj 204 106 nbx 2 12 1 16 0 1 \$0-A ColorMIDI empty 0 0 1 9 -262103
-1 -1 1 256;
#X obj 112 133 nbx 2 12 1 4 0 1 \$0-A ColorMIDI empty 0 0 1 9 -262103
-1 -1 1 256;
#X obj 137 134 cnv 9 9 9 empty ColorMIDI Port 0 5 1 9 -262103 -1 1.04858e+06
;
#X obj 100 106 nbx 3 12 0 127 0 1 \$0-A ColorMIDI empty 0 0 1 9 -208064
-1 -1 71 256;
#X text 92 30 Pitch;
#X text 141 28 Velocity;
#X obj 101 101 cnv 4 10 4 empty empty empty 20 12 0 14 -260097 -66577
0;
#X obj 216 101 cnv 4 10 4 empty empty empty 20 12 0 14 -260097 -66577
0;
#X obj 151 106 nbx 3 12 0 127 0 1 \$0-A ColorMIDI empty 0 0 1 9 -261299
-1 -1 100 256;
#X obj 100 133 bng 12 50 50 0 \$0-A \$0-B empty 6 9 0 9 -257985 -260097
-1;
#X text 88 45 0..127;
#X obj 143 233 noteout;
#X obj 117 195 makenote;
#X text 236 132 Duration;
#X obj 91 64 inlet;
#X text 148 42 0..127;
#X obj 151 61 inlet;
#X obj 162 133 nbx 4 12 5 9999 0 1 \$0-A \$0-B ms 41 6 1 9 -208064
-1 -1 5000 256;
#X obj 182 195 expr 16*($f1-1) + ($f2);
#X obj 204 157 t b f;
#X obj 42 93 t b f;
#X obj 54 172 int;
#X obj 209 61 inlet;
#X text 204 29 Channel;
#X text 207 42 1..16;
#X obj 159 101 cnv 4 10 4 empty empty empty 20 12 0 14 -260097 -66577
0;
#X obj 13 38 cnv 15 60 30 empty empty empty 20 12 0 14 -24198 -66577
0;
#N canvas 539 88 425 435 Help 0;
#X obj 10 37 cnv 15 400 360 empty empty empty 20 12 0 14 -233017 -66577
0;
#X text 13 39 Citation;
#X text 10 14 MM MIDI-OutNote;
#X text 26 58 - send note-on messages and schedule note-off for later
;
#X text 40 83 Makenote makes MIDI-style note-on/note-off pairs \, which
you can use for MIDI output or to drive note-like processes within
Pd.;
#X text 41 133 numbers at left are "pitches" which may be integers
or not.;
#X restore 20 44 pd Help;
#X text 237 113 8 6 2018;
#X obj 285 225 cnv 15 42 25 empty empty empty 20 12 0 14 -24198 -66577
0;
#N canvas 336 174 316 152 ?. 0;
#X obj 8 84 cnv 15 300 56 empty empty empty 20 12 0 14 -224896 -66577
0;
#X obj 8 7 cnv 18 300 70 empty empty ARGOPdMiniModules 3 10 1 14 -4033
-1 1.04858e+06;
#X obj 31 27 cnv 10 10 10 empty empty Gerard 0 5 1 11 -4033 -1 1.04858e+06
;
#X obj 69 27 cnv 10 10 10 empty empty Paresys 0 5 1 11 -4033 -1 1.04858e+06
;
#X obj 12 40 pddp/pddplink http://gerard.paresys.free.fr/ARGOPd/;
#X text 13 85 Construit sous / Build under Pd 0.43.4-extended;
#X obj 13 111 pddp/pddplink http://puredata.info/downloads/pd-extended
;
#X obj 12 53 pddp/pddplink http://paresys.pagesperso-orange.fr/ARGOPd/
;
#X text 12 98 or Pd-0.48;
#X obj 13 124 pddp/pddplink http://puredata.info/downloads/pure-data
;
#X restore 289 229 pd ?.;
#X connect 1 0 20 0;
#X connect 2 0 19 0;
#X connect 4 0 13 0;
#X connect 9 0 13 1;
#X connect 10 0 22 0;
#X connect 13 0 12 0;
#X connect 13 1 12 1;
#X connect 15 0 21 0;
#X connect 17 0 9 0;
#X connect 18 0 13 2;
#X connect 19 0 12 2;
#X connect 20 0 19 0;
#X connect 20 1 19 1;
#X connect 21 0 10 0;
#X connect 21 1 22 1;
#X connect 22 0 4 0;
#X connect 23 0 1 0;
#X coords 0 -1 1 1 127 45 1 100 100;
#X restore 132 268 pd MIDICtrlChange;
#N canvas 499 152 603 330 MIDI 0;
#X obj 191 22 inlet;
#X text 196 2 MIDI;
#X text 109 22 MM MIDI-Out;
#X obj 201 101 cnv 5 198 52 empty ColorMIDI Markov2. 122 9 1 14 -262103
-1 1.04858e+06;
#X obj 200 100 tgl 12 1 \$0-A \$0-B On 14 7 1 9 -257985 -1 -1 0 1;
#X obj 201 101 cnv 4 10 4 empty empty empty 20 12 0 14 -260097 -66577
0;
#X obj 191 46 spigot;
#X text 229 19 <- From MM-MIDI-Play;
#X text 278 44 Object cyclone/seq;
#X text 278 32 Object midiin;
#X text 278 8 MM-MIDI-In;
#X obj 200 142 bng 12 50 20 0 \$0-A \$0-B Pitch 14 6 1 9 -257985 -1
-1;
#X obj 201 149 cnv 4 10 4 empty empty empty 20 12 0 14 -260097 -66577
0;
#X obj 259 143 cnv 4 4 4 empty ColorMIDI Analysis 0 4 1 10 -262103
-1 1.04858e+06;
#X obj 305 143 cnv 4 4 4 empty ColorMIDI Generate 0 4 1 10 -262103
-1 1.04858e+06;
#X obj 299 101 cnv 1 1 52 empty empty empty 20 12 0 14 -1 -66577 0
;
#X obj 388 100 bng 12 50 20 0 \$0-A \$0-B empty 14 6 1 9 -257985 -1
-1;
#X obj 389 101 cnv 4 10 4 empty empty empty 20 12 0 14 -260097 -66577
0;
#N canvas 391 122 446 331 markovMIDIAnalyis-modif 0;
#X obj 22 10 inlet;
#X msg 22 253 merge \$1 \$2;
#X msg 193 253 clear;
#X obj 194 10 inlet;
#X msg 152 253 open;
#X obj 152 9 inlet;
#X obj 22 169 pack;
#X msg 247 253 flags 1 0;
#N canvas 565 236 178 295 zl-stream 0;
#X obj 63 21 inlet;
#X obj 63 246 outlet;
#X obj 63 54 t f f b;
#X obj 92 100 f;
#X obj 91 124 t f b f;
#X obj 91 155 f;
#X obj 63 186 pack f f f;
#X msg 63 216 \$2 \$3 \$1;
#X connect 0 0 2 0;
#X connect 2 0 6 0;
#X connect 2 1 3 1;
#X connect 2 2 3 0;
#X connect 3 0 4 0;
#X connect 4 0 5 1;
#X connect 4 1 5 0;
#X connect 4 2 6 2;
#X connect 5 0 6 1;
#X connect 6 0 7 0;
#X connect 7 0 1 0;
#X restore 22 113 pd zl-stream;
#X obj 22 143 unpack f f f;
#X obj 22 229 pack;
#X text 210 228 save coll's contents with the patch;
#X obj 152 290 cyclone/coll \$0-pitchMatrix2;
#C flags 1 0;
#C 5785 80;
#C 6157 85;
#C 6168 63 63;
#C 6173 71;
#C 6361 68 68;
#C 6366 64;
#C 6368 66 61 66 61;
#C 6463 61 61;
#C 6664 63 63;
#C 6668 63 63 63;
#C 6861 73;
#C 6863 66 68 68 68 68;
#C 6866 68 68 64 68;
#C 6968 66;
#C 7169 68;
#C 7368 66;
#C 7371 69;
#C 7573 68;
#C 7578 76;
#C 7675 73;
#C 7876 75;
#C 7880 75;
#C 8075 78;
#C 8078 80;
#C 8580 78;
#C restore;
#X obj 22 199 cyclone/sprintf %i%i;
#X connect 0 0 8 0;
#X connect 1 0 12 0;
#X connect 2 0 12 0;
#X connect 3 0 2 0;
#X connect 4 0 12 0;
#X connect 5 0 4 0;
#X connect 6 0 13 0;
#X connect 7 0 12 0;
#X connect 8 0 9 0;
#X connect 9 0 6 0;
#X connect 9 1 6 1;
#X connect 9 2 10 1;
#X connect 10 0 1 0;
#X connect 13 0 10 0;
#X restore 197 193 pd markovMIDIAnalyis-modif;
#X obj 230 124 bng 12 50 50 0 \$0-A \$0-B Visu-Matrix 14 7 1 9 -257985
-260097 -1;
#X obj 230 112 bng 12 50 50 0 \$0-A \$0-B Clear-Matrix 14 7 1 9 -257985
-260097 -1;
#N canvas 604 93 334 445 markovPitchGenerate 0;
#X obj 106 11 inlet;
#X obj 224 406 outlet;
#X obj 147 12 inlet;
#X obj 114 111 f;
#X obj 114 138 t f f;
#X obj 24 224 t b f;
#X obj 24 250 random;
#X obj 24 274 + 1;
#X obj 104 302 pack;
#X msg 104 330 nth \$2 \$1;
#X msg 147 38 next;
#X floatatom 194 86 5 0 0 0 - - -;
#X obj 24 198 zexy/length;
#X msg 44 335 \$2;
#X obj 44 357 % 100;
#X obj 44 385 pack;
#X floatatom 71 85 5 0 0 0 - - -;
#X obj 124 51 bng 15 250 50 0 empty empty empty 17 7 0 10 -262144 -1
-1;
#X obj 147 62 cyclone/coll \$0-pitchMatrix2;
#C flags 1 0;
#C 5785 80;
#C 6157 85;
#C 6168 63 63;
#C 6173 71;
#C 6361 68 68;
#C 6366 64;
#C 6368 66 61 66 61;
#C 6463 61 61;
#C 6664 63 63;
#C 6668 63 63 63;
#C 6861 73;
#C 6863 66 68 68 68 68;
#C 6866 68 68 64 68;
#C 6968 66;
#C 7169 68;
#C 7368 66;
#C 7371 69;
#C 7573 68;
#C 7578 76;
#C 7675 73;
#C 7876 75;
#C 7880 75;
#C 8075 78;
#C 8078 80;
#C 8580 78;
#C restore;
#X obj 24 172 cyclone/coll \$0-pitchMatrix2;
#C flags 1 0;
#C 5785 80;
#C 6157 85;
#C 6168 63 63;
#C 6173 71;
#C 6361 68 68;
#C 6366 64;
#C 6368 66 61 66 61;
#C 6463 61 61;
#C 6664 63 63;
#C 6668 63 63 63;
#C 6861 73;
#C 6863 66 68 68 68 68;
#C 6866 68 68 64 68;
#C 6968 66;
#C 7169 68;
#C 7368 66;
#C 7371 69;
#C 7573 68;
#C 7578 76;
#C 7675 73;
#C 7876 75;
#C 7880 75;
#C 8075 78;
#C 8078 80;
#C 8580 78;
#C restore;
#X obj 104 354 cyclone/coll \$0-pitchMatrix2;
#C flags 1 0;
#C 5785 80;
#C 6157 85;
#C 6168 63 63;
#C 6173 71;
#C 6361 68 68;
#C 6366 64;
#C 6368 66 61 66 61;
#C 6463 61 61;
#C 6664 63 63;
#C 6668 63 63 63;
#C 6861 73;
#C 6863 66 68 68 68 68;
#C 6866 68 68 64 68;
#C 6968 66;
#C 7169 68;
#C 7368 66;
#C 7371 69;
#C 7573 68;
#C 7578 76;
#C 7675 73;
#C 7876 75;
#C 7880 75;
#C 8075 78;
#C 8078 80;
#C 8580 78;
#C restore;
#X obj 44 411 cyclone/sprintf %i%i;
#X connect 0 0 3 0;
#X connect 2 0 10 0;
#X connect 3 0 4 0;
#X connect 4 0 19 0;
#X connect 4 1 8 1;
#X connect 5 0 6 0;
#X connect 5 1 6 1;
#X connect 6 0 7 0;
#X connect 7 0 8 0;
#X connect 8 0 9 0;
#X connect 8 0 13 0;
#X connect 9 0 20 0;
#X connect 10 0 18 0;
#X connect 11 0 3 1;
#X connect 12 0 5 0;
#X connect 13 0 14 0;
#X connect 14 0 15 0;
#X connect 15 0 21 0;
#X connect 16 0 3 1;
#X connect 17 0 3 0;
#X connect 18 1 11 0;
#X connect 19 0 12 0;
#X connect 20 0 15 1;
#X connect 20 0 1 0;
#X connect 21 0 16 0;
#X restore 368 193 pd markovPitchGenerate;
#X obj 388 22 inlet;
#X text 392 2 bang;
#X obj 362 261 outlet;
#X obj 382 217 cyclone/speedlim 100;
#X obj 330 124 bng 12 50 50 0 \$0-A \$0-B New-Start 14 7 1 9 -257985
-260097 -1;
#X obj 388 142 bng 12 50 20 0 \$0-A \$0-B Pitch -23 6 1 9 -257985 -1
-1;
#X obj 389 149 cnv 4 10 4 empty empty empty 20 12 0 14 -260097 -66577
0;
#X obj 65 98 cyclone/speedlim 100;
#X obj 191 261 outlet;
#X text 169 278 Pitch 0..127;
#X text 344 281 Pitch 0..127;
#X obj 79 210 cnv 15 60 30 empty empty empty 20 12 0 14 -24198 -66577
0;
#N canvas 484 213 581 392 Help 0;
#X obj 17 69 cnv 15 550 300 empty empty empty 20 12 0 14 -233017 -66577
0;
#X text 20 68 Citation;
#X obj 27 83 pddp/pddplink http://www.algorithmiccomposer.com/2010/05/algorithmic-composition-tutorial-markov.html
;
#X text 26 104 Algorithmic Composition: Markov Chains in PureData;
#X text 23 123 "Markov Chains choose the next state based on the current
state and a set of probabilities. Mapped to pitch this would involve
choosing our next note based on our current note and a list of possible
next notes and their probabilities.";
#X text 22 192 "Today we're looking at automatically analysing a MIDI
file in PureData to create a first order STM (state transition matrix
) \, then generating some simple algorithmic music compositions from
this. In this first example we'll just build our model to include pitch
but you can easily extend this to include rhythm \, dynamics or other
musical parameters.";
#X text 466 339 POSTED BY ACUMA;
#X text 15 28 This module is fully inspired by the work of "ACUMA"
;
#X text 86 40 Ce module est entierement inspir du travail de "ACUMA"
;
#X text 24 296 Algorithmic Composer: Second Order Markov Chains in
PureData;
#X text 10 7 MM MIDI-Markov2 : Second Order Markov Chains;
#X text 27 314 "Second order Markov Chains choose the next note based
on the two previous notes and the probability of subsequent notes following
those two notes";
#X restore 86 216 pd Help;
#X obj 432 21 loadbang;
#X obj 432 47 delay 300;
#X obj 290 163 t b b;
#N canvas 367 365 200 210 pitch 0;
#X obj 84 17 inlet;
#X obj 84 66 unpack;
#X obj 84 94 stripnote;
#X text 3 79 MIDI pitch <-;
#X obj 84 158 outlet;
#X text 80 175 Pitch;
#X obj 84 41 cyclone/midiparse;
#X connect 0 0 6 0;
#X connect 1 0 2 0;
#X connect 1 1 2 1;
#X connect 2 0 4 0;
#X connect 6 0 1 0;
#X restore 191 72 pd pitch;
#X obj 479 79 cnv 15 100 60 empty empty empty 20 12 0 14 -24198 -66577
0;
#X text 505 83 library:;
#X text 486 94 pddp;
#X text 486 105 cyclone;
#X obj 501 269 cnv 15 42 25 empty empty empty 20 12 0 14 -24198 -66577
0;
#N canvas 336 174 316 152 ?. 0;
#X obj 8 84 cnv 15 300 56 empty empty empty 20 12 0 14 -224896 -66577
0;
#X obj 8 7 cnv 18 300 70 empty empty ARGOPdMiniModules 3 10 1 14 -4033
-1 1.04858e+06;
#X obj 31 27 cnv 10 10 10 empty empty Gerard 0 5 1 11 -4033 -1 1.04858e+06
;
#X obj 69 27 cnv 10 10 10 empty empty Paresys 0 5 1 11 -4033 -1 1.04858e+06
;
#X obj 12 40 pddp/pddplink http://gerard.paresys.free.fr/ARGOPd/;
#X text 13 85 Construit sous / Build under Pd 0.43.4-extended;
#X obj 13 111 pddp/pddplink http://puredata.info/downloads/pd-extended
;
#X obj 12 53 pddp/pddplink http://paresys.pagesperso-orange.fr/ARGOPd/
;
#X text 12 98 or Pd-0.48;
#X obj 13 124 pddp/pddplink http://puredata.info/downloads/pure-data
;
#X restore 505 273 pd ?.;
#X text 408 100 8 6 2018;
#X text 487 118 zexy;
#X connect 0 0 6 0;
#X connect 4 0 6 1;
#X connect 6 0 38 0;
#X connect 16 0 21 0;
#X connect 19 0 18 1;
#X connect 20 0 37 0;
#X connect 21 0 24 0;
#X connect 21 0 25 0;
#X connect 22 0 16 0;
#X connect 25 0 27 0;
#X connect 26 0 21 1;
#X connect 29 0 11 0;
#X connect 35 0 36 0;
#X connect 36 0 26 0;
#X connect 37 0 18 1;
#X connect 37 1 18 2;
#X connect 38 0 30 0;
#X connect 38 0 29 0;
#X connect 38 0 18 0;
#X coords 0 -1 1 1 200 54 1 200 100;
#X restore 738 245 pd MIDI;
#N canvas 415 198 599 332 MIDICtrlChange 0;
#X obj 191 22 inlet;
#X text 196 2 MIDI;
#X text 109 22 MM MIDI-Out;
#X obj 201 101 cnv 5 198 52 empty ColorMIDI Markov1. 123 9 1 14 -262103
-1 1.04858e+06;
#X obj 200 100 tgl 12 1 \$0-A \$0-B On 14 7 1 9 -257985 -1 -1 0 1;
#X obj 201 101 cnv 4 10 4 empty empty empty 20 12 0 14 -260097 -66577
0;
#X obj 191 53 spigot;
#X text 229 19 <- From MM-MIDI-Play;
#X text 278 44 Object cyclone/seq;
#X text 278 32 Object midiin;
#X text 278 8 MM-MIDI-In;
#X obj 200 142 bng 12 50 20 0 \$0-A \$0-B Pitch 14 6 1 9 -257985 -1
-1;
#X obj 201 149 cnv 4 10 4 empty empty empty 20 12 0 14 -260097 -66577
0;
#X obj 259 143 cnv 4 4 4 empty ColorMIDI Analysis 0 4 1 10 -262103
-1 1.04858e+06;
#X obj 305 143 cnv 4 4 4 empty ColorMIDI Generate 0 4 1 10 -262103
-1 1.04858e+06;
#X obj 299 101 cnv 1 1 52 empty empty empty 20 12 0 14 -1 -66577 0
;
#X obj 388 100 bng 12 50 20 0 \$0-A \$0-B empty 14 6 1 9 -257985 -1
-1;
#X obj 389 101 cnv 4 10 4 empty empty empty 20 12 0 14 -260097 -66577
0;
#N canvas 445 180 486 260 markovMIDIAnalyis-modif 0;
#X obj 85 14 inlet;
#X msg 85 198 merge \$1 \$2;
#X msg 213 198 clear;
#X obj 214 14 inlet;
#X msg 172 198 open;
#X obj 172 13 inlet;
#X obj 85 117 t f b f;
#X obj 85 147 f;
#X obj 85 173 pack;
#X text 4 76 MIDI pitch <-;
#X msg 267 197 flags 1 0;
#X obj 173 235 cyclone/coll \$0-pitchMatrix1;
#C flags 1 0;
#C 0 85;
#C 42 57 61;
#C 47 51 59;
#C 49 61 54;
#C 51 63;
#C 54 57 66 59;
#C 56 59 42;
#C 57 61 61 56 49 69 42 69;
#C 59 63 57 57 47 71 63 66;
#C 61 68 73 68;
#C 63 66 61 68 68 61 68 68;
#C 64 63 63;
#C 66 68 64 68 64 68;
#C 68 66 63 63 66 63 61 66 63 66 63 61;
#C 69 68;
#C 71 69;
#C 73 68 71;
#C 75 78 73;
#C 76 75;
#C 78 80 76;
#C 80 78 75;
#C 85 80;
#C restore;
#X text 264 177 save coll's contents with the patch;
#X connect 0 0 6 0;
#X connect 1 0 11 0;
#X connect 2 0 11 0;
#X connect 3 0 2 0;
#X connect 4 0 11 0;
#X connect 5 0 4 0;
#X connect 6 0 7 1;
#X connect 6 1 7 0;
#X connect 6 2 8 1;
#X connect 7 0 8 0;
#X connect 8 0 1 0;
#X connect 10 0 11 0;
#X restore 199 200 pd markovMIDIAnalyis-modif;
#X obj 230 124 bng 12 50 50 0 \$0-A \$0-B Visu-Matrix 14 7 1 9 -257985
-260097 -1;
#X obj 230 112 bng 12 50 50 0 \$0-A \$0-B Clear-Matrix 14 7 1 9 -257985
-260097 -1;
#N canvas 422 68 313 451 markovPitchGenerate 0;
#X obj 91 7 inlet;
#X obj 209 402 outlet;
#X obj 132 8 inlet;
#X obj 92 107 f;
#X obj 81 136 t f f;
#X obj 9 220 t b f;
#X obj 9 246 random;
#X obj 9 270 + 1;
#X obj 89 304 pack;
#X msg 89 326 nth \$2 \$1;
#X floatatom 209 379 5 0 0 0 - - -;
#X msg 132 34 next;
#X floatatom 132 82 5 0 0 0 - - -;
#X obj 132 58 cyclone/coll \$0-pitchMatrix1;
#C flags 1 0;
#C 0 85;
#C 42 57 61;
#C 47 51 59;
#C 49 61 54;
#C 51 63;
#C 54 57 66 59;
#C 56 59 42;
#C 57 61 61 56 49 69 42 69;
#C 59 63 57 57 47 71 63 66;
#C 61 68 73 68;
#C 63 66 61 68 68 61 68 68;
#C 64 63 63;
#C 66 68 64 68 64 68;
#C 68 66 63 63 66 63 61 66 63 66 63 61;
#C 69 68;
#C 71 69;
#C 73 68 71;
#C 75 78 73;
#C 76 75;
#C 78 80 76;
#C 80 78 75;
#C 85 80;
#C restore;
#X obj 9 168 cyclone/coll \$0-pitchMatrix1;
#C flags 1 0;
#C 0 85;
#C 42 57 61;
#C 47 51 59;
#C 49 61 54;
#C 51 63;
#C 54 57 66 59;
#C 56 59 42;
#C 57 61 61 56 49 69 42 69;
#C 59 63 57 57 47 71 63 66;
#C 61 68 73 68;
#C 63 66 61 68 68 61 68 68;
#C 64 63 63;
#C 66 68 64 68 64 68;
#C 68 66 63 63 66 63 61 66 63 66 63 61;
#C 69 68;
#C 71 69;
#C 73 68 71;
#C 75 78 73;
#C 76 75;
#C 78 80 76;
#C 80 78 75;
#C 85 80;
#C restore;
#X obj 89 350 cyclone/coll \$0-pitchMatrix1;
#C flags 1 0;
#C 0 85;
#C 42 57 61;
#C 47 51 59;
#C 49 61 54;
#C 51 63;
#C 54 57 66 59;
#C 56 59 42;
#C 57 61 61 56 49 69 42 69;
#C 59 63 57 57 47 71 63 66;
#C 61 68 73 68;
#C 63 66 61 68 68 61 68 68;
#C 64 63 63;
#C 66 68 64 68 64 68;
#C 68 66 63 63 66 63 61 66 63 66 63 61;
#C 69 68;
#C 71 69;
#C 73 68 71;
#C 75 78 73;
#C 76 75;
#C 78 80 76;
#C 80 78 75;
#C 85 80;
#C restore;
#X obj 9 194 zexy/length;
#X connect 0 0 3 0;
#X connect 2 0 11 0;
#X connect 3 0 4 0;
#X connect 4 0 14 0;
#X connect 4 1 8 1;
#X connect 5 0 6 0;
#X connect 5 1 6 1;
#X connect 6 0 7 0;
#X connect 7 0 8 0;
#X connect 8 0 9 0;
#X connect 9 0 15 0;
#X connect 10 0 1 0;
#X connect 10 0 3 1;
#X connect 11 0 13 0;
#X connect 12 0 3 1;
#X connect 13 0 12 0;
#X connect 14 0 16 0;
#X connect 15 0 10 0;
#X connect 16 0 5 0;
#X restore 362 200 pd markovPitchGenerate;
#X obj 388 22 inlet;
#X text 392 2 bang;
#X obj 362 261 outlet;
#X obj 376 224 cyclone/speedlim 100;
#X obj 330 124 bng 12 50 50 0 \$0-A \$0-B New-Start 14 7 1 9 -257985
-260097 -1;
#X obj 388 142 bng 12 50 20 0 \$0-A \$0-B Pitch -23 6 1 9 -257985 -1
-1;
#X obj 389 149 cnv 4 10 4 empty empty empty 20 12 0 14 -260097 -66577
0;
#X obj 70 118 cyclone/speedlim 100;
#X obj 191 261 outlet;
#X text 169 278 Pitch 0..127;
#X text 344 281 Pitch 0..127;
#X obj 105 214 cnv 15 60 30 empty empty empty 20 12 0 14 -24198 -66577
0;
#N canvas 484 213 591 346 Help 0;
#X obj 22 84 cnv 15 550 230 empty empty empty 20 12 0 14 -233017 -66577
0;
#X text 25 83 Citation;
#X obj 32 98 pddp/pddplink http://www.algorithmiccomposer.com/2010/05/algorithmic-composition-tutorial-markov.html
;
#X text 15 21 MM MIDI-Markov1;
#X text 31 119 Algorithmic Composition: Markov Chains in PureData;
#X text 28 138 "Markov Chains choose the next state based on the current
state and a set of probabilities. Mapped to pitch this would involve
choosing our next note based on our current note and a list of possible
next notes and their probabilities.";
#X text 27 207 "Today we're looking at automatically analysing a MIDI
file in PureData to create a first order STM (state transition matrix
) \, then generating some simple algorithmic music compositions from
this. In this first example we'll just build our model to include pitch
but you can easily extend this to include rhythm \, dynamics or other
musical parameters.";
#X text 474 295 POSTED BY ACUMA;
#X text 20 43 This module is fully inspired by the work of "ACUMA"
;
#X text 91 55 Ce module est entierement inspir du travail de "ACUMA"
;
#X restore 112 220 pd Help;
#X obj 432 21 loadbang;
#X obj 432 47 delay 300;
#X obj 284 170 t b b;
#N canvas 367 365 244 216 pitch 0;
#X obj 97 20 inlet;
#X obj 97 69 unpack;
#X obj 97 97 stripnote;
#X text 16 82 MIDI pitch <-;
#X obj 97 161 outlet;
#X text 93 178 Pitch;
#X obj 97 44 cyclone/midiparse;
#X connect 0 0 6 0;
#X connect 1 0 2 0;
#X connect 1 1 2 1;
#X connect 2 0 4 0;
#X connect 6 0 1 0;
#X restore 191 77 pd pitch;
#X obj 503 269 cnv 15 42 25 empty empty empty 20 12 0 14 -24198 -66577
0;
#N canvas 336 174 316 152 ?. 0;
#X obj 8 84 cnv 15 300 56 empty empty empty 20 12 0 14 -224896 -66577
0;
#X obj 8 7 cnv 18 300 70 empty empty ARGOPdMiniModules 3 10 1 14 -4033
-1 1.04858e+06;
#X obj 31 27 cnv 10 10 10 empty empty Gerard 0 5 1 11 -4033 -1 1.04858e+06
;
#X obj 69 27 cnv 10 10 10 empty empty Paresys 0 5 1 11 -4033 -1 1.04858e+06
;
#X obj 12 40 pddp/pddplink http://gerard.paresys.free.fr/ARGOPd/;
#X text 13 85 Construit sous / Build under Pd 0.43.4-extended;
#X obj 13 111 pddp/pddplink http://puredata.info/downloads/pd-extended
;
#X obj 12 53 pddp/pddplink http://paresys.pagesperso-orange.fr/ARGOPd/
;
#X text 12 98 or Pd-0.48;
#X obj 13 124 pddp/pddplink http://puredata.info/downloads/pure-data
;
#X restore 507 273 pd ?.;
#X text 408 100 8 6 2018;
#X obj 466 118 cnv 15 100 60 empty empty empty 20 12 0 14 -24198 -66577
0;
#X text 492 122 library:;
#X text 473 134 pddp;
#X text 473 146 cyclone;
#X text 474 158 zexy;
#X connect 0 0 6 0;
#X connect 4 0 6 1;
#X connect 6 0 38 0;
#X connect 16 0 21 0;
#X connect 19 0 18 1;
#X connect 20 0 37 0;
#X connect 21 0 24 0;
#X connect 21 0 25 0;
#X connect 22 0 16 0;
#X connect 25 0 27 0;
#X connect 26 0 21 1;
#X connect 29 0 11 0;
#X connect 35 0 36 0;
#X connect 36 0 26 0;
#X connect 37 0 18 1;
#X connect 37 1 18 2;
#X connect 38 0 18 0;
#X connect 38 0 29 0;
#X connect 38 0 30 0;
#X coords 0 -1 1 1 200 54 1 200 100;
#X restore 533 245 pd MIDICtrlChange;
#N canvas 37 262 349 279 MIDICtrlChange 0;
#X obj 101 101 cnv 10 125 43 empty ColorMIDI OutNote. 63 25 1 14 -262103
-1 1.04858e+06;
#X obj 204 106 nbx 2 12 1 16 0 1 \$0-A ColorMIDI empty 0 0 1 9 -262103
-1 -1 1 256;
#X obj 112 133 nbx 2 12 1 4 0 1 \$0-A ColorMIDI empty 0 0 1 9 -262103
-1 -1 1 256;
#X obj 137 134 cnv 9 9 9 empty ColorMIDI Port 0 5 1 9 -262103 -1 1.04858e+06
;
#X obj 100 106 nbx 3 12 0 127 0 1 \$0-A ColorMIDI empty 0 0 1 9 -208064
-1 -1 71 256;
#X text 92 30 Pitch;
#X text 141 28 Velocity;
#X obj 101 101 cnv 4 10 4 empty empty empty 20 12 0 14 -260097 -66577
0;
#X obj 216 101 cnv 4 10 4 empty empty empty 20 12 0 14 -260097 -66577
0;
#X obj 151 106 nbx 3 12 0 127 0 1 \$0-A ColorMIDI empty 0 0 1 9 -261299
-1 -1 100 256;
#X obj 100 133 bng 12 50 50 0 \$0-A \$0-B empty 6 9 0 9 -257985 -260097
-1;
#X text 88 45 0..127;
#X obj 143 233 noteout;
#X text 236 132 Duration;
#X obj 91 64 inlet;
#X text 148 42 0..127;
#X obj 151 61 inlet;
#X obj 182 195 expr 16*($f1-1) + ($f2);
#X obj 204 157 t b f;
#X obj 42 93 t b f;
#X obj 54 172 int;
#X obj 209 61 inlet;
#X text 204 29 Channel;
#X text 207 42 1..16;
#X obj 159 101 cnv 4 10 4 empty empty empty 20 12 0 14 -260097 -66577
0;
#X obj 13 38 cnv 15 60 30 empty empty empty 20 12 0 14 -24198 -66577
0;
#N canvas 539 88 425 435 Help 0;
#X obj 10 37 cnv 15 400 360 empty empty empty 20 12 0 14 -233017 -66577
0;
#X text 13 39 Citation;
#X text 10 14 MM MIDI-OutNote;
#X text 26 58 - send note-on messages and schedule note-off for later
;
#X text 40 83 Makenote makes MIDI-style note-on/note-off pairs \, which
you can use for MIDI output or to drive note-like processes within
Pd.;
#X text 41 133 numbers at left are "pitches" which may be integers
or not.;
#X restore 20 44 pd Help;
#X obj 285 225 cnv 15 42 25 empty empty empty 20 12 0 14 -24198 -66577
0;
#N canvas 336 174 316 152 ?. 0;
#X obj 8 84 cnv 15 300 56 empty empty empty 20 12 0 14 -224896 -66577
0;
#X obj 8 7 cnv 18 300 70 empty empty ARGOPdMiniModules 3 10 1 14 -4033
-1 1.04858e+06;
#X obj 31 27 cnv 10 10 10 empty empty Gerard 0 5 1 11 -4033 -1 1.04858e+06
;
#X obj 69 27 cnv 10 10 10 empty empty Paresys 0 5 1 11 -4033 -1 1.04858e+06
;
#X obj 12 40 pddp/pddplink http://gerard.paresys.free.fr/ARGOPd/;
#X text 13 85 Construit sous / Build under Pd 0.43.4-extended;
#X obj 13 111 pddp/pddplink http://puredata.info/downloads/pd-extended
;
#X obj 12 53 pddp/pddplink http://paresys.pagesperso-orange.fr/ARGOPd/
;
#X text 12 98 or Pd-0.48;
#X obj 13 124 pddp/pddplink http://puredata.info/downloads/pure-data
;
#X restore 289 229 pd ?.;
#X text 237 113 22 6 2018;
#X connect 1 0 18 0;
#X connect 2 0 17 0;
#X connect 4 0 12 0;
#X connect 9 0 12 1;
#X connect 10 0 20 0;
#X connect 14 0 19 0;
#X connect 16 0 9 0;
#X connect 17 0 12 2;
#X connect 18 0 17 0;
#X connect 18 1 17 1;
#X connect 19 0 10 0;
#X connect 19 1 20 1;
#X connect 20 0 4 0;
#X connect 21 0 1 0;
#X coords 0 -1 1 1 127 45 1 100 100;
#X restore 264 268 pd MIDICtrlChange;
#N canvas 589 329 325 192 ARGO 0;
#X obj 101 101 cnv 3 118 13 empty empty empty 20 12 0 14 -262103 -1
0;
#X obj 154 103 cnv 10 20 10 empty ColorAmpli MIDINote. 1 5 1 14 -262103
-1 1.04858e+06;
#X obj 101 101 bng 12 250 50 0 \$0-A \$0-B E3 14 8 1 14 -262144 -1
-1;
#X obj 102 102 cnv 4 10 4 empty empty empty 20 12 0 14 -260097 -66577
0;
#X obj 102 37 inlet;
#N canvas 407 241 539 315 pitchb 0;
#X obj 70 111 mod 12;
#X obj 70 135 sel 0 1 2 3 4 5 6 7 8 9 10 11;
#X msg 246 170 A;
#X msg 300 170 B;
#X msg 192 170 G;
#X msg 3 170 C;
#X msg 57 170 D;
#X msg 111 170 E;
#X msg 138 170 F;
#X obj 204 1 inlet;
#X obj 377 115 div 12;
#X obj 204 79 t f f;
#X text 334 190 -> Numero de l'octave;
#X text 213 64 -> Numero MIDI de la note (69 = A3 = 440Hz);
#X msg 260 260 label \$1;
#X obj 260 283 outlet;
#X msg 30 170 Db;
#X msg 84 170 Eb;
#X msg 165 170 Gb;
#X msg 219 170 Ab;
#X msg 273 170 Bb;
#X text 369 78 (70 = A#3 = Bb3);
#X obj 260 238 symbol;
#X text 11 231 Impossible d'afficher # dans un label;
#X text 11 243 donc j'affiche b;
#X obj 204 51 int;
#X text 255 23 -> pour corriger certaines erreurs de calcul;
#X obj 204 25 + 120.1;
#X obj 377 144 - 12;
#X text 255 35 et le pb du passage a zero de mod 12;
#X obj 260 213 cyclone/sprintf %s%d;
#X connect 0 0 1 0;
#X connect 1 0 5 0;
#X connect 1 1 16 0;
#X connect 1 2 6 0;
#X connect 1 3 17 0;
#X connect 1 4 7 0;
#X connect 1 5 8 0;
#X connect 1 6 18 0;
#X connect 1 7 4 0;
#X connect 1 8 19 0;
#X connect 1 9 2 0;
#X connect 1 10 20 0;
#X connect 1 11 3 0;
#X connect 2 0 30 0;
#X connect 3 0 30 0;
#X connect 4 0 30 0;
#X connect 5 0 30 0;
#X connect 6 0 30 0;
#X connect 7 0 30 0;
#X connect 8 0 30 0;
#X connect 9 0 27 0;
#X connect 10 0 28 0;
#X connect 11 0 0 0;
#X connect 11 1 10 0;
#X connect 14 0 15 0;
#X connect 16 0 30 0;
#X connect 17 0 30 0;
#X connect 18 0 30 0;
#X connect 19 0 30 0;
#X connect 20 0 30 0;
#X connect 22 0 14 0;
#X connect 25 0 11 0;
#X connect 27 0 25 0;
#X connect 28 0 30 1;
#X connect 30 0 22 0;
#X restore 113 68 pd pitchb;
#X obj 244 93 cnv 15 42 25 empty empty empty 20 12 0 14 -24198 -66577
0;
#N canvas 336 174 316 152 ?. 0;
#X obj 8 84 cnv 15 300 56 empty empty empty 20 12 0 14 -224896 -66577
0;
#X obj 8 7 cnv 18 300 70 empty empty ARGOPdMiniModules 3 10 1 14 -4033
-1 1.04858e+06;
#X obj 31 27 cnv 10 10 10 empty empty Gerard 0 5 1 11 -4033 -1 1.04858e+06
;
#X obj 69 27 cnv 10 10 10 empty empty Paresys 0 5 1 11 -4033 -1 1.04858e+06
;
#X obj 12 40 pddp/pddplink http://gerard.paresys.free.fr/ARGOPd/;
#X text 13 85 Construit sous / Build under Pd 0.43.4-extended;
#X obj 13 111 pddp/pddplink http://puredata.info/downloads/pd-extended
;
#X obj 12 53 pddp/pddplink http://paresys.pagesperso-orange.fr/ARGOPd/
;
#X text 12 98 or Pd-0.48;
#X obj 13 124 pddp/pddplink http://puredata.info/downloads/pure-data
;
#X restore 248 97 pd ?.;
#X text 177 82 22 6 2018;
#X connect 4 0 5 0;
#X connect 4 0 2 0;
#X connect 5 0 2 0;
#X coords 0 -1 1 1 120 15 2 100 100;
#X restore 396 268 pd ARGO;
#N canvas 197 155 714 442 ARGO 0;
#X obj 6 70 openpanel;
#X msg 46 116 set \$1;
#X obj 333 175 sel 1;
#X obj 84 18 loadbang;
#X obj 147 296 delay 5;
#X obj 6 48 bang;
#X obj 49 199 cnv 15 400 50 empty empty empty 20 12 0 14 -260097 -66577
0;
#X text 51 198 Nom du fichier / File name;
#X text 451 207 <- Ajouter ../ devant le nom du fichier \; pour remonter
d'un dossier;
#X obj 570 45 cnv 15 60 30 empty empty empty 20 12 0 14 -24198 -66577
0;
#N canvas 500 185 424 379 Help 0;
#X obj 8 31 cnv 15 400 200 empty empty empty 20 12 0 14 -233017 -66577
0;
#X text 11 30 Citation;
#X text 25 62 cyclone's [seq] input accepts midi files and realtime
midi messages through [midiin]. All trakcs of a multi-track midi file
are merged into one. [notein] doesn't work. Left inlet outputs midi
data to [midiout]. [noteout] doesn't work. Right inlet outputs a bang
message at the sequence's end \, useful for loops. [seq] has his own
midi list editor.;
#X text 25 45 seq - a simple MIDI file player and recorder;
#X text 6 3 MM MIDI-Play;
#X text 25 174 ver 0.1 05-07;
#X text 25 146 Click object to open list editor;
#X obj 118 175 pddp/pddplink http://jkant.altervista.org/;
#X text 15 248 - Si le Patch est sauv avec 1 Player contenant un nom
de fichier \, ce fichier sera lu automatiquement  la prochaine ouverture
s'il n'a pas chang d'emplacement.;
#X text 14 294 - Peut Ouvrir automatiquement 1 fichier qui se trouve
dans le mme dossier que lui \, quelquesoit l'emplacement du dossier.
Pour cela ouvrir le module et taper le nom du fichier (sans chemin
d'accs) dans le message. Le dossier contenant le patch et le fichier
est ainsi transportable.;
#X restore 577 51 pd Help;
#X obj 333 149 f;
#X obj 7 90 t b b s;
#X obj 383 404 cnv 15 240 24 empty empty empty 20 12 0 14 -261682 -66577
0;
#X text 433 402 -> Bang  la fin du fichier;
#X text 434 412 -> Bang at the end of the file;
#X obj 388 408 outlet;
#X obj 196 340 cyclone/seq, f 14;
#X msg 87 296 read \$1;
#X obj 101 101 cnv 5 290 41 empty ColorMIDI Play. 258 6 1 14 -262103
-1 1.04858e+06;
#X obj 190 101 tgl 12 1 \$0-A \$0-B Pause 14 7 1 9 -257985 -1 -1 0
1;
#X obj 311 101 bng 12 250 50 0 \$0-A \$0-B Stop 15 7 1 9 -257985 -1
-1;
#X obj 249 101 tgl 12 1 \$0-A \$0-B Loop 15 7 1 9 -257985 -1 -1 0 1
;
#X text 75 81 Trig Decl;
#X obj 380 130 bng 12 50 20 0 \$0-A \$0-B empty 14 6 1 9 -262144 -1
-1;
#X obj 381 137 cnv 4 10 4 empty empty empty 20 12 0 14 -260097 -66577
0;
#X obj 100 130 bng 12 50 20 0 \$0-A \$0-B empty 14 6 1 9 -257985 -1
-1;
#X obj 101 137 cnv 4 10 4 empty empty empty 20 12 0 14 -260097 -66577
0;
#X obj 100 101 bng 12 250 50 0 \$0-A \$0-B Play 15 7 1 9 -257985 -1
-1;
#X obj 218 265 select 0 1;
#X msg 351 296 stop;
#X msg 262 296 pause;
#X msg 200 296 continue;
#X obj 77 405 cnv 15 240 24 empty empty empty 20 12 0 14 -261682 -66577
0;
#X obj 85 408 outlet;
#X text 127 403 -> Vers MM-MIDI-Out;
#X text 128 413 -> To MM-MIDI-Out;
#X obj 161 382 cyclone/speedlim 100;
#X msg 190 74 set 0;
#X text 271 339 <- 2 x Clic l'objet seq pour afficher la sequence MIDI
;
#X msg 305 296 print;
#X obj 147 130 bng 12 250 50 0 \$0-A \$0-B Print-beginning 15 7 1 9
-257985 -1 -1;
#X obj 171 50 t b b b;
#X msg 18 296 set \$1;
#X obj 147 158 t b b;
#X obj 18 265 zexy/list2symbol;
#X obj 633 403 cnv 15 42 25 empty empty empty 20 12 0 14 -24198 -66577
0;
#N canvas 336 174 316 152 ?. 0;
#X obj 8 84 cnv 15 300 56 empty empty empty 20 12 0 14 -224896 -66577
0;
#X obj 8 7 cnv 18 300 70 empty empty ARGOPdMiniModules 3 10 1 14 -4033
-1 1.04858e+06;
#X obj 31 27 cnv 10 10 10 empty empty Gerard 0 5 1 11 -4033 -1 1.04858e+06
;
#X obj 69 27 cnv 10 10 10 empty empty Paresys 0 5 1 11 -4033 -1 1.04858e+06
;
#X obj 12 40 pddp/pddplink http://gerard.paresys.free.fr/ARGOPd/;
#X text 13 85 Construit sous / Build under Pd 0.43.4-extended;
#X obj 13 111 pddp/pddplink http://puredata.info/downloads/pd-extended
;
#X obj 12 53 pddp/pddplink http://paresys.pagesperso-orange.fr/ARGOPd/
;
#X text 12 98 or Pd-0.48;
#X obj 13 124 pddp/pddplink http://puredata.info/downloads/pure-data
;
#X restore 637 407 pd ?.;
#X obj 405 26 cnv 15 100 60 empty empty empty 20 12 0 14 -24198 -66577
0;
#X text 431 30 library:;
#X text 412 42 pddp;
#X text 412 54 cyclone;
#X text 413 66 zexy;
#X obj 103 114 hsl 275 14 0 127 0 0 \$0-A \$0-B empty -2 -8 0 10 -262144
-262144 -1 0 1;
#X text 396 114 <- Click the name to change;
#X symbolatom 100 114 48 0 0 0 - - -;
#X msg 53 217 jazz.mid;
#X msg 390 296 click 0 0 0 0 0 0;
#X obj 272 130 bng 12 250 50 0 \$0-A \$0-B Display 15 7 1 9 -257985
-1 -1;
#X text 335 84 22 6 2018;
#X connect 0 0 12 0;
#X connect 1 0 56 0;
#X connect 2 0 28 0;
#X connect 3 0 56 0;
#X connect 4 0 17 0;
#X connect 5 0 0 0;
#X connect 11 0 2 0;
#X connect 12 1 56 0;
#X connect 12 2 1 0;
#X connect 17 0 34 0;
#X connect 17 0 37 0;
#X connect 17 1 24 0;
#X connect 18 0 17 0;
#X connect 20 0 29 0;
#X connect 21 0 30 0;
#X connect 22 0 11 1;
#X connect 24 0 16 0;
#X connect 24 0 11 0;
#X connect 28 0 42 0;
#X connect 29 0 32 0;
#X connect 29 1 31 0;
#X connect 30 0 17 0;
#X connect 31 0 17 0;
#X connect 32 0 17 0;
#X connect 37 0 26 0;
#X connect 38 0 20 0;
#X connect 40 0 17 0;
#X connect 41 0 44 0;
#X connect 42 0 4 0;
#X connect 42 1 38 0;
#X connect 42 2 55 0;
#X connect 43 0 55 0;
#X connect 44 0 40 0;
#X connect 44 1 55 0;
#X connect 45 0 43 0;
#X connect 53 0 5 0;
#X connect 55 0 18 0;
#X connect 56 0 45 0;
#X connect 57 0 17 0;
#X connect 58 0 57 0;
#X coords 0 -1 1 1 292 43 2 100 100;
#X restore 533 178 pd ARGO;
#N canvas 435 86 330 273 MIDI 0;
#X obj 91 22 inlet;
#X text 96 2 MIDI;
#X text 9 22 MM MIDI-Out;
#X obj 91 135 midiout;
#X obj 131 75 cyclone/speedlim 100;
#X obj 101 101 cnv 5 125 15 empty ColorMIDI Out. 96 8 1 14 -262103
-1 1.04858e+06;
#X obj 131 103 bng 12 50 50 0 \$0-A \$0-B empty 6 9 0 9 -257985 -260097
-1;
#X obj 143 103 nbx 2 12 1 4 0 1 \$0-A ColorMIDI Port 25 7 1 9 -262103
-1 -1 1 256;
#X obj 100 100 tgl 12 1 \$0-A \$0-B On 14 7 1 9 -257985 -1 -1 0 1;
#X obj 101 101 cnv 4 10 4 empty empty empty 20 12 0 14 -260097 -66577
0;
#X obj 91 53 spigot;
#X text 129 19 <- From MM-MIDI-Play;
#X text 178 44 Object cyclone/seq;
#X text 178 32 Object midiin;
#X text 178 8 MM-MIDI-In;
#X obj 19 82 cnv 15 60 30 empty empty empty 20 12 0 14 -24198 -66577
0;
#N canvas 500 185 423 171 Help 0;
#X obj 11 34 cnv 15 400 100 empty empty empty 20 12 0 14 -233017 -66577
0;
#X text 14 33 Citation;
#X text 9 6 MM MIDI-Out;
#X text 40 54 use this to output raw MIDI;
#X text 35 74 (the second inlet is the port;
#X text 38 92 number.);
#X text 11 139 cf ExMM85c-MIDI-Play-MIDIFile.pd;
#X restore 26 88 pd Help;
#X text 232 100 25 6 2018;
#X obj 271 232 cnv 15 42 25 empty empty empty 20 12 0 14 -24198 -66577
0;
#N canvas 336 174 316 152 ?. 0;
#X obj 8 84 cnv 15 300 56 empty empty empty 20 12 0 14 -224896 -66577
0;
#X obj 8 7 cnv 18 300 70 empty empty ARGOPdMiniModules 3 10 1 14 -4033
-1 1.04858e+06;
#X obj 31 27 cnv 10 10 10 empty empty Gerard 0 5 1 11 -4033 -1 1.04858e+06
;
#X obj 69 27 cnv 10 10 10 empty empty Paresys 0 5 1 11 -4033 -1 1.04858e+06
;
#X obj 12 40 pddp/pddplink http://gerard.paresys.free.fr/ARGOPd/;
#X text 13 85 Construit sous / Build under Pd 0.43.4-extended;
#X obj 13 111 pddp/pddplink http://puredata.info/downloads/pd-extended
;
#X obj 12 53 pddp/pddplink http://paresys.pagesperso-orange.fr/ARGOPd/
;
#X text 12 98 or Pd-0.48;
#X obj 13 124 pddp/pddplink http://puredata.info/downloads/pure-data
;
#X restore 275 236 pd ?.;
#X obj 17 154 cnv 15 300 105 empty empty empty 20 12 0 14 -258113 -66577
0;
#X text 22 164 MIDI Out fonctionne sous: works under:;
#X text 22 205 MIDI Out ne fonctionne pas: does not work under:;
#X text 49 180 - Pd-0.43.4-extended + MacOS;
#X text 49 220 - Pd-0.43.4-extended + Ubuntu;
#X text 49 234 - Pd-0.43.4-extended + Windows;
#X text 49 192 - Pd-0.48 + MacOS;
#X obj 279 238 cnv 15 42 25 empty empty empty 20 12 0 14 -24198 -66577
0;
#N canvas 336 174 316 152 ?. 0;
#X obj 8 84 cnv 15 300 56 empty empty empty 20 12 0 14 -224896 -66577
0;
#X obj 8 7 cnv 18 300 70 empty empty ARGOPdMiniModules 3 10 1 14 -4033
-1 1.04858e+06;
#X obj 31 27 cnv 10 10 10 empty empty Gerard 0 5 1 11 -4033 -1 1.04858e+06
;
#X obj 69 27 cnv 10 10 10 empty empty Paresys 0 5 1 11 -4033 -1 1.04858e+06
;
#X obj 12 40 pddp/pddplink http://gerard.paresys.free.fr/ARGOPd/;
#X text 13 85 Construit sous / Build under Pd 0.43.4-extended;
#X obj 13 111 pddp/pddplink http://puredata.info/downloads/pd-extended
;
#X obj 12 53 pddp/pddplink http://paresys.pagesperso-orange.fr/ARGOPd/
;
#X text 12 98 or Pd-0.48;
#X obj 13 124 pddp/pddplink http://puredata.info/downloads/pure-data
;
#X restore 283 242 pd ?.;
#X connect 0 0 10 0;
#X connect 4 0 6 0;
#X connect 7 0 3 1;
#X connect 8 0 10 1;
#X connect 10 0 3 0;
#X connect 10 0 4 0;
#X coords 0 -1 1 1 127 17 1 100 100;
#X restore 534 305 pd MIDI;
#X text 8 379 ExMM87-MIDI-Keyboard;
#X text 532 220 ExMM85-MIDI-Play-MIDIFile;
#X obj 981 387 cnv 15 52 22 empty empty empty 20 12 0 14 -24198 -66577
0;
#N canvas 353 174 321 152 ?... 0;
#X obj 8 84 cnv 15 300 56 empty empty empty 20 12 0 14 -224896 -66577
0;
#X obj 8 7 cnv 18 300 70 empty empty ARGOPdMiniModules 3 10 1 14 -4033
-1 1.04858e+06;
#X obj 31 27 cnv 10 10 10 empty empty Gerard 0 5 1 11 -4033 -1 1.04858e+06
;
#X obj 69 27 cnv 10 10 10 empty empty Paresys 0 5 1 11 -4033 -1 1.04858e+06
;
#X obj 12 40 pddp/pddplink http://gerard.paresys.free.fr/ARGOPd/;
#X obj 13 121 pddp/pddplink http://puredata.info/downloads/pd-extended
;
#X obj 13 97 pddp/pddplink http://puredata.info/downloads/pure-data
;
#X text 13 85 Construit sous / Build under Pd-0.49...;
#X text 12 109 or Pd 0.43.4-extended;
#X obj 12 53 pddp/pddplink https://paresys.pagesperso-orange.fr/ARGOPd/
;
#X restore 984 390 pd ?...;
#X text 531 157 ExMM82a-MIDI-In-Out;
#X text 532 320 ExMM82a-MIDI-In-Out;
#X text 131 221 ExMM83-MIDI-In-Korg-nanoPAD;
