#N canvas 249 34 621 608 10;
#X obj 167 67;
#X text 17 66 1 Menu Put -> Object ->;
#N canvas 0 22 450 300 MM 0;
#X coords 0 -1 1 1 85 60 1;
#X restore 486 96 pd MM;
#X text 17 117 3 Clic droit sur pd MM -> Properties -> Clic graph on
parent;
#X text 243 392 -> Clic hide object name and arguments;
#N canvas 0 22 450 300 MM 0;
#X restore 289 92 pd MM;
#X text 17 92 2 Taper pd MM (par exemple) -> on obtient ->;
#X text 383 118 -> On obtient ->;
#X text 17 191 4 Clic droit sur pd MM -> Open -> Ajouter par exemple
->;
#N canvas 324 197 342 250 MM 0;
#X obj 13 3 inlet;
#X obj 14 25 nbx 5 14 -1e+37 1e+37 0 0 empty empty empty 0 -8 0 10
-262144 -1 -1 0 256;
#X obj 14 49 outlet;
#X text 34 39 comment;
#X connect 0 0 1 0;
#X connect 1 0 2 0;
#X coords 0 -1 1 1 85 60 1 0 0;
#X restore 522 170 pd MM;
#X text 419 193 -> On obtient ->;
#X text 36 250 Seuls les objets graphiques comme Number2 apparaissent
s'ils s'inscrivent completement dand le rectangle rouge;
#X text 36 277 Un inlet (Entrée) et un outlet (Sortie) sont créés;
#X text 36 290 On peut relier le MiniModule à d'autres objets ou MiniModules
;
#X obj 437 257 hsl 128 15 0 127 0 0 empty empty empty -2 -8 0 10 -262144
-1 -1 0 1;
#X obj 434 357 print;
#X text 17 379 5 Cosmétique;
#X text 40 391 Clic droit sur pd MM -> Properties;
#X text 41 405 Ajouter des petits Canvas dans Pd MM ->;
#X obj 281 412 cnv 4 10 4 empty empty empty 20 12 0 14 -260097 -66577
0;
#X obj 299 412 cnv 4 10 4 empty empty empty 20 12 0 14 -1 -66577 0
;
#X obj 316 412 cnv 2 10 4 empty empty empty 20 12 0 14 -1 -66577 0
;
#X obj 317 413 cnv 2 8 2 empty empty empty 20 12 0 14 -262144 -66577
0;
#X text 334 406 pour marquer les Entrées/Sorties;
#N canvas 324 197 342 250 MM 0;
#X obj 13 3 inlet;
#X obj 14 25 nbx 5 14 -1e+37 1e+37 0 0 empty empty empty 0 -8 0 10
-262144 -1 -1 0 256;
#X obj 14 49 outlet;
#X obj 1 1 cnv 4 10 4 empty empty empty 20 12 0 14 -260097 -66577 0
;
#X obj 1 55 cnv 4 10 4 empty empty empty 20 12 0 14 -260097 -66577
0;
#X text 34 41 comment;
#X connect 0 0 1 0;
#X connect 1 0 2 0;
#X coords 0 -1 1 1 85 60 2 0 0;
#X restore 290 433 pd MM;
#X obj 359 172 inlet;
#X obj 360 194 nbx 5 14 -1e+37 1e+37 0 0 empty empty empty 0 -8 0 10
-262144 -1 -1 0 256;
#X obj 360 218 outlet;
#X text 380 208 comment;
#N canvas 324 197 342 250 MM 0;
#X obj 13 3 inlet;
#X obj 14 25 nbx 5 14 -1e+37 1e+37 0 0 empty empty empty 0 -8 0 10
-262144 -1 -1 0 256;
#X obj 14 49 outlet;
#X text 34 39 comment;
#X connect 0 0 1 0;
#X connect 1 0 2 0;
#X coords 0 -1 1 1 85 60 1 0 0;
#X restore 436 282 pd MM;
#X text 17 44 0 Pd-0.41.4-extended;
#X text 0 17 Comment-faire-un-MiniModuleARGO.pd;
#X text 18 509 6 Sauver un MiniModule en sauvant le patch qui le contient.
;
#X text 18 530 7 Dans les minimodules éviter les objets:;
#X text 48 544 send receive send~ receive~ throw~ catch~.;
#X text 28 557 Ils empechent de mettre 2 fois le meme MniModule dans
un patch.;
#X connect 14 0 29 0;
#X connect 25 0 26 0;
#X connect 26 0 27 0;
#X connect 29 0 15 0;
