#N canvas 161 42 780 708 10;
#X obj 386 183 noise~;
#X obj 386 207 *~ 0.2;
#X obj 386 263 gQ~ 12 0;
#X floatatom 460 41 5 0 0 0 - - -;
#X obj 463 31 hsl 128 8 20 18000 0 0 empty empty empty -2 -6 0 8 -262144
-1 -1 4811 1;
#X text 496 39 cf;
#X floatatom 460 72 5 0 0 0 - - -;
#X obj 463 62 hsl 128 8 0 0.1 0 0 empty empty empty -2 -6 0 8 -262144
-1 -1 0 1;
#X floatatom 460 103 5 0 0 0 - - -;
#X obj 463 93 hsl 128 8 0 60 0 0 empty empty empty -2 -6 0 8 -262144
-1 -1 3587 1;
#X floatatom 460 134 5 0 0 0 - - -;
#X obj 463 124 hsl 128 8 20 20000 0 0 empty empty empty -2 -6 0 8 -262144
-1 -1 2800 1;
#X text 496 71 bw (mult of cf);
#X text 494 101 gain multiplier;
#X text 494 134 test response freq;
#X floatatom 473 380 5 0 0 0 - - -;
#X floatatom 507 380 5 0 0 0 - - -;
#X floatatom 541 380 5 0 0 0 - - -;
#X obj 473 351 unpack 1 1 1 1;
#X floatatom 414 303 10 0 0 0 - - -;
#X floatatom 420 457 0 0 100 0 - - -;
#X msg 439 456 mute;
#X text 18 241 computer music;
#X text 18 250 center \, columbia;
#X text 19 258 university;
#N canvas 331 136 800 635 outputs 0;
#X obj 455 510 t b;
#X obj 455 450 f;
#X obj 455 390 inlet;
#X obj 455 540 f;
#X msg 566 532 0;
#X msg 455 420 bang;
#X obj 455 480 moses 1;
#X obj 566 502 t b f;
#X obj 535 460 moses 1;
#X obj 107 121 dbtorms;
#X obj 535 430 r master-lvl;
#X obj 107 28 r master-lvl;
#X obj 455 570 s master-lvl;
#X obj 36 228 inlet~;
#X obj 250 258 inlet;
#X obj 268 283 s master-lvl;
#X msg 119 57 set \$1;
#X obj 119 87 outlet;
#X msg 250 309 \; pd dsp 1;
#X obj 107 181 line~;
#X obj 36 258 *~;
#X obj 36 288 dac~;
#X obj 107 151 pack 0 50;
#X text 23 205 audio in;
#X text 2 313 out both channels;
#X text 273 182 Level input. Send to master-lvl and start DSP (we infer
that if you're changing the level you want to hear the network.) If
you start DSP when it's already running there's no effect.;
#X text 59 542 here is the previous nonzero master-lvl -->;
#X text 98 451 recall previous value of master-lvl -->;
#X text 239 482 test if less than 1 -->;
#X text 203 510 if true convert to bang -->;
#X text 218 351 Mute control. If the master level is zero \, restore
to the last nonzero one \, otherwise zero it.;
#X text 182 86 <-- update the number box to show new level;
#X text 178 120 <-- convert from dB to linear units;
#X text 196 150 <-- make a smooth ramp to avoid clicks or zipper noise
;
#X text 333 318 <-- automatically start DSP;
#X obj 95 228 inlet~;
#X obj 95 258 *~;
#X connect 0 0 3 0;
#X connect 1 0 6 0;
#X connect 2 0 5 0;
#X connect 3 0 12 0;
#X connect 4 0 12 0;
#X connect 5 0 1 0;
#X connect 6 0 0 0;
#X connect 6 1 7 0;
#X connect 7 0 4 0;
#X connect 8 1 3 1;
#X connect 9 0 22 0;
#X connect 10 0 1 1;
#X connect 10 0 8 0;
#X connect 11 0 9 0;
#X connect 11 0 16 0;
#X connect 13 0 20 0;
#X connect 14 0 15 0;
#X connect 14 0 18 0;
#X connect 16 0 17 0;
#X connect 19 0 20 1;
#X connect 19 0 36 1;
#X connect 20 0 21 0;
#X connect 22 0 19 0;
#X connect 35 0 36 0;
#X connect 36 0 21 1;
#X restore 384 478 pd outputs;
#X text 12 2 gQ~;
#X text 12 16 stereo filter;
#X text 13 42 gQ~ is the pd implementation of dan's gQ equalizer;
#X text 14 52 for silicon graphics workstations. you control the center
;
#X text 14 62 frequency \, bandwidth \, and boost of the filter. an
;
#X text 13 71 additional inlet is given to test the response of the
filter;
#X text 14 81 at a given frequency.;
#X text 14 96 gQ was one of the first digital eq filters to work in
;
#X text 14 104 realtime. one of the nice features of the filter is
that it;
#X text 14 113 completely decouples the three primary parameters \,
so;
#X text 14 122 adjusting one won't affect the others (this is actually
;
#X text 14 131 quite tricky \, and most filters of this type have coupled
;
#X text 16 140 parameters.);
#X text 16 157 for more information about the original gQ and the filter
;
#X text 16 166 design \, see http://www.music.princeton.edu/~dan/;
#X text 18 175 gQpage/gQ.html;
#X msg 61 405 clear;
#X msg 60 441 clearsettings;
#X text 301 263 use 12 banks;
#X text 99 298 choose which eq bank to alter;
#X msg 58 319 setbank \$1;
#X floatatom 58 300 5 1 12 0 - - -;
#X obj 345 236 r msgs;
#X obj 33 492 s msgs;
#X text 81 353 ...or explicitly set a bank's coefficients;
#X obj 60 353 bng 15 250 50 0 empty empty empty 0 -6 0 8 -262144 -1
-1;
#X text 453 291 amplitude of test response;
#X text 452 301 frequency with current settings;
#X text 472 396 selected bank's cf \, bw and gain values;
#X text 19 232 by dan truman \,;
#N canvas 0 0 566 503 presets 0;
#X obj 220 6 inlet;
#X obj 220 43 sel 0 1 2 3 4 5 6 7;
#X obj 79 259 s msgs;
#X obj 79 78 bng 15 250 50 0 empty empty empty 0 -6 0 8 -262144 -1
-1;
#X obj 233 259 s msgs;
#X obj 233 78 bng 15 250 50 0 empty empty empty 0 -6 0 8 -262144 -1
-1;
#X obj 388 259 s msgs;
#X obj 388 78 bng 15 250 50 0 empty empty empty 0 -6 0 8 -262144 -1
-1;
#X msg 388 100 updatebank 1 200 0.1 1;
#X msg 388 233 updatebank 8 14320 0.1 1;
#X msg 388 214 updatebank 7 10300 0.1 1;
#X msg 388 195 updatebank 6 7376 0.1 1;
#X msg 388 176 updatebank 5 3680 0.1 1;
#X msg 388 157 updatebank 4 1765 0.1 1;
#X msg 388 138 updatebank 3 870 0.1 1;
#X msg 388 119 updatebank 2 420 0.1 1;
#X msg 79 100 updatebank 1 300 0.1 10;
#X msg 79 119 updatebank 2 600 0.1 10;
#X msg 79 138 updatebank 3 1200 0.1 10;
#X msg 79 157 updatebank 4 2400 0.1 10;
#X msg 79 176 updatebank 5 4800 0.1 10;
#X msg 79 195 updatebank 6 9600 0.1 10;
#X msg 79 214 updatebank 7 150 0.1 10;
#X msg 79 233 updatebank 8 75 0.1 10;
#X msg 233 100 updatebank 1 135 0.01 10;
#X msg 233 119 updatebank 2 322 0.01 10;
#X msg 233 138 updatebank 3 467 0.01 10;
#X msg 233 157 updatebank 4 489 0.01 10;
#X msg 233 176 updatebank 5 780 0.01 10;
#X msg 233 195 updatebank 6 976 0.01 10;
#X msg 233 214 updatebank 7 1102 0.01 10;
#X msg 233 233 updatebank 8 1532 0.01 10;
#X connect 0 0 1 0;
#X connect 1 0 3 0;
#X connect 1 1 5 0;
#X connect 1 2 7 0;
#X connect 3 0 16 0;
#X connect 3 0 17 0;
#X connect 3 0 18 0;
#X connect 3 0 19 0;
#X connect 3 0 20 0;
#X connect 3 0 21 0;
#X connect 3 0 22 0;
#X connect 3 0 23 0;
#X connect 5 0 24 0;
#X connect 5 0 25 0;
#X connect 5 0 26 0;
#X connect 5 0 27 0;
#X connect 5 0 28 0;
#X connect 5 0 29 0;
#X connect 5 0 30 0;
#X connect 5 0 31 0;
#X connect 7 0 8 0;
#X connect 7 0 15 0;
#X connect 7 0 14 0;
#X connect 7 0 13 0;
#X connect 7 0 12 0;
#X connect 7 0 11 0;
#X connect 7 0 10 0;
#X connect 7 0 9 0;
#X connect 8 0 6 0;
#X connect 9 0 6 0;
#X connect 10 0 6 0;
#X connect 11 0 6 0;
#X connect 12 0 6 0;
#X connect 13 0 6 0;
#X connect 14 0 6 0;
#X connect 15 0 6 0;
#X connect 16 0 2 0;
#X connect 17 0 2 0;
#X connect 18 0 2 0;
#X connect 19 0 2 0;
#X connect 20 0 2 0;
#X connect 21 0 2 0;
#X connect 22 0 2 0;
#X connect 23 0 2 0;
#X connect 24 0 4 0;
#X connect 25 0 4 0;
#X connect 26 0 4 0;
#X connect 27 0 4 0;
#X connect 28 0 4 0;
#X connect 29 0 4 0;
#X connect 30 0 4 0;
#X connect 31 0 4 0;
#X restore 114 508 pd presets;
#X obj 114 490 hradio 15 1 0 3 empty empty empty 0 -6 0 8 -262144 -1
-1 0;
#X obj 26 279 loadbang;
#X msg 26 301 1;
#X obj 631 -3 loadbang;
#X msg 631 14 4000;
#X msg 630 45 0.014;
#X msg 629 76 16;
#X msg 60 373 updatebank 1 3200 0.002 2;
#X text 222 371 (buggy \, for some;
#X text 227 386 reason --md);
#X connect 0 0 1 0;
#X connect 1 0 2 0;
#X connect 1 0 2 1;
#X connect 2 0 25 0;
#X connect 2 1 25 1;
#X connect 2 2 19 0;
#X connect 2 3 18 0;
#X connect 3 0 2 0;
#X connect 4 0 3 0;
#X connect 6 0 2 2;
#X connect 7 0 6 0;
#X connect 8 0 2 3;
#X connect 9 0 8 0;
#X connect 10 0 2 4;
#X connect 11 0 10 0;
#X connect 18 0 15 0;
#X connect 18 1 16 0;
#X connect 18 2 17 0;
#X connect 20 0 25 2;
#X connect 21 0 25 3;
#X connect 25 0 20 0;
#X connect 42 0 49 0;
#X connect 43 0 49 0;
#X connect 46 0 49 0;
#X connect 47 0 46 0;
#X connect 48 0 2 0;
#X connect 51 0 64 0;
#X connect 57 0 56 0;
#X connect 58 0 59 0;
#X connect 59 0 47 0;
#X connect 60 0 61 0;
#X connect 60 0 62 0;
#X connect 60 0 63 0;
#X connect 61 0 4 0;
#X connect 62 0 7 0;
#X connect 63 0 9 0;
#X connect 64 0 49 0;
