#N canvas 278 23 636 795 10;
#X obj 5 6 cnv 15 15 15 empty empty ExMM13c-FM.pd 0 8 1 14 -262144
-66577 0;
#X obj 17 530 switch~;
#N canvas 608 166 228 173 ARGOnOff 0;
#X obj 100 100 tgl 18 1 \$0-SendOnOff \$0-ReceiveOnOff On/Off 20 11
1 14 -4033 -1 -1 1 1;
#X obj 99 10 loadbang;
#X msg 99 33 \; pd dsp 1;
#X obj 100 129 outlet;
#X text -50 99 Audio On/Off du patch ->;
#X text -22 45 Audio General On ->;
#X text 107 82 17 3 2010;
#X connect 0 0 3 0;
#X connect 1 0 2 0;
#X coords 0 -1 1 1 65 18 2 100 100;
#X restore 17 512 pd ARGOnOff;
#X text 31 18 FM = Frequency Modulation = Modulation de Frequence;
#X text 489 441 <- Sinus modulé;
#X text 490 456 <- Modulated sinus;
#X text 118 460 Adjust frequency ->;
#X text 100 452 Régler la fréquence ->;
#X text 117 256 Adjust frequency ->;
#X text 99 248 Régler la fréquence ->;
#X text 488 240 <- Sinus modulant;
#X text 489 255 <- Modulating sinus;
#X text 130 497 Niveau general ->;
#X text 136 508 General level ->;
#X text 76 413 Adjust modulation level ->;
#X text 16 403 Régler le niveau de la modulation ->;
#X text 11 479 On/Off patch;
#X text 20 497 V;
#X text 20 490 |;
#X text 117 55 Adjust frequency ->;
#X text 99 47 Régler la fréquence ->;
#X text 76 212 Adjust modulation level ->;
#X text 16 202 Régler le niveau de la modulation ->;
#X text 490 30 <- Sinus modulant la;
#X text 509 40 modulation;
#X text 489 54 <- Sinus Modulating;
#X text 508 64 the modulation;
#N canvas 390 86 605 378 ARGO 0;
#X obj 201 101 cnv 20 131 55 empty ColorForm Alea. 98 8 1 14 -261476
-1 1.04858e+06;
#X obj 274 37 cnv 15 60 30 empty empty empty 20 12 0 14 -24198 -66577
0;
#N canvas 373 67 425 206 Help 0;
#X obj 9 43 cnv 15 400 120 empty empty empty 20 12 0 14 -228856 -66577
0;
#X text 12 43 Citation;
#X text 20 -21 Alea;
#X text 19 0 Générateur de nombres aléatoires.;
#X text 20 17 Random number generator;
#X text 26 63 Random numbers are generated via a complex equation which
produces a pseudo-predictable sequence of numbers.;
#X text 25 101 [random N] outputs pseudorandom integers between 0 and
N-1.;
#X restore 281 44 pd Help;
#X obj 321 175 bng 12 50 50 0 \$0-A \$0-B empty 14 6 1 9 -262144 -1
-1;
#X obj 322 182 cnv 4 10 4 empty empty empty 20 12 0 14 -260097 -66577
0;
#X obj 201 182 cnv 4 10 4 empty empty empty 20 12 0 14 -260097 -66577
0;
#X obj 203 163 hsl 128 12 0 127 0 1 \$0-A ColorForm Out=107 0 7 1 9
-262144 -1 -1 10700 0;
#N canvas 891 377 212 161 labelX 0;
#X msg 15 103 label \$1;
#X obj 14 36 expr (int(1000 * $f1) / 1000) \;;
#X obj 14 12 inlet;
#X obj 15 126 outlet;
#X obj 15 81 symbol;
#X obj 15 59 cyclone/sprintf Out=%s;
#X connect 0 0 3 0;
#X connect 1 0 5 0;
#X connect 2 0 1 0;
#X connect 4 0 0 0;
#X connect 5 0 4 0;
#X restore 80 164 pd labelX;
#X obj 200 324 outlet;
#X obj 203 139 hsl 128 12 0 127 0 1 \$0-A ColorForm max=113 0 7 1 9
-261299 -1 -1 11300 0;
#N canvas 439 369 212 161 labelMax 0;
#X msg 15 103 label \$1;
#X obj 15 30 inlet;
#X obj 15 126 outlet;
#X obj 15 59 cyclone/sprintf max=%s;
#X obj 15 81 symbol;
#X connect 0 0 2 0;
#X connect 1 0 3 0;
#X connect 3 0 4 0;
#X connect 4 0 0 0;
#X restore 68 121 pd labelMax;
#N canvas 664 372 212 161 labelMin 0;
#X msg 15 103 label \$1;
#X obj 15 30 inlet;
#X obj 15 126 outlet;
#X obj 15 59 cyclone/sprintf min=%s;
#X obj 15 81 symbol;
#X connect 0 0 2 0;
#X connect 1 0 3 0;
#X connect 3 0 4 0;
#X connect 4 0 0 0;
#X restore 69 144 pd labelMin;
#X obj 203 151 hsl 128 12 0 127 0 1 \$0-A ColorForm min=77 0 7 1 9
-261299 -1 -1 7700 0;
#X text 196 342 Integer;
#X text 196 357 0..127;
#X obj 207 252 random 1000;
#X obj 175 283 expr int ($f1 / 1000 * ($f3 - $f2) + $f2);
#X obj 203 115 hsl 128 12 1 10000 1 1 \$0-A ColorForm max=4842.1ms
0 7 1 9 -208064 -1 -1 11700 0;
#X obj 203 127 hsl 128 12 1 10000 1 1 \$0-A ColorForm min=149ms 0 7
1 9 -208064 -1 -1 6900 0;
#N canvas 14 350 185 210 label 0;
#X msg 18 130 label \$1;
#X obj 18 21 inlet;
#X obj 18 153 outlet;
#X obj 18 53 expr int ($f1 * 10) / 10;
#X obj 18 108 symbol;
#X obj 18 86 cyclone/sprintf max=%sms;
#X connect 0 0 2 0;
#X connect 1 0 3 0;
#X connect 3 0 5 0;
#X connect 4 0 0 0;
#X connect 5 0 4 0;
#X restore 88 78 pd label;
#N canvas 210 364 212 161 label 0;
#X msg 15 103 label \$1;
#X obj 15 6 inlet;
#X obj 15 126 outlet;
#X obj 15 32 expr int ($f1 * 10) / 10;
#X obj 15 59 cyclone/sprintf min=%sms;
#X obj 15 81 symbol;
#X connect 0 0 2 0;
#X connect 1 0 3 0;
#X connect 3 0 4 0;
#X connect 4 0 5 0;
#X connect 5 0 0 0;
#X restore 86 100 pd label;
#X obj 287 252 metro 300;
#X obj 200 100 tgl 12 1 \$0-A \$0-B On 15 7 1 9 -262144 -1 -1 1 1;
#X obj 338 204 random 10000;
#X obj 338 229 expr int ($f1 / 10000 * ($f3 - $f2) + $f2);
#X text 140 176 Number <-;
#X text 335 176 -> Bang;
#X obj 549 337 cnv 15 42 25 empty empty empty 20 12 0 14 -24198 -66577
0;
#N canvas 336 174 309 137 ?. 0;
#X obj 3 83 cnv 15 300 46 empty empty empty 20 12 0 14 -224896 -66577
0;
#X obj 3 6 cnv 18 300 70 empty empty ARGOPdMiniModules 3 10 1 14 -4033
-1 1.04858e+06;
#X obj 26 26 cnv 10 10 10 empty empty Gerard 0 5 1 11 -4033 -1 1.04858e+06
;
#X obj 64 26 cnv 10 10 10 empty empty Paresys 0 5 1 11 -4033 -1 1.04858e+06
;
#X obj 7 37 pddp/pddplink http://gerard.paresys.free.fr/ARGOPd/;
#X text 8 85 Construit sous / Build under Pd 0.43.4-extended;
#X obj 8 111 pddp/pddplink http://puredata.info/downloads/pd-extended
;
#X obj 7 50 pddp/pddplink http://paresys.pagesperso-orange.fr/ARGOPd/
;
#X text 7 98 or Pd-0.46-7 + deken;
#X restore 553 341 pd ?.;
#X obj 401 63 cnv 15 100 70 empty empty empty 20 12 0 14 -24198 -66577
0;
#X text 405 65 library:;
#X text 405 76 pddp;
#X text 405 87 cyclone;
#X obj 344 324 outlet;
#X text 340 342 bang;
#X text 277 81 12 2 2018;
#X connect 3 0 15 0;
#X connect 3 0 23 0;
#X connect 3 0 33 0;
#X connect 6 0 7 0;
#X connect 6 0 8 0;
#X connect 7 0 6 0;
#X connect 9 0 10 0;
#X connect 9 0 16 2;
#X connect 10 0 9 0;
#X connect 11 0 12 0;
#X connect 12 0 11 0;
#X connect 12 0 16 1;
#X connect 15 0 16 0;
#X connect 16 0 6 0;
#X connect 17 0 19 0;
#X connect 17 0 24 2;
#X connect 18 0 20 0;
#X connect 18 0 24 1;
#X connect 19 0 17 0;
#X connect 20 0 18 0;
#X connect 21 0 3 0;
#X connect 22 0 21 0;
#X connect 23 0 24 0;
#X connect 24 0 21 1;
#X coords 0 -1 1 1 133 87 1 200 100;
#X restore 338 281 pd ARGO;
#X obj 338 374 / 100;
#N canvas 390 86 605 378 ARGO 0;
#X obj 201 101 cnv 20 131 55 empty ColorForm Alea. 98 8 1 14 -261476
-1 1.04858e+06;
#X obj 274 37 cnv 15 60 30 empty empty empty 20 12 0 14 -24198 -66577
0;
#N canvas 373 67 425 206 Help 0;
#X obj 9 43 cnv 15 400 120 empty empty empty 20 12 0 14 -228856 -66577
0;
#X text 12 43 Citation;
#X text 20 -21 Alea;
#X text 19 0 Générateur de nombres aléatoires.;
#X text 20 17 Random number generator;
#X text 26 63 Random numbers are generated via a complex equation which
produces a pseudo-predictable sequence of numbers.;
#X text 25 101 [random N] outputs pseudorandom integers between 0 and
N-1.;
#X restore 281 44 pd Help;
#X obj 321 175 bng 12 50 50 0 \$0-A \$0-B empty 14 6 1 9 -262144 -1
-1;
#X obj 322 182 cnv 4 10 4 empty empty empty 20 12 0 14 -260097 -66577
0;
#X obj 201 182 cnv 4 10 4 empty empty empty 20 12 0 14 -260097 -66577
0;
#X obj 203 163 hsl 128 12 0 127 0 1 \$0-A ColorForm Out=64 0 7 1 9
-262144 -1 -1 6400 0;
#N canvas 891 377 212 161 labelX 0;
#X msg 15 103 label \$1;
#X obj 14 36 expr (int(1000 * $f1) / 1000) \;;
#X obj 14 12 inlet;
#X obj 15 126 outlet;
#X obj 15 81 symbol;
#X obj 15 59 cyclone/sprintf Out=%s;
#X connect 0 0 3 0;
#X connect 1 0 5 0;
#X connect 2 0 1 0;
#X connect 4 0 0 0;
#X connect 5 0 4 0;
#X restore 80 164 pd labelX;
#X obj 200 324 outlet;
#X obj 203 139 hsl 128 12 0 127 0 1 \$0-A ColorForm max=108 0 7 1 9
-261299 -1 -1 10800 0;
#N canvas 439 369 212 161 labelMax 0;
#X msg 15 103 label \$1;
#X obj 15 30 inlet;
#X obj 15 126 outlet;
#X obj 15 59 cyclone/sprintf max=%s;
#X obj 15 81 symbol;
#X connect 0 0 2 0;
#X connect 1 0 3 0;
#X connect 3 0 4 0;
#X connect 4 0 0 0;
#X restore 68 121 pd labelMax;
#N canvas 664 372 212 161 labelMin 0;
#X msg 15 103 label \$1;
#X obj 15 30 inlet;
#X obj 15 126 outlet;
#X obj 15 59 cyclone/sprintf min=%s;
#X obj 15 81 symbol;
#X connect 0 0 2 0;
#X connect 1 0 3 0;
#X connect 3 0 4 0;
#X connect 4 0 0 0;
#X restore 69 144 pd labelMin;
#X obj 203 151 hsl 128 12 0 127 0 1 \$0-A ColorForm min=51 0 7 1 9
-261299 -1 -1 5100 0;
#X text 196 342 Integer;
#X text 196 357 0..127;
#X obj 207 252 random 1000;
#X obj 175 283 expr int ($f1 / 1000 * ($f3 - $f2) + $f2);
#X obj 203 115 hsl 128 12 1 10000 1 1 \$0-A ColorForm max=1220.7ms
0 7 1 9 -208064 -1 -1 9800 0;
#X obj 203 127 hsl 128 12 1 10000 1 1 \$0-A ColorForm min=128.8ms 0
7 1 9 -208064 -1 -1 6700 0;
#N canvas 14 350 185 210 label 0;
#X msg 18 130 label \$1;
#X obj 18 21 inlet;
#X obj 18 153 outlet;
#X obj 18 53 expr int ($f1 * 10) / 10;
#X obj 18 108 symbol;
#X obj 18 86 cyclone/sprintf max=%sms;
#X connect 0 0 2 0;
#X connect 1 0 3 0;
#X connect 3 0 5 0;
#X connect 4 0 0 0;
#X connect 5 0 4 0;
#X restore 88 78 pd label;
#N canvas 210 364 212 161 label 0;
#X msg 15 103 label \$1;
#X obj 15 6 inlet;
#X obj 15 126 outlet;
#X obj 15 32 expr int ($f1 * 10) / 10;
#X obj 15 59 cyclone/sprintf min=%sms;
#X obj 15 81 symbol;
#X connect 0 0 2 0;
#X connect 1 0 3 0;
#X connect 3 0 4 0;
#X connect 4 0 5 0;
#X connect 5 0 0 0;
#X restore 86 100 pd label;
#X obj 287 252 metro 300;
#X obj 200 100 tgl 12 1 \$0-A \$0-B On 15 7 1 9 -262144 -1 -1 1 1;
#X obj 338 204 random 10000;
#X obj 338 229 expr int ($f1 / 10000 * ($f3 - $f2) + $f2);
#X text 140 176 Number <-;
#X text 335 176 -> Bang;
#X obj 549 337 cnv 15 42 25 empty empty empty 20 12 0 14 -24198 -66577
0;
#N canvas 336 174 309 137 ?. 0;
#X obj 3 83 cnv 15 300 46 empty empty empty 20 12 0 14 -224896 -66577
0;
#X obj 3 6 cnv 18 300 70 empty empty ARGOPdMiniModules 3 10 1 14 -4033
-1 1.04858e+06;
#X obj 26 26 cnv 10 10 10 empty empty Gerard 0 5 1 11 -4033 -1 1.04858e+06
;
#X obj 64 26 cnv 10 10 10 empty empty Paresys 0 5 1 11 -4033 -1 1.04858e+06
;
#X obj 7 37 pddp/pddplink http://gerard.paresys.free.fr/ARGOPd/;
#X text 8 85 Construit sous / Build under Pd 0.43.4-extended;
#X obj 8 111 pddp/pddplink http://puredata.info/downloads/pd-extended
;
#X obj 7 50 pddp/pddplink http://paresys.pagesperso-orange.fr/ARGOPd/
;
#X text 7 98 or Pd-0.46-7 + deken;
#X restore 553 341 pd ?.;
#X obj 401 63 cnv 15 100 70 empty empty empty 20 12 0 14 -24198 -66577
0;
#X text 405 65 library:;
#X text 405 76 pddp;
#X text 405 87 cyclone;
#X obj 344 324 outlet;
#X text 340 342 bang;
#X text 277 81 12 2 2018;
#X connect 3 0 15 0;
#X connect 3 0 23 0;
#X connect 3 0 33 0;
#X connect 6 0 7 0;
#X connect 6 0 8 0;
#X connect 7 0 6 0;
#X connect 9 0 10 0;
#X connect 9 0 16 2;
#X connect 10 0 9 0;
#X connect 11 0 12 0;
#X connect 12 0 11 0;
#X connect 12 0 16 1;
#X connect 15 0 16 0;
#X connect 16 0 6 0;
#X connect 17 0 19 0;
#X connect 17 0 24 2;
#X connect 18 0 20 0;
#X connect 18 0 24 1;
#X connect 19 0 17 0;
#X connect 20 0 18 0;
#X connect 21 0 3 0;
#X connect 22 0 21 0;
#X connect 23 0 24 0;
#X connect 24 0 21 1;
#X coords 0 -1 1 1 133 87 1 200 100;
#X restore 338 80 pd ARGO;
#X obj 338 173 / 100;
#X obj 272 757 dac~ 1 2;
#N canvas 446 64 251 267 ARGO 0;
#X obj 101 104 cnv 30 49 130 empty ColorAmpli empty 20 12 0 14 -1 -258113
0;
#X obj 102 110 vu 8 120 \$0-B empty 0 0 1 11 -1 -4034 0 0;
#X obj 49 35 inlet~;
#X obj 22 108 cnv 15 60 30 empty empty empty 20 12 0 14 -24198 -66577
0;
#N canvas 300 65 442 264 Help 0;
#X obj 12 48 cnv 15 400 150 empty empty empty 20 12 0 14 -233017 -66577
0;
#X text 16 50 Citation;
#X text 28 67 peakamp~ tracks and outputs the absolute value of the
peak amplitude of the incoming signal. It outputs when banged or using
its own internal clock. The peak value is reset each time peakamp~
outputs a value.;
#X text 29 123 cyclone library;
#X text 28 135 http://suita.chopin.edu.pl/~czaja/miXed/externs/cyclone.html
;
#X text 29 155 Voir doc Max/MSP MSP46ReferenceManual.pdf;
#X text 18 14 MM-Vumetre;
#X restore 29 114 pd Help;
#N canvas 541 112 317 265 VuMetre 0;
#X obj 48 19 inlet~;
#X obj 41 54 *~;
#X obj -25 132 snapshot~;
#X obj -25 155 sqrt;
#X obj -25 100 lop~ 10;
#X obj -25 179 rmstodb;
#X obj -88 19 loadbang;
#X obj -25 202 - 100;
#X obj 58 156 sqrt;
#X obj 58 180 rmstodb;
#X obj 58 203 - 100;
#X obj -89 102 metro 200;
#X obj -28 19 r SendFluid;
#X obj 58 102 cyclone/peakamp~ 1000;
#X obj -25 228 outlet;
#X obj 58 227 outlet;
#X connect 0 0 1 0;
#X connect 0 0 1 1;
#X connect 1 0 4 0;
#X connect 1 0 13 0;
#X connect 2 0 3 0;
#X connect 3 0 5 0;
#X connect 4 0 2 0;
#X connect 5 0 7 0;
#X connect 6 0 11 0;
#X connect 7 0 14 0;
#X connect 8 0 9 0;
#X connect 9 0 10 0;
#X connect 10 0 15 0;
#X connect 11 0 2 0;
#X connect 12 0 11 1;
#X connect 13 0 8 0;
#X restore 49 63 pd VuMetre;
#X obj 172 211 cnv 15 42 25 empty empty empty 20 12 0 14 -24198 -66577
0;
#N canvas 336 174 309 137 ?. 0;
#X obj 3 83 cnv 15 300 46 empty empty empty 20 12 0 14 -224896 -66577
0;
#X obj 3 6 cnv 18 300 70 empty empty ARGOPdMiniModules 3 10 1 14 -4033
-1 1.04858e+06;
#X obj 26 26 cnv 10 10 10 empty empty Gerard 0 5 1 11 -4033 -1 1.04858e+06
;
#X obj 64 26 cnv 10 10 10 empty empty Paresys 0 5 1 11 -4033 -1 1.04858e+06
;
#X obj 7 37 pddp/pddplink http://gerard.paresys.free.fr/ARGOPd/;
#X text 8 85 Construit sous / Build under Pd 0.43.4-extended;
#X obj 8 111 pddp/pddplink http://puredata.info/downloads/pd-extended
;
#X obj 7 50 pddp/pddplink http://paresys.pagesperso-orange.fr/ARGOPd/
;
#X text 7 98 or Pd-0.46-7 + deken;
#X restore 176 215 pd ?.;
#X obj 113 110 vu 8 120 \$0-B empty 0 0 1 11 -1 -4034 1 0;
#X obj 126 35 inlet~;
#N canvas 541 112 317 265 VuMetre 0;
#X obj 48 19 inlet~;
#X obj 41 54 *~;
#X obj -25 132 snapshot~;
#X obj -25 155 sqrt;
#X obj -25 100 lop~ 10;
#X obj -25 179 rmstodb;
#X obj -88 19 loadbang;
#X obj -25 202 - 100;
#X obj 58 156 sqrt;
#X obj 58 180 rmstodb;
#X obj 58 203 - 100;
#X obj -89 102 metro 200;
#X obj -28 19 r SendFluid;
#X obj 58 102 cyclone/peakamp~ 1000;
#X obj -25 228 outlet;
#X obj 58 227 outlet;
#X connect 0 0 1 0;
#X connect 0 0 1 1;
#X connect 1 0 4 0;
#X connect 1 0 13 0;
#X connect 2 0 3 0;
#X connect 3 0 5 0;
#X connect 4 0 2 0;
#X connect 5 0 7 0;
#X connect 6 0 11 0;
#X connect 7 0 14 0;
#X connect 8 0 9 0;
#X connect 9 0 10 0;
#X connect 10 0 15 0;
#X connect 11 0 2 0;
#X connect 12 0 11 1;
#X connect 13 0 8 0;
#X restore 126 63 pd VuMetre;
#X text 153 87 3 3 2019;
#X connect 2 0 5 0;
#X connect 5 0 1 0;
#X connect 5 1 1 1;
#X connect 9 0 10 0;
#X connect 10 0 8 0;
#X connect 10 1 8 1;
#X coords 0 -1 1 1 51 135 2 100 100;
#X restore 184 640 pd ARGO;
#N canvas 355 145 366 204 ARGO 0;
#X obj 92 143 osc~;
#X obj 101 101 cnv 20 244 34 empty ColorTime Oscill-Sinus. 155 8 1
14 -208064 -1 1.04858e+06;
#X obj 92 168 outlet~;
#X obj 100 106 nbx 7 12 0 20000 0 1 \$0-A ColorTime Hz 60 7 1 9 -208064
-1 -1 4186.01 256;
#X obj 87 26 inlet~;
#X obj 101 131 cnv 4 10 4 empty empty empty 20 12 0 14 -1 -66577 0
;
#X obj 101 101 cnv 4 10 4 empty empty empty 20 12 0 14 -1728 -66577
0;
#X obj 103 118 hsl 241 12 0 1 0 0 \$0-A ColorTime empty 0 7 1 9 -262144
-1 -1 21600 0;
#X obj 103 118 hsl 241 12 0 1 0 0 \$0-A ColorTime C7 0 7 1 9 -208064
-1728 -1 21600 0;
#X text 155 147 2 HSLIDER superposés;
#X text 154 136 ATTENTION;
#X obj 197 52 cnv 15 60 30 empty empty empty 20 12 0 14 -24198 -66577
0;
#N canvas 161 113 425 238 Help 0;
#X obj 8 85 cnv 15 400 100 empty empty empty 20 12 0 14 -233017 -66577
0;
#X text 12 87 Citation;
#X text 10 45 Sensibilitée de l'entrée de contrôle de la fréquence:
;
#X text 10 57 1 = 240 1/2 ton = 20 octaves;
#X text 11 19 Oscillateur sinusoïdal;
#X text 22 106 The osc~ object outputs a cosine wave. If no argument
is supplied \, the input is taken to be an audio signal.;
#X restore 204 58 pd Help;
#N canvas 86 284 344 337 Freq-v8-sig- 0;
#X obj 227 64 ftom;
#X obj 277 223 mtof;
#X obj 139 148 +~;
#X obj 7 195 snapshot~;
#X obj 7 217 change;
#X msg 7 242 set \$1;
#X obj 139 251 clip~ 0 20000;
#X obj 139 228 mtof~;
#X obj 139 280 outlet~;
#X obj 278 40 inlet;
#X obj 227 40 inlet;
#X obj 36 280 outlet;
#X obj 277 280 outlet;
#X text 33 298 Hslider;
#X obj 139 40 inlet~;
#X obj 6 40 loadbang;
#X obj 227 280 outlet;
#X obj 277 162 * 240;
#X obj 277 185 - 108;
#X obj 139 176 *~ 240;
#X obj 139 198 -~ 108;
#X obj 227 87 + 108;
#X obj 227 109 / 240;
#X obj 7 93 metro 200;
#X obj 62 40 r SendFluid;
#X text 42 309 Over;
#X text 279 298 Number;
#X text 224 23 Number;
#X text 226 297 Hslider;
#X text 228 308 Under;
#X text 279 10 Hslider;
#X text 284 21 Under;
#X msg 227 250 set \$1;
#N canvas 220 243 583 317 pitchb-11-2010 0;
#X obj 78 119 mod 12;
#X obj 78 143 sel 0 1 2 3 4 5 6 7 8 9 10 11;
#X msg 254 178 A;
#X msg 308 178 B;
#X msg 200 178 G;
#X msg 11 178 C;
#X msg 65 178 D;
#X msg 119 178 E;
#X msg 146 178 F;
#X obj 212 9 inlet;
#X obj 385 123 div 12;
#X obj 212 87 t f f;
#X text 394 215 -> Numero de l'octave;
#X text 221 72 -> Numero MIDI de la note (69 = A3 = 440Hz);
#X msg 268 268 label \$1;
#X obj 268 291 outlet;
#X msg 38 178 Db;
#X msg 92 178 Eb;
#X msg 173 178 Gb;
#X msg 227 178 Ab;
#X msg 281 178 Bb;
#X text 377 86 (70 = A#3 = Bb3);
#X obj 268 246 symbol;
#X text 19 239 Impossible d'afficher # dans un label;
#X text 19 251 donc j'affiche b;
#X obj 212 59 int;
#X text 263 31 -> pour corriger certaines erreurs de calcul;
#X obj 385 152 - 12;
#X text 263 43 et le pb du passage a zero de mod 12;
#X obj 212 33 + 120.5;
#X obj 268 221 cyclone/sprintf %s%d;
#X connect 0 0 1 0;
#X connect 1 0 5 0;
#X connect 1 1 16 0;
#X connect 1 2 6 0;
#X connect 1 3 17 0;
#X connect 1 4 7 0;
#X connect 1 5 8 0;
#X connect 1 6 18 0;
#X connect 1 7 4 0;
#X connect 1 8 19 0;
#X connect 1 9 2 0;
#X connect 1 10 20 0;
#X connect 1 11 3 0;
#X connect 2 0 30 0;
#X connect 3 0 30 0;
#X connect 4 0 30 0;
#X connect 5 0 30 0;
#X connect 6 0 30 0;
#X connect 7 0 30 0;
#X connect 8 0 30 0;
#X connect 9 0 29 0;
#X connect 10 0 27 0;
#X connect 11 0 0 0;
#X connect 11 1 10 0;
#X connect 14 0 15 0;
#X connect 16 0 30 0;
#X connect 17 0 30 0;
#X connect 18 0 30 0;
#X connect 19 0 30 0;
#X connect 20 0 30 0;
#X connect 22 0 14 0;
#X connect 25 0 11 0;
#X connect 27 0 30 1;
#X connect 29 0 25 0;
#X connect 30 0 22 0;
#X restore 83 113 pd pitchb-11-2010;
#X connect 0 0 21 0;
#X connect 0 0 33 0;
#X connect 1 0 12 0;
#X connect 2 0 3 0;
#X connect 2 0 19 0;
#X connect 3 0 4 0;
#X connect 4 0 5 0;
#X connect 5 0 11 0;
#X connect 6 0 8 0;
#X connect 7 0 6 0;
#X connect 9 0 17 0;
#X connect 10 0 0 0;
#X connect 14 0 2 0;
#X connect 15 0 23 0;
#X connect 17 0 18 0;
#X connect 18 0 1 0;
#X connect 19 0 20 0;
#X connect 20 0 7 0;
#X connect 21 0 22 0;
#X connect 22 0 2 1;
#X connect 22 0 32 0;
#X connect 23 0 3 0;
#X connect 24 0 23 1;
#X connect 32 0 16 0;
#X connect 33 0 11 0;
#X restore 62 63 pd Freq-v8-sig-;
#X obj 304 162 cnv 15 42 25 empty empty empty 20 12 0 14 -24198 -66577
0;
#N canvas 336 174 309 137 ?. 0;
#X obj 3 83 cnv 15 300 46 empty empty empty 20 12 0 14 -224896 -66577
0;
#X obj 3 6 cnv 18 300 70 empty empty ARGOPdMiniModules 3 10 1 14 -4033
-1 1.04858e+06;
#X obj 26 26 cnv 10 10 10 empty empty Gerard 0 5 1 11 -4033 -1 1.04858e+06
;
#X obj 64 26 cnv 10 10 10 empty empty Paresys 0 5 1 11 -4033 -1 1.04858e+06
;
#X obj 7 37 pddp/pddplink http://gerard.paresys.free.fr/ARGOPd/;
#X text 8 85 Construit sous / Build under Pd 0.43.4-extended;
#X obj 8 111 pddp/pddplink http://puredata.info/downloads/pd-extended
;
#X obj 7 50 pddp/pddplink http://paresys.pagesperso-orange.fr/ARGOPd/
;
#X text 7 98 or Pd-0.46-7 + deken;
#X restore 308 166 pd ?.;
#X text 282 80 28 8 2019;
#X connect 0 0 2 0;
#X connect 3 0 13 1;
#X connect 4 0 13 0;
#X connect 7 0 13 2;
#X connect 13 0 8 0;
#X connect 13 1 0 0;
#X connect 13 2 7 0;
#X connect 13 3 3 0;
#X coords 0 -1 1 1 246 36 1 100 100;
#X restore 239 36 pd ARGO;
#N canvas 355 145 366 204 ARGO 0;
#X obj 92 143 osc~;
#X obj 101 101 cnv 20 244 34 empty ColorTime Oscill-Sinus. 155 8 1
14 -208064 -1 1.04858e+06;
#X obj 92 168 outlet~;
#X obj 100 106 nbx 7 12 0 20000 0 1 \$0-A ColorTime Hz 60 7 1 9 -208064
-1 -1 7902.13 256;
#X obj 87 26 inlet~;
#X obj 101 131 cnv 4 10 4 empty empty empty 20 12 0 14 -1 -66577 0
;
#X obj 101 101 cnv 4 10 4 empty empty empty 20 12 0 14 -1728 -66577
0;
#X obj 103 118 hsl 241 12 0 1 0 0 \$0-A ColorTime empty 0 7 1 9 -262144
-1 -1 22700 0;
#X obj 103 118 hsl 241 12 0 1 0 0 \$0-A ColorTime B7 0 7 1 9 -208064
-1728 -1 23512 0;
#X text 155 147 2 HSLIDER superposés;
#X text 154 136 ATTENTION;
#X obj 197 52 cnv 15 60 30 empty empty empty 20 12 0 14 -24198 -66577
0;
#N canvas 161 113 425 238 Help 0;
#X obj 8 85 cnv 15 400 100 empty empty empty 20 12 0 14 -233017 -66577
0;
#X text 12 87 Citation;
#X text 10 45 Sensibilitée de l'entrée de contrôle de la fréquence:
;
#X text 10 57 1 = 240 1/2 ton = 20 octaves;
#X text 11 19 Oscillateur sinusoïdal;
#X text 22 106 The osc~ object outputs a cosine wave. If no argument
is supplied \, the input is taken to be an audio signal.;
#X restore 204 58 pd Help;
#N canvas 86 284 344 337 Freq-v8-sig- 0;
#X obj 227 64 ftom;
#X obj 277 223 mtof;
#X obj 139 148 +~;
#X obj 7 195 snapshot~;
#X obj 7 217 change;
#X msg 7 242 set \$1;
#X obj 139 251 clip~ 0 20000;
#X obj 139 228 mtof~;
#X obj 139 280 outlet~;
#X obj 278 40 inlet;
#X obj 227 40 inlet;
#X obj 36 280 outlet;
#X obj 277 280 outlet;
#X text 33 298 Hslider;
#X obj 139 40 inlet~;
#X obj 6 40 loadbang;
#X obj 227 280 outlet;
#X obj 277 162 * 240;
#X obj 277 185 - 108;
#X obj 139 176 *~ 240;
#X obj 139 198 -~ 108;
#X obj 227 87 + 108;
#X obj 227 109 / 240;
#X obj 7 93 metro 200;
#X obj 62 40 r SendFluid;
#X text 42 309 Over;
#X text 279 298 Number;
#X text 224 23 Number;
#X text 226 297 Hslider;
#X text 228 308 Under;
#X text 279 10 Hslider;
#X text 284 21 Under;
#X msg 227 250 set \$1;
#N canvas 220 243 583 317 pitchb-11-2010 0;
#X obj 78 119 mod 12;
#X obj 78 143 sel 0 1 2 3 4 5 6 7 8 9 10 11;
#X msg 254 178 A;
#X msg 308 178 B;
#X msg 200 178 G;
#X msg 11 178 C;
#X msg 65 178 D;
#X msg 119 178 E;
#X msg 146 178 F;
#X obj 212 9 inlet;
#X obj 385 123 div 12;
#X obj 212 87 t f f;
#X text 394 215 -> Numero de l'octave;
#X text 221 72 -> Numero MIDI de la note (69 = A3 = 440Hz);
#X msg 268 268 label \$1;
#X obj 268 291 outlet;
#X msg 38 178 Db;
#X msg 92 178 Eb;
#X msg 173 178 Gb;
#X msg 227 178 Ab;
#X msg 281 178 Bb;
#X text 377 86 (70 = A#3 = Bb3);
#X obj 268 246 symbol;
#X text 19 239 Impossible d'afficher # dans un label;
#X text 19 251 donc j'affiche b;
#X obj 212 59 int;
#X text 263 31 -> pour corriger certaines erreurs de calcul;
#X obj 385 152 - 12;
#X text 263 43 et le pb du passage a zero de mod 12;
#X obj 212 33 + 120.5;
#X obj 268 221 cyclone/sprintf %s%d;
#X connect 0 0 1 0;
#X connect 1 0 5 0;
#X connect 1 1 16 0;
#X connect 1 2 6 0;
#X connect 1 3 17 0;
#X connect 1 4 7 0;
#X connect 1 5 8 0;
#X connect 1 6 18 0;
#X connect 1 7 4 0;
#X connect 1 8 19 0;
#X connect 1 9 2 0;
#X connect 1 10 20 0;
#X connect 1 11 3 0;
#X connect 2 0 30 0;
#X connect 3 0 30 0;
#X connect 4 0 30 0;
#X connect 5 0 30 0;
#X connect 6 0 30 0;
#X connect 7 0 30 0;
#X connect 8 0 30 0;
#X connect 9 0 29 0;
#X connect 10 0 27 0;
#X connect 11 0 0 0;
#X connect 11 1 10 0;
#X connect 14 0 15 0;
#X connect 16 0 30 0;
#X connect 17 0 30 0;
#X connect 18 0 30 0;
#X connect 19 0 30 0;
#X connect 20 0 30 0;
#X connect 22 0 14 0;
#X connect 25 0 11 0;
#X connect 27 0 30 1;
#X connect 29 0 25 0;
#X connect 30 0 22 0;
#X restore 83 113 pd pitchb-11-2010;
#X connect 0 0 21 0;
#X connect 0 0 33 0;
#X connect 1 0 12 0;
#X connect 2 0 3 0;
#X connect 2 0 19 0;
#X connect 3 0 4 0;
#X connect 4 0 5 0;
#X connect 5 0 11 0;
#X connect 6 0 8 0;
#X connect 7 0 6 0;
#X connect 9 0 17 0;
#X connect 10 0 0 0;
#X connect 14 0 2 0;
#X connect 15 0 23 0;
#X connect 17 0 18 0;
#X connect 18 0 1 0;
#X connect 19 0 20 0;
#X connect 20 0 7 0;
#X connect 21 0 22 0;
#X connect 22 0 2 1;
#X connect 22 0 32 0;
#X connect 23 0 3 0;
#X connect 24 0 23 1;
#X connect 32 0 16 0;
#X connect 33 0 11 0;
#X restore 62 63 pd Freq-v8-sig-;
#X obj 304 162 cnv 15 42 25 empty empty empty 20 12 0 14 -24198 -66577
0;
#N canvas 336 174 309 137 ?. 0;
#X obj 3 83 cnv 15 300 46 empty empty empty 20 12 0 14 -224896 -66577
0;
#X obj 3 6 cnv 18 300 70 empty empty ARGOPdMiniModules 3 10 1 14 -4033
-1 1.04858e+06;
#X obj 26 26 cnv 10 10 10 empty empty Gerard 0 5 1 11 -4033 -1 1.04858e+06
;
#X obj 64 26 cnv 10 10 10 empty empty Paresys 0 5 1 11 -4033 -1 1.04858e+06
;
#X obj 7 37 pddp/pddplink http://gerard.paresys.free.fr/ARGOPd/;
#X text 8 85 Construit sous / Build under Pd 0.43.4-extended;
#X obj 8 111 pddp/pddplink http://puredata.info/downloads/pd-extended
;
#X obj 7 50 pddp/pddplink http://paresys.pagesperso-orange.fr/ARGOPd/
;
#X text 7 98 or Pd-0.46-7 + deken;
#X restore 308 166 pd ?.;
#X text 282 80 28 8 2019;
#X connect 0 0 2 0;
#X connect 3 0 13 1;
#X connect 4 0 13 0;
#X connect 7 0 13 2;
#X connect 13 0 8 0;
#X connect 13 1 0 0;
#X connect 13 2 7 0;
#X connect 13 3 3 0;
#X coords 0 -1 1 1 246 36 1 100 100;
#X restore 239 237 pd ARGO;
#N canvas 355 145 366 204 ARGO 0;
#X obj 92 143 osc~;
#X obj 101 101 cnv 20 244 34 empty ColorTime Oscill-Sinus. 155 8 1
14 -208064 -1 1.04858e+06;
#X obj 92 168 outlet~;
#X obj 100 106 nbx 7 12 0 20000 0 1 \$0-A ColorTime Hz 60 7 1 9 -208064
-1 -1 493.883 256;
#X obj 87 26 inlet~;
#X obj 101 131 cnv 4 10 4 empty empty empty 20 12 0 14 -1 -66577 0
;
#X obj 101 101 cnv 4 10 4 empty empty empty 20 12 0 14 -1728 -66577
0;
#X obj 103 118 hsl 241 12 0 1 0 0 \$0-A ColorTime empty 0 7 1 9 -262144
-1 -1 17900 0;
#X obj 103 118 hsl 241 12 0 1 0 0 \$0-A ColorTime B3 0 7 1 9 -208064
-1728 -1 24000 0;
#X text 155 147 2 HSLIDER superposés;
#X text 154 136 ATTENTION;
#X obj 197 52 cnv 15 60 30 empty empty empty 20 12 0 14 -24198 -66577
0;
#N canvas 161 113 425 238 Help 0;
#X obj 8 85 cnv 15 400 100 empty empty empty 20 12 0 14 -233017 -66577
0;
#X text 12 87 Citation;
#X text 10 45 Sensibilitée de l'entrée de contrôle de la fréquence:
;
#X text 10 57 1 = 240 1/2 ton = 20 octaves;
#X text 11 19 Oscillateur sinusoïdal;
#X text 22 106 The osc~ object outputs a cosine wave. If no argument
is supplied \, the input is taken to be an audio signal.;
#X restore 204 58 pd Help;
#N canvas 86 284 344 337 Freq-v8-sig- 0;
#X obj 227 64 ftom;
#X obj 277 223 mtof;
#X obj 139 148 +~;
#X obj 7 195 snapshot~;
#X obj 7 217 change;
#X msg 7 242 set \$1;
#X obj 139 251 clip~ 0 20000;
#X obj 139 228 mtof~;
#X obj 139 280 outlet~;
#X obj 278 40 inlet;
#X obj 227 40 inlet;
#X obj 36 280 outlet;
#X obj 277 280 outlet;
#X text 33 298 Hslider;
#X obj 139 40 inlet~;
#X obj 6 40 loadbang;
#X obj 227 280 outlet;
#X obj 277 162 * 240;
#X obj 277 185 - 108;
#X obj 139 176 *~ 240;
#X obj 139 198 -~ 108;
#X obj 227 87 + 108;
#X obj 227 109 / 240;
#X obj 7 93 metro 200;
#X obj 62 40 r SendFluid;
#X text 42 309 Over;
#X text 279 298 Number;
#X text 224 23 Number;
#X text 226 297 Hslider;
#X text 228 308 Under;
#X text 279 10 Hslider;
#X text 284 21 Under;
#X msg 227 250 set \$1;
#N canvas 220 243 583 317 pitchb-11-2010 0;
#X obj 78 119 mod 12;
#X obj 78 143 sel 0 1 2 3 4 5 6 7 8 9 10 11;
#X msg 254 178 A;
#X msg 308 178 B;
#X msg 200 178 G;
#X msg 11 178 C;
#X msg 65 178 D;
#X msg 119 178 E;
#X msg 146 178 F;
#X obj 212 9 inlet;
#X obj 385 123 div 12;
#X obj 212 87 t f f;
#X text 394 215 -> Numero de l'octave;
#X text 221 72 -> Numero MIDI de la note (69 = A3 = 440Hz);
#X msg 268 268 label \$1;
#X obj 268 291 outlet;
#X msg 38 178 Db;
#X msg 92 178 Eb;
#X msg 173 178 Gb;
#X msg 227 178 Ab;
#X msg 281 178 Bb;
#X text 377 86 (70 = A#3 = Bb3);
#X obj 268 246 symbol;
#X text 19 239 Impossible d'afficher # dans un label;
#X text 19 251 donc j'affiche b;
#X obj 212 59 int;
#X text 263 31 -> pour corriger certaines erreurs de calcul;
#X obj 385 152 - 12;
#X text 263 43 et le pb du passage a zero de mod 12;
#X obj 212 33 + 120.5;
#X obj 268 221 cyclone/sprintf %s%d;
#X connect 0 0 1 0;
#X connect 1 0 5 0;
#X connect 1 1 16 0;
#X connect 1 2 6 0;
#X connect 1 3 17 0;
#X connect 1 4 7 0;
#X connect 1 5 8 0;
#X connect 1 6 18 0;
#X connect 1 7 4 0;
#X connect 1 8 19 0;
#X connect 1 9 2 0;
#X connect 1 10 20 0;
#X connect 1 11 3 0;
#X connect 2 0 30 0;
#X connect 3 0 30 0;
#X connect 4 0 30 0;
#X connect 5 0 30 0;
#X connect 6 0 30 0;
#X connect 7 0 30 0;
#X connect 8 0 30 0;
#X connect 9 0 29 0;
#X connect 10 0 27 0;
#X connect 11 0 0 0;
#X connect 11 1 10 0;
#X connect 14 0 15 0;
#X connect 16 0 30 0;
#X connect 17 0 30 0;
#X connect 18 0 30 0;
#X connect 19 0 30 0;
#X connect 20 0 30 0;
#X connect 22 0 14 0;
#X connect 25 0 11 0;
#X connect 27 0 30 1;
#X connect 29 0 25 0;
#X connect 30 0 22 0;
#X restore 83 113 pd pitchb-11-2010;
#X connect 0 0 21 0;
#X connect 0 0 33 0;
#X connect 1 0 12 0;
#X connect 2 0 3 0;
#X connect 2 0 19 0;
#X connect 3 0 4 0;
#X connect 4 0 5 0;
#X connect 5 0 11 0;
#X connect 6 0 8 0;
#X connect 7 0 6 0;
#X connect 9 0 17 0;
#X connect 10 0 0 0;
#X connect 14 0 2 0;
#X connect 15 0 23 0;
#X connect 17 0 18 0;
#X connect 18 0 1 0;
#X connect 19 0 20 0;
#X connect 20 0 7 0;
#X connect 21 0 22 0;
#X connect 22 0 2 1;
#X connect 22 0 32 0;
#X connect 23 0 3 0;
#X connect 24 0 23 1;
#X connect 32 0 16 0;
#X connect 33 0 11 0;
#X restore 62 63 pd Freq-v8-sig-;
#X obj 304 162 cnv 15 42 25 empty empty empty 20 12 0 14 -24198 -66577
0;
#N canvas 336 174 309 137 ?. 0;
#X obj 3 83 cnv 15 300 46 empty empty empty 20 12 0 14 -224896 -66577
0;
#X obj 3 6 cnv 18 300 70 empty empty ARGOPdMiniModules 3 10 1 14 -4033
-1 1.04858e+06;
#X obj 26 26 cnv 10 10 10 empty empty Gerard 0 5 1 11 -4033 -1 1.04858e+06
;
#X obj 64 26 cnv 10 10 10 empty empty Paresys 0 5 1 11 -4033 -1 1.04858e+06
;
#X obj 7 37 pddp/pddplink http://gerard.paresys.free.fr/ARGOPd/;
#X text 8 85 Construit sous / Build under Pd 0.43.4-extended;
#X obj 8 111 pddp/pddplink http://puredata.info/downloads/pd-extended
;
#X obj 7 50 pddp/pddplink http://paresys.pagesperso-orange.fr/ARGOPd/
;
#X text 7 98 or Pd-0.46-7 + deken;
#X restore 308 166 pd ?.;
#X text 282 80 28 8 2019;
#X connect 0 0 2 0;
#X connect 3 0 13 1;
#X connect 4 0 13 0;
#X connect 7 0 13 2;
#X connect 13 0 8 0;
#X connect 13 1 0 0;
#X connect 13 2 7 0;
#X connect 13 3 3 0;
#X coords 0 -1 1 1 246 36 1 100 100;
#X restore 239 441 pd ARGO;
#N canvas 175 68 374 396 ARGO 0;
#X obj 101 101 cnv 20 116 34 empty ColorAmpli empty 20 12 0 14 -261299
-1 1.04858e+06;
#X obj 85 353 outlet~;
#X obj 157 104 cnv 10 20 10 empty ColorAmpli Ampli. 1 5 1 14 -261299
-1 1.04858e+06;
#X obj 85 43 inlet~;
#X obj 85 330 *~;
#X obj 115 118 hsl 101 12 -80 20 0 1 \$0-A ColorAmpli -12dB 0 7 1 9
-261299 -1 -1 6800 0;
#X obj 101 101 cnv 4 10 4 empty empty empty 20 12 0 14 -1 -66577 0
;
#X obj 101 131 cnv 4 10 4 empty empty empty 20 12 0 14 -1 -66577 0
;
#X msg -42 139 label \$1;
#X text 148 194 -> 0.0001..10 = -80dB..20dB;
#X obj 142 175 expr (pow(10 \, $f1 / 20));
#X obj 142 215 sel 0.0001;
#X msg 100 244 0;
#X obj 100 118 tgl 12 1 \$0-A \$0-B Mute 2 -5 1 9 -261299 -1 -1 0 1
;
#X obj 99 146 select 0 1;
#X obj 140 295 line~;
#X obj 140 275 pack 0 10;
#X msg 123 74 set 0;
#X obj -42 93 cyclone/sprintf %ddB;
#X obj -42 116 cyclone/tosymbol;
#X obj 261 342 cnv 15 42 25 empty empty empty 20 12 0 14 -24198 -66577
0;
#N canvas 336 174 309 137 ?. 0;
#X obj 3 83 cnv 15 300 46 empty empty empty 20 12 0 14 -224896 -66577
0;
#X obj 3 6 cnv 18 300 70 empty empty ARGOPdMiniModules 3 10 1 14 -4033
-1 1.04858e+06;
#X obj 26 26 cnv 10 10 10 empty empty Gerard 0 5 1 11 -4033 -1 1.04858e+06
;
#X obj 64 26 cnv 10 10 10 empty empty Paresys 0 5 1 11 -4033 -1 1.04858e+06
;
#X obj 7 37 pddp/pddplink http://gerard.paresys.free.fr/ARGOPd/;
#X text 8 85 Construit sous / Build under Pd 0.43.4-extended;
#X obj 8 111 pddp/pddplink http://puredata.info/downloads/pd-extended
;
#X obj 7 50 pddp/pddplink http://paresys.pagesperso-orange.fr/ARGOPd/
;
#X text 7 98 or Pd-0.46-7 + deken;
#X restore 265 346 pd ?.;
#X text 228 110 17 3 2016;
#X connect 3 0 4 0;
#X connect 4 0 1 0;
#X connect 5 0 10 0;
#X connect 5 0 18 0;
#X connect 8 0 5 0;
#X connect 10 0 11 0;
#X connect 11 0 12 0;
#X connect 11 1 16 0;
#X connect 11 1 17 0;
#X connect 12 0 16 0;
#X connect 12 0 19 0;
#X connect 13 0 14 0;
#X connect 14 0 5 0;
#X connect 14 1 12 0;
#X connect 15 0 4 1;
#X connect 16 0 15 0;
#X connect 17 0 13 0;
#X connect 18 0 19 0;
#X connect 19 0 8 0;
#X coords 0 -1 1 1 118 36 1 100 100;
#X restore 239 489 pd ARGO;
#N canvas 723 227 349 246 ARGO 0;
#X obj 101 101 cnv 20 104 34 empty ColorAmpli empty 20 12 0 14 -261299
-1 1.04858e+06;
#X obj 88 200 outlet~;
#X obj 134 104 cnv 10 20 10 empty ColorAmpli Ampli. 1 5 1 14 -261299
-1 1.04858e+06;
#X obj 88 74 inlet~;
#X obj 185 74 inlet~;
#X obj 87 173 *~;
#X obj 195 101 cnv 4 10 4 empty empty empty 20 12 0 14 -258113 -66577
0;
#X obj 101 101 cnv 4 10 4 empty empty empty 20 12 0 14 -1 -66577 0
;
#X obj 101 131 cnv 4 10 4 empty empty empty 20 12 0 14 -1 -66577 0
;
#X obj 103 118 hsl 101 12 0 1.25 0 1 \$0-A ColorAmpli empty 0 7 1 9
-262144 -1 -1 0 0;
#X obj 103 118 hsl 101 12 0 1.25 0 0 \$0-A ColorAmpli -80dB 0 7 1 9
-261299 -258049 -1 5120 0;
#X text 211 127 2 HSLIDER superposés;
#X text 210 116 <-- ATTENTION;
#X obj 215 154 cnv 15 60 30 empty empty empty 20 12 0 14 -24198 -66577
0;
#N canvas 346 353 425 238 Help 0;
#X text 11 19 Amplificateur à gain controlé logarithmiquement;
#X text 10 45 Sensibilitée de l'entrée de contrôle du gain:;
#X text 10 60 1 = +80 dB;
#X text 11 74 Cela signifie par exemple:;
#X text 189 86 1 = 0 dB;
#X text 171 98 0.75 = -20 dB;
#X text 171 111 0.5 = -40 dB;
#X text 171 124 0.25 = -60 dB;
#X text 171 74 1.25 = +20 dB (slider à droite);
#X text 189 137 0 = -80 dB (slider à gauche);
#X restore 222 160 pd Help;
#X text 22 33 Logarithmic Gain Controlled Amplifier;
#X text 209 97 30 3 2021;
#X text 22 49 Amplificateur à gain controlé logarithmiquement;
#X obj 271 199 cnv 15 34 16 empty empty empty 20 12 0 14 -24198 -66577
0;
#N canvas 353 174 333 161 ?? 0;
#X obj 17 89 cnv 15 300 56 empty empty empty 20 12 0 14 -224896 -66577
0;
#X obj 17 12 cnv 18 300 70 empty empty ARGOPdMiniModules 3 10 1 14
-4033 -1 1.04858e+06;
#X obj 40 32 cnv 10 10 10 empty empty Gerard 0 5 1 11 -4033 -1 1.04858e+06
;
#X obj 78 32 cnv 10 10 10 empty empty Paresys 0 5 1 11 -4033 -1 1.04858e+06
;
#X obj 20 54 pddp/pddplink http://gerard.paresys.free.fr/ARGOPd/;
#X obj 22 126 pddp/pddplink http://puredata.info/downloads/pd-extended
;
#X obj 22 102 pddp/pddplink http://puredata.info/downloads/pure-data
;
#X text 22 90 Construit sous / Build under Pd-0.49...;
#X text 21 114 or Pd 0.43.4-extended;
#X obj 20 66 pddp/pddplink https://paresys.pagesperso-orange.fr/ARGOPd/
;
#X obj 20 42 pddp/pddplink https://github.com/gerardparesys/ARGOPd
;
#X restore 271 199 pd ??;
#N canvas 593 326 583 314 Ampli-v2-log 0;
#X obj 253 60 loadbang;
#X msg 360 209 set \$1;
#X obj 181 99 +~;
#X obj 360 151 snapshot~;
#X obj 360 184 change;
#X obj 429 60 inlet;
#X obj 384 241 outlet;
#X obj 181 60 inlet~;
#X msg 429 209 label \$1;
#X obj 360 112 metro 200;
#X obj 312 60 r SendFluid;
#X text 381 257 Hslider;
#X text 424 33 Hslider;
#X text 389 269 Over;
#X text 429 44 Under;
#X obj 181 241 outlet~;
#X text 119 135 0..1.25 ->;
#X text 17 201 0.0001..10 = -80dB..20dB ->;
#X obj 429 88 * 80;
#X obj 429 112 - 80;
#X text 438 167 -> -80dB..20dB;
#X text 435 128 -> -80 .. 20;
#X text 377 282 0 .. 1.25;
#X text 416 21 0 .. 1.25;
#X text 315 8 Fluidité de;
#X text 314 19 l'affichage;
#X text 315 30 des sliders;
#X text 293 41 (200ms par défaut);
#X obj 429 184 cyclone/tosymbol;
#X obj 429 151 cyclone/sprintf %ddB;
#X obj 181 151 expr~ pow(10000 \, $v1)/10000;
#X connect 0 0 9 0;
#X connect 1 0 6 0;
#X connect 2 0 3 0;
#X connect 2 0 30 0;
#X connect 3 0 4 0;
#X connect 4 0 1 0;
#X connect 5 0 2 1;
#X connect 5 0 18 0;
#X connect 7 0 2 0;
#X connect 8 0 6 0;
#X connect 9 0 3 0;
#X connect 10 0 9 1;
#X connect 18 0 19 0;
#X connect 19 0 29 0;
#X connect 28 0 8 0;
#X connect 29 0 28 0;
#X connect 30 0 15 0;
#X restore 102 149 pd Ampli-v2-log;
#X connect 3 0 5 0;
#X connect 4 0 20 0;
#X connect 5 0 1 0;
#X connect 9 0 20 1;
#X connect 20 0 5 1;
#X connect 20 1 10 0;
#X coords 0 -1 1 1 106 36 1 100 100;
#X restore 239 194 pd ARGO;
#N canvas 723 227 349 246 ARGO 0;
#X obj 101 101 cnv 20 104 34 empty ColorAmpli empty 20 12 0 14 -261299
-1 1.04858e+06;
#X obj 88 200 outlet~;
#X obj 134 104 cnv 10 20 10 empty ColorAmpli Ampli. 1 5 1 14 -261299
-1 1.04858e+06;
#X obj 88 74 inlet~;
#X obj 185 74 inlet~;
#X obj 87 173 *~;
#X obj 195 101 cnv 4 10 4 empty empty empty 20 12 0 14 -258113 -66577
0;
#X obj 101 101 cnv 4 10 4 empty empty empty 20 12 0 14 -1 -66577 0
;
#X obj 101 131 cnv 4 10 4 empty empty empty 20 12 0 14 -1 -66577 0
;
#X obj 103 118 hsl 101 12 0 1.25 0 1 \$0-A ColorAmpli empty 0 7 1 9
-262144 -1 -1 0 0;
#X obj 103 118 hsl 101 12 0 1.25 0 0 \$0-A ColorAmpli -80dB 0 7 1 9
-261299 -258049 -1 8560 0;
#X text 211 127 2 HSLIDER superposés;
#X text 210 116 <-- ATTENTION;
#X obj 215 154 cnv 15 60 30 empty empty empty 20 12 0 14 -24198 -66577
0;
#N canvas 346 353 425 238 Help 0;
#X text 11 19 Amplificateur à gain controlé logarithmiquement;
#X text 10 45 Sensibilitée de l'entrée de contrôle du gain:;
#X text 10 60 1 = +80 dB;
#X text 11 74 Cela signifie par exemple:;
#X text 189 86 1 = 0 dB;
#X text 171 98 0.75 = -20 dB;
#X text 171 111 0.5 = -40 dB;
#X text 171 124 0.25 = -60 dB;
#X text 171 74 1.25 = +20 dB (slider à droite);
#X text 189 137 0 = -80 dB (slider à gauche);
#X restore 222 160 pd Help;
#X text 22 33 Logarithmic Gain Controlled Amplifier;
#X text 209 97 30 3 2021;
#X text 22 49 Amplificateur à gain controlé logarithmiquement;
#X obj 271 199 cnv 15 34 16 empty empty empty 20 12 0 14 -24198 -66577
0;
#N canvas 353 174 333 161 ?? 0;
#X obj 17 89 cnv 15 300 56 empty empty empty 20 12 0 14 -224896 -66577
0;
#X obj 17 12 cnv 18 300 70 empty empty ARGOPdMiniModules 3 10 1 14
-4033 -1 1.04858e+06;
#X obj 40 32 cnv 10 10 10 empty empty Gerard 0 5 1 11 -4033 -1 1.04858e+06
;
#X obj 78 32 cnv 10 10 10 empty empty Paresys 0 5 1 11 -4033 -1 1.04858e+06
;
#X obj 20 54 pddp/pddplink http://gerard.paresys.free.fr/ARGOPd/;
#X obj 22 126 pddp/pddplink http://puredata.info/downloads/pd-extended
;
#X obj 22 102 pddp/pddplink http://puredata.info/downloads/pure-data
;
#X text 22 90 Construit sous / Build under Pd-0.49...;
#X text 21 114 or Pd 0.43.4-extended;
#X obj 20 66 pddp/pddplink https://paresys.pagesperso-orange.fr/ARGOPd/
;
#X obj 20 42 pddp/pddplink https://github.com/gerardparesys/ARGOPd
;
#X restore 271 199 pd ??;
#N canvas 593 326 583 314 Ampli-v2-log 0;
#X obj 253 60 loadbang;
#X msg 360 209 set \$1;
#X obj 181 99 +~;
#X obj 360 151 snapshot~;
#X obj 360 184 change;
#X obj 429 60 inlet;
#X obj 384 241 outlet;
#X obj 181 60 inlet~;
#X msg 429 209 label \$1;
#X obj 360 112 metro 200;
#X obj 312 60 r SendFluid;
#X text 381 257 Hslider;
#X text 424 33 Hslider;
#X text 389 269 Over;
#X text 429 44 Under;
#X obj 181 241 outlet~;
#X text 119 135 0..1.25 ->;
#X text 17 201 0.0001..10 = -80dB..20dB ->;
#X obj 429 88 * 80;
#X obj 429 112 - 80;
#X text 438 167 -> -80dB..20dB;
#X text 435 128 -> -80 .. 20;
#X text 377 282 0 .. 1.25;
#X text 416 21 0 .. 1.25;
#X text 315 8 Fluidité de;
#X text 314 19 l'affichage;
#X text 315 30 des sliders;
#X text 293 41 (200ms par défaut);
#X obj 429 184 cyclone/tosymbol;
#X obj 429 151 cyclone/sprintf %ddB;
#X obj 181 151 expr~ pow(10000 \, $v1)/10000;
#X connect 0 0 9 0;
#X connect 1 0 6 0;
#X connect 2 0 3 0;
#X connect 2 0 30 0;
#X connect 3 0 4 0;
#X connect 4 0 1 0;
#X connect 5 0 2 1;
#X connect 5 0 18 0;
#X connect 7 0 2 0;
#X connect 8 0 6 0;
#X connect 9 0 3 0;
#X connect 10 0 9 1;
#X connect 18 0 19 0;
#X connect 19 0 29 0;
#X connect 28 0 8 0;
#X connect 29 0 28 0;
#X connect 30 0 15 0;
#X restore 102 149 pd Ampli-v2-log;
#X connect 3 0 5 0;
#X connect 4 0 20 0;
#X connect 5 0 1 0;
#X connect 9 0 20 1;
#X connect 20 0 5 1;
#X connect 20 1 10 0;
#X coords 0 -1 1 1 106 36 1 100 100;
#X restore 239 395 pd ARGO;
#N canvas 515 163 473 329 ARGO 0;
#X obj 101 101 cnv 20 130 72 empty ColorForm Reverb1/2. 53 12 1 14
-188398 -1 1.04858e+06;
#X obj 101 169 cnv 4 10 4 empty empty empty 20 12 0 14 -1 -66577 0
;
#X obj 221 169 cnv 4 10 4 empty empty empty 0 0 0 9 -1 -66577 0;
#X obj 86 37 inlet~;
#X obj 366 37 inlet~;
#X obj 101 101 cnv 4 10 4 empty empty empty 20 12 0 14 -1 -66577 0
;
#X obj 87 300 outlet~;
#X obj 354 300 outlet~;
#X obj 221 101 cnv 4 10 4 empty empty empty 0 0 0 9 -1 -66577 0;
#X obj 353 107 cnv 15 60 30 empty empty empty 20 12 0 14 -24198 -66577
0;
#N canvas 307 210 482 191 Help 0;
#X obj 18 82 cnv 15 440 80 empty empty empty 20 12 0 14 -228856 -66577
0;
#X text 21 82 Citation;
#X text 15 9 - Voir Pure Documentation Browser -> 3.audio.examples
-> G08.reverb.pd;
#X text 15 41 - seuls les "early echoes" sont conservés.;
#X text 49 107 which also increase echo density.;
#X text 46 97 "early echo" generators \,;
#X text 16 168 iem_delay/n_delay1p_line~ replace by cyclone/delay~
;
#X restore 360 114 pd Help;
#N canvas 668 177 674 559 reverb 0;
#X obj 28 50 inlet~;
#X obj 28 529 outlet~;
#X obj 81 529 outlet~;
#X obj 28 243 +~;
#X obj 81 243 -~;
#X obj 28 294 +~;
#X obj 81 294 -~;
#X obj 28 346 +~;
#X obj 81 346 -~;
#X obj 28 396 +~;
#X obj 81 396 -~;
#X obj 28 445 +~;
#X obj 81 445 -~;
#X text 347 337 which also increase echo density.;
#X text 344 327 "early echo" generators \,;
#X obj 213 190 * 5.43216;
#X obj 213 243 * 8.45346;
#X obj 213 295 * 13.4367;
#X obj 213 346 * 21.5463;
#X obj 213 397 * 34.3876;
#X obj 213 445 * 55.5437;
#X obj 81 499 -~;
#X obj 305 50 inlet;
#X obj 330 103 delay 300;
#X text 307 18 Time;
#X text 299 31 0..100;
#X obj 572 50 loadbang;
#X obj 572 103 samplerate~;
#X text 308 184 -> 0.01...10 * 44.1;
#X obj 305 133 float;
#X obj 305 161 expr pow(10 \, (3 * $f1 / 100)) * $f2 / 100000 \;;
#X obj 96 212 cyclone/delay~ 25000;
#X obj 96 265 cyclone/delay~ 25000;
#X obj 96 318 cyclone/delay~ 25000;
#X obj 96 370 cyclone/delay~ 25000;
#X obj 96 418 cyclone/delay~ 25000;
#X obj 96 470 cyclone/delay~ 25000;
#X text 220 459 -> max = 24494.8;
#X connect 0 0 4 0;
#X connect 0 0 3 0;
#X connect 0 0 31 0;
#X connect 3 0 5 0;
#X connect 3 0 6 0;
#X connect 4 0 32 0;
#X connect 5 0 7 0;
#X connect 5 0 8 0;
#X connect 6 0 33 0;
#X connect 7 0 9 0;
#X connect 7 0 10 0;
#X connect 8 0 34 0;
#X connect 9 0 11 0;
#X connect 9 0 12 0;
#X connect 10 0 35 0;
#X connect 11 0 1 0;
#X connect 11 0 21 0;
#X connect 12 0 36 0;
#X connect 15 0 31 1;
#X connect 16 0 32 1;
#X connect 17 0 33 1;
#X connect 18 0 34 1;
#X connect 19 0 35 1;
#X connect 20 0 36 1;
#X connect 21 0 2 0;
#X connect 22 0 29 0;
#X connect 23 0 29 0;
#X connect 26 0 27 0;
#X connect 26 0 23 0;
#X connect 27 0 30 1;
#X connect 29 0 30 0;
#X connect 30 0 15 0;
#X connect 30 0 16 0;
#X connect 30 0 17 0;
#X connect 30 0 18 0;
#X connect 30 0 19 0;
#X connect 30 0 20 0;
#X connect 31 0 3 1;
#X connect 31 0 4 1;
#X connect 32 0 6 1;
#X connect 32 0 5 1;
#X connect 33 0 8 1;
#X connect 33 0 7 1;
#X connect 34 0 10 1;
#X connect 34 0 9 1;
#X connect 35 0 12 1;
#X connect 35 0 11 1;
#X connect 36 0 1 0;
#X connect 36 0 21 1;
#X restore 220 229 pd reverb;
#X f 10;
#N canvas 611 406 251 223 Brillance 0;
#X obj 109 148 lop~ 5;
#X obj 109 17 inlet~;
#X obj 109 177 outlet~;
#X obj 156 120 line;
#X obj 156 17 inlet;
#X msg 156 96 \$1 10;
#X obj 156 69 mtof;
#X obj 156 44 + 35;
#X connect 0 0 2 0;
#X connect 1 0 0 0;
#X connect 3 0 0 1;
#X connect 4 0 7 0;
#X connect 5 0 3 0;
#X connect 6 0 5 0;
#X connect 7 0 6 0;
#X restore 220 198 pd Brillance;
#X obj 160 101 cnv 4 10 4 empty empty empty 20 12 0 14 -260097 -66577
0;
#X obj 191 101 cnv 4 10 4 empty empty empty 20 12 0 14 -260097 -66577
0;
#X obj 129 101 cnv 4 10 4 empty empty empty 20 12 0 14 -260097 -66577
0;
#X obj 103 144 hsl 127 12 0 100 0 1 \$0-A ColorForm Brill=82 0 7 1
9 -188398 -1 -1 10400 0;
#X obj 103 156 hsl 127 12 0 100 0 1 \$0-A ColorAmpli Effect=50 0 7
1 9 -261299 -1 -1 6300 0;
#X obj 103 132 hsl 127 12 0 100 0 1 \$0-A ColorAmpli Time=89 0 7 1
9 -191424 -1 -1 11300 0;
#X obj 203 37 inlet;
#X obj 132 37 inlet;
#X obj 275 37 inlet;
#X obj 203 64 clip 0 100;
#X obj 132 64 clip 0 100;
#X obj 275 64 clip 0 100;
#N canvas 465 101 242 205 label 0;
#X msg 34 136 label \$1;
#X obj 34 41 inlet;
#X obj 34 163 outlet;
#X obj 34 114 cyclone/tosymbol;
#X obj 34 68 expr (int($f1)) \;;
#X obj 34 92 cyclone/sprintf Brill=%s;
#X connect 0 0 2 0;
#X connect 1 0 4 0;
#X connect 3 0 0 0;
#X connect 4 0 5 0;
#X connect 5 0 3 0;
#X restore 6 151 pd label;
#N canvas 465 101 242 205 label 0;
#X msg 34 136 label \$1;
#X obj 34 41 inlet;
#X obj 34 163 outlet;
#X obj 34 114 cyclone/tosymbol;
#X obj 34 68 expr (int($f1)) \;;
#X obj 34 92 cyclone/sprintf Time=%s;
#X connect 0 0 2 0;
#X connect 1 0 4 0;
#X connect 3 0 0 0;
#X connect 4 0 5 0;
#X connect 5 0 3 0;
#X restore 7 128 pd label;
#N canvas 465 101 242 205 label 0;
#X msg 34 136 label \$1;
#X obj 34 41 inlet;
#X obj 34 163 outlet;
#X obj 34 114 cyclone/tosymbol;
#X obj 34 68 expr (int($f1)) \;;
#X obj 34 92 cyclone/sprintf Effect=%s;
#X connect 0 0 2 0;
#X connect 1 0 4 0;
#X connect 3 0 0 0;
#X connect 4 0 5 0;
#X connect 5 0 3 0;
#X restore 5 171 pd label;
#X text 199 22 0..100;
#X text 129 20 0..100;
#X text 272 23 0..100;
#X text 192 11 Brillance;
#X text 272 12 Effect;
#X text 129 9 Time;
#N canvas 438 430 301 243 DirEffect 0;
#X obj 20 25 inlet~;
#X obj 193 25 inlet~;
#X obj 133 25 inlet~;
#X obj 68 25 inlet~;
#X obj 20 207 outlet~;
#X obj 193 207 outlet~;
#X text 26 9 Dir1;
#X text 76 9 Dir2;
#X text 189 9 Effect2;
#X text 129 9 Effect1;
#X obj 68 146 *~;
#X obj 133 146 *~;
#X obj 193 146 *~;
#X obj 20 146 *~;
#X obj 248 25 inlet;
#X text 247 9 0...100;
#X obj 208 82 * 0.002;
#X obj 83 82 - 100;
#X obj 83 108 * -0.01;
#X connect 0 0 13 0;
#X connect 1 0 12 0;
#X connect 2 0 11 0;
#X connect 3 0 10 0;
#X connect 10 0 5 0;
#X connect 11 0 4 0;
#X connect 12 0 5 0;
#X connect 13 0 4 0;
#X connect 14 0 16 0;
#X connect 14 0 17 0;
#X connect 16 0 11 1;
#X connect 16 0 12 1;
#X connect 17 0 18 0;
#X connect 18 0 10 1;
#X connect 18 0 13 1;
#X restore 87 263 pd DirEffect;
#X f 45;
#X obj 411 299 cnv 15 34 16 empty empty empty 20 12 0 14 -24198 -66577
0;
#N canvas 353 174 333 161 ?? 0;
#X obj 17 89 cnv 15 300 56 empty empty empty 20 12 0 14 -224896 -66577
0;
#X obj 17 12 cnv 18 300 70 empty empty ARGOPdMiniModules 3 10 1 14
-4033 -1 1.04858e+06;
#X obj 40 32 cnv 10 10 10 empty empty Gerard 0 5 1 11 -4033 -1 1.04858e+06
;
#X obj 78 32 cnv 10 10 10 empty empty Paresys 0 5 1 11 -4033 -1 1.04858e+06
;
#X obj 20 54 pddp/pddplink http://gerard.paresys.free.fr/ARGOPd/;
#X obj 22 126 pddp/pddplink http://puredata.info/downloads/pd-extended
;
#X obj 22 102 pddp/pddplink http://puredata.info/downloads/pure-data
;
#X text 22 90 Construit sous / Build under Pd-0.49...;
#X text 21 114 or Pd 0.43.4-extended;
#X obj 20 66 pddp/pddplink https://paresys.pagesperso-orange.fr/ARGOPd/
;
#X obj 20 42 pddp/pddplink https://github.com/gerardparesys/ARGOPd
;
#X restore 411 299 pd ??;
#X text 235 105 3 4 2021;
#X obj 160 120 bng 12 200 50 0 \$0-A \$0-B Reset 14 6 1 9 -188398 -1
-1;
#X msg 58 99 50;
#X obj 323 155 cnv 15 100 40 empty empty empty 20 12 0 14 -24198 -66577
0;
#X text 346 156 library:;
#X text 327 167 pddp;
#X text 327 178 cyclone;
#X connect 3 0 12 0;
#X connect 3 0 34 0;
#X connect 4 0 12 0;
#X connect 4 0 34 1;
#X connect 11 0 34 2;
#X connect 11 1 34 3;
#X connect 12 0 11 0;
#X connect 16 0 25 0;
#X connect 16 0 12 1;
#X connect 17 0 27 0;
#X connect 17 0 34 4;
#X connect 18 0 26 0;
#X connect 18 0 11 1;
#X connect 19 0 22 0;
#X connect 20 0 23 0;
#X connect 21 0 24 0;
#X connect 22 0 16 0;
#X connect 23 0 18 0;
#X connect 24 0 17 0;
#X connect 25 0 16 0;
#X connect 26 0 18 0;
#X connect 27 0 17 0;
#X connect 34 0 6 0;
#X connect 34 1 7 0;
#X connect 38 0 39 0;
#X connect 39 0 18 0;
#X connect 39 0 16 0;
#X connect 39 0 17 0;
#X coords 0 -1 1 1 132 74 1 100 100;
#X restore 239 546 pd ARGO;
#X obj 542 756 cnv 15 34 16 empty empty empty 20 12 0 14 -24198 -66577
0;
#N canvas 353 174 333 161 ?? 0;
#X obj 17 89 cnv 15 300 56 empty empty empty 20 12 0 14 -224896 -66577
0;
#X obj 17 12 cnv 18 300 70 empty empty ARGOPdMiniModules 3 10 1 14
-4033 -1 1.04858e+06;
#X obj 40 32 cnv 10 10 10 empty empty Gerard 0 5 1 11 -4033 -1 1.04858e+06
;
#X obj 78 32 cnv 10 10 10 empty empty Paresys 0 5 1 11 -4033 -1 1.04858e+06
;
#X obj 20 54 pddp/pddplink http://gerard.paresys.free.fr/ARGOPd/;
#X obj 22 126 pddp/pddplink http://puredata.info/downloads/pd-extended
;
#X obj 22 102 pddp/pddplink http://puredata.info/downloads/pure-data
;
#X text 22 90 Construit sous / Build under Pd-0.49...;
#X text 21 114 or Pd 0.43.4-extended;
#X obj 20 66 pddp/pddplink https://paresys.pagesperso-orange.fr/ARGOPd/
;
#X obj 20 42 pddp/pddplink https://github.com/gerardparesys/ARGOPd
;
#X restore 542 756 pd ??;
#N canvas 47 374 590 395 ARGO 0;
#X obj 262 100 rfft~;
#X msg 23 131 slide 10 10;
#X msg 7 277 range 0 512 \, 2 \, bufsize 512;
#X obj 262 27 inlet~;
#X msg 4 158 slide 1 1;
#X obj 103 131 *~ 0.361;
#X obj 201 201 cnv 12 196 34 empty empty empty 20 12 0 14 -262144 -1
1.04858e+06;
#X obj 423 166 cnv 10 44 10 empty empty Spectrum(2kHz/div). 1 5 1 14
-262144 -1 1.04858e+06;
#X obj 201 201 cnv 4 10 4 empty empty empty 20 12 0 14 -1 -66577 0
;
#X obj 234 206 tgl 12 1 \$0-SendLoop \$0-ReceiveLoop Gliss 15 6 1 9
-262144 -1 -1 0 1;
#X obj 4 104 sel 0 1;
#X msg 6 233 frgb 255 0 0;
#X msg 7 255 brgb 255 255 255;
#X obj 262 78 *~ 10;
#X obj 103 173 cyclone/vectral~ 1024;
#X obj 103 27 cyclone/count~ 0 1024 1 1;
#X obj 262 127 cyclone/cartopol~;
#X obj 201 220 cyclone/scope~ 198 129 4 3 256 0 512 0 0 0 0 255 0 0
255 252 255 0 98 102 0 empty;
#X obj 423 205 cnv 15 100 70 empty empty empty 20 12 0 14 -24198 -66577
0;
#X text 446 207 library:;
#X text 427 218 pddp;
#X text 427 231 cyclone;
#X obj 200 206 tgl 12 1 \$0-A \$0-B On 15 7 1 9 -262144 -1 -1 1 1;
#X obj 116 361 switch~ 1024 1 1;
#X msg 8 298 range 0 512 \, 4 \, bufsize 256;
#X msg 11 319 range 0 512 \, 8 \, bufsize 128;
#X obj 8 57 cnv 15 60 30 empty empty empty 20 12 0 14 -24198 -66577
0;
#N canvas 71 497 410 134 Help 0;
#X text 42 31 Spectrum;
#X text 41 52 With scope~ object of cyclone library;
#X text 41 72 Avec l'objet scope~ de la library cyclone;
#X restore 15 63 pd Help;
#X obj 505 358 cnv 15 34 16 empty empty empty 20 12 0 14 -24198 -66577
0;
#N canvas 353 174 333 161 ?? 0;
#X obj 17 89 cnv 15 300 56 empty empty empty 20 12 0 14 -224896 -66577
0;
#X obj 17 12 cnv 18 300 70 empty empty ARGOPdMiniModules 3 10 1 14
-4033 -1 1.04858e+06;
#X obj 40 32 cnv 10 10 10 empty empty Gerard 0 5 1 11 -4033 -1 1.04858e+06
;
#X obj 78 32 cnv 10 10 10 empty empty Paresys 0 5 1 11 -4033 -1 1.04858e+06
;
#X obj 20 54 pddp/pddplink http://gerard.paresys.free.fr/ARGOPd/;
#X obj 22 126 pddp/pddplink http://puredata.info/downloads/pd-extended
;
#X obj 22 102 pddp/pddplink http://puredata.info/downloads/pure-data
;
#X text 22 90 Construit sous / Build under Pd-0.49...;
#X text 21 114 or Pd 0.43.4-extended;
#X obj 20 66 pddp/pddplink https://paresys.pagesperso-orange.fr/ARGOPd/
;
#X obj 20 42 pddp/pddplink https://github.com/gerardparesys/ARGOPd
;
#X restore 505 358 pd ??;
#X obj 390 26 loadbang;
#X obj 278 200 hsl 120 18 0 127 0 0 \$0-A \$0-B Spec(2000Hz/div). -2
9 1 14 -262144 -262144 -1 0 1;
#X obj 357 62 bang;
#X obj 452 26 r pd-dsp-started;
#X text 346 182 2 5 2021;
#N canvas 735 342 333 296 label 0;
#X obj 68 93 samplerate~;
#X msg 68 186 label \$1;
#X obj 68 165 cyclone/tosymbol;
#X obj 68 68 inlet;
#X obj 68 215 outlet;
#X obj 68 118 expr int(2000 * $f1 / 44100);
#X obj 68 141 cyclone/sprintf Spec(%sHz/div).;
#X connect 0 0 5 0;
#X connect 1 0 4 0;
#X connect 2 0 1 0;
#X connect 3 0 0 0;
#X connect 5 0 6 0;
#X connect 6 0 2 0;
#X restore 390 126 pd label;
#X obj 471 93 bng 15 250 50 0 empty empty empty 17 7 0 10 -262144 -1
-1;
#X connect 0 0 16 0;
#X connect 0 1 16 1;
#X connect 1 0 14 0;
#X connect 2 0 17 0;
#X connect 3 0 13 0;
#X connect 4 0 14 0;
#X connect 5 0 14 0;
#X connect 9 0 10 0;
#X connect 10 0 4 0;
#X connect 10 1 1 0;
#X connect 11 0 17 0;
#X connect 12 0 17 0;
#X connect 13 0 0 0;
#X connect 14 0 17 0;
#X connect 15 0 14 1;
#X connect 15 0 5 0;
#X connect 16 0 14 2;
#X connect 22 0 23 0;
#X connect 22 0 32 0;
#X connect 24 0 17 0;
#X connect 25 0 17 0;
#X connect 30 0 35 0;
#X connect 32 0 35 0;
#X connect 33 0 35 0;
#X connect 35 0 31 0;
#X connect 36 0 35 0;
#X coords 0 -1 1 1 200 150 2 200 200;
#X restore 380 539 pd ARGO;
#X connect 2 0 1 0;
#X connect 27 0 28 0;
#X connect 28 0 38 1;
#X connect 29 0 30 0;
#X connect 30 0 37 1;
#X connect 33 0 37 0;
#X connect 34 0 38 0;
#X connect 35 0 36 0;
#X connect 36 0 39 0;
#X connect 36 0 42 0;
#X connect 37 0 34 0;
#X connect 38 0 35 0;
#X connect 39 0 31 0;
#X connect 39 0 32 0;
#X connect 39 1 31 1;
#X connect 39 1 32 1;
