#N canvas 647 23 693 568 10;
#X declare -stdlib Gem;
#X obj 4 9 cnv 15 15 15 empty empty ExMM167d-GEM-Sonification-Film3.pd
0 8 1 14 -262144 -66577 0;
#N canvas 413 140 402 279 ARGO 0;
#X obj 101 101 cnv 10 95 41 \$0-A \$0-B empty 20 12 0 14 -1 -1 1.04858e+06
;
#X obj 101 109 nbx 4 12 0 1e+37 0 0 \$0 \$0-ReceiveCpuPeak CPUPeak
45 7 1 11 -24198 -1 -24198 16 256;
#X obj 101 122 nbx 4 12 0 1e+37 0 0 \$0 \$0-ReceiveCpuMean CPUMean
45 7 1 11 -24198 -1 -24198 14.38 256;
#X obj 145 -55 cputime;
#X obj 145 -76 t b b;
#X text 188 24 (c) musil@iem.kug.ac.at;
#X text 230 37 IEM KUG;
#X text 78 18 CPU-load;
#X obj 144 -125 loadbang;
#X text 205 48 graz \, austria 2001;
#X obj 145 -100 metro 500;
#X obj 145 -34 * 0.2;
#X text 237 -88 -dsp-load in %;
#X text 228 -101 measure average- and peak-;
#X obj 37 18 * 100;
#X obj 37 63 int;
#X obj 37 41 + 0.499;
#X obj 37 86 * 0.01;
#N canvas 524 162 422 273 1p1zmodif 0;
#X text 134 89 (c) musil@iem.kug.ac.at;
#X text 179 99 IEM KUG;
#X obj 14 195 +;
#X text 151 108 graz \, austria 2001;
#X text 135 71 y[n] = a0*x[n] + a1*x[n-1] + b1*y[n-1];
#X text 18 13 x[n];
#X text 16 244 y[n];
#X text 84 111 y[n-1];
#X text 134 56 <float> control-IIR-filter 1.order;
#X obj 15 28 inlet;
#X obj 14 228 outlet;
#X obj 15 112 * 0.1;
#X obj 59 156 * 0.9;
#X text 139 144 a1 = 0;
#X text 139 155 b1 = 0.9;
#X text 139 133 a0 = 0.1;
#X obj 15 50 t f b;
#X text 135 40 Inspiré de 1p1z;
#X obj 59 112 f 0;
#X connect 2 0 10 0;
#X connect 2 0 18 1;
#X connect 9 0 16 0;
#X connect 11 0 2 0;
#X connect 12 0 2 1;
#X connect 16 0 11 0;
#X connect 16 1 18 0;
#X connect 18 0 12 0;
#X restore 37 -8 pd 1p1zmodif;
#X text 146 9 Inspiré de 5.reference/iemabs/help-dsp.pd;
#X text 141 83 25 3 2010;
#X connect 3 0 11 0;
#X connect 4 0 3 0;
#X connect 4 1 3 1;
#X connect 8 0 10 0;
#X connect 10 0 4 0;
#X connect 11 0 18 0;
#X connect 11 0 1 0;
#X connect 14 0 16 0;
#X connect 15 0 17 0;
#X connect 16 0 15 0;
#X connect 17 0 2 0;
#X connect 18 0 14 0;
#X coords 0 -1 1 1 97 43 1 100 100;
#X restore 35 229 pd ARGO;
#X obj 277 13 declare -stdlib Gem;
#N canvas 404 91 348 345 ARGO 0;
#X text 80 84 gemlist;
#X obj 92 229 pix_texture;
#X obj 92 37 inlet;
#X msg 250 181 quality \$1;
#X msg 48 108 set \$1;
#X obj 101 101 cnv 10 144 40 empty ColorForm empty 20 12 0 14 -228856
-1 1.04858e+06;
#X obj 101 101 cnv 4 10 4 empty empty empty 20 12 0 14 -128992 -66577
0;
#X obj 164 105 cnv 10 20 10 empty ColorForm GEM-Direct. 1 5 1 14 -228856
-1 1.04858e+06;
#X obj 100 118 tgl 12 1 \$0-A ColorGEM Quality 15 6 1 9 -262144 -1
-1 0 1;
#X obj 100 106 tgl 12 1 \$0-A ColorGEM On/Off 15 6 1 9 -262144 -1 -1
1 1;
#X obj 151 182 int;
#X obj 4 238 cnv 15 60 30 empty empty empty 20 12 0 14 -24198 -66577
0;
#N canvas 379 113 451 562 Help 0;
#X obj 13 281 cnv 15 400 150 empty empty empty 20 12 0 14 -258113 -66577
0;
#X text 16 284 - Erreur dans la fenêtre Pd:;
#X text 28 337 Se produit avec certaines cartes video \, de certains
PC \, sous Windows...;
#X text 28 365 Inconvenient: Charge CPU => la texture est calculée
(objet pix_texture) par le processeur de l'ordinateur et pas par la
carte video);
#X text 28 302 GL: énumérant non valide (répété);
#X text 28 313 OpenGL: invalid enumérant (repeat);
#X obj 13 35 cnv 15 430 180 empty empty empty 20 12 0 14 -233017 -66577
0;
#X text 28 51 Description: apply texture mapping;
#X text 27 69 Send a quality message to change the quality of the texture
mapping. GL_LINEAR is better than GL_NEAREST (but also more computationally
expensive). However \, on many machines (especially SGIs) \, there
is no speed difference.;
#X text 26 128 [pix_texture] tries to use the fastest way to get a
pix onto a texture. This implies using "rectangle"-texturing if available.
This \, in turn \, can lead to some problems with several geos. Try
using "rectangle 0" if you experience problems. Rectangle textures
cannot be REPEATed (they are always clamped-to-edge);
#X text 17 35 Citation;
#X text 15 -18 Envoie l'entrée remplir la fenêtre GEM;
#X text 15 -5 Send the input fill the GEM window;
#X text 4 -42 GEM-Direct;
#X text 28 325 Solution: cocher Compatible dans MM-GEM;
#X text 27 246 Utile avec certaines cartes video de certains PC sous
Windows...;
#X text 27 219 SendMode recu du MM GEM: Compatible = mode 0/1 = rectangle
0/1;
#X text 21 438 Nouveau depuis GEM-Direct 25 3 2010:;
#X text 31 451 - Ajout spigot sur l'entrée;
#X text 31 463 - Flip;
#X text 31 474 - Neg;
#X text 15 11 Neg = Négatif = Negative;
#X text 18 488 Nouveau depuis GEM-Direct 18 8 2011:;
#X text 32 504 - message rectangle au lieu de mode;
#X restore 11 244 pd Help;
#X obj 8 123 == 0;
#X obj 8 37 r SendMode;
#X obj 8 103 nbx 1 14 -1e+37 1e+37 0 1 empty empty empty 0 -6 0 10
-262144 -1 -1 0 256;
#X obj 92 180 spigot;
#X obj 162 130 hradio 12 1 1 4 \$0-A \$0-B 4x3 51 7 1 11 -262144 -1
-1 1;
#N canvas 303 128 648 228 Dimension 0;
#X obj 157 30 inlet;
#X obj 215 196 outlet;
#X obj -24 192 outlet;
#X msg 213 113 label 4x3;
#X msg 279 113 label 16x10;
#X msg 358 114 label 16x9;
#X text 248 25 4/3 = 5.33333333/4;
#X text 236 37 16/10 = 6.4/4;
#X text 242 49 16/9 = 7.11111111/4;
#X msg -157 111 5.33333;
#X msg -102 111 6.4;
#X msg -70 111 7.11111;
#X obj -41 29 inlet;
#X obj 75 31 inlet;
#X text -65 1 Flip Horizontal;
#X text 54 3 Flip Vertical;
#X obj 81 191 outlet;
#X text -32 13 0/1;
#X text 83 15 0/1;
#X obj 75 55 select 0 1;
#X msg 72 112 4;
#X msg 109 112 -4;
#X obj -24 166 *;
#X obj -41 54 select 0 1;
#X msg -14 111 1;
#X msg 22 111 -1;
#X text 248 61 3/4 = 3/4;
#X msg 145 113 label 3x4;
#X obj 157 56 sel 0 1 2 3;
#X msg -188 111 3;
#X obj -13 141 t b f;
#X connect 0 0 28 0;
#X connect 3 0 1 0;
#X connect 4 0 1 0;
#X connect 5 0 1 0;
#X connect 9 0 22 0;
#X connect 10 0 22 0;
#X connect 11 0 22 0;
#X connect 12 0 23 0;
#X connect 13 0 19 0;
#X connect 19 0 20 0;
#X connect 19 1 21 0;
#X connect 20 0 16 0;
#X connect 21 0 16 0;
#X connect 22 0 2 0;
#X connect 23 0 24 0;
#X connect 23 1 25 0;
#X connect 24 0 30 0;
#X connect 25 0 30 0;
#X connect 27 0 1 0;
#X connect 28 0 29 0;
#X connect 28 0 27 0;
#X connect 28 1 9 0;
#X connect 28 1 3 0;
#X connect 28 2 10 0;
#X connect 28 2 4 0;
#X connect 28 3 11 0;
#X connect 28 3 5 0;
#X connect 29 0 22 0;
#X connect 30 0 22 0;
#X connect 30 1 22 1;
#X restore 133 257 pd Dimension;
#X obj 92 284 rectangle 4 4;
#X obj 100 130 tgl 12 1 \$0-A \$0-B empty 15 6 1 9 -262144 -1 -1 0
1;
#X obj 112 130 tgl 12 1 \$0-A \$0-B Flip 15 7 1 9 -262144 -1 -1 0 1
;
#X msg 8 180 rectangle \$1;
#X obj 162 118 hradio 12 1 1 3 \$0-A \$0-B Normal 38 7 1 11 -262144
-1 -1 0;
#N canvas 588 245 450 300 env 0;
#X msg 4 198 env 5;
#X msg 49 197 env 2;
#X obj 138 75 pipe 500;
#X text 211 84 sous Linux;
#X text 193 74 <- Sinon plantage;
#X text 212 94 et Pd-extended-42.5;
#X msg 342 93 env \$1;
#X obj 341 72 nbx 5 14 -1e+37 1e+37 0 0 empty empty empty 0 -8 0 10
-262144 -1 -1 0 256;
#X obj 341 50 bng 15 250 50 0 empty empty empty 17 7 0 10 -262144 -1
-1;
#X obj 138 98 sel 0 1 2;
#X msg 92 197 env 3;
#X msg 174 198 label Normal;
#X msg 260 199 label Negative;
#X msg 357 200 label White;
#X obj 140 19 inlet;
#X obj 264 244 outlet;
#X obj 88 241 outlet;
#X connect 0 0 16 0;
#X connect 1 0 16 0;
#X connect 2 0 9 0;
#X connect 6 0 16 0;
#X connect 7 0 6 0;
#X connect 8 0 7 0;
#X connect 9 0 0 0;
#X connect 9 0 11 0;
#X connect 9 1 1 0;
#X connect 9 1 12 0;
#X connect 9 2 10 0;
#X connect 9 2 13 0;
#X connect 10 0 16 0;
#X connect 11 0 15 0;
#X connect 12 0 15 0;
#X connect 13 0 15 0;
#X connect 14 0 2 0;
#X restore 198 180 pd env;
#X obj 273 273 cnv 15 42 25 empty empty empty 20 12 0 14 -24198 -66577
0;
#N canvas 336 174 309 137 ?. 0;
#X obj 3 83 cnv 15 300 46 empty empty empty 20 12 0 14 -224896 -66577
0;
#X obj 3 6 cnv 18 300 70 empty empty ARGOPdMiniModules 3 10 1 14 -4033
-1 1.04858e+06;
#X obj 26 26 cnv 10 10 10 empty empty Gerard 0 5 1 11 -4033 -1 1.04858e+06
;
#X obj 64 26 cnv 10 10 10 empty empty Paresys 0 5 1 11 -4033 -1 1.04858e+06
;
#X obj 7 37 pddp/pddplink http://gerard.paresys.free.fr/ARGOPd/;
#X text 8 85 Construit sous / Build under Pd 0.43.4-extended;
#X obj 8 111 pddp/pddplink http://puredata.info/downloads/pd-extended
;
#X obj 7 50 pddp/pddplink http://paresys.pagesperso-orange.fr/ARGOPd/
;
#X text 7 98 or Pd-0.46-7 + deken;
#X restore 277 277 pd ?.;
#X text 204 84 24 11 2017;
#X connect 1 0 19 0;
#X connect 2 0 16 0;
#X connect 3 0 1 0;
#X connect 4 0 9 0;
#X connect 8 0 3 0;
#X connect 9 0 10 0;
#X connect 9 0 16 1;
#X connect 10 0 1 0;
#X connect 10 0 4 0;
#X connect 13 0 22 0;
#X connect 14 0 15 0;
#X connect 15 0 13 0;
#X connect 16 0 1 0;
#X connect 17 0 18 2;
#X connect 18 0 19 1;
#X connect 18 1 19 2;
#X connect 18 2 17 0;
#X connect 20 0 18 0;
#X connect 21 0 18 1;
#X connect 22 0 1 0;
#X connect 23 0 24 0;
#X connect 24 0 1 0;
#X connect 24 1 23 0;
#X coords 0 -1 1 1 146 42 1 100 100;
#X restore 13 505 pd ARGO;
#N canvas 652 176 676 459 ARGO 0;
#X text 289 6 gemlist;
#X obj 295 22 inlet;
#X obj 301 101 cnv 10 168 70 empty ColorForm empty 20 12 0 14 -228856
-1 1.04858e+06;
#X obj 301 101 cnv 4 10 4 empty empty empty 20 12 0 14 -128992 -66577
0;
#X obj 347 104 cnv 10 20 10 empty ColorForm GEM-Sonification. 1 5 1
14 -228856 -1 1.04858e+06;
#X obj 300 106 tgl 12 1 \$0-A ColorGEM On/Off 15 6 1 9 -262144 -1 -1
1 1;
#X obj 161 15 cnv 15 60 30 empty empty empty 20 12 0 14 -24198 -66577
0;
#N canvas 319 41 459 523 Help 0;
#X obj 16 427 cnv 15 400 50 empty empty empty 20 12 0 14 -258113 -66577
0;
#X text 19 430 - Erreur dans la fenêtre Pd:;
#X obj 14 151 cnv 15 430 260 empty empty empty 20 12 0 14 -233017 -66577
0;
#X text 18 151 Citation;
#X text 3 5 GEM-Sonifiation;
#X text 115 168 GEM object;
#X text 26 312 Outlets:;
#X text 34 325 Outlet 1: gemlist;
#X text 31 282 Depending on the size of the images you are converting
\, you will want to put a huge [block~ 65536 32] into your patch.;
#X text 34 341 Outlet 2: signal~ : red-channel (or Yuv- \, or grey-)
;
#X text 34 371 Outlet 3: signal~ : blue-channel (or yuV- \, or 0);
#X text 34 356 Outlet 2: signal~ : green-channel (or yUv- \, or 0)
;
#X text 34 386 Outlet 4: signal~ : alpha-channel (or 0);
#X text 26 187 Description: convert images to signals;
#X text 17 167 [pix_pix2sig~];
#X text 15 91 Nombre de pixels transformés = 256 ... 65536 \, 131072
\, 362144...;
#X text 13 118 High-pass-filter supprime la composante continue (DC)
des 4 sorties Audio.;
#X text 15 59 Utilise l'objet GEM pix_pix2sig~ pour "sonifier" les
pixels d'une image.;
#X text 16 19 Chaque pixel de l'image à son entrée est transformé en
4 échantillons Audio: Red Green Blue Alpha \, si l'image est RGBA.
;
#X obj 16 480 pddp/pddplink http://gerard.paresys.free.fr/Theme/Theme4.html
;
#X text 15 497 ExMM167-GEM-Sonification;
#X text 31 204 [pix_pix2sig~] will write the data it gets from images
as signals for each color-channel.;
#X text 31 230 [pix_pix2sig~] will try to put all the image-data into
one audio-block. it will not spread the data of one image over more
than one audio-block. therefore you will have to set the audio-blocksize
with [block~ <n>].;
#X restore 168 21 pd Help;
#X obj 300 118 hradio 12 1 1 11 \$0-A ColorForm 65536 134 7 1 10 -262144
-1 -1 8;
#X obj 348 130 hradio 12 1 1 8 \$0-A ColorForm 16 98 7 1 10 -262144
-1 -1 4;
#X obj 178 89 expr (pow(2 \, $f1));
#X obj 311 134 cnv 3 3 3 empty ColorForm Overlap 0 2 1 10 -228856 -1
1.04858e+06;
#N canvas 406 211 292 221 label 0;
#X msg 119 118 label \$1;
#X obj 119 46 inlet;
#X obj 118 146 outlet;
#X obj 119 96 cyclone/tosymbol;
#X obj 119 74 cyclone/sprintf %d;
#X connect 0 0 2 0;
#X connect 1 0 4 0;
#X connect 3 0 0 0;
#X connect 4 0 3 0;
#X restore 114 79 pd label;
#N canvas 406 211 292 221 label 0;
#X msg 119 118 label \$1;
#X obj 119 46 inlet;
#X obj 118 146 outlet;
#X obj 119 96 cyclone/tosymbol;
#X obj 119 74 cyclone/sprintf %d;
#X connect 0 0 2 0;
#X connect 1 0 4 0;
#X connect 3 0 0 0;
#X connect 4 0 3 0;
#X restore 191 109 pd label;
#X obj 301 167 cnv 4 10 4 empty empty empty 20 12 0 14 -128992 -66577
0;
#X obj 97 59 expr (pow(2 \, $f1 + 8));
#X obj 148 401 outlet;
#X obj 231 401 outlet~;
#X obj 329 167 cnv 4 10 4 empty empty empty 20 12 0 14 -1 -66577 0
;
#X obj 362 167 cnv 4 10 4 empty empty empty 20 12 0 14 -1 -66577 0
;
#X obj 394 167 cnv 4 10 4 empty empty empty 20 12 0 14 -1 -66577 0
;
#X obj 427 167 cnv 4 10 4 empty empty empty 20 12 0 14 -1 -66577 0
;
#X msg 228 209 0;
#X msg 109 209 1;
#X obj 149 186 pack 1 2;
#X msg 149 209 set \$1 \$2 1;
#X obj 178 143 t b b f b;
#X text 148 418 gemlist;
#X text 250 418 R;
#X text 345 418 G;
#X text 438 418 B;
#X text 527 418 Alpha;
#X obj 384 142 tgl 12 1 \$0-A \$0-B High-pass-filter 14 6 1 9 -262144
-1 -1 1 1;
#X obj 244 351 hip~ 50;
#X obj 244 375 *~;
#X obj 217 375 *~;
#X obj 449 282 == 0;
#X obj 326 401 outlet~;
#X obj 339 351 hip~ 50;
#X obj 339 375 *~;
#X obj 312 375 *~;
#X obj 421 401 outlet~;
#X obj 434 351 hip~ 50;
#X obj 434 375 *~;
#X obj 407 375 *~;
#X obj 519 401 outlet~;
#X obj 532 351 hip~ 50;
#X obj 532 375 *~;
#X obj 505 375 *~;
#X obj 325 159 cnv 3 3 3 empty ColorForm Red 0 2 1 10 -228856 -1 1.04858e+06
;
#X obj 353 159 cnv 3 3 3 empty ColorForm Green 0 2 1 10 -228856 -1
1.04858e+06;
#X obj 389 159 cnv 3 3 3 empty ColorForm Blue 0 2 1 10 -228856 -1 1.04858e+06
;
#X obj 412 159 cnv 3 3 3 empty ColorForm Alpha 0 2 1 10 -228856 -1
1.04858e+06;
#X text 103 128 256..262144;
#X obj 458 160 bng 12 50 20 0 \$0-A \$0-B empty 14 6 1 9 -262144 -1
-1;
#X obj 459 167 cnv 4 10 4 empty empty empty 20 12 0 14 -260097 -66577
0;
#X obj 591 401 outlet;
#N canvas 752 427 574 308 zzzzzzzzzzzz 0;
#X obj 73 49 inlet;
#X obj 10 243 outlet;
#X obj 73 139 pix_pix2sig~;
#X obj 345 243 switch~ 1024 4 1;
#X obj 346 49 inlet;
#X obj 64 243 outlet~;
#X obj 140 243 outlet~;
#X obj 216 243 outlet~;
#X obj 292 243 outlet~;
#X obj 423 49 bang~;
#X obj 454 243 outlet;
#X connect 0 0 2 0;
#X connect 2 0 1 0;
#X connect 2 1 5 0;
#X connect 2 2 6 0;
#X connect 2 3 7 0;
#X connect 2 4 8 0;
#X connect 4 0 3 0;
#X connect 9 0 10 0;
#X restore 295 281 pd zzzzzzzzzzzz;
#X obj 199 351 -~ 0.5;
#X obj 294 351 -~ 0.5;
#X obj 389 351 -~ 0.5;
#X obj 487 351 -~ 0.5;
#X obj 88 401 switch~;
#X obj 592 354 cnv 15 52 22 empty empty empty 20 12 0 14 -24198 -66577
0;
#N canvas 353 174 321 152 ?... 0;
#X obj 8 84 cnv 15 300 56 empty empty empty 20 12 0 14 -224896 -66577
0;
#X obj 8 7 cnv 18 300 70 empty empty ARGOPdMiniModules 3 10 1 14 -4033
-1 1.04858e+06;
#X obj 31 27 cnv 10 10 10 empty empty Gerard 0 5 1 11 -4033 -1 1.04858e+06
;
#X obj 69 27 cnv 10 10 10 empty empty Paresys 0 5 1 11 -4033 -1 1.04858e+06
;
#X obj 12 40 pddp/pddplink http://gerard.paresys.free.fr/ARGOPd/;
#X obj 13 121 pddp/pddplink http://puredata.info/downloads/pd-extended
;
#X obj 13 97 pddp/pddplink http://puredata.info/downloads/pure-data
;
#X text 13 85 Construit sous / Build under Pd-0.49...;
#X text 12 109 or Pd 0.43.4-extended;
#X obj 12 53 pddp/pddplink https://paresys.pagesperso-orange.fr/ARGOPd/
;
#X restore 595 357 pd ?...;
#X text 417 86 8 9 2019;
#X text 189 128 1..128;
#X obj 98 143 t b f b;
#X connect 1 0 57 0;
#X connect 5 0 62 0;
#X connect 8 0 15 0;
#X connect 9 0 10 0;
#X connect 10 0 13 0;
#X connect 10 0 26 0;
#X connect 12 0 8 0;
#X connect 13 0 9 0;
#X connect 15 0 12 0;
#X connect 15 0 67 0;
#X connect 22 0 57 1;
#X connect 23 0 57 1;
#X connect 24 0 25 0;
#X connect 25 0 57 1;
#X connect 26 0 23 0;
#X connect 26 1 24 0;
#X connect 26 2 24 1;
#X connect 26 3 22 0;
#X connect 32 0 34 1;
#X connect 32 0 36 0;
#X connect 32 0 39 1;
#X connect 32 0 43 1;
#X connect 32 0 47 1;
#X connect 33 0 34 0;
#X connect 34 0 17 0;
#X connect 35 0 17 0;
#X connect 36 0 35 1;
#X connect 36 0 40 1;
#X connect 36 0 44 1;
#X connect 36 0 48 1;
#X connect 38 0 39 0;
#X connect 39 0 37 0;
#X connect 40 0 37 0;
#X connect 42 0 43 0;
#X connect 43 0 41 0;
#X connect 44 0 41 0;
#X connect 46 0 47 0;
#X connect 47 0 45 0;
#X connect 48 0 45 0;
#X connect 54 0 56 0;
#X connect 57 0 16 0;
#X connect 57 1 33 0;
#X connect 57 1 58 0;
#X connect 57 2 38 0;
#X connect 57 2 59 0;
#X connect 57 3 42 0;
#X connect 57 3 60 0;
#X connect 57 4 46 0;
#X connect 57 4 61 0;
#X connect 57 5 54 0;
#X connect 58 0 35 0;
#X connect 59 0 40 0;
#X connect 60 0 44 0;
#X connect 61 0 48 0;
#X connect 67 0 23 0;
#X connect 67 1 24 0;
#X connect 67 2 22 0;
#X coords 0 -1 1 1 170 72 2 300 100;
#X restore 207 299 pd ARGO;
#N canvas 512 67 385 401 ARGO 0;
#X obj 101 101 cnv 20 116 34 empty ColorAmpli empty 20 12 0 14 -261299
-1 1.04858e+06;
#X obj 85 353 outlet~;
#X obj 157 104 cnv 10 20 10 empty ColorAmpli Ampli. 1 5 1 14 -261299
-1 1.04858e+06;
#X obj 85 43 inlet~;
#X obj 85 330 *~;
#X obj 115 118 hsl 101 12 -80 20 0 1 \$0-A ColorAmpli -9dB 0 7 1 9
-261299 -1 -1 7100 0;
#X obj 101 101 cnv 4 10 4 empty empty empty 20 12 0 14 -1 -66577 0
;
#X obj 101 131 cnv 4 10 4 empty empty empty 20 12 0 14 -1 -66577 0
;
#X obj 207 101 cnv 4 10 4 empty empty empty 20 12 0 14 -1 -66577 0
;
#X obj 207 131 cnv 4 10 4 empty empty empty 20 12 0 14 -1 -66577 0
;
#X obj 222 352 outlet~;
#X obj 222 42 inlet~;
#X obj 222 329 *~;
#X msg -42 138 label \$1;
#X text 148 194 -> 0.0001..10 = -80dB..20dB;
#X obj 142 175 expr (pow(10 \, $f1 / 20));
#X obj 142 215 sel 0.0001;
#X msg 100 244 0;
#X obj 100 118 tgl 12 1 \$0-A \$0-B Mute 2 -5 1 9 -261299 -1 -1 0 1
;
#X obj 99 146 select 0 1;
#X obj 140 295 line~;
#X obj 140 275 pack 0 10;
#X msg 123 74 set 0;
#X obj -42 92 cyclone/sprintf %ddB;
#X text 228 110 6 3 2016;
#X obj -42 115 cyclone/tosymbol;
#X obj 273 344 cnv 15 42 25 empty empty empty 20 12 0 14 -24198 -66577
0;
#N canvas 336 174 309 137 ?. 0;
#X obj 3 83 cnv 15 300 46 empty empty empty 20 12 0 14 -224896 -66577
0;
#X obj 3 6 cnv 18 300 70 empty empty ARGOPdMiniModules 3 10 1 14 -4033
-1 1.04858e+06;
#X obj 26 26 cnv 10 10 10 empty empty Gerard 0 5 1 11 -4033 -1 1.04858e+06
;
#X obj 64 26 cnv 10 10 10 empty empty Paresys 0 5 1 11 -4033 -1 1.04858e+06
;
#X obj 7 37 pddp/pddplink http://gerard.paresys.free.fr/ARGOPd/;
#X text 8 85 Construit sous / Build under Pd 0.43.4-extended;
#X obj 8 111 pddp/pddplink http://puredata.info/downloads/pd-extended
;
#X obj 7 50 pddp/pddplink http://paresys.pagesperso-orange.fr/ARGOPd/
;
#X text 7 98 or Pd-0.46-7 + deken;
#X restore 277 348 pd ?.;
#X connect 3 0 4 0;
#X connect 4 0 1 0;
#X connect 5 0 15 0;
#X connect 5 0 23 0;
#X connect 11 0 12 0;
#X connect 12 0 10 0;
#X connect 13 0 5 0;
#X connect 15 0 16 0;
#X connect 16 0 17 0;
#X connect 16 1 21 0;
#X connect 16 1 22 0;
#X connect 17 0 21 0;
#X connect 17 0 25 0;
#X connect 18 0 19 0;
#X connect 19 0 5 0;
#X connect 19 1 17 0;
#X connect 20 0 12 1;
#X connect 20 0 4 1;
#X connect 21 0 20 0;
#X connect 22 0 18 0;
#X connect 23 0 25 0;
#X connect 25 0 13 0;
#X coords 0 -1 1 1 118 36 1 100 100;
#X restore 216 463 pd ARGO;
#X obj 340 531 dac~;
#N canvas 286 45 728 239 ARGO 0;
#X obj 239 36 inlet~;
#X text 77 17 Left input;
#X text 224 17 Right input;
#X text 356 37 Stereo wav file format recorder;
#X text 356 52 Enregistreur de fichier audio wav à 2 canaux (stereo)
;
#X obj 88 36 inlet~;
#X obj 171 198 writesf~ 2;
#X text 356 67 L'extension .wav est ajoutée au nom du fichier automatiquement
;
#X obj 103 100 hsl 161 17 0 127 0 0 \$0-A \$0-B Record. 103 10 1 14
-261299 -261299 -1 0 1;
#X obj 255 101 cnv 4 10 4 empty empty empty 20 12 0 14 -1 -66577 0
;
#X obj 101 101 cnv 4 10 4 empty empty empty 20 12 0 14 -1 -66577 0
;
#X obj 112 100 nbx 4 17 0 9999 0 0 \$0-A ColorTime sec 59 9 1 15 -208064
-1 -1 0 256;
#X text 355 103 Clic n'importe où pour commencer un enregistrement
Audio -> Clic encore pour arrêter l'enregistrement;
#X text 456 130 Click anywhere to start recording Audio ->;
#X text 455 142 Click again to stop recording;
#X text 121 122 Hslider caché transformé en bouton;
#N canvas 415 66 351 399 record2 0;
#X obj 136 95 sel 0 1;
#X msg 171 260 start;
#X msg 107 259 stop;
#X msg 155 150 open \$1;
#X obj 155 126 savepanel;
#X obj 165 203 delay 1000;
#X obj 245 323 float;
#X obj 291 322 + 1;
#X obj 223 295 metro 1000;
#X msg 291 296 -1;
#X msg 11 257 0;
#X msg 42 257 1;
#X obj 66 210 t b b;
#X obj 165 229 t b b b b;
#N canvas 317 143 290 366 CouleurRecord2 0;
#X obj 122 -19 +;
#X obj 122 37 +;
#X obj 61 -75 * -65536;
#X obj 117 -75 * -256;
#X obj 163 -77 * -1;
#X obj 122 68 - 1;
#X obj 115 -202 inlet;
#X text 77 -97 R;
#X text 123 -99 G;
#X text 172 -98 B;
#X obj 122 123 outlet;
#X text 170 -169 Rouge;
#X msg 134 -121 255;
#X msg 167 -121 0;
#X obj 115 -178 sel 0 1;
#X text 56 -170 Rose;
#X msg 73 -121 200;
#X msg 40 -121 252;
#X obj 134 -148 t b b b;
#X msg 198 -121 0;
#X msg 104 -121 200;
#X obj 40 -148 t b b b;
#X msg 122 96 color \$1 \$1 -1;
#X connect 0 0 1 1;
#X connect 1 0 5 0;
#X connect 2 0 1 0;
#X connect 3 0 0 0;
#X connect 4 0 0 1;
#X connect 5 0 22 0;
#X connect 6 0 14 0;
#X connect 12 0 2 0;
#X connect 13 0 3 0;
#X connect 14 0 21 0;
#X connect 14 1 18 0;
#X connect 16 0 3 0;
#X connect 17 0 2 0;
#X connect 18 0 12 0;
#X connect 18 1 13 0;
#X connect 18 2 19 0;
#X connect 19 0 4 0;
#X connect 20 0 4 0;
#X connect 21 0 17 0;
#X connect 21 1 16 0;
#X connect 21 2 20 0;
#X connect 22 0 10 0;
#X restore 25 326 pd CouleurRecord2;
#X obj 136 75 tgl 15 0 \$0-A \$0-B empty 19 9 1 12 -262144 -258113
-1 0 1;
#X obj 136 30 b;
#X obj 136 52 delay 200;
#X obj 136 8 inlet;
#X obj 25 356 outlet;
#X text 22 372 Couleur;
#X obj 291 356 outlet;
#X text 288 372 Compteur;
#X obj 155 356 outlet;
#X text 152 372 writesf;
#X obj 199 176 t b b;
#X msg 72 33 0;
#X obj 72 8 loadbang;
#X msg 260 124 set 0;
#X msg 261 173 set 1;
#X obj 261 149 b;
#X connect 0 0 12 0;
#X connect 0 1 4 0;
#X connect 0 1 28 0;
#X connect 1 0 23 0;
#X connect 2 0 8 0;
#X connect 2 0 23 0;
#X connect 3 0 23 0;
#X connect 3 0 25 0;
#X connect 4 0 3 0;
#X connect 4 0 30 0;
#X connect 5 0 13 0;
#X connect 6 0 7 0;
#X connect 7 0 6 1;
#X connect 7 0 21 0;
#X connect 8 0 6 0;
#X connect 9 0 7 0;
#X connect 10 0 14 0;
#X connect 11 0 14 0;
#X connect 12 0 10 0;
#X connect 12 1 2 0;
#X connect 13 0 11 0;
#X connect 13 1 1 0;
#X connect 13 2 8 0;
#X connect 13 3 9 0;
#X connect 14 0 19 0;
#X connect 15 0 0 0;
#X connect 16 0 17 0;
#X connect 17 0 15 0;
#X connect 18 0 16 0;
#X connect 25 0 5 0;
#X connect 25 1 9 0;
#X connect 26 0 15 0;
#X connect 27 0 26 0;
#X connect 28 0 15 0;
#X connect 29 0 15 0;
#X connect 30 0 29 0;
#X restore 56 147 pd record2;
#X obj 636 186 cnv 15 42 25 empty empty empty 20 12 0 14 -24198 -66577
0;
#N canvas 336 174 309 137 ?. 0;
#X obj 3 83 cnv 15 300 46 empty empty empty 20 12 0 14 -224896 -66577
0;
#X obj 3 6 cnv 18 300 70 empty empty ARGOPdMiniModules 3 10 1 14 -4033
-1 1.04858e+06;
#X obj 26 26 cnv 10 10 10 empty empty Gerard 0 5 1 11 -4033 -1 1.04858e+06
;
#X obj 64 26 cnv 10 10 10 empty empty Paresys 0 5 1 11 -4033 -1 1.04858e+06
;
#X obj 7 37 pddp/pddplink http://gerard.paresys.free.fr/ARGOPd/;
#X text 8 85 Construit sous / Build under Pd 0.43.4-extended;
#X obj 8 111 pddp/pddplink http://puredata.info/downloads/pd-extended
;
#X obj 7 50 pddp/pddplink http://paresys.pagesperso-orange.fr/ARGOPd/
;
#X text 7 98 or Pd-0.46-7 + deken;
#X restore 640 190 pd ?.;
#X text 175 81 7 3 2016;
#X connect 0 0 6 1;
#X connect 5 0 6 0;
#X connect 8 0 16 0;
#X connect 16 0 8 0;
#X connect 16 1 6 0;
#X connect 16 2 11 0;
#X coords 0 -1 1 1 166 17 1 100 100;
#X restore 168 530 pd ARGO;
#N canvas 462 219 430 320 ARGO 0;
#X obj 40 -35 inlet~;
#X obj 251 108 cnv 10 44 10 empty empty Scope. 1 5 1 14 -262144 -1
1.04858e+06;
#X obj 101 101 cnv 4 10 4 empty empty empty 20 12 0 14 -1 -66577 0
;
#X msg -36 168 frgb 255 0 0;
#X obj 124 105 nbx 4 12 1 2000 0 1 \$0-A ColorTime ms/div 40 7 1 9
-208064 -1 -1 20 256;
#X obj 205 105 tgl 12 1 \$0-A \$0-B Sync 15 6 1 9 -262144 -1 -1 0 1
;
#X msg 128 52 delay 0 \, triglevel 0 \, trigger 0;
#X obj 126 5 sel 0 1;
#X msg -39 192 brgb 255 255 255;
#X obj 85 64 * 2;
#X msg 146 28 delay 1 \, triglevel 0.1 \, trigger 1;
#X obj 277 -36 inlet~;
#X obj 289 101 cnv 4 10 4 empty empty empty 20 12 0 14 -1 -66577 0
;
#X obj -14 80 t b b b b;
#X obj -15 57 bng 15 250 50 0 empty empty empty 17 7 0 10 -262144 -1
-1;
#X obj 196 -34 cnv 15 60 30 empty empty empty 20 12 0 14 -24198 -66577
0;
#N canvas 374 104 413 135 Help 0;
#X text 24 54 Voir MSP46ReferenceManual.pdf;
#X text 23 1 utilise l'objet Scope~ de la library cyclone;
#X text 24 26 Voir Browser -> Pure Data/examples/cyclone/scope-test.pd
;
#X text 24 40 Voir Browser -> Pure Data/examples/cyclone/pink-test.pd
;
#X text 24 -20 Scope;
#X restore 203 -28 pd Help;
#X obj 101 121 cnv 15 199 129 empty empty empty 20 12 0 14 -1 -66577
0;
#X obj 40 -11 clip~ -1 1;
#X obj 277 -12 clip~ -1 1;
#X msg -24 136 range -1 1;
#X msg -33 111 bufsize 176;
#X obj 101 123 cyclone/Scope~ 198 61 40 3 176 -1 1 0 0 0 0 255 0 0
255 255 255 0;
#X obj 101 187 cyclone/Scope~ 198 61 40 3 176 -1 1 0 0 0 0 255 0 0
255 255 255 0;
#X text 243 85 15 3 2016;
#X obj 308 224 cnv 15 42 25 empty empty empty 20 12 0 14 -24198 -66577
0;
#N canvas 336 174 309 137 ?. 0;
#X obj 3 83 cnv 15 300 46 empty empty empty 20 12 0 14 -224896 -66577
0;
#X obj 3 6 cnv 18 300 70 empty empty ARGOPdMiniModules 3 10 1 14 -4033
-1 1.04858e+06;
#X obj 26 26 cnv 10 10 10 empty empty Gerard 0 5 1 11 -4033 -1 1.04858e+06
;
#X obj 64 26 cnv 10 10 10 empty empty Paresys 0 5 1 11 -4033 -1 1.04858e+06
;
#X obj 7 37 pddp/pddplink http://gerard.paresys.free.fr/ARGOPd/;
#X text 8 85 Construit sous / Build under Pd 0.43.4-extended;
#X obj 8 111 pddp/pddplink http://puredata.info/downloads/pd-extended
;
#X obj 7 50 pddp/pddplink http://paresys.pagesperso-orange.fr/ARGOPd/
;
#X text 7 98 or Pd-0.46-7 + deken;
#X restore 312 228 pd ?.;
#X connect 0 0 18 0;
#X connect 3 0 22 0;
#X connect 3 0 23 0;
#X connect 4 0 9 0;
#X connect 5 0 7 0;
#X connect 6 0 22 0;
#X connect 6 0 23 0;
#X connect 7 0 6 0;
#X connect 7 1 10 0;
#X connect 8 0 22 0;
#X connect 8 0 23 0;
#X connect 9 0 22 0;
#X connect 9 0 23 0;
#X connect 10 0 22 0;
#X connect 10 0 23 0;
#X connect 11 0 19 0;
#X connect 13 0 21 0;
#X connect 13 1 20 0;
#X connect 13 2 3 0;
#X connect 13 3 8 0;
#X connect 14 0 13 0;
#X connect 18 0 22 0;
#X connect 19 0 23 0;
#X connect 20 0 22 0;
#X connect 20 0 23 0;
#X connect 21 0 22 0;
#X connect 21 0 23 0;
#X coords 0 -1 1 1 200 150 2 100 100;
#X restore 427 397 pd ARGO;
#N canvas 352 215 398 185 ARGO 0;
#X obj 101 101 cnv 10 208 17 empty ColorForm empty 20 12 0 14 -228856
-1 1.04858e+06;
#X obj 101 101 cnv 4 10 4 empty empty empty 20 12 0 14 -128992 -66577
0;
#X obj 244 106 cnv 10 20 10 empty ColorForm GEM-Info. 1 5 1 14 -228856
-1 1.04858e+06;
#X text 83 80 gemlist;
#X obj 101 14 inlet;
#X obj 179 14 loadbang;
#X obj 179 44 delay 1000;
#X obj 11 22 cnv 15 60 30 empty empty empty 20 12 0 14 -24198 -66577
0;
#N canvas 599 156 412 359 Help 0;
#X obj 7 227 cnv 15 400 70 empty empty empty 20 12 0 14 -224896 -66577
0;
#X text 11 227 - Erreur dans la fenêtre Pd:;
#X obj 6 67 cnv 15 400 140 empty empty empty 20 12 0 14 -233017 -66577
0;
#X text 9 66 Citation;
#X text 23 85 [pix_info] will give you some meta-information about
the image data consisting of the image-dimensions \, the pixel-size
\, the colour-space and the pointer to the image-data itself.;
#X text 23 138 The colour-space is given as an openGL-int-constant.
(6408=GL_RGBA (rgba) \, 6409=GL_LUMINANCE (grey) \, 34233 might be
YUV (not standardized);
#X text 22 175 You might not be able to do anything with the data-pointer.
;
#X text 18 14 RGB = Red Green Blue = 6407 decimal = 1907 hexa;
#X text 18 44 YUV = Luma \, ChromaB \, ChromaR = 34233 decimal = 85B9
hexa;
#X text 12 29 RGBA = Red Green Blue Alpha = 6408 decimal = 1908 hexa
;
#X text 12 0 Grey = Niveaux de gris = 6409 decimal = 1909 hexa;
#X text 12 -19 GEM-Info;
#X restore 18 29 pd Help;
#X text 13 136 Préférer des images dont la taille en pixels est un
multiple de 8x8 pixels (cf library PDP... et GEM?);
#N canvas 129 203 499 395 Geminfo 0;
#X obj 34 23 inlet;
#X obj 123 27 inlet;
#X obj 15 357 outlet;
#X text 27 4 gemlist;
#X text 127 9 bang;
#X text 20 373 label;
#X obj 33 57 pix_info;
#X obj 12 139 change;
#X obj 59 139 change;
#X obj 158 136 change;
#X obj 185 194 sel 32993 34233 6409 6408 32992 6407;
#X msg 14 333 label \$1;
#X msg 185 233 RGBA;
#X msg 221 233 YUV;
#X msg 256 233 Grey;
#X msg 327 233 RGB;
#X msg 398 233 ?;
#X text 225 285 <- ATTENTION jamais d'espace dans un label;
#X obj 11 234 clip 0 100000;
#X obj 99 234 clip 0 100000;
#X msg 175 87 0;
#X obj 124 57 t b b b b;
#X obj 158 168 t b f;
#X obj 59 171 t b f;
#X obj 105 137 change;
#X obj 105 169 t b f;
#X obj 13 285 cyclone/sprintf %dx%d--%s--%dbytes;
#X obj 14 311 cyclone/tosymbol;
#X connect 0 0 6 0;
#X connect 1 0 21 0;
#X connect 6 1 7 0;
#X connect 6 2 8 0;
#X connect 6 3 24 0;
#X connect 6 4 9 0;
#X connect 7 0 18 0;
#X connect 8 0 23 0;
#X connect 9 0 22 0;
#X connect 10 0 12 0;
#X connect 10 1 13 0;
#X connect 10 2 14 0;
#X connect 10 3 12 0;
#X connect 10 4 15 0;
#X connect 10 5 15 0;
#X connect 10 6 16 0;
#X connect 11 0 2 0;
#X connect 12 0 26 2;
#X connect 13 0 26 2;
#X connect 14 0 26 2;
#X connect 15 0 26 2;
#X connect 16 0 26 2;
#X connect 18 0 26 0;
#X connect 19 0 26 1;
#X connect 20 0 9 0;
#X connect 20 0 8 0;
#X connect 20 0 7 0;
#X connect 21 0 7 0;
#X connect 21 1 8 0;
#X connect 21 2 9 0;
#X connect 21 3 20 0;
#X connect 22 0 18 0;
#X connect 22 1 10 0;
#X connect 23 0 18 0;
#X connect 23 1 19 0;
#X connect 24 0 25 0;
#X connect 25 0 18 0;
#X connect 25 1 26 3;
#X connect 26 0 27 0;
#X connect 27 0 11 0;
#X restore 101 43 pd Geminfo;
#X obj 101 106 bng 12 250 50 0 \$0-A \$0-B 320x240--RGBA--4bytes 15
7 1 11 -262144 -1 -1;
#X text 5 101 Reload Image ->;
#X text 251 81 22 11 2017;
#X obj 333 106 cnv 15 42 25 empty empty empty 20 12 0 14 -24198 -66577
0;
#N canvas 336 174 309 137 ?. 0;
#X obj 3 83 cnv 15 300 46 empty empty empty 20 12 0 14 -224896 -66577
0;
#X obj 3 6 cnv 18 300 70 empty empty ARGOPdMiniModules 3 10 1 14 -4033
-1 1.04858e+06;
#X obj 26 26 cnv 10 10 10 empty empty Gerard 0 5 1 11 -4033 -1 1.04858e+06
;
#X obj 64 26 cnv 10 10 10 empty empty Paresys 0 5 1 11 -4033 -1 1.04858e+06
;
#X obj 7 37 pddp/pddplink http://gerard.paresys.free.fr/ARGOPd/;
#X text 8 85 Construit sous / Build under Pd 0.43.4-extended;
#X obj 8 111 pddp/pddplink http://puredata.info/downloads/pd-extended
;
#X obj 7 50 pddp/pddplink http://paresys.pagesperso-orange.fr/ARGOPd/
;
#X text 7 98 or Pd-0.46-7 + deken;
#X restore 337 110 pd ?.;
#X connect 4 0 10 0;
#X connect 5 0 6 0;
#X connect 6 0 11 0;
#X connect 10 0 11 0;
#X connect 11 0 10 1;
#X coords 0 -1 1 1 210 19 1 100 100;
#X restore 297 235 pd ARGO;
#X obj 43 130 switch~;
#N canvas 608 166 228 173 ARGOnOff 0;
#X obj 100 100 tgl 18 1 \$0-SendOnOff \$0-ReceiveOnOff On/Off 20 11
1 14 -4033 -1 -1 1 1;
#X obj 99 10 loadbang;
#X msg 99 33 \; pd dsp 1;
#X obj 100 129 outlet;
#X text -50 99 Audio On/Off du patch ->;
#X text -22 45 Audio General On ->;
#X text 107 82 17 3 2010;
#X connect 0 0 3 0;
#X connect 1 0 2 0;
#X coords 0 -1 1 1 65 18 2 100 100;
#X restore 43 112 pd ARGOnOff;
#X text 48 96 V;
#X text 48 89 |;
#X text 36 78 On/Off Patch;
#X text 66 90 (Audio);
#N canvas 498 129 414 223 ARGO 0;
#X obj 201 101 cnv 10 144 24 empty ColorForm empty 20 12 0 14 -228856
-1 1.04858e+06;
#X obj 201 101 cnv 4 10 4 empty empty empty 20 12 0 14 -128992 -66577
0;
#X obj 262 103 cnv 10 20 10 empty ColorForm GEM-Blur. 1 5 1 14 -228856
-1 1.04858e+06;
#X text 183 80 gemlist;
#X obj 193 51 inlet;
#X obj 201 121 cnv 4 10 4 empty empty empty 20 12 0 14 -128992 -66577
0;
#X text 184 134 gemlist;
#X obj 193 194 outlet;
#X obj 215 114 hsl 129 12 0 100 0 1 \$0-A ColorGEM 82 0 7 1 9 -228856
-1 -1 10600 0;
#X obj 193 164 pix_motionblur;
#X obj 275 139 / 100;
#X msg 61 128 label \$1;
#X obj 59 58 int;
#X obj 60 82 change;
#X obj 268 46 cnv 15 60 30 empty empty empty 20 12 0 14 -24198 -66577
0;
#N canvas 317 40 428 518 Help 0;
#X obj 12 -17 cnv 15 400 170 empty empty empty 20 12 0 14 -233017 -66577
0;
#X text 15 -18 Citation;
#X obj 13 160 cnv 15 400 260 empty empty empty 20 12 0 14 -258113 -66577
0;
#X text 17 160 - Erreur dans la fenêtre Pd:;
#X text 15 -71 GEM-Blur;
#X text 44 1 Description: apply motionbluring on a series of images
;
#X text 29 17 [pix_motionblur] applies a very simple and fast motion
blur to an image stream. the method used involves blending the current
image with a 'history' image and saving the result back to the 'history'.
the blending is the same as pix_mix output = (stream * gain) + (history
* 1 - gain) applying a higher blur factor will mix in more of the history
image and thus more of the history will be saved resulting in heavier
blurring.;
#X text 46 176 error: [pix_motionblur]: cannot handle RGB image;
#X text 46 189 Ne fonctionne pas avec images RGB;
#X text 19 298 ATTENTION: GEM-Blur fonctionne correctement avec des
images qui ont toutes les mêmes dimensions.;
#X text 54 330 CAUTION: GEM-Blur works correctly with all images that
have the same dimensions.;
#X text 20 205 - pix_motionblur crash Pd;
#X text 42 219 - Sous MacOSX.4 + Pd-0.41.4-extended ou Pd-0.42.5-extended
avec film 640x480 YUV;
#X text 55 246 Pas de probleme avec film 320x240;
#X text 28 -56 Blurred = flou;
#X text 28 -42 To blur = rendre flou = "flouter";
#X text 55 258 Pas de probleme avec RGBA ou grey;
#X restore 275 52 pd Help;
#X text 295 82 26 5 2018;
#X obj 341 184 cnv 15 42 25 empty empty empty 20 12 0 14 -24198 -66577
0;
#N canvas 336 174 316 152 ?. 0;
#X obj 8 84 cnv 15 300 56 empty empty empty 20 12 0 14 -224896 -66577
0;
#X obj 8 7 cnv 18 300 70 empty empty ARGOPdMiniModules 3 10 1 14 -4033
-1 1.04858e+06;
#X obj 31 27 cnv 10 10 10 empty empty Gerard 0 5 1 11 -4033 -1 1.04858e+06
;
#X obj 69 27 cnv 10 10 10 empty empty Paresys 0 5 1 11 -4033 -1 1.04858e+06
;
#X obj 12 40 pddp/pddplink http://gerard.paresys.free.fr/ARGOPd/;
#X text 13 85 Construit sous / Build under Pd 0.43.4-extended;
#X obj 13 111 pddp/pddplink http://puredata.info/downloads/pd-extended
;
#X obj 12 53 pddp/pddplink http://paresys.pagesperso-orange.fr/ARGOPd/
;
#X text 12 98 or Pd-0.48;
#X obj 13 124 pddp/pddplink http://puredata.info/downloads/pure-data
;
#X restore 345 188 pd ?.;
#X obj 60 105 zexy/list2symbol;
#X connect 4 0 9 0;
#X connect 8 0 10 0;
#X connect 8 0 12 0;
#X connect 9 0 7 0;
#X connect 10 0 9 1;
#X connect 11 0 8 0;
#X connect 12 0 13 0;
#X connect 13 0 19 0;
#X connect 19 0 11 0;
#X coords 0 -1 1 1 146 26 1 200 100;
#X restore 207 264 pd ARGO;
#N canvas 331 128 248 343 ARGO 0;
#X obj 101 101 cnv 20 104 34 empty ColorAmpli empty 20 12 0 14 -261299
-1 1.04858e+06;
#X obj 92 302 outlet~;
#X obj 112 104 cnv 10 20 10 empty ColorAmpli Mono/Stereo. 1 5 1 14
-261299 -1 1.04858e+06;
#X obj 88 38 inlet~;
#X obj 107 271 *~;
#X obj 103 118 hsl 101 12 0 100 0 1 \$0-A ColorAmpli 100 0 7 1 9 -261299
-1 -1 10000 0;
#X msg -6 131 label \$1;
#X obj 101 101 cnv 4 10 4 empty empty empty 20 12 0 14 -1 -66577 0
;
#X obj 101 131 cnv 4 10 4 empty empty empty 20 12 0 14 -1 -66577 0
;
#X obj 195 131 cnv 4 10 4 empty empty empty 20 12 0 14 -1 -66577 0
;
#X obj 189 271 *~;
#X obj 176 300 outlet~;
#X obj 195 101 cnv 4 10 4 empty empty empty 20 12 0 14 -1 -66577 0
;
#X obj 173 41 inlet~;
#X obj 132 210 - 100;
#X obj 127 236 / -100;
#X obj -7 108 cyclone/tosymbol;
#X text 110 81 26 5 2018;
#X connect 3 0 10 0;
#X connect 3 0 1 0;
#X connect 4 0 1 0;
#X connect 5 0 14 0;
#X connect 5 0 16 0;
#X connect 6 0 5 0;
#X connect 10 0 11 0;
#X connect 13 0 11 0;
#X connect 13 0 4 0;
#X connect 14 0 15 0;
#X connect 15 0 10 1;
#X connect 15 0 4 1;
#X connect 16 0 6 0;
#X coords 0 -1 1 1 106 36 1 100 100;
#X restore 223 411 pd ARGO;
#N canvas 540 393 251 267 ARGO 0;
#X obj 101 101 cnv 30 49 130 empty ColorAmpli empty 20 12 0 14 -1 -258113
0;
#X obj 102 106 vu 8 120 \$0-B empty 0 0 1 11 -1 -4034 0 0;
#X obj 49 32 inlet~;
#X obj 22 105 cnv 15 60 30 empty empty empty 20 12 0 14 -24198 -66577
0;
#N canvas 300 65 442 264 Help 0;
#X obj 12 48 cnv 15 400 150 empty empty empty 20 12 0 14 -233017 -66577
0;
#X text 16 50 Citation;
#X text 28 67 peakamp~ tracks and outputs the absolute value of the
peak amplitude of the incoming signal. It outputs when banged or using
its own internal clock. The peak value is reset each time peakamp~
outputs a value.;
#X text 29 123 cyclone library;
#X text 28 135 http://suita.chopin.edu.pl/~czaja/miXed/externs/cyclone.html
;
#X text 29 155 Voir doc Max/MSP MSP46ReferenceManual.pdf;
#X text 18 14 MM-Vumetre;
#X restore 29 111 pd Help;
#N canvas 541 112 317 265 VuMetre 0;
#X obj 48 19 inlet~;
#X obj 41 54 *~;
#X obj -25 132 snapshot~;
#X obj -25 155 sqrt;
#X obj -25 100 lop~ 10;
#X obj -25 179 rmstodb;
#X obj -88 19 loadbang;
#X obj -25 202 - 100;
#X obj 58 156 sqrt;
#X obj 58 180 rmstodb;
#X obj 58 203 - 100;
#X obj -89 102 metro 200;
#X obj -28 19 r SendFluid;
#X obj 58 102 cyclone/peakamp~ 1000;
#X obj -25 228 outlet;
#X obj 58 227 outlet;
#X connect 0 0 1 0;
#X connect 0 0 1 1;
#X connect 1 0 4 0;
#X connect 1 0 13 0;
#X connect 2 0 3 0;
#X connect 3 0 5 0;
#X connect 4 0 2 0;
#X connect 5 0 7 0;
#X connect 6 0 11 0;
#X connect 7 0 14 0;
#X connect 8 0 9 0;
#X connect 9 0 10 0;
#X connect 10 0 15 0;
#X connect 11 0 2 0;
#X connect 12 0 11 1;
#X connect 13 0 8 0;
#X restore 49 60 pd VuMetre;
#X obj 172 208 cnv 15 42 25 empty empty empty 20 12 0 14 -24198 -66577
0;
#N canvas 336 174 309 137 ?. 0;
#X obj 3 83 cnv 15 300 46 empty empty empty 20 12 0 14 -224896 -66577
0;
#X obj 3 6 cnv 18 300 70 empty empty ARGOPdMiniModules 3 10 1 14 -4033
-1 1.04858e+06;
#X obj 26 26 cnv 10 10 10 empty empty Gerard 0 5 1 11 -4033 -1 1.04858e+06
;
#X obj 64 26 cnv 10 10 10 empty empty Paresys 0 5 1 11 -4033 -1 1.04858e+06
;
#X obj 7 37 pddp/pddplink http://gerard.paresys.free.fr/ARGOPd/;
#X text 8 85 Construit sous / Build under Pd 0.43.4-extended;
#X obj 8 111 pddp/pddplink http://puredata.info/downloads/pd-extended
;
#X obj 7 50 pddp/pddplink http://paresys.pagesperso-orange.fr/ARGOPd/
;
#X text 7 98 or Pd-0.46-7 + deken;
#X restore 176 212 pd ?.;
#X obj 113 106 vu 8 120 \$0-B empty 0 0 1 11 -1 -4034 1 0;
#X obj 126 32 inlet~;
#N canvas 541 112 317 265 VuMetre 0;
#X obj 48 19 inlet~;
#X obj 41 54 *~;
#X obj -25 132 snapshot~;
#X obj -25 155 sqrt;
#X obj -25 100 lop~ 10;
#X obj -25 179 rmstodb;
#X obj -88 19 loadbang;
#X obj -25 202 - 100;
#X obj 58 156 sqrt;
#X obj 58 180 rmstodb;
#X obj 58 203 - 100;
#X obj -89 102 metro 200;
#X obj -28 19 r SendFluid;
#X obj 58 102 cyclone/peakamp~ 1000;
#X obj -25 228 outlet;
#X obj 58 227 outlet;
#X connect 0 0 1 0;
#X connect 0 0 1 1;
#X connect 1 0 4 0;
#X connect 1 0 13 0;
#X connect 2 0 3 0;
#X connect 3 0 5 0;
#X connect 4 0 2 0;
#X connect 5 0 7 0;
#X connect 6 0 11 0;
#X connect 7 0 14 0;
#X connect 8 0 9 0;
#X connect 9 0 10 0;
#X connect 10 0 15 0;
#X connect 11 0 2 0;
#X connect 12 0 11 1;
#X connect 13 0 8 0;
#X restore 126 60 pd VuMetre;
#X text 153 84 17 3 2016;
#X connect 2 0 5 0;
#X connect 5 0 1 0;
#X connect 5 1 1 1;
#X connect 9 0 10 0;
#X connect 10 0 8 0;
#X connect 10 1 8 1;
#X coords 0 -1 1 1 51 132 2 100 100;
#X restore 372 415 pd ARGO;
#X text 29 185 Image: 320x240 = 76800 pixels;
#X text 380 328 <- Change Overlap;
#X text 149 135 On/Off ->;
#N canvas 495 130 534 528 ARGO 0;
#X obj 25 278 cnv 15 60 30 empty empty empty 20 12 0 14 -24198 -66577
0;
#N canvas 402 65 405 152 Help 0;
#X text 9 25 Nbr = Nombre - Number;
#X text 21 76 - Chaque valeur depend + ou - de la precedente:;
#X text 60 89 de 0 a 100 (100 = independance complete);
#X text 9 58 Alea:;
#X restore 32 284 pd Help;
#X obj 43 77 cnv 15 170 24 empty empty empty 20 12 0 14 -261682 -66577
0;
#X obj 200 80 inlet;
#X obj 337 477 cnv 15 170 24 empty empty empty 20 12 0 14 -261682 -66577
0;
#X obj 342 481 outlet;
#X obj 201 201 cnv 5 138 58 empty ColorForm Nbr. 112 19 1 14 -261476
-1 1.04858e+06;
#X obj 200 201 bng 12 50 50 0 \$0-A \$0-B empty 14 6 1 9 -262144 -1
-1;
#X obj 201 201 cnv 4 10 4 empty empty empty 20 12 0 14 -260097 -66577
0;
#X obj 267 200 nbx 4 12 2 9999 0 1 \$0-A ColorTime max 40 7 1 9 -262144
-1 -1 308 256;
#X text 43 84 Input anything message ->;
#X text 43 74 N'importe quel message ->;
#X obj 267 224 nbx 4 12 -999 9999 0 1 \$0-A ColorTime min 40 7 1 9
-262144 -1 -1 1 256;
#X text 387 475 -> Nombre;
#X text 388 485 -> Number;
#X obj 20 408 + 1;
#X obj 222 200 vradio 12 1 1 4 \$0-A \$0-B --> 16 6 1 9 -262144 -1
-1 2;
#X obj 236 212 cnv 5 5 5 empty empty <-- 0 6 1 9 -261476 -1 0;
#X obj 236 223 cnv 5 5 5 empty empty <--> 0 6 1 9 -261476 -1 0;
#X obj 202 235 cnv 5 5 5 empty empty Alea 0 7 1 9 -261476 -1 0;
#X obj 321 313 t b f f f f f b f;
#X obj 258 212 nbx 5 12 -999 9999 0 1 \$0-A ColorTime empty 40 7 1
9 -262144 -1 -1 10 256;
#X msg 386 154 10;
#X obj 359 80 loadbang;
#X msg 350 155 1;
#X obj 342 456 spigot 0;
#X obj 359 107 delay 300;
#X obj 237 236 hsl 101 12 0 100 0 1 \$0-A \$0-B 10% 25 7 1 9 -262144
-1 -1 1000 0;
#N canvas 297 381 197 155 label 0;
#X msg 15 103 label \$1;
#X obj 14 12 inlet;
#X obj 15 126 outlet;
#X obj 14 36 expr (int(100 * $f1) / 100) \;;
#X obj 15 81 cyclone/tosymbol;
#X obj 15 59 cyclone/sprintf %s%%;
#X connect 0 0 2 0;
#X connect 1 0 3 0;
#X connect 3 0 5 0;
#X connect 4 0 0 0;
#X connect 5 0 4 0;
#X restore 128 237 pd label;
#X obj 253 148 clip;
#X obj 329 201 cnv 4 10 4 empty empty empty 20 12 0 14 -260097 -66577
0;
#X obj 242 77 cnv 15 100 24 empty empty empty 20 12 0 14 -261682 -66577
0;
#X obj 301 80 inlet;
#X text 242 76 Nombre ->;
#X text 242 86 Number ->;
#X obj 359 130 t b b;
#X obj 82 184 select 1;
#X obj 21 184 select 1;
#X obj 21 205 delay 5;
#X obj 82 206 delay 5;
#X obj 82 229 int;
#X obj 21 228 int;
#X obj 82 161 >;
#X obj 21 162 <;
#X obj 82 138 t b f;
#X obj 21 139 t b f;
#X msg 407 129 set \$1;
#X obj 420 336 + 1;
#X msg 420 359 range \$1 9999;
#X msg 408 220 range \$1 \$2;
#X obj 408 197 pack 1 2;
#X obj 426 173 t b f;
#N canvas 577 384 196 152 label 0;
#X msg 15 103 label \$1;
#X obj 14 12 inlet;
#X obj 15 126 outlet;
#X obj 14 36 expr (int(100 * $f1) / 100) \;;
#X obj 15 81 cyclone/tosymbol;
#X obj 15 59 cyclone/sprintf %s;
#X connect 0 0 2 0;
#X connect 1 0 3 0;
#X connect 3 0 5 0;
#X connect 4 0 0 0;
#X connect 5 0 4 0;
#X restore 428 242 pd label;
#X msg 211 122 set \$1;
#X obj 203 248 hsl 135 12 1 308 0 0 \$0-A \$0-B empty 55 7 1 9 -260818
-1 -1 0 0;
#X obj 203 248 hsl 135 12 1 308 0 0 \$0-A \$0-B 10 65 7 1 9 -262144
-1 -1 393 0;
#X obj 201 255 cnv 4 10 4 empty empty empty 20 12 0 14 -260097 -66577
0;
#N canvas 584 246 334 323 plus 0;
#X obj 200 28 inlet;
#X obj 239 28 inlet;
#X obj 30 28 inlet;
#X text 32 11 Trig;
#X text 207 11 min;
#X text 244 11 max;
#X obj 147 274 outlet;
#X obj 135 28 inlet;
#X text 142 11 Nbr;
#X obj 135 65 + 1;
#X obj 135 198 int;
#X obj 135 88 t f f;
#X obj 135 165 select 1;
#X obj 135 135 >;
#X obj 147 246 int;
#X connect 0 0 10 1;
#X connect 1 0 13 1;
#X connect 2 0 14 0;
#X connect 7 0 9 0;
#X connect 9 0 11 0;
#X connect 10 0 14 1;
#X connect 11 0 13 0;
#X connect 11 1 14 1;
#X connect 12 0 10 0;
#X connect 13 0 12 0;
#X connect 14 0 6 0;
#X restore 49 408 pd plus;
#N canvas 578 236 315 327 moins 0;
#X obj 197 31 inlet;
#X obj 236 31 inlet;
#X obj 27 31 inlet;
#X text 29 14 Trig;
#X text 204 14 min;
#X text 241 14 max;
#X obj 144 277 outlet;
#X obj 132 31 inlet;
#X text 139 14 Nbr;
#X obj 132 201 int;
#X obj 132 91 t f f;
#X obj 132 168 select 1;
#X obj 144 249 int;
#X obj 132 68 - 1;
#X obj 132 138 <;
#X connect 0 0 14 1;
#X connect 1 0 9 1;
#X connect 2 0 12 0;
#X connect 7 0 13 0;
#X connect 9 0 12 1;
#X connect 10 0 14 0;
#X connect 10 1 12 1;
#X connect 11 0 9 0;
#X connect 12 0 6 0;
#X connect 13 0 10 0;
#X connect 14 0 11 0;
#X restore 101 408 pd moins;
#N canvas 568 56 271 295 palindrome 0;
#X obj 173 22 inlet;
#X obj 212 22 inlet;
#X obj 27 22 inlet;
#X text 29 5 Trig;
#X text 180 5 min;
#X text 220 5 max;
#X obj 73 270 outlet;
#X obj 77 22 inlet;
#X text 84 5 Nbr;
#X obj 77 92 + 1;
#X obj 93 118 t f f;
#X obj 87 184 select 1;
#X obj 87 156 >;
#X msg 106 55 -1;
#X obj 157 184 select 1;
#X obj 157 156 <;
#X msg 141 55 1;
#X obj 157 221 t b b;
#X obj 84 221 t b b;
#X obj 73 246 int;
#X obj 77 55 int;
#X connect 0 0 15 1;
#X connect 1 0 12 1;
#X connect 2 0 19 0;
#X connect 7 0 20 0;
#X connect 9 0 10 0;
#X connect 10 0 12 0;
#X connect 10 0 15 0;
#X connect 10 1 19 1;
#X connect 11 0 18 0;
#X connect 12 0 11 0;
#X connect 13 0 9 1;
#X connect 14 0 17 0;
#X connect 15 0 14 0;
#X connect 16 0 9 1;
#X connect 17 0 9 0;
#X connect 17 1 16 0;
#X connect 18 0 9 0;
#X connect 18 1 13 0;
#X connect 19 0 6 0;
#X connect 20 0 9 0;
#X restore 159 408 pd palindrome;
#N canvas 740 94 360 355 alea 0;
#X obj 209 22 inlet;
#X obj 283 22 inlet;
#X obj 28 22 inlet;
#X text 30 5 Trig;
#X text 216 5 min;
#X text 291 5 max;
#X obj 28 310 outlet;
#X obj 166 22 inlet;
#X text 173 5 Nbr;
#X obj 42 144 t b f f;
#X obj 28 282 expr if ($f1 < $f2 \, ($f2 * 2.0) - $f1 \, $f1);
#X obj 28 259 expr if ($f1 > $f2 \, ($f2 * 2.0) - $f1 \, $f1);
#X obj 28 211 random;
#X obj 61 166 * 10;
#X obj 61 188 + 1;
#X obj 28 235 expr ((($f1 / 10 - ($f4 / 2.0)) * $f2) / 50.0) + $f3
\;;
#X obj 124 22 inlet;
#X text 126 5 Alea;
#X obj 43 119 -;
#X obj 43 96 t b f;
#X connect 0 0 10 1;
#X connect 0 0 19 0;
#X connect 1 0 11 1;
#X connect 1 0 18 0;
#X connect 2 0 12 0;
#X connect 7 0 15 2;
#X connect 9 1 13 0;
#X connect 9 2 15 3;
#X connect 10 0 6 0;
#X connect 11 0 10 0;
#X connect 12 0 15 0;
#X connect 13 0 14 0;
#X connect 14 0 12 1;
#X connect 15 0 11 0;
#X connect 16 0 15 1;
#X connect 18 0 9 0;
#X connect 19 0 18 0;
#X connect 19 1 18 1;
#X restore 278 408 pd alea;
#X obj 100 445 cyclone/switch 4;
#X text 275 175 19 8 2019;
#X obj 454 445 cnv 15 52 22 empty empty empty 20 12 0 14 -24198 -66577
0;
#N canvas 353 174 321 152 ?... 0;
#X obj 8 84 cnv 15 300 56 empty empty empty 20 12 0 14 -224896 -66577
0;
#X obj 8 7 cnv 18 300 70 empty empty ARGOPdMiniModules 3 10 1 14 -4033
-1 1.04858e+06;
#X obj 31 27 cnv 10 10 10 empty empty Gerard 0 5 1 11 -4033 -1 1.04858e+06
;
#X obj 69 27 cnv 10 10 10 empty empty Paresys 0 5 1 11 -4033 -1 1.04858e+06
;
#X obj 12 40 pddp/pddplink http://gerard.paresys.free.fr/ARGOPd/;
#X obj 13 121 pddp/pddplink http://puredata.info/downloads/pd-extended
;
#X obj 13 97 pddp/pddplink http://puredata.info/downloads/pure-data
;
#X text 13 85 Construit sous / Build under Pd-0.49...;
#X text 12 109 or Pd 0.43.4-extended;
#X obj 12 53 pddp/pddplink https://paresys.pagesperso-orange.fr/ARGOPd/
;
#X restore 457 448 pd ?...;
#X connect 3 0 7 0;
#X connect 7 0 57 0;
#X connect 7 0 58 0;
#X connect 7 0 59 0;
#X connect 7 0 60 0;
#X connect 9 0 29 2;
#X connect 9 0 40 1;
#X connect 9 0 44 0;
#X connect 9 0 51 0;
#X connect 9 0 57 3;
#X connect 9 0 58 3;
#X connect 9 0 59 3;
#X connect 9 0 60 4;
#X connect 12 0 20 0;
#X connect 12 0 29 1;
#X connect 12 0 50 0;
#X connect 15 0 61 0;
#X connect 16 0 15 0;
#X connect 20 3 41 1;
#X connect 20 4 45 0;
#X connect 20 5 57 2;
#X connect 20 5 58 2;
#X connect 20 5 59 2;
#X connect 20 5 60 3;
#X connect 20 6 9 0;
#X connect 20 7 47 0;
#X connect 21 0 42 0;
#X connect 21 0 43 0;
#X connect 21 0 25 0;
#X connect 21 0 55 0;
#X connect 21 0 52 0;
#X connect 21 0 57 1;
#X connect 21 0 58 1;
#X connect 21 0 59 1;
#X connect 21 0 60 2;
#X connect 22 0 21 0;
#X connect 23 0 26 0;
#X connect 24 0 25 1;
#X connect 25 0 46 0;
#X connect 25 0 5 0;
#X connect 26 0 35 0;
#X connect 27 0 28 0;
#X connect 27 0 60 1;
#X connect 28 0 27 0;
#X connect 29 0 21 0;
#X connect 32 0 29 0;
#X connect 35 0 24 0;
#X connect 35 1 22 0;
#X connect 36 0 39 0;
#X connect 37 0 38 0;
#X connect 38 0 41 0;
#X connect 39 0 40 0;
#X connect 40 0 21 0;
#X connect 41 0 21 0;
#X connect 42 0 36 0;
#X connect 43 0 37 0;
#X connect 44 0 42 0;
#X connect 44 1 42 1;
#X connect 45 0 43 0;
#X connect 45 1 43 1;
#X connect 46 0 22 0;
#X connect 47 0 48 0;
#X connect 48 0 9 0;
#X connect 49 0 55 0;
#X connect 49 0 54 0;
#X connect 50 0 49 0;
#X connect 51 0 50 0;
#X connect 51 1 50 1;
#X connect 52 0 55 0;
#X connect 54 0 21 0;
#X connect 55 0 53 0;
#X connect 57 0 61 1;
#X connect 58 0 61 2;
#X connect 59 0 61 3;
#X connect 60 0 61 4;
#X connect 61 0 29 0;
#X coords 0 -1 1 1 140 60 2 200 200;
#X restore 207 66 pd ARGO;
#X obj 555 204 cnv 15 100 100 empty empty empty 20 12 0 14 -24198 -66577
0;
#X text 578 206 library:;
#X text 559 218 pddp;
#X text 559 229 cyclone;
#X text 559 240 zexy;
#X text 560 252 Gem;
#X text 560 263 ggee;
#X obj 636 531 cnv 15 34 16 empty empty empty 20 12 0 14 -24198 -66577
0;
#N canvas 353 174 333 161 ?? 0;
#X obj 17 89 cnv 15 300 56 empty empty empty 20 12 0 14 -224896 -66577
0;
#X obj 17 12 cnv 18 300 70 empty empty ARGOPdMiniModules 3 10 1 14
-4033 -1 1.04858e+06;
#X obj 40 32 cnv 10 10 10 empty empty Gerard 0 5 1 11 -4033 -1 1.04858e+06
;
#X obj 78 32 cnv 10 10 10 empty empty Paresys 0 5 1 11 -4033 -1 1.04858e+06
;
#X obj 20 54 pddp/pddplink http://gerard.paresys.free.fr/ARGOPd/;
#X obj 22 126 pddp/pddplink http://puredata.info/downloads/pd-extended
;
#X obj 22 102 pddp/pddplink http://puredata.info/downloads/pure-data
;
#X text 22 90 Construit sous / Build under Pd-0.49...;
#X text 21 114 or Pd 0.43.4-extended;
#X obj 20 66 pddp/pddplink https://paresys.pagesperso-orange.fr/ARGOPd/
;
#X obj 20 42 pddp/pddplink https://github.com/gerardparesys/ARGOPd
;
#X restore 636 531 pd ??;
#X text 560 275 iemlib;
#N canvas 366 84 1072 753 ARGO 0;
#X obj 401 151 cnv 22 183 112 empty empty GEM. 5 12 1 18 -1 -262144
1.04858e+06;
#X obj 505 204 tgl 12 1 \$0-A \$0-ColorGEM (F)ullScreen 15 7 1 11 -24198
-1 -24198 0 1;
#X obj 403 174 tgl 12 1 \$0-A \$0-ColorGEM (G)EM 15 7 1 11 -24198 -1
-24198 1 1;
#X obj 505 189 tgl 12 1 \$0-A \$0-ColorGEM KeyShortCut 15 7 1 11 -24198
-1 -24198 0 1;
#X obj 543 24 key;
#X msg 391 307 set \$1;
#X msg 370 335 1;
#X msg 287 658 frame \$1;
#X obj 543 61 spigot;
#X obj 330 21 gemkeyname;
#X obj 948 539 select 0 1;
#X msg 976 658 color 16 22 16;
#X msg 948 634 color 0 22 0;
#X obj 505 174 tgl 12 1 SendMode \$0-ColorGEM Compatible 15 7 1 11
-24198 -1 -24198 0 1;
#X obj 166 138 select 27;
#X msg 166 190 0;
#X obj 403 234 hradio 12 1 1 5 \$0-A \$0-ColorGEM 640x480 62 7 1 11
-24198 -1 -24198 2;
#X obj 184 279 t b f;
#N canvas 206 161 332 336 Dimension 0;
#X msg 120 175 set dimen 640 480;
#X msg 102 217 set dimen 320 240;
#X msg 131 154 label 640x480;
#X msg 112 196 label 320x240;
#X obj 102 17 inlet;
#X obj 25 299 outlet;
#X obj 246 299 outlet;
#X msg 82 260 set dimen 480 640;
#X msg 92 239 label 480x640;
#X msg 161 90 set dimen 1280 720;
#X msg 136 133 set dimen 1280 480;
#X msg 167 67 label 1280x720;
#X msg 146 112 label 1280x480;
#X obj 102 43 sel 0 1 2 3 4;
#X connect 0 0 6 0;
#X connect 1 0 6 0;
#X connect 2 0 5 0;
#X connect 3 0 5 0;
#X connect 4 0 13 0;
#X connect 7 0 6 0;
#X connect 8 0 5 0;
#X connect 9 0 6 0;
#X connect 10 0 6 0;
#X connect 11 0 5 0;
#X connect 12 0 5 0;
#X connect 13 0 8 0;
#X connect 13 0 7 0;
#X connect 13 1 3 0;
#X connect 13 1 1 0;
#X connect 13 2 2 0;
#X connect 13 2 0 0;
#X connect 13 3 12 0;
#X connect 13 3 10 0;
#X connect 13 4 11 0;
#X connect 13 4 9 0;
#X restore 211 304 pd Dimension;
#X obj 140 279 t b f;
#X obj 403 189 tgl 12 1 \$0-A \$0-ColorGEM (B)arMenu 15 7 1 11 -24198
-1 -24198 1 1;
#X obj 296 66 spigot;
#X obj 329 44 == 0;
#X obj 166 164 t b b;
#X msg 193 214 set 1;
#X obj 403 204 tgl 12 1 \$0-A \$0-ColorGEM (L)ight 15 7 1 11 -24198
-1 -24198 0 1;
#X obj 403 219 nbx 3 12 0 100 0 1 \$0-A \$0-ColorGEM BackGround 37
7 1 11 -24198 -1 -24198 50 256;
#X obj 505 219 tgl 12 1 \$0-A \$0-ColorGEM Screen2 15 7 1 11 -24198
-1 -24198 0 1;
#X obj 461 174 bng 12 250 50 0 \$0-A \$0-ColorGEM Info 15 7 1 11 -24198
-1 -24198;
#X obj 559 279 t b f;
#X obj 637 411 + 1;
#X msg 217 658 print;
#X msg 45 658 lighting \$1;
#X msg 123 658 color \$1 \$1 \$1;
#X obj 173 634 / 100;
#X obj 620 634 * 2;
#X obj 90 634 int;
#X obj 57 199 cnv 15 60 30 empty empty empty 20 12 0 14 -24198 -66577
0;
#N canvas 388 57 434 663 Help 0;
#X obj 11 -6 cnv 15 380 90 empty empty empty 20 12 0 14 -233017 -66577
0;
#X text 16 -8 Citation;
#X text 15 5 "GEM is the Graphics Environment for Multimedia. It was
originally written by Mark Danks to generate real-time computer graphics
\, especially for audio-visual compositions.";
#X text 15 55 "GEM is a collection of externals which allow the user
to create OpenGL graphics within Pd";
#X text 10 92 - Raccourcis clavier;
#X text 12 148 - En "FullScreen" taper F ou Pomme + Tab sous MacOSX...
;
#X text 120 161 taper F ou Alt + Tab sous Windows...;
#X text 120 173 taper F ou Alt + F4 sous Linux...;
#X obj 10 425 cnv 15 400 190 empty empty empty 20 12 0 14 -258113 -66577
0;
#X text 13 431 Impossible de supprimer la barre de menu sous MacOSX.5
+ Pd-0.41.4-extended;
#X text 13 457 Pas de probleme sous MacOSX.4 + Pd-0.41.4-extended;
#X text 25 513 Solution: Quitter Pd et relancer;
#X text 14 474 - Problème Windows: Quand on sort de fullscreen le dessin
des objets dans les patches est buggé (taille du texte \, HSlider décalés...)
;
#X text 26 525 Vu avec carte Matrox + Windows XP SP2 + Pd-0.41.4-extended
;
#X text 18 582 Solution: cocher Compatible;
#X text 35 317 Inconvenient: Charge CPU => la texture est calculée
(objet pix_texture) par le processeur de l'ordinateur et pas par la
carte video);
#X text 18 559 GL: énumérant non valide (répété);
#X text 18 570 OpenGL: invalid enumérant (repeat);
#X text 14 545 - Erreur dans la fenêtre Pd:;
#X text 12 265 Il faut cocher compatible avec certaines cartes video
\, de certains PC \, sous Windows...;
#X text 13 291 Compatible Off -> mode 1: TEXTURE_RECTANGLE;
#X text 13 303 Compatible On -> mode 0: TEXTURE_2D;
#X text 8 -31 - GEM On ouvre une fenetre;
#X text 134 91 g / G -> GEM On/Off;
#X text 135 105 f / F -> FullScreen On/Off;
#X text 136 118 b /B -> Menu bar On/Off;
#X text 136 132 Echap / Esc -> FullScreen Off;
#X text 15 391 16/9 = 512/288 = 1024/576 = 1152/648 = 1280/720 = 1440/810
;
#X text 9 379 16/10 = 512/320 = 1024/640 = 1152/720 = 1280x800 = 1440/900
;
#X text 343 366 = 1280/960;
#X text 20 367 4/3 = 160/120 = 320/240 = 512/384 = 640/480 = 1024x768
;
#X text 121 186 ou Echap / Esc...;
#X text 11 231 - Compatible envoie le message rectangle 1 ou rectangle
0 à tous les objets pix_texture des autres modules;
#X text 7 620 Change par rapport version precedente:;
#X text 47 639 r Sendgemwin;
#X restore 64 205 pd Help;
#X msg 346 658 create;
#X msg 620 658 fullscreen \$1;
#X obj 370 360 sel 1;
#X msg 588 411 set \$1;
#X msg 393 658 dimen 640 480;
#X msg 258 658 1;
#X obj 370 438 select linux macos windows;
#X msg 201 334 set \$1;
#X msg 483 584 1;
#X msg 483 658 border \$1 \, menubar \$1;
#X msg 620 584 0;
#X obj 421 466 t b b b;
#X obj 370 466 t b b b;
#X obj 405 584 spigot;
#X obj 555 411 == 0;
#X obj 370 415 zexy/operating_system;
#X msg 711 634 2;
#X obj 403 249 tgl 12 1 \$0-A \$0-ColorGEM SingleBuffer 15 7 1 11 -24198
-1 -24198 0 1;
#X obj 487 249 bng 12 50 50 0 \$0-A \$0-ColorGEM Clear 15 7 1 11 -24198
-1 -24198;
#X obj 712 539 sel 0 1;
#X msg 711 584 set 2;
#X msg 756 584 set 1;
#X obj 536 249 bng 12 50 50 0 \$0-A \$0-ColorGEM Grade 15 7 1 11 -24198
-1 -24198;
#N canvas 1071 188 366 385 Graduation 0;
#X obj 161 78 until;
#X obj 161 100 f;
#X obj 209 100 + 1;
#X obj 237 101 sel 0;
#X obj 161 176 gemhead;
#X obj 161 350 GEMglEnd;
#X obj 161 224 GEMglBegin GL_LINES;
#X obj 161 122 t b f;
#X obj 161 249 GEMglVertex2f -10 0;
#X obj 161 272 GEMglVertex2f 10 0;
#X obj 161 294 GEMglVertex2f 0 -4;
#X obj 161 316 GEMglVertex2f 0 4;
#X obj 35 316 GEMglVertex2f 0 4;
#X obj 35 294 GEMglVertex2f 0 -4;
#X obj 161 198 color 0.8 0.8 0.8;
#X obj 127 17 inlet;
#X text 164 17 <- bang;
#X obj 34 175 gemhead;
#X obj 35 224 GEMglBegin GL_LINES;
#X msg 306 116 1;
#X msg 34 116 0;
#X obj 127 41 t b b b b;
#X obj 35 198 color 0.2 0.2 0.2;
#X obj 195 40 cnv 15 130 20 empty empty empty 20 12 0 14 -24198 -66577
0;
#X text 200 41 en mode SingleBuffer;
#X obj 34 18 loadbang;
#X obj 226 13 bng 15 250 50 0 empty empty empty 17 7 0 10 -262144 -1
-1;
#X obj 209 122 mod 23;
#X obj 274 198 - 12;
#X obj 35 249 GEMglVertex2f -10 0;
#X obj 35 272 GEMglVertex2f 10 0;
#X obj 294 13 bng 15 250 50 0 empty empty empty 17 7 0 10 -262144 -1
-1;
#X obj 259 11 bng 15 250 50 0 empty empty empty 17 7 0 10 -262144 -1
-1;
#X obj 333 16 bng 15 250 50 0 empty empty empty 17 7 0 10 -262144 -1
-1;
#X connect 0 0 1 0;
#X connect 1 0 2 0;
#X connect 1 0 7 0;
#X connect 2 0 27 0;
#X connect 3 0 0 1;
#X connect 4 0 14 0;
#X connect 6 0 8 0;
#X connect 7 0 4 0;
#X connect 7 1 28 0;
#X connect 8 0 9 0;
#X connect 9 0 10 0;
#X connect 10 0 11 0;
#X connect 11 0 5 0;
#X connect 12 0 5 0;
#X connect 13 0 12 0;
#X connect 14 0 6 0;
#X connect 15 0 21 0;
#X connect 17 0 22 0;
#X connect 18 0 29 0;
#X connect 19 0 4 0;
#X connect 19 0 17 0;
#X connect 20 0 17 0;
#X connect 20 0 4 0;
#X connect 21 0 20 0;
#X connect 21 1 17 0;
#X connect 21 2 0 0;
#X connect 21 3 19 0;
#X connect 22 0 18 0;
#X connect 25 0 20 0;
#X connect 26 0 21 0;
#X connect 27 0 1 1;
#X connect 27 0 3 0;
#X connect 28 0 8 2;
#X connect 28 0 9 2;
#X connect 28 0 10 1;
#X connect 28 0 11 1;
#X connect 29 0 30 0;
#X connect 30 0 13 0;
#X connect 31 0 4 0;
#X connect 32 0 17 0;
#X restore 639 315 pd Graduation;
#X obj 536 234 bng 12 250 50 0 \$0-A \$0-ColorGEM Save 15 7 1 11 -24198
-1 -24198;
#X obj 586 224 cnv 15 390 50 empty empty empty 20 12 0 14 -24198 -66577
0;
#X msg 738 339 0;
#X msg 769 339 2;
#X msg 798 339 4;
#X msg 859 339 8;
#X msg 829 339 5;
#X msg 738 367 destroy \, FSAA \$1 \, buffer 1 \, create \, 1;
#N canvas 788 322 404 282 SaveJpeg 0;
#X obj 207 46 loadbang;
#X obj 73 46 inlet;
#X text 6 242 Sauve la fenetre GEM au format JPEG dans le dossier du
patch;
#X obj 207 128 cyclone/tosymbol;
#X obj 207 103 cyclone/sprintf %s/GEMWindow;
#X obj 207 77 ggee/getdir;
#X text 7 229 Save the GEM window in JPEG format in the patch folder
;
#X obj 100 199 pix_write;
#X msg 110 153 color_format 3;
#X msg 207 153 file \$1 90;
#X obj 73 77 t b b;
#X obj 33 129 delay 100;
#X obj 33 153 gemhead 90;
#X connect 0 0 5 0;
#X connect 1 0 10 0;
#X connect 3 0 9 0;
#X connect 4 0 3 0;
#X connect 5 0 4 0;
#X connect 8 0 7 0;
#X connect 9 0 7 0;
#X connect 10 0 11 0;
#X connect 10 1 7 0;
#X connect 11 0 12 0;
#X connect 12 0 7 0;
#X restore 639 294 pd SaveJpeg;
#X obj 491 155 nbx 2 12 1 30 0 1 \$0-A \$0-ColorGEM Frames/sec 29 7
1 11 -24198 -1 -24198 10 256;
#X obj 280 550 t b b b;
#X obj 166 112 iemlib/iem_symtoalist;
#X obj 880 105 cnv 15 100 100 empty empty empty 20 12 0 14 -24198 -66577
0;
#X text 903 107 library:;
#X text 884 119 pddp;
#X text 884 130 cyclone;
#X text 884 141 zexy;
#X text 885 153 Gem;
#X text 884 164 iemlib;
#X text 885 174 ggee;
#X obj 888 718 cnv 15 34 16 empty empty empty 20 12 0 14 -24198 -66577
0;
#N canvas 353 174 333 161 ?? 0;
#X obj 17 89 cnv 15 300 56 empty empty empty 20 12 0 14 -224896 -66577
0;
#X obj 17 12 cnv 18 300 70 empty empty ARGOPdMiniModules 3 10 1 14
-4033 -1 1.04858e+06;
#X obj 40 32 cnv 10 10 10 empty empty Gerard 0 5 1 11 -4033 -1 1.04858e+06
;
#X obj 78 32 cnv 10 10 10 empty empty Paresys 0 5 1 11 -4033 -1 1.04858e+06
;
#X obj 20 54 pddp/pddplink http://gerard.paresys.free.fr/ARGOPd/;
#X obj 22 126 pddp/pddplink http://puredata.info/downloads/pd-extended
;
#X obj 22 102 pddp/pddplink http://puredata.info/downloads/pure-data
;
#X text 22 90 Construit sous / Build under Pd-0.49...;
#X text 21 114 or Pd 0.43.4-extended;
#X obj 20 66 pddp/pddplink https://paresys.pagesperso-orange.fr/ARGOPd/
;
#X obj 20 42 pddp/pddplink https://github.com/gerardparesys/ARGOPd
;
#X restore 888 718 pd ??;
#X obj 866 391 tgl 15 0 empty empty empty 0 -6 0 10 -262144 -1 -1 0
1;
#X msg 866 410 topmost \$1;
#X obj 870 584 spigot 0;
#X msg 883 539 1;
#X obj 142 359 spigot 0;
#X obj 142 382 t b b b;
#X obj 142 334 spigot 0;
#X obj 505 279 t b f f;
#X obj 393 498 delay 30;
#X obj 280 527 delay 30;
#X obj 7 584 delay 30;
#X obj 394 113 sel f F g G b B l L;
#X obj 543 114 select 70 102 71 103 66 98 76 108;
#X obj 664 21 receive Sendgemwin;
#X obj 214 21 receive SendGEM;
#X obj 258 718 send RenderGEM;
#X obj 948 718 send \$0-ColorGEM;
#X text 604 232 Sauve la fenetre GEM au format JPEG dans le dossier
du patch;
#X text 586 223 <- Save the GEM window in JPEG format in the patch
folder;
#X text 587 247 <- Clear and Grade only work in SingleBuffer;
#X text 606 258 Clear et Grade ne fonctionne qu'en SingleBuffer;
#X text 409 14 Quit fullscreen;
#X text 401 25 under Linux with Esc ->;
#X text 35 106 Quit fullscreen;
#X text 24 115 under MacOS with Esc ->;
#X obj 741 287 cnv 15 150 20 empty empty empty 20 12 0 14 -258113 -66577
0;
#X text 746 289 Pb Save Red Gem 0.94;
#X obj 7 606 t b b b b, f 42;
#X obj 7 634 delay 300;
#X msg 7 658 bang;
#X msg 871 658 0 \, destroy;
#X msg 711 658 reset \, FSAA 4 \, buffer \$1;
#X obj 370 388 t b b b;
#X text 590 165 15 2 2021;
#X obj 448 279 t b f b;
#X obj 372 279 t b f f;
#X msg 914 539 0;
#X obj 461 718 gemwin;
#X connect 1 0 92 0;
#X connect 2 0 120 0;
#X connect 3 0 8 1;
#X connect 4 0 8 0;
#X connect 4 0 14 0;
#X connect 5 0 6 0;
#X connect 6 0 41 0;
#X connect 6 0 89 1;
#X connect 7 0 122 0;
#X connect 8 0 97 0;
#X connect 9 0 22 0;
#X connect 9 1 21 0;
#X connect 10 0 12 0;
#X connect 10 1 11 0;
#X connect 11 0 101 0;
#X connect 12 0 101 0;
#X connect 14 0 23 0;
#X connect 15 0 1 0;
#X connect 16 0 17 0;
#X connect 17 0 91 0;
#X connect 17 1 18 0;
#X connect 18 0 16 0;
#X connect 18 1 43 0;
#X connect 19 0 91 0;
#X connect 19 1 46 0;
#X connect 20 0 19 0;
#X connect 21 0 74 0;
#X connect 21 0 96 0;
#X connect 22 0 21 1;
#X connect 23 0 15 0;
#X connect 23 1 24 0;
#X connect 24 0 20 0;
#X connect 24 0 47 0;
#X connect 25 0 36 0;
#X connect 26 0 34 0;
#X connect 27 0 29 0;
#X connect 28 0 31 0;
#X connect 29 0 6 0;
#X connect 29 1 30 0;
#X connect 30 0 35 1;
#X connect 31 0 122 0;
#X connect 32 0 122 0;
#X connect 33 0 122 0;
#X connect 34 0 33 0;
#X connect 35 0 40 0;
#X connect 36 0 32 0;
#X connect 39 0 88 0;
#X connect 39 0 122 0;
#X connect 40 0 122 0;
#X connect 41 0 117 0;
#X connect 41 1 87 0;
#X connect 42 0 49 0;
#X connect 43 0 122 0;
#X connect 44 0 91 1;
#X connect 44 0 100 0;
#X connect 44 0 122 0;
#X connect 45 0 51 0;
#X connect 45 1 50 0;
#X connect 45 2 51 0;
#X connect 46 0 47 0;
#X connect 47 0 48 0;
#X connect 48 0 122 0;
#X connect 49 0 35 0;
#X connect 50 0 93 0;
#X connect 50 1 47 0;
#X connect 50 2 49 0;
#X connect 51 0 94 0;
#X connect 51 1 49 0;
#X connect 51 2 52 0;
#X connect 52 0 43 0;
#X connect 53 0 52 1;
#X connect 54 0 45 0;
#X connect 55 0 116 0;
#X connect 56 0 119 0;
#X connect 57 0 114 0;
#X connect 58 0 59 0;
#X connect 58 1 60 0;
#X connect 59 0 55 0;
#X connect 60 0 55 0;
#X connect 61 0 62 0;
#X connect 63 0 71 0;
#X connect 65 0 70 0;
#X connect 66 0 70 0;
#X connect 67 0 70 0;
#X connect 68 0 70 0;
#X connect 69 0 70 0;
#X connect 70 0 122 0;
#X connect 72 0 7 0;
#X connect 73 0 95 0;
#X connect 73 1 72 0;
#X connect 73 2 39 0;
#X connect 74 0 14 0;
#X connect 85 0 86 0;
#X connect 86 0 122 0;
#X connect 87 0 115 0;
#X connect 88 0 87 1;
#X connect 89 0 90 0;
#X connect 90 0 54 0;
#X connect 90 1 55 0;
#X connect 90 2 87 0;
#X connect 91 0 89 0;
#X connect 92 0 91 0;
#X connect 92 1 53 0;
#X connect 92 2 42 0;
#X connect 93 0 43 0;
#X connect 93 0 94 0;
#X connect 94 0 73 0;
#X connect 95 0 112 0;
#X connect 96 0 1 0;
#X connect 96 1 1 0;
#X connect 96 2 2 0;
#X connect 96 3 2 0;
#X connect 96 4 20 0;
#X connect 96 5 20 0;
#X connect 96 6 25 0;
#X connect 96 7 25 0;
#X connect 97 0 1 0;
#X connect 97 1 1 0;
#X connect 97 2 2 0;
#X connect 97 3 2 0;
#X connect 97 4 20 0;
#X connect 97 5 20 0;
#X connect 97 6 25 0;
#X connect 97 7 25 0;
#X connect 98 0 122 0;
#X connect 99 0 2 0;
#X connect 112 0 113 0;
#X connect 112 1 36 0;
#X connect 112 2 34 0;
#X connect 112 3 44 0;
#X connect 113 0 114 0;
#X connect 114 0 122 0;
#X connect 115 0 121 0;
#X connect 115 0 122 0;
#X connect 116 0 122 0;
#X connect 117 0 54 0;
#X connect 117 1 55 0;
#X connect 119 0 6 0;
#X connect 119 1 58 0;
#X connect 119 2 87 0;
#X connect 120 0 6 0;
#X connect 120 1 5 0;
#X connect 120 2 10 0;
#X connect 121 0 87 1;
#X coords 0 -1 1 1 185 114 1 400 150;
#X restore 405 13 pd ARGO;
#N canvas 676 224 705 572 ARGO 0;
#X obj 201 201 cnv 5 298 88 \$0-A \$0-B empty 20 12 0 14 -228856 -1
1.04858e+06;
#X obj 201 285 cnv 4 10 4 empty empty empty 20 12 0 14 -128992 -66577
0;
#X obj 400 202 cnv 10 20 10 empty ColorGEM GEM-Film3. 1 5 1 14 -228856
-1 1.04858e+06;
#X obj 275 200 nbx 3 12 1 100 0 1 \$0-A \$0-B Render 33 7 1 9 -262144
-1 -1 50 256;
#X obj 360 427 gemhead;
#X msg 349 394 set \$1;
#X obj 216 512 outlet;
#X obj 76 67 loadbang;
#X obj 120 134 delay 1000;
#X msg 352 178 set \$1;
#X msg 303 427 open \$1;
#X obj 325 148 t b s;
#X msg 116 242 set \$1;
#X obj 347 206 cnv 10 8 8 empty empty I 0 8 1 18 -228856 -1 0;
#X obj 360 463 pix_film;
#N canvas 848 498 409 215 Frame 0;
#X obj 257 19 inlet;
#X obj 70 182 outlet;
#X msg 257 149 range 0 \$1;
#X obj 151 105 change;
#X obj 70 149 change;
#X obj 70 68 int;
#X obj 70 105 clip 0 10;
#X obj 204 182 outlet;
#X obj 257 105 max 1;
#X text 294 105 Bug si 0 frame;
#X obj 70 19 inlet;
#X text 72 2 Frame;
#X obj 70 43 + 0.4;
#X text 106 44 <-correction pb hslider;
#X obj 151 128 cyclone/tosymbol;
#X msg 151 149 label Frame=\$1;
#X connect 0 0 6 2;
#X connect 0 0 8 0;
#X connect 2 0 7 0;
#X connect 3 0 14 0;
#X connect 4 0 1 0;
#X connect 5 0 3 0;
#X connect 5 0 6 0;
#X connect 6 0 4 0;
#X connect 8 0 2 0;
#X connect 10 0 12 0;
#X connect 12 0 5 0;
#X connect 14 0 15 0;
#X connect 15 0 7 0;
#X restore 410 427 pd Frame;
#X obj 16 131 cnv 15 60 30 empty empty empty 20 12 0 14 -24198 -66577
0;
#N canvas 691 82 506 570 Help 0;
#X text 10 415 - Si le module est sauvé avec 1 nom de fichier \, Ce
fichier sera lu automatiquement a la prochaine ouverture s'il n'a pas
changé d'emplacement.;
#X text 10 0 - Ouvre des fichiers Film (.mov .avi...);
#X obj 8 103 cnv 15 400 310 empty empty empty 20 12 0 14 -233017 -66577
0;
#X text 17 116 the format [pix_film] is able to decode depends on the
system you are running Gem.;
#X text 15 164 Win32: [pix_film] should be able to decode AVIs (all
installed codecs). If you are lucky and your version of Gem is compiled
with quicktime-support and you have quicktime installed on your machine
\, you might be able to play back quicktime MOVs.;
#X text 13 230 linux: that's a bit tricky. Since there is no "native"
video-format for linux it heavily depends on what you have installed
on your machine and how Gem has been compiled. If your system supports
it \, [pix_film] is able to use quicktime4linux/libquicktime to decode
quicktime-MOVs \, libmpeg1/libmpeg3 to decode MPEG2-videos and libaviplay
which opens a wide range of supported formats (with the possibility
to install additional codec-plugins) \, from AVI via MPEG2 to DivX
\, although i have found MPEG support rather unstable. libaviplay does
not support quicktime decoding. There is also some ruddy ffmpeg support
(apart from the one supplied by libaviplay).;
#X text 13 385 although one wouldn't believe it \, but i have found
that iunder linux i could play most formats...;
#X text 16 144 macOS-X: [pix_film] should be able to decode quicktime
MOVs.;
#X text 11 102 Citation;
#X text 10 456 - Peut Ouvrir automatiquement 1 fichier qui se trouve
dans le même dossier que lui \, quelquesoit l'emplacement du dossier.
Pour cela taper le nom du fichier (sans chemin d'accés) dans le message.
Sauver le patch. Fermer le patch. Ré-ouvrir le patch. Le dossier contenant
le module ARGO et le fichier image est ainsi transportable.;
#X text 28 41 YUV = Luma \, ChromaB \, ChromaR;
#X text 10 17 - RGBA = Red \, Green \, Blue \, Alpha;
#X text 57 80 Prefer RGBA under Windows;
#X text 63 56 Prefer YUV under MacOS;
#X text 28 29 RGB = Red \, Green \, Blue;
#X text 75 68 Prefer ? under Linux;
#X obj 8 540 cnv 15 480 460 empty empty empty 20 12 0 14 -258113 -66577
0;
#X text 55 587 Se produit avec certaines cartes video \, de certains
PC \, sous Windows...;
#X text 55 612 Inconvenient: Charge CPU => la texture est calculée
(objet pix_texture) par le processeur de l'ordinateur et pas par la
carte video);
#X text 29 552 GL: énumérant non valide (répété);
#X text 12 540 - Erreur dans la fenêtre Pd:;
#X text 28 564 OpenGL: invalid enumerant (repeated);
#X text 28 653 GL: invalid value (répété repeated);
#X text 29 677 Se produit avec certaines cartes video \, sous MacOSX...
;
#X text 55 576 Solution: cocher Compatible dans ARGOGeneral;
#X text 28 665 Solution: décocher Compatible dans ARGOGeneral;
#X text 34 718 Solution -> Changer le format du fichier (en .mp4 par
ex);
#X text 35 705 Le nombre "Frames" ne s'affiche pas (0 sous MacOSX).
;
#X text 14 692 - Problème fichier video-stream (par ex mpeg2 .m2v):
;
#X text 48 751 Si un fichier .mov ne s'ouvre pas et dans la fenetre
Pd:;
#X text 49 765 error: filmQT: Could not initialize quicktime: error
-2093;
#X text 48 774 ...;
#X text 48 788 error: filmQT: object not correctly initialized;
#X text 48 802 QuickTime failed ...[pix_filmNEW]: ...;
#X text 32 818 SOLUTION: Installer Apple QuickTime;
#X text 15 738 - Probleme sous Windows;
#X text 26 988 ...;
#X text 31 890 (les 4 colorspaces fonctionnent sous Linux);
#X text 15 838 - Problem under MacOS;
#X text 248 851 Pd-0.42.5-extended & Pd-0.43.4-extended;
#X text 33 851 colorspace RGB doesnot work under;
#X text 248 873 Pd-0.42.5-extended & Pd-0.43.4-extended;
#X text 33 873 colorspace Grey doesnot work under;
#X text 33 862 colorspace YUV doesnot work under;
#X text 248 862 Pd-0.43.4-extended;
#X text 6 -17 GEM-Film3;
#X text 40 926 Sous Pd-0.40.3-extended;
#X text 17 912 - Si le fichier a une piste Audio;
#X text 68 940 On l'entend sous Windows;
#X text 68 952 On l'entend sous MacOSX.3;
#X text 68 964 On ne l'entend pas sous MacOSX.4;
#X text 68 976 On ne l'entend pas sous MacOSX.5;
#X restore 23 137 pd Help;
#X obj 46 242 delay 1000;
#X obj 263 200 tgl 12 1 \$0-A \$0-B empty 15 7 1 9 -262144 -1 -1 1
1;
#X msg 247 427 set \$1;
#X obj 321 394 int;
#X obj 143 301 cnv 15 400 50 empty empty empty 20 12 0 14 -260097 -66577
0;
#X text 145 300 Nom du fichier / File name;
#X obj 120 159 t b b;
#X obj 203 214 hsl 295 12 0 309 0 0 \$0-SendFrame \$0-ReceiveFrame
Frame=10 0 6 1 10 -262144 -1 -1 951 0;
#X obj 325 123 openpanel;
#X obj 325 100 bang;
#X obj 227 269 cnv 10 20 10 empty empty YUV 0 4 1 9 -228856 -1 0;
#X msg 46 420 colorspace RGBA;
#X obj 46 321 change;
#X obj 93 442 t b a;
#X obj 227 281 cnv 8 8 8 empty empty Grey 0 4 1 9 -228856 -1 0;
#X obj 227 257 cnv 8 8 8 empty empty RGB 0 4 1 9 -228856 -1 0;
#X obj 46 340 select 0 1 2 3;
#X msg 106 361 colorspace Grey;
#X msg 86 380 colorspace YUV;
#X msg 66 400 colorspace RGB;
#N canvas 787 442 489 255 info-label 0;
#X obj 16 11 inlet;
#X obj 15 212 outlet;
#X text 18 227 label;
#X msg 15 188 label \$1;
#X text 210 139 <- ATTENTION jamais d'espace dans un label;
#X obj 16 66 change;
#X obj 61 66 change;
#X obj 107 66 change;
#X obj 107 93 t b f;
#X obj 16 93 t b f;
#X obj 93 212 outlet;
#X text 90 229 Nb Frames;
#X obj 15 166 zexy/list2symbol;
#X obj 16 38 unpack 0 0 0 0;
#X obj 161 66 change;
#X obj 161 93 t b f;
#X obj 15 140 cyclone/sprintf %dx%d-%df-%dfps;
#X connect 0 0 13 0;
#X connect 3 0 1 0;
#X connect 5 0 9 0;
#X connect 6 0 16 0;
#X connect 7 0 8 0;
#X connect 8 0 16 0;
#X connect 8 1 16 1;
#X connect 9 0 16 0;
#X connect 9 1 16 2;
#X connect 12 0 3 0;
#X connect 13 0 5 0;
#X connect 13 0 10 0;
#X connect 13 1 6 0;
#X connect 13 2 7 0;
#X connect 13 3 14 0;
#X connect 14 0 15 0;
#X connect 15 0 16 0;
#X connect 15 1 16 3;
#X connect 16 0 12 0;
#X restore 382 490 pd info-label;
#X obj 212 242 vradio 12 1 1 4 \$0-A ColorGEM RGBA 15 7 1 9 -262144
-1 -1 0;
#X obj 138 65 cnv 15 170 24 empty empty empty 20 12 0 14 -261682 -66577
0;
#X obj 200 68 inlet;
#X text 142 64 Nombre ->;
#X text 142 74 Number ->;
#X text 264 167 On/Off;
#X text 267 181 !;
#X text 267 185 v;
#X obj 201 201 cnv 4 10 4 empty empty empty 20 12 0 14 -260097 -66577
0;
#X text 236 68 Frame;
#X obj 200 105 int;
#X obj 422 512 outlet;
#X text 215 527 gemlist;
#X obj 344 285 cnv 4 10 4 empty empty empty 20 12 0 14 -260097 -66577
0;
#X obj 489 512 outlet;
#X text 479 527 Last frame;
#X obj 488 277 bng 12 50 50 0 \$0-A \$0-B empty 17 7 0 10 -262144 -1
-1;
#X obj 489 285 cnv 4 10 4 empty empty empty 20 12 0 14 -260097 -66577
0;
#X text 496 538 Bang;
#X text 421 537 Integer;
#X text 419 526 Nb frame;
#X obj 215 394 zexy/list2symbol;
#X obj 203 226 hsl 285 14 0 127 0 0 \$0-A \$0-B 320x240-309f-25fps
85 24 1 11 -262144 -262144 -1 0 1;
#X symbolatom 200 226 49 0 0 0 - - -;
#X obj 364 148 zexy/list2symbol;
#X obj 398 63 cnv 15 170 24 empty empty empty 20 12 0 14 -261682 -66577
0;
#X text 436 63 <- Nom d'un fichier image;
#X text 436 73 <- name of an image file;
#X obj 489 201 cnv 4 10 4 empty empty empty 20 12 0 14 -260097 -66577
0;
#X obj 401 123 zexy/list2symbol;
#X obj 401 68 inlet;
#X obj 399 394 t b f;
#X obj 556 538 cnv 15 34 16 empty empty empty 20 12 0 14 -24198 -66577
0;
#N canvas 353 174 333 161 ?? 0;
#X obj 17 89 cnv 15 300 56 empty empty empty 20 12 0 14 -224896 -66577
0;
#X obj 17 12 cnv 18 300 70 empty empty ARGOPdMiniModules 3 10 1 14
-4033 -1 1.04858e+06;
#X obj 40 32 cnv 10 10 10 empty empty Gerard 0 5 1 11 -4033 -1 1.04858e+06
;
#X obj 78 32 cnv 10 10 10 empty empty Paresys 0 5 1 11 -4033 -1 1.04858e+06
;
#X obj 20 54 pddp/pddplink http://gerard.paresys.free.fr/ARGOPd/;
#X obj 22 126 pddp/pddplink http://puredata.info/downloads/pd-extended
;
#X obj 22 102 pddp/pddplink http://puredata.info/downloads/pure-data
;
#X text 22 90 Construit sous / Build under Pd-0.49...;
#X text 21 114 or Pd 0.43.4-extended;
#X obj 20 66 pddp/pddplink https://paresys.pagesperso-orange.fr/ARGOPd/
;
#X obj 20 42 pddp/pddplink https://github.com/gerardparesys/ARGOPd
;
#X restore 556 538 pd ??;
#X text 265 157 Render;
#X obj 318 274 cnv 5 20 10 empty ColorGEM frame-number 1 5 1 9 -228856
-1 1.04858e+06;
#X obj 479 266 cnv 3 20 10 empty ColorGEM End 1 5 1 9 -228856 -1 1.04858e+06
;
#X text 439 184 20 4 2020;
#X obj 503 234 cnv 15 190 30 empty empty empty 20 12 0 14 -258113 -66577
0;
#X text 505 248 fps is wrong under Pd-extended;
#X text 505 233 fps est faux sous Pd-extended;
#X msg 147 320 Bruges1-320x240-12sec.mov;
#X connect 3 0 5 0;
#X connect 4 0 14 0;
#X connect 5 0 4 0;
#X connect 7 0 8 0;
#X connect 7 0 80 0;
#X connect 8 0 24 0;
#X connect 9 0 62 0;
#X connect 10 0 14 0;
#X connect 11 0 62 0;
#X connect 11 1 9 0;
#X connect 12 0 80 0;
#X connect 14 0 6 0;
#X connect 14 1 38 0;
#X connect 14 2 55 0;
#X connect 15 0 14 1;
#X connect 15 0 50 0;
#X connect 15 1 25 0;
#X connect 18 0 30 0;
#X connect 19 0 21 0;
#X connect 20 0 19 0;
#X connect 21 0 20 0;
#X connect 21 0 4 0;
#X connect 24 0 18 0;
#X connect 24 1 62 0;
#X connect 25 0 70 0;
#X connect 26 0 11 0;
#X connect 27 0 26 0;
#X connect 29 0 31 0;
#X connect 30 0 34 0;
#X connect 31 0 62 0;
#X connect 31 1 14 0;
#X connect 34 0 29 0;
#X connect 34 1 37 0;
#X connect 34 2 36 0;
#X connect 34 3 35 0;
#X connect 35 0 31 0;
#X connect 36 0 31 0;
#X connect 37 0 31 0;
#X connect 38 0 61 0;
#X connect 38 1 15 1;
#X connect 39 0 30 0;
#X connect 41 0 49 0;
#X connect 49 0 25 0;
#X connect 55 0 53 0;
#X connect 60 0 10 0;
#X connect 61 0 27 0;
#X connect 62 0 12 0;
#X connect 62 0 60 0;
#X connect 63 0 9 0;
#X connect 68 0 11 0;
#X connect 69 0 68 0;
#X connect 70 0 4 0;
#X connect 70 1 15 0;
#X connect 80 0 63 0;
#X coords 0 -1 1 1 300 90 1 200 200;
#X restore 207 136 pd ARGO;
#X connect 4 0 3 0;
#X connect 4 1 8 0;
#X connect 4 1 17 0;
#X connect 4 3 8 1;
#X connect 4 3 17 1;
#X connect 4 5 22 0;
#X connect 5 0 6 0;
#X connect 5 0 7 0;
#X connect 5 0 18 0;
#X connect 5 1 6 1;
#X connect 5 1 7 1;
#X connect 5 1 18 1;
#X connect 11 0 10 0;
#X connect 16 0 4 0;
#X connect 17 0 5 0;
#X connect 17 1 5 1;
#X connect 22 0 34 0;
#X connect 34 0 9 0;
#X connect 34 0 16 0;
