#N canvas 522 23 450 687 10;
#X text 92 313 On/Off ->;
#X obj 69 24 pddp/pddplink http://williambrent.conflations.com/pages/research.html#martha
;
#X text 176 8 Based on William Brent's work: "martha~";
#N canvas 413 140 402 279 ARGO 0;
#X obj 101 101 cnv 10 95 41 \$0-A \$0-B empty 20 12 0 14 -1 -1 1.04858e+06
;
#X obj 101 109 nbx 4 12 0 1e+37 0 0 \$0 \$0-ReceiveCpuPeak CPUPeak
45 7 1 11 -24198 -1 -24198 12 256;
#X obj 101 122 nbx 4 12 0 1e+37 0 0 \$0 \$0-ReceiveCpuMean CPUMean
45 7 1 11 -24198 -1 -24198 12.75 256;
#X obj 145 -55 cputime;
#X obj 145 -76 t b b;
#X text 188 24 (c) musil@iem.kug.ac.at;
#X text 230 37 IEM KUG;
#X text 78 18 CPU-load;
#X obj 144 -125 loadbang;
#X text 205 48 graz \, austria 2001;
#X obj 145 -100 metro 500;
#X obj 145 -34 * 0.2;
#X text 237 -88 -dsp-load in %;
#X text 228 -101 measure average- and peak-;
#X obj 37 18 * 100;
#X obj 37 63 int;
#X obj 37 41 + 0.499;
#X obj 37 86 * 0.01;
#N canvas 524 162 422 273 1p1zmodif 0;
#X text 134 89 (c) musil@iem.kug.ac.at;
#X text 179 99 IEM KUG;
#X obj 14 195 +;
#X text 151 108 graz \, austria 2001;
#X text 135 71 y[n] = a0*x[n] + a1*x[n-1] + b1*y[n-1];
#X text 18 13 x[n];
#X text 16 244 y[n];
#X text 84 111 y[n-1];
#X text 134 56 <float> control-IIR-filter 1.order;
#X obj 15 28 inlet;
#X obj 14 228 outlet;
#X obj 15 112 * 0.1;
#X obj 59 156 * 0.9;
#X text 139 144 a1 = 0;
#X text 139 155 b1 = 0.9;
#X text 139 133 a0 = 0.1;
#X obj 15 50 t f b;
#X text 135 40 Inspiré de 1p1z;
#X obj 59 112 f 0;
#X connect 2 0 10 0;
#X connect 2 0 18 1;
#X connect 9 0 16 0;
#X connect 11 0 2 0;
#X connect 12 0 2 1;
#X connect 16 0 11 0;
#X connect 16 1 18 0;
#X connect 18 0 12 0;
#X restore 37 -8 pd 1p1zmodif;
#X text 146 9 Inspiré de 5.reference/iemabs/help-dsp.pd;
#X text 141 83 25 3 2010;
#X connect 3 0 11 0;
#X connect 4 0 3 0;
#X connect 4 1 3 1;
#X connect 8 0 10 0;
#X connect 10 0 4 0;
#X connect 11 0 18 0;
#X connect 11 0 1 0;
#X connect 14 0 16 0;
#X connect 15 0 17 0;
#X connect 16 0 15 0;
#X connect 17 0 2 0;
#X connect 18 0 14 0;
#X coords 0 -1 1 1 97 43 1 100 100;
#X restore 23 50 pd ARGO;
#X obj 37 160 switch~;
#N canvas 608 166 228 173 ARGOnOff 0;
#X obj 100 100 tgl 18 1 \$0-SendOnOff \$0-ReceiveOnOff On/Off 20 11
1 14 -4033 -1 -1 1 1;
#X obj 99 10 loadbang;
#X msg 99 33 \; pd dsp 1;
#X obj 100 129 outlet;
#X text -50 99 Audio On/Off du patch ->;
#X text -22 45 Audio General On ->;
#X text 107 82 17 3 2010;
#X connect 0 0 3 0;
#X connect 1 0 2 0;
#X coords 0 -1 1 1 65 18 2 100 100;
#X restore 37 142 pd ARGOnOff;
#X text 42 126 V;
#X text 42 119 |;
#X text 30 108 On/Off Patch;
#X text 60 120 (Audio);
#X text 26 427 Mix Direct/martha ->;
#X text 49 463 Niveau general ->;
#X text 55 473 General level ->;
#N canvas 175 68 381 386 ARGO 0;
#X obj 101 101 cnv 20 116 34 empty ColorAmpli empty 20 12 0 14 -261299
-1 1.04858e+06;
#X obj 85 353 outlet~;
#X obj 157 104 cnv 10 20 10 empty ColorAmpli Ampli. 1 5 1 14 -261299
-1 1.04858e+06;
#X obj 85 43 inlet~;
#X obj 85 330 *~;
#X obj 115 118 hsl 101 12 -80 20 0 1 \$0-A ColorAmpli -2dB 0 7 1 9
-261299 -1 -1 7800 0;
#X obj 101 101 cnv 4 10 4 empty empty empty 20 12 0 14 -1 -66577 0
;
#X obj 101 131 cnv 4 10 4 empty empty empty 20 12 0 14 -1 -66577 0
;
#X obj 207 101 cnv 4 10 4 empty empty empty 20 12 0 14 -1 -66577 0
;
#X obj 207 131 cnv 4 10 4 empty empty empty 20 12 0 14 -1 -66577 0
;
#X obj 222 352 outlet~;
#X obj 222 42 inlet~;
#X obj 222 329 *~;
#X msg -42 138 label \$1;
#X text 148 194 -> 0.0001..10 = -80dB..20dB;
#X obj 142 175 expr (pow(10 \, $f1 / 20));
#X obj 142 215 sel 0.0001;
#X msg 100 244 0;
#X obj 100 118 tgl 12 1 \$0-A \$0-B Mute 2 -5 1 9 -261299 -1 -1 0 1
;
#X obj 99 146 select 0 1;
#X obj 140 295 line~;
#X obj 140 275 pack 0 10;
#X msg 123 74 set 0;
#X obj -42 92 cyclone/sprintf %ddB;
#X text 228 110 6 3 2016;
#X obj -42 115 cyclone/tosymbol;
#X obj 273 344 cnv 15 42 25 empty empty empty 20 12 0 14 -24198 -66577
0;
#N canvas 336 174 309 137 ?. 0;
#X obj 3 83 cnv 15 300 46 empty empty empty 20 12 0 14 -224896 -66577
0;
#X obj 3 6 cnv 18 300 70 empty empty ARGOPdMiniModules 3 10 1 14 -4033
-1 1.04858e+06;
#X obj 26 26 cnv 10 10 10 empty empty Gerard 0 5 1 11 -4033 -1 1.04858e+06
;
#X obj 64 26 cnv 10 10 10 empty empty Paresys 0 5 1 11 -4033 -1 1.04858e+06
;
#X obj 7 37 pddp/pddplink http://gerard.paresys.free.fr/ARGOPd/;
#X text 8 85 Construit sous / Build under Pd 0.43.4-extended;
#X obj 8 111 pddp/pddplink http://puredata.info/downloads/pd-extended
;
#X obj 7 50 pddp/pddplink http://paresys.pagesperso-orange.fr/ARGOPd/
;
#X text 7 98 or Pd-0.46-7 + deken;
#X restore 277 348 pd ?.;
#X connect 3 0 4 0;
#X connect 4 0 1 0;
#X connect 5 0 15 0;
#X connect 5 0 23 0;
#X connect 11 0 12 0;
#X connect 12 0 10 0;
#X connect 13 0 5 0;
#X connect 15 0 16 0;
#X connect 16 0 17 0;
#X connect 16 1 21 0;
#X connect 16 1 22 0;
#X connect 17 0 21 0;
#X connect 17 0 25 0;
#X connect 18 0 19 0;
#X connect 19 0 5 0;
#X connect 19 1 17 0;
#X connect 20 0 12 1;
#X connect 20 0 4 1;
#X connect 21 0 20 0;
#X connect 22 0 18 0;
#X connect 23 0 25 0;
#X connect 25 0 13 0;
#X coords 0 -1 1 1 118 36 1 100 100;
#X restore 157 458 pd ARGO;
#X obj 7 6 cnv 15 15 15 empty empty ExMM200c-martha8.pd 0 8 1 14 -262144
-66577 0;
#N canvas 175 68 381 386 ARGO 0;
#X obj 101 101 cnv 20 116 34 empty ColorAmpli empty 20 12 0 14 -261299
-1 1.04858e+06;
#X obj 85 353 outlet~;
#X obj 157 104 cnv 10 20 10 empty ColorAmpli Ampli. 1 5 1 14 -261299
-1 1.04858e+06;
#X obj 85 43 inlet~;
#X obj 85 330 *~;
#X obj 115 118 hsl 101 12 -80 20 0 1 \$0-A ColorAmpli 5dB 0 7 1 9 -261299
-1 -1 8500 0;
#X obj 101 101 cnv 4 10 4 empty empty empty 20 12 0 14 -1 -66577 0
;
#X obj 101 131 cnv 4 10 4 empty empty empty 20 12 0 14 -1 -66577 0
;
#X obj 207 101 cnv 4 10 4 empty empty empty 20 12 0 14 -1 -66577 0
;
#X obj 207 131 cnv 4 10 4 empty empty empty 20 12 0 14 -1 -66577 0
;
#X obj 222 352 outlet~;
#X obj 222 42 inlet~;
#X obj 222 329 *~;
#X msg -42 138 label \$1;
#X text 148 194 -> 0.0001..10 = -80dB..20dB;
#X obj 142 175 expr (pow(10 \, $f1 / 20));
#X obj 142 215 sel 0.0001;
#X msg 100 244 0;
#X obj 100 118 tgl 12 1 \$0-A \$0-B Mute 2 -5 1 9 -261299 -1 -1 0 1
;
#X obj 99 146 select 0 1;
#X obj 140 295 line~;
#X obj 140 275 pack 0 10;
#X msg 123 74 set 0;
#X obj -42 92 cyclone/sprintf %ddB;
#X text 228 110 6 3 2016;
#X obj -42 115 cyclone/tosymbol;
#X obj 273 344 cnv 15 42 25 empty empty empty 20 12 0 14 -24198 -66577
0;
#N canvas 336 174 309 137 ?. 0;
#X obj 3 83 cnv 15 300 46 empty empty empty 20 12 0 14 -224896 -66577
0;
#X obj 3 6 cnv 18 300 70 empty empty ARGOPdMiniModules 3 10 1 14 -4033
-1 1.04858e+06;
#X obj 26 26 cnv 10 10 10 empty empty Gerard 0 5 1 11 -4033 -1 1.04858e+06
;
#X obj 64 26 cnv 10 10 10 empty empty Paresys 0 5 1 11 -4033 -1 1.04858e+06
;
#X obj 7 37 pddp/pddplink http://gerard.paresys.free.fr/ARGOPd/;
#X text 8 85 Construit sous / Build under Pd 0.43.4-extended;
#X obj 8 111 pddp/pddplink http://puredata.info/downloads/pd-extended
;
#X obj 7 50 pddp/pddplink http://paresys.pagesperso-orange.fr/ARGOPd/
;
#X text 7 98 or Pd-0.46-7 + deken;
#X restore 277 348 pd ?.;
#X connect 3 0 4 0;
#X connect 4 0 1 0;
#X connect 5 0 15 0;
#X connect 5 0 23 0;
#X connect 11 0 12 0;
#X connect 12 0 10 0;
#X connect 13 0 5 0;
#X connect 15 0 16 0;
#X connect 16 0 17 0;
#X connect 16 1 21 0;
#X connect 16 1 22 0;
#X connect 17 0 21 0;
#X connect 17 0 25 0;
#X connect 18 0 19 0;
#X connect 19 0 5 0;
#X connect 19 1 17 0;
#X connect 20 0 12 1;
#X connect 20 0 4 1;
#X connect 21 0 20 0;
#X connect 22 0 18 0;
#X connect 23 0 25 0;
#X connect 25 0 13 0;
#X coords 0 -1 1 1 118 36 1 100 100;
#X restore 158 269 pd ARGO;
#N canvas 64 92 441 457 ARGO 0;
#X obj 176 428 outlet~;
#X obj 68 117 cnv 15 60 30 empty empty empty 20 12 0 14 -24198 -66577
0;
#N canvas 387 113 445 156 Help 0;
#X text 40 122 + Enveloppe Decay/Sustain;
#X text 16 7 Synth3 = Synthétiseur 3 = Synthesizer 3;
#X text 44 64 Bruit blanc + 2 x Filtre Passe-bande;
#X text 42 90 cyclone/tanh~ a la sortie bp~ pour eviter enorme saturation
au changement brusque de frequence;
#X text 42 43 Filtered noise;
#X text 42 27 Bruit filtré;
#X restore 75 123 pd Help;
#N canvas 499 145 264 245 Freq-v6 0;
#X obj 34 35 inlet;
#X obj 34 189 outlet;
#X text 31 206 Hslider;
#X text 29 14 Hslider;
#X obj 158 161 clip 0 20000;
#X obj 158 137 mtof;
#X obj 158 188 outlet;
#X text 155 206 Freq Hz;
#N canvas 73 193 583 317 pitchb-11-2010 0;
#X obj 70 111 mod 12;
#X obj 70 135 sel 0 1 2 3 4 5 6 7 8 9 10 11;
#X msg 246 170 A;
#X msg 300 170 B;
#X msg 192 170 G;
#X msg 3 170 C;
#X msg 57 170 D;
#X msg 111 170 E;
#X msg 138 170 F;
#X obj 204 1 inlet;
#X obj 363 131 div 12;
#X obj 204 79 t f f;
#X text 366 186 -> Numero de l'octave;
#X text 213 64 -> Numero MIDI de la note (69 = A3 = 440Hz);
#X msg 246 260 label \$1;
#X obj 246 283 outlet;
#X msg 30 170 Db;
#X msg 84 170 Eb;
#X msg 165 170 Gb;
#X msg 219 170 Ab;
#X msg 273 170 Bb;
#X text 369 78 (70 = A#3 = Bb3);
#X obj 246 238 symbol;
#X text 11 231 Impossible d'afficher # dans un label;
#X text 11 243 donc j'affiche b;
#X obj 204 51 int;
#X text 255 23 -> pour corriger certaines erreurs de calcul;
#X obj 363 160 - 12;
#X text 255 35 et le pb du passage a zero de mod 12;
#X obj 204 25 + 120.5;
#X obj 246 213 cyclone/sprintf %s%d;
#X connect 0 0 1 0;
#X connect 1 0 5 0;
#X connect 1 1 16 0;
#X connect 1 2 6 0;
#X connect 1 3 17 0;
#X connect 1 4 7 0;
#X connect 1 5 8 0;
#X connect 1 6 18 0;
#X connect 1 7 4 0;
#X connect 1 8 19 0;
#X connect 1 9 2 0;
#X connect 1 10 20 0;
#X connect 1 11 3 0;
#X connect 2 0 30 0;
#X connect 3 0 30 0;
#X connect 4 0 30 0;
#X connect 5 0 30 0;
#X connect 6 0 30 0;
#X connect 7 0 30 0;
#X connect 8 0 30 0;
#X connect 9 0 29 0;
#X connect 10 0 27 0;
#X connect 11 0 0 0;
#X connect 11 1 10 0;
#X connect 14 0 15 0;
#X connect 16 0 30 0;
#X connect 17 0 30 0;
#X connect 18 0 30 0;
#X connect 19 0 30 0;
#X connect 20 0 30 0;
#X connect 22 0 14 0;
#X connect 25 0 11 0;
#X connect 27 0 30 1;
#X connect 29 0 25 0;
#X connect 30 0 22 0;
#X restore 34 100 pd pitchb-11-2010;
#X connect 0 0 5 0;
#X connect 0 0 8 0;
#X connect 4 0 6 0;
#X connect 5 0 4 0;
#X connect 8 0 1 0;
#X restore 213 202 pd Freq-v6;
#X obj 176 398 *~;
#X obj 201 101 cnv 6 132 68 empty ColorForm Synth3. 83 8 1 14 -262144
-1 1.04858e+06;
#X obj 200 101 bng 12 50 50 0 \$0-A \$0-B empty 14 6 1 9 -262144 -1
-1;
#X obj 201 101 cnv 4 10 4 empty empty empty 20 12 0 14 -260097 -66577
0;
#X obj 201 165 cnv 4 10 4 empty empty empty 20 12 0 14 -1 -66577 0
;
#X obj 203 117 hsl 129 12 0 128 0 1 \$0-A ColorTime B7 0 7 1 9 -208064
-1 -1 11900 0;
#X obj 246 69 t b f;
#X obj 202 143 cnv 6 2 2 empty ColorForm Decay 0 4 1 9 -262144 -1 1.04858e+06
;
#X obj 202 132 cnv 6 2 2 empty ColorForm Attack 0 4 1 9 -262144 -1
1.04858e+06;
#X obj 323 165 cnv 4 10 4 empty empty empty 0 0 0 9 -1 -66577 0;
#X obj 126 48 noise~;
#X obj 176 273 bp~;
#X obj 263 346 bp~;
#X obj 263 428 outlet~;
#X obj 263 398 *~;
#N canvas 178 189 285 327 Q 0;
#X obj 19 278 line;
#X obj 22 215 + 1;
#X obj 21 236 clip 1 200;
#X msg 20 257 \$1 100;
#X obj 22 173 * 1;
#X obj 23 152 * 1;
#X obj 24 129 t f f f;
#X obj 19 300 outlet;
#X obj 21 194 * 200;
#X obj 70 9 inlet;
#X obj 94 300 outlet;
#X msg 164 162 label \$1;
#X obj 164 88 * 100;
#X obj 164 112 int;
#X obj 164 140 cyclone/tosymbol;
#X connect 0 0 7 0;
#X connect 1 0 2 0;
#X connect 2 0 3 0;
#X connect 3 0 0 0;
#X connect 4 0 8 0;
#X connect 5 0 4 0;
#X connect 6 0 5 0;
#X connect 6 1 5 1;
#X connect 6 2 4 1;
#X connect 8 0 1 0;
#X connect 9 0 12 0;
#X connect 9 0 6 0;
#X connect 11 0 10 0;
#X connect 12 0 13 0;
#X connect 13 0 14 0;
#X connect 14 0 11 0;
#X restore 172 203 pd Q;
#X obj 233 153 hsl 99 12 0 1 0 1 \$0-A ColorForm 26 0 7 1 9 -188398
-1 -1 2600 0;
#X obj 221 156 cnv 6 2 2 empty ColorForm Q 0 4 1 9 -262144 -1 1.04858e+06
;
#X text 189 173 Noise;
#X text 313 173 Noise;
#X obj 203 154 cnv 6 2 2 empty ColorForm ms 0 4 1 9 -262144 -1 1.04858e+06
;
#X obj 233 129 hsl 99 12 0.1 10000 1 1 \$0-A ColorForm 3.81 0 7 1 9
-208064 -1 -1 3100 0;
#X obj 233 141 hsl 99 12 0.1 10000 1 1 \$0-A ColorForm 145.63 0 7 1
9 -208064 -1 -1 6200 0;
#N canvas 283 162 450 300 label-ms 0;
#X msg 154 171 label \$1;
#X obj 154 111 expr (int(100 * $f1) / 100) \;;
#X obj 154 84 inlet;
#X obj 154 196 outlet;
#X obj 154 151 cyclone/tosymbol;
#X obj 154 131 cyclone/sprintf %s;
#X connect 0 0 3 0;
#X connect 1 0 5 0;
#X connect 2 0 1 0;
#X connect 4 0 0 0;
#X connect 5 0 4 0;
#X restore 344 120 pd label-ms;
#N canvas 285 156 450 300 label-ms 0;
#X msg 154 171 label \$1;
#X obj 154 111 expr (int(100 * $f1) / 100) \;;
#X obj 154 84 inlet;
#X obj 154 196 outlet;
#X obj 153 131 cyclone/sprintf %s;
#X obj 154 151 cyclone/tosymbol;
#X connect 0 0 3 0;
#X connect 1 0 4 0;
#X connect 2 0 1 0;
#X connect 4 0 5 0;
#X connect 5 0 0 0;
#X restore 345 142 pd label-ms;
#X obj 323 307 vline~;
#X obj 362 230 pack 1 2;
#X obj 380 206 t b f;
#X obj 299 346 *~;
#X obj 323 259 list append 0 0;
#X obj 176 300 cyclone/tanh~;
#X obj 263 371 cyclone/tanh~;
#X obj 200 44 route bang float;
#X obj 14 8 cnv 15 240 30 empty empty empty 20 12 0 14 -261682 -66577
0;
#X obj 200 15 inlet;
#X text 22 9 NoteMIDI;
#X text 77 9 0..127 = C-2..G8 ->;
#X text 150 23 Bang ->;
#X msg 323 283 1 \$1 \, 0 \$2 \$1;
#X text 168 185 1 x filtered;
#X text 292 185 2 x filtered;
#X obj 383 405 cnv 15 42 25 empty empty empty 20 12 0 14 -24198 -66577
0;
#N canvas 336 174 309 137 ?. 0;
#X obj 3 83 cnv 15 300 46 empty empty empty 20 12 0 14 -224896 -66577
0;
#X obj 3 6 cnv 18 300 70 empty empty ARGOPdMiniModules 3 10 1 14 -4033
-1 1.04858e+06;
#X obj 26 26 cnv 10 10 10 empty empty Gerard 0 5 1 11 -4033 -1 1.04858e+06
;
#X obj 64 26 cnv 10 10 10 empty empty Paresys 0 5 1 11 -4033 -1 1.04858e+06
;
#X obj 7 37 pddp/pddplink http://gerard.paresys.free.fr/ARGOPd/;
#X text 8 85 Construit sous / Build under Pd 0.43.4-extended;
#X obj 8 111 pddp/pddplink http://puredata.info/downloads/pd-extended
;
#X obj 7 50 pddp/pddplink http://paresys.pagesperso-orange.fr/ARGOPd/
;
#X text 7 98 or Pd-0.46-7 + deken;
#X restore 387 409 pd ?.;
#X text 304 80 13 1 2018;
#X obj 316 7 cnv 15 100 70 empty empty empty 20 12 0 14 -24198 -66577
0;
#X text 320 9 library:;
#X text 320 20 pddp;
#X text 320 31 cyclone;
#X connect 3 0 9 0;
#X connect 3 1 15 1;
#X connect 3 1 16 1;
#X connect 4 0 0 0;
#X connect 6 0 33 0;
#X connect 9 0 3 0;
#X connect 10 0 6 0;
#X connect 10 1 9 0;
#X connect 14 0 15 0;
#X connect 15 0 34 0;
#X connect 16 0 35 0;
#X connect 18 0 17 0;
#X connect 19 0 15 2;
#X connect 19 0 16 2;
#X connect 19 1 20 0;
#X connect 20 0 19 0;
#X connect 25 0 27 0;
#X connect 25 0 30 0;
#X connect 26 0 28 0;
#X connect 26 0 31 0;
#X connect 27 0 25 0;
#X connect 28 0 26 0;
#X connect 29 0 32 0;
#X connect 29 0 32 1;
#X connect 30 0 33 1;
#X connect 31 0 30 0;
#X connect 31 1 30 1;
#X connect 32 0 18 1;
#X connect 32 0 4 1;
#X connect 33 0 42 0;
#X connect 34 0 4 0;
#X connect 34 0 16 0;
#X connect 35 0 18 0;
#X connect 36 0 6 0;
#X connect 36 1 10 0;
#X connect 38 0 36 0;
#X connect 42 0 29 0;
#X coords 0 -1 1 1 134 70 2 200 100;
#X restore 149 188 pd ARGO;
#X obj 149 165 nbx 5 14 -1e+37 1e+37 0 0 empty empty empty 0 -8 0 10
-262144 -1 -1 119 256;
#X obj 152 143 hsl 256 15 0 127 0 1 empty empty empty -2 -8 0 10 -257983
-1 -1 23894 0;
#N canvas 390 86 605 378 ARGO 0;
#X obj 201 101 cnv 20 131 55 empty ColorForm Alea. 98 8 1 14 -261476
-1 1.04858e+06;
#X obj 274 37 cnv 15 60 30 empty empty empty 20 12 0 14 -24198 -66577
0;
#N canvas 373 67 425 206 Help 0;
#X obj 9 43 cnv 15 400 120 empty empty empty 20 12 0 14 -228856 -66577
0;
#X text 12 43 Citation;
#X text 20 -21 Alea;
#X text 19 0 Générateur de nombres aléatoires.;
#X text 20 17 Random number generator;
#X text 26 63 Random numbers are generated via a complex equation which
produces a pseudo-predictable sequence of numbers.;
#X text 25 101 [random N] outputs pseudorandom integers between 0 and
N-1.;
#X restore 281 44 pd Help;
#X obj 321 175 bng 12 50 50 0 \$0-A \$0-B empty 14 6 1 9 -262144 -1
-1;
#X obj 322 182 cnv 4 10 4 empty empty empty 20 12 0 14 -260097 -66577
0;
#X obj 201 182 cnv 4 10 4 empty empty empty 20 12 0 14 -260097 -66577
0;
#X obj 203 163 hsl 128 12 0 127 0 1 \$0-A ColorForm Out=119 0 7 1 9
-262144 -1 -1 11900 0;
#N canvas 891 377 212 161 labelX 0;
#X msg 15 103 label \$1;
#X obj 14 36 expr (int(1000 * $f1) / 1000) \;;
#X obj 14 12 inlet;
#X obj 15 126 outlet;
#X obj 15 81 symbol;
#X obj 15 59 cyclone/sprintf Out=%s;
#X connect 0 0 3 0;
#X connect 1 0 5 0;
#X connect 2 0 1 0;
#X connect 4 0 0 0;
#X connect 5 0 4 0;
#X restore 80 164 pd labelX;
#X obj 200 324 outlet;
#X obj 203 139 hsl 128 12 0 127 0 1 \$0-A ColorForm max=120 0 7 1 9
-261299 -1 -1 12000 0;
#N canvas 439 369 212 161 labelMax 0;
#X msg 15 103 label \$1;
#X obj 15 30 inlet;
#X obj 15 126 outlet;
#X obj 15 59 cyclone/sprintf max=%s;
#X obj 15 81 symbol;
#X connect 0 0 2 0;
#X connect 1 0 3 0;
#X connect 3 0 4 0;
#X connect 4 0 0 0;
#X restore 68 121 pd labelMax;
#N canvas 664 372 212 161 labelMin 0;
#X msg 15 103 label \$1;
#X obj 15 30 inlet;
#X obj 15 126 outlet;
#X obj 15 59 cyclone/sprintf min=%s;
#X obj 15 81 symbol;
#X connect 0 0 2 0;
#X connect 1 0 3 0;
#X connect 3 0 4 0;
#X connect 4 0 0 0;
#X restore 69 144 pd labelMin;
#X obj 203 151 hsl 128 12 0 127 0 1 \$0-A ColorForm min=67 0 7 1 9
-261299 -1 -1 6700 0;
#X text 196 342 Integer;
#X text 196 357 0..127;
#X obj 207 252 random 1000;
#X obj 175 283 expr int ($f1 / 1000 * ($f3 - $f2) + $f2);
#X obj 203 115 hsl 128 12 1 10000 1 1 \$0-A ColorForm max=2914.5ms
0 7 1 9 -208064 -1 -1 11000 0;
#X obj 203 127 hsl 128 12 1 10000 1 1 \$0-A ColorForm min=247.5ms 0
7 1 9 -208064 -1 -1 7600 0;
#N canvas 14 350 185 210 label 0;
#X msg 18 130 label \$1;
#X obj 18 21 inlet;
#X obj 18 153 outlet;
#X obj 18 53 expr int ($f1 * 10) / 10;
#X obj 18 108 symbol;
#X obj 18 86 cyclone/sprintf max=%sms;
#X connect 0 0 2 0;
#X connect 1 0 3 0;
#X connect 3 0 5 0;
#X connect 4 0 0 0;
#X connect 5 0 4 0;
#X restore 88 78 pd label;
#N canvas 210 364 212 161 label 0;
#X msg 15 103 label \$1;
#X obj 15 6 inlet;
#X obj 15 126 outlet;
#X obj 15 32 expr int ($f1 * 10) / 10;
#X obj 15 59 cyclone/sprintf min=%sms;
#X obj 15 81 symbol;
#X connect 0 0 2 0;
#X connect 1 0 3 0;
#X connect 3 0 4 0;
#X connect 4 0 5 0;
#X connect 5 0 0 0;
#X restore 86 100 pd label;
#X obj 287 252 metro 300;
#X obj 200 100 tgl 12 1 \$0-A \$0-B On 15 7 1 9 -262144 -1 -1 1 1;
#X obj 338 204 random 10000;
#X obj 338 229 expr int ($f1 / 10000 * ($f3 - $f2) + $f2);
#X text 140 176 Number <-;
#X text 335 176 -> Bang;
#X obj 549 337 cnv 15 42 25 empty empty empty 20 12 0 14 -24198 -66577
0;
#N canvas 336 174 309 137 ?. 0;
#X obj 3 83 cnv 15 300 46 empty empty empty 20 12 0 14 -224896 -66577
0;
#X obj 3 6 cnv 18 300 70 empty empty ARGOPdMiniModules 3 10 1 14 -4033
-1 1.04858e+06;
#X obj 26 26 cnv 10 10 10 empty empty Gerard 0 5 1 11 -4033 -1 1.04858e+06
;
#X obj 64 26 cnv 10 10 10 empty empty Paresys 0 5 1 11 -4033 -1 1.04858e+06
;
#X obj 7 37 pddp/pddplink http://gerard.paresys.free.fr/ARGOPd/;
#X text 8 85 Construit sous / Build under Pd 0.43.4-extended;
#X obj 8 111 pddp/pddplink http://puredata.info/downloads/pd-extended
;
#X obj 7 50 pddp/pddplink http://paresys.pagesperso-orange.fr/ARGOPd/
;
#X text 7 98 or Pd-0.46-7 + deken;
#X restore 553 341 pd ?.;
#X obj 401 63 cnv 15 100 70 empty empty empty 20 12 0 14 -24198 -66577
0;
#X text 405 65 library:;
#X text 405 76 pddp;
#X text 405 87 cyclone;
#X obj 344 324 outlet;
#X text 340 342 bang;
#X text 277 81 12 2 2018;
#X connect 3 0 15 0;
#X connect 3 0 23 0;
#X connect 3 0 33 0;
#X connect 6 0 7 0;
#X connect 6 0 8 0;
#X connect 7 0 6 0;
#X connect 9 0 10 0;
#X connect 9 0 16 2;
#X connect 10 0 9 0;
#X connect 11 0 12 0;
#X connect 12 0 11 0;
#X connect 12 0 16 1;
#X connect 15 0 16 0;
#X connect 16 0 6 0;
#X connect 17 0 19 0;
#X connect 17 0 24 2;
#X connect 18 0 20 0;
#X connect 18 0 24 1;
#X connect 19 0 17 0;
#X connect 20 0 18 0;
#X connect 21 0 3 0;
#X connect 22 0 21 0;
#X connect 23 0 24 0;
#X connect 24 0 21 1;
#X coords 0 -1 1 1 133 87 1 200 100;
#X restore 149 47 pd ARGO;
#N canvas 416 45 303 292 ARGO 0;
#X obj 84 251 outlet~;
#X obj 84 56 inlet~;
#X obj 101 101 cnv 12 93 15 empty ColorAmpli Tanh 48 9 1 14 -261299
-1 1.04858e+06;
#X obj 101 112 cnv 4 10 4 empty empty empty 20 12 0 14 -1 -66577 0
;
#X obj 101 101 cnv 4 10 4 empty empty empty 20 12 0 14 -1 -66577 0
;
#X obj 84 204 cyclone/tanh~;
#X obj 14 57 cnv 15 60 30 empty empty empty 20 12 0 14 -24198 -66577
0;
#N canvas 265 68 411 318 Help 0;
#X obj -4 -8 cnv 15 400 290 empty empty empty 20 12 0 14 -233017 -66577
0;
#X text -1 -9 Citation;
#X text 15 17 cyclone library;
#X text 15 29 calculate hyperbolic tangent function;
#X text 15 6 tanh~;
#X obj 15 129 pddplink http://suita.chopin.edu.pl/~czaja/miXed/externs/cyclone.html
;
#X text 15 151 cf doc Max/MSP -> MSP46ReferenceManual.pdf;
#X text 15 77 outputs signal values always between -1 and 1;
#X text 15 97 turn a sine wave into a square wave by cranking up the
volume!;
#X text 15 46 can be used to simulate analog distortion \, and is much
"smoother" than using clip~;
#X restore 21 63 pd Help;
#X obj 184 112 cnv 4 10 4 empty empty empty 20 12 0 14 -1 -66577 0
;
#X obj 184 101 cnv 4 10 4 empty empty empty 20 12 0 14 -1 -66577 0
;
#X obj 177 251 outlet~;
#X obj 177 56 inlet~;
#X obj 177 204 cyclone/tanh~;
#X obj 241 256 cnv 15 48 25 empty empty empty 20 12 0 14 -24198 -66577
0;
#N canvas 350 196 308 136 ??? 0;
#X obj -6 87 cnv 15 300 38 empty empty empty 20 12 0 14 -224896 -66577
0;
#X obj -6 10 cnv 18 300 70 empty empty ARGOPdMiniModules 3 10 1 14
-4033 -1 1.04858e+06;
#X obj 13 31 cnv 10 10 10 empty empty Gerard 0 5 1 11 -4033 -1 1.04858e+06
;
#X obj 55 30 cnv 10 10 10 empty empty Paresys 0 5 1 11 -4033 -1 1.04858e+06
;
#X text -1 89 Construit sous / Build under Pd 0.42.5-extended;
#X obj 6 43 pddp/pddplink http://pagesperso-orange.fr/Paresys/ARGOPd/
;
#X obj 6 58 pddp/pddplink http://gerard.paresys.free.fr/ARGOPd/;
#X obj 46 105 pddp/pddplink http://puredata.info/downloads;
#X restore 245 260 pd ???;
#X text 205 100 25 1 2012;
#X obj 84 178 *~;
#X obj 116 103 tgl 12 1 \$0-A \$0-B On 15 6 1 10 -262144 -1 -1 1 1
;
#X obj 117 143 == 0;
#X obj 177 179 *~;
#X obj 56 178 *~;
#X obj 209 180 *~;
#X connect 1 0 16 0;
#X connect 1 0 20 0;
#X connect 5 0 0 0;
#X connect 11 0 19 0;
#X connect 11 0 21 0;
#X connect 12 0 10 0;
#X connect 16 0 5 0;
#X connect 17 0 16 1;
#X connect 17 0 18 0;
#X connect 17 0 19 1;
#X connect 18 0 20 1;
#X connect 18 0 21 1;
#X connect 19 0 12 0;
#X connect 20 0 0 0;
#X connect 21 0 10 0;
#X coords 0 -1 1 1 95 17 2 100 100;
#X restore 171 501 pd ARGO;
#X obj 223 654 dac~ 1 2;
#X text 7 657 .wav file format recorder;
#X text 5 645 Enregistreur audio au format .wav;
#X text 101 634 |;
#X text 101 629 ^;
#N canvas 286 45 728 239 ARGO 0;
#X obj 239 36 inlet~;
#X text 77 17 Left input;
#X text 224 17 Right input;
#X text 356 37 Stereo wav file format recorder;
#X text 356 52 Enregistreur de fichier audio wav à 2 canaux (stereo)
;
#X obj 88 36 inlet~;
#X obj 171 198 writesf~ 2;
#X text 356 67 L'extension .wav est ajoutée au nom du fichier automatiquement
;
#X obj 103 100 hsl 161 17 0 127 0 0 \$0-A \$0-B Record. 103 10 1 14
-261299 -261299 -1 0 1;
#X obj 255 101 cnv 4 10 4 empty empty empty 20 12 0 14 -1 -66577 0
;
#X obj 101 101 cnv 4 10 4 empty empty empty 20 12 0 14 -1 -66577 0
;
#X obj 112 100 nbx 4 17 0 9999 0 0 \$0-A ColorTime sec 59 9 1 15 -208064
-1 -1 0 256;
#X text 355 103 Clic n'importe où pour commencer un enregistrement
Audio -> Clic encore pour arrêter l'enregistrement;
#X text 456 130 Click anywhere to start recording Audio ->;
#X text 455 142 Click again to stop recording;
#X text 121 122 Hslider caché transformé en bouton;
#N canvas 415 66 351 399 record2 0;
#X obj 136 95 sel 0 1;
#X msg 171 260 start;
#X msg 107 259 stop;
#X msg 155 150 open \$1;
#X obj 155 126 savepanel;
#X obj 165 203 delay 1000;
#X obj 245 323 float;
#X obj 291 322 + 1;
#X obj 223 295 metro 1000;
#X msg 291 296 -1;
#X msg 11 257 0;
#X msg 42 257 1;
#X obj 66 210 t b b;
#X obj 165 229 t b b b b;
#N canvas 317 143 290 366 CouleurRecord2 0;
#X obj 122 -19 +;
#X obj 122 37 +;
#X obj 61 -75 * -65536;
#X obj 117 -75 * -256;
#X obj 163 -77 * -1;
#X obj 122 68 - 1;
#X obj 115 -202 inlet;
#X text 77 -97 R;
#X text 123 -99 G;
#X text 172 -98 B;
#X obj 122 123 outlet;
#X text 170 -169 Rouge;
#X msg 134 -121 255;
#X msg 167 -121 0;
#X obj 115 -178 sel 0 1;
#X text 56 -170 Rose;
#X msg 73 -121 200;
#X msg 40 -121 252;
#X obj 134 -148 t b b b;
#X msg 198 -121 0;
#X msg 104 -121 200;
#X obj 40 -148 t b b b;
#X msg 122 96 color \$1 \$1 -1;
#X connect 0 0 1 1;
#X connect 1 0 5 0;
#X connect 2 0 1 0;
#X connect 3 0 0 0;
#X connect 4 0 0 1;
#X connect 5 0 22 0;
#X connect 6 0 14 0;
#X connect 12 0 2 0;
#X connect 13 0 3 0;
#X connect 14 0 21 0;
#X connect 14 1 18 0;
#X connect 16 0 3 0;
#X connect 17 0 2 0;
#X connect 18 0 12 0;
#X connect 18 1 13 0;
#X connect 18 2 19 0;
#X connect 19 0 4 0;
#X connect 20 0 4 0;
#X connect 21 0 17 0;
#X connect 21 1 16 0;
#X connect 21 2 20 0;
#X connect 22 0 10 0;
#X restore 25 326 pd CouleurRecord2;
#X obj 136 75 tgl 15 0 \$0-A \$0-B empty 19 9 1 12 -262144 -258113
-1 0 1;
#X obj 136 30 b;
#X obj 136 52 delay 200;
#X obj 136 8 inlet;
#X obj 25 356 outlet;
#X text 22 372 Couleur;
#X obj 291 356 outlet;
#X text 288 372 Compteur;
#X obj 155 356 outlet;
#X text 152 372 writesf;
#X obj 199 176 t b b;
#X msg 72 33 0;
#X obj 72 8 loadbang;
#X msg 260 124 set 0;
#X msg 261 173 set 1;
#X obj 261 149 b;
#X connect 0 0 12 0;
#X connect 0 1 4 0;
#X connect 0 1 28 0;
#X connect 1 0 23 0;
#X connect 2 0 8 0;
#X connect 2 0 23 0;
#X connect 3 0 23 0;
#X connect 3 0 25 0;
#X connect 4 0 3 0;
#X connect 4 0 30 0;
#X connect 5 0 13 0;
#X connect 6 0 7 0;
#X connect 7 0 6 1;
#X connect 7 0 21 0;
#X connect 8 0 6 0;
#X connect 9 0 7 0;
#X connect 10 0 14 0;
#X connect 11 0 14 0;
#X connect 12 0 10 0;
#X connect 12 1 2 0;
#X connect 13 0 11 0;
#X connect 13 1 1 0;
#X connect 13 2 8 0;
#X connect 13 3 9 0;
#X connect 14 0 19 0;
#X connect 15 0 0 0;
#X connect 16 0 17 0;
#X connect 17 0 15 0;
#X connect 18 0 16 0;
#X connect 25 0 5 0;
#X connect 25 1 9 0;
#X connect 26 0 15 0;
#X connect 27 0 26 0;
#X connect 28 0 15 0;
#X connect 29 0 15 0;
#X connect 30 0 29 0;
#X restore 56 147 pd record2;
#X obj 636 186 cnv 15 42 25 empty empty empty 20 12 0 14 -24198 -66577
0;
#N canvas 336 174 309 137 ?. 0;
#X obj 3 83 cnv 15 300 46 empty empty empty 20 12 0 14 -224896 -66577
0;
#X obj 3 6 cnv 18 300 70 empty empty ARGOPdMiniModules 3 10 1 14 -4033
-1 1.04858e+06;
#X obj 26 26 cnv 10 10 10 empty empty Gerard 0 5 1 11 -4033 -1 1.04858e+06
;
#X obj 64 26 cnv 10 10 10 empty empty Paresys 0 5 1 11 -4033 -1 1.04858e+06
;
#X obj 7 37 pddp/pddplink http://gerard.paresys.free.fr/ARGOPd/;
#X text 8 85 Construit sous / Build under Pd 0.43.4-extended;
#X obj 8 111 pddp/pddplink http://puredata.info/downloads/pd-extended
;
#X obj 7 50 pddp/pddplink http://paresys.pagesperso-orange.fr/ARGOPd/
;
#X text 7 98 or Pd-0.46-7 + deken;
#X restore 640 190 pd ?.;
#X text 175 81 7 3 2016;
#X connect 0 0 6 1;
#X connect 5 0 6 0;
#X connect 8 0 16 0;
#X connect 16 0 8 0;
#X connect 16 1 6 0;
#X connect 16 2 11 0;
#X coords 0 -1 1 1 166 17 1 100 100;
#X restore 11 613 pd ARGO;
#N canvas 446 64 251 267 ARGO 0;
#X obj 101 104 cnv 30 49 130 empty ColorAmpli empty 20 12 0 14 -1 -258113
0;
#X obj 102 110 vu 8 120 \$0-B empty 0 0 1 11 -1 -4034 0 0;
#X obj 49 35 inlet~;
#X obj 22 108 cnv 15 60 30 empty empty empty 20 12 0 14 -24198 -66577
0;
#N canvas 300 65 442 264 Help 0;
#X obj 12 48 cnv 15 400 150 empty empty empty 20 12 0 14 -233017 -66577
0;
#X text 16 50 Citation;
#X text 28 67 peakamp~ tracks and outputs the absolute value of the
peak amplitude of the incoming signal. It outputs when banged or using
its own internal clock. The peak value is reset each time peakamp~
outputs a value.;
#X text 29 123 cyclone library;
#X text 28 135 http://suita.chopin.edu.pl/~czaja/miXed/externs/cyclone.html
;
#X text 29 155 Voir doc Max/MSP MSP46ReferenceManual.pdf;
#X text 18 14 MM-Vumetre;
#X restore 29 114 pd Help;
#N canvas 541 112 317 265 VuMetre 0;
#X obj 48 19 inlet~;
#X obj 41 54 *~;
#X obj -25 132 snapshot~;
#X obj -25 155 sqrt;
#X obj -25 100 lop~ 10;
#X obj -25 179 rmstodb;
#X obj -88 19 loadbang;
#X obj -25 202 - 100;
#X obj 58 156 sqrt;
#X obj 58 180 rmstodb;
#X obj 58 203 - 100;
#X obj -89 102 metro 200;
#X obj -28 19 r SendFluid;
#X obj 58 102 cyclone/peakamp~ 1000;
#X obj -25 228 outlet;
#X obj 58 227 outlet;
#X connect 0 0 1 0;
#X connect 0 0 1 1;
#X connect 1 0 4 0;
#X connect 1 0 13 0;
#X connect 2 0 3 0;
#X connect 3 0 5 0;
#X connect 4 0 2 0;
#X connect 5 0 7 0;
#X connect 6 0 11 0;
#X connect 7 0 14 0;
#X connect 8 0 9 0;
#X connect 9 0 10 0;
#X connect 10 0 15 0;
#X connect 11 0 2 0;
#X connect 12 0 11 1;
#X connect 13 0 8 0;
#X restore 49 63 pd VuMetre;
#X obj 172 211 cnv 15 42 25 empty empty empty 20 12 0 14 -24198 -66577
0;
#N canvas 336 174 309 137 ?. 0;
#X obj 3 83 cnv 15 300 46 empty empty empty 20 12 0 14 -224896 -66577
0;
#X obj 3 6 cnv 18 300 70 empty empty ARGOPdMiniModules 3 10 1 14 -4033
-1 1.04858e+06;
#X obj 26 26 cnv 10 10 10 empty empty Gerard 0 5 1 11 -4033 -1 1.04858e+06
;
#X obj 64 26 cnv 10 10 10 empty empty Paresys 0 5 1 11 -4033 -1 1.04858e+06
;
#X obj 7 37 pddp/pddplink http://gerard.paresys.free.fr/ARGOPd/;
#X text 8 85 Construit sous / Build under Pd 0.43.4-extended;
#X obj 8 111 pddp/pddplink http://puredata.info/downloads/pd-extended
;
#X obj 7 50 pddp/pddplink http://paresys.pagesperso-orange.fr/ARGOPd/
;
#X text 7 98 or Pd-0.46-7 + deken;
#X restore 176 215 pd ?.;
#X obj 113 110 vu 8 120 \$0-B empty 0 0 1 11 -1 -4034 1 0;
#X obj 126 35 inlet~;
#N canvas 541 112 317 265 VuMetre 0;
#X obj 48 19 inlet~;
#X obj 41 54 *~;
#X obj -25 132 snapshot~;
#X obj -25 155 sqrt;
#X obj -25 100 lop~ 10;
#X obj -25 179 rmstodb;
#X obj -88 19 loadbang;
#X obj -25 202 - 100;
#X obj 58 156 sqrt;
#X obj 58 180 rmstodb;
#X obj 58 203 - 100;
#X obj -89 102 metro 200;
#X obj -28 19 r SendFluid;
#X obj 58 102 cyclone/peakamp~ 1000;
#X obj -25 228 outlet;
#X obj 58 227 outlet;
#X connect 0 0 1 0;
#X connect 0 0 1 1;
#X connect 1 0 4 0;
#X connect 1 0 13 0;
#X connect 2 0 3 0;
#X connect 3 0 5 0;
#X connect 4 0 2 0;
#X connect 5 0 7 0;
#X connect 6 0 11 0;
#X connect 7 0 14 0;
#X connect 8 0 9 0;
#X connect 9 0 10 0;
#X connect 10 0 15 0;
#X connect 11 0 2 0;
#X connect 12 0 11 1;
#X connect 13 0 8 0;
#X restore 126 63 pd VuMetre;
#X text 153 87 3 3 2019;
#X connect 2 0 5 0;
#X connect 5 0 1 0;
#X connect 5 1 1 1;
#X connect 9 0 10 0;
#X connect 10 0 8 0;
#X connect 10 1 8 1;
#X coords 0 -1 1 1 51 135 2 100 100;
#X restore 280 536 pd ARGO;
#N canvas 186 45 933 550 ARGO 0;
#X obj 301 101 cnv 8 130 130 empty ColorForm martha8. 71 11 1 14 -188398
-1 1.04858e+06;
#X obj 301 227 cnv 4 10 4 empty empty empty 20 12 0 14 -1 -66577 0
;
#X obj 421 227 cnv 4 10 4 empty empty empty 0 0 0 9 -1 -66577 0;
#X obj 287 33 inlet~;
#X obj 411 33 inlet~;
#X obj 264 480 outlet~;
#X obj 384 480 outlet~;
#X obj 421 101 cnv 4 10 4 empty empty empty 0 0 0 9 -1 -66577 0;
#X obj 303 190 hsl 127 12 0 48 0 1 \$0-A ColorForm Gliss=6.4 0 7 1
9 -188398 -1 -1 1700 0;
#X obj 303 214 hsl 127 12 0 1 0 1 \$0-A ColorAmpli Dir 0 7 1 9 -261299
-1 -1 12600 0;
#N canvas 399 412 301 243 DirEffect 0;
#X obj 30 25 inlet~;
#X obj 227 25 inlet~;
#X obj 176 25 inlet~;
#X obj 80 25 inlet~;
#X obj 34 207 outlet~;
#X obj 193 207 outlet~;
#X text 133 8 0...1;
#X text 38 8 Dir1;
#X text 90 8 Dir2;
#X text 225 8 Effect2;
#X text 174 8 Effect1;
#X obj 81 146 *~;
#X obj 133 146 *~;
#X obj 193 146 *~;
#X obj 97 82 - 1;
#X obj 97 108 * -1;
#X obj 33 146 *~;
#X obj 132 25 inlet;
#X obj 218 108 * 1;
#X connect 0 0 16 0;
#X connect 1 0 13 0;
#X connect 2 0 12 0;
#X connect 3 0 11 0;
#X connect 11 0 5 0;
#X connect 12 0 4 0;
#X connect 13 0 5 0;
#X connect 14 0 15 0;
#X connect 15 0 11 1;
#X connect 15 0 16 1;
#X connect 16 0 4 0;
#X connect 17 0 14 0;
#X connect 17 0 18 0;
#X connect 18 0 12 1;
#X connect 18 0 13 1;
#X restore 287 452 pd DirEffect;
#X obj 330 106 bng 12 100 50 0 \$0-A \$0-B Reset 14 6 1 9 -188398 -1
-1;
#X obj 303 142 hsl 127 12 -63 63 0 1 \$0-A ColorForm Transpo=0 0 6
1 9 -208064 -1 -1 6300 0;
#X text 462 410 Creation arguments;
#X text 461 422 \$1: -npeak value used for the attached sigmund~;
#X text 461 435 \$2: desired number of voices in the oscillator bank
(how many can your CPU handle?);
#X obj 719 247 hradio 15 1 1 4 empty empty empty 0 -8 0 10 -262144
-1 -1 0;
#X text 784 244 <<<< Try a few presets;
#X obj 785 272 cnv 5 100 20 empty preset-label Default 8 2 0 14 -262144
-66577 0;
#X msg 450 205 npeak \$1;
#N canvas 243 162 186 183 label 0;
#X msg 44 104 label \$1;
#X obj 44 22 inlet;
#X obj 44 140 outlet;
#X obj 44 82 cyclone/tosymbol;
#X obj 44 60 cyclone/sprintf Transpo=%d;
#X connect 0 0 2 0;
#X connect 1 0 4 0;
#X connect 3 0 0 0;
#X connect 4 0 3 0;
#X restore 134 127 pd label;
#X msg 62 353 transpo \$1;
#X msg 221 62 0;
#X msg 43 326 amp-thresh \$1;
#X obj 303 154 hsl 127 12 0.1 40 1 1 \$0-A ColorForm Thresh=0.1 0 6
1 9 -261299 -1 -1 800 0;
#N canvas 243 162 223 207 label 0;
#X msg 44 104 label \$1;
#X obj 44 13 inlet;
#X obj 44 140 outlet;
#X obj 44 36 expr (int(10 * $f1) / 10) \;;
#X obj 44 82 cyclone/tosymbol;
#X obj 44 60 cyclone/sprintf Thresh=%s;
#X connect 0 0 2 0;
#X connect 1 0 3 0;
#X connect 3 0 5 0;
#X connect 4 0 0 0;
#X connect 5 0 4 0;
#X restore 134 147 pd label;
#X obj 300 101 tgl 12 1 \$0-A \$0-B On 15 7 1 9 -188398 -1 -1 1 1;
#X obj 128 480 switch~;
#X obj 301 101 cnv 4 10 4 empty empty empty 20 12 0 14 -1 -66577 0
;
#X msg 445 353 gliss-range \$1 \$2;
#N canvas 243 162 222 174 label 0;
#X msg 44 104 label \$1;
#X obj 44 14 inlet;
#X obj 44 140 outlet;
#X obj 44 37 expr (int(10 * $f1) / 10) \;;
#X obj 44 82 cyclone/tosymbol;
#X obj 44 60 cyclone/sprintf Gliss=%s;
#X connect 0 0 2 0;
#X connect 1 0 3 0;
#X connect 3 0 5 0;
#X connect 4 0 0 0;
#X connect 5 0 4 0;
#X restore 133 209 pd label;
#X obj 445 326 pack 1 2;
#X obj 445 303 * -1;
#X obj 303 166 hsl 127 12 1 2000 1 1 \$0-A ColorForm Attack=2 0 7 1
9 -188398 -1 -1 1600 0;
#N canvas 243 162 205 186 label 0;
#X msg 44 104 label \$1;
#X obj 44 16 inlet;
#X obj 44 140 outlet;
#X obj 44 82 cyclone/tosymbol;
#X obj 44 60 cyclone/sprintf Attack=%d;
#X connect 0 0 2 0;
#X connect 1 0 4 0;
#X connect 3 0 0 0;
#X connect 4 0 3 0;
#X restore 134 167 pd label;
#X obj 290 326 pack 1 2;
#X obj 335 301 * 2;
#X msg 289 353 release-time-range \$1 \$2;
#N canvas 243 162 234 179 label 0;
#X msg 44 104 label \$1;
#X obj 44 13 inlet;
#X obj 44 140 outlet;
#X obj 44 82 cyclone/tosymbol;
#X obj 44 60 cyclone/sprintf Release=%d;
#X connect 0 0 2 0;
#X connect 1 0 4 0;
#X connect 3 0 0 0;
#X connect 4 0 3 0;
#X restore 133 188 pd label;
#X msg 135 353 attack-time-range \$1 \$2;
#X obj 135 326 pack 1 2;
#X obj 180 300 * 2;
#X obj 360 100 cnv 4 10 4 empty empty empty 20 12 0 14 -260097 -66577
0;
#X obj 353 33 inlet;
#X obj 303 130 hsl 127 12 1 8 0 1 \$0-A ColorForm peak=8 0 7 1 9 -188398
-1 -1 12600 0;
#N canvas 63 340 205 186 label 0;
#X msg 44 104 label \$1;
#X obj 44 11 inlet;
#X obj 44 140 outlet;
#X obj 44 36 int;
#X obj 129 141 outlet;
#X obj 44 82 cyclone/tosymbol;
#X obj 44 60 cyclone/sprintf peak=%d;
#X connect 0 0 2 0;
#X connect 1 0 3 0;
#X connect 3 0 4 0;
#X connect 3 0 6 0;
#X connect 5 0 0 0;
#X connect 6 0 5 0;
#X restore 134 107 pd label;
#X msg 193 326 pitch-switch 0;
#X msg 150 62 1;
#X text 286 2 In Audio;
#X text 295 16 Left;
#X text 408 2 In Audio;
#X text 417 16 Right;
#X text 364 2 In;
#X text 348 16 Message;
#X text 268 510 Left;
#X text 390 510 Right;
#X text 259 496 Out Audio;
#X text 381 496 Out Audio;
#X obj 375 414 martha~ 8 8;
#X obj 198 414 martha~ 8 8;
#X obj 303 118 hsl 127 12 200 20000 1 1 \$0-A ColorForm FMax=13379Hz
0 6 1 9 -208064 -1 -1 11500 0;
#X msg 519 205 maxfreq \$1;
#N canvas 243 162 214 176 label 0;
#X msg 44 104 label \$1;
#X obj 44 22 inlet;
#X obj 44 140 outlet;
#X obj 44 82 cyclone/tosymbol;
#X obj 43 60 cyclone/sprintf FMax=%dHz;
#X connect 0 0 2 0;
#X connect 1 0 4 0;
#X connect 3 0 0 0;
#X connect 4 0 3 0;
#X restore 134 86 pd label;
#X obj 387 242 sigmund~ -npts 4096 -hop 1024 -npeak 8 tracks;
#X obj 416 269 sigmund~ -npts 4096 -hop 1024 -npeak 8 tracks;
#X msg 106 62 10000;
#X msg 561 353 osc-bandpass-switch \$1;
#X msg 706 353 bandpass-q \$1;
#X obj 344 202 hsl 86 12 4 100 0 1 \$0-A ColorForm Q=18 0 7 1 9 -188398
-1 -1 1300 0;
#N canvas 243 162 222 174 label 0;
#X msg 44 104 label \$1;
#X obj 44 14 inlet;
#X obj 44 140 outlet;
#X obj 44 82 cyclone/tosymbol;
#X obj 44 60 cyclone/sprintf Q=%s;
#X obj 43 37 expr (int($f1)) \;;
#X connect 0 0 2 0;
#X connect 1 0 5 0;
#X connect 3 0 0 0;
#X connect 4 0 3 0;
#X connect 5 0 4 0;
#X restore 133 229 pd label;
#X obj 300 202 tgl 12 1 \$0-A \$0-B Noise 14 7 1 9 -188398 -1 -1 1
1;
#N canvas 200 41 1120 804 commands 0;
#X obj 535 760 outlet;
#X text 184 466 Glissando range in semitones;
#X text 252 601 Turn processing on/off (big oscillator banks are expensive!)
, f 34;
#X text 275 192 Attack time range in milliseconds;
#X text 305 223 Release time range in milliseconds;
#X text 294 501 Range for time elapsed before beginning glissandi (ms)
, f 31;
#X text 294 542 Glissando duration range in milliseconds, f 22;
#X text 824 433 Tremolo range in Hz;
#X text 230 279 Transposition in semitones;
#X obj 608 94 tgl 15 0 empty empty empty 17 7 0 10 -262144 -1 -1 0
1;
#X msg 608 114 osc-bandpass-switch \$1;
#X text 642 66 Use either sinusoids (0) or band-pass filtered white
noise (1) to synthesize partials., f 36;
#X floatatom 646 145 5 0 0 0 - - -;
#X msg 646 164 bandpass-q \$1;
#X floatatom 676 195 5 0 0 0 - - -;
#X msg 676 214 bandpass-makeup-gain \$1;
#X text 751 148 If using band-pass filtered noise \, set the filter
Q. Beware of gain changes with changes in Q \, and set the makeup gain
accordingly., f 36;
#X floatatom 584 324 5 0 0 0 - - -;
#X floatatom 614 374 5 0 0 0 - - -;
#X msg 584 344 vib-speed \$1;
#X msg 614 394 vib-depth \$1;
#X text 709 338 Set the frequency and depth (in semitones) of a vibrato
LFO. All partials have phase-aligned vibrato from a single LFO., f
30;
#X obj 566 588 tgl 15 0 empty empty empty 17 7 0 10 -262144 -1 -1 0
1;
#X msg 566 608 pitch-switch \$1;
#X msg 596 638 pitch-list 57 60 64 67 69 72 74 77;
#X text 852 637 Provide an 8-element MIDI pitch list. Partials found
in the signal will line up with the harmonics of one of these pitches.
, f 35;
#X text 598 560 Force partials to harmonic arrangements to sound "pitchy"
no matter what. Specify which pitches using the pitch-list message
below.;
#X msg 606 669 pitch-list 57 57 57 57 57 57 57 57;
#X obj 219 620 tgl 15 0 empty empty empty 17 7 0 10 -262144 -1 -1 0
1;
#X msg 219 640 dsp-switch \$1;
#X msg 55 467 gliss-range -3 5;
#X msg 105 547 gliss-dur-range 1000 2000;
#X msg 99 194 attack-time-range 125 250;
#X floatatom 145 260 5 0 0 0 - - -;
#X msg 145 279 transpo \$1;
#X msg 85 507 gliss-onset-delay-range 50 750;
#X msg 249 680 killall bang;
#X msg 644 434 tremolo-rate-range 0.25 5;
#X text 277 708 Immediately kill all active oscillators, f 22;
#X text 431 45 << Internal defaults;
#X text 230 333 ****NOTE**** \; Many commands specify a range \, where
individual partials are assigned random values within those bounds.
This creates more variety. Make the lower and upper bounds of any range
identical to insist on a specific value for all partials., f 41;
#X text 162 150 Amplitude thresh in percent. Quieter partials will
not be synthesized.;
#X msg 55 156 amp-thresh 0.1;
#X msg 155 299 transpo-ramptime 0;
#X text 280 299 Duration of ramp to new pitch in milliseconds;
#X text 852 727 Switch any individual track on or off. \$1 is track
index \, \$2 is on/off (0/1)., f 40;
#X msg 702 722 track-switches 3 0;
#X msg 712 742 track-switches 3 1;
#X msg 32 24 amp-thresh 0.2 \, attack-time-range 5 10 \, release-time-range
250 500 \, transpo 0 \, transpo-ramptime 40 \, gliss-range 0 0 \, gliss-onset-delay-range
50 750 \, gliss-dur-range 500 2000 \, tremolo-rate-range 0 0 \, pitch-switch
0 \, osc-bandpass-switch 0 \, bandpass-q 350 \, bandpass-makeup-gain
80 \, vib-speed 0 \, vib-depth 0 \, dsp-switch 1;
#X msg 119 222 release-time-range 1000 2000;
#X connect 9 0 10 0;
#X connect 10 0 0 0;
#X connect 12 0 13 0;
#X connect 13 0 0 0;
#X connect 14 0 15 0;
#X connect 15 0 0 0;
#X connect 17 0 19 0;
#X connect 18 0 20 0;
#X connect 19 0 0 0;
#X connect 20 0 0 0;
#X connect 22 0 23 0;
#X connect 23 0 0 0;
#X connect 24 0 0 0;
#X connect 27 0 0 0;
#X connect 28 0 29 0;
#X connect 29 0 0 0;
#X connect 30 0 0 0;
#X connect 31 0 0 0;
#X connect 32 0 0 0;
#X connect 33 0 34 0;
#X connect 34 0 0 0;
#X connect 35 0 0 0;
#X connect 36 0 0 0;
#X connect 37 0 0 0;
#X connect 42 0 0 0;
#X connect 43 0 0 0;
#X connect 46 0 0 0;
#X connect 47 0 0 0;
#X connect 48 0 0 0;
#X connect 49 0 0 0;
#X restore 509 297 pd commands;
#X msg 250 62 0.1;
#X msg 186 62 8;
#X msg 73 62 30;
#N canvas 154 73 855 583 presets 0;
#X obj 64 14 inlet;
#X obj 101 518 outlet;
#X msg 200 322 amp-thresh 0.1 \, attack-time-range 125 250 \, release-time-range
2000 4000 \, gliss-range -3 0.5 \, gliss-onset-delay-range 50 750 \,
gliss-dur-range 500 2000 \, tremolo-rate-range 0.25 4 \, pitch-switch
0 \, dsp-switch 1;
#X obj 64 36 select 0 1 2 3;
#X msg 150 252 amp-thresh 0.1 \, attack-time-range 125 250 \, release-time-range
2000 4000 \, gliss-range 0 0 \, gliss-onset-delay-range 50 750 \, gliss-dur-range
500 2000 \, tremolo-rate-range 0.25 10 \, pitch-switch 0 \, dsp-switch
1;
#X msg 63 107 amp-thresh 0.2 \, attack-time-range 5 10 \, release-time-range
250 500 \, gliss-range 0 0 \, gliss-onset-delay-range 50 750 \, gliss-dur-range
500 2000 \, tremolo-rate-range 0 0 \, pitch-switch 0 \, dsp-switch
1;
#X msg 515 64 \; preset-label label Default \;;
#X msg 545 184 \; preset-label label Melting \;;
#X obj 470 31 select 0 1 2 3;
#X msg 525 104 \; preset-label label Pitch-chord \;;
#X msg 100 182 amp-thresh 0.1 \, attack-time-range 10 50 \, release-time-range
125 250 \, gliss-range 0 0 \, tremolo-rate-range 0 0 \, pitch-switch
1 \, pitch-list 48 52 55 57 60 62 64 67 \, dsp-switch 1;
#X msg 535 144 \; preset-label label Smoothed-&-tremolo \;;
#X connect 0 0 3 0;
#X connect 0 0 8 0;
#X connect 2 0 1 0;
#X connect 3 0 5 0;
#X connect 3 1 10 0;
#X connect 3 2 4 0;
#X connect 3 3 2 0;
#X connect 4 0 1 0;
#X connect 5 0 1 0;
#X connect 8 0 6 0;
#X connect 8 1 9 0;
#X connect 8 2 11 0;
#X connect 8 3 7 0;
#X connect 10 0 1 0;
#X restore 719 267 pd presets;
#X obj 72 20 cnv 15 60 30 empty empty empty 20 12 0 14 -24198 -66577
0;
#N canvas 338 80 495 540 Help 0;
#X obj 34 111 cnv 15 440 210 empty empty empty 20 12 0 14 -228856 -66577
0;
#X text 37 111 Citation;
#X text 58 126 martha~ is a companion to the sigmund~ analysis object.
It's designed to accept output from sigmund~'s sinusoidal tracking
function \, "tracks". In addition to providing an internal oscillator
bank and doing all the data/voice bookkeeping \, it has some useful
features for independent glissing and amplitude pulsing of individual
partials. martha~ is also capable of managing the attack and release
times of partials and forcing inharmonic spectra to harmonic arrangements.
Combined \, these features can create a variety of interesting effects.
;
#X obj 62 265 pddp/pddplink http://en.wikipedia.org/wiki/Martha_Freud
;
#X obj 62 277 pddp/pddplink http://www.williambrent.com;
#X obj 62 289 pddp/pddplink http://williambrent.conflations.com/pages/research.html#martha
;
#X text 47 332 Attack in milliseconds;
#X text 42 345 Release in milliseconds;
#X obj 33 375 cnv 15 370 130 empty empty empty 20 12 0 14 -4033 -66577
0;
#X text 212 334 Transpo = Transposition in semitones;
#X text 22 10 MM martha64 martha8;
#X text 33 76 8 or 64 = desired number of voices in the oscillator
bank of martha~;
#X text 41 376 Les MM martha8 et martha64 utilisent chacun 2 objets
martha~ de William Brent. Ces objets incluent une banque de 8 et 64
oscillateurs. Cela consomme beaucoup de CPU. Choisir martha8 si la
consommation "CPU Peak" est trop elevee.;
#X text 41 445 The MM martha8 and martha64 are each using two martha~
objects of William Brent. These objects include a bank of 8 and 64
oscillators. This consumes a lot of CPU. Choose martha8 if consumption
"CPU Peak" is too high.;
#X text 229 37 William Brent \, December 2017;
#X text 83 23 Based on William Brent's work: [martha~] version 0.6
;
#X restore 79 27 pd Help;
#X msg 609 205 print;
#X obj 303 178 hsl 127 12 10 20000 1 1 \$0-A ColorForm Release=2020
0 7 1 9 -188398 -1 -1 8800 0;
#X obj 709 54 cnv 15 100 70 empty empty empty 20 12 0 14 -24198 -66577
0;
#X text 732 56 library:;
#X text 713 68 pddp;
#X text 713 79 cyclone;
#X obj 859 480 cnv 15 34 16 empty empty empty 20 12 0 14 -24198 -66577
0;
#N canvas 353 174 333 161 ?? 0;
#X obj 17 89 cnv 15 300 56 empty empty empty 20 12 0 14 -224896 -66577
0;
#X obj 17 12 cnv 18 300 70 empty empty ARGOPdMiniModules 3 10 1 14
-4033 -1 1.04858e+06;
#X obj 40 32 cnv 10 10 10 empty empty Gerard 0 5 1 11 -4033 -1 1.04858e+06
;
#X obj 78 32 cnv 10 10 10 empty empty Paresys 0 5 1 11 -4033 -1 1.04858e+06
;
#X obj 20 54 pddp/pddplink http://gerard.paresys.free.fr/ARGOPd/;
#X obj 22 126 pddp/pddplink http://puredata.info/downloads/pd-extended
;
#X obj 22 102 pddp/pddplink http://puredata.info/downloads/pure-data
;
#X text 22 90 Construit sous / Build under Pd-0.49...;
#X text 21 114 or Pd 0.43.4-extended;
#X obj 20 66 pddp/pddplink https://paresys.pagesperso-orange.fr/ARGOPd/
;
#X obj 20 42 pddp/pddplink https://github.com/gerardparesys/ARGOPd
;
#X restore 859 480 pd ??;
#X text 713 99 martha;
#X text 436 98 27 11 2019;
#X connect 3 0 10 0;
#X connect 3 0 63 0;
#X connect 4 0 10 1;
#X connect 4 0 64 0;
#X connect 8 0 30 0;
#X connect 8 0 31 1;
#X connect 8 0 32 0;
#X connect 9 0 10 2;
#X connect 10 0 5 0;
#X connect 10 1 6 0;
#X connect 11 0 22 0;
#X connect 11 0 46 0;
#X connect 11 0 73 0;
#X connect 11 0 47 0;
#X connect 11 0 65 0;
#X connect 11 0 72 0;
#X connect 11 0 74 0;
#X connect 12 0 20 0;
#X connect 12 0 21 0;
#X connect 16 0 75 0;
#X connect 19 0 63 0;
#X connect 19 0 64 0;
#X connect 20 0 12 0;
#X connect 21 0 58 1;
#X connect 21 0 59 1;
#X connect 22 0 12 0;
#X connect 22 0 8 0;
#X connect 22 0 70 0;
#X connect 23 0 58 1;
#X connect 23 0 59 1;
#X connect 24 0 25 0;
#X connect 24 0 23 0;
#X connect 25 0 24 0;
#X connect 26 0 27 0;
#X connect 29 0 58 1;
#X connect 29 0 59 1;
#X connect 30 0 8 0;
#X connect 31 0 29 0;
#X connect 32 0 31 0;
#X connect 33 0 34 0;
#X connect 33 0 41 0;
#X connect 33 0 40 0;
#X connect 34 0 33 0;
#X connect 35 0 37 0;
#X connect 36 0 35 1;
#X connect 37 0 58 1;
#X connect 37 0 59 1;
#X connect 38 0 79 0;
#X connect 39 0 58 1;
#X connect 39 0 59 1;
#X connect 40 0 39 0;
#X connect 41 0 40 1;
#X connect 43 0 58 1;
#X connect 43 0 59 1;
#X connect 44 0 45 0;
#X connect 45 0 44 0;
#X connect 45 1 19 0;
#X connect 46 0 58 1;
#X connect 46 0 59 1;
#X connect 47 0 9 0;
#X connect 47 0 33 0;
#X connect 47 0 79 0;
#X connect 58 0 10 4;
#X connect 59 0 10 3;
#X connect 60 0 61 0;
#X connect 60 0 62 0;
#X connect 61 0 63 0;
#X connect 61 0 64 0;
#X connect 62 0 60 0;
#X connect 63 0 59 0;
#X connect 64 0 58 0;
#X connect 65 0 60 0;
#X connect 66 0 58 1;
#X connect 66 0 59 1;
#X connect 67 0 58 1;
#X connect 67 0 59 1;
#X connect 68 0 69 0;
#X connect 68 0 67 0;
#X connect 69 0 68 0;
#X connect 70 0 66 0;
#X connect 71 0 58 1;
#X connect 71 0 59 1;
#X connect 72 0 24 0;
#X connect 73 0 44 0;
#X connect 74 0 68 0;
#X connect 75 0 58 1;
#X connect 75 0 59 1;
#X connect 78 0 63 0;
#X connect 78 0 64 0;
#X connect 79 0 36 0;
#X connect 79 0 38 0;
#X connect 79 0 35 0;
#X coords 0 -1 1 1 132 132 1 300 100;
#X restore 150 314 pd ARGO;
#X obj 322 216 cnv 15 100 30 empty empty empty 20 12 0 14 -24198 -66577
0;
#X text 326 217 Pd-0.47 mini;
#X text 325 229 (clone object);
#X obj 322 253 cnv 15 100 70 empty empty empty 20 12 0 14 -24198 -66577
0;
#X text 345 255 library:;
#X text 326 267 pddp;
#X text 326 278 cyclone;
#X obj 395 650 cnv 15 34 16 empty empty empty 20 12 0 14 -24198 -66577
0;
#N canvas 353 174 333 161 ?? 0;
#X obj 17 89 cnv 15 300 56 empty empty empty 20 12 0 14 -224896 -66577
0;
#X obj 17 12 cnv 18 300 70 empty empty ARGOPdMiniModules 3 10 1 14
-4033 -1 1.04858e+06;
#X obj 40 32 cnv 10 10 10 empty empty Gerard 0 5 1 11 -4033 -1 1.04858e+06
;
#X obj 78 32 cnv 10 10 10 empty empty Paresys 0 5 1 11 -4033 -1 1.04858e+06
;
#X obj 20 54 pddp/pddplink http://gerard.paresys.free.fr/ARGOPd/;
#X obj 22 126 pddp/pddplink http://puredata.info/downloads/pd-extended
;
#X obj 22 102 pddp/pddplink http://puredata.info/downloads/pure-data
;
#X text 22 90 Construit sous / Build under Pd-0.49...;
#X text 21 114 or Pd 0.43.4-extended;
#X obj 20 66 pddp/pddplink https://paresys.pagesperso-orange.fr/ARGOPd/
;
#X obj 20 42 pddp/pddplink https://github.com/gerardparesys/ARGOPd
;
#X restore 395 650 pd ??;
#X text 326 298 martha;
#X text 326 288 zexy;
#X connect 5 0 4 0;
#X connect 13 0 20 0;
#X connect 13 1 20 1;
#X connect 15 0 28 0;
#X connect 15 1 28 2;
#X connect 16 0 15 0;
#X connect 16 1 15 1;
#X connect 17 0 16 0;
#X connect 18 0 17 0;
#X connect 19 0 18 0;
#X connect 20 0 26 0;
#X connect 20 0 21 0;
#X connect 20 0 27 0;
#X connect 20 1 26 1;
#X connect 20 1 21 1;
#X connect 20 1 27 1;
#X connect 28 0 13 0;
#X connect 28 1 13 1;
