#N canvas 525 23 550 479 10;
#X obj 15 9 cnv 15 15 15 empty empty ExMM137c-FilterColors.pd 0 8 1
14 -262144 -66577 0;
#X text 219 6 Flt-Alea = Filter aleatory = Filtre aléatoire;
#X text 230 20 "a random distribution of band-pass filters";
#X obj 151 142 hip~ 50;
#N canvas 229 397 1028 481 ARGO 0;
#X obj 199 434 outlet~;
#X obj 339 106 openpanel;
#X msg 366 156 set \$1;
#X obj 54 63 loadbang;
#X obj 339 130 t b s;
#X msg 90 320 set \$1;
#X text 642 136 Les canaux 3 \, 4... d'un fichier Audio de plus de
2 canaux ne sont pas lus.;
#X text 642 109 Lit un fichier Audio Stereo (2 canaux).;
#X text 642 122 Le canal d'un fichier Audio Mono est lu sur la sortie
gauche;
#X text 676 186 A Mono Audio file is read on the left output.;
#X obj 122 98 cnv 15 60 30 empty empty empty 20 12 0 14 -24198 -66577
0;
#N canvas 78 59 563 525 Help 0;
#X obj 10 85 cnv 15 400 120 empty empty empty 20 12 0 14 -233017 -66577
0;
#X text 13 84 Citation;
#X obj 8 348 cnv 15 550 230 empty empty empty 20 12 0 14 -224896 -66577
0;
#X text 12 -41 - Ne lit pas un fichier au format mp3 \, SoundDesigner
II (.SDII ou .SD2);
#X text 29 30 error: soundfiler_read: x.aiff: unknown or bad header
format;
#X text 16 54 Solution: ouvrir puis sauver le fichier au format aiff
avec Audacity;
#X text 15 -9 - Ne lit pas un fichier au format aiff "Entier petit
boutien" comme les pistes d'un CD Audio copiées avec le finder du Mac.
Les messages d'erreur s'affichent:;
#X text 29 41 error: dsp: xxx.aiff: unknown or bad header format;
#X text 11 -60 - Lit un fichier Audio au format aiff \, wave;
#X text 19 503 Erreur dans la fenêtre Pd:;
#X text 11 208 - Si le Patch est sauvé avec 1 Player contenant un nom
de fichier Audio \, ce fichier sera lu automatiquement à la prochaine
ouverture s'il n'a pas changé d'emplacement.;
#X text 186 463 If the sample rate of pd is set to 44100 \, files having
the sample rates of 44100 are correctly played \, other files will
be transposed.;
#X text 188 436 WARNING The sample rate of the output depends on the
system sample rate of pd:;
#X text 16 352 - ATTENTION Le taux d'échantillonnage de la lecture
du fichier dépends du taux d'échantillonnage de Pd.;
#X text 28 379 Si le taux d'échantillonnage de Pd est de 44100 (Menu
Preferences -> Audio Settings...) \, les fichiers échantillonnés à
44100 Hz sont lus correctement \, sinon ils sont transposés.;
#X text 32 99 The soundfiler object reads and writes floating point
arrays to binary soundfiles which may contain 2 or 3 byte fixed point
or 4 byte floating point samples in wave \, aiff \, or next formats
(no floating point aiff \, though.). The number of channels of the
soundfile need not match the number of arrays given (extras are dropped
and unsupplied channels are zeroed out.);
#X text 52 545 Quand on duplique le miniModule sous MacOSX.4;
#X text 34 518 warning: B...: multiply defined;
#X text 34 531 warning: A...: multiply defined;
#X text 73 558 Sans consequence...;
#X obj 11 653 cnv 15 350 170 empty empty empty 20 12 0 14 -258113 -66577
0;
#X text 18 656 ATTENTION;
#X text 30 670 Bug sous MacOSX.5 (pas sous MacOSX.4);
#X text 30 685 Ces 3 Mini%odules ne sont pas duplicables directement
;
#X text 31 699 en faisant: Pomme D ou Pomme C -> Pomme V;
#X text 31 712 Cela crash Pd...;
#X text 33 781 3 Ré-ouvrir le patch qui vient d'etre fermé;
#X text 33 796 4 Coller le MiniModule dans le patch;
#X text 64 767 (aprés avoir sauvé ce patch au besoin);
#X text 34 754 2 Fermer le patch d'où il a été copié;
#X text 34 740 1 Copier le MiniModule à dupliquer;
#X text 17 726 SOLUTION;
#X obj 11 586 cnv 15 290 60 empty empty empty 20 12 0 14 -258113 -66577
0;
#X text 14 590 File < 4e+06 samples;
#X text 46 602 < 90 sec at 44100 samples/sec;
#X text 11 249 - Peut Ouvrir automatiquement 1 fichier qui se trouve
dans le même dossier que lui \, quelquesoit l'emplacement du dossier.
Pour cela ouvrir le module et taper le nom du fichier (sans chemin
d'accés) dans le message. Sauver le patch. Fermer le patch. Ré-ouvrir
le patch. Le dossier contenant le module ARGO et le fichier audio est
ainsi transportable.;
#X restore 129 104 pd Help;
#X obj 302 320 tabread4~;
#X obj 368 320 tabread4~;
#X obj 222 157 t b b;
#X obj 61 345 cnv 15 400 50 empty empty empty 20 12 0 14 -260097 -66577
0;
#X text 63 344 Nom du fichier / File name;
#X obj 339 83 bang;
#X text 511 209 <- Clic le nom du fichier pour le changer;
#X text 513 223 <- Click to change the file name;
#X text 677 175 Reads an Stereo Audio file (2 channels).;
#X obj 511 277 cnv 15 350 170 empty empty empty 20 12 0 14 -258113
-66577 0;
#X text 518 280 ATTENTION;
#X text 530 294 Bug sous MacOSX.5 (pas sous MacOSX.4);
#X text 531 336 Cela crash Pd...;
#X text 533 405 3 Ré-ouvrir le patch qui vient d'etre fermé;
#X text 533 420 4 Coller le MiniModule dans le patch;
#X text 557 390 (aprés avoir sauvé ce patch au besoin);
#X text 534 378 2 Fermer le patch d'où il a été copié;
#X text 534 364 1 Copier le MiniModule à dupliquer;
#X text 517 350 SOLUTION;
#X text 531 323 en faisant: Pomme D ou Pomme C + Pomme V;
#X text 145 189 Trig Decl;
#X obj 276 434 outlet~;
#X text 530 309 Ce Mini%odule n'est pas duplicable directement;
#X obj 198 180 cnv 2 8 2 empty empty empty 20 12 0 14 -262144 -66577
0;
#N canvas 256 129 753 425 RenameArrays2 0;
#X obj 118 56 realtime;
#X obj 118 80 * 100;
#X obj 118 103 int;
#X obj 87 290 pack s s;
#X msg 87 315 \; \$1 rename \$2;
#X msg 22 208 set \$1;
#X text 66 319 (1);
#X text -1 207 (2);
#X text 65 241 (3);
#X text 443 14 array -> Voir:;
#X text 443 27 Help Browser/2.control.examples/15.array.pd;
#X text 443 40 Help Browser/2.control.examples/16.more.arrays.pd;
#X text 443 52 Help Browser/5.reference/all_about_arrays.pd;
#X obj 234 289 pack s s;
#X msg 234 314 \; \$1 rename \$2;
#X msg 186 208 set \$1;
#X text 213 319 (1);
#X text 161 207 (2);
#X text 213 241 (3);
#X obj 344 378 outlet;
#X obj 163 32 inlet;
#X text 357 186 Démarrer en nommant les arrays (graph) A et B et en
mettant A et B dans (3);
#X text 353 137 SOLUTION:;
#X text 358 153 (1) Renommer les 2 arrays;
#X obj 19 377 outlet;
#X obj 183 378 outlet;
#X text 355 109 PROBLEME: Comment dupliquer un MiniModule comportant
un ou plusieurs arrays;
#X text 357 168 (2) Renommer le message qui renomme les 2 arrays;
#X obj 53 180 t a a b a;
#X obj 213 179 t a a b a;
#X msg 87 242 A274;
#X msg 234 241 B274;
#N canvas 0 23 1149 303 (subpatch) 0;
#X array B274 190563 float 2;
#X coords 0 0 190563 1 300 40 0;
#X restore 256 352 graph;
#N canvas 0 23 844 357 (subpatch) 0;
#X array A274 190563 float 2;
#X coords 0 0 190563 1 300 40 0;
#X restore 108 351 graph;
#X obj 344 286 soundfiler;
#X msg 344 265 read -resize \$1 \$2 \$3;
#X obj 344 243 pack s s s;
#X obj 346 32 inlet;
#X text 311 11 Path + Name of file;
#X text 155 10 loadbang;
#X text 329 396 Nb of samples;
#X msg 539 353 label \$1;
#X obj 540 265 int;
#X obj 540 288 / 10;
#X obj 540 242 / 4410;
#X obj 539 378 outlet;
#X text 524 396 label duration (sec);
#X text 450 82 -> pour les noms de fichier avec espace;
#X obj 53 131 cyclone/sprintf A%d;
#X obj 213 130 cyclone/sprintf B%d;
#X obj 213 152 cyclone/tosymbol;
#X obj 53 153 cyclone/tosymbol;
#X obj 234 263 cyclone/tosymbol;
#X obj 87 264 cyclone/tosymbol;
#X obj 540 310 cyclone/sprintf %ssec;
#X obj 539 331 cyclone/tosymbol;
#X obj 346 82 zexy/list2symbol;
#X connect 0 0 1 0;
#X connect 1 0 2 0;
#X connect 2 0 48 0;
#X connect 2 0 49 0;
#X connect 3 0 4 0;
#X connect 5 0 30 0;
#X connect 5 0 24 0;
#X connect 13 0 14 0;
#X connect 15 0 31 0;
#X connect 15 0 25 0;
#X connect 20 0 0 1;
#X connect 28 0 5 0;
#X connect 28 1 36 1;
#X connect 28 2 30 0;
#X connect 28 3 3 1;
#X connect 29 0 15 0;
#X connect 29 1 36 2;
#X connect 29 2 31 0;
#X connect 29 3 13 1;
#X connect 30 0 53 0;
#X connect 31 0 52 0;
#X connect 34 0 19 0;
#X connect 34 0 44 0;
#X connect 35 0 34 0;
#X connect 36 0 35 0;
#X connect 37 0 56 0;
#X connect 41 0 45 0;
#X connect 42 0 43 0;
#X connect 43 0 54 0;
#X connect 44 0 42 0;
#X connect 48 0 51 0;
#X connect 49 0 50 0;
#X connect 50 0 29 0;
#X connect 51 0 28 0;
#X connect 52 0 13 0;
#X connect 53 0 3 0;
#X connect 54 0 55 0;
#X connect 55 0 41 0;
#X connect 56 0 36 0;
#X restore 93 232 pd RenameArrays2;
#N canvas 298 135 731 495 PlayerVarySpeed 0;
#X obj 338 435 outlet~;
#X msg 242 398 set 0;
#X obj 320 194 sel 1 0;
#X obj 166 32 loadbang;
#X obj 514 336 * 100000;
#X obj 22 194 snapshot~;
#X obj 176 342 spigot;
#X msg 204 398 1;
#X obj 528 103 / 100;
#X msg 518 82 10000;
#X obj 518 61 t b f;
#X msg 327 336 stop;
#X obj 225 278 t b b b;
#X obj 499 224 sel 0 1;
#X msg 445 336 4.41e+08;
#X msg 374 278 set 4.41e+08;
#X msg 458 278 set -4.41e+08;
#X obj 174 278 t b b b;
#X msg 282 278 set \$1;
#X obj 599 278 spigot;
#X obj 630 258 expr 1-$f1;
#X obj 549 278 spigot;
#X obj 338 398 vline~;
#X obj 425 229 spigot;
#X obj 224 32 r SendFluid;
#X obj 167 56 metro 50;
#X obj 22 336 change;
#X obj 335 278 t b b;
#X obj 427 194 t b f;
#X obj 468 194 t b b f f f;
#X obj 437 117 t b b b;
#X text 333 451 tabread4~;
#X obj 434 32 inlet;
#X obj 478 32 inlet;
#X obj 518 32 inlet;
#X obj 577 32 inlet;
#X text 581 14 <->;
#X text 516 14 Speed;
#X text 480 14 Loop;
#X text 430 14 Zero;
#X obj 234 435 outlet;
#X text 241 451 Play;
#X obj 382 32 inlet;
#X text 379 14 Play;
#X msg 286 398 0;
#X obj 22 435 outlet;
#X text 23 451 Hslider;
#X obj 115 32 inlet;
#X text 91 14 Nb of samples;
#X msg 22 398 set \$1;
#X text 624 14 Hslider;
#X obj 630 32 inlet;
#X obj 299 336 * 1;
#X msg 364 103 set \$1;
#X msg 337 139 1;
#X obj 337 78 t b f;
#X obj 631 61 t b f;
#X msg 374 140 1;
#X obj 375 194 sel 1 0;
#X obj 98 139 /~ 1;
#X obj 201 194 threshold~ 1 0 1 0;
#X obj 84 194 threshold~ 0 0 0 0;
#X msg 368 336 190562;
#X msg 412 336 1;
#X obj 233 138 - 1;
#X obj 177 367 t b b;
#X obj 103 435 outlet;
#X obj 103 398 * 100;
#X text 103 451 0..100;
#X obj 450 435 outlet;
#X text 442 451 Bang Loop;
#X text 630 2 0..1, f 5;
#X connect 1 0 40 0;
#X connect 2 0 27 0;
#X connect 2 1 1 0;
#X connect 2 1 11 0;
#X connect 3 0 25 0;
#X connect 4 0 22 1;
#X connect 5 0 26 0;
#X connect 6 0 65 0;
#X connect 7 0 40 0;
#X connect 8 0 28 0;
#X connect 9 0 8 0;
#X connect 10 0 9 0;
#X connect 10 1 8 1;
#X connect 11 0 22 0;
#X connect 12 0 6 0;
#X connect 12 1 63 0;
#X connect 12 2 44 0;
#X connect 13 0 15 0;
#X connect 13 1 16 0;
#X connect 14 0 22 0;
#X connect 15 0 14 0;
#X connect 16 0 14 0;
#X connect 17 0 6 0;
#X connect 17 1 62 0;
#X connect 17 2 44 0;
#X connect 18 0 62 0;
#X connect 19 0 63 0;
#X connect 20 0 19 1;
#X connect 21 0 62 0;
#X connect 22 0 0 0;
#X connect 22 0 59 0;
#X connect 23 0 14 0;
#X connect 24 0 25 1;
#X connect 25 0 5 0;
#X connect 26 0 49 0;
#X connect 26 0 67 0;
#X connect 27 0 14 0;
#X connect 27 1 4 0;
#X connect 28 0 23 0;
#X connect 28 1 4 0;
#X connect 29 0 23 0;
#X connect 29 1 4 0;
#X connect 29 2 13 0;
#X connect 29 3 21 1;
#X connect 29 4 20 0;
#X connect 30 0 21 0;
#X connect 30 1 19 0;
#X connect 30 2 44 0;
#X connect 32 0 30 0;
#X connect 33 0 6 1;
#X connect 34 0 10 0;
#X connect 35 0 29 0;
#X connect 42 0 55 0;
#X connect 44 0 40 0;
#X connect 47 0 52 1;
#X connect 47 0 59 1;
#X connect 47 0 64 0;
#X connect 49 0 45 0;
#X connect 51 0 56 0;
#X connect 52 0 22 0;
#X connect 53 0 54 0;
#X connect 53 0 57 0;
#X connect 54 0 2 0;
#X connect 54 0 23 1;
#X connect 55 0 54 0;
#X connect 55 1 53 0;
#X connect 56 0 57 0;
#X connect 56 1 52 0;
#X connect 57 0 58 0;
#X connect 58 0 27 0;
#X connect 59 0 61 0;
#X connect 59 0 5 0;
#X connect 59 0 60 0;
#X connect 60 0 12 0;
#X connect 60 1 69 0;
#X connect 61 1 17 0;
#X connect 61 1 69 0;
#X connect 62 0 22 0;
#X connect 63 0 22 0;
#X connect 64 0 18 0;
#X connect 65 0 27 0;
#X connect 65 1 7 0;
#X connect 67 0 66 0;
#X restore 276 272 pd PlayerVarySpeed;
#X obj 54 156 t b b b;
#X obj 372 434 outlet;
#X text 373 450 0..100;
#X obj 73 404 zexy/list2symbol;
#X obj 413 63 inlet;
#X text 480 28 0..100;
#X obj 413 106 / 100;
#X obj 348 207 cnv 10 20 10 empty empty Play. 1 5 1 14 -262144 -1 1.04858e+06
;
#X obj 205 230 hsl 284 15 0 127 0 0 \$0-A \$0-B empty -2 -8 0 10 -262144
-262144 -1 0 1;
#X symbolatom 201 230 48 0 0 0 - - -;
#X obj 221 206 bng 12 250 50 0 \$0-A \$0-B Zero 15 7 1 9 -262144 -1
-1;
#X obj 385 206 tgl 12 1 \$0-A \$0-B <-> 14 6 1 9 -208064 -1 -1 0 1
;
#X obj 306 206 tgl 12 1 \$0-A \$0-B Loop 15 6 1 9 -262144 -1 -1 1 1
;
#X obj 269 200 tgl 12 1 \$0-A \$0-B Play 14 6 1 9 -262144 -1 -1 1 1
;
#X obj 200 200 bng 12 250 50 0 \$0-A \$0-B empty 14 6 1 9 -262144 -1
-1;
#X obj 417 201 cnv 4 10 4 empty empty empty 20 12 0 14 -260097 -66577
0;
#X obj 454 434 outlet;
#X text 449 449 Bng Loop;
#X obj 488 238 bng 12 250 50 0 \$0-A \$0-B empty 15 7 1 9 -262144 -1
-1;
#X obj 203 218 hsl 295 12 0 1 0 0 \$0-A \$0-B 4.3sec 234 7 1 9 -188398
-1 -1 12066 0;
#X obj 270 201 cnv 4 10 4 empty empty empty 20 12 0 14 -260097 -66577
0;
#X obj 294 63 inlet;
#X obj 294 246 cnv 4 10 4 empty empty empty 20 12 0 14 -1 -66577 0
;
#X obj 201 246 cnv 4 10 4 empty empty empty 20 12 0 14 -1 -66577 0
;
#X obj 393 246 cnv 4 10 4 empty empty empty 20 12 0 14 -260097 -66577
0;
#X obj 489 246 cnv 4 10 4 empty empty empty 20 12 0 14 -260097 -66577
0;
#X obj 481 63 inlet;
#X obj 344 201 cnv 4 10 4 empty empty empty 20 12 0 14 -260097 -66577
0;
#X obj 417 206 nbx 4 12 1 9999 0 1 \$0-A ColorTime Speed 39 7 1 9 -208064
-1 -1 100 256;
#X text 296 45 0..1;
#X obj 847 440 cnv 15 42 25 empty empty empty 20 12 0 14 -24198 -66577
0;
#N canvas 336 174 316 152 ?. 0;
#X obj 8 84 cnv 15 300 56 empty empty empty 20 12 0 14 -224896 -66577
0;
#X obj 8 7 cnv 18 300 70 empty empty ARGOPdMiniModules 3 10 1 14 -4033
-1 1.04858e+06;
#X obj 31 27 cnv 10 10 10 empty empty Gerard 0 5 1 11 -4033 -1 1.04858e+06
;
#X obj 69 27 cnv 10 10 10 empty empty Paresys 0 5 1 11 -4033 -1 1.04858e+06
;
#X obj 12 40 pddp/pddplink http://gerard.paresys.free.fr/ARGOPd/;
#X text 13 85 Construit sous / Build under Pd 0.43.4-extended;
#X obj 13 111 pddp/pddplink http://puredata.info/downloads/pd-extended
;
#X obj 12 53 pddp/pddplink http://paresys.pagesperso-orange.fr/ARGOPd/
;
#X text 12 98 or Pd-0.48;
#X obj 13 124 pddp/pddplink http://puredata.info/downloads/pure-data
;
#X restore 851 444 pd ?.;
#X obj 775 29 cnv 15 100 70 empty empty empty 20 12 0 14 -24198 -66577
0;
#X text 798 31 library:;
#X text 779 42 pddp;
#X text 779 53 cyclone;
#X text 779 64 zexy;
#X text 410 45 0..100;
#X text 403 30 Position;
#X text 281 31 Play/Stop;
#X obj 201 201 cnv 4 10 4 empty empty empty 20 12 0 14 -260097 -66577
0;
#X obj 201 63 inlet;
#X text 193 49 bang;
#X obj 563 63 inlet;
#X obj 563 109 t b b s;
#X text 550 42 Filename;
#X obj 563 87 zexy/list2symbol;
#X obj 489 201 cnv 4 10 4 empty empty empty 20 12 0 14 -260097 -66577
0;
#X text 485 12 Speed;
#X text 463 46 100 = normal;
#X text 447 185 1 4 2019;
#X msg 73 360 BachClabientempPrelude8MonoCourt.aiff;
#X connect 1 0 4 0;
#X connect 2 0 47 0;
#X connect 3 0 38 0;
#X connect 4 0 47 0;
#X connect 4 1 2 0;
#X connect 5 0 89 0;
#X connect 12 0 0 0;
#X connect 13 0 33 0;
#X connect 14 0 51 0;
#X connect 14 1 48 0;
#X connect 17 0 1 0;
#X connect 36 0 12 0;
#X connect 36 1 13 0;
#X connect 36 2 37 0;
#X connect 36 3 57 0;
#X connect 37 0 57 0;
#X connect 37 1 39 0;
#X connect 37 2 51 0;
#X connect 37 3 13 0;
#X connect 37 3 12 0;
#X connect 37 4 56 0;
#X connect 38 0 47 0;
#X connect 38 1 89 0;
#X connect 38 2 36 0;
#X connect 41 0 2 0;
#X connect 42 0 44 0;
#X connect 44 0 57 0;
#X connect 46 0 17 0;
#X connect 47 0 5 0;
#X connect 47 0 36 1;
#X connect 48 0 37 2;
#X connect 49 0 37 5;
#X connect 50 0 37 3;
#X connect 51 0 37 1;
#X connect 52 0 14 0;
#X connect 56 0 54 0;
#X connect 57 0 37 6;
#X connect 59 0 51 0;
#X connect 64 0 66 0;
#X connect 66 0 37 4;
#X connect 79 0 52 0;
#X connect 81 0 84 0;
#X connect 82 0 47 0;
#X connect 82 1 89 0;
#X connect 82 2 5 0;
#X connect 84 0 82 0;
#X connect 89 0 41 0;
#X coords 0 -1 1 1 300 51 2 200 200;
#X restore 42 61 pd ARGO;
#X text 210 137 Change ->;
#N canvas 397 46 342 205 ARGO 0;
#X obj 101 101 cnv 10 104 18 empty ColorForm Flt-Alea. 35 9 1 14 -188398
-1 1.04858e+06;
#X obj 101 115 cnv 4 10 4 empty empty empty 20 12 0 14 -1 -66577 0
;
#X obj 195 115 cnv 4 10 4 empty empty empty 0 0 0 9 -1 -66577 0;
#X obj 92 62 inlet~;
#X obj 227 179 outlet~;
#X obj 101 101 cnv 4 10 4 empty empty empty 20 12 0 14 -1 -66577 0
;
#X obj 92 179 outlet~;
#X obj 13 59 cnv 15 60 30 empty empty empty 20 12 0 14 -24198 -66577
0;
#N canvas 216 152 440 213 Help 0;
#X obj 9 60 cnv 15 420 140 empty empty empty 20 12 0 14 -233017 -66577
0;
#X text 12 62 Citation;
#X text 18 17 Flt-Alea = Filter aleatory = Filtre aléatoire;
#X text 22 108 3.3.2.1 Filter colors;
#X text 22 93 Programming Electronic Music in Pd;
#X text 22 79 loadbang;
#X text 84 79 Johannes Kreidler;
#X text 29 31 "a random distribution of band-pass filters";
#X obj 22 183 pddp/pddplink http://www.pd-tutorial.com/english/patches/3-3-2-1-filtercolors.pd
;
#X obj 22 171 pddp/pddplink http://www.pd-tutorial.com/english/ch03s03.html#id423958
;
#X text 21 128 Just as an example of how filters might be used \, here
is a random distribution of band-pass filters: patches/3-3-2-1-filtercolors.pd
;
#X restore 20 65 pd Help;
#X text 83 45 In Audio;
#N canvas 50 195 1020 313 3-3-2-1-filtercolors 0;
#X obj 342 17 inlet~;
#X obj 674 17 inlet;
#X obj 21 190 bp~ 0 50;
#X obj 43 133 random 10000;
#X floatatom 43 160 5 0 0 0 - - -;
#X obj 149 190 bp~ 0 50;
#X obj 171 133 random 10000;
#X floatatom 171 160 5 0 0 0 - - -;
#X obj 277 190 bp~ 0 50;
#X obj 299 133 random 10000;
#X floatatom 299 160 5 0 0 0 - - -;
#X obj 405 190 bp~ 0 50;
#X obj 427 133 random 10000;
#X floatatom 427 160 5 0 0 0 - - -;
#X obj 533 190 bp~ 0 50;
#X obj 555 133 random 10000;
#X floatatom 555 160 5 0 0 0 - - -;
#X obj 661 190 bp~ 0 50;
#X obj 683 133 random 10000;
#X floatatom 683 160 5 0 0 0 - - -;
#X obj 789 190 bp~ 0 50;
#X obj 811 133 random 10000;
#X floatatom 811 160 5 0 0 0 - - -;
#X obj 917 190 bp~ 0 50;
#X obj 939 133 random 10000;
#X floatatom 939 160 5 0 0 0 - - -;
#X text 111 35 3.3.2.1. Filter Colors;
#X text 717 23 new color;
#X text 823 286 www.pd-tutorial.com;
#X text 832 259 Johannes Kreidler;
#X obj 223 264 outlet~;
#X obj 704 264 outlet~;
#X connect 0 0 2 0;
#X connect 0 0 5 0;
#X connect 0 0 8 0;
#X connect 0 0 11 0;
#X connect 0 0 14 0;
#X connect 0 0 17 0;
#X connect 0 0 20 0;
#X connect 0 0 23 0;
#X connect 1 0 3 0;
#X connect 1 0 6 0;
#X connect 1 0 9 0;
#X connect 1 0 12 0;
#X connect 1 0 15 0;
#X connect 1 0 18 0;
#X connect 1 0 21 0;
#X connect 1 0 24 0;
#X connect 2 0 30 0;
#X connect 3 0 4 0;
#X connect 4 0 2 1;
#X connect 5 0 30 0;
#X connect 6 0 7 0;
#X connect 7 0 5 1;
#X connect 8 0 30 0;
#X connect 9 0 10 0;
#X connect 10 0 8 1;
#X connect 11 0 30 0;
#X connect 12 0 13 0;
#X connect 13 0 11 1;
#X connect 14 0 31 0;
#X connect 15 0 16 0;
#X connect 16 0 14 1;
#X connect 17 0 31 0;
#X connect 18 0 19 0;
#X connect 19 0 17 1;
#X connect 20 0 31 0;
#X connect 21 0 22 0;
#X connect 22 0 20 1;
#X connect 23 0 31 0;
#X connect 24 0 25 0;
#X connect 25 0 23 1;
#X restore 92 146 pd 3-3-2-1-filtercolors;
#X obj 194 100 bng 12 50 50 0 \$0-A \$0-B empty 0 7 1 9 -262144 -1
-1;
#X obj 195 101 cnv 4 10 4 empty empty empty 20 12 0 14 -260097 -66577
0;
#X obj 191 61 cnv 15 90 20 empty empty empty 20 12 0 14 -261682 -66577
0;
#X text 230 62 <- Bang;
#X obj 194 62 inlet;
#X text 9 15 from "Filter colors" of Johannes Kreidler;
#X obj 145 36 loadbang;
#X obj 280 172 cnv 15 52 22 empty empty empty 20 12 0 14 -24198 -66577
0;
#N canvas 353 174 321 152 ?... 0;
#X obj 8 84 cnv 15 300 56 empty empty empty 20 12 0 14 -224896 -66577
0;
#X obj 8 7 cnv 18 300 70 empty empty ARGOPdMiniModules 3 10 1 14 -4033
-1 1.04858e+06;
#X obj 31 27 cnv 10 10 10 empty empty Gerard 0 5 1 11 -4033 -1 1.04858e+06
;
#X obj 69 27 cnv 10 10 10 empty empty Paresys 0 5 1 11 -4033 -1 1.04858e+06
;
#X obj 12 40 pddp/pddplink http://gerard.paresys.free.fr/ARGOPd/;
#X obj 13 121 pddp/pddplink http://puredata.info/downloads/pd-extended
;
#X obj 13 97 pddp/pddplink http://puredata.info/downloads/pure-data
;
#X text 13 85 Construit sous / Build under Pd-0.49...;
#X text 12 109 or Pd 0.43.4-extended;
#X obj 12 53 pddp/pddplink https://paresys.pagesperso-orange.fr/ARGOPd/
;
#X restore 283 175 pd ?...;
#X text 210 102 24 8 2019;
#X connect 3 0 10 0;
#X connect 10 0 6 0;
#X connect 10 1 4 0;
#X connect 11 0 10 1;
#X connect 15 0 11 0;
#X connect 17 0 11 0;
#X coords 0 -1 1 1 106 20 1 100 100;
#X restore 151 186 pd ARGO;
#X obj 213 445 dac~ 1 2;
#X text 5 448 .wav file format recorder;
#X text 3 436 Enregistreur audio au format .wav;
#X text 37 275 Niveau general ->;
#X text 43 285 General level ->;
#X text 99 425 |;
#X text 99 420 ^;
#X obj 22 197 switch~;
#N canvas 608 166 228 173 ARGOnOff 0;
#X obj 100 100 tgl 18 1 \$0-SendOnOff \$0-ReceiveOnOff On/Off 20 11
1 14 -4033 -1 -1 1 1;
#X obj 99 10 loadbang;
#X msg 99 33 \; pd dsp 1;
#X obj 100 129 outlet;
#X text -50 99 Audio On/Off du patch ->;
#X text -22 45 Audio General On ->;
#X text 107 82 17 3 2010;
#X connect 0 0 3 0;
#X connect 1 0 2 0;
#X coords 0 -1 1 1 65 18 2 100 100;
#X restore 22 179 pd ARGOnOff;
#X text 27 163 V;
#X text 27 156 |;
#X text 15 145 On/Off Patch;
#X text 45 157 (Audio);
#N canvas 175 68 381 386 ARGO 0;
#X obj 101 101 cnv 20 116 34 empty ColorAmpli empty 20 12 0 14 -261299
-1 1.04858e+06;
#X obj 85 353 outlet~;
#X obj 157 104 cnv 10 20 10 empty ColorAmpli Ampli. 1 5 1 14 -261299
-1 1.04858e+06;
#X obj 85 43 inlet~;
#X obj 85 330 *~;
#X obj 115 118 hsl 101 12 -80 20 0 1 \$0-A ColorAmpli -4dB 0 7 1 9
-261299 -1 -1 7600 0;
#X obj 101 101 cnv 4 10 4 empty empty empty 20 12 0 14 -1 -66577 0
;
#X obj 101 131 cnv 4 10 4 empty empty empty 20 12 0 14 -1 -66577 0
;
#X obj 207 101 cnv 4 10 4 empty empty empty 20 12 0 14 -1 -66577 0
;
#X obj 207 131 cnv 4 10 4 empty empty empty 20 12 0 14 -1 -66577 0
;
#X obj 222 352 outlet~;
#X obj 222 42 inlet~;
#X obj 222 329 *~;
#X msg -42 138 label \$1;
#X text 148 194 -> 0.0001..10 = -80dB..20dB;
#X obj 142 175 expr (pow(10 \, $f1 / 20));
#X obj 142 215 sel 0.0001;
#X msg 100 244 0;
#X obj 100 118 tgl 12 1 \$0-A \$0-B Mute 2 -5 1 9 -261299 -1 -1 0 1
;
#X obj 99 146 select 0 1;
#X obj 140 295 line~;
#X obj 140 275 pack 0 10;
#X msg 123 74 set 0;
#X obj -42 92 cyclone/sprintf %ddB;
#X text 228 110 6 3 2016;
#X obj -42 115 cyclone/tosymbol;
#X obj 273 344 cnv 15 42 25 empty empty empty 20 12 0 14 -24198 -66577
0;
#N canvas 336 174 309 137 ?. 0;
#X obj 3 83 cnv 15 300 46 empty empty empty 20 12 0 14 -224896 -66577
0;
#X obj 3 6 cnv 18 300 70 empty empty ARGOPdMiniModules 3 10 1 14 -4033
-1 1.04858e+06;
#X obj 26 26 cnv 10 10 10 empty empty Gerard 0 5 1 11 -4033 -1 1.04858e+06
;
#X obj 64 26 cnv 10 10 10 empty empty Paresys 0 5 1 11 -4033 -1 1.04858e+06
;
#X obj 7 37 pddp/pddplink http://gerard.paresys.free.fr/ARGOPd/;
#X text 8 85 Construit sous / Build under Pd 0.43.4-extended;
#X obj 8 111 pddp/pddplink http://puredata.info/downloads/pd-extended
;
#X obj 7 50 pddp/pddplink http://paresys.pagesperso-orange.fr/ARGOPd/
;
#X text 7 98 or Pd-0.46-7 + deken;
#X restore 277 348 pd ?.;
#X connect 3 0 4 0;
#X connect 4 0 1 0;
#X connect 5 0 15 0;
#X connect 5 0 23 0;
#X connect 11 0 12 0;
#X connect 12 0 10 0;
#X connect 13 0 5 0;
#X connect 15 0 16 0;
#X connect 16 0 17 0;
#X connect 16 1 21 0;
#X connect 16 1 22 0;
#X connect 17 0 21 0;
#X connect 17 0 25 0;
#X connect 18 0 19 0;
#X connect 19 0 5 0;
#X connect 19 1 17 0;
#X connect 20 0 12 1;
#X connect 20 0 4 1;
#X connect 21 0 20 0;
#X connect 22 0 18 0;
#X connect 23 0 25 0;
#X connect 25 0 13 0;
#X coords 0 -1 1 1 118 36 1 100 100;
#X restore 145 270 pd ARGO;
#N canvas 286 45 728 239 ARGO 0;
#X obj 239 36 inlet~;
#X text 77 17 Left input;
#X text 224 17 Right input;
#X text 356 37 Stereo wav file format recorder;
#X text 356 52 Enregistreur de fichier audio wav à 2 canaux (stereo)
;
#X obj 88 36 inlet~;
#X obj 171 198 writesf~ 2;
#X text 356 67 L'extension .wav est ajoutée au nom du fichier automatiquement
;
#X obj 103 100 hsl 161 17 0 127 0 0 \$0-A \$0-B Record. 103 10 1 14
-261299 -261299 -1 0 1;
#X obj 255 101 cnv 4 10 4 empty empty empty 20 12 0 14 -1 -66577 0
;
#X obj 101 101 cnv 4 10 4 empty empty empty 20 12 0 14 -1 -66577 0
;
#X obj 112 100 nbx 4 17 0 9999 0 0 \$0-A ColorTime sec 59 9 1 15 -208064
-1 -1 0 256;
#X text 355 103 Clic n'importe où pour commencer un enregistrement
Audio -> Clic encore pour arrêter l'enregistrement;
#X text 456 130 Click anywhere to start recording Audio ->;
#X text 455 142 Click again to stop recording;
#X text 121 122 Hslider caché transformé en bouton;
#N canvas 415 66 351 399 record2 0;
#X obj 136 95 sel 0 1;
#X msg 171 260 start;
#X msg 107 259 stop;
#X msg 155 150 open \$1;
#X obj 155 126 savepanel;
#X obj 165 203 delay 1000;
#X obj 245 323 float;
#X obj 291 322 + 1;
#X obj 223 295 metro 1000;
#X msg 291 296 -1;
#X msg 11 257 0;
#X msg 42 257 1;
#X obj 66 210 t b b;
#X obj 165 229 t b b b b;
#N canvas 317 143 290 366 CouleurRecord2 0;
#X obj 122 -19 +;
#X obj 122 37 +;
#X obj 61 -75 * -65536;
#X obj 117 -75 * -256;
#X obj 163 -77 * -1;
#X obj 122 68 - 1;
#X obj 115 -202 inlet;
#X text 77 -97 R;
#X text 123 -99 G;
#X text 172 -98 B;
#X obj 122 123 outlet;
#X text 170 -169 Rouge;
#X msg 134 -121 255;
#X msg 167 -121 0;
#X obj 115 -178 sel 0 1;
#X text 56 -170 Rose;
#X msg 73 -121 200;
#X msg 40 -121 252;
#X obj 134 -148 t b b b;
#X msg 198 -121 0;
#X msg 104 -121 200;
#X obj 40 -148 t b b b;
#X msg 122 96 color \$1 \$1 -1;
#X connect 0 0 1 1;
#X connect 1 0 5 0;
#X connect 2 0 1 0;
#X connect 3 0 0 0;
#X connect 4 0 0 1;
#X connect 5 0 22 0;
#X connect 6 0 14 0;
#X connect 12 0 2 0;
#X connect 13 0 3 0;
#X connect 14 0 21 0;
#X connect 14 1 18 0;
#X connect 16 0 3 0;
#X connect 17 0 2 0;
#X connect 18 0 12 0;
#X connect 18 1 13 0;
#X connect 18 2 19 0;
#X connect 19 0 4 0;
#X connect 20 0 4 0;
#X connect 21 0 17 0;
#X connect 21 1 16 0;
#X connect 21 2 20 0;
#X connect 22 0 10 0;
#X restore 25 326 pd CouleurRecord2;
#X obj 136 75 tgl 15 0 \$0-A \$0-B empty 19 9 1 12 -262144 -258113
-1 0 1;
#X obj 136 30 b;
#X obj 136 52 delay 200;
#X obj 136 8 inlet;
#X obj 25 356 outlet;
#X text 22 372 Couleur;
#X obj 291 356 outlet;
#X text 288 372 Compteur;
#X obj 155 356 outlet;
#X text 152 372 writesf;
#X obj 199 176 t b b;
#X msg 72 33 0;
#X obj 72 8 loadbang;
#X msg 260 124 set 0;
#X msg 261 173 set 1;
#X obj 261 149 b;
#X connect 0 0 12 0;
#X connect 0 1 4 0;
#X connect 0 1 28 0;
#X connect 1 0 23 0;
#X connect 2 0 8 0;
#X connect 2 0 23 0;
#X connect 3 0 23 0;
#X connect 3 0 25 0;
#X connect 4 0 3 0;
#X connect 4 0 30 0;
#X connect 5 0 13 0;
#X connect 6 0 7 0;
#X connect 7 0 6 1;
#X connect 7 0 21 0;
#X connect 8 0 6 0;
#X connect 9 0 7 0;
#X connect 10 0 14 0;
#X connect 11 0 14 0;
#X connect 12 0 10 0;
#X connect 12 1 2 0;
#X connect 13 0 11 0;
#X connect 13 1 1 0;
#X connect 13 2 8 0;
#X connect 13 3 9 0;
#X connect 14 0 19 0;
#X connect 15 0 0 0;
#X connect 16 0 17 0;
#X connect 17 0 15 0;
#X connect 18 0 16 0;
#X connect 25 0 5 0;
#X connect 25 1 9 0;
#X connect 26 0 15 0;
#X connect 27 0 26 0;
#X connect 28 0 15 0;
#X connect 29 0 15 0;
#X connect 30 0 29 0;
#X restore 56 147 pd record2;
#X obj 636 186 cnv 15 42 25 empty empty empty 20 12 0 14 -24198 -66577
0;
#N canvas 336 174 309 137 ?. 0;
#X obj 3 83 cnv 15 300 46 empty empty empty 20 12 0 14 -224896 -66577
0;
#X obj 3 6 cnv 18 300 70 empty empty ARGOPdMiniModules 3 10 1 14 -4033
-1 1.04858e+06;
#X obj 26 26 cnv 10 10 10 empty empty Gerard 0 5 1 11 -4033 -1 1.04858e+06
;
#X obj 64 26 cnv 10 10 10 empty empty Paresys 0 5 1 11 -4033 -1 1.04858e+06
;
#X obj 7 37 pddp/pddplink http://gerard.paresys.free.fr/ARGOPd/;
#X text 8 85 Construit sous / Build under Pd 0.43.4-extended;
#X obj 8 111 pddp/pddplink http://puredata.info/downloads/pd-extended
;
#X obj 7 50 pddp/pddplink http://paresys.pagesperso-orange.fr/ARGOPd/
;
#X text 7 98 or Pd-0.46-7 + deken;
#X restore 640 190 pd ?.;
#X text 175 81 7 3 2016;
#X connect 0 0 6 1;
#X connect 5 0 6 0;
#X connect 8 0 16 0;
#X connect 16 0 8 0;
#X connect 16 1 6 0;
#X connect 16 2 11 0;
#X coords 0 -1 1 1 166 17 1 100 100;
#X restore 9 404 pd ARGO;
#N canvas 446 64 251 267 ARGO 0;
#X obj 101 104 cnv 30 49 130 empty ColorAmpli empty 20 12 0 14 -1 -258113
0;
#X obj 102 110 vu 8 120 \$0-B empty 0 0 1 11 -1 -4034 0 0;
#X obj 49 35 inlet~;
#X obj 22 108 cnv 15 60 30 empty empty empty 20 12 0 14 -24198 -66577
0;
#N canvas 300 65 442 264 Help 0;
#X obj 12 48 cnv 15 400 150 empty empty empty 20 12 0 14 -233017 -66577
0;
#X text 16 50 Citation;
#X text 28 67 peakamp~ tracks and outputs the absolute value of the
peak amplitude of the incoming signal. It outputs when banged or using
its own internal clock. The peak value is reset each time peakamp~
outputs a value.;
#X text 29 123 cyclone library;
#X text 28 135 http://suita.chopin.edu.pl/~czaja/miXed/externs/cyclone.html
;
#X text 29 155 Voir doc Max/MSP MSP46ReferenceManual.pdf;
#X text 18 14 MM-Vumetre;
#X restore 29 114 pd Help;
#N canvas 541 112 317 265 VuMetre 0;
#X obj 48 19 inlet~;
#X obj 41 54 *~;
#X obj -25 132 snapshot~;
#X obj -25 155 sqrt;
#X obj -25 100 lop~ 10;
#X obj -25 179 rmstodb;
#X obj -88 19 loadbang;
#X obj -25 202 - 100;
#X obj 58 156 sqrt;
#X obj 58 180 rmstodb;
#X obj 58 203 - 100;
#X obj -89 102 metro 200;
#X obj -28 19 r SendFluid;
#X obj 58 102 cyclone/peakamp~ 1000;
#X obj -25 228 outlet;
#X obj 58 227 outlet;
#X connect 0 0 1 0;
#X connect 0 0 1 1;
#X connect 1 0 4 0;
#X connect 1 0 13 0;
#X connect 2 0 3 0;
#X connect 3 0 5 0;
#X connect 4 0 2 0;
#X connect 5 0 7 0;
#X connect 6 0 11 0;
#X connect 7 0 14 0;
#X connect 8 0 9 0;
#X connect 9 0 10 0;
#X connect 10 0 15 0;
#X connect 11 0 2 0;
#X connect 12 0 11 1;
#X connect 13 0 8 0;
#X restore 49 63 pd VuMetre;
#X obj 172 211 cnv 15 42 25 empty empty empty 20 12 0 14 -24198 -66577
0;
#N canvas 336 174 309 137 ?. 0;
#X obj 3 83 cnv 15 300 46 empty empty empty 20 12 0 14 -224896 -66577
0;
#X obj 3 6 cnv 18 300 70 empty empty ARGOPdMiniModules 3 10 1 14 -4033
-1 1.04858e+06;
#X obj 26 26 cnv 10 10 10 empty empty Gerard 0 5 1 11 -4033 -1 1.04858e+06
;
#X obj 64 26 cnv 10 10 10 empty empty Paresys 0 5 1 11 -4033 -1 1.04858e+06
;
#X obj 7 37 pddp/pddplink http://gerard.paresys.free.fr/ARGOPd/;
#X text 8 85 Construit sous / Build under Pd 0.43.4-extended;
#X obj 8 111 pddp/pddplink http://puredata.info/downloads/pd-extended
;
#X obj 7 50 pddp/pddplink http://paresys.pagesperso-orange.fr/ARGOPd/
;
#X text 7 98 or Pd-0.46-7 + deken;
#X restore 176 215 pd ?.;
#X obj 113 110 vu 8 120 \$0-B empty 0 0 1 11 -1 -4034 1 0;
#X obj 126 35 inlet~;
#N canvas 541 112 317 265 VuMetre 0;
#X obj 48 19 inlet~;
#X obj 41 54 *~;
#X obj -25 132 snapshot~;
#X obj -25 155 sqrt;
#X obj -25 100 lop~ 10;
#X obj -25 179 rmstodb;
#X obj -88 19 loadbang;
#X obj -25 202 - 100;
#X obj 58 156 sqrt;
#X obj 58 180 rmstodb;
#X obj 58 203 - 100;
#X obj -89 102 metro 200;
#X obj -28 19 r SendFluid;
#X obj 58 102 cyclone/peakamp~ 1000;
#X obj -25 228 outlet;
#X obj 58 227 outlet;
#X connect 0 0 1 0;
#X connect 0 0 1 1;
#X connect 1 0 4 0;
#X connect 1 0 13 0;
#X connect 2 0 3 0;
#X connect 3 0 5 0;
#X connect 4 0 2 0;
#X connect 5 0 7 0;
#X connect 6 0 11 0;
#X connect 7 0 14 0;
#X connect 8 0 9 0;
#X connect 9 0 10 0;
#X connect 10 0 15 0;
#X connect 11 0 2 0;
#X connect 12 0 11 1;
#X connect 13 0 8 0;
#X restore 126 63 pd VuMetre;
#X text 153 87 3 3 2019;
#X connect 2 0 5 0;
#X connect 5 0 1 0;
#X connect 5 1 1 1;
#X connect 9 0 10 0;
#X connect 10 0 8 0;
#X connect 10 1 8 1;
#X coords 0 -1 1 1 51 135 2 100 100;
#X restore 270 327 pd ARGO;
#X obj 479 438 cnv 15 52 22 empty empty empty 20 12 0 14 -24198 -66577
0;
#N canvas 353 174 321 152 ?... 0;
#X obj 8 84 cnv 15 300 56 empty empty empty 20 12 0 14 -224896 -66577
0;
#X obj 8 7 cnv 18 300 70 empty empty ARGOPdMiniModules 3 10 1 14 -4033
-1 1.04858e+06;
#X obj 31 27 cnv 10 10 10 empty empty Gerard 0 5 1 11 -4033 -1 1.04858e+06
;
#X obj 69 27 cnv 10 10 10 empty empty Paresys 0 5 1 11 -4033 -1 1.04858e+06
;
#X obj 12 40 pddp/pddplink http://gerard.paresys.free.fr/ARGOPd/;
#X obj 13 121 pddp/pddplink http://puredata.info/downloads/pd-extended
;
#X obj 13 97 pddp/pddplink http://puredata.info/downloads/pure-data
;
#X text 13 85 Construit sous / Build under Pd-0.49...;
#X text 12 109 or Pd 0.43.4-extended;
#X obj 12 53 pddp/pddplink https://paresys.pagesperso-orange.fr/ARGOPd/
;
#X restore 482 441 pd ?...;
#X text 10 233 On: smooths the peaks ->;
#X text 4 243 On: adoucit les crêtes ->;
#N canvas 416 45 303 292 ARGO 0;
#X obj 84 251 outlet~;
#X obj 84 56 inlet~;
#X obj 101 101 cnv 12 93 15 empty ColorAmpli Tanh. 47 9 1 14 -261299
-1 1.04858e+06;
#X obj 101 112 cnv 4 10 4 empty empty empty 20 12 0 14 -1 -66577 0
;
#X obj 101 101 cnv 4 10 4 empty empty empty 20 12 0 14 -1 -66577 0
;
#X obj 84 204 cyclone/tanh~;
#X obj 14 57 cnv 15 60 30 empty empty empty 20 12 0 14 -24198 -66577
0;
#N canvas 254 158 427 320 Help 0;
#X obj 10 9 cnv 15 400 290 empty empty empty 20 12 0 14 -233017 -66577
0;
#X text 13 8 Citation;
#X text 29 34 cyclone library;
#X text 29 46 calculate hyperbolic tangent function;
#X text 29 23 tanh~;
#X text 29 168 cf doc Max/MSP -> MSP46ReferenceManual.pdf;
#X text 29 94 outputs signal values always between -1 and 1;
#X text 29 114 turn a sine wave into a square wave by cranking up the
volume!;
#X text 29 63 can be used to simulate analog distortion \, and is much
"smoother" than using clip~;
#X obj 29 146 pddp/pddplink http://suita.chopin.edu.pl/~czaja/miXed/externs/cyclone.html
;
#X restore 21 63 pd Help;
#X obj 184 112 cnv 4 10 4 empty empty empty 20 12 0 14 -1 -66577 0
;
#X obj 184 101 cnv 4 10 4 empty empty empty 20 12 0 14 -1 -66577 0
;
#X obj 177 251 outlet~;
#X obj 177 56 inlet~;
#X obj 177 204 cyclone/tanh~;
#X obj 84 178 *~;
#X obj 116 103 tgl 12 1 \$0-A \$0-B On 15 6 1 10 -262144 -1 -1 1 1
;
#X obj 117 143 == 0;
#X obj 177 179 *~;
#X obj 56 178 *~;
#X obj 209 180 *~;
#X obj 231 246 cnv 15 52 22 empty empty empty 20 12 0 14 -24198 -66577
0;
#N canvas 353 174 321 152 ?... 0;
#X obj 8 84 cnv 15 300 56 empty empty empty 20 12 0 14 -224896 -66577
0;
#X obj 8 7 cnv 18 300 70 empty empty ARGOPdMiniModules 3 10 1 14 -4033
-1 1.04858e+06;
#X obj 31 27 cnv 10 10 10 empty empty Gerard 0 5 1 11 -4033 -1 1.04858e+06
;
#X obj 69 27 cnv 10 10 10 empty empty Paresys 0 5 1 11 -4033 -1 1.04858e+06
;
#X obj 12 40 pddp/pddplink http://gerard.paresys.free.fr/ARGOPd/;
#X obj 13 121 pddp/pddplink http://puredata.info/downloads/pd-extended
;
#X obj 13 97 pddp/pddplink http://puredata.info/downloads/pure-data
;
#X text 13 85 Construit sous / Build under Pd-0.49...;
#X text 12 109 or Pd 0.43.4-extended;
#X obj 12 53 pddp/pddplink https://paresys.pagesperso-orange.fr/ARGOPd/
;
#X restore 234 249 pd ?...;
#X text 112 85 24 8 2019;
#X connect 1 0 13 0;
#X connect 1 0 17 0;
#X connect 5 0 0 0;
#X connect 11 0 16 0;
#X connect 11 0 18 0;
#X connect 12 0 10 0;
#X connect 13 0 5 0;
#X connect 14 0 13 1;
#X connect 14 0 15 0;
#X connect 14 0 16 1;
#X connect 15 0 17 1;
#X connect 15 0 18 1;
#X connect 16 0 12 0;
#X connect 17 0 0 0;
#X connect 18 0 10 0;
#X coords 0 -1 1 1 95 17 2 100 100;
#X restore 158 237 pd ARGO;
#N canvas 255 35 367 262 ARGO 0;
#X obj 272 45 cnv 15 60 30 empty empty empty 20 12 0 14 -24198 -66577
0;
#N canvas 424 180 418 133 Help 0;
#X text 10 51 Un "Bang" sort chaque X msec.;
#X text 8 83 A "Bang" outputs every X msec.;
#X restore 279 51 pd Help;
#X obj 95 198 cnv 15 170 24 empty empty empty 20 12 0 14 -261682 -66577
0;
#X obj 100 202 outlet;
#X obj 101 101 cnv 10 132 36 empty ColorForm Oscill. 80 9 1 14 -208064
-1 1.04858e+06;
#X obj 100 125 bng 12 50 50 0 \$0-A \$0-B empty 14 6 1 9 -262144 -1
-1;
#X obj 101 133 cnv 4 10 4 empty empty empty 20 12 0 14 -260097 -66577
0;
#X obj 100 113 nbx 6 12 1 999999 0 1 \$0-A ColorTime ms 40 17 1 9 -208064
-1 -1 30 256;
#X text 146 206 -> Bang;
#X text 145 196 -> Bang;
#X obj 100 100 tgl 12 1 \$0-A \$0-B empty 17 7 0 10 -262144 -1 -1 1
1;
#X obj 68 8 cnv 15 90 60 empty empty empty 20 12 0 14 -261682 -66577
0;
#X obj 101 101 cnv 4 10 4 empty empty empty 20 12 0 14 -260097 -66577
0;
#X obj 28 145 metro 300;
#X obj 223 101 cnv 4 10 4 empty empty empty 20 12 0 14 -260097 -66577
0;
#X obj 215 45 inlet;
#X text 238 95 <- ms;
#X obj 270 202 cnv 15 52 22 empty empty empty 20 12 0 14 -24198 -66577
0;
#N canvas 353 174 321 152 ?... 0;
#X obj 8 84 cnv 15 300 56 empty empty empty 20 12 0 14 -224896 -66577
0;
#X obj 8 7 cnv 18 300 70 empty empty ARGOPdMiniModules 3 10 1 14 -4033
-1 1.04858e+06;
#X obj 31 27 cnv 10 10 10 empty empty Gerard 0 5 1 11 -4033 -1 1.04858e+06
;
#X obj 69 27 cnv 10 10 10 empty empty Paresys 0 5 1 11 -4033 -1 1.04858e+06
;
#X obj 12 40 pddp/pddplink http://gerard.paresys.free.fr/ARGOPd/;
#X obj 13 121 pddp/pddplink http://puredata.info/downloads/pd-extended
;
#X obj 13 97 pddp/pddplink http://puredata.info/downloads/pure-data
;
#X text 13 85 Construit sous / Build under Pd-0.49...;
#X text 12 109 or Pd 0.43.4-extended;
#X obj 12 53 pddp/pddplink https://paresys.pagesperso-orange.fr/ARGOPd/
;
#X restore 273 205 pd ?...;
#X text 177 83 21 8 2019;
#X text 89 10 1: Play;
#X text 89 20 0: Stop;
#X text 71 30 bang: Change;
#X obj 100 45 inlet;
#X text 222 26 ms;
#X connect 5 0 3 0;
#X connect 7 0 13 1;
#X connect 10 0 13 0;
#X connect 13 0 5 0;
#X connect 15 0 7 0;
#X connect 23 0 10 0;
#X coords 0 -1 1 1 134 38 2 100 100;
#X restore 269 128 pd ARGO;
#N canvas 114 395 558 385 ARGO 0;
#X obj 261 100 rfft~;
#X msg 23 131 slide 10 10;
#X msg 381 130 range 0 512 \, 2 \, bufsize 512;
#X obj 261 27 inlet~;
#X msg 4 158 slide 1 1;
#X obj 103 131 *~ 0.361;
#X obj 201 201 cnv 12 196 34 empty empty empty 20 12 0 14 -262144 -1
1.04858e+06;
#X obj 269 205 cnv 10 44 10 empty empty Spectrum(2kHz/div). 1 5 1 14
-262144 -1 1.04858e+06;
#X obj 201 201 cnv 4 10 4 empty empty empty 20 12 0 14 -1 -66577 0
;
#X obj 231 206 tgl 12 1 \$0-SendLoop \$0-ReceiveLoop Gliss 15 6 1 9
-262144 -1 -1 1 1;
#X obj 4 104 sel 0 1;
#X msg 380 86 frgb 255 0 0;
#X msg 381 108 brgb 255 255 255;
#X obj 261 78 *~ 10;
#X obj 103 173 cyclone/vectral~ 1024;
#X obj 103 99 cyclone/count~ 0 1024 1 1;
#X obj 261 127 cyclone/cartopol~;
#X obj 201 220 cyclone/scope~ 198 129 4 3 256 0 512 0 0 0 0 255 0 0
255 252 255 0 98 102 0 empty;
#X obj 423 205 cnv 15 100 70 empty empty empty 20 12 0 14 -24198 -66577
0;
#X text 446 207 library:;
#X text 427 218 pddp;
#X text 427 231 cyclone;
#X obj 200 206 tgl 12 1 \$0-A \$0-B On 15 7 1 9 -262144 -1 -1 1 1;
#X obj 116 361 switch~ 1024 1 1;
#X msg 382 151 range 0 512 \, 4 \, bufsize 256;
#X msg 385 172 range 0 512 \, 8 \, bufsize 128;
#X obj 57 231 cnv 15 60 30 empty empty empty 20 12 0 14 -24198 -66577
0;
#N canvas 391 109 410 134 Help 0;
#X text 37 57 Voir MSP46ReferenceManual.pdf;
#X text 38 20 Spectrum;
#X text 37 41 utilise l'objet scope~ de la library cyclone;
#X restore 64 237 pd Help;
#X text 129 222 18 3 2021;
#X obj 498 336 cnv 15 34 16 empty empty empty 20 12 0 14 -24198 -66577
0;
#N canvas 353 174 333 161 ?? 0;
#X obj 17 89 cnv 15 300 56 empty empty empty 20 12 0 14 -224896 -66577
0;
#X obj 17 12 cnv 18 300 70 empty empty ARGOPdMiniModules 3 10 1 14
-4033 -1 1.04858e+06;
#X obj 40 32 cnv 10 10 10 empty empty Gerard 0 5 1 11 -4033 -1 1.04858e+06
;
#X obj 78 32 cnv 10 10 10 empty empty Paresys 0 5 1 11 -4033 -1 1.04858e+06
;
#X obj 20 54 pddp/pddplink http://gerard.paresys.free.fr/ARGOPd/;
#X obj 22 126 pddp/pddplink http://puredata.info/downloads/pd-extended
;
#X obj 22 102 pddp/pddplink http://puredata.info/downloads/pure-data
;
#X text 22 90 Construit sous / Build under Pd-0.49...;
#X text 21 114 or Pd 0.43.4-extended;
#X obj 20 66 pddp/pddplink https://paresys.pagesperso-orange.fr/ARGOPd/
;
#X obj 20 42 pddp/pddplink https://github.com/gerardparesys/ARGOPd
;
#X restore 498 336 pd ??;
#X connect 0 0 16 0;
#X connect 0 1 16 1;
#X connect 1 0 14 0;
#X connect 2 0 17 0;
#X connect 3 0 13 0;
#X connect 4 0 14 0;
#X connect 5 0 14 0;
#X connect 9 0 10 0;
#X connect 10 0 4 0;
#X connect 10 1 1 0;
#X connect 11 0 17 0;
#X connect 12 0 17 0;
#X connect 13 0 0 0;
#X connect 14 0 17 0;
#X connect 15 0 14 1;
#X connect 15 0 5 0;
#X connect 16 0 14 2;
#X connect 22 0 23 0;
#X connect 24 0 17 0;
#X connect 25 0 17 0;
#X coords 0 -1 1 1 200 150 2 200 200;
#X restore 328 282 pd ARGO;
#X connect 3 0 6 0;
#X connect 4 0 3 0;
#X connect 4 1 3 0;
#X connect 6 0 27 0;
#X connect 6 0 29 0;
#X connect 6 1 27 1;
#X connect 6 1 29 0;
#X connect 15 0 14 0;
#X connect 20 0 7 0;
#X connect 20 0 21 0;
#X connect 20 0 22 0;
#X connect 20 1 7 1;
#X connect 20 1 21 1;
#X connect 20 1 22 1;
#X connect 27 0 20 0;
#X connect 27 1 20 1;
#X connect 28 0 6 1;
