#N canvas 522 44 487 446 10;
#X obj 9 7 cnv 15 15 15 empty empty ExMM98d-PitchShift-Stereo.pd 0
8 1 14 -262144 -1 0;
#X obj 31 82 switch~;
#N canvas 608 166 228 173 ARGOnOff 0;
#X obj 100 100 tgl 18 1 \$0-SendOnOff \$0-ReceiveOnOff On/Off 20 11
1 14 -4033 -1 -1 1 1;
#X obj 99 10 loadbang;
#X msg 99 33 \; pd dsp 1;
#X obj 100 129 outlet;
#X text -50 99 Audio On/Off du patch ->;
#X text -22 45 Audio General On ->;
#X text 107 82 17 3 2010;
#X connect 0 0 3 0;
#X connect 1 0 2 0;
#X coords 0 -1 1 1 65 18 2 100 100;
#X restore 31 64 pd ARGOnOff;
#X text 36 48 V;
#X text 36 41 |;
#X text 24 30 On/Off Patch;
#N canvas 413 140 402 279 ARGO 0;
#X obj 101 101 cnv 10 95 41 \$0-A \$0-B empty 20 12 0 14 -1 -1 1.04858e+06
;
#X obj 101 109 nbx 4 12 0 1e+37 0 0 \$0 \$0-ReceiveCpuPeak CPUPeak
45 7 1 11 -24198 -1 -24198 6 256;
#X obj 101 122 nbx 4 12 0 1e+37 0 0 \$0 \$0-ReceiveCpuMean CPUMean
45 7 1 11 -24198 -1 -24198 5.91 256;
#X obj 145 -55 cputime;
#X obj 145 -76 t b b;
#X text 188 24 (c) musil@iem.kug.ac.at;
#X text 230 37 IEM KUG;
#X text 78 18 CPU-load;
#X obj 144 -125 loadbang;
#X text 205 48 graz \, austria 2001;
#X obj 145 -100 metro 500;
#X obj 145 -34 * 0.2;
#X text 237 -88 -dsp-load in %;
#X text 228 -101 measure average- and peak-;
#X obj 37 18 * 100;
#X obj 37 63 int;
#X obj 37 41 + 0.499;
#X obj 37 86 * 0.01;
#N canvas 524 162 422 273 1p1zmodif 0;
#X text 134 89 (c) musil@iem.kug.ac.at;
#X text 179 99 IEM KUG;
#X obj 14 195 +;
#X text 151 108 graz \, austria 2001;
#X text 135 71 y[n] = a0*x[n] + a1*x[n-1] + b1*y[n-1];
#X text 18 13 x[n];
#X text 16 244 y[n];
#X text 84 111 y[n-1];
#X text 134 56 <float> control-IIR-filter 1.order;
#X obj 15 28 inlet;
#X obj 14 228 outlet;
#X obj 15 112 * 0.1;
#X obj 59 156 * 0.9;
#X text 139 144 a1 = 0;
#X text 139 155 b1 = 0.9;
#X text 139 133 a0 = 0.1;
#X obj 15 50 t f b;
#X text 135 40 Inspiré de 1p1z;
#X obj 59 112 f 0;
#X connect 2 0 10 0;
#X connect 2 0 18 1;
#X connect 9 0 16 0;
#X connect 11 0 2 0;
#X connect 12 0 2 1;
#X connect 16 0 11 0;
#X connect 16 1 18 0;
#X connect 18 0 12 0;
#X restore 37 -8 pd 1p1zmodif;
#X text 146 9 Inspiré de 5.reference/iemabs/help-dsp.pd;
#X text 141 83 25 3 2010;
#X connect 3 0 11 0;
#X connect 4 0 3 0;
#X connect 4 1 3 1;
#X connect 8 0 10 0;
#X connect 10 0 4 0;
#X connect 11 0 18 0;
#X connect 11 0 1 0;
#X connect 14 0 16 0;
#X connect 15 0 17 0;
#X connect 16 0 15 0;
#X connect 17 0 2 0;
#X connect 18 0 14 0;
#X coords 0 -1 1 1 97 43 1 100 100;
#X restore 365 287 pd ARGO;
#X text 236 134 <- Adjust;
#N canvas 293 120 776 424 ARGO 0;
#X obj 319 104 cnv 10 20 10 empty empty Audio-Play. 1 5 1 14 -262144
-1 1.04858e+06;
#X obj 101 131 cnv 4 10 4 empty empty empty 20 12 0 14 -1 -66577 0
;
#X obj 111 317 outlet~;
#X obj -14 44 openpanel;
#X msg 25 100 set \$1;
#X obj -67 -45 loadbang;
#X text 14 260 avec espace;
#X obj 194 101 tgl 12 1 \$0-A \$0-B Play-0.3sec 14 6 1 9 -262144 -1
-1 1 1;
#X obj 158 101 bng 12 250 50 0 \$0-A \$0-B Stop 14 6 1 9 -262144 -1
-1;
#X obj 121 101 tgl 12 1 \$0-A \$0-B Loop 14 6 1 9 -262144 -1 -1 1 1
;
#X obj 100 101 bng 12 250 50 0 \$0-A \$0-B empty 14 6 1 9 -262144 -1
-1;
#X obj -14 22 bang;
#X obj -5 146 cnv 15 400 50 empty empty empty 20 12 0 14 -260097 -66577
0;
#X text -3 145 Nom du fichier / File name;
#X obj 101 101 cnv 4 10 4 empty empty empty 20 12 0 14 -260097 -66577
0;
#X obj 388 123 bng 12 50 20 0 \$0-A \$0-B empty 0 0 1 9 -262144 -1
-1;
#X obj 389 131 cnv 4 10 4 empty empty empty 20 12 0 14 -260097 -66577
0;
#X obj -7 -48 cnv 15 240 24 empty empty empty 20 12 0 14 -261682 -66577
0;
#X obj -6 -45 inlet;
#X obj 382 313 cnv 15 240 24 empty empty empty 20 12 0 14 -261682 -66577
0;
#X text 432 311 -> Bang à la fin du fichier;
#X text 433 321 -> Bang at the end of the file;
#X obj 387 317 outlet;
#X obj 97 -18 r \$0-SendOnOff;
#X obj 97 5 select 0;
#X obj 507 80 cnv 15 60 30 empty empty empty 20 12 0 14 -24198 -66577
0;
#N canvas 274 41 583 622 Help 0;
#X obj 15 147 cnv 15 400 100 empty empty empty 20 12 0 14 -233017 -66577
0;
#X text 18 146 Citation;
#X obj 14 392 cnv 15 550 310 empty empty empty 20 12 0 14 -258113 -66577
0;
#X text 26 399 - Ne lit pas un fichier au format mp3 \, SoundDesigner
II (.SDII ou .SD2);
#X text 29 499 Solution: ouvrir puis sauver le fichier au format aiff
avec Audacity;
#X text 42 486 error: dsp: xxx.aiff: unknown or bad header format;
#X text 37 162 READSF~ - read a soundfile;
#X text 36 180 The wave \, aiff \, and nextstep formats are parsed
automatically \, although only 2- 3- and 4- byte samples are accepted
(4 bytes implies floating point and is not available in aiff format.)
;
#X text 19 254 - Si le Patch est sauvé avec 1 Player contenant un nom
de fichier Audio \, ce fichier sera lu automatiquement à la prochaine
ouverture s'il n'a pas changé d'emplacement.;
#X text 27 538 - ATTENTION Le taux d'échantillonnage de la lecture
du fichier dépends du taux d'échantillonnage de Pd.;
#X text 39 565 Si le taux d'échantillonnage de Pd est de 44100 (Menu
Preferences -> Audio Settings...) \, les fichiers échantillonnés à
44100 Hz sont lus correctement \, sinon ils sont transposés.;
#X text 18 300 - Peut Ouvrir automatiquement 1 fichier qui se trouve
dans le même dossier que lui \, quelquesoit l'emplacement du dossier.
Pour cela ouvrir le module et taper le nom du fichier (sans chemin
d'accés) dans le message. Le dossier contenant le patch et le fichier
Audio est ainsi transportable.;
#X text 27 447 - Ne lit pas un fichier au format aiff "Entier petit
boutien" comme les pistes d'un CD Audio copiées avec le finder du Mac.
Le message d'erreur s'affichent:;
#X text 5 4 MM Audio-Play;
#X text 199 622 WARNING The sample rate of the output depends on the
system sample rate of Pd:;
#X text 197 649 If the sample rate of Pd is set to 44100 \, files having
the sample rates of 44100 are correctly played \, other files will
be transposed.;
#X text 200 99 A Mono Audio file is read on the left output.;
#X text 30 37 Le canal d'un fichier Audio Mono est lu sur la sortie
1;
#X text 30 24 Lit un fichier Audio 1 canal au format aiff \, wav.;
#X text 30 50 Les canaux 2 \, 3... d'un fichier Audio de plus de 1
canal ne sont pas lus.;
#X text 199 72 Reads a 1 channel Audio file with aiff \, wav format..
;
#X text 200 113 Channels 1 \, 2... of an Audio file of more than 1
channel are not read.;
#X restore 514 86 pd Help;
#X obj -14 67 t b b s;
#X obj 389 101 cnv 4 10 4 empty empty empty 20 12 0 14 -260097 -66577
0;
#X obj 481 -48 cnv 15 200 24 empty empty empty 20 12 0 14 -261682 -66577
0;
#X obj 485 -45 inlet;
#X text 522 -50 <- Nom d'un fichier Audio;
#X text 523 -40 <- Name of an Audio file;
#X text 12 239 list2symbol pour;
#X text 12 250 les noms de fichier;
#X obj 293 101 cnv 4 10 4 empty empty empty 20 12 0 14 -260097 -66577
0;
#X obj 237 -48 cnv 15 240 24 empty empty empty 20 12 0 14 -261682 -66577
0;
#X obj 241 -45 inlet;
#X text 278 -50 <- Nom d'un fichier Audio + Play;
#X text 279 -40 <- Name of an Audio file + Play;
#X text 415 172 ../ before the name goes up one level;
#X text 31 -51 <- N'importe quel message -> Play;
#X text 31 -40 <- Any message -> Play;
#X obj 193 -19 cnv 15 100 24 empty empty empty 20 12 0 14 -261682 -66577
0;
#X obj 194 -16 inlet;
#X text 231 -22 <- 1 Play;
#X text 231 -11 <- 0 Stop;
#X obj 195 102 cnv 4 10 4 empty empty empty 20 12 0 14 -260097 -66577
0;
#N canvas 238 155 791 372 player 0;
#X msg 235 158 1;
#X msg 204 158 0;
#X msg 120 158 open \$1;
#X obj 189 93 t b b;
#X msg 321 95 set 0;
#X obj 188 59 sel 1 0;
#X obj 263 95 sel 1;
#X msg 276 158 set 1;
#X obj 263 56 f;
#X obj 188 34 f;
#X obj 235 295 outlet;
#X text 237 311 readsf;
#X obj 321 9 inlet;
#X text 323 -20 bang;
#X obj 321 295 outlet;
#X text 331 324 Play;
#X obj 253 9 inlet;
#X text 258 -8 Loop;
#X obj 127 9 inlet;
#X text 132 -9 Stop;
#X obj 15 9 inlet;
#X text 20 -8 Open;
#X text 144 324 Trig Decl;
#X text 157 311 bang;
#X obj 149 295 outlet;
#X text 305 -8 End of file;
#X obj 188 9 inlet;
#X text 193 -8 Play;
#X obj 68 295 outlet;
#X text 46 311 Nom du fichier;
#X text 52 324 File name;
#X text 57 -8 Trig Decl;
#X text 70 -20 bang;
#X obj 72 9 inlet;
#X obj 258 128 delay 2;
#X text 189 -20 Toggle;
#X text 327 311 Toggle;
#N canvas 448 247 285 285 chrono 0;
#X obj 65 116 metro 100;
#X obj 112 173 float;
#X obj 161 143 + 1;
#X msg 128 116 0;
#X obj 84 85 t b b;
#X obj 84 61 inlet;
#X obj 112 230 outlet;
#X obj 112 198 / 10;
#X text 82 14 chrono;
#X obj 218 61 inlet;
#X msg 218 88 0;
#X obj 161 117 * 10;
#X text 113 245 number;
#X text 80 39 Start;
#X text 218 41 Stop;
#X connect 0 0 1 0;
#X connect 1 0 7 0;
#X connect 2 0 1 1;
#X connect 3 0 1 0;
#X connect 4 0 0 0;
#X connect 4 1 3 0;
#X connect 5 0 4 0;
#X connect 7 0 6 0;
#X connect 7 0 11 0;
#X connect 9 0 10 0;
#X connect 10 0 0 0;
#X connect 11 0 2 0;
#X restore 331 199 pd chrono;
#X msg 330 264 label \$1;
#X obj 330 242 cyclone/tosymbol;
#X obj 331 221 cyclone/sprintf Play-%ssec;
#X connect 0 0 10 0;
#X connect 0 0 37 0;
#X connect 1 0 10 0;
#X connect 1 0 37 1;
#X connect 2 0 10 0;
#X connect 3 0 34 0;
#X connect 3 1 28 0;
#X connect 4 0 14 0;
#X connect 5 0 3 0;
#X connect 5 1 4 0;
#X connect 5 1 1 0;
#X connect 6 0 24 0;
#X connect 7 0 14 0;
#X connect 8 0 6 0;
#X connect 9 0 5 0;
#X connect 12 0 8 0;
#X connect 12 0 4 0;
#X connect 12 0 37 1;
#X connect 16 0 8 1;
#X connect 18 0 4 0;
#X connect 18 0 1 0;
#X connect 20 0 2 0;
#X connect 26 0 9 0;
#X connect 33 0 3 0;
#X connect 34 0 0 0;
#X connect 34 0 7 0;
#X connect 37 0 40 0;
#X connect 38 0 14 0;
#X connect 39 0 38 0;
#X connect 40 0 39 0;
#X restore 171 246 pd player;
#X obj 241 12 t b b a;
#X obj 485 12 t b b a;
#X text 397 160 <- ../ devant le nom remonte d'un dossier;
#X obj 0 201 zexy/list2symbol;
#X obj 280 52 zexy/list2symbol;
#X obj 103 116 hsl 279 14 0 127 0 0 \$0-A \$0-B empty -2 -8 0 10 -262144
-262144 -1 0 1;
#X symbolatom 100 116 47 0 0 0 - - -;
#X obj 629 314 cnv 15 42 25 empty empty empty 20 12 0 14 -24198 -66577
0;
#N canvas 336 174 309 137 ?. 0;
#X obj 3 83 cnv 15 300 46 empty empty empty 20 12 0 14 -224896 -66577
0;
#X obj 3 6 cnv 18 300 70 empty empty ARGOPdMiniModules 3 10 1 14 -4033
-1 1.04858e+06;
#X obj 26 26 cnv 10 10 10 empty empty Gerard 0 5 1 11 -4033 -1 1.04858e+06
;
#X obj 64 26 cnv 10 10 10 empty empty Paresys 0 5 1 11 -4033 -1 1.04858e+06
;
#X obj 7 37 pddp/pddplink http://gerard.paresys.free.fr/ARGOPd/;
#X text 8 85 Construit sous / Build under Pd 0.43.4-extended;
#X obj 8 111 pddp/pddplink http://puredata.info/downloads/pd-extended
;
#X obj 7 50 pddp/pddplink http://paresys.pagesperso-orange.fr/ARGOPd/
;
#X text 7 98 or Pd-0.46-7 + deken;
#X restore 633 318 pd ?.;
#X obj 214 274 readsf~;
#X text 403 96 29 3 2017;
#X msg 0 162 bell.aiff;
#X connect 3 0 27 0;
#X connect 4 0 60 0;
#X connect 5 0 60 0;
#X connect 7 0 48 3;
#X connect 8 0 48 2;
#X connect 9 0 48 4;
#X connect 10 0 48 1;
#X connect 11 0 3 0;
#X connect 15 0 22 0;
#X connect 18 0 10 0;
#X connect 23 0 24 0;
#X connect 24 0 8 0;
#X connect 27 0 48 3;
#X connect 27 1 60 0;
#X connect 27 2 4 0;
#X connect 30 0 50 0;
#X connect 37 0 49 0;
#X connect 44 0 7 0;
#X connect 48 0 60 0;
#X connect 48 1 10 0;
#X connect 48 2 58 0;
#X connect 48 3 7 0;
#X connect 49 0 10 0;
#X connect 49 1 60 0;
#X connect 49 2 53 0;
#X connect 50 0 48 2;
#X connect 50 1 60 0;
#X connect 50 2 53 0;
#X connect 52 0 48 0;
#X connect 52 0 55 0;
#X connect 53 0 4 0;
#X connect 54 0 11 0;
#X connect 58 0 2 0;
#X connect 58 1 48 5;
#X connect 58 1 15 0;
#X connect 60 0 52 0;
#X coords 0 -1 1 1 300 36 2 100 100;
#X restore 163 54 pd ARGO;
#N canvas 536 297 416 224 ARGO 0;
#X obj 101 101 cnv 20 148 46 empty ColorForm PitchShift. 50 11 1 14
-188398 -1 1.04858e+06;
#X obj 101 143 cnv 4 10 4 empty empty empty 20 12 0 14 -1 -66577 0
;
#X obj 90 50 inlet~;
#X obj 101 101 cnv 4 10 4 empty empty empty 20 12 0 14 -1 -66577 0
;
#X obj 90 184 outlet~;
#X obj 341 116 cnv 15 60 30 empty empty empty 20 12 0 14 -24198 -66577
0;
#N canvas 541 468 418 487 Help 0;
#X obj 8 36 cnv 15 400 360 empty empty empty 20 12 0 14 -233017 -66577
0;
#X text 11 38 Citation;
#X text 310 10 = Transposition;
#X text 8 13 PitchShift = Pitch shifting = Décalage en hauteur;
#X text 28 54 Voir: /doc/3.audio.examples/G09.pitchshift.pd;
#X text 26 314 The Theory and Technique of Electronic Music;
#X text 26 303 Voir:;
#X text 27 327 Miller Puckette;
#X text 48 341 7.9 Pitchshifting page 202;
#X text 71 353 Pitch shifter page 218;
#X text 26 71 This is a classic rotating-tape-head style pitch shifter
using the vd~ variable delay object. Ther are two moving tape heads
\, each of which is loudest at the middle of its trajectory \, and
enveloped out at the moment it has to jump back (or forward) to start
another scratch. Most of the brain work is in computing how fast the
tape heads have to move to get the desired transposition.;
#X text 25 170 The "window size" is the total trajectory of the read
points in the delay line \, in milliseconds. The delay times are controlled
by a phasor~ object. The second delay time \, 180 degrees out of phase
from the first one \, is computed using the "wrap" object.;
#X text 25 243 The cos~ objects compute the fadein and fadeout of the
two delay line outputs. They each traverse the positive half of the
cosine waveform (phase -0.25 to +0.25) over the time the phase goes
from one end to the other.;
#X text 7 431 Cela evite de devoir nommer la "delay line".;
#X text 6 448 Le MiniModule est ainsi duplicable et peux être présent
à 2 exemplaires dans un même patch.;
#X text 7 400 (delwrite~ G09-del 5000) + (vd~ G09-del) est remplacé
par (cyclone/comb~ 5000 0 0 1 0).;
#X obj 27 368 pddp/pddplink http://crca.ucsd.edu/%7Emsp/techniques/latest/book.pdf
;
#X restore 348 122 pd Help;
#X obj 103 118 hsl 145 12 -36 36 0 1 \$0-A ColorTime -5semitone 0 7
1 9 -208064 -1728 -1 6200 0;
#X obj 169 101 cnv 4 10 4 empty empty empty 20 12 0 14 -260097 -66577
0;
#N canvas 484 315 248 174 label 0;
#X obj 38 154 outlet;
#X obj 38 8 inlet;
#X msg 38 120 label \$1;
#X obj 38 35 expr (int(100 * $f1) / 100) \;;
#X obj 38 64 makefilename %ssemitone;
#X connect 1 0 3 0;
#X connect 2 0 0 0;
#X connect 3 0 4 0;
#X connect 4 0 2 0;
#X restore 25 104 pd label;
#X obj 149 47 cnv 15 100 24 empty empty empty 20 12 0 14 -261682 -66577
0;
#X text 149 44 Nombre ->;
#X text 149 54 Number ->;
#X obj 209 50 inlet;
#X obj 103 130 hsl 145 12 1 1000 1 1 \$0-A ColorTime 51ms 0 7 1 9 -208064
-1728 -1 8200 0;
#N canvas 501 238 171 165 label 0;
#X obj 30 134 outlet;
#X obj 30 15 inlet;
#X msg 30 100 label \$1;
#X obj 30 44 makefilename %dms;
#X connect 1 0 3 0;
#X connect 2 0 0 0;
#X connect 3 0 2 0;
#X restore 26 132 pd label;
#N canvas 385 341 770 515 PitchShift 0;
#X obj 54 41 inlet~;
#X obj 169 485 outlet~;
#X obj 112 41 inlet;
#X obj 311 41 inlet;
#X obj 92 287 *~;
#X obj 311 210 line~;
#X obj 311 110 pack 0 200;
#X obj 225 169 /;
#X obj 261 110 * 0.001;
#X obj 10 338 cos~;
#X obj 39 431 *~;
#X obj 225 256 wrap~;
#X obj 296 287 *~;
#X obj 225 338 cos~;
#X obj 225 431 *~;
#X obj 261 136 t b f;
#X obj 225 217 +~ 0.5;
#X obj 10 287 -~ 0.5;
#X obj 10 314 *~ 0.5;
#X obj 225 287 -~ 0.5;
#X obj 225 314 *~ 0.5;
#X text 97 22 (halftones);
#X text 136 162 tape head;
#X obj 225 194 phasor~;
#X obj 311 84 max 1;
#X text 137 175 rotation freq;
#X text 93 9 transposition;
#X text 285 16 window (msec);
#X msg 150 338 clear;
#X obj 54 404 cyclone/comb~ 5000 0 0 1 0;
#X obj 240 404 cyclone/comb~ 5000 0 0 1 0;
#X obj 92 338 +~ 2;
#X obj 296 338 +~ 2;
#X obj 588 41 inlet~;
#X obj 538 485 outlet~;
#X obj 408 431 *~;
#X obj 573 431 *~;
#X obj 423 404 cyclone/comb~ 5000 0 0 1 0;
#X obj 588 404 cyclone/comb~ 5000 0 0 1 0;
#X obj 112 83 expr - (exp($f1 * 0.05776) - 1);
#X connect 0 0 29 0;
#X connect 0 0 30 0;
#X connect 2 0 39 0;
#X connect 3 0 24 0;
#X connect 4 0 31 0;
#X connect 5 0 4 1;
#X connect 5 0 12 1;
#X connect 6 0 5 0;
#X connect 7 0 23 0;
#X connect 8 0 15 0;
#X connect 9 0 10 0;
#X connect 9 0 35 0;
#X connect 10 0 1 0;
#X connect 11 0 12 0;
#X connect 11 0 19 0;
#X connect 12 0 32 0;
#X connect 13 0 14 0;
#X connect 13 0 36 0;
#X connect 14 0 1 0;
#X connect 15 0 7 0;
#X connect 15 1 7 1;
#X connect 16 0 11 0;
#X connect 17 0 18 0;
#X connect 18 0 9 0;
#X connect 19 0 20 0;
#X connect 20 0 13 0;
#X connect 23 0 4 0;
#X connect 23 0 17 0;
#X connect 23 0 16 0;
#X connect 24 0 8 0;
#X connect 24 0 6 0;
#X connect 28 0 29 0;
#X connect 28 0 30 0;
#X connect 29 0 10 1;
#X connect 30 0 14 1;
#X connect 31 0 29 1;
#X connect 31 0 37 1;
#X connect 32 0 30 1;
#X connect 32 0 38 1;
#X connect 33 0 37 0;
#X connect 33 0 38 0;
#X connect 35 0 34 0;
#X connect 36 0 34 0;
#X connect 37 0 35 1;
#X connect 38 0 36 1;
#X connect 39 0 7 0;
#X restore 90 156 pd PitchShift;
#X f 29;
#X text 181 29 -36..+36 semitones;
#X obj 305 17 cnv 15 100 70 empty empty empty 20 12 0 14 -24198 -66577
0;
#X text 328 19 library:;
#X text 309 30 pddp;
#X text 309 41 cyclone;
#X obj 361 183 cnv 15 34 16 empty empty empty 20 12 0 14 -24198 -66577
0;
#N canvas 353 174 333 161 ?? 0;
#X obj 17 89 cnv 15 300 56 empty empty empty 20 12 0 14 -224896 -66577
0;
#X obj 17 12 cnv 18 300 70 empty empty ARGOPdMiniModules 3 10 1 14
-4033 -1 1.04858e+06;
#X obj 40 32 cnv 10 10 10 empty empty Gerard 0 5 1 11 -4033 -1 1.04858e+06
;
#X obj 78 32 cnv 10 10 10 empty empty Paresys 0 5 1 11 -4033 -1 1.04858e+06
;
#X obj 20 54 pddp/pddplink http://gerard.paresys.free.fr/ARGOPd/;
#X obj 22 126 pddp/pddplink http://puredata.info/downloads/pd-extended
;
#X obj 22 102 pddp/pddplink http://puredata.info/downloads/pure-data
;
#X text 22 90 Construit sous / Build under Pd-0.49...;
#X text 21 114 or Pd 0.43.4-extended;
#X obj 20 66 pddp/pddplink https://paresys.pagesperso-orange.fr/ARGOPd/
;
#X obj 20 42 pddp/pddplink https://github.com/gerardparesys/ARGOPd
;
#X restore 361 183 pd ??;
#X text 193 83 4 5 2021;
#X obj 261 50 inlet~;
#X obj 261 184 outlet~;
#X obj 239 143 cnv 4 10 4 empty empty empty 20 12 0 14 -1 -66577 0
;
#X obj 239 101 cnv 4 10 4 empty empty empty 20 12 0 14 -1 -66577 0
;
#X connect 2 0 16 0;
#X connect 7 0 9 0;
#X connect 7 0 16 1;
#X connect 9 0 7 0;
#X connect 13 0 7 0;
#X connect 14 0 15 0;
#X connect 14 0 16 2;
#X connect 15 0 14 0;
#X connect 16 0 4 0;
#X connect 16 1 26 0;
#X connect 25 0 16 3;
#X coords 0 -1 1 1 150 48 1 100 100;
#X restore 163 175 pd ARGO;
#X obj 195 135 nbx 3 14 -1e+37 1e+37 0 0 empty empty empty 0 -8 0 10
-262144 -1 -1 0 256;
#X obj 249 404 dac~ 1 2;
#X text 41 407 .wav file format recorder;
#X text 39 395 Enregistreur audio au format .wav;
#X text 75 244 Niveau general ->;
#X text 81 254 General level ->;
#X text 135 384 |;
#X text 135 379 ^;
#N canvas 175 68 381 386 ARGO 0;
#X obj 101 101 cnv 20 116 34 empty ColorAmpli empty 20 12 0 14 -261299
-1 1.04858e+06;
#X obj 85 353 outlet~;
#X obj 157 104 cnv 10 20 10 empty ColorAmpli Ampli. 1 5 1 14 -261299
-1 1.04858e+06;
#X obj 85 43 inlet~;
#X obj 85 330 *~;
#X obj 115 118 hsl 101 12 -80 20 0 1 \$0-A ColorAmpli -6dB 0 7 1 9
-261299 -1 -1 7400 0;
#X obj 101 101 cnv 4 10 4 empty empty empty 20 12 0 14 -1 -66577 0
;
#X obj 101 131 cnv 4 10 4 empty empty empty 20 12 0 14 -1 -66577 0
;
#X obj 207 101 cnv 4 10 4 empty empty empty 20 12 0 14 -1 -66577 0
;
#X obj 207 131 cnv 4 10 4 empty empty empty 20 12 0 14 -1 -66577 0
;
#X obj 222 352 outlet~;
#X obj 222 42 inlet~;
#X obj 222 329 *~;
#X msg -42 138 label \$1;
#X text 148 194 -> 0.0001..10 = -80dB..20dB;
#X obj 142 175 expr (pow(10 \, $f1 / 20));
#X obj 142 215 sel 0.0001;
#X msg 100 244 0;
#X obj 100 118 tgl 12 1 \$0-A \$0-B Mute 2 -5 1 9 -261299 -1 -1 0 1
;
#X obj 99 146 select 0 1;
#X obj 140 295 line~;
#X obj 140 275 pack 0 10;
#X msg 123 74 set 0;
#X obj -42 92 cyclone/sprintf %ddB;
#X text 228 110 6 3 2016;
#X obj -42 115 cyclone/tosymbol;
#X obj 273 344 cnv 15 42 25 empty empty empty 20 12 0 14 -24198 -66577
0;
#N canvas 336 174 309 137 ?. 0;
#X obj 3 83 cnv 15 300 46 empty empty empty 20 12 0 14 -224896 -66577
0;
#X obj 3 6 cnv 18 300 70 empty empty ARGOPdMiniModules 3 10 1 14 -4033
-1 1.04858e+06;
#X obj 26 26 cnv 10 10 10 empty empty Gerard 0 5 1 11 -4033 -1 1.04858e+06
;
#X obj 64 26 cnv 10 10 10 empty empty Paresys 0 5 1 11 -4033 -1 1.04858e+06
;
#X obj 7 37 pddp/pddplink http://gerard.paresys.free.fr/ARGOPd/;
#X text 8 85 Construit sous / Build under Pd 0.43.4-extended;
#X obj 8 111 pddp/pddplink http://puredata.info/downloads/pd-extended
;
#X obj 7 50 pddp/pddplink http://paresys.pagesperso-orange.fr/ARGOPd/
;
#X text 7 98 or Pd-0.46-7 + deken;
#X restore 277 348 pd ?.;
#X connect 3 0 4 0;
#X connect 4 0 1 0;
#X connect 5 0 15 0;
#X connect 5 0 23 0;
#X connect 11 0 12 0;
#X connect 12 0 10 0;
#X connect 13 0 5 0;
#X connect 15 0 16 0;
#X connect 16 0 17 0;
#X connect 16 1 21 0;
#X connect 16 1 22 0;
#X connect 17 0 21 0;
#X connect 17 0 25 0;
#X connect 18 0 19 0;
#X connect 19 0 5 0;
#X connect 19 1 17 0;
#X connect 20 0 12 1;
#X connect 20 0 4 1;
#X connect 21 0 20 0;
#X connect 22 0 18 0;
#X connect 23 0 25 0;
#X connect 25 0 13 0;
#X coords 0 -1 1 1 118 36 1 100 100;
#X restore 183 239 pd ARGO;
#N canvas 286 45 728 239 ARGO 0;
#X obj 239 36 inlet~;
#X text 77 17 Left input;
#X text 224 17 Right input;
#X text 356 37 Stereo wav file format recorder;
#X text 356 52 Enregistreur de fichier audio wav à 2 canaux (stereo)
;
#X obj 88 36 inlet~;
#X obj 171 198 writesf~ 2;
#X text 356 67 L'extension .wav est ajoutée au nom du fichier automatiquement
;
#X obj 103 100 hsl 161 17 0 127 0 0 \$0-A \$0-B Record. 103 10 1 14
-261299 -261299 -1 0 1;
#X obj 255 101 cnv 4 10 4 empty empty empty 20 12 0 14 -1 -66577 0
;
#X obj 101 101 cnv 4 10 4 empty empty empty 20 12 0 14 -1 -66577 0
;
#X obj 112 100 nbx 4 17 0 9999 0 0 \$0-A ColorTime sec 59 9 1 15 -208064
-1 -1 0 256;
#X text 355 103 Clic n'importe où pour commencer un enregistrement
Audio -> Clic encore pour arrêter l'enregistrement;
#X text 456 130 Click anywhere to start recording Audio ->;
#X text 455 142 Click again to stop recording;
#X text 121 122 Hslider caché transformé en bouton;
#N canvas 415 66 351 399 record2 0;
#X obj 136 95 sel 0 1;
#X msg 171 260 start;
#X msg 107 259 stop;
#X msg 155 150 open \$1;
#X obj 155 126 savepanel;
#X obj 165 203 delay 1000;
#X obj 245 323 float;
#X obj 291 322 + 1;
#X obj 223 295 metro 1000;
#X msg 291 296 -1;
#X msg 11 257 0;
#X msg 42 257 1;
#X obj 66 210 t b b;
#X obj 165 229 t b b b b;
#N canvas 317 143 290 366 CouleurRecord2 0;
#X obj 122 -19 +;
#X obj 122 37 +;
#X obj 61 -75 * -65536;
#X obj 117 -75 * -256;
#X obj 163 -77 * -1;
#X obj 122 68 - 1;
#X obj 115 -202 inlet;
#X text 77 -97 R;
#X text 123 -99 G;
#X text 172 -98 B;
#X obj 122 123 outlet;
#X text 170 -169 Rouge;
#X msg 134 -121 255;
#X msg 167 -121 0;
#X obj 115 -178 sel 0 1;
#X text 56 -170 Rose;
#X msg 73 -121 200;
#X msg 40 -121 252;
#X obj 134 -148 t b b b;
#X msg 198 -121 0;
#X msg 104 -121 200;
#X obj 40 -148 t b b b;
#X msg 122 96 color \$1 \$1 -1;
#X connect 0 0 1 1;
#X connect 1 0 5 0;
#X connect 2 0 1 0;
#X connect 3 0 0 0;
#X connect 4 0 0 1;
#X connect 5 0 22 0;
#X connect 6 0 14 0;
#X connect 12 0 2 0;
#X connect 13 0 3 0;
#X connect 14 0 21 0;
#X connect 14 1 18 0;
#X connect 16 0 3 0;
#X connect 17 0 2 0;
#X connect 18 0 12 0;
#X connect 18 1 13 0;
#X connect 18 2 19 0;
#X connect 19 0 4 0;
#X connect 20 0 4 0;
#X connect 21 0 17 0;
#X connect 21 1 16 0;
#X connect 21 2 20 0;
#X connect 22 0 10 0;
#X restore 25 326 pd CouleurRecord2;
#X obj 136 75 tgl 15 0 \$0-A \$0-B empty 19 9 1 12 -262144 -258113
-1 0 1;
#X obj 136 30 b;
#X obj 136 52 delay 200;
#X obj 136 8 inlet;
#X obj 25 356 outlet;
#X text 22 372 Couleur;
#X obj 291 356 outlet;
#X text 288 372 Compteur;
#X obj 155 356 outlet;
#X text 152 372 writesf;
#X obj 199 176 t b b;
#X msg 72 33 0;
#X obj 72 8 loadbang;
#X msg 260 124 set 0;
#X msg 261 173 set 1;
#X obj 261 149 b;
#X connect 0 0 12 0;
#X connect 0 1 4 0;
#X connect 0 1 28 0;
#X connect 1 0 23 0;
#X connect 2 0 8 0;
#X connect 2 0 23 0;
#X connect 3 0 23 0;
#X connect 3 0 25 0;
#X connect 4 0 3 0;
#X connect 4 0 30 0;
#X connect 5 0 13 0;
#X connect 6 0 7 0;
#X connect 7 0 6 1;
#X connect 7 0 21 0;
#X connect 8 0 6 0;
#X connect 9 0 7 0;
#X connect 10 0 14 0;
#X connect 11 0 14 0;
#X connect 12 0 10 0;
#X connect 12 1 2 0;
#X connect 13 0 11 0;
#X connect 13 1 1 0;
#X connect 13 2 8 0;
#X connect 13 3 9 0;
#X connect 14 0 19 0;
#X connect 15 0 0 0;
#X connect 16 0 17 0;
#X connect 17 0 15 0;
#X connect 18 0 16 0;
#X connect 25 0 5 0;
#X connect 25 1 9 0;
#X connect 26 0 15 0;
#X connect 27 0 26 0;
#X connect 28 0 15 0;
#X connect 29 0 15 0;
#X connect 30 0 29 0;
#X restore 56 147 pd record2;
#X obj 636 186 cnv 15 42 25 empty empty empty 20 12 0 14 -24198 -66577
0;
#N canvas 336 174 309 137 ?. 0;
#X obj 3 83 cnv 15 300 46 empty empty empty 20 12 0 14 -224896 -66577
0;
#X obj 3 6 cnv 18 300 70 empty empty ARGOPdMiniModules 3 10 1 14 -4033
-1 1.04858e+06;
#X obj 26 26 cnv 10 10 10 empty empty Gerard 0 5 1 11 -4033 -1 1.04858e+06
;
#X obj 64 26 cnv 10 10 10 empty empty Paresys 0 5 1 11 -4033 -1 1.04858e+06
;
#X obj 7 37 pddp/pddplink http://gerard.paresys.free.fr/ARGOPd/;
#X text 8 85 Construit sous / Build under Pd 0.43.4-extended;
#X obj 8 111 pddp/pddplink http://puredata.info/downloads/pd-extended
;
#X obj 7 50 pddp/pddplink http://paresys.pagesperso-orange.fr/ARGOPd/
;
#X text 7 98 or Pd-0.46-7 + deken;
#X restore 640 190 pd ?.;
#X text 175 81 7 3 2016;
#X connect 0 0 6 1;
#X connect 5 0 6 0;
#X connect 8 0 16 0;
#X connect 16 0 8 0;
#X connect 16 1 6 0;
#X connect 16 2 11 0;
#X coords 0 -1 1 1 166 17 1 100 100;
#X restore 45 363 pd ARGO;
#N canvas 446 64 251 267 ARGO 0;
#X obj 101 104 cnv 30 49 130 empty ColorAmpli empty 20 12 0 14 -1 -258113
0;
#X obj 102 110 vu 8 120 \$0-B empty 0 0 1 11 -1 -4034 0 0;
#X obj 49 35 inlet~;
#X obj 22 108 cnv 15 60 30 empty empty empty 20 12 0 14 -24198 -66577
0;
#N canvas 300 65 442 264 Help 0;
#X obj 12 48 cnv 15 400 150 empty empty empty 20 12 0 14 -233017 -66577
0;
#X text 16 50 Citation;
#X text 28 67 peakamp~ tracks and outputs the absolute value of the
peak amplitude of the incoming signal. It outputs when banged or using
its own internal clock. The peak value is reset each time peakamp~
outputs a value.;
#X text 29 123 cyclone library;
#X text 28 135 http://suita.chopin.edu.pl/~czaja/miXed/externs/cyclone.html
;
#X text 29 155 Voir doc Max/MSP MSP46ReferenceManual.pdf;
#X text 18 14 MM-Vumetre;
#X restore 29 114 pd Help;
#N canvas 541 112 317 265 VuMetre 0;
#X obj 48 19 inlet~;
#X obj 41 54 *~;
#X obj -25 132 snapshot~;
#X obj -25 155 sqrt;
#X obj -25 100 lop~ 10;
#X obj -25 179 rmstodb;
#X obj -88 19 loadbang;
#X obj -25 202 - 100;
#X obj 58 156 sqrt;
#X obj 58 180 rmstodb;
#X obj 58 203 - 100;
#X obj -89 102 metro 200;
#X obj -28 19 r SendFluid;
#X obj 58 102 cyclone/peakamp~ 1000;
#X obj -25 228 outlet;
#X obj 58 227 outlet;
#X connect 0 0 1 0;
#X connect 0 0 1 1;
#X connect 1 0 4 0;
#X connect 1 0 13 0;
#X connect 2 0 3 0;
#X connect 3 0 5 0;
#X connect 4 0 2 0;
#X connect 5 0 7 0;
#X connect 6 0 11 0;
#X connect 7 0 14 0;
#X connect 8 0 9 0;
#X connect 9 0 10 0;
#X connect 10 0 15 0;
#X connect 11 0 2 0;
#X connect 12 0 11 1;
#X connect 13 0 8 0;
#X restore 49 63 pd VuMetre;
#X obj 172 211 cnv 15 42 25 empty empty empty 20 12 0 14 -24198 -66577
0;
#N canvas 336 174 309 137 ?. 0;
#X obj 3 83 cnv 15 300 46 empty empty empty 20 12 0 14 -224896 -66577
0;
#X obj 3 6 cnv 18 300 70 empty empty ARGOPdMiniModules 3 10 1 14 -4033
-1 1.04858e+06;
#X obj 26 26 cnv 10 10 10 empty empty Gerard 0 5 1 11 -4033 -1 1.04858e+06
;
#X obj 64 26 cnv 10 10 10 empty empty Paresys 0 5 1 11 -4033 -1 1.04858e+06
;
#X obj 7 37 pddp/pddplink http://gerard.paresys.free.fr/ARGOPd/;
#X text 8 85 Construit sous / Build under Pd 0.43.4-extended;
#X obj 8 111 pddp/pddplink http://puredata.info/downloads/pd-extended
;
#X obj 7 50 pddp/pddplink http://paresys.pagesperso-orange.fr/ARGOPd/
;
#X text 7 98 or Pd-0.46-7 + deken;
#X restore 176 215 pd ?.;
#X obj 113 110 vu 8 120 \$0-B empty 0 0 1 11 -1 -4034 1 0;
#X obj 126 35 inlet~;
#N canvas 541 112 317 265 VuMetre 0;
#X obj 48 19 inlet~;
#X obj 41 54 *~;
#X obj -25 132 snapshot~;
#X obj -25 155 sqrt;
#X obj -25 100 lop~ 10;
#X obj -25 179 rmstodb;
#X obj -88 19 loadbang;
#X obj -25 202 - 100;
#X obj 58 156 sqrt;
#X obj 58 180 rmstodb;
#X obj 58 203 - 100;
#X obj -89 102 metro 200;
#X obj -28 19 r SendFluid;
#X obj 58 102 cyclone/peakamp~ 1000;
#X obj -25 228 outlet;
#X obj 58 227 outlet;
#X connect 0 0 1 0;
#X connect 0 0 1 1;
#X connect 1 0 4 0;
#X connect 1 0 13 0;
#X connect 2 0 3 0;
#X connect 3 0 5 0;
#X connect 4 0 2 0;
#X connect 5 0 7 0;
#X connect 6 0 11 0;
#X connect 7 0 14 0;
#X connect 8 0 9 0;
#X connect 9 0 10 0;
#X connect 10 0 15 0;
#X connect 11 0 2 0;
#X connect 12 0 11 1;
#X connect 13 0 8 0;
#X restore 126 63 pd VuMetre;
#X text 153 87 3 3 2019;
#X connect 2 0 5 0;
#X connect 5 0 1 0;
#X connect 5 1 1 1;
#X connect 9 0 10 0;
#X connect 10 0 8 0;
#X connect 10 1 8 1;
#X coords 0 -1 1 1 51 135 2 100 100;
#X restore 306 286 pd ARGO;
#X obj 417 401 cnv 15 34 16 empty empty empty 20 12 0 14 -24198 -66577
0;
#N canvas 353 174 333 161 ?? 0;
#X obj 17 89 cnv 15 300 56 empty empty empty 20 12 0 14 -224896 -66577
0;
#X obj 17 12 cnv 18 300 70 empty empty ARGOPdMiniModules 3 10 1 14
-4033 -1 1.04858e+06;
#X obj 40 32 cnv 10 10 10 empty empty Gerard 0 5 1 11 -4033 -1 1.04858e+06
;
#X obj 78 32 cnv 10 10 10 empty empty Paresys 0 5 1 11 -4033 -1 1.04858e+06
;
#X obj 20 54 pddp/pddplink http://gerard.paresys.free.fr/ARGOPd/;
#X obj 22 126 pddp/pddplink http://puredata.info/downloads/pd-extended
;
#X obj 22 102 pddp/pddplink http://puredata.info/downloads/pure-data
;
#X text 22 90 Construit sous / Build under Pd-0.49...;
#X text 21 114 or Pd 0.43.4-extended;
#X obj 20 66 pddp/pddplink https://paresys.pagesperso-orange.fr/ARGOPd/
;
#X obj 20 42 pddp/pddplink https://github.com/gerardparesys/ARGOPd
;
#X restore 417 401 pd ??;
#N canvas 185 299 685 275 ARGO 0;
#X obj 101 101 cnv 20 132 34 empty ColorTime empty 20 12 0 14 -208064
-1 1.04858e+06;
#X obj 85 247 outlet~;
#X obj 137 104 cnv 10 44 10 empty ColorTime Delay. 1 5 1 14 -208064
-1 1.04858e+06;
#X obj 85 40 inlet~;
#X obj 101 131 cnv 4 10 4 empty empty empty 20 12 0 14 -1 -66577 0
;
#X obj 223 101 cnv 4 10 4 empty empty empty 20 12 0 14 -1728 -66577
0;
#X obj 103 118 hsl 129 12 0 1 0 1 empty ColorTime empty 0 7 1 9 -262144
-1 -1 8700 0;
#X obj 101 101 cnv 4 10 4 empty empty empty 0 0 0 9 -1 -66577 0;
#X obj 214 40 inlet~;
#X obj 103 118 hsl 129 12 0 1 0 0 empty ColorTime 2050ms 0 7 1 9 -208064
-1728 -1 8700 0;
#N canvas 402 195 391 404 Timems 0;
#X msg 247 313 set \$1;
#X obj 59 100 +~;
#X obj 145 347 outlet;
#X obj 247 138 snapshot~;
#X obj 247 160 change;
#X obj 118 35 inlet;
#X obj 23 35 inlet~;
#X msg 117 313 label \$1;
#X obj 247 35 loadbang;
#X obj 247 100 metro 200;
#X obj 304 35 r SendFluid;
#X obj 23 66 *~ 1.90476;
#X text 142 363 Hslider;
#X text 149 377 Over;
#X text 118 5 Hslider;
#X text 120 16 Under;
#X obj 117 182 * 126;
#X obj 117 225 mtof;
#X obj 117 246 clip 0 20000;
#X obj 117 203 + 10;
#X obj 128 100 metro 10;
#X obj 34 138 snapshot~;
#X obj 34 160 change;
#X obj 36 347 outlet;
#X obj 34 182 * 126;
#X obj 34 225 mtof;
#X obj 34 246 clip 0 20000;
#X obj 34 203 + 10;
#X obj 117 291 cyclone/tosymbol;
#X obj 117 269 cyclone/sprintf %dms;
#X connect 0 0 2 0;
#X connect 1 0 3 0;
#X connect 1 0 21 0;
#X connect 3 0 4 0;
#X connect 4 0 0 0;
#X connect 5 0 1 1;
#X connect 5 0 16 0;
#X connect 6 0 11 0;
#X connect 7 0 2 0;
#X connect 8 0 9 0;
#X connect 8 0 20 0;
#X connect 9 0 3 0;
#X connect 10 0 9 1;
#X connect 11 0 1 0;
#X connect 16 0 19 0;
#X connect 17 0 18 0;
#X connect 18 0 29 0;
#X connect 19 0 17 0;
#X connect 20 0 21 0;
#X connect 21 0 22 0;
#X connect 22 0 24 0;
#X connect 24 0 27 0;
#X connect 25 0 26 0;
#X connect 26 0 23 0;
#X connect 27 0 25 0;
#X connect 28 0 7 0;
#X connect 29 0 28 0;
#X restore 21 117 pd Timems;
#X text 242 129 2 HSLIDER superposés;
#X text 241 118 ATTENTION;
#X obj 191 106 nbx 5 12 0 10000 0 1 \$0-A \$0-B empty 0 -8 1 9 -188398
-1 -1 100 256;
#X text 238 103 <- Interpolation (ms);
#X obj 505 75 cnv 15 60 30 empty empty empty 20 12 0 14 -24198 -66577
0;
#N canvas 335 104 463 202 Help 0;
#X text 15 12 Delay Audio = Retard Audio;
#X text 15 28 Le controle du Retard (ms) se fait 100 fois par seconde.
;
#X text 15 40 L'interpolation se fait sur le controle du Retard (ms)
;
#X text 16 108 iem_delay/n_delay1p_line~ replace by cyclone/delay~
;
#X restore 512 82 pd Help;
#X obj 337 40 loadbang;
#X obj 337 79 samplerate~;
#X obj 208 181 expr $f1 * $f2 / 1000 \;;
#X text 214 196 -> sample;
#X obj 354 244 cnv 15 34 16 empty empty empty 20 12 0 14 -24198 -66577
0;
#N canvas 353 174 333 161 ?? 0;
#X obj 17 89 cnv 15 300 56 empty empty empty 20 12 0 14 -224896 -66577
0;
#X obj 17 12 cnv 18 300 70 empty empty ARGOPdMiniModules 3 10 1 14
-4033 -1 1.04858e+06;
#X obj 40 32 cnv 10 10 10 empty empty Gerard 0 5 1 11 -4033 -1 1.04858e+06
;
#X obj 78 32 cnv 10 10 10 empty empty Paresys 0 5 1 11 -4033 -1 1.04858e+06
;
#X obj 20 54 pddp/pddplink http://gerard.paresys.free.fr/ARGOPd/;
#X obj 22 126 pddp/pddplink http://puredata.info/downloads/pd-extended
;
#X obj 22 102 pddp/pddplink http://puredata.info/downloads/pure-data
;
#X text 22 90 Construit sous / Build under Pd-0.49...;
#X text 21 114 or Pd 0.43.4-extended;
#X obj 20 66 pddp/pddplink https://paresys.pagesperso-orange.fr/ARGOPd/
;
#X obj 20 42 pddp/pddplink https://github.com/gerardparesys/ARGOPd
;
#X restore 354 244 pd ??;
#X obj 85 218 cyclone/delay~ 882000;
#X msg 191 150 ramp \$1;
#X text 184 84 3 4 2021;
#X text 355 151 Interpolation (message ramp) est incompatible avec
Pd-extended.;
#X text 355 178 Interpolation (ramp message) is incompatible with Pd-extended.
;
#X connect 3 0 23 0;
#X connect 6 0 10 1;
#X connect 8 0 10 0;
#X connect 10 0 19 0;
#X connect 10 1 9 0;
#X connect 13 0 24 0;
#X connect 17 0 18 0;
#X connect 18 0 19 1;
#X connect 19 0 23 1;
#X connect 23 0 1 0;
#X connect 24 0 23 0;
#X coords 0 -1 1 1 134 36 1 100 100;
#X restore 21 121 pd ARGO;
#N canvas 185 299 685 275 ARGO 0;
#X obj 101 101 cnv 20 132 34 empty ColorTime empty 20 12 0 14 -208064
-1 1.04858e+06;
#X obj 85 247 outlet~;
#X obj 137 104 cnv 10 44 10 empty ColorTime Delay. 1 5 1 14 -208064
-1 1.04858e+06;
#X obj 85 40 inlet~;
#X obj 101 131 cnv 4 10 4 empty empty empty 20 12 0 14 -1 -66577 0
;
#X obj 223 101 cnv 4 10 4 empty empty empty 20 12 0 14 -1728 -66577
0;
#X obj 103 118 hsl 129 12 0 1 0 1 empty ColorTime empty 0 7 1 9 -262144
-1 -1 10000 0;
#X obj 101 101 cnv 4 10 4 empty empty empty 0 0 0 9 -1 -66577 0;
#X obj 214 40 inlet~;
#X obj 103 118 hsl 129 12 0 1 0 0 empty ColorTime 4293ms 0 7 1 9 -208064
-1728 -1 10000 0;
#N canvas 402 195 391 404 Timems 0;
#X msg 247 313 set \$1;
#X obj 59 100 +~;
#X obj 145 347 outlet;
#X obj 247 138 snapshot~;
#X obj 247 160 change;
#X obj 118 35 inlet;
#X obj 23 35 inlet~;
#X msg 117 313 label \$1;
#X obj 247 35 loadbang;
#X obj 247 100 metro 200;
#X obj 304 35 r SendFluid;
#X obj 23 66 *~ 1.90476;
#X text 142 363 Hslider;
#X text 149 377 Over;
#X text 118 5 Hslider;
#X text 120 16 Under;
#X obj 117 182 * 126;
#X obj 117 225 mtof;
#X obj 117 246 clip 0 20000;
#X obj 117 203 + 10;
#X obj 128 100 metro 10;
#X obj 34 138 snapshot~;
#X obj 34 160 change;
#X obj 36 347 outlet;
#X obj 34 182 * 126;
#X obj 34 225 mtof;
#X obj 34 246 clip 0 20000;
#X obj 34 203 + 10;
#X obj 117 291 cyclone/tosymbol;
#X obj 117 269 cyclone/sprintf %dms;
#X connect 0 0 2 0;
#X connect 1 0 3 0;
#X connect 1 0 21 0;
#X connect 3 0 4 0;
#X connect 4 0 0 0;
#X connect 5 0 1 1;
#X connect 5 0 16 0;
#X connect 6 0 11 0;
#X connect 7 0 2 0;
#X connect 8 0 9 0;
#X connect 8 0 20 0;
#X connect 9 0 3 0;
#X connect 10 0 9 1;
#X connect 11 0 1 0;
#X connect 16 0 19 0;
#X connect 17 0 18 0;
#X connect 18 0 29 0;
#X connect 19 0 17 0;
#X connect 20 0 21 0;
#X connect 21 0 22 0;
#X connect 22 0 24 0;
#X connect 24 0 27 0;
#X connect 25 0 26 0;
#X connect 26 0 23 0;
#X connect 27 0 25 0;
#X connect 28 0 7 0;
#X connect 29 0 28 0;
#X restore 21 117 pd Timems;
#X text 242 129 2 HSLIDER superposés;
#X text 241 118 ATTENTION;
#X obj 191 106 nbx 5 12 0 10000 0 1 \$0-A \$0-B empty 0 -8 1 9 -188398
-1 -1 100 256;
#X text 238 103 <- Interpolation (ms);
#X obj 505 75 cnv 15 60 30 empty empty empty 20 12 0 14 -24198 -66577
0;
#N canvas 335 104 463 202 Help 0;
#X text 15 12 Delay Audio = Retard Audio;
#X text 15 28 Le controle du Retard (ms) se fait 100 fois par seconde.
;
#X text 15 40 L'interpolation se fait sur le controle du Retard (ms)
;
#X text 16 108 iem_delay/n_delay1p_line~ replace by cyclone/delay~
;
#X restore 512 82 pd Help;
#X obj 337 40 loadbang;
#X obj 337 79 samplerate~;
#X obj 208 181 expr $f1 * $f2 / 1000 \;;
#X text 214 196 -> sample;
#X obj 354 244 cnv 15 34 16 empty empty empty 20 12 0 14 -24198 -66577
0;
#N canvas 353 174 333 161 ?? 0;
#X obj 17 89 cnv 15 300 56 empty empty empty 20 12 0 14 -224896 -66577
0;
#X obj 17 12 cnv 18 300 70 empty empty ARGOPdMiniModules 3 10 1 14
-4033 -1 1.04858e+06;
#X obj 40 32 cnv 10 10 10 empty empty Gerard 0 5 1 11 -4033 -1 1.04858e+06
;
#X obj 78 32 cnv 10 10 10 empty empty Paresys 0 5 1 11 -4033 -1 1.04858e+06
;
#X obj 20 54 pddp/pddplink http://gerard.paresys.free.fr/ARGOPd/;
#X obj 22 126 pddp/pddplink http://puredata.info/downloads/pd-extended
;
#X obj 22 102 pddp/pddplink http://puredata.info/downloads/pure-data
;
#X text 22 90 Construit sous / Build under Pd-0.49...;
#X text 21 114 or Pd 0.43.4-extended;
#X obj 20 66 pddp/pddplink https://paresys.pagesperso-orange.fr/ARGOPd/
;
#X obj 20 42 pddp/pddplink https://github.com/gerardparesys/ARGOPd
;
#X restore 354 244 pd ??;
#X obj 85 218 cyclone/delay~ 882000;
#X msg 191 150 ramp \$1;
#X text 184 84 3 4 2021;
#X text 355 151 Interpolation (message ramp) est incompatible avec
Pd-extended.;
#X text 355 178 Interpolation (ramp message) is incompatible with Pd-extended.
;
#X connect 3 0 23 0;
#X connect 6 0 10 1;
#X connect 8 0 10 0;
#X connect 10 0 19 0;
#X connect 10 1 9 0;
#X connect 13 0 24 0;
#X connect 17 0 18 0;
#X connect 18 0 19 1;
#X connect 19 0 23 1;
#X connect 23 0 1 0;
#X connect 24 0 23 0;
#X coords 0 -1 1 1 134 36 1 100 100;
#X restore 329 121 pd ARGO;
#X obj 360 184 cnv 15 100 70 empty empty empty 20 12 0 14 -24198 -66577
0;
#X text 383 186 library:;
#X text 364 197 pddp;
#X text 364 208 cyclone;
#X text 364 218 zexy;
#X connect 2 0 1 0;
#X connect 8 0 9 0;
#X connect 8 0 9 2;
#X connect 8 0 23 0;
#X connect 8 0 24 0;
#X connect 9 0 18 0;
#X connect 9 1 18 1;
#X connect 10 0 9 1;
#X connect 18 0 11 0;
#X connect 18 0 19 0;
#X connect 18 0 20 0;
#X connect 18 1 11 1;
#X connect 18 1 19 1;
#X connect 18 1 20 1;
#X connect 23 0 9 0;
#X connect 24 0 9 2;
