#N canvas 235 23 640 776 10;
#X obj 8 9 cnv 15 15 15 empty empty ExMM131b-EEG-Simul-1Ch-Sonification.pd
0 8 1 14 -262144 -66577 0;
#X obj 267 717 dac~;
#X obj 72 186 switch~;
#N canvas 608 166 228 173 ARGOnOff 0;
#X obj 100 100 tgl 18 1 \$0-SendOnOff \$0-ReceiveOnOff On/Off 20 11
1 14 -4033 -1 -1 1 1;
#X obj 99 10 loadbang;
#X msg 99 33 \; pd dsp 1;
#X obj 100 129 outlet;
#X text -50 99 Audio On/Off du patch ->;
#X text -22 45 Audio General On ->;
#X text 107 82 17 3 2010;
#X connect 0 0 3 0;
#X connect 1 0 2 0;
#X coords 0 -1 1 1 65 18 2 100 100;
#X restore 72 168 pd ARGOnOff;
#X text 77 152 V;
#X text 77 145 |;
#X text 65 134 On/Off Patch;
#N canvas 413 140 402 279 ARGO 0;
#X obj 101 101 cnv 10 95 41 \$0-A \$0-B empty 20 12 0 14 -1 -1 1.04858e+06
;
#X obj 101 109 nbx 4 12 0 1e+37 0 0 \$0 \$0-ReceiveCpuPeak CPUPeak
45 7 1 11 -24198 -1 -24198 6 256;
#X obj 101 122 nbx 4 12 0 1e+37 0 0 \$0 \$0-ReceiveCpuMean CPUMean
45 7 1 11 -24198 -1 -24198 4.67 256;
#X obj 145 -55 cputime;
#X obj 145 -76 t b b;
#X text 188 24 (c) musil@iem.kug.ac.at;
#X text 230 37 IEM KUG;
#X text 78 18 CPU-load;
#X obj 144 -125 loadbang;
#X text 205 48 graz \, austria 2001;
#X obj 145 -100 metro 500;
#X obj 145 -34 * 0.2;
#X text 237 -88 -dsp-load in %;
#X text 228 -101 measure average- and peak-;
#X obj 37 18 * 100;
#X obj 37 63 int;
#X obj 37 41 + 0.499;
#X obj 37 86 * 0.01;
#N canvas 524 162 422 273 1p1zmodif 0;
#X text 134 89 (c) musil@iem.kug.ac.at;
#X text 179 99 IEM KUG;
#X obj 14 195 +;
#X text 151 108 graz \, austria 2001;
#X text 135 71 y[n] = a0*x[n] + a1*x[n-1] + b1*y[n-1];
#X text 18 13 x[n];
#X text 16 244 y[n];
#X text 84 111 y[n-1];
#X text 134 56 <float> control-IIR-filter 1.order;
#X obj 15 28 inlet;
#X obj 14 228 outlet;
#X obj 15 112 * 0.1;
#X obj 59 156 * 0.9;
#X text 139 144 a1 = 0;
#X text 139 155 b1 = 0.9;
#X text 139 133 a0 = 0.1;
#X obj 15 50 t f b;
#X text 135 40 Inspiré de 1p1z;
#X obj 59 112 f 0;
#X connect 2 0 10 0;
#X connect 2 0 18 1;
#X connect 9 0 16 0;
#X connect 11 0 2 0;
#X connect 12 0 2 1;
#X connect 16 0 11 0;
#X connect 16 1 18 0;
#X connect 18 0 12 0;
#X restore 37 -8 pd 1p1zmodif;
#X text 146 9 Inspiré de 5.reference/iemabs/help-dsp.pd;
#X text 141 83 25 3 2010;
#X connect 3 0 11 0;
#X connect 4 0 3 0;
#X connect 4 1 3 1;
#X connect 8 0 10 0;
#X connect 10 0 4 0;
#X connect 11 0 18 0;
#X connect 11 0 1 0;
#X connect 14 0 16 0;
#X connect 15 0 17 0;
#X connect 16 0 15 0;
#X connect 17 0 2 0;
#X connect 18 0 14 0;
#X coords 0 -1 1 1 97 43 1 100 100;
#X restore 58 217 pd ARGO;
#X obj 358 88 tgl 15 1 empty empty empty 17 7 0 10 -262144 -1 -1 1
1;
#X obj 358 110 metro 5;
#X obj 358 227 sig~;
#X text 281 150 Amplitude ->;
#X text 245 135 Click: 1 packet ->;
#X text 231 86 Clic 1 packet/5ms ->;
#N canvas 462 219 430 320 ARGO 0;
#X obj 40 -35 inlet~;
#X obj 251 108 cnv 10 44 10 empty empty Scope. 1 5 1 14 -262144 -1
1.04858e+06;
#X obj 101 101 cnv 4 10 4 empty empty empty 20 12 0 14 -1 -66577 0
;
#X msg -36 168 frgb 255 0 0;
#X obj 124 105 nbx 4 12 1 2000 0 1 \$0-A ColorTime ms/div 40 7 1 9
-208064 -1 -1 50 256;
#X obj 205 105 tgl 12 1 \$0-A \$0-B Sync 15 6 1 9 -262144 -1 -1 1 1
;
#X msg 128 52 delay 0 \, triglevel 0 \, trigger 0;
#X obj 126 5 sel 0 1;
#X msg -39 192 brgb 255 255 255;
#X obj 85 64 * 2;
#X msg 146 28 delay 1 \, triglevel 0.1 \, trigger 1;
#X obj 277 -36 inlet~;
#X obj 289 101 cnv 4 10 4 empty empty empty 20 12 0 14 -1 -66577 0
;
#X obj -14 80 t b b b b;
#X obj -15 57 bng 15 250 50 0 empty empty empty 17 7 0 10 -262144 -1
-1;
#X obj 196 -34 cnv 15 60 30 empty empty empty 20 12 0 14 -24198 -66577
0;
#N canvas 374 104 413 135 Help 0;
#X text 24 54 Voir MSP46ReferenceManual.pdf;
#X text 23 1 utilise l'objet Scope~ de la library cyclone;
#X text 24 26 Voir Browser -> Pure Data/examples/cyclone/scope-test.pd
;
#X text 24 40 Voir Browser -> Pure Data/examples/cyclone/pink-test.pd
;
#X text 24 -20 Scope;
#X restore 203 -28 pd Help;
#X obj 101 121 cnv 15 199 129 empty empty empty 20 12 0 14 -1 -66577
0;
#X obj 40 -11 clip~ -1 1;
#X obj 277 -12 clip~ -1 1;
#X msg -24 136 range -1 1;
#X msg -33 111 bufsize 176;
#X obj 101 123 cyclone/Scope~ 198 61 100 3 176 -1 1 1 0 1 0.1 255 0
0 255 255 255 0;
#X obj 101 187 cyclone/Scope~ 198 61 100 3 176 -1 1 1 0 1 0.1 255 0
0 255 255 255 0;
#X text 243 85 15 3 2016;
#X obj 308 224 cnv 15 42 25 empty empty empty 20 12 0 14 -24198 -66577
0;
#N canvas 336 174 309 137 ?. 0;
#X obj 3 83 cnv 15 300 46 empty empty empty 20 12 0 14 -224896 -66577
0;
#X obj 3 6 cnv 18 300 70 empty empty ARGOPdMiniModules 3 10 1 14 -4033
-1 1.04858e+06;
#X obj 26 26 cnv 10 10 10 empty empty Gerard 0 5 1 11 -4033 -1 1.04858e+06
;
#X obj 64 26 cnv 10 10 10 empty empty Paresys 0 5 1 11 -4033 -1 1.04858e+06
;
#X obj 7 37 pddp/pddplink http://gerard.paresys.free.fr/ARGOPd/;
#X text 8 85 Construit sous / Build under Pd 0.43.4-extended;
#X obj 8 111 pddp/pddplink http://puredata.info/downloads/pd-extended
;
#X obj 7 50 pddp/pddplink http://paresys.pagesperso-orange.fr/ARGOPd/
;
#X text 7 98 or Pd-0.46-7 + deken;
#X restore 312 228 pd ?.;
#X connect 0 0 18 0;
#X connect 3 0 22 0;
#X connect 3 0 23 0;
#X connect 4 0 9 0;
#X connect 5 0 7 0;
#X connect 6 0 22 0;
#X connect 6 0 23 0;
#X connect 7 0 6 0;
#X connect 7 1 10 0;
#X connect 8 0 22 0;
#X connect 8 0 23 0;
#X connect 9 0 22 0;
#X connect 9 0 23 0;
#X connect 10 0 22 0;
#X connect 10 0 23 0;
#X connect 11 0 19 0;
#X connect 13 0 21 0;
#X connect 13 1 20 0;
#X connect 13 2 3 0;
#X connect 13 3 8 0;
#X connect 14 0 13 0;
#X connect 18 0 22 0;
#X connect 19 0 23 0;
#X connect 20 0 22 0;
#X connect 20 0 23 0;
#X connect 21 0 22 0;
#X connect 21 0 23 0;
#X coords 0 -1 1 1 200 150 2 100 100;
#X restore 221 323 pd ARGO;
#N canvas 462 219 430 320 ARGO 0;
#X obj 40 -35 inlet~;
#X obj 251 108 cnv 10 44 10 empty empty Scope. 1 5 1 14 -262144 -1
1.04858e+06;
#X obj 101 101 cnv 4 10 4 empty empty empty 20 12 0 14 -1 -66577 0
;
#X msg -36 168 frgb 255 0 0;
#X obj 124 105 nbx 4 12 1 2000 0 1 \$0-A ColorTime ms/div 40 7 1 9
-208064 -1 -1 50 256;
#X obj 205 105 tgl 12 1 \$0-A \$0-B Sync 15 6 1 9 -262144 -1 -1 1 1
;
#X msg 128 52 delay 0 \, triglevel 0 \, trigger 0;
#X obj 126 5 sel 0 1;
#X msg -39 192 brgb 255 255 255;
#X obj 85 64 * 2;
#X msg 146 28 delay 1 \, triglevel 0.1 \, trigger 1;
#X obj 277 -36 inlet~;
#X obj 289 101 cnv 4 10 4 empty empty empty 20 12 0 14 -1 -66577 0
;
#X obj -14 80 t b b b b;
#X obj -15 57 bng 15 250 50 0 empty empty empty 17 7 0 10 -262144 -1
-1;
#X obj 196 -34 cnv 15 60 30 empty empty empty 20 12 0 14 -24198 -66577
0;
#N canvas 374 104 413 135 Help 0;
#X text 24 54 Voir MSP46ReferenceManual.pdf;
#X text 23 1 utilise l'objet Scope~ de la library cyclone;
#X text 24 26 Voir Browser -> Pure Data/examples/cyclone/scope-test.pd
;
#X text 24 40 Voir Browser -> Pure Data/examples/cyclone/pink-test.pd
;
#X text 24 -20 Scope;
#X restore 203 -28 pd Help;
#X obj 101 121 cnv 15 199 129 empty empty empty 20 12 0 14 -1 -66577
0;
#X obj 40 -11 clip~ -1 1;
#X obj 277 -12 clip~ -1 1;
#X msg -24 136 range -1 1;
#X msg -33 111 bufsize 176;
#X obj 101 123 cyclone/Scope~ 198 61 100 3 176 -1 1 1 0 1 0.1 255 0
0 255 255 255 0;
#X obj 101 187 cyclone/Scope~ 198 61 100 3 176 -1 1 1 0 1 0.1 255 0
0 255 255 255 0;
#X text 243 85 15 3 2016;
#X obj 308 224 cnv 15 42 25 empty empty empty 20 12 0 14 -24198 -66577
0;
#N canvas 336 174 309 137 ?. 0;
#X obj 3 83 cnv 15 300 46 empty empty empty 20 12 0 14 -224896 -66577
0;
#X obj 3 6 cnv 18 300 70 empty empty ARGOPdMiniModules 3 10 1 14 -4033
-1 1.04858e+06;
#X obj 26 26 cnv 10 10 10 empty empty Gerard 0 5 1 11 -4033 -1 1.04858e+06
;
#X obj 64 26 cnv 10 10 10 empty empty Paresys 0 5 1 11 -4033 -1 1.04858e+06
;
#X obj 7 37 pddp/pddplink http://gerard.paresys.free.fr/ARGOPd/;
#X text 8 85 Construit sous / Build under Pd 0.43.4-extended;
#X obj 8 111 pddp/pddplink http://puredata.info/downloads/pd-extended
;
#X obj 7 50 pddp/pddplink http://paresys.pagesperso-orange.fr/ARGOPd/
;
#X text 7 98 or Pd-0.46-7 + deken;
#X restore 312 228 pd ?.;
#X connect 0 0 18 0;
#X connect 3 0 22 0;
#X connect 3 0 23 0;
#X connect 4 0 9 0;
#X connect 5 0 7 0;
#X connect 6 0 22 0;
#X connect 6 0 23 0;
#X connect 7 0 6 0;
#X connect 7 1 10 0;
#X connect 8 0 22 0;
#X connect 8 0 23 0;
#X connect 9 0 22 0;
#X connect 9 0 23 0;
#X connect 10 0 22 0;
#X connect 10 0 23 0;
#X connect 11 0 19 0;
#X connect 13 0 21 0;
#X connect 13 1 20 0;
#X connect 13 2 3 0;
#X connect 13 3 8 0;
#X connect 14 0 13 0;
#X connect 18 0 22 0;
#X connect 19 0 23 0;
#X connect 20 0 22 0;
#X connect 20 0 23 0;
#X connect 21 0 22 0;
#X connect 21 0 23 0;
#X coords 0 -1 1 1 200 150 2 100 100;
#X restore 421 323 pd ARGO;
#N canvas 462 219 430 320 ARGO 0;
#X obj 40 -35 inlet~;
#X obj 251 108 cnv 10 44 10 empty empty Scope. 1 5 1 14 -262144 -1
1.04858e+06;
#X obj 101 101 cnv 4 10 4 empty empty empty 20 12 0 14 -1 -66577 0
;
#X msg -36 168 frgb 255 0 0;
#X obj 124 105 nbx 4 12 1 2000 0 1 \$0-A ColorTime ms/div 40 7 1 9
-208064 -1 -1 50 256;
#X obj 205 105 tgl 12 1 \$0-A \$0-B Sync 15 6 1 9 -262144 -1 -1 1 1
;
#X msg 128 52 delay 0 \, triglevel 0 \, trigger 0;
#X obj 126 5 sel 0 1;
#X msg -39 192 brgb 255 255 255;
#X obj 85 64 * 2;
#X msg 146 28 delay 1 \, triglevel 0.1 \, trigger 1;
#X obj 277 -36 inlet~;
#X obj 289 101 cnv 4 10 4 empty empty empty 20 12 0 14 -1 -66577 0
;
#X obj -14 80 t b b b b;
#X obj -15 57 bng 15 250 50 0 empty empty empty 17 7 0 10 -262144 -1
-1;
#X obj 196 -34 cnv 15 60 30 empty empty empty 20 12 0 14 -24198 -66577
0;
#N canvas 374 104 413 135 Help 0;
#X text 24 54 Voir MSP46ReferenceManual.pdf;
#X text 23 1 utilise l'objet Scope~ de la library cyclone;
#X text 24 26 Voir Browser -> Pure Data/examples/cyclone/scope-test.pd
;
#X text 24 40 Voir Browser -> Pure Data/examples/cyclone/pink-test.pd
;
#X text 24 -20 Scope;
#X restore 203 -28 pd Help;
#X obj 101 121 cnv 15 199 129 empty empty empty 20 12 0 14 -1 -66577
0;
#X obj 40 -11 clip~ -1 1;
#X obj 277 -12 clip~ -1 1;
#X msg -24 136 range -1 1;
#X msg -33 111 bufsize 176;
#X obj 101 123 cyclone/Scope~ 198 61 100 3 176 -1 1 1 0 1 0.1 255 0
0 255 255 255 0;
#X obj 101 187 cyclone/Scope~ 198 61 100 3 176 -1 1 1 0 1 0.1 255 0
0 255 255 255 0;
#X text 243 85 15 3 2016;
#X obj 308 224 cnv 15 42 25 empty empty empty 20 12 0 14 -24198 -66577
0;
#N canvas 336 174 309 137 ?. 0;
#X obj 3 83 cnv 15 300 46 empty empty empty 20 12 0 14 -224896 -66577
0;
#X obj 3 6 cnv 18 300 70 empty empty ARGOPdMiniModules 3 10 1 14 -4033
-1 1.04858e+06;
#X obj 26 26 cnv 10 10 10 empty empty Gerard 0 5 1 11 -4033 -1 1.04858e+06
;
#X obj 64 26 cnv 10 10 10 empty empty Paresys 0 5 1 11 -4033 -1 1.04858e+06
;
#X obj 7 37 pddp/pddplink http://gerard.paresys.free.fr/ARGOPd/;
#X text 8 85 Construit sous / Build under Pd 0.43.4-extended;
#X obj 8 111 pddp/pddplink http://puredata.info/downloads/pd-extended
;
#X obj 7 50 pddp/pddplink http://paresys.pagesperso-orange.fr/ARGOPd/
;
#X text 7 98 or Pd-0.46-7 + deken;
#X restore 312 228 pd ?.;
#X connect 0 0 18 0;
#X connect 3 0 22 0;
#X connect 3 0 23 0;
#X connect 4 0 9 0;
#X connect 5 0 7 0;
#X connect 6 0 22 0;
#X connect 6 0 23 0;
#X connect 7 0 6 0;
#X connect 7 1 10 0;
#X connect 8 0 22 0;
#X connect 8 0 23 0;
#X connect 9 0 22 0;
#X connect 9 0 23 0;
#X connect 10 0 22 0;
#X connect 10 0 23 0;
#X connect 11 0 19 0;
#X connect 13 0 21 0;
#X connect 13 1 20 0;
#X connect 13 2 3 0;
#X connect 13 3 8 0;
#X connect 14 0 13 0;
#X connect 18 0 22 0;
#X connect 19 0 23 0;
#X connect 20 0 22 0;
#X connect 20 0 23 0;
#X connect 21 0 22 0;
#X connect 21 0 23 0;
#X coords 0 -1 1 1 200 150 2 100 100;
#X restore 21 323 pd ARGO;
#X obj 567 739 cnv 15 52 22 empty empty empty 20 12 0 14 -24198 -66577
0;
#N canvas 353 174 321 152 ?... 0;
#X obj 8 84 cnv 15 300 56 empty empty empty 20 12 0 14 -224896 -66577
0;
#X obj 8 7 cnv 18 300 70 empty empty ARGOPdMiniModules 3 10 1 14 -4033
-1 1.04858e+06;
#X obj 31 27 cnv 10 10 10 empty empty Gerard 0 5 1 11 -4033 -1 1.04858e+06
;
#X obj 69 27 cnv 10 10 10 empty empty Paresys 0 5 1 11 -4033 -1 1.04858e+06
;
#X obj 12 40 pddp/pddplink http://gerard.paresys.free.fr/ARGOPd/;
#X obj 13 121 pddp/pddplink http://puredata.info/downloads/pd-extended
;
#X obj 13 97 pddp/pddplink http://puredata.info/downloads/pure-data
;
#X text 13 85 Construit sous / Build under Pd-0.49...;
#X text 12 109 or Pd 0.43.4-extended;
#X obj 12 53 pddp/pddplink https://paresys.pagesperso-orange.fr/ARGOPd/
;
#X restore 570 742 pd ?...;
#N canvas 337 44 483 377 ARGO 0;
#X obj -26 234 cnv 15 60 30 empty empty empty 20 12 0 14 -24198 -66577
0;
#N canvas 344 63 467 557 Help 0;
#X text 22 36 EEG = electroencephalography. = électro-encéphalographie
;
#X text 30 515 Made for:;
#X text 21 62 Simule des datas envoyées par une carte digitale ModularEEG
avec un firmware P2 par sa prise série.;
#X obj 23 129 cnv 15 420 370 empty empty empty 20 12 0 14 -233017 -66577
0;
#X text 27 131 Citation;
#X text 38 249 P2 uses 17 data bytes to transmit 6 channels of EEG
data:;
#X text 57 267 1: sync0 // synchronisation byte 1 = 0xa5 = 165;
#X text 57 291 3: version // version number = 2;
#X text 57 279 2: sync1 // synchronisation byte 2 = 0x5a = 90;
#X text 57 316 5: Chn1low // channel 1 low byte;
#X text 57 328 6: Chn1high // channel 1 high byte;
#X text 51 464 17: switches // State of PD5 to PD2 \, in bits 3 to
0;
#X text 57 340 7: Chn2low // channel 2 low byte;
#X text 57 352 8: Chn2high // channel 2 high byte;
#X text 57 364 9: ...;
#X text 51 377 10: ...;
#X text 51 389 11: ...;
#X text 51 401 12: ...;
#X text 51 414 13: ...;
#X text 51 426 14: ...;
#X text 51 439 15: ...;
#X text 51 452 16: Chn6high // channel 6 high byte;
#X text 57 303 4: count // packet counter. Increases by 1 each packet.
;
#X text 38 207 The P2 Firmware Protocol was the inital transmission
protocol of the OpenEEG project \, used by ModularEEG. It is compatible
with the ElectricGuru application.;
#X text 39 148 The ModularEEG device is made up of two or more EEG
amplifiers \, and a 6-channel signal capture board that connects to
a PC via a standard serial cable. The standard setup has two EEG channels.
;
#X obj 22 91 pddp/pddplink http://openeeg.sourceforge.net/doc/modeeg/modeeg.html
;
#X obj 21 105 pddp/pddplink http://openeeg.sourceforge.net/doc/modeeg/modeeg_design.html
;
#X obj 34 480 pddp/pddplink http://www.shifz.org/brainbay/manuals/brainbay_developer_manual.pdf
;
#X obj 40 528 pddp/pddplink http://openeeg.sourceforge.net/doc/;
#X text 5 11 -MM EEG-SimulPacket;
#X restore -19 240 pd Help;
#X msg 313 267 165;
#X msg 284 267 90;
#X msg 254 267 2;
#X obj 170 241 float;
#X obj 211 241 + 1;
#X obj 196 267 mod 256;
#X msg 38 269 15;
#X obj 88 269 mod 256;
#X obj 141 269 div 256;
#X obj 92 185 random 1024;
#X obj 88 242 t f f;
#X obj 178 338 outlet;
#X obj 66 213 expr $f1 + 512 - ($f2 / 2);
#X msg -13 131 label \$1;
#X obj -13 87 int;
#X obj -56 40 cnv 15 170 24 empty empty empty 20 12 0 14 -261682 -66577
0;
#X obj 101 43 inlet;
#X text -54 47 Input anything message ->;
#X text -54 39 N'importe quel message ->;
#X obj 101 101 cnv 20 130 34 empty ColorForm EEG-SimulPacket. 15 8
1 14 -262144 -1 1.04858e+06;
#X obj 101 131 cnv 4 10 4 empty empty empty 20 12 0 14 -260097 -66577
0;
#X obj 103 115 hsl 127 12 16 1024 1 1 \$0-A \$0-B 1024 0 7 1 9 -262144
-1 -1 12600 0;
#X obj 100 100 bng 12 50 50 0 \$0-A \$0-B empty 14 6 1 9 -262144 -1
-1;
#X obj 101 101 cnv 4 10 4 empty empty empty 20 12 0 14 -260097 -66577
0;
#X text 236 113 <- Amplitude;
#X obj 88 143 t b b b b b b b b b b b;
#X obj -13 109 cyclone/tosymbol;
#X obj 299 323 cnv 15 42 25 empty empty empty 20 12 0 14 -24198 -66577
0;
#N canvas 336 174 309 137 ?. 0;
#X obj 3 83 cnv 15 300 46 empty empty empty 20 12 0 14 -224896 -66577
0;
#X obj 3 6 cnv 18 300 70 empty empty ARGOPdMiniModules 3 10 1 14 -4033
-1 1.04858e+06;
#X obj 26 26 cnv 10 10 10 empty empty Gerard 0 5 1 11 -4033 -1 1.04858e+06
;
#X obj 64 26 cnv 10 10 10 empty empty Paresys 0 5 1 11 -4033 -1 1.04858e+06
;
#X obj 7 37 pddp/pddplink http://gerard.paresys.free.fr/ARGOPd/;
#X text 8 85 Construit sous / Build under Pd 0.43.4-extended;
#X obj 8 111 pddp/pddplink http://puredata.info/downloads/pd-extended
;
#X obj 7 50 pddp/pddplink http://paresys.pagesperso-orange.fr/ARGOPd/
;
#X text 7 98 or Pd-0.46-7 + deken;
#X restore 303 327 pd ?.;
#X text 183 79 20 3 2016;
#X connect 2 0 13 0;
#X connect 3 0 13 0;
#X connect 4 0 13 0;
#X connect 5 0 6 0;
#X connect 5 0 7 0;
#X connect 6 0 5 1;
#X connect 7 0 13 0;
#X connect 8 0 13 0;
#X connect 9 0 13 0;
#X connect 10 0 13 0;
#X connect 11 0 14 0;
#X connect 12 0 9 0;
#X connect 12 1 10 0;
#X connect 14 0 12 0;
#X connect 15 0 23 0;
#X connect 16 0 11 1;
#X connect 16 0 28 0;
#X connect 18 0 24 0;
#X connect 23 0 14 1;
#X connect 23 0 16 0;
#X connect 24 0 27 0;
#X connect 27 0 8 0;
#X connect 27 1 11 0;
#X connect 27 2 11 0;
#X connect 27 3 11 0;
#X connect 27 4 11 0;
#X connect 27 5 11 0;
#X connect 27 6 11 0;
#X connect 27 7 5 0;
#X connect 27 8 4 0;
#X connect 27 9 3 0;
#X connect 27 10 2 0;
#X connect 28 0 15 0;
#X coords 0 -1 1 1 132 36 1 100 100;
#X restore 358 138 pd ARGO;
#N canvas 337 44 450 567 ARGO 0;
#X obj 310 96 cnv 15 60 30 empty empty empty 20 12 0 14 -24198 -66577
0;
#N canvas 33 98 447 550 Help 0;
#X text 20 31 EEG = electroencephalography. = électro-encéphalographie
;
#X text 19 57 Décode les datas envoyées par une carte digitale ModularEEG
avec un firmware P2 par sa prise série.;
#X text 26 512 Made for:;
#X obj 19 126 cnv 15 420 370 empty empty empty 20 12 0 14 -233017 -66577
0;
#X text 23 128 Citation;
#X text 34 246 P2 uses 17 data bytes to transmit 6 channels of EEG
data:;
#X text 53 264 1: sync0 // synchronisation byte 1 = 0xa5 = 165;
#X text 53 288 3: version // version number = 2;
#X text 53 276 2: sync1 // synchronisation byte 2 = 0x5a = 90;
#X text 53 313 5: Chn1low // channel 1 low byte;
#X text 53 325 6: Chn1high // channel 1 high byte;
#X text 47 461 17: switches // State of PD5 to PD2 \, in bits 3 to
0;
#X text 53 337 7: Chn2low // channel 2 low byte;
#X text 53 349 8: Chn2high // channel 2 high byte;
#X text 53 361 9: ...;
#X text 47 374 10: ...;
#X text 47 386 11: ...;
#X text 47 398 12: ...;
#X text 47 411 13: ...;
#X text 47 423 14: ...;
#X text 47 436 15: ...;
#X text 47 449 16: Chn6high // channel 6 high byte;
#X text 53 300 4: count // packet counter. Increases by 1 each packet.
;
#X text 34 204 The P2 Firmware Protocol was the inital transmission
protocol of the OpenEEG project \, used by ModularEEG. It is compatible
with the ElectricGuru application.;
#X text 35 145 The ModularEEG device is made up of two or more EEG
amplifiers \, and a 6-channel signal capture board that connects to
a PC via a standard serial cable. The standard setup has two EEG channels.
;
#X text 4 6 -MM EEG-DecodePacket, f 21;
#X obj 20 86 pddp/pddplink http://openeeg.sourceforge.net/doc/modeeg/modeeg.html
;
#X obj 19 100 pddp/pddplink http://openeeg.sourceforge.net/doc/modeeg/modeeg_design.html
;
#X obj 20 86 pddplink http://openeeg.sourceforge.net/doc/modeeg/modeeg.html
;
#X obj 30 477 pddp/pddplink http://www.shifz.org/brainbay/manuals/brainbay_developer_manual.pdf
;
#X obj 36 525 pddp/pddplink http://openeeg.sourceforge.net/doc/;
#X restore 317 102 pd Help;
#X obj 83 50 cnv 15 340 24 empty empty empty 20 12 0 14 -261682 -66577
0;
#X obj 101 101 cnv 20 130 34 empty ColorForm EEG-DecodePacket 3 14
1 14 -262144 -1 1.04858e+06;
#X obj 101 131 cnv 4 10 4 empty empty empty 20 12 0 14 -260097 -66577
0;
#X obj 101 101 cnv 4 10 4 empty empty empty 20 12 0 14 -260097 -66577
0;
#X obj 104 169 select 165;
#X msg 180 219 17;
#X obj 87 318 unpack 1 2 3 4 5 6 7 8;
#X obj 137 124 nbx 3 12 -1e+37 1e+37 0 0 \$0-A \$0-B empty 0 -8 1 10
-262144 -1 -1 37 256;
#X obj 67 387 * 256;
#X obj 88 411 +;
#X obj 215 194 bng 15 250 50 0 empty empty empty 17 7 0 10 -262144
-1 -1;
#X obj 161 194 t b b b;
#X msg 145 219 165;
#X msg 214 221 1;
#X obj 88 434 / 512;
#X obj 88 457 - 1;
#X obj 156 296 print Packet;
#X text 169 362 Ch1;
#X text 250 362 Ch2;
#X obj 190 387 * 256;
#X obj 211 411 +;
#X obj 211 434 / 512;
#X obj 211 457 - 1;
#X obj 87 54 inlet;
#X obj 88 481 outlet;
#X obj 211 480 outlet;
#X text 85 499 -1...+1;
#X text 208 500 -1...+1;
#X text 101 516 Ch1;
#X text 224 516 Ch2;
#X text 158 349 10 bits;
#X text 238 350 10 bits;
#X obj 221 131 cnv 4 10 4 empty empty empty 20 12 0 14 -260097 -66577
0;
#X obj 101 121 cnv 3 6 6 empty ColorForm Ch1 1 5 1 9 -262144 -1 1.04858e+06
;
#X obj 215 121 cnv 3 6 6 empty ColorForm Ch2 1 5 1 9 -262144 -1 1.04858e+06
;
#X text 124 48 <- Suite de 17 nombres commencant par 165 90 2;
#X text 124 59 <- Sequence of 17 numbers starting with 165 90 2;
#X obj 169 124 tgl 12 0 \$0-A \$0-B Print 15 7 1 9 -262144 -1 -1 0
1;
#X obj 156 273 spigot;
#X text 48 337 165 90 2 Counter;
#X text 149 337 MSB1;
#X text 190 338 LSB1;
#X text 230 337 MSB2;
#X text 271 338 LSB2;
#X text 149 134 ^;
#X text 149 139 |;
#X text 134 147 Counter;
#X obj 274 503 cnv 15 42 25 empty empty empty 20 12 0 14 -24198 -66577
0;
#N canvas 336 174 309 137 ?. 0;
#X obj 3 83 cnv 15 300 46 empty empty empty 20 12 0 14 -224896 -66577
0;
#X obj 3 6 cnv 18 300 70 empty empty ARGOPdMiniModules 3 10 1 14 -4033
-1 1.04858e+06;
#X obj 26 26 cnv 10 10 10 empty empty Gerard 0 5 1 11 -4033 -1 1.04858e+06
;
#X obj 64 26 cnv 10 10 10 empty empty Paresys 0 5 1 11 -4033 -1 1.04858e+06
;
#X obj 7 37 pddp/pddplink http://gerard.paresys.free.fr/ARGOPd/;
#X text 8 85 Construit sous / Build under Pd 0.43.4-extended;
#X obj 8 111 pddp/pddplink http://puredata.info/downloads/pd-extended
;
#X obj 7 50 pddp/pddplink http://paresys.pagesperso-orange.fr/ARGOPd/
;
#X text 7 98 or Pd-0.46-7 + deken;
#X restore 278 507 pd ?.;
#X text 174 83 20 3 2016;
#X obj 87 246 list-abs/list-group 17;
#X obj 297 164 cnv 15 100 70 empty empty empty 20 12 0 14 -24198 -66577
0;
#X text 320 166 library:;
#X text 301 178 pddp;
#X text 301 211 list-abs;
#X connect 6 1 12 0;
#X connect 6 1 13 0;
#X connect 7 0 52 1;
#X connect 8 0 6 0;
#X connect 8 3 9 0;
#X connect 8 4 10 0;
#X connect 8 5 11 1;
#X connect 8 6 21 0;
#X connect 8 7 22 1;
#X connect 10 0 11 0;
#X connect 11 0 16 0;
#X connect 13 0 14 0;
#X connect 13 1 7 0;
#X connect 13 2 15 0;
#X connect 14 0 52 0;
#X connect 15 0 52 1;
#X connect 16 0 17 0;
#X connect 17 0 26 0;
#X connect 21 0 22 0;
#X connect 22 0 23 0;
#X connect 23 0 24 0;
#X connect 24 0 27 0;
#X connect 25 0 52 0;
#X connect 39 0 40 1;
#X connect 40 0 18 0;
#X connect 52 0 8 0;
#X connect 52 0 40 0;
#X coords 0 -1 1 1 132 36 1 100 100;
#X restore 358 184 pd ARGO;
#N canvas 309 88 499 409 ARGO 0;
#X obj 301 104 cnv 15 60 30 empty empty empty 20 12 0 14 -24198 -66577
0;
#N canvas 364 127 402 326 Help 0;
#X text 16 57 6 filtres passe-bandes pour séparer les ondes mesurées
par électro-encéphalographie.;
#X text 16 88 6 bandpass filters to separate the waves measured by
electroencephalography.;
#X text 15 39 EEG = electroencephalography. = électro-encéphalographie
;
#X text 17 214 Made for:;
#X obj 16 133 pddp/pddplink http://en.wikipedia.org/wiki/Electroencephalography
;
#X obj 16 149 pddp/pddplink http://fr.wikipedia.org/wiki/Rythme_cérébral
;
#X obj 16 166 pddp/pddplink http://fr.wikipedia.org/wiki/Électro-encéphalographie
;
#X obj 16 181 pddp/pddplink http://www.brainmaster.com/generalinfo/eegbands/eegbands.html
;
#X obj 24 229 pddp/pddplink http://openeeg.sourceforge.net/doc/;
#X obj 22 265 pddp/pddplink http://gerard.paresys.free.fr/Projets/ProjetEEG.html
;
#X text 14 14 - MM Flt-EEG;
#X restore 308 110 pd Help;
#X obj 101 101 cnv 20 130 34 empty ColorForm Flt-EEG 80 8 1 14 -188398
-1 1.04858e+06;
#X obj 101 131 cnv 4 10 4 empty empty empty 20 12 0 14 -1 -66577 0
;
#X obj 197 131 cnv 4 10 4 empty empty empty 0 0 0 9 -1 -66577 0;
#X obj 101 101 cnv 4 10 4 empty empty empty 20 12 0 14 -1 -66577 0
;
#X obj 148 131 cnv 4 10 4 empty empty empty 0 0 0 9 -1 -66577 0;
#X obj 123 131 cnv 4 10 4 empty empty empty 0 0 0 9 -1 -66577 0;
#X obj 21 290 lop~ 3;
#X obj 21 312 lop~ 3;
#X text 26 367 Delta;
#X text 7 381 0.1Hz...3Hz;
#X obj 84 249 hip~ 4;
#X obj 84 270 hip~ 4;
#X obj 84 291 lop~ 7;
#X obj 84 312 lop~ 7;
#X text 89 367 Theta;
#X text 81 381 4Hz...7Hz;
#X obj 146 249 hip~ 8;
#X obj 146 270 hip~ 8;
#X obj 146 291 lop~ 12;
#X obj 146 312 lop~ 12;
#X text 153 367 Alpha;
#X text 143 381 8Hz...12Hz;
#X obj 214 249 hip~ 12;
#X obj 214 270 hip~ 12;
#X obj 214 291 lop~ 30;
#X obj 214 312 lop~ 30;
#X text 224 367 Beta;
#X text 209 381 12Hz...30Hz;
#X text 291 367 Gamma;
#X text 280 381 30Hz...100Hz;
#X obj 283 247 hip~ 30;
#X obj 283 268 hip~ 30;
#X obj 89 71 inlet~;
#X obj 89 146 hip~ 0.1;
#X obj 89 167 hip~ 0.1;
#X obj 89 190 lop~ 100;
#X obj 89 211 lop~ 100;
#X obj 21 348 outlet~;
#X obj 84 347 outlet~;
#X obj 146 346 outlet~;
#X obj 214 346 outlet~;
#X obj 283 347 outlet~;
#X obj 372 349 outlet~;
#X obj 221 131 cnv 4 10 4 empty empty empty 0 0 0 9 -1 -66577 0;
#X obj 172 131 cnv 4 10 4 empty empty empty 0 0 0 9 -1 -66577 0;
#X obj 142 121 cnv 3 6 6 empty ColorForm Alpha 1 5 1 9 -188398 -1 1.04858e+06
;
#X obj 101 121 cnv 3 6 6 empty ColorForm Delta 1 5 1 9 -188398 -1 1.04858e+06
;
#X obj 116 114 cnv 3 6 6 empty ColorForm Theta 1 5 1 9 -188398 -1 1.04858e+06
;
#X obj 187 121 cnv 3 6 6 empty ColorForm Gamma 1 5 1 9 -188398 -1 1.04858e+06
;
#X obj 166 114 cnv 3 6 6 empty ColorForm Beta 1 5 1 9 -188398 -1 1.04858e+06
;
#X obj 221 121 cnv 3 6 6 empty ColorForm All 1 5 1 9 -188398 -1 1.04858e+06
;
#X text 383 367 All;
#X text 359 381 0.1Hz...100Hz;
#X obj 446 371 cnv 15 42 25 empty empty empty 20 12 0 14 -24198 -66577
0;
#N canvas 336 174 309 137 ?. 0;
#X obj 3 83 cnv 15 300 46 empty empty empty 20 12 0 14 -224896 -66577
0;
#X obj 3 6 cnv 18 300 70 empty empty ARGOPdMiniModules 3 10 1 14 -4033
-1 1.04858e+06;
#X obj 26 26 cnv 10 10 10 empty empty Gerard 0 5 1 11 -4033 -1 1.04858e+06
;
#X obj 64 26 cnv 10 10 10 empty empty Paresys 0 5 1 11 -4033 -1 1.04858e+06
;
#X obj 7 37 pddp/pddplink http://gerard.paresys.free.fr/ARGOPd/;
#X text 8 85 Construit sous / Build under Pd 0.43.4-extended;
#X obj 8 111 pddp/pddplink http://puredata.info/downloads/pd-extended
;
#X obj 7 50 pddp/pddplink http://paresys.pagesperso-orange.fr/ARGOPd/
;
#X text 7 98 or Pd-0.46-7 + deken;
#X restore 450 375 pd ?.;
#X text 171 78 20 3 2016;
#X connect 8 0 9 0;
#X connect 9 0 39 0;
#X connect 12 0 13 0;
#X connect 13 0 14 0;
#X connect 14 0 15 0;
#X connect 15 0 40 0;
#X connect 18 0 19 0;
#X connect 19 0 20 0;
#X connect 20 0 21 0;
#X connect 21 0 41 0;
#X connect 24 0 25 0;
#X connect 25 0 26 0;
#X connect 26 0 27 0;
#X connect 27 0 42 0;
#X connect 32 0 33 0;
#X connect 33 0 43 0;
#X connect 34 0 35 0;
#X connect 35 0 36 0;
#X connect 36 0 37 0;
#X connect 37 0 38 0;
#X connect 38 0 8 0;
#X connect 38 0 12 0;
#X connect 38 0 18 0;
#X connect 38 0 24 0;
#X connect 38 0 32 0;
#X connect 38 0 44 0;
#X coords 0 -1 1 1 132 36 1 100 100;
#X restore 358 249 pd ARGO;
#X obj 512 27 cnv 15 100 70 empty empty empty 20 12 0 14 -24198 -66577
0;
#X text 535 29 library:;
#X text 516 41 pddp;
#X text 516 52 cyclone;
#X text 516 74 list-abs;
#X obj 46 54 pddp/pddplink http://openeeg.sourceforge.net/doc/;
#X text 45 37 Simule des datas envoyées par une carte digitale ModularEEG
;
#X text 21 26 Simulates datas sent by a ModularEEG digita card;
#N canvas 362 47 416 224 ARGO 0;
#X obj 101 101 cnv 20 148 46 empty ColorForm PitchShift. 50 9 1 14
-188398 -1 1.04858e+06;
#X obj 101 143 cnv 4 10 4 empty empty empty 20 12 0 14 -1 -66577 0
;
#X obj 90 50 inlet~;
#X obj 101 101 cnv 4 10 4 empty empty empty 20 12 0 14 -1 -66577 0
;
#X obj 90 184 outlet~;
#X obj 19 112 cnv 15 60 30 empty empty empty 20 12 0 14 -24198 -66577
0;
#N canvas 345 36 418 512 Help 0;
#X obj 8 36 cnv 15 400 360 empty empty empty 20 12 0 14 -233017 -66577
0;
#X text 11 38 Citation;
#X text 310 10 = Transposition;
#X text 8 13 PitchShift = Pitch shifting = Décalage en hauteur;
#X text 28 54 Voir: /doc/3.audio.examples/G09.pitchshift.pd;
#X text 26 314 The Theory and Technique of Electronic Music;
#X text 26 303 Voir:;
#X text 27 327 Miller Puckette;
#X text 48 341 7.9 Pitchshifting page 202;
#X text 71 353 Pitch shifter page 218;
#X text 26 71 This is a classic rotating-tape-head style pitch shifter
using the vd~ variable delay object. Ther are two moving tape heads
\, each of which is loudest at the middle of its trajectory \, and
enveloped out at the moment it has to jump back (or forward) to start
another scratch. Most of the brain work is in computing how fast the
tape heads have to move to get the desired transposition.;
#X text 25 170 The "window size" is the total trajectory of the read
points in the delay line \, in milliseconds. The delay times are controlled
by a phasor~ object. The second delay time \, 180 degrees out of phase
from the first one \, is computed using the "wrap" object.;
#X text 25 243 The cos~ objects compute the fadein and fadeout of the
two delay line outputs. They each traverse the positive half of the
cosine waveform (phase -0.25 to +0.25) over the time the phase goes
from one end to the other.;
#X text 7 431 Cela evite de devoir nommer la "delay line".;
#X text 6 448 Le MiniModule est ainsi duplicable et peux être présent
à 2 exemplaires dans un même patch.;
#X text 7 400 (delwrite~ G09-del 5000) + (vd~ G09-del) est remplacé
par (cyclone/comb~ 5000 0 0 1 0).;
#X obj 27 368 pddp/pddplink http://crca.ucsd.edu/%7Emsp/techniques/latest/book.pdf
;
#X restore 26 118 pd Help;
#X obj 103 118 hsl 145 12 -36 36 0 1 \$0-A ColorTime 24semitone 0 7
1 9 -208064 -1728 -1 12000 0;
#X obj 239 101 cnv 4 10 4 empty empty empty 20 12 0 14 -260097 -66577
0;
#N canvas 484 315 248 174 label 0;
#X obj 38 154 outlet;
#X obj 38 8 inlet;
#X msg 38 120 label \$1;
#X obj 38 35 expr (int(100 * $f1) / 100) \;;
#X obj 38 64 cyclone/sprintf %ssemitone;
#X obj 38 98 symbol;
#X connect 1 0 3 0;
#X connect 2 0 0 0;
#X connect 3 0 4 0;
#X connect 4 0 5 0;
#X connect 5 0 2 0;
#X restore 257 108 pd label;
#X obj 149 47 cnv 15 100 24 empty empty empty 20 12 0 14 -261682 -66577
0;
#X text 149 44 Nombre ->;
#X text 149 54 Number ->;
#X obj 209 50 inlet;
#X obj 103 130 hsl 145 12 1 1000 1 1 \$0-A ColorTime 205ms 0 7 1 9
-208064 -1728 -1 11100 0;
#N canvas 501 238 171 165 label 0;
#X obj 30 134 outlet;
#X obj 30 15 inlet;
#X msg 30 100 label \$1;
#X obj 30 44 cyclone/sprintf %dms;
#X obj 30 78 symbol;
#X connect 1 0 3 0;
#X connect 2 0 0 0;
#X connect 3 0 4 0;
#X connect 4 0 2 0;
#X restore 257 138 pd label;
#N canvas 339 115 459 487 PitchShift 0;
#X obj 44 35 inlet~;
#X obj 164 460 outlet~;
#X obj 109 32 inlet;
#X obj 268 33 inlet;
#X obj 89 324 *~;
#X obj 268 159 line~;
#X obj 268 133 pack 0 200;
#X obj 109 75 exp;
#X obj 71 192 /;
#X obj 210 135 * 0.001;
#X obj 7 398 cos~;
#X obj 19 425 *~;
#X obj 238 291 wrap~;
#X obj 322 326 *~;
#X obj 238 398 cos~;
#X obj 250 425 *~;
#X obj 210 162 t b f;
#X obj 238 264 +~ 0.5;
#X obj 7 341 -~ 0.5;
#X obj 7 369 *~ 0.5;
#X obj 238 334 -~ 0.5;
#X obj 238 369 *~ 0.5;
#X obj 71 139 - 1;
#X obj 109 54 * 0.05776;
#X obj 71 160 * -1;
#X text 94 16 (halftones);
#X text 106 185 tape head;
#X obj 71 220 phasor~;
#X obj 268 78 max 1;
#X text 107 198 rotation freq;
#X text 90 3 transposition;
#X text 242 10 window (msec);
#X msg 321 163 clear;
#X obj 51 398 cyclone/comb~ 5000 0 0 1 0;
#X obj 284 398 cyclone/comb~ 5000 0 0 1 0;
#X text 111 91 <- speed change;
#X obj 89 369 +~ 2;
#X obj 322 369 +~ 2;
#X connect 0 0 33 0;
#X connect 0 0 34 0;
#X connect 2 0 23 0;
#X connect 3 0 28 0;
#X connect 4 0 36 0;
#X connect 5 0 4 1;
#X connect 5 0 13 1;
#X connect 6 0 5 0;
#X connect 7 0 22 0;
#X connect 8 0 27 0;
#X connect 9 0 16 0;
#X connect 10 0 11 0;
#X connect 11 0 1 0;
#X connect 12 0 13 0;
#X connect 12 0 20 0;
#X connect 13 0 37 0;
#X connect 14 0 15 0;
#X connect 15 0 1 0;
#X connect 16 0 8 0;
#X connect 16 1 8 1;
#X connect 17 0 12 0;
#X connect 18 0 19 0;
#X connect 19 0 10 0;
#X connect 20 0 21 0;
#X connect 21 0 14 0;
#X connect 22 0 24 0;
#X connect 23 0 7 0;
#X connect 24 0 8 0;
#X connect 27 0 4 0;
#X connect 27 0 18 0;
#X connect 27 0 17 0;
#X connect 28 0 9 0;
#X connect 28 0 6 0;
#X connect 32 0 33 0;
#X connect 32 0 34 0;
#X connect 33 0 11 1;
#X connect 34 0 15 1;
#X connect 36 0 33 1;
#X connect 37 0 34 1;
#X restore 90 156 pd PitchShift;
#X text 181 29 -36..+36 semitones;
#X obj 305 17 cnv 15 100 70 empty empty empty 20 12 0 14 -24198 -66577
0;
#X text 328 19 library:;
#X text 309 30 pddp;
#X text 309 41 cyclone;
#X text 309 52 zexy;
#X text 122 82 26 2 2018;
#X obj 352 177 cnv 15 42 25 empty empty empty 20 12 0 14 -24198 -66577
0;
#N canvas 336 174 316 152 ?. 0;
#X obj 8 84 cnv 15 300 56 empty empty empty 20 12 0 14 -224896 -66577
0;
#X obj 8 7 cnv 18 300 70 empty empty ARGOPdMiniModules 3 10 1 14 -4033
-1 1.04858e+06;
#X obj 31 27 cnv 10 10 10 empty empty Gerard 0 5 1 11 -4033 -1 1.04858e+06
;
#X obj 69 27 cnv 10 10 10 empty empty Paresys 0 5 1 11 -4033 -1 1.04858e+06
;
#X obj 12 40 pddp/pddplink http://gerard.paresys.free.fr/ARGOPd/;
#X text 13 85 Construit sous / Build under Pd 0.43.4-extended;
#X obj 13 111 pddp/pddplink http://puredata.info/downloads/pd-extended
;
#X obj 12 53 pddp/pddplink http://paresys.pagesperso-orange.fr/ARGOPd/
;
#X text 12 98 or Pd-0.48;
#X obj 13 124 pddp/pddplink http://puredata.info/downloads/pure-data
;
#X restore 356 181 pd ?.;
#X connect 2 0 16 0;
#X connect 7 0 9 0;
#X connect 7 0 16 1;
#X connect 9 0 7 0;
#X connect 13 0 7 0;
#X connect 14 0 15 0;
#X connect 14 0 16 2;
#X connect 15 0 14 0;
#X connect 16 0 4 0;
#X coords 0 -1 1 1 150 48 1 100 100;
#X restore 173 485 pd ARGO;
#N canvas 392 69 384 278 ARGO 0;
#X obj 201 101 cnv 20 104 34 empty ColorAmpli Tanh. 70 9 1 14 -261299
-1 1.04858e+06;
#X obj 185 252 outlet~;
#X obj 185 72 inlet~;
#X obj 185 200 *~;
#X obj 203 118 hsl 101 12 -20 80 0 1 \$0-A ColorAmpli 26dB 0 7 1 9
-261299 -1 -1 4600 0;
#X msg 56 139 label \$1;
#X obj 201 101 cnv 4 10 4 empty empty empty 20 12 0 14 -1 -66577 0
;
#X obj 201 131 cnv 4 10 4 empty empty empty 20 12 0 14 -1 -66577 0
;
#X obj 200 163 expr (pow(10 \, $f1 / 20));
#X obj 185 227 cyclone/tanh~;
#X obj 101 34 cnv 15 60 30 empty empty empty 20 12 0 14 -24198 -66577
0;
#N canvas 341 91 419 312 Help 0;
#X obj 8 7 cnv 15 400 290 empty empty empty 20 12 0 14 -233017 -66577
0;
#X text 11 6 Citation;
#X text 27 32 cyclone library;
#X text 27 44 calculate hyperbolic tangent function;
#X text 27 21 tanh~;
#X text 27 166 cf doc Max/MSP -> MSP46ReferenceManual.pdf;
#X text 27 92 outputs signal values always between -1 and 1;
#X text 27 112 turn a sine wave into a square wave by cranking up the
volume!;
#X text 27 61 can be used to simulate analog distortion \, and is much
"smoother" than using clip~;
#X obj 27 144 pddp/pddplink http://suita.chopin.edu.pl/~czaja/miXed/externs/cyclone.html
;
#X restore 108 40 pd Help;
#X text 207 140 -> -20..80;
#X text 206 182 -> 0.1..10000 = -20dB..80dB;
#X obj 55 94 cyclone/sprintf %ddB;
#X text 309 97 26 2 2018;
#X obj 327 241 cnv 15 42 25 empty empty empty 20 12 0 14 -24198 -66577
0;
#N canvas 336 174 316 152 ?. 0;
#X obj 8 84 cnv 15 300 56 empty empty empty 20 12 0 14 -224896 -66577
0;
#X obj 8 7 cnv 18 300 70 empty empty ARGOPdMiniModules 3 10 1 14 -4033
-1 1.04858e+06;
#X obj 31 27 cnv 10 10 10 empty empty Gerard 0 5 1 11 -4033 -1 1.04858e+06
;
#X obj 69 27 cnv 10 10 10 empty empty Paresys 0 5 1 11 -4033 -1 1.04858e+06
;
#X obj 12 40 pddp/pddplink http://gerard.paresys.free.fr/ARGOPd/;
#X text 13 85 Construit sous / Build under Pd 0.43.4-extended;
#X obj 13 111 pddp/pddplink http://puredata.info/downloads/pd-extended
;
#X obj 12 53 pddp/pddplink http://paresys.pagesperso-orange.fr/ARGOPd/
;
#X text 12 98 or Pd-0.48;
#X obj 13 124 pddp/pddplink http://puredata.info/downloads/pure-data
;
#X restore 331 245 pd ?.;
#X obj 55 116 symbol;
#X obj 242 12 cnv 15 100 70 empty empty empty 20 12 0 14 -24198 -66577
0;
#X text 265 14 library:;
#X text 246 25 pddp;
#X text 246 36 cyclone;
#X connect 2 0 3 0;
#X connect 3 0 9 0;
#X connect 4 0 8 0;
#X connect 4 0 14 0;
#X connect 5 0 4 0;
#X connect 8 0 3 1;
#X connect 9 0 1 0;
#X connect 14 0 18 0;
#X connect 18 0 5 0;
#X coords 0 -1 1 1 106 36 1 200 100;
#X restore 173 540 pd ARGO;
#N canvas 392 69 384 278 ARGO 0;
#X obj 201 101 cnv 20 104 34 empty ColorAmpli Tanh. 70 9 1 14 -261299
-1 1.04858e+06;
#X obj 185 252 outlet~;
#X obj 185 72 inlet~;
#X obj 185 200 *~;
#X obj 203 118 hsl 101 12 -20 80 0 1 \$0-A ColorAmpli 35dB 0 7 1 9
-261299 -1 -1 5500 0;
#X msg 56 139 label \$1;
#X obj 201 101 cnv 4 10 4 empty empty empty 20 12 0 14 -1 -66577 0
;
#X obj 201 131 cnv 4 10 4 empty empty empty 20 12 0 14 -1 -66577 0
;
#X obj 200 163 expr (pow(10 \, $f1 / 20));
#X obj 185 227 cyclone/tanh~;
#X obj 101 34 cnv 15 60 30 empty empty empty 20 12 0 14 -24198 -66577
0;
#N canvas 341 91 419 312 Help 0;
#X obj 8 7 cnv 15 400 290 empty empty empty 20 12 0 14 -233017 -66577
0;
#X text 11 6 Citation;
#X text 27 32 cyclone library;
#X text 27 44 calculate hyperbolic tangent function;
#X text 27 21 tanh~;
#X text 27 166 cf doc Max/MSP -> MSP46ReferenceManual.pdf;
#X text 27 92 outputs signal values always between -1 and 1;
#X text 27 112 turn a sine wave into a square wave by cranking up the
volume!;
#X text 27 61 can be used to simulate analog distortion \, and is much
"smoother" than using clip~;
#X obj 27 144 pddp/pddplink http://suita.chopin.edu.pl/~czaja/miXed/externs/cyclone.html
;
#X restore 108 40 pd Help;
#X text 207 140 -> -20..80;
#X text 206 182 -> 0.1..10000 = -20dB..80dB;
#X obj 55 94 cyclone/sprintf %ddB;
#X text 309 97 26 2 2018;
#X obj 327 241 cnv 15 42 25 empty empty empty 20 12 0 14 -24198 -66577
0;
#N canvas 336 174 316 152 ?. 0;
#X obj 8 84 cnv 15 300 56 empty empty empty 20 12 0 14 -224896 -66577
0;
#X obj 8 7 cnv 18 300 70 empty empty ARGOPdMiniModules 3 10 1 14 -4033
-1 1.04858e+06;
#X obj 31 27 cnv 10 10 10 empty empty Gerard 0 5 1 11 -4033 -1 1.04858e+06
;
#X obj 69 27 cnv 10 10 10 empty empty Paresys 0 5 1 11 -4033 -1 1.04858e+06
;
#X obj 12 40 pddp/pddplink http://gerard.paresys.free.fr/ARGOPd/;
#X text 13 85 Construit sous / Build under Pd 0.43.4-extended;
#X obj 13 111 pddp/pddplink http://puredata.info/downloads/pd-extended
;
#X obj 12 53 pddp/pddplink http://paresys.pagesperso-orange.fr/ARGOPd/
;
#X text 12 98 or Pd-0.48;
#X obj 13 124 pddp/pddplink http://puredata.info/downloads/pure-data
;
#X restore 331 245 pd ?.;
#X obj 55 116 symbol;
#X obj 242 12 cnv 15 100 70 empty empty empty 20 12 0 14 -24198 -66577
0;
#X text 265 14 library:;
#X text 246 25 pddp;
#X text 246 36 cyclone;
#X connect 2 0 3 0;
#X connect 3 0 9 0;
#X connect 4 0 8 0;
#X connect 4 0 14 0;
#X connect 5 0 4 0;
#X connect 8 0 3 1;
#X connect 9 0 1 0;
#X connect 14 0 18 0;
#X connect 18 0 5 0;
#X coords 0 -1 1 1 106 36 1 200 100;
#X restore 364 540 pd ARGO;
#N canvas 175 68 381 386 ARGO 0;
#X obj 101 101 cnv 20 116 34 empty ColorAmpli empty 20 12 0 14 -261299
-1 1.04858e+06;
#X obj 85 353 outlet~;
#X obj 157 104 cnv 10 20 10 empty ColorAmpli Ampli. 1 5 1 14 -261299
-1 1.04858e+06;
#X obj 85 43 inlet~;
#X obj 85 330 *~;
#X obj 115 118 hsl 101 12 -80 20 0 1 \$0-A ColorAmpli -3dB 0 7 1 9
-261299 -1 -1 7700 0;
#X obj 101 101 cnv 4 10 4 empty empty empty 20 12 0 14 -1 -66577 0
;
#X obj 101 131 cnv 4 10 4 empty empty empty 20 12 0 14 -1 -66577 0
;
#X obj 207 101 cnv 4 10 4 empty empty empty 20 12 0 14 -1 -66577 0
;
#X obj 207 131 cnv 4 10 4 empty empty empty 20 12 0 14 -1 -66577 0
;
#X obj 222 352 outlet~;
#X obj 222 42 inlet~;
#X obj 222 329 *~;
#X msg -42 138 label \$1;
#X text 148 194 -> 0.0001..10 = -80dB..20dB;
#X obj 142 175 expr (pow(10 \, $f1 / 20));
#X obj 142 215 sel 0.0001;
#X msg 100 244 0;
#X obj 100 118 tgl 12 1 \$0-A \$0-B Mute 2 -5 1 9 -261299 -1 -1 0 1
;
#X obj 99 146 select 0 1;
#X obj 140 295 line~;
#X obj 140 275 pack 0 10;
#X msg 123 74 set 0;
#X obj -42 92 cyclone/sprintf %ddB;
#X text 228 110 6 3 2016;
#X obj -42 115 cyclone/tosymbol;
#X obj 273 344 cnv 15 42 25 empty empty empty 20 12 0 14 -24198 -66577
0;
#N canvas 336 174 309 137 ?. 0;
#X obj 3 83 cnv 15 300 46 empty empty empty 20 12 0 14 -224896 -66577
0;
#X obj 3 6 cnv 18 300 70 empty empty ARGOPdMiniModules 3 10 1 14 -4033
-1 1.04858e+06;
#X obj 26 26 cnv 10 10 10 empty empty Gerard 0 5 1 11 -4033 -1 1.04858e+06
;
#X obj 64 26 cnv 10 10 10 empty empty Paresys 0 5 1 11 -4033 -1 1.04858e+06
;
#X obj 7 37 pddp/pddplink http://gerard.paresys.free.fr/ARGOPd/;
#X text 8 85 Construit sous / Build under Pd 0.43.4-extended;
#X obj 8 111 pddp/pddplink http://puredata.info/downloads/pd-extended
;
#X obj 7 50 pddp/pddplink http://paresys.pagesperso-orange.fr/ARGOPd/
;
#X text 7 98 or Pd-0.46-7 + deken;
#X restore 277 348 pd ?.;
#X connect 3 0 4 0;
#X connect 4 0 1 0;
#X connect 5 0 15 0;
#X connect 5 0 23 0;
#X connect 11 0 12 0;
#X connect 12 0 10 0;
#X connect 13 0 5 0;
#X connect 15 0 16 0;
#X connect 16 0 17 0;
#X connect 16 1 21 0;
#X connect 16 1 22 0;
#X connect 17 0 21 0;
#X connect 17 0 25 0;
#X connect 18 0 19 0;
#X connect 19 0 5 0;
#X connect 19 1 17 0;
#X connect 20 0 12 1;
#X connect 20 0 4 1;
#X connect 21 0 20 0;
#X connect 22 0 18 0;
#X connect 23 0 25 0;
#X connect 25 0 13 0;
#X coords 0 -1 1 1 118 36 1 100 100;
#X restore 219 586 pd ARGO;
#N canvas 446 64 251 267 ARGO 0;
#X obj 101 104 cnv 30 49 130 empty ColorAmpli empty 20 12 0 14 -1 -258113
0;
#X obj 102 110 vu 8 120 \$0-B empty 0 0 1 11 -1 -4034 0 0;
#X obj 49 35 inlet~;
#X obj 22 108 cnv 15 60 30 empty empty empty 20 12 0 14 -24198 -66577
0;
#N canvas 300 65 442 264 Help 0;
#X obj 12 48 cnv 15 400 150 empty empty empty 20 12 0 14 -233017 -66577
0;
#X text 16 50 Citation;
#X text 28 67 peakamp~ tracks and outputs the absolute value of the
peak amplitude of the incoming signal. It outputs when banged or using
its own internal clock. The peak value is reset each time peakamp~
outputs a value.;
#X text 29 123 cyclone library;
#X text 28 135 http://suita.chopin.edu.pl/~czaja/miXed/externs/cyclone.html
;
#X text 29 155 Voir doc Max/MSP MSP46ReferenceManual.pdf;
#X text 18 14 MM-Vumetre;
#X restore 29 114 pd Help;
#N canvas 541 112 317 265 VuMetre 0;
#X obj 48 19 inlet~;
#X obj 41 54 *~;
#X obj -25 132 snapshot~;
#X obj -25 155 sqrt;
#X obj -25 100 lop~ 10;
#X obj -25 179 rmstodb;
#X obj -88 19 loadbang;
#X obj -25 202 - 100;
#X obj 58 156 sqrt;
#X obj 58 180 rmstodb;
#X obj 58 203 - 100;
#X obj -89 102 metro 200;
#X obj -28 19 r SendFluid;
#X obj 58 102 cyclone/peakamp~ 1000;
#X obj -25 228 outlet;
#X obj 58 227 outlet;
#X connect 0 0 1 0;
#X connect 0 0 1 1;
#X connect 1 0 4 0;
#X connect 1 0 13 0;
#X connect 2 0 3 0;
#X connect 3 0 5 0;
#X connect 4 0 2 0;
#X connect 5 0 7 0;
#X connect 6 0 11 0;
#X connect 7 0 14 0;
#X connect 8 0 9 0;
#X connect 9 0 10 0;
#X connect 10 0 15 0;
#X connect 11 0 2 0;
#X connect 12 0 11 1;
#X connect 13 0 8 0;
#X restore 49 63 pd VuMetre;
#X obj 172 211 cnv 15 42 25 empty empty empty 20 12 0 14 -24198 -66577
0;
#N canvas 336 174 309 137 ?. 0;
#X obj 3 83 cnv 15 300 46 empty empty empty 20 12 0 14 -224896 -66577
0;
#X obj 3 6 cnv 18 300 70 empty empty ARGOPdMiniModules 3 10 1 14 -4033
-1 1.04858e+06;
#X obj 26 26 cnv 10 10 10 empty empty Gerard 0 5 1 11 -4033 -1 1.04858e+06
;
#X obj 64 26 cnv 10 10 10 empty empty Paresys 0 5 1 11 -4033 -1 1.04858e+06
;
#X obj 7 37 pddp/pddplink http://gerard.paresys.free.fr/ARGOPd/;
#X text 8 85 Construit sous / Build under Pd 0.43.4-extended;
#X obj 8 111 pddp/pddplink http://puredata.info/downloads/pd-extended
;
#X obj 7 50 pddp/pddplink http://paresys.pagesperso-orange.fr/ARGOPd/
;
#X text 7 98 or Pd-0.46-7 + deken;
#X restore 176 215 pd ?.;
#X obj 113 110 vu 8 120 \$0-B empty 0 0 1 11 -1 -4034 1 0;
#X obj 126 35 inlet~;
#N canvas 541 112 317 265 VuMetre 0;
#X obj 48 19 inlet~;
#X obj 41 54 *~;
#X obj -25 132 snapshot~;
#X obj -25 155 sqrt;
#X obj -25 100 lop~ 10;
#X obj -25 179 rmstodb;
#X obj -88 19 loadbang;
#X obj -25 202 - 100;
#X obj 58 156 sqrt;
#X obj 58 180 rmstodb;
#X obj 58 203 - 100;
#X obj -89 102 metro 200;
#X obj -28 19 r SendFluid;
#X obj 58 102 cyclone/peakamp~ 1000;
#X obj -25 228 outlet;
#X obj 58 227 outlet;
#X connect 0 0 1 0;
#X connect 0 0 1 1;
#X connect 1 0 4 0;
#X connect 1 0 13 0;
#X connect 2 0 3 0;
#X connect 3 0 5 0;
#X connect 4 0 2 0;
#X connect 5 0 7 0;
#X connect 6 0 11 0;
#X connect 7 0 14 0;
#X connect 8 0 9 0;
#X connect 9 0 10 0;
#X connect 10 0 15 0;
#X connect 11 0 2 0;
#X connect 12 0 11 1;
#X connect 13 0 8 0;
#X restore 126 63 pd VuMetre;
#X text 153 87 3 3 2019;
#X connect 2 0 5 0;
#X connect 5 0 1 0;
#X connect 5 1 1 1;
#X connect 9 0 10 0;
#X connect 10 0 8 0;
#X connect 10 1 8 1;
#X coords 0 -1 1 1 51 135 2 100 100;
#X restore 335 631 pd ARGO;
#X obj 47 64 pddp/pddplink http://gerard.paresys.free.fr/Theme/Theme10.html
;
#X connect 3 0 2 0;
#X connect 8 0 9 0;
#X connect 9 0 19 0;
#X connect 10 0 21 0;
#X connect 19 0 20 0;
#X connect 20 0 10 0;
#X connect 21 0 16 0;
#X connect 21 1 16 1;
#X connect 21 1 30 0;
#X connect 21 2 14 0;
#X connect 21 2 32 0;
#X connect 21 3 14 1;
#X connect 21 4 15 0;
#X connect 21 5 15 1;
#X connect 30 0 31 0;
#X connect 31 0 33 0;
#X connect 32 0 33 1;
#X connect 33 0 1 0;
#X connect 33 0 34 0;
#X connect 33 1 1 1;
#X connect 33 1 34 1;
