#N canvas 342 23 504 483 10;
#X text 52 200 NoteMIDI 0..127 = C-2..G8 ->;
#X text 178 211 Bang ->;
#X obj 8 9 cnv 15 15 15 empty empty ExMM105a-Synth5.pd 0 8 1 14 -262144
-1 0;
#X text 332 51 -> Saturation;
#X text 32 30 Synth5 = Synthétiseur 5 = Synthesizer 5;
#X text 131 69 Sinusoidal Oscillator -> Attack/Decay envelope;
#X text 32 51 Oscillateur sinusoidal -> Enveloppe Attaque/Chute;
#X text 413 69 -> Saturation;
#X text 363 262 <- Adjust;
#X obj 199 456 dac~ 1 2;
#N canvas 175 68 374 396 ARGO 0;
#X obj 101 101 cnv 20 116 34 empty ColorAmpli empty 20 12 0 14 -261299
-1 1.04858e+06;
#X obj 85 353 outlet~;
#X obj 157 104 cnv 10 20 10 empty ColorAmpli Ampli. 1 5 1 14 -261299
-1 1.04858e+06;
#X obj 85 43 inlet~;
#X obj 85 330 *~;
#X obj 115 118 hsl 101 12 -80 20 0 1 \$0-A ColorAmpli -3dB 0 7 1 9
-261299 -1 -1 7700 0;
#X obj 101 101 cnv 4 10 4 empty empty empty 20 12 0 14 -1 -66577 0
;
#X obj 101 131 cnv 4 10 4 empty empty empty 20 12 0 14 -1 -66577 0
;
#X msg -42 139 label \$1;
#X text 148 194 -> 0.0001..10 = -80dB..20dB;
#X obj 142 175 expr (pow(10 \, $f1 / 20));
#X obj 142 215 sel 0.0001;
#X msg 100 244 0;
#X obj 100 118 tgl 12 1 \$0-A \$0-B Mute 2 -5 1 9 -261299 -1 -1 0 1
;
#X obj 99 146 select 0 1;
#X obj 140 295 line~;
#X obj 140 275 pack 0 10;
#X msg 123 74 set 0;
#X obj -42 93 cyclone/sprintf %ddB;
#X obj -42 116 cyclone/tosymbol;
#X obj 261 342 cnv 15 42 25 empty empty empty 20 12 0 14 -24198 -66577
0;
#N canvas 336 174 309 137 ?. 0;
#X obj 3 83 cnv 15 300 46 empty empty empty 20 12 0 14 -224896 -66577
0;
#X obj 3 6 cnv 18 300 70 empty empty ARGOPdMiniModules 3 10 1 14 -4033
-1 1.04858e+06;
#X obj 26 26 cnv 10 10 10 empty empty Gerard 0 5 1 11 -4033 -1 1.04858e+06
;
#X obj 64 26 cnv 10 10 10 empty empty Paresys 0 5 1 11 -4033 -1 1.04858e+06
;
#X obj 7 37 pddp/pddplink http://gerard.paresys.free.fr/ARGOPd/;
#X text 8 85 Construit sous / Build under Pd 0.43.4-extended;
#X obj 8 111 pddp/pddplink http://puredata.info/downloads/pd-extended
;
#X obj 7 50 pddp/pddplink http://paresys.pagesperso-orange.fr/ARGOPd/
;
#X text 7 98 or Pd-0.46-7 + deken;
#X restore 265 346 pd ?.;
#X text 228 110 17 3 2016;
#X connect 3 0 4 0;
#X connect 4 0 1 0;
#X connect 5 0 10 0;
#X connect 5 0 18 0;
#X connect 8 0 5 0;
#X connect 10 0 11 0;
#X connect 11 0 12 0;
#X connect 11 1 16 0;
#X connect 11 1 17 0;
#X connect 12 0 16 0;
#X connect 12 0 19 0;
#X connect 13 0 14 0;
#X connect 14 0 5 0;
#X connect 14 1 12 0;
#X connect 15 0 4 1;
#X connect 16 0 15 0;
#X connect 17 0 13 0;
#X connect 18 0 19 0;
#X connect 19 0 8 0;
#X coords 0 -1 1 1 118 36 1 100 100;
#X restore 227 288 pd ARGO;
#X obj 303 451 cnv 15 52 22 empty empty empty 20 12 0 14 -24198 -66577
0;
#N canvas 432 42 236 269 ARGO 0;
#X obj 101 104 cnv 30 37 130 empty ColorAmpli empty 20 12 0 14 -1 -258113
0;
#X obj 101 110 vu 8 120 \$0-B empty 0 0 1 11 -1 -4034 1 0;
#X obj 74 34 inlet~;
#X obj 10 33 cnv 15 60 30 empty empty empty 20 12 0 14 -24198 -66577
0;
#N canvas 300 65 442 264 Help 0;
#X obj 12 48 cnv 15 400 150 empty empty empty 20 12 0 14 -233017 -66577
0;
#X text 16 50 Citation;
#X text 28 67 peakamp~ tracks and outputs the absolute value of the
peak amplitude of the incoming signal. It outputs when banged or using
its own internal clock. The peak value is reset each time peakamp~
outputs a value.;
#X text 29 123 cyclone library;
#X text 28 135 http://suita.chopin.edu.pl/~czaja/miXed/externs/cyclone.html
;
#X text 29 155 Voir doc Max/MSP MSP46ReferenceManual.pdf;
#X text 18 14 MM-Vumetre;
#X restore 17 39 pd Help;
#N canvas 541 112 317 265 VuMetre 0;
#X obj 48 19 inlet~;
#X obj 41 54 *~;
#X obj -25 132 snapshot~;
#X obj -25 155 sqrt;
#X obj -25 100 lop~ 10;
#X obj -25 179 rmstodb;
#X obj -88 19 loadbang;
#X obj -25 202 - 100;
#X obj 58 156 sqrt;
#X obj 58 180 rmstodb;
#X obj 58 203 - 100;
#X obj -89 102 metro 200;
#X obj -28 19 r SendFluid;
#X obj 58 102 cyclone/peakamp~ 1000;
#X obj -25 228 outlet;
#X obj 58 227 outlet;
#X connect 0 0 1 0;
#X connect 0 0 1 1;
#X connect 1 0 4 0;
#X connect 1 0 13 0;
#X connect 2 0 3 0;
#X connect 3 0 5 0;
#X connect 4 0 2 0;
#X connect 5 0 7 0;
#X connect 6 0 11 0;
#X connect 7 0 14 0;
#X connect 8 0 9 0;
#X connect 9 0 10 0;
#X connect 10 0 15 0;
#X connect 11 0 2 0;
#X connect 12 0 11 1;
#X connect 13 0 8 0;
#X restore 74 59 pd VuMetre;
#X obj 172 211 cnv 15 42 25 empty empty empty 20 12 0 14 -24198 -66577
0;
#N canvas 336 174 309 137 ?. 0;
#X obj 3 83 cnv 15 300 46 empty empty empty 20 12 0 14 -224896 -66577
0;
#X obj 3 6 cnv 18 300 70 empty empty ARGOPdMiniModules 3 10 1 14 -4033
-1 1.04858e+06;
#X obj 26 26 cnv 10 10 10 empty empty Gerard 0 5 1 11 -4033 -1 1.04858e+06
;
#X obj 64 26 cnv 10 10 10 empty empty Paresys 0 5 1 11 -4033 -1 1.04858e+06
;
#X obj 7 37 pddp/pddplink http://gerard.paresys.free.fr/ARGOPd/;
#X text 8 85 Construit sous / Build under Pd 0.43.4-extended;
#X obj 8 111 pddp/pddplink http://puredata.info/downloads/pd-extended
;
#X obj 7 50 pddp/pddplink http://paresys.pagesperso-orange.fr/ARGOPd/
;
#X text 7 98 or Pd-0.46-7 + deken;
#X restore 176 215 pd ?.;
#X text 127 87 3 3 2019;
#X connect 2 0 5 0;
#X connect 5 0 1 0;
#X connect 5 1 1 1;
#X coords 0 -1 1 1 39 135 2 100 100;
#X restore 259 337 pd ARGO;
#N canvas 353 174 321 152 ?... 0;
#X obj 8 84 cnv 15 300 56 empty empty empty 20 12 0 14 -224896 -66577
0;
#X obj 8 7 cnv 18 300 70 empty empty ARGOPdMiniModules 3 10 1 14 -4033
-1 1.04858e+06;
#X obj 31 27 cnv 10 10 10 empty empty Gerard 0 5 1 11 -4033 -1 1.04858e+06
;
#X obj 69 27 cnv 10 10 10 empty empty Paresys 0 5 1 11 -4033 -1 1.04858e+06
;
#X obj 12 40 pddp/pddplink http://gerard.paresys.free.fr/ARGOPd/;
#X obj 13 121 pddp/pddplink http://puredata.info/downloads/pd-extended
;
#X obj 13 97 pddp/pddplink http://puredata.info/downloads/pure-data
;
#X text 13 85 Construit sous / Build under Pd-0.49...;
#X text 12 109 or Pd 0.43.4-extended;
#X obj 12 53 pddp/pddplink https://paresys.pagesperso-orange.fr/ARGOPd/
;
#X restore 306 454 pd ?...;
#X text 121 299 Niveau general ->;
#X text 127 309 General level ->;
#X obj 39 144 switch~;
#N canvas 608 166 228 173 ARGOnOff 0;
#X obj 100 100 tgl 18 1 \$0-SendOnOff \$0-ReceiveOnOff On/Off 20 11
1 14 -4033 -1 -1 1 1;
#X obj 99 10 loadbang;
#X msg 99 33 \; pd dsp 1;
#X obj 100 129 outlet;
#X text -50 99 Audio On/Off du patch ->;
#X text -22 45 Audio General On ->;
#X text 107 82 17 3 2010;
#X connect 0 0 3 0;
#X connect 1 0 2 0;
#X coords 0 -1 1 1 65 18 2 100 100;
#X restore 39 126 pd ARGOnOff;
#X text 44 110 V;
#X text 44 103 |;
#X text 32 92 On/Off Patch;
#X text 62 104 (Audio);
#N canvas 255 35 367 262 ARGO 0;
#X obj 272 45 cnv 15 60 30 empty empty empty 20 12 0 14 -24198 -66577
0;
#N canvas 424 180 418 133 Help 0;
#X text 10 51 Un "Bang" sort chaque X msec.;
#X text 8 83 A "Bang" outputs every X msec.;
#X restore 279 51 pd Help;
#X obj 95 198 cnv 15 170 24 empty empty empty 20 12 0 14 -261682 -66577
0;
#X obj 100 202 outlet;
#X obj 101 101 cnv 10 132 36 empty ColorForm Oscill. 80 9 1 14 -208064
-1 1.04858e+06;
#X obj 100 125 bng 12 50 50 0 \$0-A \$0-B empty 14 6 1 9 -262144 -1
-1;
#X obj 101 133 cnv 4 10 4 empty empty empty 20 12 0 14 -260097 -66577
0;
#X obj 100 113 nbx 6 12 1 999999 0 1 \$0-A ColorTime ms 40 17 1 9 -208064
-1 -1 1000 256;
#X text 146 206 -> Bang;
#X text 145 196 -> Bang;
#X obj 100 100 tgl 12 1 \$0-A \$0-B empty 17 7 0 10 -262144 -1 -1 1
1;
#X obj 68 8 cnv 15 90 60 empty empty empty 20 12 0 14 -261682 -66577
0;
#X obj 101 101 cnv 4 10 4 empty empty empty 20 12 0 14 -260097 -66577
0;
#X obj 28 145 metro 300;
#X obj 223 101 cnv 4 10 4 empty empty empty 20 12 0 14 -260097 -66577
0;
#X obj 215 45 inlet;
#X text 238 95 <- ms;
#X obj 270 202 cnv 15 52 22 empty empty empty 20 12 0 14 -24198 -66577
0;
#N canvas 353 174 321 152 ?... 0;
#X obj 8 84 cnv 15 300 56 empty empty empty 20 12 0 14 -224896 -66577
0;
#X obj 8 7 cnv 18 300 70 empty empty ARGOPdMiniModules 3 10 1 14 -4033
-1 1.04858e+06;
#X obj 31 27 cnv 10 10 10 empty empty Gerard 0 5 1 11 -4033 -1 1.04858e+06
;
#X obj 69 27 cnv 10 10 10 empty empty Paresys 0 5 1 11 -4033 -1 1.04858e+06
;
#X obj 12 40 pddp/pddplink http://gerard.paresys.free.fr/ARGOPd/;
#X obj 13 121 pddp/pddplink http://puredata.info/downloads/pd-extended
;
#X obj 13 97 pddp/pddplink http://puredata.info/downloads/pure-data
;
#X text 13 85 Construit sous / Build under Pd-0.49...;
#X text 12 109 or Pd 0.43.4-extended;
#X obj 12 53 pddp/pddplink https://paresys.pagesperso-orange.fr/ARGOPd/
;
#X restore 273 205 pd ?...;
#X text 177 83 21 8 2019;
#X text 89 10 1: Play;
#X text 89 20 0: Stop;
#X text 71 30 bang: Change;
#X obj 100 45 inlet;
#X text 222 26 ms;
#X connect 5 0 3 0;
#X connect 7 0 13 1;
#X connect 10 0 13 0;
#X connect 13 0 5 0;
#X connect 15 0 7 0;
#X connect 23 0 10 0;
#X coords 0 -1 1 1 134 38 2 100 100;
#X restore 227 101 pd ARGO;
#N canvas 383 56 627 559 ARGO 0;
#X obj 454 139 cnv 15 60 30 empty empty empty 20 12 0 14 -24198 -66577
0;
#N canvas 402 65 405 152 Help 0;
#X text 9 25 Nbr = Nombre - Number;
#X text 21 69 - La valeur du nombre est sauvegardée avec le patch ou
est placé le MM.;
#X text 10 52 Modif par rapport a la version precedente du MM Nbr:
;
#X text 23 96 - Le nombre n'est pas sorti a l'ouverture du patch \,
il faut envoyer un bang a l'entrée du MM.;
#X restore 461 145 pd Help;
#X obj 143 77 cnv 15 170 24 empty empty empty 20 12 0 14 -261682 -66577
0;
#X obj 300 80 inlet;
#X obj 343 514 cnv 15 170 24 empty empty empty 20 12 0 14 -261682 -66577
0;
#X obj 348 518 outlet;
#X obj 301 201 cnv 10 132 46 empty ColorForm Nbr. 105 9 1 14 -261476
-1 1.04858e+06;
#X obj 300 201 bng 12 50 50 0 \$0-A \$0-B empty 14 6 1 9 -262144 -1
-1;
#X obj 301 201 cnv 4 10 4 empty empty empty 20 12 0 14 -260097 -66577
0;
#X obj 301 243 cnv 4 10 4 empty empty empty 20 12 0 14 -260097 -66577
0;
#X obj 315 206 nbx 4 12 32 9999 0 1 \$0-A ColorTime max 40 7 1 9 -262144
-1 -1 48 256;
#X text 143 84 Input anything message ->;
#X text 143 74 N'importe quel message ->;
#X obj 315 230 nbx 4 12 -999 9999 0 1 \$0-A ColorTime min 40 7 1 9
-262144 -1 -1 31 256;
#X obj 432 370 random;
#X obj 431 321 -;
#X obj 391 266 + 1;
#X obj 431 346 t b f;
#X text 393 512 -> Nombre;
#X text 394 522 -> Number;
#X obj 464 396 +;
#X msg 470 309 range \$1 9999;
#X obj 154 262 + 1;
#X obj 171 426 int;
#X obj 131 426 + 1;
#X obj 154 359 int;
#X obj 154 285 t f f;
#X obj 154 334 select 1;
#X obj 154 310 >;
#X obj 375 200 vradio 12 1 1 4 \$0-A \$0-B --> 16 6 1 9 -262144 -1
-1 0;
#X obj 389 212 cnv 5 5 5 empty empty <-- 0 6 1 9 -261476 -1 0;
#X obj 389 225 cnv 5 5 5 empty empty <--> 0 6 1 9 -261476 -1 0;
#X obj 389 237 cnv 5 5 5 empty empty Alea 0 6 1 9 -261476 -1 0;
#X obj 261 431 int;
#X obj 218 360 int;
#X obj 218 286 t f f;
#X obj 218 335 select 1;
#X obj 218 263 - 1;
#X obj 218 311 <;
#X obj 310 290 + 1;
#X obj 316 312 t f f;
#X obj 313 365 select 1;
#X obj 330 431 int;
#X obj 310 337 >;
#X msg 324 263 -1;
#X obj 371 363 select 1;
#X obj 371 339 <;
#X msg 359 263 1;
#X obj 309 391 t b b;
#X obj 372 390 t b b;
#X obj 158 164 >;
#X obj 158 232 int;
#X obj 158 187 select 1;
#X obj 158 141 t b f;
#X obj 97 231 int;
#X obj 97 187 select 1;
#X obj 97 142 t b f;
#X obj 97 165 <;
#X obj 97 208 delay 5;
#X obj 429 261 t b f f f f f b f;
#X obj 158 209 delay 5;
#X obj 528 284 + 1;
#X obj 300 218 nbx 4 12 -999 9999 0 1 \$0-A ColorTime empty 40 7 1
9 -262144 -1 -1 46 256;
#X msg 341 151 set \$1;
#X msg 383 178 46;
#X obj 355 80 loadbang;
#X msg 311 151 1;
#X obj 348 492 spigot 0;
#X obj 355 103 delay 300;
#X obj 355 126 t b b b;
#X obj 548 508 cnv 15 48 25 empty empty empty 20 12 0 14 -24198 -66577
0;
#N canvas 350 196 308 136 ??? 0;
#X obj -6 87 cnv 15 300 38 empty empty empty 20 12 0 14 -224896 -66577
0;
#X obj -6 10 cnv 18 300 70 empty empty ARGOPdMiniModules 3 10 1 14
-4033 -1 1.04858e+06;
#X obj 13 31 cnv 10 10 10 empty empty Gerard 0 5 1 11 -4033 -1 1.04858e+06
;
#X obj 55 30 cnv 10 10 10 empty empty Paresys 0 5 1 11 -4033 -1 1.04858e+06
;
#X text -1 89 Construit sous / Build under Pd 0.42.5-extended;
#X obj 6 43 pddp/pddplink http://pagesperso-orange.fr/Paresys/ARGOPd/
;
#X obj 6 58 pddp/pddplink http://gerard.paresys.free.fr/ARGOPd/;
#X obj 46 105 pddp/pddplink http://puredata.info/downloads;
#X restore 552 512 pd ???;
#X obj 239 464 cyclone/switch 4;
#X text 435 214 4 8 2019;
#X connect 3 0 7 0;
#X connect 7 0 14 0;
#X connect 7 0 23 0;
#X connect 7 0 33 0;
#X connect 7 0 42 0;
#X connect 10 0 16 0;
#X connect 10 0 28 1;
#X connect 10 0 34 1;
#X connect 10 0 43 1;
#X connect 10 0 51 1;
#X connect 10 0 53 0;
#X connect 13 0 59 0;
#X connect 14 0 20 0;
#X connect 15 0 17 0;
#X connect 16 0 15 0;
#X connect 17 0 14 0;
#X connect 17 1 14 1;
#X connect 20 0 72 4;
#X connect 21 0 10 0;
#X connect 22 0 26 0;
#X connect 23 0 72 1;
#X connect 24 0 72 0;
#X connect 25 0 23 1;
#X connect 26 0 28 0;
#X connect 26 1 23 1;
#X connect 27 0 25 0;
#X connect 28 0 27 0;
#X connect 29 0 24 0;
#X connect 33 0 72 2;
#X connect 34 0 33 1;
#X connect 35 0 38 0;
#X connect 35 1 33 1;
#X connect 36 0 34 0;
#X connect 37 0 35 0;
#X connect 38 0 36 0;
#X connect 39 0 40 0;
#X connect 40 0 43 0;
#X connect 40 0 46 0;
#X connect 40 1 42 1;
#X connect 41 0 48 0;
#X connect 42 0 72 3;
#X connect 43 0 41 0;
#X connect 44 0 39 1;
#X connect 45 0 49 0;
#X connect 46 0 45 0;
#X connect 47 0 39 1;
#X connect 48 0 39 0;
#X connect 48 1 44 0;
#X connect 49 0 39 0;
#X connect 49 1 47 0;
#X connect 50 0 52 0;
#X connect 51 0 62 0;
#X connect 52 0 60 0;
#X connect 53 0 50 0;
#X connect 53 1 50 1;
#X connect 54 0 62 0;
#X connect 55 0 58 0;
#X connect 56 0 57 0;
#X connect 56 1 57 1;
#X connect 57 0 55 0;
#X connect 58 0 54 0;
#X connect 59 0 15 0;
#X connect 59 1 15 1;
#X connect 59 2 20 1;
#X connect 59 3 54 1;
#X connect 59 4 56 0;
#X connect 59 5 25 1;
#X connect 59 5 46 1;
#X connect 59 5 38 1;
#X connect 59 6 10 0;
#X connect 59 7 61 0;
#X connect 60 0 51 0;
#X connect 61 0 21 0;
#X connect 62 0 22 0;
#X connect 62 0 37 0;
#X connect 62 0 39 0;
#X connect 62 0 50 0;
#X connect 62 0 57 0;
#X connect 62 0 67 0;
#X connect 63 0 64 0;
#X connect 64 0 62 0;
#X connect 65 0 68 0;
#X connect 66 0 67 1;
#X connect 67 0 5 0;
#X connect 67 0 63 0;
#X connect 68 0 69 0;
#X connect 69 1 66 0;
#X connect 69 2 64 0;
#X connect 72 0 62 0;
#X coords 0 -1 1 1 134 48 2 300 200;
#X restore 227 150 pd ARGO;
#N canvas 486 72 355 440 ARGO 0;
#X obj 100 390 outlet~;
#X obj 240 41 cnv 15 60 30 empty empty empty 20 12 0 14 -24198 -66577
0;
#N canvas 350 201 490 192 Help 0;
#X text 310 40 -> Saturation;
#X text 10 19 Synth5 = Synthétiseur 5 = Synthesizer 5;
#X text 110 93 Saturation = Hyperbolic tangent function (tanh(x));
#X text 112 111 "turn a sine wave into a square wave by cranking up
the volume!";
#X text 109 58 Sinusoidal Oscillator -> Attack/Decay envelope;
#X text 10 40 Oscillateur sinusoidal -> Enveloppe Attaque/Chute;
#X text 391 58 -> Saturation;
#X text 13 77 Saturation = Fonction tangente hyperbolique (tanh(x))
;
#X text 12 143 transforme une onde sinusoïdale en une onde carrée en
tournant la manivelle du volume!;
#X restore 247 47 pd Help;
#X obj 100 30 inlet;
#X text 30 1 NoteMIDI;
#N canvas 499 145 264 245 Freq-v6 0;
#X obj 36 33 inlet;
#X obj 36 187 outlet;
#X text 33 204 Hslider;
#X text 31 12 Hslider;
#X obj 160 159 clip 0 20000;
#X obj 160 98 mtof;
#X obj 160 186 outlet;
#X text 157 204 Freq Hz;
#N canvas 220 243 583 317 pitchb-11-2010 0;
#X obj 81 117 mod 12;
#X obj 81 141 sel 0 1 2 3 4 5 6 7 8 9 10 11;
#X msg 257 176 A;
#X msg 311 176 B;
#X msg 203 176 G;
#X msg 14 176 C;
#X msg 68 176 D;
#X msg 122 176 E;
#X msg 149 176 F;
#X obj 215 7 inlet;
#X obj 388 124 div 12;
#X obj 215 85 t f f;
#X text 393 171 -> Numero de l'octave;
#X text 224 70 -> Numero MIDI de la note (69 = A3 = 440Hz);
#X msg 271 266 label \$1;
#X obj 271 289 outlet;
#X msg 41 176 Db;
#X msg 95 176 Eb;
#X msg 176 176 Gb;
#X msg 230 176 Ab;
#X msg 284 176 Bb;
#X text 380 84 (70 = A#3 = Bb3);
#X obj 271 244 symbol;
#X text 22 237 Impossible d'afficher # dans un label;
#X text 22 249 donc j'affiche b;
#X obj 215 57 int;
#X text 266 29 -> pour corriger certaines erreurs de calcul;
#X obj 388 153 - 12;
#X text 266 41 et le pb du passage a zero de mod 12;
#X obj 215 31 + 120.5;
#X obj 271 219 cyclone/sprintf %s%d;
#X connect 0 0 1 0;
#X connect 1 0 5 0;
#X connect 1 1 16 0;
#X connect 1 2 6 0;
#X connect 1 3 17 0;
#X connect 1 4 7 0;
#X connect 1 5 8 0;
#X connect 1 6 18 0;
#X connect 1 7 4 0;
#X connect 1 8 19 0;
#X connect 1 9 2 0;
#X connect 1 10 20 0;
#X connect 1 11 3 0;
#X connect 2 0 30 0;
#X connect 3 0 30 0;
#X connect 4 0 30 0;
#X connect 5 0 30 0;
#X connect 6 0 30 0;
#X connect 7 0 30 0;
#X connect 8 0 30 0;
#X connect 9 0 29 0;
#X connect 10 0 27 0;
#X connect 11 0 0 0;
#X connect 11 1 10 0;
#X connect 14 0 15 0;
#X connect 16 0 30 0;
#X connect 17 0 30 0;
#X connect 18 0 30 0;
#X connect 19 0 30 0;
#X connect 20 0 30 0;
#X connect 22 0 14 0;
#X connect 25 0 11 0;
#X connect 27 0 30 1;
#X connect 29 0 25 0;
#X connect 30 0 22 0;
#X restore 36 98 pd pitchb-11-2010;
#X connect 0 0 5 0;
#X connect 0 0 8 0;
#X connect 4 0 6 0;
#X connect 5 0 4 0;
#X connect 8 0 1 0;
#X restore 43 180 pd Freq-v6;
#X text 90 1 0..127 = C-2..G8;
#X obj 100 224 osc~;
#X obj 100 318 *~;
#X obj 101 101 cnv 6 132 68 empty ColorForm Synth5. 80 7 1 14 -262144
-1 1.04858e+06;
#X obj 100 101 bng 12 50 50 0 \$0-A \$0-B empty 14 6 1 9 -262144 -1
-1;
#X obj 101 101 cnv 4 10 4 empty empty empty 20 12 0 14 -260097 -66577
0;
#X obj 101 165 cnv 4 10 4 empty empty empty 20 12 0 14 -1 -66577 0
;
#X obj 103 117 hsl 129 12 0 128 0 1 \$0-A ColorTime Bb1 0 7 1 9 -208064
-1 -1 4600 0;
#X obj 100 51 t b f;
#X obj 102 132 cnv 6 2 2 empty ColorForm Attack 0 4 1 9 -262144 -1
1.04858e+06;
#X obj 127 73 select 0;
#X text 91 12 ou Bang;
#X obj 100 343 *~;
#X obj 102 148 cnv 6 2 2 empty ColorForm ms 0 4 1 9 -262144 -1 1.04858e+06
;
#X obj 133 153 hsl 99 12 1 1000 1 1 \$0-A \$0-B 19 0 7 1 9 -188398
-1 -1 4200 0;
#N canvas 0 23 450 300 label-sat 0;
#X msg 156 173 label \$1;
#X obj 154 84 inlet;
#X obj 157 202 outlet;
#X obj 156 111 int;
#X obj 156 131 cyclone/sprintf %s;
#X obj 156 151 cyclone/tosymbol;
#X connect 0 0 2 0;
#X connect 1 0 3 0;
#X connect 3 0 4 0;
#X connect 4 0 5 0;
#X connect 5 0 0 0;
#X restore 251 154 pd label-sat;
#X obj 106 156 cnv 6 2 2 empty ColorForm Satur 0 4 1 9 -262144 -1 1.04858e+06
;
#X obj 102 142 cnv 6 2 2 empty ColorForm Decay 0 4 1 9 -262144 -1 1.04858e+06
;
#X obj 133 129 hsl 99 12 0.1 10000 1 1 \$0-A ColorForm 0.73 0 7 1 9
-208064 -1 -1 1700 0;
#X obj 133 141 hsl 99 12 0.1 10000 1 1 \$0-A ColorForm 1206.79 0 7
1 9 -208064 -1 -1 8000 0;
#N canvas 0 23 450 300 label-ms 0;
#X msg 156 171 label \$1;
#X obj 156 111 expr (int(100 * $f1) / 100) \;;
#X obj 154 84 inlet;
#X obj 157 200 outlet;
#X obj 156 131 cyclone/sprintf %s;
#X obj 156 151 cyclone/tosymbol;
#X connect 0 0 3 0;
#X connect 1 0 4 0;
#X connect 2 0 1 0;
#X connect 4 0 5 0;
#X connect 5 0 0 0;
#X restore 250 109 pd label-ms;
#N canvas 0 23 450 300 label-ms 0;
#X msg 156 171 label \$1;
#X obj 156 111 expr (int(100 * $f1) / 100) \;;
#X obj 154 84 inlet;
#X obj 157 200 outlet;
#X obj 156 131 cyclone/sprintf %s;
#X obj 156 151 cyclone/tosymbol;
#X connect 0 0 3 0;
#X connect 1 0 4 0;
#X connect 2 0 1 0;
#X connect 4 0 5 0;
#X connect 5 0 0 0;
#X restore 251 131 pd label-ms;
#X obj 136 272 vline~;
#X msg 136 248 1 \$1 \, 0 \$2 \$1;
#X obj 223 201 pack 1 2;
#X obj 241 177 t b f;
#X obj 129 296 *~;
#X obj 136 224 list append 0 0;
#X obj 100 367 cyclone/tanh~;
#X obj 264 379 cnv 15 52 22 empty empty empty 20 12 0 14 -24198 -66577
0;
#N canvas 353 174 321 152 ?... 0;
#X obj 8 84 cnv 15 300 56 empty empty empty 20 12 0 14 -224896 -66577
0;
#X obj 8 7 cnv 18 300 70 empty empty ARGOPdMiniModules 3 10 1 14 -4033
-1 1.04858e+06;
#X obj 31 27 cnv 10 10 10 empty empty Gerard 0 5 1 11 -4033 -1 1.04858e+06
;
#X obj 69 27 cnv 10 10 10 empty empty Paresys 0 5 1 11 -4033 -1 1.04858e+06
;
#X obj 12 40 pddp/pddplink http://gerard.paresys.free.fr/ARGOPd/;
#X obj 13 121 pddp/pddplink http://puredata.info/downloads/pd-extended
;
#X obj 13 97 pddp/pddplink http://puredata.info/downloads/pure-data
;
#X text 13 85 Construit sous / Build under Pd-0.49...;
#X text 12 109 or Pd 0.43.4-extended;
#X obj 12 53 pddp/pddplink https://paresys.pagesperso-orange.fr/ARGOPd/
;
#X restore 267 382 pd ?...;
#X text 188 83 19 8 2019;
#X connect 3 0 14 0;
#X connect 5 0 13 0;
#X connect 5 1 7 0;
#X connect 7 0 8 0;
#X connect 8 0 18 0;
#X connect 10 0 33 0;
#X connect 13 0 5 0;
#X connect 14 0 10 0;
#X connect 14 1 16 0;
#X connect 16 1 13 0;
#X connect 18 0 34 0;
#X connect 20 0 21 0;
#X connect 20 0 18 1;
#X connect 21 0 20 0;
#X connect 24 0 26 0;
#X connect 24 0 30 0;
#X connect 25 0 27 0;
#X connect 25 0 31 0;
#X connect 26 0 24 0;
#X connect 27 0 25 0;
#X connect 28 0 32 0;
#X connect 28 0 32 1;
#X connect 29 0 28 0;
#X connect 30 0 33 1;
#X connect 31 0 30 0;
#X connect 31 1 30 1;
#X connect 32 0 8 1;
#X connect 33 0 29 0;
#X connect 34 0 0 0;
#X coords 0 -1 1 1 134 70 1 100 100;
#X restore 227 211 pd ARGO;
#X connect 10 0 9 1;
#X connect 10 0 9 0;
#X connect 10 0 12 0;
#X connect 17 0 16 0;
#X connect 22 0 23 0;
#X connect 23 0 24 0;
#X connect 24 0 10 0;
