#N canvas 378 23 426 502 10;
#X obj 7 6 cnv 15 15 15 empty empty ExMM134b-Noise-Farnell2.pd 0 8
1 14 -262144 -1 0;
#N canvas 416 45 290 282 ARGO 0;
#X obj 84 251 outlet~;
#X obj 84 56 inlet~;
#X obj 101 101 cnv 12 93 15 empty ColorAmpli DC. 58 9 1 14 -188398
-1 1.04858e+06;
#X obj 101 112 cnv 4 10 4 empty empty empty 20 12 0 14 -1 -66577 0
;
#X obj 101 101 cnv 4 10 4 empty empty empty 20 12 0 14 -1 -66577 0
;
#X obj 14 57 cnv 15 60 30 empty empty empty 20 12 0 14 -24198 -66577
0;
#N canvas 265 68 374 180 Help 0;
#X text 44 43 Elimine la composante continu (0Hz) du signal Audio;
#X text 28 27 Filtre Passe-haut du 1er ordre à 20Hz;
#X text 27 71 First order High Pass Filter (20Hz);
#X text 45 88 Eliminates the DC component (0Hz) of audio signal.;
#X text 45 104 = "DC block";
#X text 45 120 = "remove DC offset";
#X restore 21 63 pd Help;
#X obj 184 112 cnv 4 10 4 empty empty empty 20 12 0 14 -1 -66577 0
;
#X obj 184 101 cnv 4 10 4 empty empty empty 20 12 0 14 -1 -66577 0
;
#X obj 177 251 outlet~;
#X obj 177 56 inlet~;
#X obj 84 178 *~;
#X obj 116 103 tgl 12 1 \$0-A \$0-B On 15 6 1 10 -262144 -1 -1 0 1
;
#X obj 117 143 == 0;
#X obj 177 179 *~;
#X obj 56 178 *~;
#X obj 209 180 *~;
#X obj 56 204 hip~ 20;
#X obj 209 204 hip~ 20;
#X text 212 100 18 3 2016;
#X obj 233 244 cnv 15 42 25 empty empty empty 20 12 0 14 -24198 -66577
0;
#N canvas 336 174 309 137 ?. 0;
#X obj 3 83 cnv 15 300 46 empty empty empty 20 12 0 14 -224896 -66577
0;
#X obj 3 6 cnv 18 300 70 empty empty ARGOPdMiniModules 3 10 1 14 -4033
-1 1.04858e+06;
#X obj 26 26 cnv 10 10 10 empty empty Gerard 0 5 1 11 -4033 -1 1.04858e+06
;
#X obj 64 26 cnv 10 10 10 empty empty Paresys 0 5 1 11 -4033 -1 1.04858e+06
;
#X obj 7 37 pddp/pddplink http://gerard.paresys.free.fr/ARGOPd/;
#X text 8 85 Construit sous / Build under Pd 0.43.4-extended;
#X obj 8 111 pddp/pddplink http://puredata.info/downloads/pd-extended
;
#X obj 7 50 pddp/pddplink http://paresys.pagesperso-orange.fr/ARGOPd/
;
#X text 7 98 or Pd-0.46-7 + deken;
#X restore 237 248 pd ?.;
#X connect 1 0 11 0;
#X connect 1 0 15 0;
#X connect 10 0 14 0;
#X connect 10 0 16 0;
#X connect 11 0 0 0;
#X connect 12 0 11 1;
#X connect 12 0 13 0;
#X connect 12 0 14 1;
#X connect 13 0 15 1;
#X connect 13 0 16 1;
#X connect 14 0 9 0;
#X connect 15 0 17 0;
#X connect 16 0 18 0;
#X connect 17 0 0 0;
#X connect 18 0 9 0;
#X coords 0 -1 1 1 95 17 2 100 100;
#X restore 87 191 pd ARGO;
#N canvas 379 120 469 405 ARGO 0;
#X obj 167 374 outlet~;
#X obj 335 96 cnv 15 60 30 empty empty empty 20 12 0 14 -24198 -66577
0;
#N canvas 518 265 443 218 Help 0;
#X text 203 21 Based on Andy Farnell's work.;
#X text 32 41 Code examples for Designing Sound textbook;
#X text 78 152 -> foot2.pd;
#X text 31 56 Snow texture;
#X obj 29 126 pddp/pddplink http://obiwannabe.co.uk;
#X obj 25 173 pddp/pddplink https://www.moz.ac.at/sem/lehre/lib/pd-sounddesign/
;
#X text 31 71 Extrait de snow dans snowtex dans texturesource dans
footstep2.pd;
#X text 56 96 Extract of snow in snowtex in texturesource in footstep2.pd
;
#X obj 28 139 pddp/pddplink http://aspress.co.uk/sd/practical26.html
;
#X restore 342 102 pd Help;
#X obj 101 101 cnv 6 130 18 empty ColorForm Noise-Farnell2. 30 7 1
14 -262144 -1 1.04858e+06;
#X obj 101 115 cnv 4 10 4 empty empty empty 20 12 0 14 -1 -66577 0
;
#X obj 221 115 cnv 4 10 4 empty empty empty 20 12 0 14 -1 -66577 0
;
#X obj 160 115 cnv 4 10 4 empty empty empty 20 12 0 14 -1 -66577 0
;
#X obj 237 374 outlet~;
#X obj 331 374 outlet~;
#X obj 144 135 noise~;
#X obj 114 233 /~;
#X obj 331 329 clip~ -1 1;
#X obj 114 182 lop~ 110;
#X obj 175 182 lop~ 900;
#X obj 298 135 noise~;
#X obj 237 233 /~;
#X obj 237 182 lop~ 50;
#X obj 298 182 lop~ 70;
#X obj 167 257 *~;
#X obj 353 182 lop~ 10;
#X obj 353 208 *~ 17;
#X obj 347 233 *~;
#X obj 331 308 *~;
#X obj 346 257 +~ 0.5;
#X obj 331 352 hip~ 300;
#X obj 237 352 *~ 0.01;
#X obj 100 100 tgl 12 1 \$0-A \$0-B On 14 6 1 10 -262144 -1 -1 1 1
;
#X obj 99 374 switch~;
#X obj 398 362 cnv 15 52 22 empty empty empty 20 12 0 14 -24198 -66577
0;
#N canvas 353 174 321 152 ?... 0;
#X obj 8 84 cnv 15 300 56 empty empty empty 20 12 0 14 -224896 -66577
0;
#X obj 8 7 cnv 18 300 70 empty empty ARGOPdMiniModules 3 10 1 14 -4033
-1 1.04858e+06;
#X obj 31 27 cnv 10 10 10 empty empty Gerard 0 5 1 11 -4033 -1 1.04858e+06
;
#X obj 69 27 cnv 10 10 10 empty empty Paresys 0 5 1 11 -4033 -1 1.04858e+06
;
#X obj 12 40 pddp/pddplink http://gerard.paresys.free.fr/ARGOPd/;
#X obj 13 121 pddp/pddplink http://puredata.info/downloads/pd-extended
;
#X obj 13 97 pddp/pddplink http://puredata.info/downloads/pure-data
;
#X text 13 85 Construit sous / Build under Pd-0.49...;
#X text 12 109 or Pd 0.43.4-extended;
#X obj 12 53 pddp/pddplink https://paresys.pagesperso-orange.fr/ARGOPd/
;
#X restore 401 365 pd ?...;
#X text 166 85 31 8 2019;
#X connect 9 0 12 0;
#X connect 9 0 13 0;
#X connect 10 0 18 0;
#X connect 11 0 24 0;
#X connect 12 0 10 0;
#X connect 13 0 10 1;
#X connect 14 0 16 0;
#X connect 14 0 17 0;
#X connect 14 0 19 0;
#X connect 15 0 18 1;
#X connect 15 0 25 0;
#X connect 16 0 15 0;
#X connect 17 0 15 1;
#X connect 18 0 22 0;
#X connect 19 0 20 0;
#X connect 20 0 21 0;
#X connect 20 0 21 1;
#X connect 21 0 23 0;
#X connect 22 0 11 0;
#X connect 23 0 22 1;
#X connect 23 0 0 0;
#X connect 24 0 8 0;
#X connect 25 0 7 0;
#X connect 26 0 27 0;
#X coords 0 -1 1 1 132 20 1 100 100;
#X restore 106 90 pd ARGO;
#X text 163 50 Based on Andy Farnell's work.;
#X obj 19 80 switch~;
#N canvas 608 166 228 173 ARGOnOff 0;
#X obj 100 100 tgl 18 1 \$0-SendOnOff \$0-ReceiveOnOff On/Off 20 11
1 14 -4033 -1 -1 0 1;
#X obj 99 10 loadbang;
#X msg 99 33 \; pd dsp 1;
#X obj 100 129 outlet;
#X text -50 99 Audio On/Off du patch ->;
#X text -22 45 Audio General On ->;
#X text 107 82 17 3 2010;
#X connect 0 0 3 0;
#X connect 1 0 2 0;
#X coords 0 -1 1 1 65 18 2 100 100;
#X restore 19 62 pd ARGOnOff;
#X text 24 46 V;
#X text 24 39 |;
#X text 12 28 On/Off Patch;
#X text 42 40 (Audio);
#N canvas 175 68 374 396 ARGO 0;
#X obj 101 101 cnv 20 116 34 empty ColorAmpli empty 20 12 0 14 -261299
-1 1.04858e+06;
#X obj 85 353 outlet~;
#X obj 157 104 cnv 10 20 10 empty ColorAmpli Ampli. 1 5 1 14 -261299
-1 1.04858e+06;
#X obj 85 43 inlet~;
#X obj 85 330 *~;
#X obj 115 118 hsl 101 12 -80 20 0 1 \$0-A ColorAmpli -16dB 0 7 1 9
-261299 -1 -1 6400 0;
#X obj 101 101 cnv 4 10 4 empty empty empty 20 12 0 14 -1 -66577 0
;
#X obj 101 131 cnv 4 10 4 empty empty empty 20 12 0 14 -1 -66577 0
;
#X msg -42 139 label \$1;
#X text 148 194 -> 0.0001..10 = -80dB..20dB;
#X obj 142 175 expr (pow(10 \, $f1 / 20));
#X obj 142 215 sel 0.0001;
#X msg 100 244 0;
#X obj 100 118 tgl 12 1 \$0-A \$0-B Mute 2 -5 1 9 -261299 -1 -1 0 1
;
#X obj 99 146 select 0 1;
#X obj 140 295 line~;
#X obj 140 275 pack 0 10;
#X msg 123 74 set 0;
#X obj -42 93 cyclone/sprintf %ddB;
#X obj -42 116 cyclone/tosymbol;
#X obj 261 342 cnv 15 42 25 empty empty empty 20 12 0 14 -24198 -66577
0;
#N canvas 336 174 309 137 ?. 0;
#X obj 3 83 cnv 15 300 46 empty empty empty 20 12 0 14 -224896 -66577
0;
#X obj 3 6 cnv 18 300 70 empty empty ARGOPdMiniModules 3 10 1 14 -4033
-1 1.04858e+06;
#X obj 26 26 cnv 10 10 10 empty empty Gerard 0 5 1 11 -4033 -1 1.04858e+06
;
#X obj 64 26 cnv 10 10 10 empty empty Paresys 0 5 1 11 -4033 -1 1.04858e+06
;
#X obj 7 37 pddp/pddplink http://gerard.paresys.free.fr/ARGOPd/;
#X text 8 85 Construit sous / Build under Pd 0.43.4-extended;
#X obj 8 111 pddp/pddplink http://puredata.info/downloads/pd-extended
;
#X obj 7 50 pddp/pddplink http://paresys.pagesperso-orange.fr/ARGOPd/
;
#X text 7 98 or Pd-0.46-7 + deken;
#X restore 265 346 pd ?.;
#X text 228 110 17 3 2016;
#X connect 3 0 4 0;
#X connect 4 0 1 0;
#X connect 5 0 10 0;
#X connect 5 0 18 0;
#X connect 8 0 5 0;
#X connect 10 0 11 0;
#X connect 11 0 12 0;
#X connect 11 1 16 0;
#X connect 11 1 17 0;
#X connect 12 0 16 0;
#X connect 12 0 19 0;
#X connect 13 0 14 0;
#X connect 14 0 5 0;
#X connect 14 1 12 0;
#X connect 15 0 4 1;
#X connect 16 0 15 0;
#X connect 17 0 13 0;
#X connect 18 0 19 0;
#X connect 19 0 8 0;
#X coords 0 -1 1 1 118 36 1 100 100;
#X restore 38 134 pd ARGO;
#N canvas 175 68 374 396 ARGO 0;
#X obj 101 101 cnv 20 116 34 empty ColorAmpli empty 20 12 0 14 -261299
-1 1.04858e+06;
#X obj 85 353 outlet~;
#X obj 157 104 cnv 10 20 10 empty ColorAmpli Ampli. 1 5 1 14 -261299
-1 1.04858e+06;
#X obj 85 43 inlet~;
#X obj 85 330 *~;
#X obj 115 118 hsl 101 12 -80 20 0 1 \$0-A ColorAmpli -36dB 0 7 1 9
-261299 -1 -1 4400 0;
#X obj 101 101 cnv 4 10 4 empty empty empty 20 12 0 14 -1 -66577 0
;
#X obj 101 131 cnv 4 10 4 empty empty empty 20 12 0 14 -1 -66577 0
;
#X msg -42 139 label \$1;
#X text 148 194 -> 0.0001..10 = -80dB..20dB;
#X obj 142 175 expr (pow(10 \, $f1 / 20));
#X obj 142 215 sel 0.0001;
#X msg 100 244 0;
#X obj 100 118 tgl 12 1 \$0-A \$0-B Mute 2 -5 1 9 -261299 -1 -1 0 1
;
#X obj 99 146 select 0 1;
#X obj 140 295 line~;
#X obj 140 275 pack 0 10;
#X msg 123 74 set 0;
#X obj -42 93 cyclone/sprintf %ddB;
#X obj -42 116 cyclone/tosymbol;
#X obj 261 342 cnv 15 42 25 empty empty empty 20 12 0 14 -24198 -66577
0;
#N canvas 336 174 309 137 ?. 0;
#X obj 3 83 cnv 15 300 46 empty empty empty 20 12 0 14 -224896 -66577
0;
#X obj 3 6 cnv 18 300 70 empty empty ARGOPdMiniModules 3 10 1 14 -4033
-1 1.04858e+06;
#X obj 26 26 cnv 10 10 10 empty empty Gerard 0 5 1 11 -4033 -1 1.04858e+06
;
#X obj 64 26 cnv 10 10 10 empty empty Paresys 0 5 1 11 -4033 -1 1.04858e+06
;
#X obj 7 37 pddp/pddplink http://gerard.paresys.free.fr/ARGOPd/;
#X text 8 85 Construit sous / Build under Pd 0.43.4-extended;
#X obj 8 111 pddp/pddplink http://puredata.info/downloads/pd-extended
;
#X obj 7 50 pddp/pddplink http://paresys.pagesperso-orange.fr/ARGOPd/
;
#X text 7 98 or Pd-0.46-7 + deken;
#X restore 265 346 pd ?.;
#X text 228 110 17 3 2016;
#X connect 3 0 4 0;
#X connect 4 0 1 0;
#X connect 5 0 10 0;
#X connect 5 0 18 0;
#X connect 8 0 5 0;
#X connect 10 0 11 0;
#X connect 11 0 12 0;
#X connect 11 1 16 0;
#X connect 11 1 17 0;
#X connect 12 0 16 0;
#X connect 12 0 19 0;
#X connect 13 0 14 0;
#X connect 14 0 5 0;
#X connect 14 1 12 0;
#X connect 15 0 4 1;
#X connect 16 0 15 0;
#X connect 17 0 13 0;
#X connect 18 0 19 0;
#X connect 19 0 8 0;
#X coords 0 -1 1 1 118 36 1 100 100;
#X restore 168 134 pd ARGO;
#N canvas 175 68 374 396 ARGO 0;
#X obj 101 101 cnv 20 116 34 empty ColorAmpli empty 20 12 0 14 -261299
-1 1.04858e+06;
#X obj 85 353 outlet~;
#X obj 157 104 cnv 10 20 10 empty ColorAmpli Ampli. 1 5 1 14 -261299
-1 1.04858e+06;
#X obj 85 43 inlet~;
#X obj 85 330 *~;
#X obj 115 118 hsl 101 12 -80 20 0 1 \$0-A ColorAmpli -19dB 0 7 1 9
-261299 -1 -1 6100 0;
#X obj 101 101 cnv 4 10 4 empty empty empty 20 12 0 14 -1 -66577 0
;
#X obj 101 131 cnv 4 10 4 empty empty empty 20 12 0 14 -1 -66577 0
;
#X msg -42 139 label \$1;
#X text 148 194 -> 0.0001..10 = -80dB..20dB;
#X obj 142 175 expr (pow(10 \, $f1 / 20));
#X obj 142 215 sel 0.0001;
#X msg 100 244 0;
#X obj 100 118 tgl 12 1 \$0-A \$0-B Mute 2 -5 1 9 -261299 -1 -1 0 1
;
#X obj 99 146 select 0 1;
#X obj 140 295 line~;
#X obj 140 275 pack 0 10;
#X msg 123 74 set 0;
#X obj -42 93 cyclone/sprintf %ddB;
#X obj -42 116 cyclone/tosymbol;
#X obj 261 342 cnv 15 42 25 empty empty empty 20 12 0 14 -24198 -66577
0;
#N canvas 336 174 309 137 ?. 0;
#X obj 3 83 cnv 15 300 46 empty empty empty 20 12 0 14 -224896 -66577
0;
#X obj 3 6 cnv 18 300 70 empty empty ARGOPdMiniModules 3 10 1 14 -4033
-1 1.04858e+06;
#X obj 26 26 cnv 10 10 10 empty empty Gerard 0 5 1 11 -4033 -1 1.04858e+06
;
#X obj 64 26 cnv 10 10 10 empty empty Paresys 0 5 1 11 -4033 -1 1.04858e+06
;
#X obj 7 37 pddp/pddplink http://gerard.paresys.free.fr/ARGOPd/;
#X text 8 85 Construit sous / Build under Pd 0.43.4-extended;
#X obj 8 111 pddp/pddplink http://puredata.info/downloads/pd-extended
;
#X obj 7 50 pddp/pddplink http://paresys.pagesperso-orange.fr/ARGOPd/
;
#X text 7 98 or Pd-0.46-7 + deken;
#X restore 265 346 pd ?.;
#X text 228 110 17 3 2016;
#X connect 3 0 4 0;
#X connect 4 0 1 0;
#X connect 5 0 10 0;
#X connect 5 0 18 0;
#X connect 8 0 5 0;
#X connect 10 0 11 0;
#X connect 11 0 12 0;
#X connect 11 1 16 0;
#X connect 11 1 17 0;
#X connect 12 0 16 0;
#X connect 12 0 19 0;
#X connect 13 0 14 0;
#X connect 14 0 5 0;
#X connect 14 1 12 0;
#X connect 15 0 4 1;
#X connect 16 0 15 0;
#X connect 17 0 13 0;
#X connect 18 0 19 0;
#X connect 19 0 8 0;
#X coords 0 -1 1 1 118 36 1 100 100;
#X restore 297 134 pd ARGO;
#X obj 163 65 pddp/pddplink http://aspress.co.uk/sd/practical26.html
;
#N canvas 333 135 711 339 ARGO 0;
#X obj 101 101 cnv 20 130 76 empty ColorForm empty 20 12 0 14 -188398
-1 1.04858e+06;
#X obj 162 104 cnv 10 40 10 empty ColorForm Freeverb. 1 5 1 14 -188398
-1 1.04858e+06;
#X obj 101 173 cnv 4 10 4 empty empty empty 20 12 0 14 -1 -66577 0
;
#X obj 221 173 cnv 4 10 4 empty empty empty 0 0 0 9 -1 -66577 0;
#X obj 87 74 inlet~;
#X obj 211 74 inlet~;
#X obj 101 101 cnv 4 10 4 empty empty empty 20 12 0 14 -1 -66577 0
;
#X obj 97 310 outlet~;
#X obj 208 310 outlet~;
#X obj 221 101 cnv 4 10 4 empty empty empty 0 0 0 9 -1 -66577 0;
#X obj 103 136 hsl 127 12 0 1 0 1 \$0-A ColorForm Brill 0 7 1 9 -188398
-1 -1 8300 0;
#X obj 103 124 hsl 127 12 0 1 0 1 \$0-A ColorForm Size 0 7 1 9 -188398
-1 -1 5200 0;
#X obj 103 160 hsl 127 12 0 1 0 1 \$0-A ColorAmpli Dir 0 7 1 9 -261299
-1 -1 10500 0;
#X obj 103 148 hsl 127 12 0 1 0 1 \$0-A ColorAmpli Stereo 0 7 1 9 -261299
-1 -1 12600 0;
#X msg 12 225 roomsize \$1;
#X msg 328 225 damping \$1;
#X msg 167 225 width \$1;
#X msg 229 225 wet \$1;
#X msg 277 225 dry \$1;
#X obj 277 179 - 1;
#X obj 277 202 * -1;
#X obj 12 202 * 1.1;
#X obj 328 179 * -2.3;
#X obj 328 202 + 2.3;
#X msg 100 225 freeze \$1;
#X obj 113 100 tgl 12 1 \$0-A \$0-B Freeze 14 7 1 9 -262144 -1 -1 0
1;
#X obj 386 98 cnv 15 60 30 empty empty empty 20 12 0 14 -24198 -66577
0;
#N canvas 584 107 469 218 Help 0;
#X obj 10 11 cnv 15 440 180 empty empty empty 20 12 0 14 -228856 -66577
0;
#X text 13 11 Citation;
#X text 20 101 "freeverb~ is a simple implementation of the standard
Schroeder/Moorer reverb model. It uses 8 comb filters in parallel on
both channels. It then feeds the result of the reverb through 4 allpass
filters in series on both channels. These "smooth" the sound. The filters
on the right channel are slightly detuned compared to the left channel
in order to create a stereo effect.";
#X text 19 24 freeverb~ version 1.2 - reverb external for Pure Data
and Max/MSP written by Olaf Matthes <olaf.matthes@gmx.de> - based on
Freeverb \, the free \, studio-quality reverb SOURCE CODE in the public
domain. Written by Jezar at Dreampoint - http://www.dreampoint.co.uk
This software is published under GPL terms \, see file LICENSE.;
#X restore 393 105 pd Help;
#X obj 97 278 freeverb~/freeverb~;
#X obj 647 289 cnv 15 42 25 empty empty empty 20 12 0 14 -24198 -66577
0;
#N canvas 336 174 316 152 ?. 0;
#X obj 8 84 cnv 15 300 56 empty empty empty 20 12 0 14 -224896 -66577
0;
#X obj 8 7 cnv 18 300 70 empty empty ARGOPdMiniModules 3 10 1 14 -4033
-1 1.04858e+06;
#X obj 31 27 cnv 10 10 10 empty empty Gerard 0 5 1 11 -4033 -1 1.04858e+06
;
#X obj 69 27 cnv 10 10 10 empty empty Paresys 0 5 1 11 -4033 -1 1.04858e+06
;
#X obj 12 40 pddp/pddplink http://gerard.paresys.free.fr/ARGOPd/;
#X text 13 85 Construit sous / Build under Pd 0.43.4-extended;
#X obj 13 111 pddp/pddplink http://puredata.info/downloads/pd-extended
;
#X obj 12 53 pddp/pddplink http://paresys.pagesperso-orange.fr/ARGOPd/
;
#X text 12 98 or Pd-0.48;
#X obj 13 124 pddp/pddplink http://puredata.info/downloads/pure-data
;
#X restore 651 293 pd ?.;
#X obj 578 79 cnv 15 100 70 empty empty empty 20 12 0 14 -24198 -66577
0;
#X text 601 81 library:;
#X text 582 92 freeverb~;
#X msg 520 225 print;
#X msg 567 225 bypass \$1;
#X obj 567 179 tgl 15 0 empty empty empty 17 7 0 10 -262144 -1 -1 0
1;
#X text 583 106 pddp;
#X msg 400 225 firstpassfilter \$1;
#X msg 637 225 dry \$1;
#X obj 638 202 / 100;
#X obj 638 179 nbx 5 14 0 100 0 0 empty empty empty 0 -8 0 10 -262144
-1 -1 0 256;
#X text 139 83 21 7 2018;
#X obj 113 112 tgl 12 1 \$0-A \$0-B FirstPass 14 7 1 9 -262144 -1 -1
0 1;
#X connect 4 0 28 0;
#X connect 5 0 28 1;
#X connect 10 0 22 0;
#X connect 11 0 21 0;
#X connect 12 0 19 0;
#X connect 12 0 17 0;
#X connect 13 0 16 0;
#X connect 14 0 28 0;
#X connect 15 0 28 0;
#X connect 16 0 28 0;
#X connect 17 0 28 0;
#X connect 18 0 28 0;
#X connect 19 0 20 0;
#X connect 20 0 18 0;
#X connect 21 0 14 0;
#X connect 22 0 23 0;
#X connect 23 0 15 0;
#X connect 24 0 28 0;
#X connect 25 0 24 0;
#X connect 28 0 7 0;
#X connect 28 1 8 0;
#X connect 34 0 28 0;
#X connect 35 0 28 0;
#X connect 36 0 35 0;
#X connect 38 0 28 0;
#X connect 39 0 28 0;
#X connect 40 0 39 0;
#X connect 41 0 40 0;
#X connect 43 0 38 0;
#X coords 0 -1 1 1 132 78 1 100 100;
#X restore 71 225 pd ARGO;
#X obj 357 459 cnv 15 52 22 empty empty empty 20 12 0 14 -24198 -66577
0;
#N canvas 353 174 321 152 ?... 0;
#X obj 8 84 cnv 15 300 56 empty empty empty 20 12 0 14 -224896 -66577
0;
#X obj 8 7 cnv 18 300 70 empty empty ARGOPdMiniModules 3 10 1 14 -4033
-1 1.04858e+06;
#X obj 31 27 cnv 10 10 10 empty empty Gerard 0 5 1 11 -4033 -1 1.04858e+06
;
#X obj 69 27 cnv 10 10 10 empty empty Paresys 0 5 1 11 -4033 -1 1.04858e+06
;
#X obj 12 40 pddp/pddplink http://gerard.paresys.free.fr/ARGOPd/;
#X obj 13 121 pddp/pddplink http://puredata.info/downloads/pd-extended
;
#X obj 13 97 pddp/pddplink http://puredata.info/downloads/pure-data
;
#X text 13 85 Construit sous / Build under Pd-0.49...;
#X text 12 109 or Pd 0.43.4-extended;
#X obj 12 53 pddp/pddplink https://paresys.pagesperso-orange.fr/ARGOPd/
;
#X restore 360 462 pd ?...;
#N canvas 416 45 303 292 ARGO 0;
#X obj 84 251 outlet~;
#X obj 84 56 inlet~;
#X obj 101 101 cnv 12 93 15 empty ColorAmpli Tanh. 47 9 1 14 -261299
-1 1.04858e+06;
#X obj 101 112 cnv 4 10 4 empty empty empty 20 12 0 14 -1 -66577 0
;
#X obj 101 101 cnv 4 10 4 empty empty empty 20 12 0 14 -1 -66577 0
;
#X obj 84 204 cyclone/tanh~;
#X obj 14 57 cnv 15 60 30 empty empty empty 20 12 0 14 -24198 -66577
0;
#N canvas 254 158 427 320 Help 0;
#X obj 10 9 cnv 15 400 290 empty empty empty 20 12 0 14 -233017 -66577
0;
#X text 13 8 Citation;
#X text 29 34 cyclone library;
#X text 29 46 calculate hyperbolic tangent function;
#X text 29 23 tanh~;
#X text 29 168 cf doc Max/MSP -> MSP46ReferenceManual.pdf;
#X text 29 94 outputs signal values always between -1 and 1;
#X text 29 114 turn a sine wave into a square wave by cranking up the
volume!;
#X text 29 63 can be used to simulate analog distortion \, and is much
"smoother" than using clip~;
#X obj 29 146 pddp/pddplink http://suita.chopin.edu.pl/~czaja/miXed/externs/cyclone.html
;
#X restore 21 63 pd Help;
#X obj 184 112 cnv 4 10 4 empty empty empty 20 12 0 14 -1 -66577 0
;
#X obj 184 101 cnv 4 10 4 empty empty empty 20 12 0 14 -1 -66577 0
;
#X obj 177 251 outlet~;
#X obj 177 56 inlet~;
#X obj 177 204 cyclone/tanh~;
#X obj 84 178 *~;
#X obj 116 103 tgl 12 1 \$0-A \$0-B On 15 6 1 10 -262144 -1 -1 1 1
;
#X obj 117 143 == 0;
#X obj 177 179 *~;
#X obj 56 178 *~;
#X obj 209 180 *~;
#X obj 231 246 cnv 15 52 22 empty empty empty 20 12 0 14 -24198 -66577
0;
#N canvas 353 174 321 152 ?... 0;
#X obj 8 84 cnv 15 300 56 empty empty empty 20 12 0 14 -224896 -66577
0;
#X obj 8 7 cnv 18 300 70 empty empty ARGOPdMiniModules 3 10 1 14 -4033
-1 1.04858e+06;
#X obj 31 27 cnv 10 10 10 empty empty Gerard 0 5 1 11 -4033 -1 1.04858e+06
;
#X obj 69 27 cnv 10 10 10 empty empty Paresys 0 5 1 11 -4033 -1 1.04858e+06
;
#X obj 12 40 pddp/pddplink http://gerard.paresys.free.fr/ARGOPd/;
#X obj 13 121 pddp/pddplink http://puredata.info/downloads/pd-extended
;
#X obj 13 97 pddp/pddplink http://puredata.info/downloads/pure-data
;
#X text 13 85 Construit sous / Build under Pd-0.49...;
#X text 12 109 or Pd 0.43.4-extended;
#X obj 12 53 pddp/pddplink https://paresys.pagesperso-orange.fr/ARGOPd/
;
#X restore 234 249 pd ?...;
#X text 112 85 24 8 2019;
#X connect 1 0 13 0;
#X connect 1 0 17 0;
#X connect 5 0 0 0;
#X connect 11 0 16 0;
#X connect 11 0 18 0;
#X connect 12 0 10 0;
#X connect 13 0 5 0;
#X connect 14 0 13 1;
#X connect 14 0 15 0;
#X connect 14 0 16 1;
#X connect 15 0 17 1;
#X connect 15 0 18 1;
#X connect 16 0 12 0;
#X connect 17 0 0 0;
#X connect 18 0 10 0;
#X coords 0 -1 1 1 95 17 2 100 100;
#X restore 90 321 pd ARGO;
#N canvas 446 64 251 267 ARGO 0;
#X obj 101 104 cnv 30 49 130 empty ColorAmpli empty 20 12 0 14 -1 -258113
0;
#X obj 102 110 vu 8 120 \$0-B empty 0 0 1 11 -1 -4034 0 0;
#X obj 49 35 inlet~;
#X obj 22 108 cnv 15 60 30 empty empty empty 20 12 0 14 -24198 -66577
0;
#N canvas 300 65 442 264 Help 0;
#X obj 12 48 cnv 15 400 150 empty empty empty 20 12 0 14 -233017 -66577
0;
#X text 16 50 Citation;
#X text 28 67 peakamp~ tracks and outputs the absolute value of the
peak amplitude of the incoming signal. It outputs when banged or using
its own internal clock. The peak value is reset each time peakamp~
outputs a value.;
#X text 29 123 cyclone library;
#X text 28 135 http://suita.chopin.edu.pl/~czaja/miXed/externs/cyclone.html
;
#X text 29 155 Voir doc Max/MSP MSP46ReferenceManual.pdf;
#X text 18 14 MM-Vumetre;
#X restore 29 114 pd Help;
#N canvas 541 112 317 265 VuMetre 0;
#X obj 48 19 inlet~;
#X obj 41 54 *~;
#X obj -25 132 snapshot~;
#X obj -25 155 sqrt;
#X obj -25 100 lop~ 10;
#X obj -25 179 rmstodb;
#X obj -88 19 loadbang;
#X obj -25 202 - 100;
#X obj 58 156 sqrt;
#X obj 58 180 rmstodb;
#X obj 58 203 - 100;
#X obj -89 102 metro 200;
#X obj -28 19 r SendFluid;
#X obj 58 102 cyclone/peakamp~ 1000;
#X obj -25 228 outlet;
#X obj 58 227 outlet;
#X connect 0 0 1 0;
#X connect 0 0 1 1;
#X connect 1 0 4 0;
#X connect 1 0 13 0;
#X connect 2 0 3 0;
#X connect 3 0 5 0;
#X connect 4 0 2 0;
#X connect 5 0 7 0;
#X connect 6 0 11 0;
#X connect 7 0 14 0;
#X connect 8 0 9 0;
#X connect 9 0 10 0;
#X connect 10 0 15 0;
#X connect 11 0 2 0;
#X connect 12 0 11 1;
#X connect 13 0 8 0;
#X restore 49 63 pd VuMetre;
#X obj 172 211 cnv 15 42 25 empty empty empty 20 12 0 14 -24198 -66577
0;
#N canvas 336 174 309 137 ?. 0;
#X obj 3 83 cnv 15 300 46 empty empty empty 20 12 0 14 -224896 -66577
0;
#X obj 3 6 cnv 18 300 70 empty empty ARGOPdMiniModules 3 10 1 14 -4033
-1 1.04858e+06;
#X obj 26 26 cnv 10 10 10 empty empty Gerard 0 5 1 11 -4033 -1 1.04858e+06
;
#X obj 64 26 cnv 10 10 10 empty empty Paresys 0 5 1 11 -4033 -1 1.04858e+06
;
#X obj 7 37 pddp/pddplink http://gerard.paresys.free.fr/ARGOPd/;
#X text 8 85 Construit sous / Build under Pd 0.43.4-extended;
#X obj 8 111 pddp/pddplink http://puredata.info/downloads/pd-extended
;
#X obj 7 50 pddp/pddplink http://paresys.pagesperso-orange.fr/ARGOPd/
;
#X text 7 98 or Pd-0.46-7 + deken;
#X restore 176 215 pd ?.;
#X obj 113 110 vu 8 120 \$0-B empty 0 0 1 11 -1 -4034 1 0;
#X obj 126 35 inlet~;
#N canvas 541 112 317 265 VuMetre 0;
#X obj 48 19 inlet~;
#X obj 41 54 *~;
#X obj -25 132 snapshot~;
#X obj -25 155 sqrt;
#X obj -25 100 lop~ 10;
#X obj -25 179 rmstodb;
#X obj -88 19 loadbang;
#X obj -25 202 - 100;
#X obj 58 156 sqrt;
#X obj 58 180 rmstodb;
#X obj 58 203 - 100;
#X obj -89 102 metro 200;
#X obj -28 19 r SendFluid;
#X obj 58 102 cyclone/peakamp~ 1000;
#X obj -25 228 outlet;
#X obj 58 227 outlet;
#X connect 0 0 1 0;
#X connect 0 0 1 1;
#X connect 1 0 4 0;
#X connect 1 0 13 0;
#X connect 2 0 3 0;
#X connect 3 0 5 0;
#X connect 4 0 2 0;
#X connect 5 0 7 0;
#X connect 6 0 11 0;
#X connect 7 0 14 0;
#X connect 8 0 9 0;
#X connect 9 0 10 0;
#X connect 10 0 15 0;
#X connect 11 0 2 0;
#X connect 12 0 11 1;
#X connect 13 0 8 0;
#X restore 126 63 pd VuMetre;
#X text 153 87 3 3 2019;
#X connect 2 0 5 0;
#X connect 5 0 1 0;
#X connect 5 1 1 1;
#X connect 9 0 10 0;
#X connect 10 0 8 0;
#X connect 10 1 8 1;
#X coords 0 -1 1 1 51 135 2 100 100;
#X restore 189 350 pd ARGO;
#X obj 111 467 dac~ 1 2;
#X text 2 322 Limiter 0dB ->;
#X text 164 36 MM Noise-Farnell2;
#X connect 1 0 14 0;
#X connect 1 1 14 1;
#X connect 2 0 10 0;
#X connect 2 1 11 0;
#X connect 2 2 12 0;
#X connect 5 0 4 0;
#X connect 10 0 1 0;
#X connect 11 0 1 0;
#X connect 11 0 1 1;
#X connect 12 0 1 1;
#X connect 14 0 17 0;
#X connect 14 1 17 1;
#X connect 17 0 18 0;
#X connect 17 0 19 0;
#X connect 17 1 18 1;
#X connect 17 1 19 1;
