#N canvas 723 23 527 798 10;
#N canvas 293 120 776 424 ARGO 0;
#X obj 319 104 cnv 10 20 10 empty empty Audio-Play. 1 5 1 14 -262144
-1 0;
#X obj 101 131 cnv 4 10 4 empty empty empty 20 12 0 14 -1 -66577 0
;
#X obj 111 317 outlet~;
#X obj -14 44 openpanel;
#X msg 25 100 set \$1;
#X obj -67 -45 loadbang;
#X text 14 260 avec espace;
#X obj 194 101 tgl 12 1 \$0-A \$0-B Play-5sec 14 6 1 9 -262144 -1 -1
1 1;
#X obj 158 101 bng 12 250 50 0 \$0-A \$0-B Stop 14 6 1 9 -262144 -1
-1;
#X obj 121 101 tgl 12 1 \$0-A \$0-B Loop 14 6 1 9 -262144 -1 -1 1 1
;
#X obj 100 101 bng 12 250 50 0 \$0-A \$0-B empty 14 6 1 9 -262144 -1
-1;
#X obj -14 22 bang;
#X obj -5 146 cnv 15 400 50 empty empty empty 20 12 0 14 -260097 -66577
0;
#X text -3 145 Nom du fichier / File name;
#X obj 101 101 cnv 4 10 4 empty empty empty 20 12 0 14 -260097 -66577
0;
#X obj 388 123 bng 12 50 20 0 \$0-A \$0-B empty 0 0 1 9 -262144 -1
-1;
#X obj 389 131 cnv 4 10 4 empty empty empty 20 12 0 14 -260097 -66577
0;
#X obj -7 -48 cnv 15 240 24 empty empty empty 20 12 0 14 -261682 -66577
0;
#X obj -6 -45 inlet;
#X obj 382 313 cnv 15 240 24 empty empty empty 20 12 0 14 -261682 -66577
0;
#X text 432 311 -> Bang à la fin du fichier;
#X text 433 321 -> Bang at the end of the file;
#X obj 387 317 outlet;
#X obj 97 -18 r \$0-SendOnOff;
#X obj 97 5 select 0;
#X obj 507 80 cnv 15 60 30 empty empty empty 20 12 0 14 -24198 -66577
0;
#N canvas 274 50 583 622 Help 0;
#X obj 15 147 cnv 15 400 100 empty empty empty 20 12 0 14 -233017 -66577
0;
#X text 18 146 Citation;
#X obj 14 392 cnv 15 550 310 empty empty empty 20 12 0 14 -258113 -66577
0;
#X text 26 399 - Ne lit pas un fichier au format mp3 \, SoundDesigner
II (.SDII ou .SD2);
#X text 29 499 Solution: ouvrir puis sauver le fichier au format aiff
avec Audacity;
#X text 42 486 error: dsp: xxx.aiff: unknown or bad header format;
#X text 37 162 READSF~ - read a soundfile;
#X text 36 180 The wave \, aiff \, and nextstep formats are parsed
automatically \, although only 2- 3- and 4- byte samples are accepted
(4 bytes implies floating point and is not available in aiff format.)
;
#X text 19 254 - Si le Patch est sauvé avec 1 Player contenant un nom
de fichier Audio \, ce fichier sera lu automatiquement à la prochaine
ouverture s'il n'a pas changé d'emplacement.;
#X text 27 538 - ATTENTION Le taux d'échantillonnage de la lecture
du fichier dépends du taux d'échantillonnage de Pd.;
#X text 39 565 Si le taux d'échantillonnage de Pd est de 44100 (Menu
Preferences -> Audio Settings...) \, les fichiers échantillonnés à
44100 Hz sont lus correctement \, sinon ils sont transposés.;
#X text 18 300 - Peut Ouvrir automatiquement 1 fichier qui se trouve
dans le même dossier que lui \, quelquesoit l'emplacement du dossier.
Pour cela ouvrir le module et taper le nom du fichier (sans chemin
d'accés) dans le message. Le dossier contenant le patch et le fichier
Audio est ainsi transportable.;
#X text 27 447 - Ne lit pas un fichier au format aiff "Entier petit
boutien" comme les pistes d'un CD Audio copiées avec le finder du Mac.
Le message d'erreur s'affichent:;
#X text 5 4 MM Audio-Play;
#X text 199 622 WARNING The sample rate of the output depends on the
system sample rate of Pd:;
#X text 197 649 If the sample rate of Pd is set to 44100 \, files having
the sample rates of 44100 are correctly played \, other files will
be transposed.;
#X text 200 99 A Mono Audio file is read on the left output.;
#X text 30 37 Le canal d'un fichier Audio Mono est lu sur la sortie
1;
#X text 30 24 Lit un fichier Audio 2 canaux au format aiff \, wav.
;
#X text 30 50 Les canaux 3 \, 4... d'un fichier Audio de plus de 2
canaux ne sont pas lus.;
#X text 199 72 Reads a 2 channels Audio file with aiff \, wav format..
;
#X text 200 113 Channels 3 \, 4... of an Audio file of more than 2
channels are not read.;
#X restore 514 86 pd Help;
#X obj -14 67 t b b s;
#X obj 389 101 cnv 4 10 4 empty empty empty 20 12 0 14 -260097 -66577
0;
#X obj 481 -48 cnv 15 200 24 empty empty empty 20 12 0 14 -261682 -66577
0;
#X obj 485 -45 inlet;
#X text 522 -50 <- Nom d'un fichier Audio;
#X text 523 -40 <- Name of an Audio file;
#X text 12 239 list2symbol pour;
#X text 12 250 les noms de fichier;
#X obj 293 101 cnv 4 10 4 empty empty empty 20 12 0 14 -260097 -66577
0;
#X obj 237 -48 cnv 15 240 24 empty empty empty 20 12 0 14 -261682 -66577
0;
#X obj 241 -45 inlet;
#X text 278 -50 <- Nom d'un fichier Audio + Play;
#X text 279 -40 <- Name of an Audio file + Play;
#X text 415 172 ../ before the name goes up one level;
#X text 31 -51 <- N'importe quel message -> Play;
#X text 31 -40 <- Any message -> Play;
#X obj 193 -19 cnv 15 100 24 empty empty empty 20 12 0 14 -261682 -66577
0;
#X obj 194 -16 inlet;
#X text 231 -22 <- 1 Play;
#X text 231 -11 <- 0 Stop;
#X obj 195 102 cnv 4 10 4 empty empty empty 20 12 0 14 -260097 -66577
0;
#N canvas 238 155 791 372 player 0;
#X msg 235 158 1;
#X msg 204 158 0;
#X msg 120 158 open \$1;
#X obj 189 93 t b b;
#X msg 321 95 set 0;
#X obj 188 59 sel 1 0;
#X obj 263 95 sel 1;
#X msg 276 158 set 1;
#X obj 263 56 f;
#X obj 188 34 f;
#X obj 235 295 outlet;
#X text 237 311 readsf;
#X obj 321 9 inlet;
#X text 323 -20 bang;
#X obj 321 295 outlet;
#X text 331 324 Play;
#X obj 253 9 inlet;
#X text 258 -8 Loop;
#X obj 127 9 inlet;
#X text 132 -9 Stop;
#X obj 15 9 inlet;
#X text 20 -8 Open;
#X text 144 324 Trig Decl;
#X text 157 311 bang;
#X obj 149 295 outlet;
#X text 305 -8 End of file;
#X obj 188 9 inlet;
#X text 193 -8 Play;
#X obj 68 295 outlet;
#X text 46 311 Nom du fichier;
#X text 52 324 File name;
#X text 57 -8 Trig Decl;
#X text 70 -20 bang;
#X obj 72 9 inlet;
#X obj 258 128 delay 2;
#X text 189 -20 Toggle;
#X text 327 311 Toggle;
#N canvas 448 247 285 285 chrono 0;
#X obj 65 116 metro 100;
#X obj 112 173 float;
#X obj 161 143 + 1;
#X msg 128 116 0;
#X obj 84 85 t b b;
#X obj 84 61 inlet;
#X obj 112 230 outlet;
#X obj 112 198 / 10;
#X text 82 14 chrono;
#X obj 218 61 inlet;
#X msg 218 88 0;
#X obj 161 117 * 10;
#X text 113 245 number;
#X text 80 39 Start;
#X text 218 41 Stop;
#X connect 0 0 1 0;
#X connect 1 0 7 0;
#X connect 2 0 1 1;
#X connect 3 0 1 0;
#X connect 4 0 0 0;
#X connect 4 1 3 0;
#X connect 5 0 4 0;
#X connect 7 0 6 0;
#X connect 7 0 11 0;
#X connect 9 0 10 0;
#X connect 10 0 0 0;
#X connect 11 0 2 0;
#X restore 331 199 pd chrono;
#X msg 330 264 label \$1;
#X obj 330 242 cyclone/tosymbol;
#X obj 331 221 cyclone/sprintf Play-%ssec;
#X connect 0 0 10 0;
#X connect 0 0 37 0;
#X connect 1 0 10 0;
#X connect 1 0 37 1;
#X connect 2 0 10 0;
#X connect 3 0 34 0;
#X connect 3 1 28 0;
#X connect 4 0 14 0;
#X connect 5 0 3 0;
#X connect 5 1 4 0;
#X connect 5 1 1 0;
#X connect 6 0 24 0;
#X connect 7 0 14 0;
#X connect 8 0 6 0;
#X connect 9 0 5 0;
#X connect 12 0 8 0;
#X connect 12 0 4 0;
#X connect 12 0 37 1;
#X connect 16 0 8 1;
#X connect 18 0 4 0;
#X connect 18 0 1 0;
#X connect 20 0 2 0;
#X connect 26 0 9 0;
#X connect 33 0 3 0;
#X connect 34 0 0 0;
#X connect 34 0 7 0;
#X connect 37 0 40 0;
#X connect 38 0 14 0;
#X connect 39 0 38 0;
#X connect 40 0 39 0;
#X restore 171 246 pd player;
#X obj 289 315 outlet~;
#X obj 243 131 cnv 4 10 4 empty empty empty 20 12 0 14 -1 -66577 0
;
#X obj 241 12 t b b a;
#X obj 485 12 t b b a;
#X text 397 160 <- ../ devant le nom remonte d'un dossier;
#X obj 0 201 zexy/list2symbol;
#X obj 280 52 zexy/list2symbol;
#X obj 103 116 hsl 279 14 0 127 0 0 \$0-A \$0-B empty -2 -8 0 10 -262144
-262144 -1 0 1;
#X symbolatom 100 116 47 0 0 0 - - -;
#X obj 629 314 cnv 15 42 25 empty empty empty 20 12 0 14 -24198 -66577
0;
#N canvas 336 174 309 137 ?. 0;
#X obj 3 83 cnv 15 300 46 empty empty empty 20 12 0 14 -224896 -66577
0;
#X obj 3 6 cnv 18 300 70 empty empty ARGOPdMiniModules 3 10 1 14 -4033
-1 0;
#X obj 26 26 cnv 10 10 10 empty empty Gerard 0 5 1 11 -4033 -1 0;
#X obj 64 26 cnv 10 10 10 empty empty Paresys 0 5 1 11 -4033 -1 0;
#X obj 7 37 pddp/pddplink http://gerard.paresys.free.fr/ARGOPd/;
#X text 8 85 Construit sous / Build under Pd 0.43.4-extended;
#X obj 8 111 pddp/pddplink http://puredata.info/downloads/pd-extended
;
#X obj 7 50 pddp/pddplink http://paresys.pagesperso-orange.fr/ARGOPd/
;
#X text 7 98 or Pd-0.46-7 + deken;
#X restore 633 318 pd ?.;
#X text 403 96 27 3 2017;
#X obj 214 274 readsf~ 2;
#X msg 0 162 123Croate.wav;
#X connect 3 0 27 0;
#X connect 4 0 62 0;
#X connect 5 0 62 0;
#X connect 7 0 48 3;
#X connect 8 0 48 2;
#X connect 9 0 48 4;
#X connect 10 0 48 1;
#X connect 11 0 3 0;
#X connect 15 0 22 0;
#X connect 18 0 10 0;
#X connect 23 0 24 0;
#X connect 24 0 8 0;
#X connect 27 0 48 3;
#X connect 27 1 62 0;
#X connect 27 2 4 0;
#X connect 30 0 52 0;
#X connect 37 0 51 0;
#X connect 44 0 7 0;
#X connect 48 0 62 0;
#X connect 48 1 10 0;
#X connect 48 2 61 0;
#X connect 48 3 7 0;
#X connect 51 0 10 0;
#X connect 51 1 62 0;
#X connect 51 2 55 0;
#X connect 52 0 48 2;
#X connect 52 1 62 0;
#X connect 52 2 55 0;
#X connect 54 0 48 0;
#X connect 54 0 57 0;
#X connect 55 0 4 0;
#X connect 56 0 11 0;
#X connect 61 0 2 0;
#X connect 61 1 49 0;
#X connect 61 2 48 5;
#X connect 61 2 15 0;
#X connect 62 0 54 0;
#X coords 0 -1 1 1 300 36 2 100 100;
#X restore 13 331 pd ARGO;
#X obj 30 764 dac~ 1 2;
#N canvas 413 140 402 279 ARGO 0;
#X obj 101 101 cnv 10 95 41 \$0-A \$0-B empty 20 12 0 14 -1 -1 0;
#X obj 101 109 nbx 4 12 0 1e+37 0 0 \$0 \$0-ReceiveCpuPeak CPUPeak
45 7 1 11 -24198 -1 -24198 20 256;
#X obj 101 122 nbx 4 12 0 1e+37 0 0 \$0 \$0-ReceiveCpuMean CPUMean
45 7 1 11 -24198 -1 -24198 20.19 256;
#X obj 145 -55 cputime;
#X obj 145 -76 t b b;
#X text 188 24 (c) musil@iem.kug.ac.at;
#X text 230 37 IEM KUG;
#X text 78 18 CPU-load;
#X obj 144 -125 loadbang;
#X text 205 48 graz \, austria 2001;
#X obj 145 -100 metro 500;
#X obj 145 -34 * 0.2;
#X text 237 -88 -dsp-load in %;
#X text 228 -101 measure average- and peak-;
#X obj 37 18 * 100;
#X obj 37 63 int;
#X obj 37 41 + 0.499;
#X obj 37 86 * 0.01;
#N canvas 524 162 422 273 1p1zmodif 0;
#X text 134 89 (c) musil@iem.kug.ac.at;
#X text 179 99 IEM KUG;
#X obj 14 195 +;
#X text 151 108 graz \, austria 2001;
#X text 135 71 y[n] = a0*x[n] + a1*x[n-1] + b1*y[n-1];
#X text 18 13 x[n];
#X text 16 244 y[n];
#X text 84 111 y[n-1];
#X text 134 56 <float> control-IIR-filter 1.order;
#X obj 15 28 inlet;
#X obj 14 228 outlet;
#X obj 15 112 * 0.1;
#X obj 59 156 * 0.9;
#X text 139 144 a1 = 0;
#X text 139 155 b1 = 0.9;
#X text 139 133 a0 = 0.1;
#X obj 15 50 t f b;
#X text 135 40 Inspiré de 1p1z;
#X obj 59 112 f 0;
#X connect 2 0 10 0;
#X connect 2 0 18 1;
#X connect 9 0 16 0;
#X connect 11 0 2 0;
#X connect 12 0 2 1;
#X connect 16 0 11 0;
#X connect 16 1 18 0;
#X connect 18 0 12 0;
#X restore 37 -8 pd 1p1zmodif;
#X text 146 9 Inspiré de 5.reference/iemabs/help-dsp.pd;
#X text 141 83 25 3 2010;
#X connect 3 0 11 0;
#X connect 4 0 3 0;
#X connect 4 1 3 1;
#X connect 8 0 10 0;
#X connect 10 0 4 0;
#X connect 11 0 18 0;
#X connect 11 0 1 0;
#X connect 14 0 16 0;
#X connect 15 0 17 0;
#X connect 16 0 15 0;
#X connect 17 0 2 0;
#X connect 18 0 14 0;
#X coords 0 -1 1 1 97 43 1 100 100;
#X restore 223 573 pd ARGO;
#N canvas 138 50 856 720 ARGO 0;
#X obj 301 251 cnv 20 142 196 empty ColorForm munger. 78 4 1 14 -188398
-1 1.04858e+06;
#X obj 301 431 cnv 4 10 4 empty empty empty 20 12 0 14 -1 -66577 0
;
#X obj 433 443 cnv 4 10 4 empty empty empty 0 0 0 9 -1 -66577 0;
#X obj 267 177 inlet~;
#X obj 424 177 inlet~;
#X obj 250 680 outlet~;
#X obj 377 680 outlet~;
#X obj 43 176 cnv 15 60 30 empty empty empty 20 12 0 14 -24198 -66577
0;
#N canvas 512 190 350 440 Help 0;
#X obj 14 29 cnv 15 320 300 empty empty empty 20 12 0 14 -228856 -66577
0;
#X text 12 10 MM munger;
#X text 43 144 munger~ takes a signal input;
#X text 41 154 and granulates it \, allowing for;
#X text 41 164 different transposition and;
#X text 41 173 granular sampling effects.;
#X text 41 186 disis_munger~ by;
#X text 40 196 Ivica Ico Bukvic;
#X text 40 206 and Ji-Sun Kim;
#X text 41 215 with help from;
#X text 40 225 Thomas Grill and;
#X text 41 235 Dan Trueman;
#X text 22 88 Original PeRColate library by: Dan Trueman & R. Luke
DuBois's, f 31;
#X obj 44 112 pddp/pddplink https://github.com/Cycling74/percolate
;
#X obj 39 70 pddp/pddplink https://github.com/jonwwilkes/purr-data
;
#X text 39 47 "a realtime multichannel granulator a.k.a. the swiss-army-knife
of realtime granular synthesis";
#X text 25 33 Based on Ivica Ico Bukvic's work: disis_munger~;
#X text 22 131 Citation:;
#X obj 41 256 pddp/pddplink https://disis.music.vt.edu/main/faculty.php
;
#X text 41 244 Virginia Tech DISIS;
#X text 43 277 oneshot note needs 8 args: transposition \, gain \,
pan \, attkT \, decayT \, susLevel \, relT \, direction [-1 or 0-1].")
, f 43;
#X restore 50 183 pd Help;
#X obj 303 430 hsl 139 12 0 100 0 1 \$0-A ColorAmpli Effect=100% 0
7 1 9 -261299 -262144 -1 13800 0;
#N canvas 560 290 286 223 DirEffect 0;
#X obj 13 25 inlet~;
#X obj 226 25 inlet~;
#X obj 62 25 inlet~;
#X obj 177 25 inlet~;
#X obj 13 188 outlet~;
#X obj 177 188 outlet~;
#X text 21 6 Dir1;
#X text 184 6 Dir2;
#X text 224 6 Effect2;
#X text 60 6 Effect1;
#X obj 177 141 *~;
#X obj 62 141 *~;
#X obj 226 141 *~;
#X obj 124 84 - 1;
#X obj 124 110 * -1;
#X obj 13 141 *~;
#X obj 124 25 inlet;
#X obj 124 49 / 100;
#X text 121 6 0...100;
#X connect 0 0 15 0;
#X connect 1 0 12 0;
#X connect 2 0 11 0;
#X connect 3 0 10 0;
#X connect 10 0 5 0;
#X connect 11 0 4 0;
#X connect 12 0 5 0;
#X connect 13 0 14 0;
#X connect 14 0 10 1;
#X connect 14 0 15 1;
#X connect 15 0 4 0;
#X connect 16 0 17 0;
#X connect 17 0 13 0;
#X connect 17 0 11 1;
#X connect 17 0 12 1;
#X restore 288 655 pd DirEffect;
#X obj 301 251 cnv 4 10 4 empty empty empty 20 12 0 14 -1 -66577 0
;
#X obj 433 251 cnv 4 10 4 empty empty empty 0 0 0 9 -1 -66577 0;
#X obj 313 262 bng 12 50 50 0 \$0-A \$0-B Init 14 6 1 10 -262144 -1
-1;
#X obj 313 274 bng 12 50 50 0 \$0-A \$0-B Silence 14 6 1 10 -262144
-1 -1;
#X obj 503 269 t b b b b b b b b b b, f 33;
#X obj 303 322 hsl 139 12 1 10001 1 1 \$0-A ColorForm GrainSizeVar=9ms
3 6 1 9 -212212 -262144 -1 3593 0;
#N canvas 251 216 292 221 label 0;
#X msg 40 132 label \$1;
#X obj 40 36 inlet;
#X obj 39 160 outlet;
#X obj 40 110 symbol;
#X obj 40 88 cyclone/sprintf GrainSizeVar=%dms;
#X obj 40 63 - 1;
#X obj 159 161 outlet;
#X connect 0 0 2 0;
#X connect 1 0 5 0;
#X connect 3 0 0 0;
#X connect 4 0 3 0;
#X connect 5 0 6 0;
#X connect 5 0 4 0;
#X restore 162 294 pd label;
#X obj 303 310 hsl 139 12 1 10001 1 1 \$0-A ColorForm GrainSize=2631ms
3 6 1 9 -212212 -262144 -1 11800 0;
#N canvas 251 216 292 221 label 0;
#X msg 33 110 label \$1;
#X obj 33 11 inlet;
#X obj 32 138 outlet;
#X obj 33 88 symbol;
#X obj 33 66 cyclone/sprintf GrainSize=%dms;
#X obj 33 38 - 1;
#X obj 134 133 outlet;
#X connect 0 0 2 0;
#X connect 1 0 5 0;
#X connect 3 0 0 0;
#X connect 4 0 3 0;
#X connect 5 0 6 0;
#X connect 5 0 4 0;
#X restore 162 276 pd label;
#X obj 303 334 hsl 139 12 1 10001 1 1 \$0-A ColorForm GrainSpace=9ms
3 6 1 9 -212212 -262144 -1 3593 0;
#N canvas 251 216 292 221 label 0;
#X msg 49 106 label \$1;
#X obj 49 14 inlet;
#X obj 49 133 outlet;
#X obj 49 84 symbol;
#X obj 49 62 cyclone/sprintf GrainSpace=%dms;
#X obj 49 39 - 1;
#X obj 134 133 outlet;
#X connect 0 0 2 0;
#X connect 1 0 5 0;
#X connect 3 0 0 0;
#X connect 4 0 3 0;
#X connect 5 0 4 0;
#X connect 5 0 6 0;
#X restore 162 312 pd label;
#N canvas 251 216 292 221 label 0;
#X msg 119 118 label \$1;
#X obj 119 46 inlet;
#X obj 118 146 outlet;
#X obj 120 74 cyclone/sprintf Effect=%d%%;
#X obj 119 96 symbol;
#X connect 0 0 2 0;
#X connect 1 0 3 0;
#X connect 3 0 4 0;
#X connect 4 0 0 0;
#X restore 162 458 pd label;
#X obj 303 346 hsl 139 12 1 10001 1 1 \$0-A ColorForm GrainSpaceVar=9ms
3 6 1 9 -212212 -262144 -1 3593 0;
#N canvas 251 216 292 221 label 0;
#X msg 42 114 label \$1;
#X obj 43 16 inlet;
#X obj 41 142 outlet;
#X obj 42 92 symbol;
#X obj 43 39 - 1;
#X obj 134 133 outlet;
#X obj 43 70 cyclone/sprintf GrainSpaceVar=%dms;
#X connect 0 0 2 0;
#X connect 1 0 4 0;
#X connect 3 0 0 0;
#X connect 4 0 5 0;
#X connect 4 0 6 0;
#X connect 6 0 3 0;
#X restore 162 330 pd label;
#X obj 366 251 cnv 4 10 4 empty empty empty 20 12 0 14 -260097 -66577
0;
#X obj 348 177 inlet;
#X obj 739 177 loadbang;
#X obj 789 680 cnv 15 34 16 empty empty empty 20 12 0 14 -24198 -66577
0;
#N canvas 353 174 333 161 ?? 0;
#X obj 17 89 cnv 15 300 56 empty empty empty 20 12 0 14 -224896 -66577
0;
#X obj 17 12 cnv 18 300 70 empty empty ARGOPdMiniModules 3 10 1 14
-4033 -1 1.04858e+06;
#X obj 40 32 cnv 10 10 10 empty empty Gerard 0 5 1 11 -4033 -1 1.04858e+06
;
#X obj 78 32 cnv 10 10 10 empty empty Paresys 0 5 1 11 -4033 -1 1.04858e+06
;
#X obj 20 54 pddp/pddplink http://gerard.paresys.free.fr/ARGOPd/;
#X obj 22 126 pddp/pddplink http://puredata.info/downloads/pd-extended
;
#X obj 22 102 pddp/pddplink http://puredata.info/downloads/pure-data
;
#X text 22 90 Construit sous / Build under Pd-0.49...;
#X text 21 114 or Pd 0.43.4-extended;
#X obj 20 66 pddp/pddplink https://paresys.pagesperso-orange.fr/ARGOPd/
;
#X obj 20 42 pddp/pddplink https://github.com/gerardparesys/ARGOPd
;
#X restore 789 680 pd ??;
#X msg 21 498 voices \$1;
#X msg 309 498 ramptime \$1;
#X msg 585 498 ambidirectional \$1;
#X msg 243 498 record \$1;
#X msg 126 498 position \$1;
#X msg 502 498 rand_gain \$1;
#X msg 85 498 clear;
#X msg 386 498 delaylength_ms \$1;
#X msg 202 498 state;
#X msg 546 293 50;
#X obj 365 262 bng 12 50 50 0 \$0-A \$0-B State 14 6 1 10 -262144 -1
-1;
#X msg 524 316 11;
#X msg 503 293 101;
#X obj 303 358 hsl 139 12 1 10000 1 1 \$0-A ColorForm GrainPitch=100%
3 6 1 9 -212212 -262144 -1 6900 0;
#N canvas 251 216 292 221 label 0;
#X msg 42 114 label \$1;
#X obj 43 16 inlet;
#X obj 41 142 outlet;
#X obj 42 92 symbol;
#X obj 134 142 outlet;
#X obj 43 70 cyclone/sprintf GrainPitch=%d%%;
#X obj 134 114 / 100;
#X connect 0 0 2 0;
#X connect 1 0 5 0;
#X connect 1 0 6 0;
#X connect 3 0 0 0;
#X connect 5 0 3 0;
#X connect 6 0 4 0;
#X restore 162 348 pd label;
#X msg 568 316 100;
#X obj 303 370 hsl 139 12 1 10000 1 1 \$0-A ColorForm GrainPitchVar=0%
3 6 1 9 -199729 -262144 -1 0 0;
#N canvas 251 216 292 221 label 0;
#X msg 42 114 label \$1;
#X obj 43 16 inlet;
#X obj 41 142 outlet;
#X obj 42 92 symbol;
#X obj 134 142 outlet;
#X obj 134 114 / 100;
#X obj 43 70 cyclone/sprintf GrainPitchVar=%d%%;
#X obj 43 39 - 1;
#X connect 0 0 2 0;
#X connect 1 0 7 0;
#X connect 3 0 0 0;
#X connect 5 0 4 0;
#X connect 6 0 3 0;
#X connect 7 0 6 0;
#X connect 7 0 5 0;
#X restore 162 366 pd label;
#X msg 589 293 1;
#X obj 303 418 hsl 139 12 0 100 0 1 \$0-A ColorAmpli Stereo=100% 0
7 1 9 -261299 -262144 -1 13800 0;
#N canvas 251 216 292 221 label 0;
#X msg 119 118 label \$1;
#X obj 119 46 inlet;
#X obj 118 146 outlet;
#X obj 119 96 symbol;
#X obj 120 74 cyclone/sprintf Stereo=%d%%;
#X obj 208 118 / 100;
#X obj 208 146 outlet;
#X connect 0 0 2 0;
#X connect 1 0 4 0;
#X connect 1 0 5 0;
#X connect 3 0 0 0;
#X connect 4 0 3 0;
#X connect 5 0 6 0;
#X restore 162 440 pd label;
#X obj 313 250 tgl 12 1 \$0-A \$0-B On 14 7 1 9 -262144 -1 -1 1 1;
#X obj 196 680 switch~;
#N canvas 757 420 364 413 label 0;
#X msg 46 188 label \$1;
#X obj 46 28 inlet;
#X obj 46 260 outlet;
#X obj 46 162 symbol;
#X obj 153 260 outlet;
#X obj 318 163 / 100;
#X obj 46 88 cyclone/sprintf Position=%d%%;
#X obj 234 28 inlet;
#X text 234 8 Alea;
#X obj 262 100 t b b;
#X msg 289 125 Alea;
#X obj 234 58 select 0 1;
#X msg 120 57 set 0;
#X obj 244 260 outlet;
#X text 248 276 Alea;
#X text 149 276 Position;
#X obj 277 81 delay 100;
#X obj 153 188 expr if ($f1 == 1 \, -1 \, $f2) \;;
#X connect 0 0 2 0;
#X connect 1 0 6 0;
#X connect 1 0 5 0;
#X connect 3 0 0 0;
#X connect 5 0 17 1;
#X connect 6 0 3 0;
#X connect 7 0 11 0;
#X connect 7 0 17 0;
#X connect 9 1 10 0;
#X connect 10 0 3 0;
#X connect 11 0 2 0;
#X connect 11 1 9 0;
#X connect 12 0 13 0;
#X connect 17 0 4 0;
#X restore 162 422 pd label;
#X obj 303 286 hsl 139 12 1 200 0 1 \$0-A ColorAmpli Voices=8 0 7 1
9 -258113 -262144 -262144 500 0;
#N canvas 251 216 292 221 label 0;
#X msg 119 118 label \$1;
#X obj 119 46 inlet;
#X obj 118 146 outlet;
#X obj 119 96 symbol;
#X obj 120 74 cyclone/sprintf Voices=%d;
#X connect 0 0 2 0;
#X connect 1 0 4 0;
#X connect 3 0 0 0;
#X connect 4 0 3 0;
#X restore 162 238 pd label;
#X obj 365 274 tgl 12 1 \$0-A \$0-B Freeze 14 7 1 9 -262144 -1 -1 0
1;
#X obj 243 474 == 0;
#X msg 611 316 0;
#X obj 303 382 hsl 139 12 1 10000 1 1 \$0-A ColorForm GrainRamp=46ms
3 6 1 9 -199729 -262144 -1 5861 0;
#N canvas 251 216 292 221 label 0;
#X msg 42 114 label \$1;
#X obj 43 16 inlet;
#X obj 41 142 outlet;
#X obj 42 92 symbol;
#X obj 134 142 outlet;
#X obj 43 39 - 1;
#X obj 134 114 * 44;
#X obj 43 67 cyclone/sprintf GrainRamp=%dms;
#X connect 0 0 2 0;
#X connect 1 0 5 0;
#X connect 3 0 0 0;
#X connect 5 0 6 0;
#X connect 5 0 7 0;
#X connect 6 0 4 0;
#X connect 7 0 3 0;
#X restore 162 384 pd label;
#X obj 303 298 hsl 139 12 1 10000 1 1 \$0-A ColorForm Delay=10000ms
3 6 1 9 -191424 -262144 -1 13800 0;
#N canvas 251 216 292 221 label 0;
#X msg 42 114 label \$1;
#X obj 43 16 inlet;
#X obj 41 142 outlet;
#X obj 42 92 symbol;
#X obj 43 70 cyclone/sprintf Delay=%dms;
#X connect 0 0 2 0;
#X connect 1 0 4 0;
#X connect 3 0 0 0;
#X connect 4 0 3 0;
#X restore 162 257 pd label;
#X obj 307 593 disis_munger~ 500000 2 200, f 28;
#X msg 633 293 10000;
#X obj 414 262 tgl 12 1 \$0-A \$0-B > 14 6 1 12 -262144 -1 -1 1 1;
#X obj 414 274 tgl 12 1 \$0-A \$0-B < 14 6 1 12 -262144 -1 -1 0 1;
#N canvas 861 431 450 300 forward 0;
#X obj 147 99 select 0;
#X obj 81 99 select 0;
#X msg 81 121 1;
#X msg 147 123 1;
#X obj 237 99 expr $f1 - $f2;
#X obj 266 74 t b a;
#X obj 81 36 inlet;
#X text 84 17 >;
#X obj 147 36 inlet;
#X text 150 17 <;
#X text 92 277 >;
#X text 158 277 <;
#X obj 81 259 outlet;
#X obj 147 259 outlet;
#X obj 237 259 outlet;
#X text 198 277 ambidirectional -1 0 1;
#X connect 0 0 3 0;
#X connect 1 0 2 0;
#X connect 2 0 13 0;
#X connect 3 0 12 0;
#X connect 4 0 14 0;
#X connect 5 0 4 0;
#X connect 5 1 4 1;
#X connect 6 0 1 0;
#X connect 6 0 4 0;
#X connect 8 0 0 0;
#X connect 8 0 5 0;
#X restore 474 432 pd forward backward;
#X obj 410 406 tgl 12 1 \$0-A \$0-B Alea 14 7 1 9 -262144 -1 -1 1 1
;
#X obj 303 406 hsl 105 12 0 100 0 1 \$0-A ColorForm Position=32% 3
6 1 9 -191424 -262144 -1 3400 0;
#X msg 706 498 gain 0.2;
#X obj 303 394 hsl 139 12 0 100 0 1 \$0-A ColorForm GrainAmpliVar=0%
3 6 1 9 -199729 -262144 -1 0 0;
#N canvas 255 472 292 221 label 0;
#X msg 42 114 label \$1;
#X obj 43 16 inlet;
#X obj 41 142 outlet;
#X obj 42 92 symbol;
#X obj 134 142 outlet;
#X obj 134 114 / 100;
#X obj 43 70 cyclone/sprintf GrainAmpliVar=%d%%;
#X connect 0 0 2 0;
#X connect 1 0 5 0;
#X connect 1 0 6 0;
#X connect 3 0 0 0;
#X connect 5 0 4 0;
#X connect 6 0 3 0;
#X restore 162 403 pd label;
#X text 327 232 28 10 2019;
#X msg 768 498 oneshot 0;
#N canvas 838 298 490 295 arguments 0;
#X text 75 41 and allocates memory \, so be careful with large values.
;
#X text 72 51 (3000ms by default.) this also constrains the maximum
;
#X text 74 60 grain size \, to 1/3rd the maximum delay time.;
#X text 51 12 optional arguments:;
#X text 64 32 1 sets the maximum delay time (in ms);
#X text 62 91 3 either optional max voices (default 50) or name;
#X text 71 100 (optional). If more than one disis_munger~ object is
used;
#X text 74 110 in the same patch \, this enables easier tracking of
the;
#X text 73 120 PD console output.;
#X text 59 135 4 if optional max voices was set as third argument;
#X text 71 145 this argument is used for the name instead. Alternately
\,;
#X text 71 154 last argument can be also used for extending the visual
;
#X text 72 164 width of the object by typing _____. This can be also
;
#X text 71 173 used as the 3rd argument in which case all arguments
that;
#X text 70 183 follow are ignored.;
#X text 67 217 IMPORTANT! In order to be able to name any instance
\, you;
#X text 67 228 must provide arguments first 3 arguments. Old 1-argument
;
#X text 67 240 format is provided for backwards compatibilitiy purposes.
;
#X text 63 76 2 sets number of output channels 2-64 (2 by default)
;
#X restore 485 594 pd arguments;
#X obj 53 29 cnv 15 730 130 empty empty empty 20 12 0 14 -4033 -66577
0;
#X obj 188 95 pddp/pddplink http://puredata.info/docs/faq/how-do-i-install-externals-and-help-files
;
#X text 57 31 ATTENTION ce MiniModule utilise des objets qui ne sont
pas inclus dans Pd-extended.;
#X text 425 31 WARNING this MiniModule uses objects that are not included
in Pd-extended.;
#X text 59 67 Placer les fichiers correpondants dans le même dossier
que le patch contenant le MiniModule ou dans un dosier spécial:;
#X text 425 67 Put the corresponding files in the same folder as the
patch containing the MiniModule or in a special folder:;
#X text 318 120 Windows:;
#X text 276 109 MacOS + Pd 64b: disis_munger~.pd_darwin;
#X text 630 141 cf ExMM208-munger;
#X text 312 131 Linux32b: disis_munger~.pd_linux;
#X text 312 142 Linux64b: disis_munger~.pd_linux;
#X connect 3 0 10 0;
#X connect 3 0 63 0;
#X connect 4 0 10 3;
#X connect 4 0 63 0;
#X connect 9 0 10 2;
#X connect 9 0 22 0;
#X connect 10 0 5 0;
#X connect 10 1 6 0;
#X connect 13 0 15 0;
#X connect 14 0 36 0;
#X connect 15 0 42 0;
#X connect 15 1 41 0;
#X connect 15 2 39 0;
#X connect 15 3 45 0;
#X connect 15 4 48 0;
#X connect 15 5 58 0;
#X connect 15 6 64 0;
#X connect 16 0 17 0;
#X connect 17 0 16 0;
#X connect 17 1 63 4;
#X connect 18 0 19 0;
#X connect 19 0 18 0;
#X connect 19 1 63 3;
#X connect 20 0 21 0;
#X connect 21 0 20 0;
#X connect 21 1 63 1;
#X connect 22 0 9 0;
#X connect 23 0 24 0;
#X connect 24 0 23 0;
#X connect 24 1 63 2;
#X connect 26 0 63 0;
#X connect 27 0 70 0;
#X connect 27 0 74 0;
#X connect 30 0 63 0;
#X connect 31 0 63 0;
#X connect 32 0 63 0;
#X connect 33 0 63 0;
#X connect 34 0 63 0;
#X connect 35 0 63 0;
#X connect 36 0 63 0;
#X connect 37 0 63 0;
#X connect 38 0 63 0;
#X connect 39 0 54 0;
#X connect 39 0 59 0;
#X connect 40 0 38 0;
#X connect 41 0 16 0;
#X connect 41 0 20 0;
#X connect 41 0 23 0;
#X connect 42 0 18 0;
#X connect 43 0 44 0;
#X connect 44 0 43 0;
#X connect 44 1 63 5;
#X connect 45 0 43 0;
#X connect 45 0 49 0;
#X connect 45 0 9 0;
#X connect 46 0 47 0;
#X connect 47 0 46 0;
#X connect 47 1 63 6;
#X connect 48 0 46 0;
#X connect 48 0 51 0;
#X connect 48 0 68 0;
#X connect 48 0 65 0;
#X connect 49 0 50 0;
#X connect 50 0 49 0;
#X connect 50 1 63 7;
#X connect 51 0 52 0;
#X connect 53 0 69 0;
#X connect 53 1 34 0;
#X connect 53 2 68 0;
#X connect 54 0 55 0;
#X connect 54 0 30 0;
#X connect 55 0 54 0;
#X connect 56 0 57 0;
#X connect 57 0 33 0;
#X connect 58 0 56 0;
#X connect 58 0 71 0;
#X connect 58 0 66 0;
#X connect 59 0 60 0;
#X connect 60 0 59 0;
#X connect 60 1 31 0;
#X connect 61 0 62 0;
#X connect 61 0 37 0;
#X connect 62 0 61 0;
#X connect 63 0 10 1;
#X connect 63 1 10 4;
#X connect 64 0 61 0;
#X connect 65 0 67 0;
#X connect 66 0 67 1;
#X connect 67 0 65 0;
#X connect 67 1 66 0;
#X connect 67 2 32 0;
#X connect 68 0 53 1;
#X connect 69 0 53 0;
#X connect 70 0 63 0;
#X connect 71 0 72 0;
#X connect 72 0 71 0;
#X connect 72 1 35 0;
#X connect 74 0 63 0;
#X coords 0 -1 1 1 144 198 1 300 250;
#X restore 18 380 pd ARGO;
#N canvas 512 67 385 401 ARGO 0;
#X obj 101 101 cnv 20 116 34 empty ColorAmpli empty 20 12 0 14 -261299
-1 1.04858e+06;
#X obj 85 353 outlet~;
#X obj 157 104 cnv 10 20 10 empty ColorAmpli Ampli. 1 5 1 14 -261299
-1 1.04858e+06;
#X obj 85 43 inlet~;
#X obj 85 330 *~;
#X obj 115 118 hsl 101 12 -80 20 0 1 \$0-A ColorAmpli -6dB 0 7 1 9
-261299 -1 -1 7400 0;
#X obj 101 101 cnv 4 10 4 empty empty empty 20 12 0 14 -1 -66577 0
;
#X obj 101 131 cnv 4 10 4 empty empty empty 20 12 0 14 -1 -66577 0
;
#X obj 207 101 cnv 4 10 4 empty empty empty 20 12 0 14 -1 -66577 0
;
#X obj 207 131 cnv 4 10 4 empty empty empty 20 12 0 14 -1 -66577 0
;
#X obj 222 352 outlet~;
#X obj 222 42 inlet~;
#X obj 222 329 *~;
#X msg -42 138 label \$1;
#X text 148 194 -> 0.0001..10 = -80dB..20dB;
#X obj 142 175 expr (pow(10 \, $f1 / 20));
#X obj 142 215 sel 0.0001;
#X msg 100 244 0;
#X obj 100 118 tgl 12 1 \$0-A \$0-B Mute 2 -5 1 9 -261299 -1 -1 0 1
;
#X obj 99 146 select 0 1;
#X obj 140 295 line~;
#X obj 140 275 pack 0 10;
#X msg 123 74 set 0;
#X obj -42 92 cyclone/sprintf %ddB;
#X text 228 110 6 3 2016;
#X obj -42 115 cyclone/tosymbol;
#X obj 273 344 cnv 15 42 25 empty empty empty 20 12 0 14 -24198 -66577
0;
#N canvas 336 174 309 137 ?. 0;
#X obj 3 83 cnv 15 300 46 empty empty empty 20 12 0 14 -224896 -66577
0;
#X obj 3 6 cnv 18 300 70 empty empty ARGOPdMiniModules 3 10 1 14 -4033
-1 1.04858e+06;
#X obj 26 26 cnv 10 10 10 empty empty Gerard 0 5 1 11 -4033 -1 1.04858e+06
;
#X obj 64 26 cnv 10 10 10 empty empty Paresys 0 5 1 11 -4033 -1 1.04858e+06
;
#X obj 7 37 pddp/pddplink http://gerard.paresys.free.fr/ARGOPd/;
#X text 8 85 Construit sous / Build under Pd 0.43.4-extended;
#X obj 8 111 pddp/pddplink http://puredata.info/downloads/pd-extended
;
#X obj 7 50 pddp/pddplink http://paresys.pagesperso-orange.fr/ARGOPd/
;
#X text 7 98 or Pd-0.46-7 + deken;
#X restore 277 348 pd ?.;
#X connect 3 0 4 0;
#X connect 4 0 1 0;
#X connect 5 0 15 0;
#X connect 5 0 23 0;
#X connect 11 0 12 0;
#X connect 12 0 10 0;
#X connect 13 0 5 0;
#X connect 15 0 16 0;
#X connect 16 0 17 0;
#X connect 16 1 21 0;
#X connect 16 1 22 0;
#X connect 17 0 21 0;
#X connect 17 0 25 0;
#X connect 18 0 19 0;
#X connect 19 0 5 0;
#X connect 19 1 17 0;
#X connect 20 0 12 1;
#X connect 20 0 4 1;
#X connect 21 0 20 0;
#X connect 22 0 18 0;
#X connect 23 0 25 0;
#X connect 25 0 13 0;
#X coords 0 -1 1 1 118 36 1 100 100;
#X restore 30 592 pd ARGO;
#N canvas 446 64 251 267 ARGO 0;
#X obj 101 104 cnv 30 49 130 empty ColorAmpli empty 20 12 0 14 -1 -258113
0;
#X obj 102 110 vu 8 120 \$0-B empty 0 0 1 11 -1 -4034 0 0;
#X obj 49 35 inlet~;
#X obj 22 108 cnv 15 60 30 empty empty empty 20 12 0 14 -24198 -66577
0;
#N canvas 300 65 442 264 Help 0;
#X obj 12 48 cnv 15 400 150 empty empty empty 20 12 0 14 -233017 -66577
0;
#X text 16 50 Citation;
#X text 28 67 peakamp~ tracks and outputs the absolute value of the
peak amplitude of the incoming signal. It outputs when banged or using
its own internal clock. The peak value is reset each time peakamp~
outputs a value.;
#X text 29 123 cyclone library;
#X text 28 135 http://suita.chopin.edu.pl/~czaja/miXed/externs/cyclone.html
;
#X text 29 155 Voir doc Max/MSP MSP46ReferenceManual.pdf;
#X text 18 14 MM-Vumetre;
#X restore 29 114 pd Help;
#N canvas 541 112 317 265 VuMetre 0;
#X obj 48 19 inlet~;
#X obj 41 54 *~;
#X obj -25 132 snapshot~;
#X obj -25 155 sqrt;
#X obj -25 100 lop~ 10;
#X obj -25 179 rmstodb;
#X obj -88 19 loadbang;
#X obj -25 202 - 100;
#X obj 58 156 sqrt;
#X obj 58 180 rmstodb;
#X obj 58 203 - 100;
#X obj -89 102 metro 200;
#X obj -28 19 r SendFluid;
#X obj 58 102 cyclone/peakamp~ 1000;
#X obj -25 228 outlet;
#X obj 58 227 outlet;
#X connect 0 0 1 0;
#X connect 0 0 1 1;
#X connect 1 0 4 0;
#X connect 1 0 13 0;
#X connect 2 0 3 0;
#X connect 3 0 5 0;
#X connect 4 0 2 0;
#X connect 5 0 7 0;
#X connect 6 0 11 0;
#X connect 7 0 14 0;
#X connect 8 0 9 0;
#X connect 9 0 10 0;
#X connect 10 0 15 0;
#X connect 11 0 2 0;
#X connect 12 0 11 1;
#X connect 13 0 8 0;
#X restore 49 63 pd VuMetre;
#X obj 172 211 cnv 15 42 25 empty empty empty 20 12 0 14 -24198 -66577
0;
#N canvas 336 174 309 137 ?. 0;
#X obj 3 83 cnv 15 300 46 empty empty empty 20 12 0 14 -224896 -66577
0;
#X obj 3 6 cnv 18 300 70 empty empty ARGOPdMiniModules 3 10 1 14 -4033
-1 1.04858e+06;
#X obj 26 26 cnv 10 10 10 empty empty Gerard 0 5 1 11 -4033 -1 1.04858e+06
;
#X obj 64 26 cnv 10 10 10 empty empty Paresys 0 5 1 11 -4033 -1 1.04858e+06
;
#X obj 7 37 pddp/pddplink http://gerard.paresys.free.fr/ARGOPd/;
#X text 8 85 Construit sous / Build under Pd 0.43.4-extended;
#X obj 8 111 pddp/pddplink http://puredata.info/downloads/pd-extended
;
#X obj 7 50 pddp/pddplink http://paresys.pagesperso-orange.fr/ARGOPd/
;
#X text 7 98 or Pd-0.46-7 + deken;
#X restore 176 215 pd ?.;
#X obj 113 110 vu 8 120 \$0-B empty 0 0 1 11 -1 -4034 1 0;
#X obj 126 35 inlet~;
#N canvas 541 112 317 265 VuMetre 0;
#X obj 48 19 inlet~;
#X obj 41 54 *~;
#X obj -25 132 snapshot~;
#X obj -25 155 sqrt;
#X obj -25 100 lop~ 10;
#X obj -25 179 rmstodb;
#X obj -88 19 loadbang;
#X obj -25 202 - 100;
#X obj 58 156 sqrt;
#X obj 58 180 rmstodb;
#X obj 58 203 - 100;
#X obj -89 102 metro 200;
#X obj -28 19 r SendFluid;
#X obj 58 102 cyclone/peakamp~ 1000;
#X obj -25 228 outlet;
#X obj 58 227 outlet;
#X connect 0 0 1 0;
#X connect 0 0 1 1;
#X connect 1 0 4 0;
#X connect 1 0 13 0;
#X connect 2 0 3 0;
#X connect 3 0 5 0;
#X connect 4 0 2 0;
#X connect 5 0 7 0;
#X connect 6 0 11 0;
#X connect 7 0 14 0;
#X connect 8 0 9 0;
#X connect 9 0 10 0;
#X connect 10 0 15 0;
#X connect 11 0 2 0;
#X connect 12 0 11 1;
#X connect 13 0 8 0;
#X restore 126 63 pd VuMetre;
#X text 153 87 3 3 2019;
#X connect 2 0 5 0;
#X connect 5 0 1 0;
#X connect 5 1 1 1;
#X connect 9 0 10 0;
#X connect 10 0 8 0;
#X connect 10 1 8 1;
#X coords 0 -1 1 1 51 135 2 100 100;
#X restore 266 645 pd ARGO;
#X obj 441 765 cnv 15 34 16 empty empty empty 20 12 0 14 -24198 -66577
0;
#N canvas 353 174 333 161 ?? 0;
#X obj 17 89 cnv 15 300 56 empty empty empty 20 12 0 14 -224896 -66577
0;
#X obj 17 12 cnv 18 300 70 empty empty ARGOPdMiniModules 3 10 1 14
-4033 -1 1.04858e+06;
#X obj 40 32 cnv 10 10 10 empty empty Gerard 0 5 1 11 -4033 -1 1.04858e+06
;
#X obj 78 32 cnv 10 10 10 empty empty Paresys 0 5 1 11 -4033 -1 1.04858e+06
;
#X obj 20 54 pddp/pddplink http://gerard.paresys.free.fr/ARGOPd/;
#X obj 22 126 pddp/pddplink http://puredata.info/downloads/pd-extended
;
#X obj 22 102 pddp/pddplink http://puredata.info/downloads/pure-data
;
#X text 22 90 Construit sous / Build under Pd-0.49...;
#X text 21 114 or Pd 0.43.4-extended;
#X obj 20 66 pddp/pddplink https://paresys.pagesperso-orange.fr/ARGOPd/
;
#X obj 20 42 pddp/pddplink https://github.com/gerardparesys/ARGOPd
;
#X restore 441 765 pd ??;
#N canvas 286 50 728 239 ARGO 0;
#X obj 239 36 inlet~;
#X text 77 17 Left input;
#X text 224 17 Right input;
#X text 356 37 Stereo wav file format recorder;
#X text 356 52 Enregistreur de fichier audio wav à 2 canaux (stereo)
;
#X obj 88 36 inlet~;
#X obj 171 198 writesf~ 2;
#X text 356 67 L'extension .wav est ajoutée au nom du fichier automatiquement
;
#X obj 103 100 hsl 161 17 0 127 0 0 \$0-A \$0-B Record. 103 10 1 14
-261299 -261299 -1 0 1;
#X obj 255 101 cnv 4 10 4 empty empty empty 20 12 0 14 -1 -66577 0
;
#X obj 101 101 cnv 4 10 4 empty empty empty 20 12 0 14 -1 -66577 0
;
#X obj 112 100 nbx 4 17 0 9999 0 0 \$0-A ColorTime sec 59 9 1 15 -208064
-1 -1 0 256;
#X text 355 103 Clic n'importe où pour commencer un enregistrement
Audio -> Clic encore pour arrêter l'enregistrement;
#X text 456 130 Click anywhere to start recording Audio ->;
#X text 455 142 Click again to stop recording;
#X text 121 122 Hslider caché transformé en bouton;
#N canvas 415 66 351 399 record2 0;
#X obj 136 95 sel 0 1;
#X msg 171 260 start;
#X msg 107 259 stop;
#X msg 155 150 open \$1;
#X obj 155 126 savepanel;
#X obj 165 203 delay 1000;
#X obj 245 323 float;
#X obj 291 322 + 1;
#X obj 223 295 metro 1000;
#X msg 291 296 -1;
#X msg 11 257 0;
#X msg 42 257 1;
#X obj 66 210 t b b;
#X obj 165 229 t b b b b;
#N canvas 317 143 290 366 CouleurRecord2 0;
#X obj 122 -19 +;
#X obj 122 37 +;
#X obj 61 -75 * -65536;
#X obj 117 -75 * -256;
#X obj 163 -77 * -1;
#X obj 122 68 - 1;
#X obj 115 -202 inlet;
#X text 77 -97 R;
#X text 123 -99 G;
#X text 172 -98 B;
#X obj 122 123 outlet;
#X text 170 -169 Rouge;
#X msg 134 -121 255;
#X msg 167 -121 0;
#X obj 115 -178 sel 0 1;
#X text 56 -170 Rose;
#X msg 73 -121 200;
#X msg 40 -121 252;
#X obj 134 -148 t b b b;
#X msg 198 -121 0;
#X msg 104 -121 200;
#X obj 40 -148 t b b b;
#X msg 122 96 color \$1 \$1 -1;
#X connect 0 0 1 1;
#X connect 1 0 5 0;
#X connect 2 0 1 0;
#X connect 3 0 0 0;
#X connect 4 0 0 1;
#X connect 5 0 22 0;
#X connect 6 0 14 0;
#X connect 12 0 2 0;
#X connect 13 0 3 0;
#X connect 14 0 21 0;
#X connect 14 1 18 0;
#X connect 16 0 3 0;
#X connect 17 0 2 0;
#X connect 18 0 12 0;
#X connect 18 1 13 0;
#X connect 18 2 19 0;
#X connect 19 0 4 0;
#X connect 20 0 4 0;
#X connect 21 0 17 0;
#X connect 21 1 16 0;
#X connect 21 2 20 0;
#X connect 22 0 10 0;
#X restore 25 326 pd CouleurRecord2;
#X obj 136 75 tgl 15 0 \$0-A \$0-B empty 19 9 1 12 -262144 -258113
-1 0 1;
#X obj 136 30 b;
#X obj 136 52 delay 200;
#X obj 136 8 inlet;
#X obj 25 356 outlet;
#X text 22 372 Couleur;
#X obj 291 356 outlet;
#X text 288 372 Compteur;
#X obj 155 356 outlet;
#X text 152 372 writesf;
#X obj 199 176 t b b;
#X msg 72 33 0;
#X obj 72 8 loadbang;
#X msg 260 124 set 0;
#X msg 261 173 set 1;
#X obj 261 149 b;
#X connect 0 0 12 0;
#X connect 0 1 4 0;
#X connect 0 1 28 0;
#X connect 1 0 23 0;
#X connect 2 0 8 0;
#X connect 2 0 23 0;
#X connect 3 0 23 0;
#X connect 3 0 25 0;
#X connect 4 0 3 0;
#X connect 4 0 30 0;
#X connect 5 0 13 0;
#X connect 6 0 7 0;
#X connect 7 0 6 1;
#X connect 7 0 21 0;
#X connect 8 0 6 0;
#X connect 9 0 7 0;
#X connect 10 0 14 0;
#X connect 11 0 14 0;
#X connect 12 0 10 0;
#X connect 12 1 2 0;
#X connect 13 0 11 0;
#X connect 13 1 1 0;
#X connect 13 2 8 0;
#X connect 13 3 9 0;
#X connect 14 0 19 0;
#X connect 15 0 0 0;
#X connect 16 0 17 0;
#X connect 17 0 15 0;
#X connect 18 0 16 0;
#X connect 25 0 5 0;
#X connect 25 1 9 0;
#X connect 26 0 15 0;
#X connect 27 0 26 0;
#X connect 28 0 15 0;
#X connect 29 0 15 0;
#X connect 30 0 29 0;
#X restore 56 147 pd record2;
#X obj 636 186 cnv 15 42 25 empty empty empty 20 12 0 14 -24198 -66577
0;
#N canvas 336 174 309 137 ?. 0;
#X obj 3 83 cnv 15 300 46 empty empty empty 20 12 0 14 -224896 -66577
0;
#X obj 3 6 cnv 18 300 70 empty empty ARGOPdMiniModules 3 10 1 14 -4033
-1 1.04858e+06;
#X obj 26 26 cnv 10 10 10 empty empty Gerard 0 5 1 11 -4033 -1 1.04858e+06
;
#X obj 64 26 cnv 10 10 10 empty empty Paresys 0 5 1 11 -4033 -1 1.04858e+06
;
#X obj 7 37 pddp/pddplink http://gerard.paresys.free.fr/ARGOPd/;
#X text 8 85 Construit sous / Build under Pd 0.43.4-extended;
#X obj 8 111 pddp/pddplink http://puredata.info/downloads/pd-extended
;
#X obj 7 50 pddp/pddplink http://paresys.pagesperso-orange.fr/ARGOPd/
;
#X text 7 98 or Pd-0.46-7 + deken;
#X restore 640 190 pd ?.;
#X text 175 81 7 3 2016;
#X connect 0 0 6 1;
#X connect 5 0 6 0;
#X connect 8 0 16 0;
#X connect 16 0 8 0;
#X connect 16 1 6 0;
#X connect 16 2 11 0;
#X coords 0 -1 1 1 166 17 1 100 100;
#X restore 93 763 pd ARGO;
#X obj 12 10 cnv 15 15 15 empty empty ExMM208b-munger.pd 0 8 1 14 -262144
-66577 0;
#X obj 224 15 cnv 15 150 70 empty empty empty 20 12 0 14 -24198 -66577
0;
#X text 247 17 library:;
#X text 228 29 pddp;
#X text 228 40 cyclone;
#X text 228 51 zexy;
#X text 180 403 MM munger;
#X obj 55 101 switch~;
#N canvas 608 166 228 173 ARGOnOff 0;
#X obj 100 100 tgl 18 1 \$0-SendOnOff \$0-ReceiveOnOff On/Off 20 11
1 14 -4033 -1 -1 1 1;
#X obj 99 10 loadbang;
#X msg 99 33 \; pd dsp 1;
#X obj 100 129 outlet;
#X text -50 99 Audio On/Off du patch ->;
#X text -22 45 Audio General On ->;
#X text 107 82 17 3 2010;
#X connect 0 0 3 0;
#X connect 1 0 2 0;
#X coords 0 -1 1 1 65 18 2 100 100;
#X restore 55 83 pd ARGOnOff;
#X text 60 67 V;
#X text 60 60 |;
#X text 48 49 On/Off Patch;
#X text 78 61 (Audio);
#X text 181 416 Based on Ivica Ico Bukvic's work:;
#X text 181 428 disis_munger~;
#X text 177 92 OK with: Pd-0.50-0 64b under MacOSX 10.13;
#X obj 182 509 pddp/pddplink https://github.com/Cycling74/percolate
;
#X obj 181 463 pddp/pddplink https://github.com/jonwwilkes/purr-data
;
#X text 181 440 "a realtime multichannel granulator a.k.a. the swiss-army-knife
of realtime granular synthesis";
#X text 181 485 Original PeRColate library by: Dan Trueman & R. Luke
DuBois:, f 30;
#X obj 30 127 cnv 15 360 190 empty empty empty 20 12 0 14 -24198 -66577
0;
#X text 179 206 1 = Transposition;
#X text 179 218 2 = Gain;
#X text 179 231 0.5 = Panoramic;
#X text 179 268 0.9 = Sustain;
#X text 179 243 50 = Attack ms;
#X text 179 255 500 = Decay ms;
#X text 179 281 1000 = Release ms;
#X text 179 293 1 = Direction (-1 0 1);
#X msg 166 186 note 1 2 0.5 50 500 0.9 1000 1;
#X msg 117 163 oneshot \$1;
#X obj 116 135 tgl 15 1 empty empty empty 17 7 0 10 -262144 -1 -1 1
1;
#X text 230 63 disis_munger~;
#X text 34 135 oneshot On ->;
#X text 120 187 Clic ->;
#X text 178 104 OK with: Pd-0.46.7 under Ubuntu 16.04 64b;
#X connect 0 0 3 0;
#X connect 0 1 3 2;
#X connect 3 0 4 0;
#X connect 3 1 4 1;
#X connect 4 0 1 0;
#X connect 4 0 5 0;
#X connect 4 0 8 0;
#X connect 4 1 1 1;
#X connect 4 1 5 1;
#X connect 4 1 8 1;
#X connect 17 0 16 0;
#X connect 38 0 3 1;
#X connect 39 0 3 1;
#X connect 40 0 39 0;
