#N canvas 520 23 625 546 10;
#X obj 143 28 cnv 15 300 155 empty empty empty 20 12 0 14 -233017 -66577
0;
#X obj 13 6 cnv 15 15 15 empty empty ExMM40b-Saturationx4.pd 0 8 1
14 -262144 -66577 0;
#X obj 29 108 switch~;
#N canvas 608 166 228 173 ARGOnOff 0;
#X obj 100 100 tgl 18 1 \$0-SendOnOff \$0-ReceiveOnOff On/Off 20 11
1 14 -4033 -1 -1 1 1;
#X obj 99 10 loadbang;
#X msg 99 33 \; pd dsp 1;
#X obj 100 129 outlet;
#X text -50 99 Audio On/Off du patch ->;
#X text -22 45 Audio General On ->;
#X text 107 82 17 3 2010;
#X connect 0 0 3 0;
#X connect 1 0 2 0;
#X coords 0 -1 1 1 65 18 2 100 100;
#X restore 29 90 pd ARGOnOff;
#X text 34 74 V;
#X text 34 67 |;
#X text 22 56 On/Off Patch;
#X text 148 29 Very low frequency Audio random generator;
#X text 148 44 Générateur Audio aléatoire trés basse fréquence;
#X obj 143 192 cnv 15 460 80 empty empty empty 20 12 0 14 -233017 -66577
0;
#N canvas 306 45 344 241 ARGO 0;
#X obj 101 101 cnv 20 104 34 empty ColorAmpli empty 20 12 0 14 -261299
-1 1.04858e+06;
#X obj 88 200 outlet~;
#X obj 124 105 cnv 10 20 10 empty ColorAmpli Overdrive. 1 5 1 14 -261299
-1 1.04858e+06;
#X obj 88 74 inlet~;
#X obj 185 74 inlet~;
#X obj 195 101 cnv 4 10 4 empty empty empty 20 12 0 14 -258113 -66577
0;
#X obj 101 101 cnv 4 10 4 empty empty empty 20 12 0 14 -1 -66577 0
;
#X obj 101 131 cnv 4 10 4 empty empty empty 20 12 0 14 -1 -66577 0
;
#X obj 103 118 hsl 101 12 0 99 0 1 \$0-A ColorAmpli empty 0 7 1 9 -262144
-1 -1 0 0;
#X obj 103 118 hsl 101 12 0 99 0 0 \$0-A ColorAmpli 0 0 7 1 9 -261299
-258049 -1 0 0;
#X text 211 127 2 HSLIDER superposés;
#X text 210 116 <-- ATTENTION;
#X obj 25 104 cnv 15 60 30 empty empty empty 20 12 0 14 -24198 -66577
0;
#N canvas 265 68 429 384 Help 0;
#X obj 11 66 cnv 15 400 290 empty empty empty 20 12 0 14 -233017 -66577
0;
#X text 14 65 Citation;
#X text 25 80 overdrive~ (library cyclone);
#X text 37 97 Simulate an analog amplifier being overdriven by applying
a non-linear transfer function to the incoming signal.;
#X text 11 25 Simule un amplificateur analogique saturé en appliquant
une fonction de transfert non linéaire au signal d'entrée.;
#X text 38 133 If the "drive" is 1 \, the signal is unchanged. Increasing
the "drive" increases the amount of distortion. If the "drive" is less
than 1 \, then it causes a different kind of distortion. If the "drive"
is less than 0 \, VERY LOUD distortion can result \, so be careful!
;
#X text 38 206 overdrive~ simulates the distortion caused when an analog
amplifier is fed a signal that is too high for the inputs. This is
generally known as "overdriving" the amplifier \, and it causes a characteristic
distortion that is often used to generate a "fat" sound.;
#X text 12 6 Overdrive;
#X text 24 299 AUTHOR Kzrysztof Czaja;
#X text 24 317 DESCRIPTION a library for porting and running Max/MSP
patches in Pd;
#X text 25 281 Library cyclone;
#X restore 32 110 pd Help;
#N canvas 639 204 377 315 Overdrive 0;
#X obj 71 60 loadbang;
#X msg 134 207 set \$1;
#X obj 80 115 +~;
#X obj 132 154 snapshot~;
#X obj 133 181 change;
#X obj 253 60 inlet;
#X obj 202 252 outlet;
#X obj 16 60 inlet~;
#X msg 256 207 label \$1;
#X obj 132 114 metro 200;
#X obj 143 60 r SendFluid;
#X text 248 35 Hslider;
#X text 253 46 Under;
#X text 152 9 Fluidité de;
#X text 151 20 l'affichage;
#X text 152 31 des sliders;
#X text 130 42 (200ms par défaut);
#X obj 14 252 outlet;
#X text 16 269 0..99;
#X obj 13 154 snapshot~;
#X obj 14 181 change;
#X obj 14 114 metro 20;
#X obj 14 207 clip 0 99;
#X text 246 23 0 .. 99;
#X obj 255 154 cyclone/sprintf %s;
#X obj 255 181 cyclone/tosymbol;
#X connect 0 0 9 0;
#X connect 0 0 21 0;
#X connect 1 0 6 0;
#X connect 2 0 3 0;
#X connect 2 0 19 0;
#X connect 3 0 4 0;
#X connect 4 0 1 0;
#X connect 5 0 2 1;
#X connect 5 0 24 0;
#X connect 7 0 2 0;
#X connect 8 0 6 0;
#X connect 9 0 3 0;
#X connect 10 0 9 1;
#X connect 19 0 20 0;
#X connect 20 0 22 0;
#X connect 21 0 19 0;
#X connect 22 0 17 0;
#X connect 24 0 25 0;
#X connect 25 0 8 0;
#X restore 102 149 pd Overdrive;
#X obj 87 173 cyclone/overdrive~;
#X obj 262 194 cnv 15 52 22 empty empty empty 20 12 0 14 -24198 -66577
0;
#N canvas 353 174 321 152 ?... 0;
#X obj 8 84 cnv 15 300 56 empty empty empty 20 12 0 14 -224896 -66577
0;
#X obj 8 7 cnv 18 300 70 empty empty ARGOPdMiniModules 3 10 1 14 -4033
-1 1.04858e+06;
#X obj 31 27 cnv 10 10 10 empty empty Gerard 0 5 1 11 -4033 -1 1.04858e+06
;
#X obj 69 27 cnv 10 10 10 empty empty Paresys 0 5 1 11 -4033 -1 1.04858e+06
;
#X obj 12 40 pddp/pddplink http://gerard.paresys.free.fr/ARGOPd/;
#X obj 13 121 pddp/pddplink http://puredata.info/downloads/pd-extended
;
#X obj 13 97 pddp/pddplink http://puredata.info/downloads/pure-data
;
#X text 13 85 Construit sous / Build under Pd-0.49...;
#X text 12 109 or Pd 0.43.4-extended;
#X obj 12 53 pddp/pddplink https://paresys.pagesperso-orange.fr/ARGOPd/
;
#X restore 265 197 pd ?...;
#X text 252 79 21 8 2019;
#X connect 3 0 15 0;
#X connect 4 0 14 0;
#X connect 8 0 14 1;
#X connect 14 0 15 0;
#X connect 14 1 9 0;
#X connect 15 0 1 0;
#X coords 0 -1 1 1 106 36 1 100 100;
#X restore 265 228 pd ARGO;
#X obj 6 192 cnv 15 130 80 empty empty empty 20 12 0 14 -233017 -66577
0;
#X text 24 197 Normal;
#X text 296 194 Compare 4 distortions by saturation;
#X text 295 207 Comparer 4 distorsions par saturation;
#X obj 332 507 dac~ 1 2;
#X text 227 333 Niveau general ->;
#X text 233 344 General level ->;
#N canvas 175 68 374 396 ARGO 0;
#X obj 101 101 cnv 20 116 34 empty ColorAmpli empty 20 12 0 14 -261299
-1 1.04858e+06;
#X obj 85 353 outlet~;
#X obj 157 104 cnv 10 20 10 empty ColorAmpli Ampli. 1 5 1 14 -261299
-1 1.04858e+06;
#X obj 85 43 inlet~;
#X obj 85 330 *~;
#X obj 115 118 hsl 101 12 -80 20 0 1 \$0-A ColorAmpli -8dB 0 7 1 9
-261299 -1 -1 7200 0;
#X obj 101 101 cnv 4 10 4 empty empty empty 20 12 0 14 -1 -66577 0
;
#X obj 101 131 cnv 4 10 4 empty empty empty 20 12 0 14 -1 -66577 0
;
#X msg -42 139 label \$1;
#X text 148 194 -> 0.0001..10 = -80dB..20dB;
#X obj 142 175 expr (pow(10 \, $f1 / 20));
#X obj 142 215 sel 0.0001;
#X msg 100 244 0;
#X obj 100 118 tgl 12 1 \$0-A \$0-B Mute 2 -5 1 9 -261299 -1 -1 0 1
;
#X obj 99 146 select 0 1;
#X obj 140 295 line~;
#X obj 140 275 pack 0 10;
#X msg 123 74 set 0;
#X obj -42 93 cyclone/sprintf %ddB;
#X obj -42 116 cyclone/tosymbol;
#X obj 261 342 cnv 15 42 25 empty empty empty 20 12 0 14 -24198 -66577
0;
#N canvas 336 174 309 137 ?. 0;
#X obj 3 83 cnv 15 300 46 empty empty empty 20 12 0 14 -224896 -66577
0;
#X obj 3 6 cnv 18 300 70 empty empty ARGOPdMiniModules 3 10 1 14 -4033
-1 1.04858e+06;
#X obj 26 26 cnv 10 10 10 empty empty Gerard 0 5 1 11 -4033 -1 1.04858e+06
;
#X obj 64 26 cnv 10 10 10 empty empty Paresys 0 5 1 11 -4033 -1 1.04858e+06
;
#X obj 7 37 pddp/pddplink http://gerard.paresys.free.fr/ARGOPd/;
#X text 8 85 Construit sous / Build under Pd 0.43.4-extended;
#X obj 8 111 pddp/pddplink http://puredata.info/downloads/pd-extended
;
#X obj 7 50 pddp/pddplink http://paresys.pagesperso-orange.fr/ARGOPd/
;
#X text 7 98 or Pd-0.46-7 + deken;
#X restore 265 346 pd ?.;
#X text 228 110 17 3 2016;
#X connect 3 0 4 0;
#X connect 4 0 1 0;
#X connect 5 0 10 0;
#X connect 5 0 18 0;
#X connect 8 0 5 0;
#X connect 10 0 11 0;
#X connect 11 0 12 0;
#X connect 11 1 16 0;
#X connect 11 1 17 0;
#X connect 12 0 16 0;
#X connect 12 0 19 0;
#X connect 13 0 14 0;
#X connect 14 0 5 0;
#X connect 14 1 12 0;
#X connect 15 0 4 1;
#X connect 16 0 15 0;
#X connect 17 0 13 0;
#X connect 18 0 19 0;
#X connect 19 0 8 0;
#X coords 0 -1 1 1 118 36 1 100 100;
#X restore 332 323 pd ARGO;
#N canvas 175 68 374 396 ARGO 0;
#X obj 101 101 cnv 20 116 34 empty ColorAmpli empty 20 12 0 14 -261299
-1 1.04858e+06;
#X obj 85 353 outlet~;
#X obj 157 104 cnv 10 20 10 empty ColorAmpli Ampli. 1 5 1 14 -261299
-1 1.04858e+06;
#X obj 85 43 inlet~;
#X obj 85 330 *~;
#X obj 115 118 hsl 101 12 -80 20 0 1 \$0-A ColorAmpli -36dB 0 7 1 9
-261299 -1 -1 4400 0;
#X obj 101 101 cnv 4 10 4 empty empty empty 20 12 0 14 -1 -66577 0
;
#X obj 101 131 cnv 4 10 4 empty empty empty 20 12 0 14 -1 -66577 0
;
#X msg -42 139 label \$1;
#X text 148 194 -> 0.0001..10 = -80dB..20dB;
#X obj 142 175 expr (pow(10 \, $f1 / 20));
#X obj 142 215 sel 0.0001;
#X msg 100 244 0;
#X obj 100 118 tgl 12 1 \$0-A \$0-B Mute 2 -5 1 9 -261299 -1 -1 0 1
;
#X obj 99 146 select 0 1;
#X obj 140 295 line~;
#X obj 140 275 pack 0 10;
#X msg 123 74 set 0;
#X obj -42 93 cyclone/sprintf %ddB;
#X obj -42 116 cyclone/tosymbol;
#X obj 261 342 cnv 15 42 25 empty empty empty 20 12 0 14 -24198 -66577
0;
#N canvas 336 174 309 137 ?. 0;
#X obj 3 83 cnv 15 300 46 empty empty empty 20 12 0 14 -224896 -66577
0;
#X obj 3 6 cnv 18 300 70 empty empty ARGOPdMiniModules 3 10 1 14 -4033
-1 1.04858e+06;
#X obj 26 26 cnv 10 10 10 empty empty Gerard 0 5 1 11 -4033 -1 1.04858e+06
;
#X obj 64 26 cnv 10 10 10 empty empty Paresys 0 5 1 11 -4033 -1 1.04858e+06
;
#X obj 7 37 pddp/pddplink http://gerard.paresys.free.fr/ARGOPd/;
#X text 8 85 Construit sous / Build under Pd 0.43.4-extended;
#X obj 8 111 pddp/pddplink http://puredata.info/downloads/pd-extended
;
#X obj 7 50 pddp/pddplink http://paresys.pagesperso-orange.fr/ARGOPd/
;
#X text 7 98 or Pd-0.46-7 + deken;
#X restore 265 346 pd ?.;
#X text 228 110 17 3 2016;
#X connect 3 0 4 0;
#X connect 4 0 1 0;
#X connect 5 0 10 0;
#X connect 5 0 18 0;
#X connect 8 0 5 0;
#X connect 10 0 11 0;
#X connect 11 0 12 0;
#X connect 11 1 16 0;
#X connect 11 1 17 0;
#X connect 12 0 16 0;
#X connect 12 0 19 0;
#X connect 13 0 14 0;
#X connect 14 0 5 0;
#X connect 14 1 12 0;
#X connect 15 0 4 1;
#X connect 16 0 15 0;
#X connect 17 0 13 0;
#X connect 18 0 19 0;
#X connect 19 0 8 0;
#X coords 0 -1 1 1 118 36 1 100 100;
#X restore 294 92 pd ARGO;
#X obj 392 499 cnv 15 52 22 empty empty empty 20 12 0 14 -24198 -66577
0;
#N canvas 353 174 321 152 ?... 0;
#X obj 8 84 cnv 15 300 56 empty empty empty 20 12 0 14 -224896 -66577
0;
#X obj 8 7 cnv 18 300 70 empty empty ARGOPdMiniModules 3 10 1 14 -4033
-1 1.04858e+06;
#X obj 31 27 cnv 10 10 10 empty empty Gerard 0 5 1 11 -4033 -1 1.04858e+06
;
#X obj 69 27 cnv 10 10 10 empty empty Paresys 0 5 1 11 -4033 -1 1.04858e+06
;
#X obj 12 40 pddp/pddplink http://gerard.paresys.free.fr/ARGOPd/;
#X obj 13 121 pddp/pddplink http://puredata.info/downloads/pd-extended
;
#X obj 13 97 pddp/pddplink http://puredata.info/downloads/pure-data
;
#X text 13 85 Construit sous / Build under Pd-0.49...;
#X text 12 109 or Pd 0.43.4-extended;
#X obj 12 53 pddp/pddplink https://paresys.pagesperso-orange.fr/ARGOPd/
;
#X restore 395 502 pd ?...;
#N canvas 392 69 384 278 ARGO 0;
#X obj 201 101 cnv 20 104 34 empty ColorAmpli Tanh. 70 9 1 14 -261299
-1 1.04858e+06;
#X obj 185 252 outlet~;
#X obj 185 72 inlet~;
#X obj 185 200 *~;
#X obj 203 118 hsl 101 12 -20 80 0 1 \$0-A ColorAmpli 48dB 0 7 1 9
-261299 -1 -1 6800 0;
#X msg 56 139 label \$1;
#X obj 201 101 cnv 4 10 4 empty empty empty 20 12 0 14 -1 -66577 0
;
#X obj 201 131 cnv 4 10 4 empty empty empty 20 12 0 14 -1 -66577 0
;
#X obj 200 163 expr (pow(10 \, $f1 / 20));
#X obj 185 227 cyclone/tanh~;
#X obj 101 34 cnv 15 60 30 empty empty empty 20 12 0 14 -24198 -66577
0;
#N canvas 341 91 419 312 Help 0;
#X obj 8 7 cnv 15 400 290 empty empty empty 20 12 0 14 -233017 -66577
0;
#X text 11 6 Citation;
#X text 27 32 cyclone library;
#X text 27 44 calculate hyperbolic tangent function;
#X text 27 21 tanh~;
#X text 27 166 cf doc Max/MSP -> MSP46ReferenceManual.pdf;
#X text 27 92 outputs signal values always between -1 and 1;
#X text 27 112 turn a sine wave into a square wave by cranking up the
volume!;
#X text 27 61 can be used to simulate analog distortion \, and is much
"smoother" than using clip~;
#X obj 27 144 pddp/pddplink http://suita.chopin.edu.pl/~czaja/miXed/externs/cyclone.html
;
#X restore 108 40 pd Help;
#X text 207 140 -> -20..80;
#X text 206 182 -> 0.1..10000 = -20dB..80dB;
#X obj 55 94 cyclone/sprintf %ddB;
#X text 309 97 26 2 2018;
#X obj 327 241 cnv 15 42 25 empty empty empty 20 12 0 14 -24198 -66577
0;
#N canvas 336 174 316 152 ?. 0;
#X obj 8 84 cnv 15 300 56 empty empty empty 20 12 0 14 -224896 -66577
0;
#X obj 8 7 cnv 18 300 70 empty empty ARGOPdMiniModules 3 10 1 14 -4033
-1 1.04858e+06;
#X obj 31 27 cnv 10 10 10 empty empty Gerard 0 5 1 11 -4033 -1 1.04858e+06
;
#X obj 69 27 cnv 10 10 10 empty empty Paresys 0 5 1 11 -4033 -1 1.04858e+06
;
#X obj 12 40 pddp/pddplink http://gerard.paresys.free.fr/ARGOPd/;
#X text 13 85 Construit sous / Build under Pd 0.43.4-extended;
#X obj 13 111 pddp/pddplink http://puredata.info/downloads/pd-extended
;
#X obj 12 53 pddp/pddplink http://paresys.pagesperso-orange.fr/ARGOPd/
;
#X text 12 98 or Pd-0.48;
#X obj 13 124 pddp/pddplink http://puredata.info/downloads/pure-data
;
#X restore 331 245 pd ?.;
#X obj 55 116 symbol;
#X obj 242 12 cnv 15 100 70 empty empty empty 20 12 0 14 -24198 -66577
0;
#X text 265 14 library:;
#X text 246 25 pddp;
#X text 246 36 cyclone;
#X connect 2 0 3 0;
#X connect 3 0 9 0;
#X connect 4 0 8 0;
#X connect 4 0 14 0;
#X connect 5 0 4 0;
#X connect 8 0 3 1;
#X connect 9 0 1 0;
#X connect 14 0 18 0;
#X connect 18 0 5 0;
#X coords 0 -1 1 1 106 36 1 200 100;
#X restore 151 228 pd ARGO;
#N canvas 432 42 236 269 ARGO 0;
#X obj 101 104 cnv 30 37 130 empty ColorAmpli empty 20 12 0 14 -1 -258113
0;
#X obj 101 110 vu 8 120 \$0-B empty 0 0 1 11 -1 -4034 1 0;
#X obj 74 34 inlet~;
#X obj 10 33 cnv 15 60 30 empty empty empty 20 12 0 14 -24198 -66577
0;
#N canvas 300 65 442 264 Help 0;
#X obj 12 48 cnv 15 400 150 empty empty empty 20 12 0 14 -233017 -66577
0;
#X text 16 50 Citation;
#X text 28 67 peakamp~ tracks and outputs the absolute value of the
peak amplitude of the incoming signal. It outputs when banged or using
its own internal clock. The peak value is reset each time peakamp~
outputs a value.;
#X text 29 123 cyclone library;
#X text 28 135 http://suita.chopin.edu.pl/~czaja/miXed/externs/cyclone.html
;
#X text 29 155 Voir doc Max/MSP MSP46ReferenceManual.pdf;
#X text 18 14 MM-Vumetre;
#X restore 17 39 pd Help;
#N canvas 541 112 317 265 VuMetre 0;
#X obj 48 19 inlet~;
#X obj 41 54 *~;
#X obj -25 132 snapshot~;
#X obj -25 155 sqrt;
#X obj -25 100 lop~ 10;
#X obj -25 179 rmstodb;
#X obj -88 19 loadbang;
#X obj -25 202 - 100;
#X obj 58 156 sqrt;
#X obj 58 180 rmstodb;
#X obj 58 203 - 100;
#X obj -89 102 metro 200;
#X obj -28 19 r SendFluid;
#X obj 58 102 cyclone/peakamp~ 1000;
#X obj -25 228 outlet;
#X obj 58 227 outlet;
#X connect 0 0 1 0;
#X connect 0 0 1 1;
#X connect 1 0 4 0;
#X connect 1 0 13 0;
#X connect 2 0 3 0;
#X connect 3 0 5 0;
#X connect 4 0 2 0;
#X connect 5 0 7 0;
#X connect 6 0 11 0;
#X connect 7 0 14 0;
#X connect 8 0 9 0;
#X connect 9 0 10 0;
#X connect 10 0 15 0;
#X connect 11 0 2 0;
#X connect 12 0 11 1;
#X connect 13 0 8 0;
#X restore 74 59 pd VuMetre;
#X obj 172 211 cnv 15 42 25 empty empty empty 20 12 0 14 -24198 -66577
0;
#N canvas 336 174 309 137 ?. 0;
#X obj 3 83 cnv 15 300 46 empty empty empty 20 12 0 14 -224896 -66577
0;
#X obj 3 6 cnv 18 300 70 empty empty ARGOPdMiniModules 3 10 1 14 -4033
-1 1.04858e+06;
#X obj 26 26 cnv 10 10 10 empty empty Gerard 0 5 1 11 -4033 -1 1.04858e+06
;
#X obj 64 26 cnv 10 10 10 empty empty Paresys 0 5 1 11 -4033 -1 1.04858e+06
;
#X obj 7 37 pddp/pddplink http://gerard.paresys.free.fr/ARGOPd/;
#X text 8 85 Construit sous / Build under Pd 0.43.4-extended;
#X obj 8 111 pddp/pddplink http://puredata.info/downloads/pd-extended
;
#X obj 7 50 pddp/pddplink http://paresys.pagesperso-orange.fr/ARGOPd/
;
#X text 7 98 or Pd-0.46-7 + deken;
#X restore 176 215 pd ?.;
#X text 127 87 3 3 2019;
#X connect 2 0 5 0;
#X connect 5 0 1 0;
#X connect 5 1 1 1;
#X coords 0 -1 1 1 39 135 2 100 100;
#X restore 454 383 pd ARGO;
#N canvas 509 27 332 404 ARGO 0;
#X obj 101 101 cnv 20 104 34 empty ColorAmpli Sinus. 65 9 1 14 -261299
-1 1.04858e+06;
#X obj 85 353 outlet~;
#X obj 85 72 inlet~;
#X obj 85 246 *~;
#X obj 103 118 hsl 101 12 -20 80 0 1 \$0-A ColorAmpli -20dB 0 7 1 9
-261299 -1 -1 0 0;
#X msg -40 140 label \$1;
#X obj 101 101 cnv 4 10 4 empty empty empty 20 12 0 14 -1 -66577 0
;
#X obj 101 131 cnv 4 10 4 empty empty empty 20 12 0 14 -1 -66577 0
;
#X obj 100 163 expr (pow(10 \, $f1 / 20));
#X obj 30 31 cnv 15 60 30 empty empty empty 20 12 0 14 -24198 -66577
0;
#N canvas 485 57 386 160 Help 0;
#X text 5 58 Distorsion by applying a non-linear transfer function
to the incoming signal.;
#X text 7 7 Distorsion du signal d'entrée par une fonction de transfert
non lineaire : une sinusoide (de sin(-pi/2) à sin(pi/2) si clip est
coché);
#X text 5 86 The non-linear transfer function is a sinusoid (from sin(-pi/2)
to sin(pi/2) if Clip is on);
#X restore 37 37 pd Help;
#X text 107 140 -> -20..80;
#X text 106 182 -> 0.1..10000 = -20dB..80dB;
#X obj 85 323 expr~ sin(($v1 * 1.5708)) \;;
#X obj 97 271 clip~ -1 1;
#X obj 97 296 *~;
#X obj 121 102 tgl 12 1 \$0-A \$0-B Clip 15 6 1 10 -262144 -1 -1 0
1;
#X obj 49 246 == 0;
#X obj 63 296 *~;
#X obj 100 223 line~;
#X obj 100 201 pack 0 10;
#X obj -41 95 cyclone/sprintf %ddB;
#X obj -41 117 cyclone/tosymbol;
#X text 166 83 14 3 2016;
#X obj 237 357 cnv 15 42 25 empty empty empty 20 12 0 14 -24198 -66577
0;
#N canvas 336 174 309 137 ?. 0;
#X obj 3 83 cnv 15 300 46 empty empty empty 20 12 0 14 -224896 -66577
0;
#X obj 3 6 cnv 18 300 70 empty empty ARGOPdMiniModules 3 10 1 14 -4033
-1 1.04858e+06;
#X obj 26 26 cnv 10 10 10 empty empty Gerard 0 5 1 11 -4033 -1 1.04858e+06
;
#X obj 64 26 cnv 10 10 10 empty empty Paresys 0 5 1 11 -4033 -1 1.04858e+06
;
#X obj 7 37 pddp/pddplink http://gerard.paresys.free.fr/ARGOPd/;
#X text 8 85 Construit sous / Build under Pd 0.43.4-extended;
#X obj 8 111 pddp/pddplink http://puredata.info/downloads/pd-extended
;
#X obj 7 50 pddp/pddplink http://paresys.pagesperso-orange.fr/ARGOPd/
;
#X text 7 98 or Pd-0.46-7 + deken;
#X restore 241 361 pd ?.;
#X connect 2 0 3 0;
#X connect 3 0 18 0;
#X connect 3 0 14 0;
#X connect 4 0 8 0;
#X connect 4 0 21 0;
#X connect 5 0 4 0;
#X connect 8 0 20 0;
#X connect 13 0 1 0;
#X connect 14 0 15 0;
#X connect 15 0 13 0;
#X connect 16 0 15 1;
#X connect 16 0 17 0;
#X connect 17 0 18 1;
#X connect 18 0 13 0;
#X connect 19 0 3 1;
#X connect 20 0 19 0;
#X connect 21 0 22 0;
#X connect 22 0 5 0;
#X coords 0 -1 1 1 106 36 1 100 100;
#X restore 492 227 pd ARGO;
#N canvas 446 69 248 203 ARGO 0;
#X obj 102 165 outlet~;
#X msg 47 101 help;
#X obj 102 125 zexy/noisi~;
#X obj 35 54 cnv 15 60 30 empty empty empty 20 12 0 14 -24198 -66577
0;
#N canvas 303 176 429 374 Help 0;
#X obj 13 55 cnv 15 400 300 empty empty empty 20 12 0 14 -233017 -66577
0;
#X text 17 57 Citation;
#X text 10 33 (library zexy);
#X text 38 88 draws a random number every n samples and interpolates
between;
#X text 27 72 noisi~;
#X text 39 115 the effect is that you get a bandlimited noise the bandwidth
of which can be controlled without having to use expensive filters
;
#X text 13 14 a bandlimited interpolating pseudo-noise generator;
#X text 40 169 creation : "noisi~ [<freq>]": ('0'(default) will produce
'white' noise);
#X text 39 195 <freq> : sampling-frequency (in Hz);
#X text 39 217 the seed of the pseudo-noise generator changes from
instance to instance \, so two noisi~-objects created at the same time
will produce different signals \, something the original noise~-object
misses;
#X text 39 284 for further details see DODGE/JERSE "computer music"
c3.9;
#X restore 42 60 pd Help;
#X obj 103 101 cnv 10 101 16 empty empty Alea2. 60 9 1 14 -262144 -1
1.04858e+06;
#X obj 101 113 cnv 4 10 4 empty empty empty 0 0 0 9 -1 -66577 0;
#X obj 100 100 nbx 5 12 0 99999 0 1 \$0-A \$0-B Hz 47 7 1 9 -262144
-1 -1 2200 256;
#X obj 101 113 cnv 4 10 4 empty empty empty 20 12 0 14 -1 -66577 0
;
#X text 21 14 Générateur Audio aléatoire continu;
#X text 21 28 Continuous Audio random generator;
#X text 141 82 21 8 2019;
#X obj 168 155 cnv 15 52 22 empty empty empty 20 12 0 14 -24198 -66577
0;
#N canvas 353 174 321 152 ?... 0;
#X obj 8 84 cnv 15 300 56 empty empty empty 20 12 0 14 -224896 -66577
0;
#X obj 8 7 cnv 18 300 70 empty empty ARGOPdMiniModules 3 10 1 14 -4033
-1 1.04858e+06;
#X obj 31 27 cnv 10 10 10 empty empty Gerard 0 5 1 11 -4033 -1 1.04858e+06
;
#X obj 69 27 cnv 10 10 10 empty empty Paresys 0 5 1 11 -4033 -1 1.04858e+06
;
#X obj 12 40 pddp/pddplink http://gerard.paresys.free.fr/ARGOPd/;
#X obj 13 121 pddp/pddplink http://puredata.info/downloads/pd-extended
;
#X obj 13 97 pddp/pddplink http://puredata.info/downloads/pure-data
;
#X text 13 85 Construit sous / Build under Pd-0.49...;
#X text 12 109 or Pd 0.43.4-extended;
#X obj 12 53 pddp/pddplink https://paresys.pagesperso-orange.fr/ARGOPd/
;
#X restore 171 158 pd ?...;
#X connect 1 0 2 0;
#X connect 2 0 0 0;
#X connect 7 0 2 0;
#X coords 0 -1 1 1 105 18 2 100 100;
#X restore 178 65 pd ARGO;
#N canvas 446 69 248 203 ARGO 0;
#X obj 102 165 outlet~;
#X msg 47 101 help;
#X obj 102 125 zexy/noisi~;
#X obj 35 54 cnv 15 60 30 empty empty empty 20 12 0 14 -24198 -66577
0;
#N canvas 303 176 429 374 Help 0;
#X obj 13 55 cnv 15 400 300 empty empty empty 20 12 0 14 -233017 -66577
0;
#X text 17 57 Citation;
#X text 10 33 (library zexy);
#X text 38 88 draws a random number every n samples and interpolates
between;
#X text 27 72 noisi~;
#X text 39 115 the effect is that you get a bandlimited noise the bandwidth
of which can be controlled without having to use expensive filters
;
#X text 13 14 a bandlimited interpolating pseudo-noise generator;
#X text 40 169 creation : "noisi~ [<freq>]": ('0'(default) will produce
'white' noise);
#X text 39 195 <freq> : sampling-frequency (in Hz);
#X text 39 217 the seed of the pseudo-noise generator changes from
instance to instance \, so two noisi~-objects created at the same time
will produce different signals \, something the original noise~-object
misses;
#X text 39 284 for further details see DODGE/JERSE "computer music"
c3.9;
#X restore 42 60 pd Help;
#X obj 103 101 cnv 10 101 16 empty empty Alea2. 60 9 1 14 -262144 -1
1.04858e+06;
#X obj 101 113 cnv 4 10 4 empty empty empty 0 0 0 9 -1 -66577 0;
#X obj 100 100 nbx 5 12 0 99999 0 1 \$0-A \$0-B Hz 47 7 1 9 -262144
-1 -1 10 256;
#X obj 101 113 cnv 4 10 4 empty empty empty 20 12 0 14 -1 -66577 0
;
#X text 21 14 Générateur Audio aléatoire continu;
#X text 21 28 Continuous Audio random generator;
#X text 141 82 21 8 2019;
#X obj 168 155 cnv 15 52 22 empty empty empty 20 12 0 14 -24198 -66577
0;
#N canvas 353 174 321 152 ?... 0;
#X obj 8 84 cnv 15 300 56 empty empty empty 20 12 0 14 -224896 -66577
0;
#X obj 8 7 cnv 18 300 70 empty empty ARGOPdMiniModules 3 10 1 14 -4033
-1 1.04858e+06;
#X obj 31 27 cnv 10 10 10 empty empty Gerard 0 5 1 11 -4033 -1 1.04858e+06
;
#X obj 69 27 cnv 10 10 10 empty empty Paresys 0 5 1 11 -4033 -1 1.04858e+06
;
#X obj 12 40 pddp/pddplink http://gerard.paresys.free.fr/ARGOPd/;
#X obj 13 121 pddp/pddplink http://puredata.info/downloads/pd-extended
;
#X obj 13 97 pddp/pddplink http://puredata.info/downloads/pure-data
;
#X text 13 85 Construit sous / Build under Pd-0.49...;
#X text 12 109 or Pd 0.43.4-extended;
#X obj 12 53 pddp/pddplink https://paresys.pagesperso-orange.fr/ARGOPd/
;
#X restore 171 158 pd ?...;
#X connect 1 0 2 0;
#X connect 2 0 0 0;
#X connect 7 0 2 0;
#X coords 0 -1 1 1 105 18 2 100 100;
#X restore 294 65 pd ARGO;
#N canvas 175 68 374 396 ARGO 0;
#X obj 101 101 cnv 20 116 34 empty ColorAmpli empty 20 12 0 14 -261299
-1 1.04858e+06;
#X obj 85 353 outlet~;
#X obj 157 104 cnv 10 20 10 empty ColorAmpli Ampli. 1 5 1 14 -261299
-1 1.04858e+06;
#X obj 85 43 inlet~;
#X obj 85 330 *~;
#X obj 115 118 hsl 101 12 -80 20 0 1 \$0-A ColorAmpli -80dB 0 7 1 9
-261299 -1 -1 0 0;
#X obj 101 101 cnv 4 10 4 empty empty empty 20 12 0 14 -1 -66577 0
;
#X obj 101 131 cnv 4 10 4 empty empty empty 20 12 0 14 -1 -66577 0
;
#X msg -42 139 label \$1;
#X text 148 194 -> 0.0001..10 = -80dB..20dB;
#X obj 142 175 expr (pow(10 \, $f1 / 20));
#X obj 142 215 sel 0.0001;
#X msg 100 244 0;
#X obj 100 118 tgl 12 1 \$0-A \$0-B Mute 2 -5 1 9 -261299 -1 -1 0 1
;
#X obj 99 146 select 0 1;
#X obj 140 295 line~;
#X obj 140 275 pack 0 10;
#X msg 123 74 set 0;
#X obj -42 93 cyclone/sprintf %ddB;
#X obj -42 116 cyclone/tosymbol;
#X obj 261 342 cnv 15 42 25 empty empty empty 20 12 0 14 -24198 -66577
0;
#N canvas 336 174 309 137 ?. 0;
#X obj 3 83 cnv 15 300 46 empty empty empty 20 12 0 14 -224896 -66577
0;
#X obj 3 6 cnv 18 300 70 empty empty ARGOPdMiniModules 3 10 1 14 -4033
-1 1.04858e+06;
#X obj 26 26 cnv 10 10 10 empty empty Gerard 0 5 1 11 -4033 -1 1.04858e+06
;
#X obj 64 26 cnv 10 10 10 empty empty Paresys 0 5 1 11 -4033 -1 1.04858e+06
;
#X obj 7 37 pddp/pddplink http://gerard.paresys.free.fr/ARGOPd/;
#X text 8 85 Construit sous / Build under Pd 0.43.4-extended;
#X obj 8 111 pddp/pddplink http://puredata.info/downloads/pd-extended
;
#X obj 7 50 pddp/pddplink http://paresys.pagesperso-orange.fr/ARGOPd/
;
#X text 7 98 or Pd-0.46-7 + deken;
#X restore 265 346 pd ?.;
#X text 228 110 17 3 2016;
#X connect 3 0 4 0;
#X connect 4 0 1 0;
#X connect 5 0 10 0;
#X connect 5 0 18 0;
#X connect 8 0 5 0;
#X connect 10 0 11 0;
#X connect 11 0 12 0;
#X connect 11 1 16 0;
#X connect 11 1 17 0;
#X connect 12 0 16 0;
#X connect 12 0 19 0;
#X connect 13 0 14 0;
#X connect 14 0 5 0;
#X connect 14 1 12 0;
#X connect 15 0 4 1;
#X connect 16 0 15 0;
#X connect 17 0 13 0;
#X connect 18 0 19 0;
#X connect 19 0 8 0;
#X coords 0 -1 1 1 118 36 1 100 100;
#X restore 13 228 pd ARGO;
#N canvas 392 69 302 281 ARGO 0;
#X obj 101 101 cnv 20 104 34 empty ColorAmpli Clip. 65 9 1 14 -261299
-1 1.04858e+06;
#X obj 85 252 outlet~;
#X obj 85 72 inlet~;
#X obj 85 200 *~;
#X obj 103 118 hsl 101 12 -20 80 0 1 \$0-A ColorAmpli -20dB 0 7 1 9
-261299 -1 -1 0 0;
#X msg -42 142 label \$1;
#X obj 101 101 cnv 4 10 4 empty empty empty 20 12 0 14 -1 -66577 0
;
#X obj 101 131 cnv 4 10 4 empty empty empty 20 12 0 14 -1 -66577 0
;
#X obj 100 163 expr (pow(10 \, $f1 / 20));
#X obj 1 34 cnv 15 60 30 empty empty empty 20 12 0 14 -24198 -66577
0;
#N canvas 341 91 416 168 Help 0;
#X obj 4 42 cnv 15 400 100 empty empty empty 20 12 0 14 -233017 -66577
0;
#X text 7 41 Citation;
#X text 24 94 - restrict a signal to lie between two limits;
#X text 23 63 The clip~ object passes its signal input to its output
\, clipping it to lie between two limits.;
#X text 7 11 Clip;
#X restore 8 40 pd Help;
#X text 107 140 -> -20..80;
#X text 106 182 -> 0.1..10000 = -20dB..80dB;
#X obj 85 227 clip~ -1 1;
#X obj 211 227 cnv 15 52 22 empty empty empty 20 12 0 14 -24198 -66577
0;
#N canvas 353 174 321 152 ?... 0;
#X obj 8 84 cnv 15 300 56 empty empty empty 20 12 0 14 -224896 -66577
0;
#X obj 8 7 cnv 18 300 70 empty empty ARGOPdMiniModules 3 10 1 14 -4033
-1 1.04858e+06;
#X obj 31 27 cnv 10 10 10 empty empty Gerard 0 5 1 11 -4033 -1 1.04858e+06
;
#X obj 69 27 cnv 10 10 10 empty empty Paresys 0 5 1 11 -4033 -1 1.04858e+06
;
#X obj 12 40 pddp/pddplink http://gerard.paresys.free.fr/ARGOPd/;
#X obj 13 121 pddp/pddplink http://puredata.info/downloads/pd-extended
;
#X obj 13 97 pddp/pddplink http://puredata.info/downloads/pure-data
;
#X text 13 85 Construit sous / Build under Pd-0.49...;
#X text 12 109 or Pd 0.43.4-extended;
#X obj 12 53 pddp/pddplink https://paresys.pagesperso-orange.fr/ARGOPd/
;
#X restore 214 230 pd ?...;
#X text 177 80 21 8 2019;
#X obj -43 119 cyclone/tosymbol;
#X obj -43 97 cyclone/sprintf %ddB;
#X connect 2 0 3 0;
#X connect 3 0 13 0;
#X connect 4 0 8 0;
#X connect 4 0 18 0;
#X connect 5 0 4 0;
#X connect 8 0 3 1;
#X connect 13 0 1 0;
#X connect 17 0 5 0;
#X connect 18 0 17 0;
#X coords 0 -1 1 1 106 36 1 100 100;
#X restore 379 228 pd ARGO;
#N canvas 89 65 452 333 ARGO 0;
#X obj 101 101 cnv 20 215 34 empty ColorForm empty 20 12 0 14 -188398
-1 1.04858e+06;
#X obj 248 104 cnv 10 65 10 empty ColorForm Flt-BP. 1 5 1 14 -188398
-1 1.04858e+06;
#X obj 101 131 cnv 4 10 4 empty empty empty 20 12 0 14 -1 -66577 0
;
#X obj 203 101 cnv 4 10 4 empty empty empty 20 12 0 14 -1728 -66577
0;
#X obj 306 131 cnv 4 10 4 empty empty empty 0 0 0 9 -1 -66577 0;
#X obj 87 44 inlet~;
#X obj 209 289 outlet~;
#X obj 271 289 outlet~;
#X obj 100 106 nbx 7 12 0 20000 0 1 \$0-A ColorTime Hz 60 7 1 9 -208064
-1 -1 51.9131 256;
#X obj 188 44 inlet~;
#X obj 297 44 inlet~;
#X obj 101 101 cnv 4 10 4 empty empty empty 20 12 0 14 -1 -66577 0
;
#X obj 306 101 cnv 4 10 4 empty empty empty 20 12 0 14 -3522 -66577
0;
#X obj 87 180 vcf~;
#X obj 149 203 vcf~;
#X obj 209 232 vcf~;
#X obj 271 262 vcf~;
#X obj 87 289 outlet~;
#X obj 149 289 outlet~;
#X obj 241 131 cnv 4 10 4 empty empty empty 0 0 0 9 -1 -66577 0;
#X obj 166 131 cnv 4 10 4 empty empty empty 0 0 0 9 -1 -66577 0;
#X text 179 84 frequency;
#X text 6 4 Controlled bandpass filter;
#X text 80 136 1 filter;
#X text 145 136 2 filters;
#X text 218 136 3 filters;
#X text 286 137 4 filters;
#X text 282 81 Resonance;
#X text 7 18 Filtre Passe-bande controllable;
#X obj 103 118 hsl 127 12 0 1 0 0 \$0-A ColorTime empty 0 7 1 9 -262144
-1 -1 2600 0;
#X obj 103 118 hsl 127 12 0 1 0 0 \$0-A ColorTime Ab0 0 7 1 9 -208064
-1728 -1 2387 0;
#X obj 234 118 hsl 81 12 0 1 0 1 \$0-A ColorForm empty 0 7 1 9 -262144
-1 -1 3100 0;
#X obj 234 118 hsl 81 12 0 1 0 1 \$0-A ColorForm 38.75 0 7 1 9 -188398
-3522 -1 3100 0;
#X text 259 17 2 HSLIDER superposés;
#X text 258 6 ATTENTION;
#N canvas 110 253 424 342 Freq-v5-sig- 0;
#X obj 354 179 ftom;
#X obj 192 227 mtof;
#X obj 267 96 +~;
#X obj 30 142 snapshot~;
#X obj 30 164 change;
#X msg 30 249 set \$1;
#X msg 193 249 set \$1;
#X obj 192 180 * 126;
#X obj 192 203 + 6;
#X obj 356 224 / 126;
#X obj 355 202 - 6;
#X obj 215 56 *~ 1.90476;
#X obj 284 29 inlet;
#X obj 354 29 inlet;
#X obj 56 276 outlet;
#X obj 193 276 outlet;
#X text 53 293 Hslider;
#X text 279 3 Hslider;
#X obj 215 31 inlet~;
#X obj 30 87 metro 200;
#X obj 30 30 loadbang;
#X obj 192 152 change;
#X obj 356 276 outlet;
#X text 354 292 Hslider;
#X text 193 292 Number;
#X text 351 13 Number;
#X text 58 305 Over;
#X text 359 303 Under;
#X text 284 14 Under;
#X obj 260 249 clip~ 0 20000;
#X obj 260 227 mtof~;
#X obj 260 180 *~ 126;
#X obj 260 202 +~ 6;
#X obj 260 276 outlet~;
#X obj 89 31 r SendFluid;
#N canvas 763 337 583 317 pitchb-11-2010 0;
#X obj 78 119 mod 12;
#X obj 78 143 sel 0 1 2 3 4 5 6 7 8 9 10 11;
#X msg 254 178 A;
#X msg 308 178 B;
#X msg 200 178 G;
#X msg 11 178 C;
#X msg 65 178 D;
#X msg 119 178 E;
#X msg 146 178 F;
#X obj 212 9 inlet;
#X obj 385 123 div 12;
#X obj 212 87 t f f;
#X text 394 215 -> Numero de l'octave;
#X text 221 72 -> Numero MIDI de la note (69 = A3 = 440Hz);
#X msg 268 268 label \$1;
#X obj 268 291 outlet;
#X msg 38 178 Db;
#X msg 92 178 Eb;
#X msg 173 178 Gb;
#X msg 227 178 Ab;
#X msg 281 178 Bb;
#X text 377 86 (70 = A#3 = Bb3);
#X obj 268 246 symbol;
#X text 19 239 Impossible d'afficher # dans un label;
#X text 19 251 donc j'affiche b;
#X obj 212 59 int;
#X text 263 31 -> pour corriger certaines erreurs de calcul;
#X obj 385 152 - 12;
#X text 263 43 et le pb du passage a zero de mod 12;
#X obj 212 33 + 120.5;
#X obj 268 221 cyclone/sprintf %s%d;
#X connect 0 0 1 0;
#X connect 1 0 5 0;
#X connect 1 1 16 0;
#X connect 1 2 6 0;
#X connect 1 3 17 0;
#X connect 1 4 7 0;
#X connect 1 5 8 0;
#X connect 1 6 18 0;
#X connect 1 7 4 0;
#X connect 1 8 19 0;
#X connect 1 9 2 0;
#X connect 1 10 20 0;
#X connect 1 11 3 0;
#X connect 2 0 30 0;
#X connect 3 0 30 0;
#X connect 4 0 30 0;
#X connect 5 0 30 0;
#X connect 6 0 30 0;
#X connect 7 0 30 0;
#X connect 8 0 30 0;
#X connect 9 0 29 0;
#X connect 10 0 27 0;
#X connect 11 0 0 0;
#X connect 11 1 10 0;
#X connect 14 0 15 0;
#X connect 16 0 30 0;
#X connect 17 0 30 0;
#X connect 18 0 30 0;
#X connect 19 0 30 0;
#X connect 20 0 30 0;
#X connect 22 0 14 0;
#X connect 25 0 11 0;
#X connect 27 0 30 1;
#X connect 29 0 25 0;
#X connect 30 0 22 0;
#X restore 78 248 pd pitchb-11-2010;
#X connect 0 0 10 0;
#X connect 1 0 6 0;
#X connect 2 0 3 0;
#X connect 2 0 31 0;
#X connect 3 0 4 0;
#X connect 4 0 5 0;
#X connect 5 0 14 0;
#X connect 6 0 15 0;
#X connect 7 0 8 0;
#X connect 8 0 1 0;
#X connect 8 0 35 0;
#X connect 9 0 22 0;
#X connect 10 0 9 0;
#X connect 11 0 2 0;
#X connect 12 0 2 1;
#X connect 12 0 21 0;
#X connect 13 0 0 0;
#X connect 18 0 11 0;
#X connect 19 0 3 0;
#X connect 20 0 19 0;
#X connect 21 0 7 0;
#X connect 29 0 33 0;
#X connect 30 0 29 0;
#X connect 31 0 32 0;
#X connect 32 0 30 0;
#X connect 34 0 19 1;
#X connect 35 0 14 0;
#X restore -11 114 pd Freq-v5-sig-;
#X obj 346 176 cnv 15 60 30 empty empty empty 20 12 0 14 -24198 -66577
0;
#N canvas 161 113 427 375 Help 0;
#X text 18 280 Resonance = "Q" = filter sharpness = Coefficient of
Quality;
#X text 18 293 http://en.wikipedia.org/wiki/Q_factor;
#X text 19 305 http://fr.wikipedia.org/wiki/Facteur_de_qualité;
#X text 17 6 Flt-BP = Filter BandPass = Filtre passe-bande;
#X text 17 335 La résonance est controlée seulement 100 fois par seconde
;
#X obj 12 79 cnv 15 400 200 empty empty empty 20 12 0 14 -233017 -66577
0;
#X text 31 110 vcf~ is like bp~ except that it takes an audio signal
to set center frequency \, which may thus change continuously in time.
The "Q" or filter sharpness is still only set by messages. More expensive
than bp~ in CPU time but more powerful too.;
#X text 31 95 vcf~ = voltage-controlled bandpass filter;
#X text 30 207 The left inlet is the incoming audio signal \, the middle
control input sets center frequency and the rigth input sets "Q".;
#X text 31 178 bp~ passes a sinusoid at the center frequency at unit
gain (approximately). Other frequencies are attenuated.;
#X text 16 81 Citation;
#X text 15 42 1 = 240 1/2 ton = 20 octaves;
#X text 15 30 Sensibilité de l'entrée de contrôle de la fréquence:
;
#X restore 353 182 pd Help;
#X text 187 74 Center;
#N canvas 375 291 336 327 Q-Ctrl 0;
#X obj 73 278 line;
#X obj 11 9 loadbang;
#X msg 148 128 set \$1;
#X obj 149 57 +~;
#X obj 78 89 snapshot~;
#X obj 78 109 change;
#X obj 10 54 metro 10;
#X obj 76 215 + 1;
#X obj 75 236 clip 1 200;
#X msg 74 257 \$1 100;
#X obj 76 173 * 1;
#X obj 77 152 * 1;
#X obj 78 129 t f f f;
#X obj 73 300 outlet;
#X obj 75 194 * 200;
#X obj 149 88 snapshot~;
#X obj 149 108 change;
#X obj 219 11 inlet;
#X obj 148 300 outlet;
#X obj 149 11 inlet~;
#X msg 218 132 label \$1;
#X obj 218 88 * 100;
#X obj 67 54 metro 200;
#X obj 70 9 r SendFluid;
#X obj 218 110 cyclone/tosymbol;
#X connect 0 0 13 0;
#X connect 1 0 6 0;
#X connect 1 0 22 0;
#X connect 2 0 18 0;
#X connect 3 0 4 0;
#X connect 3 0 15 0;
#X connect 4 0 5 0;
#X connect 5 0 12 0;
#X connect 6 0 4 0;
#X connect 7 0 8 0;
#X connect 8 0 9 0;
#X connect 9 0 0 0;
#X connect 10 0 14 0;
#X connect 11 0 10 0;
#X connect 12 0 11 0;
#X connect 12 1 11 1;
#X connect 12 2 10 1;
#X connect 14 0 7 0;
#X connect 15 0 16 0;
#X connect 16 0 2 0;
#X connect 17 0 3 1;
#X connect 17 0 21 0;
#X connect 19 0 3 0;
#X connect 20 0 18 0;
#X connect 21 0 24 0;
#X connect 22 0 15 0;
#X connect 23 0 22 1;
#X connect 24 0 20 0;
#X restore 354 114 pd Q-Ctrl;
#X obj 348 278 cnv 15 52 22 empty empty empty 20 12 0 14 -24198 -66577
0;
#N canvas 353 174 321 152 ?... 0;
#X obj 8 84 cnv 15 300 56 empty empty empty 20 12 0 14 -224896 -66577
0;
#X obj 8 7 cnv 18 300 70 empty empty ARGOPdMiniModules 3 10 1 14 -4033
-1 1.04858e+06;
#X obj 31 27 cnv 10 10 10 empty empty Gerard 0 5 1 11 -4033 -1 1.04858e+06
;
#X obj 69 27 cnv 10 10 10 empty empty Paresys 0 5 1 11 -4033 -1 1.04858e+06
;
#X obj 12 40 pddp/pddplink http://gerard.paresys.free.fr/ARGOPd/;
#X obj 13 121 pddp/pddplink http://puredata.info/downloads/pd-extended
;
#X obj 13 97 pddp/pddplink http://puredata.info/downloads/pure-data
;
#X text 13 85 Construit sous / Build under Pd-0.49...;
#X text 12 109 or Pd 0.43.4-extended;
#X obj 12 53 pddp/pddplink https://paresys.pagesperso-orange.fr/ARGOPd/
;
#X restore 351 281 pd ?...;
#X text 333 66 6 9 2019;
#X connect 5 0 13 0;
#X connect 8 0 35 2;
#X connect 9 0 35 0;
#X connect 10 0 39 0;
#X connect 13 0 14 0;
#X connect 13 0 17 0;
#X connect 14 0 15 0;
#X connect 14 0 18 0;
#X connect 15 0 16 0;
#X connect 15 0 6 0;
#X connect 16 0 7 0;
#X connect 29 0 35 1;
#X connect 31 0 39 1;
#X connect 35 0 30 0;
#X connect 35 1 8 0;
#X connect 35 2 13 1;
#X connect 35 2 14 1;
#X connect 35 2 15 1;
#X connect 35 2 16 1;
#X connect 35 3 29 0;
#X connect 39 0 13 2;
#X connect 39 0 14 2;
#X connect 39 0 15 2;
#X connect 39 0 16 2;
#X connect 39 1 32 0;
#X coords 0 -1 1 1 217 36 1 100 100;
#X restore 178 137 pd ARGO;
#N canvas 462 219 430 320 ARGO 0;
#X obj 40 -35 inlet~;
#X obj 251 108 cnv 10 44 10 empty empty Scope. 1 5 1 14 -262144 -1
1.04858e+06;
#X obj 101 101 cnv 4 10 4 empty empty empty 20 12 0 14 -1 -66577 0
;
#X msg -36 168 frgb 255 0 0;
#X obj 124 105 nbx 4 12 1 2000 0 1 \$0-A ColorTime ms/div 40 7 1 9
-208064 -1 -1 10 256;
#X obj 205 105 tgl 12 1 \$0-A \$0-B Sync 15 6 1 9 -262144 -1 -1 0 1
;
#X msg 128 52 delay 0 \, triglevel 0 \, trigger 0;
#X obj 126 5 sel 0 1;
#X msg -39 192 brgb 255 255 255;
#X obj 85 64 * 2;
#X msg 146 28 delay 1 \, triglevel 0.1 \, trigger 1;
#X obj 277 -36 inlet~;
#X obj 289 101 cnv 4 10 4 empty empty empty 20 12 0 14 -1 -66577 0
;
#X obj -14 80 t b b b b;
#X obj -15 57 bng 15 250 50 0 empty empty empty 17 7 0 10 -262144 -1
-1;
#X obj 196 -34 cnv 15 60 30 empty empty empty 20 12 0 14 -24198 -66577
0;
#N canvas 374 104 413 135 Help 0;
#X text 24 54 Voir MSP46ReferenceManual.pdf;
#X text 23 1 utilise l'objet Scope~ de la library cyclone;
#X text 24 26 Voir Browser -> Pure Data/examples/cyclone/scope-test.pd
;
#X text 24 40 Voir Browser -> Pure Data/examples/cyclone/pink-test.pd
;
#X text 24 -20 Scope;
#X restore 203 -28 pd Help;
#X obj 101 121 cnv 15 199 129 empty empty empty 20 12 0 14 -1 -66577
0;
#X obj 40 -11 clip~ -1 1;
#X obj 277 -12 clip~ -1 1;
#X msg -24 136 range -1 1;
#X msg -33 111 bufsize 176;
#X obj 101 123 cyclone/scope~ 198 61 20 3 176 -1 1 0 0 0 0 255 0 0
255 255 255 0 98 102 0 empty;
#X obj 101 187 cyclone/scope~ 198 61 20 3 176 -1 1 0 0 0 0 255 0 0
255 255 255 0 98 102 0 empty;
#X text 243 85 29 3 2021;
#X obj 307 234 cnv 15 34 16 empty empty empty 20 12 0 14 -24198 -66577
0;
#N canvas 353 174 333 161 ?? 0;
#X obj 17 89 cnv 15 300 56 empty empty empty 20 12 0 14 -224896 -66577
0;
#X obj 17 12 cnv 18 300 70 empty empty ARGOPdMiniModules 3 10 1 14
-4033 -1 1.04858e+06;
#X obj 40 32 cnv 10 10 10 empty empty Gerard 0 5 1 11 -4033 -1 1.04858e+06
;
#X obj 78 32 cnv 10 10 10 empty empty Paresys 0 5 1 11 -4033 -1 1.04858e+06
;
#X obj 20 54 pddp/pddplink http://gerard.paresys.free.fr/ARGOPd/;
#X obj 22 126 pddp/pddplink http://puredata.info/downloads/pd-extended
;
#X obj 22 102 pddp/pddplink http://puredata.info/downloads/pure-data
;
#X text 22 90 Construit sous / Build under Pd-0.49...;
#X text 21 114 or Pd 0.43.4-extended;
#X obj 20 66 pddp/pddplink https://paresys.pagesperso-orange.fr/ARGOPd/
;
#X obj 20 42 pddp/pddplink https://github.com/gerardparesys/ARGOPd
;
#X restore 307 234 pd ??;
#X connect 0 0 18 0;
#X connect 3 0 22 0;
#X connect 3 0 23 0;
#X connect 4 0 9 0;
#X connect 5 0 7 0;
#X connect 6 0 22 0;
#X connect 6 0 23 0;
#X connect 7 0 6 0;
#X connect 7 1 10 0;
#X connect 8 0 22 0;
#X connect 8 0 23 0;
#X connect 9 0 22 0;
#X connect 9 0 23 0;
#X connect 10 0 22 0;
#X connect 10 0 23 0;
#X connect 11 0 19 0;
#X connect 13 0 21 0;
#X connect 13 1 20 0;
#X connect 13 2 3 0;
#X connect 13 3 8 0;
#X connect 14 0 13 0;
#X connect 18 0 22 0;
#X connect 19 0 23 0;
#X connect 20 0 22 0;
#X connect 20 0 23 0;
#X connect 21 0 22 0;
#X connect 21 0 23 0;
#X coords 0 -1 1 1 200 150 2 100 100;
#X restore 106 372 pd ARGO;
#X connect 3 0 2 0;
#X connect 10 0 18 0;
#X connect 18 0 15 0;
#X connect 18 0 15 1;
#X connect 18 0 23 0;
#X connect 18 0 30 1;
#X connect 19 0 29 1;
#X connect 22 0 18 0;
#X connect 24 0 18 0;
#X connect 25 0 29 0;
#X connect 26 0 19 0;
#X connect 27 0 18 0;
#X connect 28 0 18 0;
#X connect 29 2 22 0;
#X connect 29 2 10 0;
#X connect 29 2 24 0;
#X connect 29 2 27 0;
#X connect 29 2 28 0;
#X connect 29 2 30 0;
