#N canvas 294 22 578 460 10;
#X obj 11 390 outlet~;
#X obj 245 315 pack 0 0 0 0;
#X obj 39 11 t b b b b;
#X obj 333 244 * 2;
#X obj 333 266 +;
#X obj 297 148 random_range 1 10;
#X obj 334 193 random_range 10 100;
#X obj 112 61 random_range 0 \$2;
#X obj 421 116 random_range 1 60;
#X obj 11 258 tabplay~;
#X obj 112 88 / 1000;
#X obj 112 110 *;
#N canvas 0 22 450 300 grain-level_event 0;
#X obj 29 23 inlet~;
#X obj 30 264 outlet~;
#X text 249 187 here is a space to experiment with microscopic \, grain-level
events \, such as random filtering \, constant-Q filtering \, windowed
envelopes \, and other audio trickery. see Curtis Roads: "Microsound"
for inspiration!;
#X text 137 23 bang at beginning of grain event;
#X obj 90 23 inlet;
#X obj 150 53 inlet;
#X text 196 53 total grain length;
#X connect 0 0 1 0;
#X restore 11 338 pd grain-level_event;
#N canvas 0 22 450 300 zample_gain 0;
#X obj 98 168 outlet;
#X obj 183 168 outlet;
#X obj 98 18 r \$2-zample_gain_min;
#X obj 112 46 r \$2-zample_gain_sprd;
#X obj 184 94 +;
#X obj 188 68 / 100;
#X obj 222 95 *;
#X obj 98 94 +;
#X obj 131 93 * -1;
#X obj 184 118 pack 0 20;
#X obj 98 119 pack 0 20;
#X obj 98 143 line;
#X obj 183 140 line;
#X connect 2 0 7 0;
#X connect 2 0 4 1;
#X connect 2 0 6 0;
#X connect 3 0 5 0;
#X connect 4 0 9 0;
#X connect 5 0 6 1;
#X connect 6 0 4 0;
#X connect 6 0 8 0;
#X connect 7 0 10 0;
#X connect 8 0 7 1;
#X connect 9 0 12 0;
#X connect 10 0 11 0;
#X connect 11 0 0 0;
#X connect 12 0 1 0;
#X restore 478 92 pd zample_gain;
#N canvas 0 22 450 300 zample_envelope 0;
#X obj 60 -30 r \$2-zample_envelope_min;
#X obj 74 -6 r \$2-zample_envelope_sprd;
#X obj 146 44 +;
#X obj 150 18 / 100;
#X obj 184 45 *;
#X obj 60 44 +;
#X obj 93 43 * -1;
#X obj 146 68 pack 0 20;
#X obj 60 69 pack 0 20;
#X obj 60 128 outlet;
#X obj 146 129 outlet;
#X obj 60 90 line;
#X obj 146 90 line;
#X connect 0 0 5 0;
#X connect 0 0 2 1;
#X connect 0 0 4 0;
#X connect 1 0 3 0;
#X connect 2 0 7 0;
#X connect 3 0 4 1;
#X connect 4 0 2 0;
#X connect 4 0 6 0;
#X connect 5 0 8 0;
#X connect 6 0 5 1;
#X connect 7 0 12 0;
#X connect 8 0 11 0;
#X connect 11 0 9 0;
#X connect 12 0 10 0;
#X restore 398 170 pd zample_envelope;
#N canvas 0 22 450 300 sustain 0;
#X obj 34 137 outlet;
#X obj 120 137 outlet;
#X obj 34 -10 r \$2-zample_sustain_min;
#X obj 51 13 r \$2-zample_sustain_sprd;
#X obj 120 60 +;
#X obj 124 34 / 100;
#X obj 158 61 *;
#X obj 34 60 +;
#X obj 67 59 * -1;
#X obj 120 85 pack 0 20;
#X obj 34 85 pack 0 20;
#X obj 34 110 line;
#X obj 120 109 line;
#X connect 2 0 7 0;
#X connect 2 0 4 1;
#X connect 2 0 6 0;
#X connect 3 0 5 0;
#X connect 4 0 9 0;
#X connect 5 0 6 1;
#X connect 6 0 4 0;
#X connect 6 0 8 0;
#X connect 7 0 10 0;
#X connect 8 0 7 1;
#X connect 9 0 12 0;
#X connect 10 0 11 0;
#X connect 11 0 0 0;
#X connect 12 0 1 0;
#X restore 354 94 pd sustain;
#N canvas 0 22 450 300 zample_start 0;
#X obj 57 157 outlet;
#X obj 143 158 outlet;
#X obj 57 10 r \$2-zample_start_min;
#X obj 76 30 r \$2-zample_start_sprd;
#X obj 143 81 +;
#X obj 147 55 / 100;
#X obj 181 82 *;
#X obj 57 81 +;
#X obj 90 80 * -1;
#X obj 57 130 line 20;
#X obj 143 130 line 20;
#X obj 143 105 pack 0 20;
#X obj 57 106 pack 0 20;
#X connect 2 0 7 0;
#X connect 2 0 4 1;
#X connect 2 0 6 0;
#X connect 3 0 5 0;
#X connect 4 0 11 0;
#X connect 5 0 6 1;
#X connect 6 0 4 0;
#X connect 6 0 8 0;
#X connect 7 0 12 0;
#X connect 8 0 7 1;
#X connect 9 0 0 0;
#X connect 10 0 1 0;
#X connect 11 0 10 0;
#X connect 12 0 9 0;
#X restore 169 35 pd zample_start;
#N canvas 0 22 450 300 triggerz 0;
#X obj 67 203 outlet;
#X obj 121 204 outlet;
#X obj 67 109 metro 800;
#X obj 121 132 random 100;
#X obj 67 58 >= \$1;
#X obj 137 40 r \$2-zample_asynch;
#X obj 121 153 >=;
#X obj 67 19 r \$2-zample_voices;
#X obj 67 79 change -1;
#X obj 280 41 inlet;
#X connect 2 0 3 0;
#X connect 2 0 0 0;
#X connect 3 0 6 0;
#X connect 4 0 8 0;
#X connect 5 0 6 1;
#X connect 6 0 1 0;
#X connect 7 0 4 0;
#X connect 8 0 2 0;
#X connect 9 0 2 1;
#X restore 39 -15 pd triggerz;
#N canvas 82 135 450 300 zample_zelector 0;
#X obj 46 175 outlet;
#X obj 100 176 outlet;
#X obj 100 148 f;
#X msg 46 73 set \$1-zample;
#X obj 55 27 r \$2-zample_number;
#X obj 55 51 + 1;
#N canvas 360 216 576 327 selector 0;
#X obj 38 90 f;
#X obj 38 23 select 1;
#X msg 38 43 bang;
#X obj 54 65 r 1-zample_size;
#X obj 38 190 f;
#X msg 38 143 bang;
#X obj 178 90 f;
#X msg 178 43 bang;
#X obj 178 190 f;
#X msg 178 143 bang;
#X obj 338 90 f;
#X msg 338 43 bang;
#X obj 338 190 f;
#X msg 338 143 bang;
#X obj 478 90 f;
#X msg 478 43 bang;
#X obj 478 190 f;
#X msg 478 143 bang;
#X obj 60 240 outlet;
#X obj 113 -29 inlet;
#X obj 178 23 select 2;
#X obj 194 65 r 2-zample_size;
#X obj 338 23 select 3;
#X obj 354 65 r 3-zample_size;
#X obj 478 23 select 4;
#X obj 494 65 r 4-zample_size;
#X obj 38 123 select 5;
#X obj 54 165 r 5-zample_size;
#X obj 178 123 select 6;
#X obj 194 165 r 6-zample_size;
#X obj 338 123 select 7;
#X obj 354 165 r 7-zample_size;
#X obj 478 123 select 8;
#X obj 494 165 r 8-zample_size;
#X connect 0 0 18 0;
#X connect 1 0 2 0;
#X connect 2 0 0 0;
#X connect 3 0 0 1;
#X connect 4 0 18 0;
#X connect 5 0 4 0;
#X connect 6 0 18 0;
#X connect 7 0 6 0;
#X connect 8 0 18 0;
#X connect 9 0 8 0;
#X connect 10 0 18 0;
#X connect 11 0 10 0;
#X connect 12 0 18 0;
#X connect 13 0 12 0;
#X connect 14 0 18 0;
#X connect 15 0 14 0;
#X connect 16 0 18 0;
#X connect 17 0 16 0;
#X connect 19 0 1 0;
#X connect 19 0 20 0;
#X connect 19 0 22 0;
#X connect 19 0 24 0;
#X connect 19 0 26 0;
#X connect 19 0 28 0;
#X connect 19 0 30 0;
#X connect 19 0 32 0;
#X connect 20 0 7 0;
#X connect 21 0 6 1;
#X connect 22 0 11 0;
#X connect 23 0 10 1;
#X connect 24 0 15 0;
#X connect 25 0 14 1;
#X connect 26 0 5 0;
#X connect 27 0 4 1;
#X connect 28 0 9 0;
#X connect 29 0 8 1;
#X connect 30 0 13 0;
#X connect 31 0 12 1;
#X connect 32 0 17 0;
#X connect 33 0 16 1;
#X restore 100 100 pd selector;
#X obj 100 121 t b f;
#X connect 2 0 1 0;
#X connect 3 0 0 0;
#X connect 4 0 5 0;
#X connect 5 0 3 0;
#X connect 5 0 6 0;
#X connect 6 0 7 0;
#X connect 7 0 2 0;
#X connect 7 1 2 1;
#X restore 11 -40 pd zample_zelector;
#N canvas 582 70 576 557 envelope_generator 0;
#X obj 166 2 inlet~;
#X obj 167 330 outlet~;
#X obj 215 2 inlet;
#X obj 245 330 outlet;
#X obj 245 60 unpack 0 0 0 0;
#X obj 215 277 line~;
#X text 277 266 ramp generator;
#X obj 215 243 pack 0 0;
#X obj 215 25 t b l;
#X obj 215 124 f;
#X text 285 248 gain + attack;
#X obj 292 122 del 1;
#X text 345 120 delay attack;
#X obj 292 150 del 1;
#X text 345 149 delay sustain;
#X obj 292 205 pack 0 0;
#X text 345 178 gain0 + release;
#X obj 292 178 f 0;
#X obj 167 300 *~;
#X connect 0 0 18 0;
#X connect 2 0 8 0;
#X connect 4 0 3 0;
#X connect 4 1 7 1;
#X connect 4 1 11 1;
#X connect 4 1 15 1;
#X connect 4 2 13 1;
#X connect 4 3 9 1;
#X connect 5 0 18 1;
#X connect 7 0 5 0;
#X connect 8 0 9 0;
#X connect 8 0 11 0;
#X connect 8 1 4 0;
#X connect 9 0 7 0;
#X connect 11 0 13 0;
#X connect 13 0 17 0;
#X connect 15 0 5 0;
#X connect 17 0 15 0;
#X connect 18 0 1 0;
#X restore 11 313 pd envelope_generator;
#N canvas 0 22 450 300 asynchfilter 0;
#X obj 66 17 inlet~;
#X obj 66 136 outlet~;
#X obj 117 17 inlet;
#X obj 84 83 line~;
#X obj 67 111 *~;
#X obj 85 61 pack 0 5;
#X connect 0 0 4 0;
#X connect 2 0 5 0;
#X connect 3 0 4 1;
#X connect 4 0 1 0;
#X connect 5 0 3 0;
#X restore 12 287 pd asynchfilter;
#X text 163 339 <-----add your own grain-level events here!;
#X obj 80 378 /~ 10;
#X connect 1 0 19 1;
#X connect 2 0 7 0;
#X connect 2 0 12 1;
#X connect 2 1 5 0;
#X connect 2 1 6 0;
#X connect 2 3 8 0;
#X connect 3 0 4 0;
#X connect 4 0 17 0;
#X connect 4 0 12 2;
#X connect 5 0 4 1;
#X connect 5 0 1 2;
#X connect 6 0 3 0;
#X connect 6 0 1 1;
#X connect 7 0 10 0;
#X connect 8 0 1 3;
#X connect 9 0 20 0;
#X connect 10 0 11 0;
#X connect 11 0 1 0;
#X connect 12 0 22 0;
#X connect 13 0 8 1;
#X connect 13 1 8 2;
#X connect 14 0 6 1;
#X connect 14 1 6 2;
#X connect 15 0 5 1;
#X connect 15 1 5 2;
#X connect 16 0 7 1;
#X connect 16 1 7 2;
#X connect 17 0 2 0;
#X connect 17 1 20 1;
#X connect 18 0 9 0;
#X connect 18 1 11 1;
#X connect 19 0 12 0;
#X connect 19 1 9 0;
#X connect 20 0 19 0;
#X connect 22 0 0 0;
