#N canvas 268 23 970 574 10;
#X obj 7 7 cnv 15 15 15 empty empty ExMM170e-Oscill-Moorer.pd 0 8 1
14 -262144 -66577 0;
#X text 151 195 Ramp;
#X text 383 198 Moorer;
#X text 392 208 DSF;
#X text 261 196 Sinus;
#N canvas 333 135 711 339 ARGO 0;
#X obj 101 101 cnv 20 130 76 empty ColorForm empty 20 12 0 14 -188398
-1 1.04858e+06;
#X obj 162 104 cnv 10 40 10 empty ColorForm Freeverb. 1 5 1 14 -188398
-1 1.04858e+06;
#X obj 101 173 cnv 4 10 4 empty empty empty 20 12 0 14 -1 -66577 0
;
#X obj 221 173 cnv 4 10 4 empty empty empty 0 0 0 9 -1 -66577 0;
#X obj 87 74 inlet~;
#X obj 211 74 inlet~;
#X obj 101 101 cnv 4 10 4 empty empty empty 20 12 0 14 -1 -66577 0
;
#X obj 97 310 outlet~;
#X obj 208 310 outlet~;
#X obj 221 101 cnv 4 10 4 empty empty empty 0 0 0 9 -1 -66577 0;
#X obj 103 136 hsl 127 12 0 1 0 1 \$0-A ColorForm Brill 0 7 1 9 -188398
-1 -1 12200 0;
#X obj 103 124 hsl 127 12 0 1 0 1 \$0-A ColorForm Size 0 7 1 9 -188398
-1 -1 10400 0;
#X obj 103 160 hsl 127 12 0 1 0 1 \$0-A ColorAmpli Dir 0 7 1 9 -261299
-1 -1 4200 0;
#X obj 103 148 hsl 127 12 0 1 0 1 \$0-A ColorAmpli Stereo 0 7 1 9 -261299
-1 -1 12600 0;
#X msg 12 225 roomsize \$1;
#X msg 328 225 damping \$1;
#X msg 167 225 width \$1;
#X msg 229 225 wet \$1;
#X msg 277 225 dry \$1;
#X obj 277 179 - 1;
#X obj 277 202 * -1;
#X obj 12 202 * 1.1;
#X obj 328 179 * -2.3;
#X obj 328 202 + 2.3;
#X msg 100 225 freeze \$1;
#X obj 113 100 tgl 12 1 \$0-A \$0-B Freeze 14 7 1 9 -262144 -1 -1 0
1;
#X obj 386 98 cnv 15 60 30 empty empty empty 20 12 0 14 -24198 -66577
0;
#N canvas 584 107 469 218 Help 0;
#X obj 10 11 cnv 15 440 180 empty empty empty 20 12 0 14 -228856 -66577
0;
#X text 13 11 Citation;
#X text 20 101 "freeverb~ is a simple implementation of the standard
Schroeder/Moorer reverb model. It uses 8 comb filters in parallel on
both channels. It then feeds the result of the reverb through 4 allpass
filters in series on both channels. These "smooth" the sound. The filters
on the right channel are slightly detuned compared to the left channel
in order to create a stereo effect.";
#X text 19 24 freeverb~ version 1.2 - reverb external for Pure Data
and Max/MSP written by Olaf Matthes <olaf.matthes@gmx.de> - based on
Freeverb \, the free \, studio-quality reverb SOURCE CODE in the public
domain. Written by Jezar at Dreampoint - http://www.dreampoint.co.uk
This software is published under GPL terms \, see file LICENSE.;
#X restore 393 105 pd Help;
#X obj 97 278 freeverb~/freeverb~;
#X obj 647 289 cnv 15 42 25 empty empty empty 20 12 0 14 -24198 -66577
0;
#N canvas 336 174 316 152 ?. 0;
#X obj 8 84 cnv 15 300 56 empty empty empty 20 12 0 14 -224896 -66577
0;
#X obj 8 7 cnv 18 300 70 empty empty ARGOPdMiniModules 3 10 1 14 -4033
-1 1.04858e+06;
#X obj 31 27 cnv 10 10 10 empty empty Gerard 0 5 1 11 -4033 -1 1.04858e+06
;
#X obj 69 27 cnv 10 10 10 empty empty Paresys 0 5 1 11 -4033 -1 1.04858e+06
;
#X obj 12 40 pddp/pddplink http://gerard.paresys.free.fr/ARGOPd/;
#X text 13 85 Construit sous / Build under Pd 0.43.4-extended;
#X obj 13 111 pddp/pddplink http://puredata.info/downloads/pd-extended
;
#X obj 12 53 pddp/pddplink http://paresys.pagesperso-orange.fr/ARGOPd/
;
#X text 12 98 or Pd-0.48;
#X obj 13 124 pddp/pddplink http://puredata.info/downloads/pure-data
;
#X restore 651 293 pd ?.;
#X obj 578 79 cnv 15 100 70 empty empty empty 20 12 0 14 -24198 -66577
0;
#X text 601 81 library:;
#X text 582 92 freeverb~;
#X msg 520 225 print;
#X msg 567 225 bypass \$1;
#X obj 567 179 tgl 15 0 empty empty empty 17 7 0 10 -262144 -1 -1 0
1;
#X text 583 106 pddp;
#X msg 400 225 firstpassfilter \$1;
#X msg 637 225 dry \$1;
#X obj 638 202 / 100;
#X obj 638 179 nbx 5 14 0 100 0 0 empty empty empty 0 -8 0 10 -262144
-1 -1 0 256;
#X text 139 83 21 7 2018;
#X obj 113 112 tgl 12 1 \$0-A \$0-B FirstPass 14 7 1 9 -262144 -1 -1
0 1;
#X connect 4 0 28 0;
#X connect 5 0 28 1;
#X connect 10 0 22 0;
#X connect 11 0 21 0;
#X connect 12 0 19 0;
#X connect 12 0 17 0;
#X connect 13 0 16 0;
#X connect 14 0 28 0;
#X connect 15 0 28 0;
#X connect 16 0 28 0;
#X connect 17 0 28 0;
#X connect 18 0 28 0;
#X connect 19 0 20 0;
#X connect 20 0 18 0;
#X connect 21 0 14 0;
#X connect 22 0 23 0;
#X connect 23 0 15 0;
#X connect 24 0 28 0;
#X connect 25 0 24 0;
#X connect 28 0 7 0;
#X connect 28 1 8 0;
#X connect 34 0 28 0;
#X connect 35 0 28 0;
#X connect 36 0 35 0;
#X connect 38 0 28 0;
#X connect 39 0 28 0;
#X connect 40 0 39 0;
#X connect 41 0 40 0;
#X connect 43 0 38 0;
#X coords 0 -1 1 1 132 78 1 100 100;
#X restore 194 283 pd ARGO;
#X obj 267 535 dac~ 1 2;
#X text 64 539 .wav file format recorder;
#X text 44 527 Enregistreur audio au format .wav;
#X text 93 375 Niveau general ->;
#X text 99 385 General level ->;
#X text 158 516 |;
#X text 158 511 ^;
#N canvas 413 140 402 279 ARGO 0;
#X obj 101 101 cnv 10 95 41 \$0-A \$0-B empty 20 12 0 14 -1 -1 1.04858e+06
;
#X obj 101 109 nbx 4 12 0 1e+37 0 0 \$0 \$0-ReceiveCpuPeak CPUPeak
45 7 1 11 -24198 -1 -24198 6 256;
#X obj 101 122 nbx 4 12 0 1e+37 0 0 \$0 \$0-ReceiveCpuMean CPUMean
45 7 1 11 -24198 -1 -24198 4.61 256;
#X obj 145 -55 cputime;
#X obj 145 -76 t b b;
#X text 188 24 (c) musil@iem.kug.ac.at;
#X text 230 37 IEM KUG;
#X text 78 18 CPU-load;
#X obj 144 -125 loadbang;
#X text 205 48 graz \, austria 2001;
#X obj 145 -100 metro 500;
#X obj 145 -34 * 0.2;
#X text 237 -88 -dsp-load in %;
#X text 228 -101 measure average- and peak-;
#X obj 37 18 * 100;
#X obj 37 63 int;
#X obj 37 41 + 0.499;
#X obj 37 86 * 0.01;
#N canvas 524 162 422 273 1p1zmodif 0;
#X text 134 89 (c) musil@iem.kug.ac.at;
#X text 179 99 IEM KUG;
#X obj 14 195 +;
#X text 151 108 graz \, austria 2001;
#X text 135 71 y[n] = a0*x[n] + a1*x[n-1] + b1*y[n-1];
#X text 18 13 x[n];
#X text 16 244 y[n];
#X text 84 111 y[n-1];
#X text 134 56 <float> control-IIR-filter 1.order;
#X obj 15 28 inlet;
#X obj 14 228 outlet;
#X obj 15 112 * 0.1;
#X obj 59 156 * 0.9;
#X text 139 144 a1 = 0;
#X text 139 155 b1 = 0.9;
#X text 139 133 a0 = 0.1;
#X obj 15 50 t f b;
#X text 135 40 Inspiré de 1p1z;
#X obj 59 112 f 0;
#X connect 2 0 10 0;
#X connect 2 0 18 1;
#X connect 9 0 16 0;
#X connect 11 0 2 0;
#X connect 12 0 2 1;
#X connect 16 0 11 0;
#X connect 16 1 18 0;
#X connect 18 0 12 0;
#X restore 37 -8 pd 1p1zmodif;
#X text 146 9 Inspiré de 5.reference/iemabs/help-dsp.pd;
#X text 141 83 25 3 2010;
#X connect 3 0 11 0;
#X connect 4 0 3 0;
#X connect 4 1 3 1;
#X connect 8 0 10 0;
#X connect 10 0 4 0;
#X connect 11 0 18 0;
#X connect 11 0 1 0;
#X connect 14 0 16 0;
#X connect 15 0 17 0;
#X connect 16 0 15 0;
#X connect 17 0 2 0;
#X connect 18 0 14 0;
#X coords 0 -1 1 1 97 43 1 100 100;
#X restore 45 266 pd ARGO;
#X obj 25 86 switch~;
#N canvas 608 166 228 173 ARGOnOff 0;
#X obj 100 100 tgl 18 1 \$0-SendOnOff \$0-ReceiveOnOff On/Off 20 11
1 14 -4033 -1 -1 1 1;
#X obj 99 10 loadbang;
#X msg 99 33 \; pd dsp 1;
#X obj 100 129 outlet;
#X text -50 99 Audio On/Off du patch ->;
#X text -22 45 Audio General On ->;
#X text 107 82 17 3 2010;
#X connect 0 0 3 0;
#X connect 1 0 2 0;
#X coords 0 -1 1 1 65 18 2 100 100;
#X restore 25 68 pd ARGOnOff;
#X text 30 52 V;
#X text 30 45 |;
#X text 18 34 On/Off Patch;
#X text 48 46 (Audio);
#N canvas 175 68 381 386 ARGO 0;
#X obj 101 101 cnv 20 116 34 empty ColorAmpli empty 20 12 0 14 -261299
-1 1.04858e+06;
#X obj 85 353 outlet~;
#X obj 157 104 cnv 10 20 10 empty ColorAmpli Ampli. 1 5 1 14 -261299
-1 1.04858e+06;
#X obj 85 43 inlet~;
#X obj 85 330 *~;
#X obj 115 118 hsl 101 12 -80 20 0 1 \$0-A ColorAmpli -21dB 0 7 1 9
-261299 -1 -1 5900 0;
#X obj 101 101 cnv 4 10 4 empty empty empty 20 12 0 14 -1 -66577 0
;
#X obj 101 131 cnv 4 10 4 empty empty empty 20 12 0 14 -1 -66577 0
;
#X obj 207 101 cnv 4 10 4 empty empty empty 20 12 0 14 -1 -66577 0
;
#X obj 207 131 cnv 4 10 4 empty empty empty 20 12 0 14 -1 -66577 0
;
#X obj 222 352 outlet~;
#X obj 222 42 inlet~;
#X obj 222 329 *~;
#X msg -42 138 label \$1;
#X text 148 194 -> 0.0001..10 = -80dB..20dB;
#X obj 142 175 expr (pow(10 \, $f1 / 20));
#X obj 142 215 sel 0.0001;
#X msg 100 244 0;
#X obj 100 118 tgl 12 1 \$0-A \$0-B Mute 2 -5 1 9 -261299 -1 -1 0 1
;
#X obj 99 146 select 0 1;
#X obj 140 295 line~;
#X obj 140 275 pack 0 10;
#X msg 123 74 set 0;
#X obj -42 92 cyclone/sprintf %ddB;
#X text 228 110 6 3 2016;
#X obj -42 115 cyclone/tosymbol;
#X obj 273 344 cnv 15 42 25 empty empty empty 20 12 0 14 -24198 -66577
0;
#N canvas 336 174 309 137 ?. 0;
#X obj 3 83 cnv 15 300 46 empty empty empty 20 12 0 14 -224896 -66577
0;
#X obj 3 6 cnv 18 300 70 empty empty ARGOPdMiniModules 3 10 1 14 -4033
-1 1.04858e+06;
#X obj 26 26 cnv 10 10 10 empty empty Gerard 0 5 1 11 -4033 -1 1.04858e+06
;
#X obj 64 26 cnv 10 10 10 empty empty Paresys 0 5 1 11 -4033 -1 1.04858e+06
;
#X obj 7 37 pddp/pddplink http://gerard.paresys.free.fr/ARGOPd/;
#X text 8 85 Construit sous / Build under Pd 0.43.4-extended;
#X obj 8 111 pddp/pddplink http://puredata.info/downloads/pd-extended
;
#X obj 7 50 pddp/pddplink http://paresys.pagesperso-orange.fr/ARGOPd/
;
#X text 7 98 or Pd-0.46-7 + deken;
#X restore 277 348 pd ?.;
#X connect 3 0 4 0;
#X connect 4 0 1 0;
#X connect 5 0 15 0;
#X connect 5 0 23 0;
#X connect 11 0 12 0;
#X connect 12 0 10 0;
#X connect 13 0 5 0;
#X connect 15 0 16 0;
#X connect 16 0 17 0;
#X connect 16 1 21 0;
#X connect 16 1 22 0;
#X connect 17 0 21 0;
#X connect 17 0 25 0;
#X connect 18 0 19 0;
#X connect 19 0 5 0;
#X connect 19 1 17 0;
#X connect 20 0 12 1;
#X connect 20 0 4 1;
#X connect 21 0 20 0;
#X connect 22 0 18 0;
#X connect 23 0 25 0;
#X connect 25 0 13 0;
#X coords 0 -1 1 1 118 36 1 100 100;
#X restore 201 370 pd ARGO;
#N canvas 286 45 728 239 ARGO 0;
#X obj 239 36 inlet~;
#X text 77 17 Left input;
#X text 224 17 Right input;
#X text 356 37 Stereo wav file format recorder;
#X text 356 52 Enregistreur de fichier audio wav à 2 canaux (stereo)
;
#X obj 88 36 inlet~;
#X obj 171 198 writesf~ 2;
#X text 356 67 L'extension .wav est ajoutée au nom du fichier automatiquement
;
#X obj 103 100 hsl 161 17 0 127 0 0 \$0-A \$0-B Record. 103 10 1 14
-261299 -261299 -1 0 1;
#X obj 255 101 cnv 4 10 4 empty empty empty 20 12 0 14 -1 -66577 0
;
#X obj 101 101 cnv 4 10 4 empty empty empty 20 12 0 14 -1 -66577 0
;
#X obj 112 100 nbx 4 17 0 9999 0 0 \$0-A ColorTime sec 59 9 1 15 -208064
-1 -1 0 256;
#X text 355 103 Clic n'importe où pour commencer un enregistrement
Audio -> Clic encore pour arrêter l'enregistrement;
#X text 456 130 Click anywhere to start recording Audio ->;
#X text 455 142 Click again to stop recording;
#X text 121 122 Hslider caché transformé en bouton;
#N canvas 415 66 351 399 record2 0;
#X obj 136 95 sel 0 1;
#X msg 171 260 start;
#X msg 107 259 stop;
#X msg 155 150 open \$1;
#X obj 155 126 savepanel;
#X obj 165 203 delay 1000;
#X obj 245 323 float;
#X obj 291 322 + 1;
#X obj 223 295 metro 1000;
#X msg 291 296 -1;
#X msg 11 257 0;
#X msg 42 257 1;
#X obj 66 210 t b b;
#X obj 165 229 t b b b b;
#N canvas 317 143 290 366 CouleurRecord2 0;
#X obj 122 -19 +;
#X obj 122 37 +;
#X obj 61 -75 * -65536;
#X obj 117 -75 * -256;
#X obj 163 -77 * -1;
#X obj 122 68 - 1;
#X obj 115 -202 inlet;
#X text 77 -97 R;
#X text 123 -99 G;
#X text 172 -98 B;
#X obj 122 123 outlet;
#X text 170 -169 Rouge;
#X msg 134 -121 255;
#X msg 167 -121 0;
#X obj 115 -178 sel 0 1;
#X text 56 -170 Rose;
#X msg 73 -121 200;
#X msg 40 -121 252;
#X obj 134 -148 t b b b;
#X msg 198 -121 0;
#X msg 104 -121 200;
#X obj 40 -148 t b b b;
#X msg 122 96 color \$1 \$1 -1;
#X connect 0 0 1 1;
#X connect 1 0 5 0;
#X connect 2 0 1 0;
#X connect 3 0 0 0;
#X connect 4 0 0 1;
#X connect 5 0 22 0;
#X connect 6 0 14 0;
#X connect 12 0 2 0;
#X connect 13 0 3 0;
#X connect 14 0 21 0;
#X connect 14 1 18 0;
#X connect 16 0 3 0;
#X connect 17 0 2 0;
#X connect 18 0 12 0;
#X connect 18 1 13 0;
#X connect 18 2 19 0;
#X connect 19 0 4 0;
#X connect 20 0 4 0;
#X connect 21 0 17 0;
#X connect 21 1 16 0;
#X connect 21 2 20 0;
#X connect 22 0 10 0;
#X restore 25 326 pd CouleurRecord2;
#X obj 136 75 tgl 15 0 \$0-A \$0-B empty 19 9 1 12 -262144 -258113
-1 0 1;
#X obj 136 30 b;
#X obj 136 52 delay 200;
#X obj 136 8 inlet;
#X obj 25 356 outlet;
#X text 22 372 Couleur;
#X obj 291 356 outlet;
#X text 288 372 Compteur;
#X obj 155 356 outlet;
#X text 152 372 writesf;
#X obj 199 176 t b b;
#X msg 72 33 0;
#X obj 72 8 loadbang;
#X msg 260 124 set 0;
#X msg 261 173 set 1;
#X obj 261 149 b;
#X connect 0 0 12 0;
#X connect 0 1 4 0;
#X connect 0 1 28 0;
#X connect 1 0 23 0;
#X connect 2 0 8 0;
#X connect 2 0 23 0;
#X connect 3 0 23 0;
#X connect 3 0 25 0;
#X connect 4 0 3 0;
#X connect 4 0 30 0;
#X connect 5 0 13 0;
#X connect 6 0 7 0;
#X connect 7 0 6 1;
#X connect 7 0 21 0;
#X connect 8 0 6 0;
#X connect 9 0 7 0;
#X connect 10 0 14 0;
#X connect 11 0 14 0;
#X connect 12 0 10 0;
#X connect 12 1 2 0;
#X connect 13 0 11 0;
#X connect 13 1 1 0;
#X connect 13 2 8 0;
#X connect 13 3 9 0;
#X connect 14 0 19 0;
#X connect 15 0 0 0;
#X connect 16 0 17 0;
#X connect 17 0 15 0;
#X connect 18 0 16 0;
#X connect 25 0 5 0;
#X connect 25 1 9 0;
#X connect 26 0 15 0;
#X connect 27 0 26 0;
#X connect 28 0 15 0;
#X connect 29 0 15 0;
#X connect 30 0 29 0;
#X restore 56 147 pd record2;
#X obj 636 186 cnv 15 42 25 empty empty empty 20 12 0 14 -24198 -66577
0;
#N canvas 336 174 309 137 ?. 0;
#X obj 3 83 cnv 15 300 46 empty empty empty 20 12 0 14 -224896 -66577
0;
#X obj 3 6 cnv 18 300 70 empty empty ARGOPdMiniModules 3 10 1 14 -4033
-1 1.04858e+06;
#X obj 26 26 cnv 10 10 10 empty empty Gerard 0 5 1 11 -4033 -1 1.04858e+06
;
#X obj 64 26 cnv 10 10 10 empty empty Paresys 0 5 1 11 -4033 -1 1.04858e+06
;
#X obj 7 37 pddp/pddplink http://gerard.paresys.free.fr/ARGOPd/;
#X text 8 85 Construit sous / Build under Pd 0.43.4-extended;
#X obj 8 111 pddp/pddplink http://puredata.info/downloads/pd-extended
;
#X obj 7 50 pddp/pddplink http://paresys.pagesperso-orange.fr/ARGOPd/
;
#X text 7 98 or Pd-0.46-7 + deken;
#X restore 640 190 pd ?.;
#X text 175 81 7 3 2016;
#X connect 0 0 6 1;
#X connect 5 0 6 0;
#X connect 8 0 16 0;
#X connect 16 0 8 0;
#X connect 16 1 6 0;
#X connect 16 2 11 0;
#X coords 0 -1 1 1 166 17 1 100 100;
#X restore 68 495 pd ARGO;
#N canvas 446 64 251 267 ARGO 0;
#X obj 101 104 cnv 30 49 130 empty ColorAmpli empty 20 12 0 14 -1 -258113
0;
#X obj 102 110 vu 8 120 \$0-B empty 0 0 1 11 -1 -4034 0 0;
#X obj 49 35 inlet~;
#X obj 22 108 cnv 15 60 30 empty empty empty 20 12 0 14 -24198 -66577
0;
#N canvas 300 65 442 264 Help 0;
#X obj 12 48 cnv 15 400 150 empty empty empty 20 12 0 14 -233017 -66577
0;
#X text 16 50 Citation;
#X text 28 67 peakamp~ tracks and outputs the absolute value of the
peak amplitude of the incoming signal. It outputs when banged or using
its own internal clock. The peak value is reset each time peakamp~
outputs a value.;
#X text 29 123 cyclone library;
#X text 28 135 http://suita.chopin.edu.pl/~czaja/miXed/externs/cyclone.html
;
#X text 29 155 Voir doc Max/MSP MSP46ReferenceManual.pdf;
#X text 18 14 MM-Vumetre;
#X restore 29 114 pd Help;
#N canvas 541 112 317 265 VuMetre 0;
#X obj 48 19 inlet~;
#X obj 41 54 *~;
#X obj -25 132 snapshot~;
#X obj -25 155 sqrt;
#X obj -25 100 lop~ 10;
#X obj -25 179 rmstodb;
#X obj -88 19 loadbang;
#X obj -25 202 - 100;
#X obj 58 156 sqrt;
#X obj 58 180 rmstodb;
#X obj 58 203 - 100;
#X obj -89 102 metro 200;
#X obj -28 19 r SendFluid;
#X obj 58 102 cyclone/peakamp~ 1000;
#X obj -25 228 outlet;
#X obj 58 227 outlet;
#X connect 0 0 1 0;
#X connect 0 0 1 1;
#X connect 1 0 4 0;
#X connect 1 0 13 0;
#X connect 2 0 3 0;
#X connect 3 0 5 0;
#X connect 4 0 2 0;
#X connect 5 0 7 0;
#X connect 6 0 11 0;
#X connect 7 0 14 0;
#X connect 8 0 9 0;
#X connect 9 0 10 0;
#X connect 10 0 15 0;
#X connect 11 0 2 0;
#X connect 12 0 11 1;
#X connect 13 0 8 0;
#X restore 49 63 pd VuMetre;
#X obj 172 211 cnv 15 42 25 empty empty empty 20 12 0 14 -24198 -66577
0;
#N canvas 336 174 309 137 ?. 0;
#X obj 3 83 cnv 15 300 46 empty empty empty 20 12 0 14 -224896 -66577
0;
#X obj 3 6 cnv 18 300 70 empty empty ARGOPdMiniModules 3 10 1 14 -4033
-1 1.04858e+06;
#X obj 26 26 cnv 10 10 10 empty empty Gerard 0 5 1 11 -4033 -1 1.04858e+06
;
#X obj 64 26 cnv 10 10 10 empty empty Paresys 0 5 1 11 -4033 -1 1.04858e+06
;
#X obj 7 37 pddp/pddplink http://gerard.paresys.free.fr/ARGOPd/;
#X text 8 85 Construit sous / Build under Pd 0.43.4-extended;
#X obj 8 111 pddp/pddplink http://puredata.info/downloads/pd-extended
;
#X obj 7 50 pddp/pddplink http://paresys.pagesperso-orange.fr/ARGOPd/
;
#X text 7 98 or Pd-0.46-7 + deken;
#X restore 176 215 pd ?.;
#X obj 113 110 vu 8 120 \$0-B empty 0 0 1 11 -1 -4034 1 0;
#X obj 126 35 inlet~;
#N canvas 541 112 317 265 VuMetre 0;
#X obj 48 19 inlet~;
#X obj 41 54 *~;
#X obj -25 132 snapshot~;
#X obj -25 155 sqrt;
#X obj -25 100 lop~ 10;
#X obj -25 179 rmstodb;
#X obj -88 19 loadbang;
#X obj -25 202 - 100;
#X obj 58 156 sqrt;
#X obj 58 180 rmstodb;
#X obj 58 203 - 100;
#X obj -89 102 metro 200;
#X obj -28 19 r SendFluid;
#X obj 58 102 cyclone/peakamp~ 1000;
#X obj -25 228 outlet;
#X obj 58 227 outlet;
#X connect 0 0 1 0;
#X connect 0 0 1 1;
#X connect 1 0 4 0;
#X connect 1 0 13 0;
#X connect 2 0 3 0;
#X connect 3 0 5 0;
#X connect 4 0 2 0;
#X connect 5 0 7 0;
#X connect 6 0 11 0;
#X connect 7 0 14 0;
#X connect 8 0 9 0;
#X connect 9 0 10 0;
#X connect 10 0 15 0;
#X connect 11 0 2 0;
#X connect 12 0 11 1;
#X connect 13 0 8 0;
#X restore 126 63 pd VuMetre;
#X text 153 87 3 3 2019;
#X connect 2 0 5 0;
#X connect 5 0 1 0;
#X connect 5 1 1 1;
#X connect 9 0 10 0;
#X connect 10 0 8 0;
#X connect 10 1 8 1;
#X coords 0 -1 1 1 51 135 2 100 100;
#X restore 324 417 pd ARGO;
#N canvas 656 128 483 416 ARGO 0;
#X obj 101 101 cnv 20 104 34 empty ColorAmpli empty 20 12 0 14 -261299
-1 1.04858e+06;
#X obj 157 367 outlet~;
#X obj 152 106 cnv 10 20 10 empty ColorAmpli Ampli. 1 5 1 14 -261299
-1 1.04858e+06;
#X obj 85 49 inlet~;
#X obj 85 330 *~;
#X obj 101 101 cnv 4 10 4 empty empty empty 20 12 0 14 -1 -66577 0
;
#X obj 101 131 cnv 4 10 4 empty empty empty 20 12 0 14 -1 -66577 0
;
#X obj 195 101 cnv 4 10 4 empty empty empty 20 12 0 14 -1 -66577 0
;
#X obj 195 131 cnv 4 10 4 empty empty empty 20 12 0 14 -1 -66577 0
;
#X obj 211 49 inlet~;
#X obj 157 330 *~;
#X obj 296 367 outlet~;
#X obj 334 49 inlet~;
#X obj 334 330 *~;
#X obj 130 101 cnv 4 10 4 empty empty empty 20 12 0 14 -1 -66577 0
;
#X obj 286 49 inlet~;
#X obj 262 330 *~;
#X obj 163 101 cnv 4 10 4 empty empty empty 20 12 0 14 -1 -66577 0
;
#X obj 212 330 *~;
#X obj 296 330 *~;
#X obj 183 239 * 0.85;
#X obj 256 239 * 0.53;
#X text 77 386 0.85^2 + 0.53^2 = 0.72 + 0.28 = 1 environ;
#X obj 103 118 hsl 101 12 -80 20 0 1 \$0-A ColorAmpli 0dB 0 7 1 9 -261299
-1 -1 8000 0;
#X msg -43 158 label \$1;
#X text 106 168 -> 0.0001..10 = -80dB..20dB;
#X obj 100 149 expr (pow(10 \, $f1 / 20));
#X obj 100 187 sel 0.0001;
#X msg 100 212 0;
#X obj 100 290 line~;
#X obj 100 267 pack 0 10;
#X obj 255 290 line~;
#X obj 255 267 pack 0 10;
#X obj 183 290 line~;
#X obj 183 267 pack 0 10;
#X obj -43 97 cyclone/sprintf %ddB;
#X obj -43 132 cyclone/tosymbol;
#X obj 352 360 cnv 15 42 25 empty empty empty 20 12 0 14 -24198 -66577
0;
#N canvas 336 174 309 137 ?. 0;
#X obj 3 83 cnv 15 300 46 empty empty empty 20 12 0 14 -224896 -66577
0;
#X obj 3 6 cnv 18 300 70 empty empty ARGOPdMiniModules 3 10 1 14 -4033
-1 1.04858e+06;
#X obj 26 26 cnv 10 10 10 empty empty Gerard 0 5 1 11 -4033 -1 1.04858e+06
;
#X obj 64 26 cnv 10 10 10 empty empty Paresys 0 5 1 11 -4033 -1 1.04858e+06
;
#X obj 7 37 pddp/pddplink http://gerard.paresys.free.fr/ARGOPd/;
#X text 8 85 Construit sous / Build under Pd 0.43.4-extended;
#X obj 8 111 pddp/pddplink http://puredata.info/downloads/pd-extended
;
#X obj 7 50 pddp/pddplink http://paresys.pagesperso-orange.fr/ARGOPd/
;
#X text 7 98 or Pd-0.46-7 + deken;
#X restore 356 364 pd ?.;
#X text 127 79 17 3 2016;
#X connect 3 0 4 0;
#X connect 4 0 1 0;
#X connect 9 0 10 0;
#X connect 9 0 18 0;
#X connect 10 0 1 0;
#X connect 12 0 13 0;
#X connect 13 0 11 0;
#X connect 15 0 16 0;
#X connect 15 0 19 0;
#X connect 16 0 1 0;
#X connect 18 0 11 0;
#X connect 19 0 11 0;
#X connect 20 0 34 0;
#X connect 21 0 32 0;
#X connect 23 0 26 0;
#X connect 23 0 35 0;
#X connect 24 0 23 0;
#X connect 26 0 27 0;
#X connect 27 0 28 0;
#X connect 27 1 20 0;
#X connect 27 1 21 0;
#X connect 27 1 30 0;
#X connect 28 0 20 0;
#X connect 28 0 21 0;
#X connect 28 0 30 0;
#X connect 28 0 36 0;
#X connect 29 0 4 1;
#X connect 29 0 13 1;
#X connect 30 0 29 0;
#X connect 31 0 16 1;
#X connect 31 0 18 1;
#X connect 32 0 31 0;
#X connect 33 0 19 1;
#X connect 33 0 10 1;
#X connect 34 0 33 0;
#X connect 35 0 36 0;
#X connect 36 0 24 0;
#X coords 0 -1 1 1 106 36 1 100 100;
#X restore 205 238 pd ARGO;
#X text 553 195 Ramp;
#X text 785 198 Moorer;
#X text 794 208 DSF;
#X text 663 196 Sinus;
#N canvas 540 85 479 446 ARGO 0;
#X obj 101 101 cnv 20 244 46 empty ColorTime Oscill 30 9 1 14 -208064
-1 1.04858e+06;
#X obj 194 399 outlet~;
#X obj 101 143 cnv 4 10 4 empty empty empty 20 12 0 14 -1 -66577 0
;
#X obj 101 101 cnv 4 10 4 empty empty empty 20 12 0 14 -1728 -66577
0;
#X obj 324 399 outlet~;
#X obj 335 143 cnv 4 10 4 empty empty empty 0 0 0 9 -1 -66577 0;
#X obj 216 143 cnv 4 10 4 empty empty empty 0 0 0 9 -1 -66577 0;
#X obj 100 118 nbx 7 12 0 20000 0 1 \$0-A ColorTime Hz 60 7 1 9 -208064
-1 -1 3520 256;
#X obj 87 41 inlet~;
#X obj 103 130 hsl 241 12 0 1 0 0 \$0-A ColorTime empty 0 7 1 9 -262144
-1 -1 21300 0;
#X obj 103 130 hsl 241 12 0 1 0 0 \$0-A ColorTime A6 0 7 1 9 -208064
-1728 -1 20878 0;
#X obj 392 56 cnv 15 60 30 empty empty empty 20 12 0 14 -24198 -66577
0;
#N canvas 392 239 376 247 Help 0;
#X text 21 182 Sensibilitée de l'entrée de contrôle de la fréquence:
;
#X text 21 194 1 = 240 1/2 ton = 20 octaves;
#X text 21 28 Based on Andy Farnell's work.;
#X text 22 14 MM Oscill-Moorer;
#X text 20 72 Code examples for Designing Sound textbook;
#X text 38 85 -> Chapter 17: Technique 1 - Additive/Summation;
#X text 67 98 -> DSF Moorer;
#X text 20 146 DSF = Discrete Summation Formula;
#X obj 21 43 pddp/pddplink http://obiwannabe.co.uk;
#X obj 20 57 pddp/pddplink http://aspress.co.uk/sd/chapter17.html;
#X obj 24 112 pddp/pddplink http://en.wikipedia.org/wiki/Distortion_synthesis
;
#X obj 24 124 pddp/pddplink http://www.jamminpower.com/PDF/Sine%20Summation.pdf
;
#X restore 399 62 pd Help;
#X text 349 130 2 HSLIDER superposés;
#X text 373 119 ATTENTION;
#N canvas 686 258 360 332 Freq-v7-sig- 0;
#X obj 231 57 ftom;
#X obj 284 216 mtof;
#X obj 146 141 +~;
#X obj 14 188 snapshot~;
#X obj 14 210 change;
#X msg 14 235 set \$1;
#X obj 147 244 clip~ 0 20000;
#X obj 147 221 mtof~;
#X obj 147 273 outlet~;
#X obj 285 34 inlet;
#X obj 230 33 inlet;
#X obj 43 273 outlet;
#X obj 284 273 outlet;
#X text 40 291 Hslider;
#X obj 146 38 inlet~;
#X obj 13 37 loadbang;
#X obj 234 273 outlet;
#X obj 284 155 * 240;
#X obj 284 178 - 108;
#X obj 146 169 *~ 240;
#X obj 146 191 -~ 108;
#X obj 231 80 + 108;
#X obj 231 102 / 240;
#X obj 14 86 metro 200;
#X obj 69 37 r SendFluid;
#X text 49 302 Over;
#X text 286 291 Number;
#X text 227 16 Number;
#X text 233 290 Hslider;
#X text 235 301 Under;
#X text 286 4 Hslider;
#X text 291 15 Under;
#X msg 234 243 set \$1;
#N canvas 618 373 489 317 pitchb 0;
#X obj 70 111 mod 12;
#X obj 70 135 sel 0 1 2 3 4 5 6 7 8 9 10 11;
#X msg 246 170 A;
#X msg 300 170 B;
#X msg 192 170 G;
#X msg 3 170 C;
#X msg 57 170 D;
#X msg 111 170 E;
#X msg 138 170 F;
#X obj 204 1 inlet;
#X obj 329 115 div 12;
#X obj 204 79 t f f;
#X text 334 190 -> Numero de l'octave;
#X text 213 64 -> Numero MIDI de la note (69 = A3 = 440Hz);
#X msg 260 260 label \$1;
#X obj 260 283 outlet;
#X msg 30 170 Db;
#X msg 84 170 Eb;
#X msg 165 170 Gb;
#X msg 219 170 Ab;
#X msg 273 170 Bb;
#X text 369 78 (70 = A#3 = Bb3);
#X obj 260 238 symbol;
#X text 11 231 Impossible d'afficher # dans un label;
#X text 11 243 donc j'affiche b;
#X obj 204 51 int;
#X text 255 23 -> pour corriger certaines erreurs de calcul;
#X obj 204 25 + 120.1;
#X obj 329 144 - 12;
#X text 255 35 et le pb du passage a zero de mod 12;
#X obj 260 213 cyclone/sprintf %s%d;
#X connect 0 0 1 0;
#X connect 1 0 5 0;
#X connect 1 1 16 0;
#X connect 1 2 6 0;
#X connect 1 3 17 0;
#X connect 1 4 7 0;
#X connect 1 5 8 0;
#X connect 1 6 18 0;
#X connect 1 7 4 0;
#X connect 1 8 19 0;
#X connect 1 9 2 0;
#X connect 1 10 20 0;
#X connect 1 11 3 0;
#X connect 2 0 30 0;
#X connect 3 0 30 0;
#X connect 4 0 30 0;
#X connect 5 0 30 0;
#X connect 6 0 30 0;
#X connect 7 0 30 0;
#X connect 8 0 30 0;
#X connect 9 0 27 0;
#X connect 10 0 28 0;
#X connect 11 0 0 0;
#X connect 11 1 10 0;
#X connect 14 0 15 0;
#X connect 16 0 30 0;
#X connect 17 0 30 0;
#X connect 18 0 30 0;
#X connect 19 0 30 0;
#X connect 20 0 30 0;
#X connect 22 0 14 0;
#X connect 25 0 11 0;
#X connect 27 0 25 0;
#X connect 28 0 30 1;
#X connect 30 0 22 0;
#X restore 82 142 pd pitchb;
#X connect 0 0 21 0;
#X connect 0 0 33 0;
#X connect 1 0 12 0;
#X connect 2 0 3 0;
#X connect 2 0 19 0;
#X connect 3 0 4 0;
#X connect 4 0 5 0;
#X connect 5 0 11 0;
#X connect 6 0 8 0;
#X connect 7 0 6 0;
#X connect 9 0 17 0;
#X connect 10 0 0 0;
#X connect 14 0 2 0;
#X connect 15 0 23 0;
#X connect 17 0 18 0;
#X connect 18 0 1 0;
#X connect 19 0 20 0;
#X connect 20 0 7 0;
#X connect 21 0 22 0;
#X connect 22 0 2 1;
#X connect 22 0 32 0;
#X connect 23 0 3 0;
#X connect 24 0 23 1;
#X connect 32 0 16 0;
#X connect 33 0 11 0;
#X restore 27 70 pd Freq-v7-sig-;
#X obj 94 399 outlet~;
#X obj 335 101 cnv 4 10 4 empty empty empty 20 12 0 14 -3522 -66577
0;
#X obj 177 118 hsl 81 12 -1 1 0 1 \$0-A ColorForm 86 0 7 1 9 -262144
-1 -1 2700 0;
#X obj 201 41 inlet~;
#X obj 177 118 hsl 81 12 -1 1 0 1 \$0-A ColorForm 33 0 7 1 9 -188398
-3522 -1 478 0;
#N canvas 795 278 262 317 Modul~ 0;
#X msg 192 236 set \$1;
#X obj 15 73 +~;
#X obj 121 278 outlet;
#X obj 193 122 snapshot~;
#X obj 193 216 change;
#X obj 83 31 inlet;
#X obj 15 31 inlet~;
#X obj 15 277 outlet~;
#X msg 83 239 label \$1;
#X obj 123 31 loadbang;
#X obj 123 73 metro 200;
#X obj 180 31 r SendFluid;
#X obj 83 122 + 1;
#X text 79 13 -1..+1;
#X obj 83 178 int;
#X obj 83 147 * 50;
#X text 87 196 <- 0..100;
#X obj 15 122 +~ 1;
#X obj 15 147 *~ 0.5;
#X text 19 295 0..+1;
#X obj 15 178 clip~ 0 1;
#X obj 83 217 cyclone/tosymbol;
#X connect 0 0 2 0;
#X connect 1 0 3 0;
#X connect 1 0 17 0;
#X connect 3 0 4 0;
#X connect 4 0 0 0;
#X connect 5 0 1 1;
#X connect 5 0 12 0;
#X connect 6 0 1 0;
#X connect 8 0 2 0;
#X connect 9 0 10 0;
#X connect 10 0 3 0;
#X connect 11 0 10 1;
#X connect 12 0 15 0;
#X connect 14 0 21 0;
#X connect 15 0 14 0;
#X connect 17 0 18 0;
#X connect 18 0 20 0;
#X connect 20 0 7 0;
#X connect 21 0 8 0;
#X restore 185 166 pd Modul~;
#X obj 216 101 cnv 4 10 4 empty empty empty 20 12 0 14 -3522 -66577
0;
#X obj 263 118 hsl 81 12 -1 1 0 1 \$0-A ColorForm 86 0 7 1 9 -262144
-1 -1 2700 0;
#X obj 315 41 inlet~;
#X obj 263 118 hsl 81 12 -1 1 0 1 \$0-A ColorForm 101 0 7 1 9 -188398
-3522 -1 3499 0;
#N canvas 795 278 253 317 Modul~ 0;
#X msg 175 236 set \$1;
#X obj 15 73 +~;
#X obj 104 278 outlet;
#X obj 176 109 snapshot~;
#X obj 176 216 change;
#X obj 75 32 inlet;
#X obj 15 32 inlet~;
#X obj 15 277 outlet~;
#X msg 66 239 label \$1;
#X obj 116 32 loadbang;
#X obj 116 73 metro 200;
#X obj 174 32 r SendFluid;
#X obj 66 120 + 1;
#X text 71 14 -1..+1;
#X obj 66 178 int;
#X obj 15 121 +~ 1;
#X obj 15 147 *~ 1.5;
#X obj 66 146 * 150;
#X text 70 196 <- 0..300;
#X text 19 295 0..3;
#X obj 66 217 cyclone/tosymbol;
#X connect 0 0 2 0;
#X connect 1 0 3 0;
#X connect 1 0 15 0;
#X connect 3 0 4 0;
#X connect 4 0 0 0;
#X connect 5 0 1 1;
#X connect 5 0 12 0;
#X connect 6 0 1 0;
#X connect 8 0 2 0;
#X connect 9 0 10 0;
#X connect 10 0 3 0;
#X connect 11 0 10 1;
#X connect 12 0 17 0;
#X connect 14 0 20 0;
#X connect 15 0 16 0;
#X connect 16 0 7 0;
#X connect 17 0 14 0;
#X connect 20 0 8 0;
#X restore 285 166 pd Modul~;
#X obj 104 166 phasor~;
#X obj 117 260 -~ 0.25;
#X obj 117 317 cos~;
#X obj 156 342 -~;
#X obj 171 260 -~ 0.25;
#X obj 171 286 cos~;
#X obj 171 236 -~;
#X obj 232 362 /~;
#X obj 171 317 *~;
#X obj 229 260 *~;
#X obj 248 317 -~;
#X obj 256 260 *~ 2;
#X obj 289 260 cos~;
#X obj 263 286 *~;
#X obj 269 212 phasor~;
#X obj 270 191 *~;
#X text 101 415 Ramp;
#X text 324 415 Moorer;
#X text 333 425 DSF;
#X obj 183 111 cnv 4 4 4 empty ColorTime Index 1 1 1 10 -208064 -1
1.04858e+06;
#X obj 305 111 cnv 4 4 4 empty ColorTime Distance 1 1 1 10 -208064
-1 1.04858e+06;
#X obj 237 109 cnv 4 4 4 empty ColorTime Moorer. 1 1 1 14 -208064 -1
1.04858e+06;
#X text 94 23 Freq;
#X text 202 23 Index;
#X text 311 23 Distance;
#X obj 67 260 -~ 0.5;
#X obj 66 317 *~ 2;
#X obj 229 286 +~ 1;
#X text 200 414 Sinus;
#X obj 404 403 cnv 15 52 22 empty empty empty 20 12 0 14 -24198 -66577
0;
#N canvas 353 174 321 152 ?... 0;
#X obj 8 84 cnv 15 300 56 empty empty empty 20 12 0 14 -224896 -66577
0;
#X obj 8 7 cnv 18 300 70 empty empty ARGOPdMiniModules 3 10 1 14 -4033
-1 1.04858e+06;
#X obj 31 27 cnv 10 10 10 empty empty Gerard 0 5 1 11 -4033 -1 1.04858e+06
;
#X obj 69 27 cnv 10 10 10 empty empty Paresys 0 5 1 11 -4033 -1 1.04858e+06
;
#X obj 12 40 pddp/pddplink http://gerard.paresys.free.fr/ARGOPd/;
#X obj 13 121 pddp/pddplink http://puredata.info/downloads/pd-extended
;
#X obj 13 97 pddp/pddplink http://puredata.info/downloads/pure-data
;
#X text 13 85 Construit sous / Build under Pd-0.49...;
#X text 12 109 or Pd 0.43.4-extended;
#X obj 12 53 pddp/pddplink https://paresys.pagesperso-orange.fr/ARGOPd/
;
#X restore 407 406 pd ?...;
#X text 312 85 29 8 2019;
#X connect 7 0 15 1;
#X connect 8 0 15 0;
#X connect 9 0 15 2;
#X connect 15 0 10 0;
#X connect 15 1 27 0;
#X connect 15 1 42 0;
#X connect 15 2 9 0;
#X connect 15 3 7 0;
#X connect 18 0 21 1;
#X connect 19 0 21 0;
#X connect 21 0 35 1;
#X connect 21 0 36 0;
#X connect 21 0 36 1;
#X connect 21 0 38 0;
#X connect 21 1 20 0;
#X connect 23 0 26 1;
#X connect 24 0 26 0;
#X connect 26 0 42 1;
#X connect 26 1 25 0;
#X connect 27 0 28 0;
#X connect 27 0 33 0;
#X connect 27 0 52 0;
#X connect 28 0 29 0;
#X connect 29 0 30 0;
#X connect 29 0 1 0;
#X connect 30 0 34 0;
#X connect 31 0 32 0;
#X connect 32 0 35 0;
#X connect 33 0 31 0;
#X connect 34 0 4 0;
#X connect 35 0 30 1;
#X connect 36 0 54 0;
#X connect 37 0 34 1;
#X connect 38 0 40 0;
#X connect 39 0 40 1;
#X connect 40 0 37 1;
#X connect 41 0 33 1;
#X connect 41 0 39 0;
#X connect 42 0 41 0;
#X connect 52 0 53 0;
#X connect 53 0 16 0;
#X connect 54 0 37 0;
#X coords 0 -1 1 1 246 48 1 100 100;
#X restore 159 150 pd ARGO;
#N canvas 540 85 479 446 ARGO 0;
#X obj 101 101 cnv 20 244 46 empty ColorTime Oscill 30 9 1 14 -208064
-1 1.04858e+06;
#X obj 194 399 outlet~;
#X obj 101 143 cnv 4 10 4 empty empty empty 20 12 0 14 -1 -66577 0
;
#X obj 101 101 cnv 4 10 4 empty empty empty 20 12 0 14 -1728 -66577
0;
#X obj 324 399 outlet~;
#X obj 335 143 cnv 4 10 4 empty empty empty 0 0 0 9 -1 -66577 0;
#X obj 216 143 cnv 4 10 4 empty empty empty 0 0 0 9 -1 -66577 0;
#X obj 100 118 nbx 7 12 0 20000 0 1 \$0-A ColorTime Hz 60 7 1 9 -208064
-1 -1 3520 256;
#X obj 87 41 inlet~;
#X obj 103 130 hsl 241 12 0 1 0 0 \$0-A ColorTime empty 0 7 1 9 -262144
-1 -1 21300 0;
#X obj 103 130 hsl 241 12 0 1 0 0 \$0-A ColorTime A6 0 7 1 9 -208064
-1728 -1 21195 0;
#X obj 392 56 cnv 15 60 30 empty empty empty 20 12 0 14 -24198 -66577
0;
#N canvas 392 239 376 247 Help 0;
#X text 21 182 Sensibilitée de l'entrée de contrôle de la fréquence:
;
#X text 21 194 1 = 240 1/2 ton = 20 octaves;
#X text 21 28 Based on Andy Farnell's work.;
#X text 22 14 MM Oscill-Moorer;
#X text 20 72 Code examples for Designing Sound textbook;
#X text 38 85 -> Chapter 17: Technique 1 - Additive/Summation;
#X text 67 98 -> DSF Moorer;
#X text 20 146 DSF = Discrete Summation Formula;
#X obj 21 43 pddp/pddplink http://obiwannabe.co.uk;
#X obj 20 57 pddp/pddplink http://aspress.co.uk/sd/chapter17.html;
#X obj 24 112 pddp/pddplink http://en.wikipedia.org/wiki/Distortion_synthesis
;
#X obj 24 124 pddp/pddplink http://www.jamminpower.com/PDF/Sine%20Summation.pdf
;
#X restore 399 62 pd Help;
#X text 349 130 2 HSLIDER superposés;
#X text 373 119 ATTENTION;
#N canvas 686 258 360 332 Freq-v7-sig- 0;
#X obj 231 57 ftom;
#X obj 284 216 mtof;
#X obj 146 141 +~;
#X obj 14 188 snapshot~;
#X obj 14 210 change;
#X msg 14 235 set \$1;
#X obj 147 244 clip~ 0 20000;
#X obj 147 221 mtof~;
#X obj 147 273 outlet~;
#X obj 285 34 inlet;
#X obj 230 33 inlet;
#X obj 43 273 outlet;
#X obj 284 273 outlet;
#X text 40 291 Hslider;
#X obj 146 38 inlet~;
#X obj 13 37 loadbang;
#X obj 234 273 outlet;
#X obj 284 155 * 240;
#X obj 284 178 - 108;
#X obj 146 169 *~ 240;
#X obj 146 191 -~ 108;
#X obj 231 80 + 108;
#X obj 231 102 / 240;
#X obj 14 86 metro 200;
#X obj 69 37 r SendFluid;
#X text 49 302 Over;
#X text 286 291 Number;
#X text 227 16 Number;
#X text 233 290 Hslider;
#X text 235 301 Under;
#X text 286 4 Hslider;
#X text 291 15 Under;
#X msg 234 243 set \$1;
#N canvas 618 373 489 317 pitchb 0;
#X obj 70 111 mod 12;
#X obj 70 135 sel 0 1 2 3 4 5 6 7 8 9 10 11;
#X msg 246 170 A;
#X msg 300 170 B;
#X msg 192 170 G;
#X msg 3 170 C;
#X msg 57 170 D;
#X msg 111 170 E;
#X msg 138 170 F;
#X obj 204 1 inlet;
#X obj 329 115 div 12;
#X obj 204 79 t f f;
#X text 334 190 -> Numero de l'octave;
#X text 213 64 -> Numero MIDI de la note (69 = A3 = 440Hz);
#X msg 260 260 label \$1;
#X obj 260 283 outlet;
#X msg 30 170 Db;
#X msg 84 170 Eb;
#X msg 165 170 Gb;
#X msg 219 170 Ab;
#X msg 273 170 Bb;
#X text 369 78 (70 = A#3 = Bb3);
#X obj 260 238 symbol;
#X text 11 231 Impossible d'afficher # dans un label;
#X text 11 243 donc j'affiche b;
#X obj 204 51 int;
#X text 255 23 -> pour corriger certaines erreurs de calcul;
#X obj 204 25 + 120.1;
#X obj 329 144 - 12;
#X text 255 35 et le pb du passage a zero de mod 12;
#X obj 260 213 cyclone/sprintf %s%d;
#X connect 0 0 1 0;
#X connect 1 0 5 0;
#X connect 1 1 16 0;
#X connect 1 2 6 0;
#X connect 1 3 17 0;
#X connect 1 4 7 0;
#X connect 1 5 8 0;
#X connect 1 6 18 0;
#X connect 1 7 4 0;
#X connect 1 8 19 0;
#X connect 1 9 2 0;
#X connect 1 10 20 0;
#X connect 1 11 3 0;
#X connect 2 0 30 0;
#X connect 3 0 30 0;
#X connect 4 0 30 0;
#X connect 5 0 30 0;
#X connect 6 0 30 0;
#X connect 7 0 30 0;
#X connect 8 0 30 0;
#X connect 9 0 27 0;
#X connect 10 0 28 0;
#X connect 11 0 0 0;
#X connect 11 1 10 0;
#X connect 14 0 15 0;
#X connect 16 0 30 0;
#X connect 17 0 30 0;
#X connect 18 0 30 0;
#X connect 19 0 30 0;
#X connect 20 0 30 0;
#X connect 22 0 14 0;
#X connect 25 0 11 0;
#X connect 27 0 25 0;
#X connect 28 0 30 1;
#X connect 30 0 22 0;
#X restore 82 142 pd pitchb;
#X connect 0 0 21 0;
#X connect 0 0 33 0;
#X connect 1 0 12 0;
#X connect 2 0 3 0;
#X connect 2 0 19 0;
#X connect 3 0 4 0;
#X connect 4 0 5 0;
#X connect 5 0 11 0;
#X connect 6 0 8 0;
#X connect 7 0 6 0;
#X connect 9 0 17 0;
#X connect 10 0 0 0;
#X connect 14 0 2 0;
#X connect 15 0 23 0;
#X connect 17 0 18 0;
#X connect 18 0 1 0;
#X connect 19 0 20 0;
#X connect 20 0 7 0;
#X connect 21 0 22 0;
#X connect 22 0 2 1;
#X connect 22 0 32 0;
#X connect 23 0 3 0;
#X connect 24 0 23 1;
#X connect 32 0 16 0;
#X connect 33 0 11 0;
#X restore 27 70 pd Freq-v7-sig-;
#X obj 94 399 outlet~;
#X obj 335 101 cnv 4 10 4 empty empty empty 20 12 0 14 -3522 -66577
0;
#X obj 177 118 hsl 81 12 -1 1 0 1 \$0-A ColorForm 86 0 7 1 9 -262144
-1 -1 2700 0;
#X obj 201 41 inlet~;
#X obj 177 118 hsl 81 12 -1 1 0 1 \$0-A ColorForm 33 0 7 1 9 -188398
-3522 -1 3706 0;
#N canvas 795 278 262 317 Modul~ 0;
#X msg 192 236 set \$1;
#X obj 15 73 +~;
#X obj 121 278 outlet;
#X obj 193 122 snapshot~;
#X obj 193 216 change;
#X obj 83 31 inlet;
#X obj 15 31 inlet~;
#X obj 15 277 outlet~;
#X msg 83 239 label \$1;
#X obj 123 31 loadbang;
#X obj 123 73 metro 200;
#X obj 180 31 r SendFluid;
#X obj 83 122 + 1;
#X text 79 13 -1..+1;
#X obj 83 178 int;
#X obj 83 147 * 50;
#X text 87 196 <- 0..100;
#X obj 15 122 +~ 1;
#X obj 15 147 *~ 0.5;
#X text 19 295 0..+1;
#X obj 15 178 clip~ 0 1;
#X obj 83 217 cyclone/tosymbol;
#X connect 0 0 2 0;
#X connect 1 0 3 0;
#X connect 1 0 17 0;
#X connect 3 0 4 0;
#X connect 4 0 0 0;
#X connect 5 0 1 1;
#X connect 5 0 12 0;
#X connect 6 0 1 0;
#X connect 8 0 2 0;
#X connect 9 0 10 0;
#X connect 10 0 3 0;
#X connect 11 0 10 1;
#X connect 12 0 15 0;
#X connect 14 0 21 0;
#X connect 15 0 14 0;
#X connect 17 0 18 0;
#X connect 18 0 20 0;
#X connect 20 0 7 0;
#X connect 21 0 8 0;
#X restore 185 166 pd Modul~;
#X obj 216 101 cnv 4 10 4 empty empty empty 20 12 0 14 -3522 -66577
0;
#X obj 263 118 hsl 81 12 -1 1 0 1 \$0-A ColorForm 86 0 7 1 9 -262144
-1 -1 2700 0;
#X obj 315 41 inlet~;
#X obj 263 118 hsl 81 12 -1 1 0 1 \$0-A ColorForm 101 0 7 1 9 -188398
-3522 -1 935 0;
#N canvas 795 278 253 317 Modul~ 0;
#X msg 175 236 set \$1;
#X obj 15 73 +~;
#X obj 104 278 outlet;
#X obj 176 109 snapshot~;
#X obj 176 216 change;
#X obj 75 32 inlet;
#X obj 15 32 inlet~;
#X obj 15 277 outlet~;
#X msg 66 239 label \$1;
#X obj 116 32 loadbang;
#X obj 116 73 metro 200;
#X obj 174 32 r SendFluid;
#X obj 66 120 + 1;
#X text 71 14 -1..+1;
#X obj 66 178 int;
#X obj 15 121 +~ 1;
#X obj 15 147 *~ 1.5;
#X obj 66 146 * 150;
#X text 70 196 <- 0..300;
#X text 19 295 0..3;
#X obj 66 217 cyclone/tosymbol;
#X connect 0 0 2 0;
#X connect 1 0 3 0;
#X connect 1 0 15 0;
#X connect 3 0 4 0;
#X connect 4 0 0 0;
#X connect 5 0 1 1;
#X connect 5 0 12 0;
#X connect 6 0 1 0;
#X connect 8 0 2 0;
#X connect 9 0 10 0;
#X connect 10 0 3 0;
#X connect 11 0 10 1;
#X connect 12 0 17 0;
#X connect 14 0 20 0;
#X connect 15 0 16 0;
#X connect 16 0 7 0;
#X connect 17 0 14 0;
#X connect 20 0 8 0;
#X restore 285 166 pd Modul~;
#X obj 104 166 phasor~;
#X obj 117 260 -~ 0.25;
#X obj 117 317 cos~;
#X obj 156 342 -~;
#X obj 171 260 -~ 0.25;
#X obj 171 286 cos~;
#X obj 171 236 -~;
#X obj 232 362 /~;
#X obj 171 317 *~;
#X obj 229 260 *~;
#X obj 248 317 -~;
#X obj 256 260 *~ 2;
#X obj 289 260 cos~;
#X obj 263 286 *~;
#X obj 269 212 phasor~;
#X obj 270 191 *~;
#X text 101 415 Ramp;
#X text 324 415 Moorer;
#X text 333 425 DSF;
#X obj 183 111 cnv 4 4 4 empty ColorTime Index 1 1 1 10 -208064 -1
1.04858e+06;
#X obj 305 111 cnv 4 4 4 empty ColorTime Distance 1 1 1 10 -208064
-1 1.04858e+06;
#X obj 237 109 cnv 4 4 4 empty ColorTime Moorer. 1 1 1 14 -208064 -1
1.04858e+06;
#X text 94 23 Freq;
#X text 202 23 Index;
#X text 311 23 Distance;
#X obj 67 260 -~ 0.5;
#X obj 66 317 *~ 2;
#X obj 229 286 +~ 1;
#X text 200 414 Sinus;
#X obj 404 403 cnv 15 52 22 empty empty empty 20 12 0 14 -24198 -66577
0;
#N canvas 353 174 321 152 ?... 0;
#X obj 8 84 cnv 15 300 56 empty empty empty 20 12 0 14 -224896 -66577
0;
#X obj 8 7 cnv 18 300 70 empty empty ARGOPdMiniModules 3 10 1 14 -4033
-1 1.04858e+06;
#X obj 31 27 cnv 10 10 10 empty empty Gerard 0 5 1 11 -4033 -1 1.04858e+06
;
#X obj 69 27 cnv 10 10 10 empty empty Paresys 0 5 1 11 -4033 -1 1.04858e+06
;
#X obj 12 40 pddp/pddplink http://gerard.paresys.free.fr/ARGOPd/;
#X obj 13 121 pddp/pddplink http://puredata.info/downloads/pd-extended
;
#X obj 13 97 pddp/pddplink http://puredata.info/downloads/pure-data
;
#X text 13 85 Construit sous / Build under Pd-0.49...;
#X text 12 109 or Pd 0.43.4-extended;
#X obj 12 53 pddp/pddplink https://paresys.pagesperso-orange.fr/ARGOPd/
;
#X restore 407 406 pd ?...;
#X text 312 85 29 8 2019;
#X connect 7 0 15 1;
#X connect 8 0 15 0;
#X connect 9 0 15 2;
#X connect 15 0 10 0;
#X connect 15 1 27 0;
#X connect 15 1 42 0;
#X connect 15 2 9 0;
#X connect 15 3 7 0;
#X connect 18 0 21 1;
#X connect 19 0 21 0;
#X connect 21 0 35 1;
#X connect 21 0 36 0;
#X connect 21 0 36 1;
#X connect 21 0 38 0;
#X connect 21 1 20 0;
#X connect 23 0 26 1;
#X connect 24 0 26 0;
#X connect 26 0 42 1;
#X connect 26 1 25 0;
#X connect 27 0 28 0;
#X connect 27 0 33 0;
#X connect 27 0 52 0;
#X connect 28 0 29 0;
#X connect 29 0 30 0;
#X connect 29 0 1 0;
#X connect 30 0 34 0;
#X connect 31 0 32 0;
#X connect 32 0 35 0;
#X connect 33 0 31 0;
#X connect 34 0 4 0;
#X connect 35 0 30 1;
#X connect 36 0 54 0;
#X connect 37 0 34 1;
#X connect 38 0 40 0;
#X connect 39 0 40 1;
#X connect 40 0 37 1;
#X connect 41 0 33 1;
#X connect 41 0 39 0;
#X connect 42 0 41 0;
#X connect 52 0 53 0;
#X connect 53 0 16 0;
#X connect 54 0 37 0;
#X coords 0 -1 1 1 246 48 1 100 100;
#X restore 561 150 pd ARGO;
#N canvas 175 68 381 386 ARGO 0;
#X obj 101 101 cnv 20 116 34 empty ColorAmpli empty 20 12 0 14 -261299
-1 1.04858e+06;
#X obj 85 353 outlet~;
#X obj 157 104 cnv 10 20 10 empty ColorAmpli Ampli. 1 5 1 14 -261299
-1 1.04858e+06;
#X obj 85 43 inlet~;
#X obj 85 330 *~;
#X obj 115 118 hsl 101 12 -80 20 0 1 \$0-A ColorAmpli -35dB 0 7 1 9
-261299 -1 -1 4500 0;
#X obj 101 101 cnv 4 10 4 empty empty empty 20 12 0 14 -1 -66577 0
;
#X obj 101 131 cnv 4 10 4 empty empty empty 20 12 0 14 -1 -66577 0
;
#X obj 207 101 cnv 4 10 4 empty empty empty 20 12 0 14 -1 -66577 0
;
#X obj 207 131 cnv 4 10 4 empty empty empty 20 12 0 14 -1 -66577 0
;
#X obj 222 352 outlet~;
#X obj 222 42 inlet~;
#X obj 222 329 *~;
#X msg -42 138 label \$1;
#X text 148 194 -> 0.0001..10 = -80dB..20dB;
#X obj 142 175 expr (pow(10 \, $f1 / 20));
#X obj 142 215 sel 0.0001;
#X msg 100 244 0;
#X obj 100 118 tgl 12 1 \$0-A \$0-B Mute 2 -5 1 9 -261299 -1 -1 0 1
;
#X obj 99 146 select 0 1;
#X obj 140 295 line~;
#X obj 140 275 pack 0 10;
#X msg 123 74 set 0;
#X obj -42 92 cyclone/sprintf %ddB;
#X text 228 110 6 3 2016;
#X obj -42 115 cyclone/tosymbol;
#X obj 273 344 cnv 15 42 25 empty empty empty 20 12 0 14 -24198 -66577
0;
#N canvas 336 174 309 137 ?. 0;
#X obj 3 83 cnv 15 300 46 empty empty empty 20 12 0 14 -224896 -66577
0;
#X obj 3 6 cnv 18 300 70 empty empty ARGOPdMiniModules 3 10 1 14 -4033
-1 1.04858e+06;
#X obj 26 26 cnv 10 10 10 empty empty Gerard 0 5 1 11 -4033 -1 1.04858e+06
;
#X obj 64 26 cnv 10 10 10 empty empty Paresys 0 5 1 11 -4033 -1 1.04858e+06
;
#X obj 7 37 pddp/pddplink http://gerard.paresys.free.fr/ARGOPd/;
#X text 8 85 Construit sous / Build under Pd 0.43.4-extended;
#X obj 8 111 pddp/pddplink http://puredata.info/downloads/pd-extended
;
#X obj 7 50 pddp/pddplink http://paresys.pagesperso-orange.fr/ARGOPd/
;
#X text 7 98 or Pd-0.46-7 + deken;
#X restore 277 348 pd ?.;
#X connect 3 0 4 0;
#X connect 4 0 1 0;
#X connect 5 0 15 0;
#X connect 5 0 23 0;
#X connect 11 0 12 0;
#X connect 12 0 10 0;
#X connect 13 0 5 0;
#X connect 15 0 16 0;
#X connect 16 0 17 0;
#X connect 16 1 21 0;
#X connect 16 1 22 0;
#X connect 17 0 21 0;
#X connect 17 0 25 0;
#X connect 18 0 19 0;
#X connect 19 0 5 0;
#X connect 19 1 17 0;
#X connect 20 0 12 1;
#X connect 20 0 4 1;
#X connect 21 0 20 0;
#X connect 22 0 18 0;
#X connect 23 0 25 0;
#X connect 25 0 13 0;
#X coords 0 -1 1 1 118 36 1 100 100;
#X restore 154 106 pd ARGO;
#N canvas 175 68 381 386 ARGO 0;
#X obj 101 101 cnv 20 116 34 empty ColorAmpli empty 20 12 0 14 -261299
-1 1.04858e+06;
#X obj 85 353 outlet~;
#X obj 157 104 cnv 10 20 10 empty ColorAmpli Ampli. 1 5 1 14 -261299
-1 1.04858e+06;
#X obj 85 43 inlet~;
#X obj 85 330 *~;
#X obj 115 118 hsl 101 12 -80 20 0 1 \$0-A ColorAmpli -1dB 0 7 1 9
-261299 -1 -1 7900 0;
#X obj 101 101 cnv 4 10 4 empty empty empty 20 12 0 14 -1 -66577 0
;
#X obj 101 131 cnv 4 10 4 empty empty empty 20 12 0 14 -1 -66577 0
;
#X obj 207 101 cnv 4 10 4 empty empty empty 20 12 0 14 -1 -66577 0
;
#X obj 207 131 cnv 4 10 4 empty empty empty 20 12 0 14 -1 -66577 0
;
#X obj 222 352 outlet~;
#X obj 222 42 inlet~;
#X obj 222 329 *~;
#X msg -42 138 label \$1;
#X text 148 194 -> 0.0001..10 = -80dB..20dB;
#X obj 142 175 expr (pow(10 \, $f1 / 20));
#X obj 142 215 sel 0.0001;
#X msg 100 244 0;
#X obj 100 118 tgl 12 1 \$0-A \$0-B Mute 2 -5 1 9 -261299 -1 -1 0 1
;
#X obj 99 146 select 0 1;
#X obj 140 295 line~;
#X obj 140 275 pack 0 10;
#X msg 123 74 set 0;
#X obj -42 92 cyclone/sprintf %ddB;
#X text 228 110 6 3 2016;
#X obj -42 115 cyclone/tosymbol;
#X obj 273 344 cnv 15 42 25 empty empty empty 20 12 0 14 -24198 -66577
0;
#N canvas 336 174 309 137 ?. 0;
#X obj 3 83 cnv 15 300 46 empty empty empty 20 12 0 14 -224896 -66577
0;
#X obj 3 6 cnv 18 300 70 empty empty ARGOPdMiniModules 3 10 1 14 -4033
-1 1.04858e+06;
#X obj 26 26 cnv 10 10 10 empty empty Gerard 0 5 1 11 -4033 -1 1.04858e+06
;
#X obj 64 26 cnv 10 10 10 empty empty Paresys 0 5 1 11 -4033 -1 1.04858e+06
;
#X obj 7 37 pddp/pddplink http://gerard.paresys.free.fr/ARGOPd/;
#X text 8 85 Construit sous / Build under Pd 0.43.4-extended;
#X obj 8 111 pddp/pddplink http://puredata.info/downloads/pd-extended
;
#X obj 7 50 pddp/pddplink http://paresys.pagesperso-orange.fr/ARGOPd/
;
#X text 7 98 or Pd-0.46-7 + deken;
#X restore 277 348 pd ?.;
#X connect 3 0 4 0;
#X connect 4 0 1 0;
#X connect 5 0 15 0;
#X connect 5 0 23 0;
#X connect 11 0 12 0;
#X connect 12 0 10 0;
#X connect 13 0 5 0;
#X connect 15 0 16 0;
#X connect 16 0 17 0;
#X connect 16 1 21 0;
#X connect 16 1 22 0;
#X connect 17 0 21 0;
#X connect 17 0 25 0;
#X connect 18 0 19 0;
#X connect 19 0 5 0;
#X connect 19 1 17 0;
#X connect 20 0 12 1;
#X connect 20 0 4 1;
#X connect 21 0 20 0;
#X connect 22 0 18 0;
#X connect 23 0 25 0;
#X connect 25 0 13 0;
#X coords 0 -1 1 1 118 36 1 100 100;
#X restore 278 106 pd ARGO;
#N canvas 175 68 381 386 ARGO 0;
#X obj 101 101 cnv 20 116 34 empty ColorAmpli empty 20 12 0 14 -261299
-1 1.04858e+06;
#X obj 85 353 outlet~;
#X obj 157 104 cnv 10 20 10 empty ColorAmpli Ampli. 1 5 1 14 -261299
-1 1.04858e+06;
#X obj 85 43 inlet~;
#X obj 85 330 *~;
#X obj 115 118 hsl 101 12 -80 20 0 1 \$0-A ColorAmpli -3dB 0 7 1 9
-261299 -1 -1 7700 0;
#X obj 101 101 cnv 4 10 4 empty empty empty 20 12 0 14 -1 -66577 0
;
#X obj 101 131 cnv 4 10 4 empty empty empty 20 12 0 14 -1 -66577 0
;
#X obj 207 101 cnv 4 10 4 empty empty empty 20 12 0 14 -1 -66577 0
;
#X obj 207 131 cnv 4 10 4 empty empty empty 20 12 0 14 -1 -66577 0
;
#X obj 222 352 outlet~;
#X obj 222 42 inlet~;
#X obj 222 329 *~;
#X msg -42 138 label \$1;
#X text 148 194 -> 0.0001..10 = -80dB..20dB;
#X obj 142 175 expr (pow(10 \, $f1 / 20));
#X obj 142 215 sel 0.0001;
#X msg 100 244 0;
#X obj 100 118 tgl 12 1 \$0-A \$0-B Mute 2 -5 1 9 -261299 -1 -1 0 1
;
#X obj 99 146 select 0 1;
#X obj 140 295 line~;
#X obj 140 275 pack 0 10;
#X msg 123 74 set 0;
#X obj -42 92 cyclone/sprintf %ddB;
#X text 228 110 6 3 2016;
#X obj -42 115 cyclone/tosymbol;
#X obj 273 344 cnv 15 42 25 empty empty empty 20 12 0 14 -24198 -66577
0;
#N canvas 336 174 309 137 ?. 0;
#X obj 3 83 cnv 15 300 46 empty empty empty 20 12 0 14 -224896 -66577
0;
#X obj 3 6 cnv 18 300 70 empty empty ARGOPdMiniModules 3 10 1 14 -4033
-1 1.04858e+06;
#X obj 26 26 cnv 10 10 10 empty empty Gerard 0 5 1 11 -4033 -1 1.04858e+06
;
#X obj 64 26 cnv 10 10 10 empty empty Paresys 0 5 1 11 -4033 -1 1.04858e+06
;
#X obj 7 37 pddp/pddplink http://gerard.paresys.free.fr/ARGOPd/;
#X text 8 85 Construit sous / Build under Pd 0.43.4-extended;
#X obj 8 111 pddp/pddplink http://puredata.info/downloads/pd-extended
;
#X obj 7 50 pddp/pddplink http://paresys.pagesperso-orange.fr/ARGOPd/
;
#X text 7 98 or Pd-0.46-7 + deken;
#X restore 277 348 pd ?.;
#X connect 3 0 4 0;
#X connect 4 0 1 0;
#X connect 5 0 15 0;
#X connect 5 0 23 0;
#X connect 11 0 12 0;
#X connect 12 0 10 0;
#X connect 13 0 5 0;
#X connect 15 0 16 0;
#X connect 16 0 17 0;
#X connect 16 1 21 0;
#X connect 16 1 22 0;
#X connect 17 0 21 0;
#X connect 17 0 25 0;
#X connect 18 0 19 0;
#X connect 19 0 5 0;
#X connect 19 1 17 0;
#X connect 20 0 12 1;
#X connect 20 0 4 1;
#X connect 21 0 20 0;
#X connect 22 0 18 0;
#X connect 23 0 25 0;
#X connect 25 0 13 0;
#X coords 0 -1 1 1 118 36 1 100 100;
#X restore 402 106 pd ARGO;
#N canvas 175 68 381 386 ARGO 0;
#X obj 101 101 cnv 20 116 34 empty ColorAmpli empty 20 12 0 14 -261299
-1 1.04858e+06;
#X obj 85 353 outlet~;
#X obj 157 104 cnv 10 20 10 empty ColorAmpli Ampli. 1 5 1 14 -261299
-1 1.04858e+06;
#X obj 85 43 inlet~;
#X obj 85 330 *~;
#X obj 115 118 hsl 101 12 -80 20 0 1 \$0-A ColorAmpli -35dB 0 7 1 9
-261299 -1 -1 4500 0;
#X obj 101 101 cnv 4 10 4 empty empty empty 20 12 0 14 -1 -66577 0
;
#X obj 101 131 cnv 4 10 4 empty empty empty 20 12 0 14 -1 -66577 0
;
#X obj 207 101 cnv 4 10 4 empty empty empty 20 12 0 14 -1 -66577 0
;
#X obj 207 131 cnv 4 10 4 empty empty empty 20 12 0 14 -1 -66577 0
;
#X obj 222 352 outlet~;
#X obj 222 42 inlet~;
#X obj 222 329 *~;
#X msg -42 138 label \$1;
#X text 148 194 -> 0.0001..10 = -80dB..20dB;
#X obj 142 175 expr (pow(10 \, $f1 / 20));
#X obj 142 215 sel 0.0001;
#X msg 100 244 0;
#X obj 100 118 tgl 12 1 \$0-A \$0-B Mute 2 -5 1 9 -261299 -1 -1 0 1
;
#X obj 99 146 select 0 1;
#X obj 140 295 line~;
#X obj 140 275 pack 0 10;
#X msg 123 74 set 0;
#X obj -42 92 cyclone/sprintf %ddB;
#X text 228 110 6 3 2016;
#X obj -42 115 cyclone/tosymbol;
#X obj 273 344 cnv 15 42 25 empty empty empty 20 12 0 14 -24198 -66577
0;
#N canvas 336 174 309 137 ?. 0;
#X obj 3 83 cnv 15 300 46 empty empty empty 20 12 0 14 -224896 -66577
0;
#X obj 3 6 cnv 18 300 70 empty empty ARGOPdMiniModules 3 10 1 14 -4033
-1 1.04858e+06;
#X obj 26 26 cnv 10 10 10 empty empty Gerard 0 5 1 11 -4033 -1 1.04858e+06
;
#X obj 64 26 cnv 10 10 10 empty empty Paresys 0 5 1 11 -4033 -1 1.04858e+06
;
#X obj 7 37 pddp/pddplink http://gerard.paresys.free.fr/ARGOPd/;
#X text 8 85 Construit sous / Build under Pd 0.43.4-extended;
#X obj 8 111 pddp/pddplink http://puredata.info/downloads/pd-extended
;
#X obj 7 50 pddp/pddplink http://paresys.pagesperso-orange.fr/ARGOPd/
;
#X text 7 98 or Pd-0.46-7 + deken;
#X restore 277 348 pd ?.;
#X connect 3 0 4 0;
#X connect 4 0 1 0;
#X connect 5 0 15 0;
#X connect 5 0 23 0;
#X connect 11 0 12 0;
#X connect 12 0 10 0;
#X connect 13 0 5 0;
#X connect 15 0 16 0;
#X connect 16 0 17 0;
#X connect 16 1 21 0;
#X connect 16 1 22 0;
#X connect 17 0 21 0;
#X connect 17 0 25 0;
#X connect 18 0 19 0;
#X connect 19 0 5 0;
#X connect 19 1 17 0;
#X connect 20 0 12 1;
#X connect 20 0 4 1;
#X connect 21 0 20 0;
#X connect 22 0 18 0;
#X connect 23 0 25 0;
#X connect 25 0 13 0;
#X coords 0 -1 1 1 118 36 1 100 100;
#X restore 556 106 pd ARGO;
#N canvas 175 68 381 386 ARGO 0;
#X obj 101 101 cnv 20 116 34 empty ColorAmpli empty 20 12 0 14 -261299
-1 1.04858e+06;
#X obj 85 353 outlet~;
#X obj 157 104 cnv 10 20 10 empty ColorAmpli Ampli. 1 5 1 14 -261299
-1 1.04858e+06;
#X obj 85 43 inlet~;
#X obj 85 330 *~;
#X obj 115 118 hsl 101 12 -80 20 0 1 \$0-A ColorAmpli -1dB 0 7 1 9
-261299 -1 -1 7900 0;
#X obj 101 101 cnv 4 10 4 empty empty empty 20 12 0 14 -1 -66577 0
;
#X obj 101 131 cnv 4 10 4 empty empty empty 20 12 0 14 -1 -66577 0
;
#X obj 207 101 cnv 4 10 4 empty empty empty 20 12 0 14 -1 -66577 0
;
#X obj 207 131 cnv 4 10 4 empty empty empty 20 12 0 14 -1 -66577 0
;
#X obj 222 352 outlet~;
#X obj 222 42 inlet~;
#X obj 222 329 *~;
#X msg -42 138 label \$1;
#X text 148 194 -> 0.0001..10 = -80dB..20dB;
#X obj 142 175 expr (pow(10 \, $f1 / 20));
#X obj 142 215 sel 0.0001;
#X msg 100 244 0;
#X obj 100 118 tgl 12 1 \$0-A \$0-B Mute 2 -5 1 9 -261299 -1 -1 0 1
;
#X obj 99 146 select 0 1;
#X obj 140 295 line~;
#X obj 140 275 pack 0 10;
#X msg 123 74 set 0;
#X obj -42 92 cyclone/sprintf %ddB;
#X text 228 110 6 3 2016;
#X obj -42 115 cyclone/tosymbol;
#X obj 273 344 cnv 15 42 25 empty empty empty 20 12 0 14 -24198 -66577
0;
#N canvas 336 174 309 137 ?. 0;
#X obj 3 83 cnv 15 300 46 empty empty empty 20 12 0 14 -224896 -66577
0;
#X obj 3 6 cnv 18 300 70 empty empty ARGOPdMiniModules 3 10 1 14 -4033
-1 1.04858e+06;
#X obj 26 26 cnv 10 10 10 empty empty Gerard 0 5 1 11 -4033 -1 1.04858e+06
;
#X obj 64 26 cnv 10 10 10 empty empty Paresys 0 5 1 11 -4033 -1 1.04858e+06
;
#X obj 7 37 pddp/pddplink http://gerard.paresys.free.fr/ARGOPd/;
#X text 8 85 Construit sous / Build under Pd 0.43.4-extended;
#X obj 8 111 pddp/pddplink http://puredata.info/downloads/pd-extended
;
#X obj 7 50 pddp/pddplink http://paresys.pagesperso-orange.fr/ARGOPd/
;
#X text 7 98 or Pd-0.46-7 + deken;
#X restore 277 348 pd ?.;
#X connect 3 0 4 0;
#X connect 4 0 1 0;
#X connect 5 0 15 0;
#X connect 5 0 23 0;
#X connect 11 0 12 0;
#X connect 12 0 10 0;
#X connect 13 0 5 0;
#X connect 15 0 16 0;
#X connect 16 0 17 0;
#X connect 16 1 21 0;
#X connect 16 1 22 0;
#X connect 17 0 21 0;
#X connect 17 0 25 0;
#X connect 18 0 19 0;
#X connect 19 0 5 0;
#X connect 19 1 17 0;
#X connect 20 0 12 1;
#X connect 20 0 4 1;
#X connect 21 0 20 0;
#X connect 22 0 18 0;
#X connect 23 0 25 0;
#X connect 25 0 13 0;
#X coords 0 -1 1 1 118 36 1 100 100;
#X restore 680 106 pd ARGO;
#N canvas 175 68 381 386 ARGO 0;
#X obj 101 101 cnv 20 116 34 empty ColorAmpli empty 20 12 0 14 -261299
-1 1.04858e+06;
#X obj 85 353 outlet~;
#X obj 157 104 cnv 10 20 10 empty ColorAmpli Ampli. 1 5 1 14 -261299
-1 1.04858e+06;
#X obj 85 43 inlet~;
#X obj 85 330 *~;
#X obj 115 118 hsl 101 12 -80 20 0 1 \$0-A ColorAmpli -3dB 0 7 1 9
-261299 -1 -1 7700 0;
#X obj 101 101 cnv 4 10 4 empty empty empty 20 12 0 14 -1 -66577 0
;
#X obj 101 131 cnv 4 10 4 empty empty empty 20 12 0 14 -1 -66577 0
;
#X obj 207 101 cnv 4 10 4 empty empty empty 20 12 0 14 -1 -66577 0
;
#X obj 207 131 cnv 4 10 4 empty empty empty 20 12 0 14 -1 -66577 0
;
#X obj 222 352 outlet~;
#X obj 222 42 inlet~;
#X obj 222 329 *~;
#X msg -42 138 label \$1;
#X text 148 194 -> 0.0001..10 = -80dB..20dB;
#X obj 142 175 expr (pow(10 \, $f1 / 20));
#X obj 142 215 sel 0.0001;
#X msg 100 244 0;
#X obj 100 118 tgl 12 1 \$0-A \$0-B Mute 2 -5 1 9 -261299 -1 -1 0 1
;
#X obj 99 146 select 0 1;
#X obj 140 295 line~;
#X obj 140 275 pack 0 10;
#X msg 123 74 set 0;
#X obj -42 92 cyclone/sprintf %ddB;
#X text 228 110 6 3 2016;
#X obj -42 115 cyclone/tosymbol;
#X obj 273 344 cnv 15 42 25 empty empty empty 20 12 0 14 -24198 -66577
0;
#N canvas 336 174 309 137 ?. 0;
#X obj 3 83 cnv 15 300 46 empty empty empty 20 12 0 14 -224896 -66577
0;
#X obj 3 6 cnv 18 300 70 empty empty ARGOPdMiniModules 3 10 1 14 -4033
-1 1.04858e+06;
#X obj 26 26 cnv 10 10 10 empty empty Gerard 0 5 1 11 -4033 -1 1.04858e+06
;
#X obj 64 26 cnv 10 10 10 empty empty Paresys 0 5 1 11 -4033 -1 1.04858e+06
;
#X obj 7 37 pddp/pddplink http://gerard.paresys.free.fr/ARGOPd/;
#X text 8 85 Construit sous / Build under Pd 0.43.4-extended;
#X obj 8 111 pddp/pddplink http://puredata.info/downloads/pd-extended
;
#X obj 7 50 pddp/pddplink http://paresys.pagesperso-orange.fr/ARGOPd/
;
#X text 7 98 or Pd-0.46-7 + deken;
#X restore 277 348 pd ?.;
#X connect 3 0 4 0;
#X connect 4 0 1 0;
#X connect 5 0 15 0;
#X connect 5 0 23 0;
#X connect 11 0 12 0;
#X connect 12 0 10 0;
#X connect 13 0 5 0;
#X connect 15 0 16 0;
#X connect 16 0 17 0;
#X connect 16 1 21 0;
#X connect 16 1 22 0;
#X connect 17 0 21 0;
#X connect 17 0 25 0;
#X connect 18 0 19 0;
#X connect 19 0 5 0;
#X connect 19 1 17 0;
#X connect 20 0 12 1;
#X connect 20 0 4 1;
#X connect 21 0 20 0;
#X connect 22 0 18 0;
#X connect 23 0 25 0;
#X connect 25 0 13 0;
#X coords 0 -1 1 1 118 36 1 100 100;
#X restore 804 106 pd ARGO;
#N canvas 312 168 278 274 ARGO 0;
#X obj 101 101 cnv 10 149 15 empty ColorForm Oscill-Sinus. 65 9 1 14
-208064 -1 1.04858e+06;
#X obj 101 112 cnv 4 10 4 empty empty empty 20 12 0 14 -1 -66577 0
;
#X obj 100 100 nbx 6 12 0 999999 0 1 \$0-A ColorTime ms 53 7 1 9 -208064
-1 -1 20000 256;
#X obj 113 231 outlet~;
#X obj 100 125 t b f;
#X obj 113 175 /;
#X obj 65 59 cnv 15 60 30 empty empty empty 20 12 0 14 -24198 -66577
0;
#N canvas 161 113 425 238 Help 0;
#X obj 10 91 cnv 15 400 100 empty empty empty 20 12 0 14 -233017 -66577
0;
#X text 14 93 Citation;
#X text 12 12 Oscillateur sinusoïdal;
#X text 24 112 The osc~ object outputs a cosine wave. If no argument
is supplied \, the input is taken to be an audio signal.;
#X text 14 27 freq(Hz) = 1 / Periode (sec);
#X text 13 45 freq(Hz) = 1000 / Periode (ms);
#X restore 72 65 pd Help;
#X obj 113 199 osc~ 1000;
#X msg 100 151 1000;
#X obj 187 222 cnv 15 52 22 empty empty empty 20 12 0 14 -24198 -66577
0;
#N canvas 353 174 321 152 ?... 0;
#X obj 8 84 cnv 15 300 56 empty empty empty 20 12 0 14 -224896 -66577
0;
#X obj 8 7 cnv 18 300 70 empty empty ARGOPdMiniModules 3 10 1 14 -4033
-1 1.04858e+06;
#X obj 31 27 cnv 10 10 10 empty empty Gerard 0 5 1 11 -4033 -1 1.04858e+06
;
#X obj 69 27 cnv 10 10 10 empty empty Paresys 0 5 1 11 -4033 -1 1.04858e+06
;
#X obj 12 40 pddp/pddplink http://gerard.paresys.free.fr/ARGOPd/;
#X obj 13 121 pddp/pddplink http://puredata.info/downloads/pd-extended
;
#X obj 13 97 pddp/pddplink http://puredata.info/downloads/pure-data
;
#X text 13 85 Construit sous / Build under Pd-0.49...;
#X text 12 109 or Pd 0.43.4-extended;
#X obj 12 53 pddp/pddplink https://paresys.pagesperso-orange.fr/ARGOPd/
;
#X restore 190 225 pd ?...;
#X text 178 82 29 8 2019;
#X connect 2 0 4 0;
#X connect 4 0 9 0;
#X connect 4 1 5 1;
#X connect 5 0 8 0;
#X connect 8 0 3 0;
#X connect 9 0 5 0;
#X coords 0 -1 1 1 151 17 1 100 100;
#X restore 155 32 pd ARGO;
#N canvas 312 168 278 274 ARGO 0;
#X obj 101 101 cnv 10 149 15 empty ColorForm Oscill-Sinus. 65 9 1 14
-208064 -1 1.04858e+06;
#X obj 101 112 cnv 4 10 4 empty empty empty 20 12 0 14 -1 -66577 0
;
#X obj 100 100 nbx 6 12 0 999999 0 1 \$0-A ColorTime ms 53 7 1 9 -208064
-1 -1 21000 256;
#X obj 113 231 outlet~;
#X obj 100 125 t b f;
#X obj 113 175 /;
#X obj 65 59 cnv 15 60 30 empty empty empty 20 12 0 14 -24198 -66577
0;
#N canvas 161 113 425 238 Help 0;
#X obj 10 91 cnv 15 400 100 empty empty empty 20 12 0 14 -233017 -66577
0;
#X text 14 93 Citation;
#X text 12 12 Oscillateur sinusoïdal;
#X text 24 112 The osc~ object outputs a cosine wave. If no argument
is supplied \, the input is taken to be an audio signal.;
#X text 14 27 freq(Hz) = 1 / Periode (sec);
#X text 13 45 freq(Hz) = 1000 / Periode (ms);
#X restore 72 65 pd Help;
#X obj 113 199 osc~ 1000;
#X msg 100 151 1000;
#X obj 187 222 cnv 15 52 22 empty empty empty 20 12 0 14 -24198 -66577
0;
#N canvas 353 174 321 152 ?... 0;
#X obj 8 84 cnv 15 300 56 empty empty empty 20 12 0 14 -224896 -66577
0;
#X obj 8 7 cnv 18 300 70 empty empty ARGOPdMiniModules 3 10 1 14 -4033
-1 1.04858e+06;
#X obj 31 27 cnv 10 10 10 empty empty Gerard 0 5 1 11 -4033 -1 1.04858e+06
;
#X obj 69 27 cnv 10 10 10 empty empty Paresys 0 5 1 11 -4033 -1 1.04858e+06
;
#X obj 12 40 pddp/pddplink http://gerard.paresys.free.fr/ARGOPd/;
#X obj 13 121 pddp/pddplink http://puredata.info/downloads/pd-extended
;
#X obj 13 97 pddp/pddplink http://puredata.info/downloads/pure-data
;
#X text 13 85 Construit sous / Build under Pd-0.49...;
#X text 12 109 or Pd 0.43.4-extended;
#X obj 12 53 pddp/pddplink https://paresys.pagesperso-orange.fr/ARGOPd/
;
#X restore 190 225 pd ?...;
#X text 178 82 29 8 2019;
#X connect 2 0 4 0;
#X connect 4 0 9 0;
#X connect 4 1 5 1;
#X connect 5 0 8 0;
#X connect 8 0 3 0;
#X connect 9 0 5 0;
#X coords 0 -1 1 1 151 17 1 100 100;
#X restore 278 56 pd ARGO;
#N canvas 312 168 278 274 ARGO 0;
#X obj 101 101 cnv 10 149 15 empty ColorForm Oscill-Sinus. 65 9 1 14
-208064 -1 1.04858e+06;
#X obj 101 112 cnv 4 10 4 empty empty empty 20 12 0 14 -1 -66577 0
;
#X obj 100 100 nbx 6 12 0 999999 0 1 \$0-A ColorTime ms 53 7 1 9 -208064
-1 -1 22000 256;
#X obj 113 231 outlet~;
#X obj 100 125 t b f;
#X obj 113 175 /;
#X obj 65 59 cnv 15 60 30 empty empty empty 20 12 0 14 -24198 -66577
0;
#N canvas 161 113 425 238 Help 0;
#X obj 10 91 cnv 15 400 100 empty empty empty 20 12 0 14 -233017 -66577
0;
#X text 14 93 Citation;
#X text 12 12 Oscillateur sinusoïdal;
#X text 24 112 The osc~ object outputs a cosine wave. If no argument
is supplied \, the input is taken to be an audio signal.;
#X text 14 27 freq(Hz) = 1 / Periode (sec);
#X text 13 45 freq(Hz) = 1000 / Periode (ms);
#X restore 72 65 pd Help;
#X obj 113 199 osc~ 1000;
#X msg 100 151 1000;
#X obj 187 222 cnv 15 52 22 empty empty empty 20 12 0 14 -24198 -66577
0;
#N canvas 353 174 321 152 ?... 0;
#X obj 8 84 cnv 15 300 56 empty empty empty 20 12 0 14 -224896 -66577
0;
#X obj 8 7 cnv 18 300 70 empty empty ARGOPdMiniModules 3 10 1 14 -4033
-1 1.04858e+06;
#X obj 31 27 cnv 10 10 10 empty empty Gerard 0 5 1 11 -4033 -1 1.04858e+06
;
#X obj 69 27 cnv 10 10 10 empty empty Paresys 0 5 1 11 -4033 -1 1.04858e+06
;
#X obj 12 40 pddp/pddplink http://gerard.paresys.free.fr/ARGOPd/;
#X obj 13 121 pddp/pddplink http://puredata.info/downloads/pd-extended
;
#X obj 13 97 pddp/pddplink http://puredata.info/downloads/pure-data
;
#X text 13 85 Construit sous / Build under Pd-0.49...;
#X text 12 109 or Pd 0.43.4-extended;
#X obj 12 53 pddp/pddplink https://paresys.pagesperso-orange.fr/ARGOPd/
;
#X restore 190 225 pd ?...;
#X text 178 82 29 8 2019;
#X connect 2 0 4 0;
#X connect 4 0 9 0;
#X connect 4 1 5 1;
#X connect 5 0 8 0;
#X connect 8 0 3 0;
#X connect 9 0 5 0;
#X coords 0 -1 1 1 151 17 1 100 100;
#X restore 402 81 pd ARGO;
#N canvas 312 168 278 274 ARGO 0;
#X obj 101 101 cnv 10 149 15 empty ColorForm Oscill-Sinus. 65 9 1 14
-208064 -1 1.04858e+06;
#X obj 101 112 cnv 4 10 4 empty empty empty 20 12 0 14 -1 -66577 0
;
#X obj 100 100 nbx 6 12 0 999999 0 1 \$0-A ColorTime ms 53 7 1 9 -208064
-1 -1 19000 256;
#X obj 113 231 outlet~;
#X obj 100 125 t b f;
#X obj 113 175 /;
#X obj 65 59 cnv 15 60 30 empty empty empty 20 12 0 14 -24198 -66577
0;
#N canvas 161 113 425 238 Help 0;
#X obj 10 91 cnv 15 400 100 empty empty empty 20 12 0 14 -233017 -66577
0;
#X text 14 93 Citation;
#X text 12 12 Oscillateur sinusoïdal;
#X text 24 112 The osc~ object outputs a cosine wave. If no argument
is supplied \, the input is taken to be an audio signal.;
#X text 14 27 freq(Hz) = 1 / Periode (sec);
#X text 13 45 freq(Hz) = 1000 / Periode (ms);
#X restore 72 65 pd Help;
#X obj 113 199 osc~ 1000;
#X msg 100 151 1000;
#X obj 187 222 cnv 15 52 22 empty empty empty 20 12 0 14 -24198 -66577
0;
#N canvas 353 174 321 152 ?... 0;
#X obj 8 84 cnv 15 300 56 empty empty empty 20 12 0 14 -224896 -66577
0;
#X obj 8 7 cnv 18 300 70 empty empty ARGOPdMiniModules 3 10 1 14 -4033
-1 1.04858e+06;
#X obj 31 27 cnv 10 10 10 empty empty Gerard 0 5 1 11 -4033 -1 1.04858e+06
;
#X obj 69 27 cnv 10 10 10 empty empty Paresys 0 5 1 11 -4033 -1 1.04858e+06
;
#X obj 12 40 pddp/pddplink http://gerard.paresys.free.fr/ARGOPd/;
#X obj 13 121 pddp/pddplink http://puredata.info/downloads/pd-extended
;
#X obj 13 97 pddp/pddplink http://puredata.info/downloads/pure-data
;
#X text 13 85 Construit sous / Build under Pd-0.49...;
#X text 12 109 or Pd 0.43.4-extended;
#X obj 12 53 pddp/pddplink https://paresys.pagesperso-orange.fr/ARGOPd/
;
#X restore 190 225 pd ?...;
#X text 178 82 29 8 2019;
#X connect 2 0 4 0;
#X connect 4 0 9 0;
#X connect 4 1 5 1;
#X connect 5 0 8 0;
#X connect 8 0 3 0;
#X connect 9 0 5 0;
#X coords 0 -1 1 1 151 17 1 100 100;
#X restore 557 32 pd ARGO;
#N canvas 312 168 278 274 ARGO 0;
#X obj 101 101 cnv 10 149 15 empty ColorForm Oscill-Sinus. 65 9 1 14
-208064 -1 1.04858e+06;
#X obj 101 112 cnv 4 10 4 empty empty empty 20 12 0 14 -1 -66577 0
;
#X obj 100 100 nbx 6 12 0 999999 0 1 \$0-A ColorTime ms 53 7 1 9 -208064
-1 -1 22000 256;
#X obj 113 231 outlet~;
#X obj 100 125 t b f;
#X obj 113 175 /;
#X obj 65 59 cnv 15 60 30 empty empty empty 20 12 0 14 -24198 -66577
0;
#N canvas 161 113 425 238 Help 0;
#X obj 10 91 cnv 15 400 100 empty empty empty 20 12 0 14 -233017 -66577
0;
#X text 14 93 Citation;
#X text 12 12 Oscillateur sinusoïdal;
#X text 24 112 The osc~ object outputs a cosine wave. If no argument
is supplied \, the input is taken to be an audio signal.;
#X text 14 27 freq(Hz) = 1 / Periode (sec);
#X text 13 45 freq(Hz) = 1000 / Periode (ms);
#X restore 72 65 pd Help;
#X obj 113 199 osc~ 1000;
#X msg 100 151 1000;
#X obj 187 222 cnv 15 52 22 empty empty empty 20 12 0 14 -24198 -66577
0;
#N canvas 353 174 321 152 ?... 0;
#X obj 8 84 cnv 15 300 56 empty empty empty 20 12 0 14 -224896 -66577
0;
#X obj 8 7 cnv 18 300 70 empty empty ARGOPdMiniModules 3 10 1 14 -4033
-1 1.04858e+06;
#X obj 31 27 cnv 10 10 10 empty empty Gerard 0 5 1 11 -4033 -1 1.04858e+06
;
#X obj 69 27 cnv 10 10 10 empty empty Paresys 0 5 1 11 -4033 -1 1.04858e+06
;
#X obj 12 40 pddp/pddplink http://gerard.paresys.free.fr/ARGOPd/;
#X obj 13 121 pddp/pddplink http://puredata.info/downloads/pd-extended
;
#X obj 13 97 pddp/pddplink http://puredata.info/downloads/pure-data
;
#X text 13 85 Construit sous / Build under Pd-0.49...;
#X text 12 109 or Pd 0.43.4-extended;
#X obj 12 53 pddp/pddplink https://paresys.pagesperso-orange.fr/ARGOPd/
;
#X restore 190 225 pd ?...;
#X text 178 82 29 8 2019;
#X connect 2 0 4 0;
#X connect 4 0 9 0;
#X connect 4 1 5 1;
#X connect 5 0 8 0;
#X connect 8 0 3 0;
#X connect 9 0 5 0;
#X coords 0 -1 1 1 151 17 1 100 100;
#X restore 680 56 pd ARGO;
#N canvas 312 168 278 274 ARGO 0;
#X obj 101 101 cnv 10 149 15 empty ColorForm Oscill-Sinus. 65 9 1 14
-208064 -1 1.04858e+06;
#X obj 101 112 cnv 4 10 4 empty empty empty 20 12 0 14 -1 -66577 0
;
#X obj 100 100 nbx 6 12 0 999999 0 1 \$0-A ColorTime ms 53 7 1 9 -208064
-1 -1 21000 256;
#X obj 113 231 outlet~;
#X obj 100 125 t b f;
#X obj 113 175 /;
#X obj 65 59 cnv 15 60 30 empty empty empty 20 12 0 14 -24198 -66577
0;
#N canvas 161 113 425 238 Help 0;
#X obj 10 91 cnv 15 400 100 empty empty empty 20 12 0 14 -233017 -66577
0;
#X text 14 93 Citation;
#X text 12 12 Oscillateur sinusoïdal;
#X text 24 112 The osc~ object outputs a cosine wave. If no argument
is supplied \, the input is taken to be an audio signal.;
#X text 14 27 freq(Hz) = 1 / Periode (sec);
#X text 13 45 freq(Hz) = 1000 / Periode (ms);
#X restore 72 65 pd Help;
#X obj 113 199 osc~ 1000;
#X msg 100 151 1000;
#X obj 187 222 cnv 15 52 22 empty empty empty 20 12 0 14 -24198 -66577
0;
#N canvas 353 174 321 152 ?... 0;
#X obj 8 84 cnv 15 300 56 empty empty empty 20 12 0 14 -224896 -66577
0;
#X obj 8 7 cnv 18 300 70 empty empty ARGOPdMiniModules 3 10 1 14 -4033
-1 1.04858e+06;
#X obj 31 27 cnv 10 10 10 empty empty Gerard 0 5 1 11 -4033 -1 1.04858e+06
;
#X obj 69 27 cnv 10 10 10 empty empty Paresys 0 5 1 11 -4033 -1 1.04858e+06
;
#X obj 12 40 pddp/pddplink http://gerard.paresys.free.fr/ARGOPd/;
#X obj 13 121 pddp/pddplink http://puredata.info/downloads/pd-extended
;
#X obj 13 97 pddp/pddplink http://puredata.info/downloads/pure-data
;
#X text 13 85 Construit sous / Build under Pd-0.49...;
#X text 12 109 or Pd 0.43.4-extended;
#X obj 12 53 pddp/pddplink https://paresys.pagesperso-orange.fr/ARGOPd/
;
#X restore 190 225 pd ?...;
#X text 178 82 29 8 2019;
#X connect 2 0 4 0;
#X connect 4 0 9 0;
#X connect 4 1 5 1;
#X connect 5 0 8 0;
#X connect 8 0 3 0;
#X connect 9 0 5 0;
#X coords 0 -1 1 1 151 17 1 100 100;
#X restore 804 81 pd ARGO;
#N canvas 632 394 787 373 ARGO 0;
#X obj 372 95 rfft~;
#X msg 132 69 slide 10 10;
#X obj 372 27 inlet~;
#X msg 112 99 slide 1 1;
#X obj 213 69 *~ 0.361;
#X obj 201 201 cnv 12 198 34 empty empty empty 20 12 0 14 -262144 -1
1.04858e+06;
#X obj 201 201 cnv 4 10 4 empty empty empty 20 12 0 14 -1 -66577 0
;
#X obj 113 45 sel 0 1;
#X msg 37 209 frgb 255 0 0;
#X msg 36 233 brgb 255 255 255;
#X obj 64 155 cnv 15 60 30 empty empty empty 20 12 0 14 -24198 -66577
0;
#N canvas 686 130 433 175 Help 0;
#X text 19 82 Doc Pd-extended -> /cyclone/examples/pink-test.pd;
#X text 130 96 /cyclone/Scope~-help.pd;
#X obj 38 115 pddp/pddplink http://cycling74.com/docs/max5/refpages/msp-ref/scope~.html
;
#X text 21 116 cf;
#X text 19 21 Spectrum;
#X text 18 42 With scope~ object of cyclone library;
#X text 18 62 Avec l'objet scope~ de la library cyclone;
#X restore 71 161 pd Help;
#X msg 38 258 range 0 256;
#X obj 200 216 vsl 12 131 0.01 100 1 1 \$0-A \$0-B empty 0 -9 0 10
-262144 -1 -1 6000 0;
#X obj 372 69 *~;
#X msg 22 99 slide 100 100;
#X obj 213 27 cyclone/count~ 0 1024 1 1;
#X obj 213 144 cyclone/vectral~ 1024;
#X obj 213 214 cyclone/scope~ 514 135 4 3 256 0 256 0 0 0 0 255 0 0
255 255 255 0 98 102 0 empty;
#X obj 372 122 cyclone/cartopol~;
#X obj 219 201 tgl 12 1 \$0-A \$0-B On 15 7 1 9 -262144 -1 -1 1 1;
#X obj 334 201 tgl 12 1 \$0-SendLoop \$0-ReceiveLoop Gliss 15 6 1 9
-262144 -1 -1 0 1;
#X obj 626 93 cnv 15 100 70 empty empty empty 20 12 0 14 -24198 -66577
0;
#X text 649 95 library:;
#X text 630 106 pddp;
#X text 630 119 cyclone;
#X msg 40 281 4 \, bufsize 256;
#X obj 95 335 switch~ 1024 1 1;
#X obj 737 334 cnv 15 34 16 empty empty empty 20 12 0 14 -24198 -66577
0;
#N canvas 353 174 333 161 ?? 0;
#X obj 17 89 cnv 15 300 56 empty empty empty 20 12 0 14 -224896 -66577
0;
#X obj 17 12 cnv 18 300 70 empty empty ARGOPdMiniModules 3 10 1 14
-4033 -1 1.04858e+06;
#X obj 40 32 cnv 10 10 10 empty empty Gerard 0 5 1 11 -4033 -1 1.04858e+06
;
#X obj 78 32 cnv 10 10 10 empty empty Paresys 0 5 1 11 -4033 -1 1.04858e+06
;
#X obj 20 54 pddp/pddplink http://gerard.paresys.free.fr/ARGOPd/;
#X obj 22 126 pddp/pddplink http://puredata.info/downloads/pd-extended
;
#X obj 22 102 pddp/pddplink http://puredata.info/downloads/pure-data
;
#X text 22 90 Construit sous / Build under Pd-0.49...;
#X text 21 114 or Pd 0.43.4-extended;
#X obj 20 66 pddp/pddplink https://paresys.pagesperso-orange.fr/ARGOPd/
;
#X obj 20 42 pddp/pddplink https://github.com/gerardparesys/ARGOPd
;
#X restore 737 334 pd ??;
#X obj 563 27 loadbang;
#X obj 566 200 hsl 160 18 0 127 0 0 \$0-A \$0-B Spectrum(2000Hz/div).
-2 9 1 14 -262144 -262144 -1 0 1;
#X obj 523 89 bang;
#X obj 625 27 r pd-dsp-started;
#X text 675 184 2 5 2021;
#N canvas 735 342 333 296 label 0;
#X obj 68 93 samplerate~;
#X msg 68 186 label \$1;
#X obj 68 165 cyclone/tosymbol;
#X obj 68 141 cyclone/sprintf Spectrum(%sHz/div).;
#X obj 68 68 inlet;
#X obj 68 215 outlet;
#X obj 68 118 expr int(2000 * $f1 / 44100);
#X connect 0 0 6 0;
#X connect 1 0 5 0;
#X connect 2 0 1 0;
#X connect 3 0 2 0;
#X connect 4 0 0 0;
#X connect 6 0 3 0;
#X restore 563 127 pd label;
#X connect 0 0 19 0;
#X connect 0 1 19 1;
#X connect 1 0 17 0;
#X connect 2 0 14 0;
#X connect 3 0 17 0;
#X connect 4 0 17 0;
#X connect 7 0 3 0;
#X connect 7 1 1 0;
#X connect 8 0 18 0;
#X connect 9 0 18 0;
#X connect 12 0 18 0;
#X connect 13 0 14 1;
#X connect 14 0 0 0;
#X connect 15 0 17 0;
#X connect 16 0 4 0;
#X connect 16 0 17 1;
#X connect 17 0 18 0;
#X connect 19 0 17 2;
#X connect 20 0 27 0;
#X connect 20 0 32 0;
#X connect 21 0 7 0;
#X connect 26 0 18 0;
#X connect 30 0 35 0;
#X connect 32 0 35 0;
#X connect 33 0 35 0;
#X connect 35 0 31 0;
#X coords 0 -1 1 1 528 150 2 200 200;
#X restore 398 259 pd ARGO;
#X obj 887 527 cnv 15 34 16 empty empty empty 20 12 0 14 -24198 -66577
0;
#N canvas 353 174 333 161 ?? 0;
#X obj 17 89 cnv 15 300 56 empty empty empty 20 12 0 14 -224896 -66577
0;
#X obj 17 12 cnv 18 300 70 empty empty ARGOPdMiniModules 3 10 1 14
-4033 -1 1.04858e+06;
#X obj 40 32 cnv 10 10 10 empty empty Gerard 0 5 1 11 -4033 -1 1.04858e+06
;
#X obj 78 32 cnv 10 10 10 empty empty Paresys 0 5 1 11 -4033 -1 1.04858e+06
;
#X obj 20 54 pddp/pddplink http://gerard.paresys.free.fr/ARGOPd/;
#X obj 22 126 pddp/pddplink http://puredata.info/downloads/pd-extended
;
#X obj 22 102 pddp/pddplink http://puredata.info/downloads/pure-data
;
#X text 22 90 Construit sous / Build under Pd-0.49...;
#X text 21 114 or Pd 0.43.4-extended;
#X obj 20 66 pddp/pddplink https://paresys.pagesperso-orange.fr/ARGOPd/
;
#X obj 20 42 pddp/pddplink https://github.com/gerardparesys/ARGOPd
;
#X restore 887 527 pd ??;
#X connect 5 0 20 0;
#X connect 5 1 20 1;
#X connect 15 0 14 0;
#X connect 20 0 6 0;
#X connect 20 0 21 0;
#X connect 20 0 22 0;
#X connect 20 1 6 1;
#X connect 20 1 21 1;
#X connect 20 1 22 1;
#X connect 23 0 5 0;
#X connect 23 1 5 1;
#X connect 28 2 23 1;
#X connect 28 2 42 0;
#X connect 29 2 23 2;
#X connect 29 2 42 0;
#X connect 30 0 28 0;
#X connect 31 0 28 1;
#X connect 32 0 28 2;
#X connect 33 0 29 0;
#X connect 34 0 29 1;
#X connect 35 0 29 2;
#X connect 36 0 30 0;
#X connect 37 0 31 0;
#X connect 38 0 32 0;
#X connect 39 0 33 0;
#X connect 40 0 34 0;
#X connect 41 0 35 0;
