#N canvas 370 49 764 518 10;
#X obj 64 482 dac~ 1 2;
#X obj 7 7 cnv 15 15 15 empty empty ExMM170a-Oscill-Moorer.pd 0 8 1
14 -262144 -66577 0;
#X obj 25 100 switch~;
#N canvas 608 166 228 173 ARGOnOff 0;
#X obj 100 100 tgl 18 1 \$0-SendOnOff \$0-ReceiveOnOff On/Off 20 11
1 14 -4033 -1 -1 1 1;
#X obj 99 10 loadbang;
#X msg 99 33 \; pd dsp 1;
#X obj 100 129 outlet;
#X text -50 99 Audio On/Off du patch ->;
#X text -22 45 Audio General On ->;
#X text 107 82 17 3 2010;
#X connect 0 0 3 0;
#X connect 1 0 2 0;
#X coords 0 -1 1 1 65 18 2 100 100;
#X restore 25 82 pd ARGOnOff;
#X text 30 66 V;
#X text 30 59 |;
#X text 18 48 On/Off Patch;
#X text 4 258 Niveau general ->;
#X text 10 269 General level ->;
#X text 122 128 Fréquence ->;
#X text 122 138 Frequency ->;
#X text 193 150 Ramp;
#X text 425 155 Moorer;
#X text 434 165 DSF;
#X text 303 151 Sinus;
#X text 453 78 Based on Andy Farnell's work.;
#X text 454 64 MM Oscill-Moorer;
#X text 453 106 Code examples for Designing Sound textbook;
#X text 462 119 -> Chapter 17: Technique 1 - Additive/Summation;
#X text 481 132 -> DSF Moorer;
#N canvas 175 68 374 396 ARGO 0;
#X obj 101 101 cnv 20 116 34 empty ColorAmpli empty 20 12 0 14 -261299
-1 1.04858e+06;
#X obj 85 353 outlet~;
#X obj 157 104 cnv 10 20 10 empty ColorAmpli Ampli. 1 5 1 14 -261299
-1 1.04858e+06;
#X obj 85 43 inlet~;
#X obj 85 330 *~;
#X obj 115 118 hsl 101 12 -80 20 0 1 \$0-A ColorAmpli -20dB 0 7 1 9
-261299 -1 -1 6000 0;
#X obj 101 101 cnv 4 10 4 empty empty empty 20 12 0 14 -1 -66577 0
;
#X obj 101 131 cnv 4 10 4 empty empty empty 20 12 0 14 -1 -66577 0
;
#X msg -42 139 label \$1;
#X text 148 194 -> 0.0001..10 = -80dB..20dB;
#X obj 142 175 expr (pow(10 \, $f1 / 20));
#X obj 142 215 sel 0.0001;
#X msg 100 244 0;
#X obj 100 118 tgl 12 1 \$0-A \$0-B Mute 2 -5 1 9 -261299 -1 -1 0 1
;
#X obj 99 146 select 0 1;
#X obj 140 295 line~;
#X obj 140 275 pack 0 10;
#X msg 123 74 set 0;
#X obj -42 93 cyclone/sprintf %ddB;
#X obj -42 116 cyclone/tosymbol;
#X obj 261 342 cnv 15 42 25 empty empty empty 20 12 0 14 -24198 -66577
0;
#N canvas 336 174 309 137 ?. 0;
#X obj 3 83 cnv 15 300 46 empty empty empty 20 12 0 14 -224896 -66577
0;
#X obj 3 6 cnv 18 300 70 empty empty ARGOPdMiniModules 3 10 1 14 -4033
-1 1.04858e+06;
#X obj 26 26 cnv 10 10 10 empty empty Gerard 0 5 1 11 -4033 -1 1.04858e+06
;
#X obj 64 26 cnv 10 10 10 empty empty Paresys 0 5 1 11 -4033 -1 1.04858e+06
;
#X obj 7 37 pddp/pddplink http://gerard.paresys.free.fr/ARGOPd/;
#X text 8 85 Construit sous / Build under Pd 0.43.4-extended;
#X obj 8 111 pddp/pddplink http://puredata.info/downloads/pd-extended
;
#X obj 7 50 pddp/pddplink http://paresys.pagesperso-orange.fr/ARGOPd/
;
#X text 7 98 or Pd-0.46-7 + deken;
#X restore 265 346 pd ?.;
#X text 228 110 17 3 2016;
#X connect 3 0 4 0;
#X connect 4 0 1 0;
#X connect 5 0 10 0;
#X connect 5 0 18 0;
#X connect 8 0 5 0;
#X connect 10 0 11 0;
#X connect 11 0 12 0;
#X connect 11 1 16 0;
#X connect 11 1 17 0;
#X connect 12 0 16 0;
#X connect 12 0 19 0;
#X connect 13 0 14 0;
#X connect 14 0 5 0;
#X connect 14 1 12 0;
#X connect 15 0 4 1;
#X connect 16 0 15 0;
#X connect 17 0 13 0;
#X connect 18 0 19 0;
#X connect 19 0 8 0;
#X coords 0 -1 1 1 118 36 1 100 100;
#X restore 110 247 pd ARGO;
#N canvas 175 68 374 396 ARGO 0;
#X obj 101 101 cnv 20 116 34 empty ColorAmpli empty 20 12 0 14 -261299
-1 1.04858e+06;
#X obj 85 353 outlet~;
#X obj 157 104 cnv 10 20 10 empty ColorAmpli Ampli. 1 5 1 14 -261299
-1 1.04858e+06;
#X obj 85 43 inlet~;
#X obj 85 330 *~;
#X obj 115 118 hsl 101 12 -80 20 0 1 \$0-A ColorAmpli 0dB 0 7 1 9 -261299
-1 -1 8000 0;
#X obj 101 101 cnv 4 10 4 empty empty empty 20 12 0 14 -1 -66577 0
;
#X obj 101 131 cnv 4 10 4 empty empty empty 20 12 0 14 -1 -66577 0
;
#X msg -42 139 label \$1;
#X text 148 194 -> 0.0001..10 = -80dB..20dB;
#X obj 142 175 expr (pow(10 \, $f1 / 20));
#X obj 142 215 sel 0.0001;
#X msg 100 244 0;
#X obj 100 118 tgl 12 1 \$0-A \$0-B Mute 2 -5 1 9 -261299 -1 -1 0 1
;
#X obj 99 146 select 0 1;
#X obj 140 295 line~;
#X obj 140 275 pack 0 10;
#X msg 123 74 set 0;
#X obj -42 93 cyclone/sprintf %ddB;
#X obj -42 116 cyclone/tosymbol;
#X obj 261 342 cnv 15 42 25 empty empty empty 20 12 0 14 -24198 -66577
0;
#N canvas 336 174 309 137 ?. 0;
#X obj 3 83 cnv 15 300 46 empty empty empty 20 12 0 14 -224896 -66577
0;
#X obj 3 6 cnv 18 300 70 empty empty ARGOPdMiniModules 3 10 1 14 -4033
-1 1.04858e+06;
#X obj 26 26 cnv 10 10 10 empty empty Gerard 0 5 1 11 -4033 -1 1.04858e+06
;
#X obj 64 26 cnv 10 10 10 empty empty Paresys 0 5 1 11 -4033 -1 1.04858e+06
;
#X obj 7 37 pddp/pddplink http://gerard.paresys.free.fr/ARGOPd/;
#X text 8 85 Construit sous / Build under Pd 0.43.4-extended;
#X obj 8 111 pddp/pddplink http://puredata.info/downloads/pd-extended
;
#X obj 7 50 pddp/pddplink http://paresys.pagesperso-orange.fr/ARGOPd/
;
#X text 7 98 or Pd-0.46-7 + deken;
#X restore 265 346 pd ?.;
#X text 228 110 17 3 2016;
#X connect 3 0 4 0;
#X connect 4 0 1 0;
#X connect 5 0 10 0;
#X connect 5 0 18 0;
#X connect 8 0 5 0;
#X connect 10 0 11 0;
#X connect 11 0 12 0;
#X connect 11 1 16 0;
#X connect 11 1 17 0;
#X connect 12 0 16 0;
#X connect 12 0 19 0;
#X connect 13 0 14 0;
#X connect 14 0 5 0;
#X connect 14 1 12 0;
#X connect 15 0 4 1;
#X connect 16 0 15 0;
#X connect 17 0 13 0;
#X connect 18 0 19 0;
#X connect 19 0 8 0;
#X coords 0 -1 1 1 118 36 1 100 100;
#X restore 320 60 pd ARGO;
#N canvas 432 42 236 269 ARGO 0;
#X obj 101 104 cnv 30 37 130 empty ColorAmpli empty 20 12 0 14 -1 -258113
0;
#X obj 101 110 vu 8 120 \$0-B empty 0 0 1 11 -1 -4034 1 0;
#X obj 74 34 inlet~;
#X obj 10 33 cnv 15 60 30 empty empty empty 20 12 0 14 -24198 -66577
0;
#N canvas 300 65 442 264 Help 0;
#X obj 12 48 cnv 15 400 150 empty empty empty 20 12 0 14 -233017 -66577
0;
#X text 16 50 Citation;
#X text 28 67 peakamp~ tracks and outputs the absolute value of the
peak amplitude of the incoming signal. It outputs when banged or using
its own internal clock. The peak value is reset each time peakamp~
outputs a value.;
#X text 29 123 cyclone library;
#X text 28 135 http://suita.chopin.edu.pl/~czaja/miXed/externs/cyclone.html
;
#X text 29 155 Voir doc Max/MSP MSP46ReferenceManual.pdf;
#X text 18 14 MM-Vumetre;
#X restore 17 39 pd Help;
#N canvas 541 112 317 265 VuMetre 0;
#X obj 48 19 inlet~;
#X obj 41 54 *~;
#X obj -25 132 snapshot~;
#X obj -25 155 sqrt;
#X obj -25 100 lop~ 10;
#X obj -25 179 rmstodb;
#X obj -88 19 loadbang;
#X obj -25 202 - 100;
#X obj 58 156 sqrt;
#X obj 58 180 rmstodb;
#X obj 58 203 - 100;
#X obj -89 102 metro 200;
#X obj -28 19 r SendFluid;
#X obj 58 102 cyclone/peakamp~ 1000;
#X obj -25 228 outlet;
#X obj 58 227 outlet;
#X connect 0 0 1 0;
#X connect 0 0 1 1;
#X connect 1 0 4 0;
#X connect 1 0 13 0;
#X connect 2 0 3 0;
#X connect 3 0 5 0;
#X connect 4 0 2 0;
#X connect 5 0 7 0;
#X connect 6 0 11 0;
#X connect 7 0 14 0;
#X connect 8 0 9 0;
#X connect 9 0 10 0;
#X connect 10 0 15 0;
#X connect 11 0 2 0;
#X connect 12 0 11 1;
#X connect 13 0 8 0;
#X restore 74 59 pd VuMetre;
#X obj 172 211 cnv 15 42 25 empty empty empty 20 12 0 14 -24198 -66577
0;
#N canvas 336 174 309 137 ?. 0;
#X obj 3 83 cnv 15 300 46 empty empty empty 20 12 0 14 -224896 -66577
0;
#X obj 3 6 cnv 18 300 70 empty empty ARGOPdMiniModules 3 10 1 14 -4033
-1 1.04858e+06;
#X obj 26 26 cnv 10 10 10 empty empty Gerard 0 5 1 11 -4033 -1 1.04858e+06
;
#X obj 64 26 cnv 10 10 10 empty empty Paresys 0 5 1 11 -4033 -1 1.04858e+06
;
#X obj 7 37 pddp/pddplink http://gerard.paresys.free.fr/ARGOPd/;
#X text 8 85 Construit sous / Build under Pd 0.43.4-extended;
#X obj 8 111 pddp/pddplink http://puredata.info/downloads/pd-extended
;
#X obj 7 50 pddp/pddplink http://paresys.pagesperso-orange.fr/ARGOPd/
;
#X text 7 98 or Pd-0.46-7 + deken;
#X restore 176 215 pd ?.;
#X text 127 87 3 3 2019;
#X connect 2 0 5 0;
#X connect 5 0 1 0;
#X connect 5 1 1 1;
#X coords 0 -1 1 1 39 135 2 100 100;
#X restore 122 368 pd ARGO;
#N canvas 540 85 479 446 ARGO 0;
#X obj 101 101 cnv 20 244 46 empty ColorTime Oscill 30 9 1 14 -208064
-1 1.04858e+06;
#X obj 194 399 outlet~;
#X obj 101 143 cnv 4 10 4 empty empty empty 20 12 0 14 -1 -66577 0
;
#X obj 101 101 cnv 4 10 4 empty empty empty 20 12 0 14 -1728 -66577
0;
#X obj 324 399 outlet~;
#X obj 335 143 cnv 4 10 4 empty empty empty 0 0 0 9 -1 -66577 0;
#X obj 216 143 cnv 4 10 4 empty empty empty 0 0 0 9 -1 -66577 0;
#X obj 100 118 nbx 7 12 0 20000 0 1 \$0-A ColorTime Hz 60 7 1 9 -208064
-1 -1 100 256;
#X obj 87 41 inlet~;
#X obj 103 130 hsl 241 12 0 1 0 0 \$0-A ColorTime empty 0 7 1 9 -262144
-1 -1 15135 0;
#X obj 103 130 hsl 241 12 0 1 0 0 \$0-A ColorTime G1 0 7 1 9 -208064
-1728 -1 15135 0;
#X obj 392 56 cnv 15 60 30 empty empty empty 20 12 0 14 -24198 -66577
0;
#N canvas 392 239 376 247 Help 0;
#X text 21 182 Sensibilitée de l'entrée de contrôle de la fréquence:
;
#X text 21 194 1 = 240 1/2 ton = 20 octaves;
#X text 21 28 Based on Andy Farnell's work.;
#X text 22 14 MM Oscill-Moorer;
#X text 20 72 Code examples for Designing Sound textbook;
#X text 38 85 -> Chapter 17: Technique 1 - Additive/Summation;
#X text 67 98 -> DSF Moorer;
#X text 20 146 DSF = Discrete Summation Formula;
#X obj 21 43 pddp/pddplink http://obiwannabe.co.uk;
#X obj 20 57 pddp/pddplink http://aspress.co.uk/sd/chapter17.html;
#X obj 24 112 pddp/pddplink http://en.wikipedia.org/wiki/Distortion_synthesis
;
#X obj 24 124 pddp/pddplink http://www.jamminpower.com/PDF/Sine%20Summation.pdf
;
#X restore 399 62 pd Help;
#X text 349 130 2 HSLIDER superposés;
#X text 373 119 ATTENTION;
#N canvas 686 258 360 332 Freq-v7-sig- 0;
#X obj 231 57 ftom;
#X obj 284 216 mtof;
#X obj 146 141 +~;
#X obj 14 188 snapshot~;
#X obj 14 210 change;
#X msg 14 235 set \$1;
#X obj 147 244 clip~ 0 20000;
#X obj 147 221 mtof~;
#X obj 147 273 outlet~;
#X obj 285 34 inlet;
#X obj 230 33 inlet;
#X obj 43 273 outlet;
#X obj 284 273 outlet;
#X text 40 291 Hslider;
#X obj 146 38 inlet~;
#X obj 13 37 loadbang;
#X obj 234 273 outlet;
#X obj 284 155 * 240;
#X obj 284 178 - 108;
#X obj 146 169 *~ 240;
#X obj 146 191 -~ 108;
#X obj 231 80 + 108;
#X obj 231 102 / 240;
#X obj 14 86 metro 200;
#X obj 69 37 r SendFluid;
#X text 49 302 Over;
#X text 286 291 Number;
#X text 227 16 Number;
#X text 233 290 Hslider;
#X text 235 301 Under;
#X text 286 4 Hslider;
#X text 291 15 Under;
#X msg 234 243 set \$1;
#N canvas 618 373 489 317 pitchb 0;
#X obj 70 111 mod 12;
#X obj 70 135 sel 0 1 2 3 4 5 6 7 8 9 10 11;
#X msg 246 170 A;
#X msg 300 170 B;
#X msg 192 170 G;
#X msg 3 170 C;
#X msg 57 170 D;
#X msg 111 170 E;
#X msg 138 170 F;
#X obj 204 1 inlet;
#X obj 329 115 div 12;
#X obj 204 79 t f f;
#X text 334 190 -> Numero de l'octave;
#X text 213 64 -> Numero MIDI de la note (69 = A3 = 440Hz);
#X msg 260 260 label \$1;
#X obj 260 283 outlet;
#X msg 30 170 Db;
#X msg 84 170 Eb;
#X msg 165 170 Gb;
#X msg 219 170 Ab;
#X msg 273 170 Bb;
#X text 369 78 (70 = A#3 = Bb3);
#X obj 260 238 symbol;
#X text 11 231 Impossible d'afficher # dans un label;
#X text 11 243 donc j'affiche b;
#X obj 204 51 int;
#X text 255 23 -> pour corriger certaines erreurs de calcul;
#X obj 204 25 + 120.1;
#X obj 329 144 - 12;
#X text 255 35 et le pb du passage a zero de mod 12;
#X obj 260 213 cyclone/sprintf %s%d;
#X connect 0 0 1 0;
#X connect 1 0 5 0;
#X connect 1 1 16 0;
#X connect 1 2 6 0;
#X connect 1 3 17 0;
#X connect 1 4 7 0;
#X connect 1 5 8 0;
#X connect 1 6 18 0;
#X connect 1 7 4 0;
#X connect 1 8 19 0;
#X connect 1 9 2 0;
#X connect 1 10 20 0;
#X connect 1 11 3 0;
#X connect 2 0 30 0;
#X connect 3 0 30 0;
#X connect 4 0 30 0;
#X connect 5 0 30 0;
#X connect 6 0 30 0;
#X connect 7 0 30 0;
#X connect 8 0 30 0;
#X connect 9 0 27 0;
#X connect 10 0 28 0;
#X connect 11 0 0 0;
#X connect 11 1 10 0;
#X connect 14 0 15 0;
#X connect 16 0 30 0;
#X connect 17 0 30 0;
#X connect 18 0 30 0;
#X connect 19 0 30 0;
#X connect 20 0 30 0;
#X connect 22 0 14 0;
#X connect 25 0 11 0;
#X connect 27 0 25 0;
#X connect 28 0 30 1;
#X connect 30 0 22 0;
#X restore 82 142 pd pitchb;
#X connect 0 0 21 0;
#X connect 0 0 33 0;
#X connect 1 0 12 0;
#X connect 2 0 3 0;
#X connect 2 0 19 0;
#X connect 3 0 4 0;
#X connect 4 0 5 0;
#X connect 5 0 11 0;
#X connect 6 0 8 0;
#X connect 7 0 6 0;
#X connect 9 0 17 0;
#X connect 10 0 0 0;
#X connect 14 0 2 0;
#X connect 15 0 23 0;
#X connect 17 0 18 0;
#X connect 18 0 1 0;
#X connect 19 0 20 0;
#X connect 20 0 7 0;
#X connect 21 0 22 0;
#X connect 22 0 2 1;
#X connect 22 0 32 0;
#X connect 23 0 3 0;
#X connect 24 0 23 1;
#X connect 32 0 16 0;
#X connect 33 0 11 0;
#X restore 27 70 pd Freq-v7-sig-;
#X obj 94 399 outlet~;
#X obj 335 101 cnv 4 10 4 empty empty empty 20 12 0 14 -3522 -66577
0;
#X obj 177 118 hsl 81 12 -1 1 0 1 \$0-A ColorForm 86 0 7 1 9 -262144
-1 -1 3200 0;
#X obj 201 41 inlet~;
#X obj 177 118 hsl 81 12 -1 1 0 1 \$0-A ColorForm 40 0 7 1 9 -188398
-3522 -1 4999 0;
#N canvas 795 278 262 317 Modul~ 0;
#X msg 192 236 set \$1;
#X obj 15 73 +~;
#X obj 121 278 outlet;
#X obj 193 122 snapshot~;
#X obj 193 216 change;
#X obj 83 31 inlet;
#X obj 15 31 inlet~;
#X obj 15 277 outlet~;
#X msg 83 239 label \$1;
#X obj 123 31 loadbang;
#X obj 123 73 metro 200;
#X obj 180 31 r SendFluid;
#X obj 83 122 + 1;
#X text 79 13 -1..+1;
#X obj 83 178 int;
#X obj 83 147 * 50;
#X text 87 196 <- 0..100;
#X obj 15 122 +~ 1;
#X obj 15 147 *~ 0.5;
#X text 19 295 0..+1;
#X obj 15 178 clip~ 0 1;
#X obj 83 217 cyclone/tosymbol;
#X connect 0 0 2 0;
#X connect 1 0 3 0;
#X connect 1 0 17 0;
#X connect 3 0 4 0;
#X connect 4 0 0 0;
#X connect 5 0 1 1;
#X connect 5 0 12 0;
#X connect 6 0 1 0;
#X connect 8 0 2 0;
#X connect 9 0 10 0;
#X connect 10 0 3 0;
#X connect 11 0 10 1;
#X connect 12 0 15 0;
#X connect 14 0 21 0;
#X connect 15 0 14 0;
#X connect 17 0 18 0;
#X connect 18 0 20 0;
#X connect 20 0 7 0;
#X connect 21 0 8 0;
#X restore 185 166 pd Modul~;
#X obj 216 101 cnv 4 10 4 empty empty empty 20 12 0 14 -3522 -66577
0;
#X obj 263 118 hsl 81 12 -1 1 0 1 \$0-A ColorForm 86 0 7 1 9 -262144
-1 -1 5400 0;
#X obj 315 41 inlet~;
#X obj 263 118 hsl 81 12 -1 1 0 1 \$0-A ColorForm 202 0 7 1 9 -188398
-3522 -1 5400 0;
#N canvas 795 278 253 317 Modul~ 0;
#X msg 175 236 set \$1;
#X obj 15 73 +~;
#X obj 104 278 outlet;
#X obj 176 109 snapshot~;
#X obj 176 216 change;
#X obj 75 32 inlet;
#X obj 15 32 inlet~;
#X obj 15 277 outlet~;
#X msg 66 239 label \$1;
#X obj 116 32 loadbang;
#X obj 116 73 metro 200;
#X obj 174 32 r SendFluid;
#X obj 66 120 + 1;
#X text 71 14 -1..+1;
#X obj 66 178 int;
#X obj 15 121 +~ 1;
#X obj 15 147 *~ 1.5;
#X obj 66 146 * 150;
#X text 70 196 <- 0..300;
#X text 19 295 0..3;
#X obj 66 217 cyclone/tosymbol;
#X connect 0 0 2 0;
#X connect 1 0 3 0;
#X connect 1 0 15 0;
#X connect 3 0 4 0;
#X connect 4 0 0 0;
#X connect 5 0 1 1;
#X connect 5 0 12 0;
#X connect 6 0 1 0;
#X connect 8 0 2 0;
#X connect 9 0 10 0;
#X connect 10 0 3 0;
#X connect 11 0 10 1;
#X connect 12 0 17 0;
#X connect 14 0 20 0;
#X connect 15 0 16 0;
#X connect 16 0 7 0;
#X connect 17 0 14 0;
#X connect 20 0 8 0;
#X restore 285 166 pd Modul~;
#X obj 104 166 phasor~;
#X obj 117 260 -~ 0.25;
#X obj 117 317 cos~;
#X obj 156 342 -~;
#X obj 171 260 -~ 0.25;
#X obj 171 286 cos~;
#X obj 171 236 -~;
#X obj 232 362 /~;
#X obj 171 317 *~;
#X obj 229 260 *~;
#X obj 248 317 -~;
#X obj 256 260 *~ 2;
#X obj 289 260 cos~;
#X obj 263 286 *~;
#X obj 269 212 phasor~;
#X obj 270 191 *~;
#X text 101 415 Ramp;
#X text 324 415 Moorer;
#X text 333 425 DSF;
#X obj 183 111 cnv 4 4 4 empty ColorTime Index 1 1 1 10 -208064 -1
1.04858e+06;
#X obj 305 111 cnv 4 4 4 empty ColorTime Distance 1 1 1 10 -208064
-1 1.04858e+06;
#X obj 237 109 cnv 4 4 4 empty ColorTime Moorer. 1 1 1 14 -208064 -1
1.04858e+06;
#X text 94 23 Freq;
#X text 202 23 Index;
#X text 311 23 Distance;
#X obj 67 260 -~ 0.5;
#X obj 66 317 *~ 2;
#X obj 229 286 +~ 1;
#X text 200 414 Sinus;
#X obj 404 403 cnv 15 52 22 empty empty empty 20 12 0 14 -24198 -66577
0;
#N canvas 353 174 321 152 ?... 0;
#X obj 8 84 cnv 15 300 56 empty empty empty 20 12 0 14 -224896 -66577
0;
#X obj 8 7 cnv 18 300 70 empty empty ARGOPdMiniModules 3 10 1 14 -4033
-1 1.04858e+06;
#X obj 31 27 cnv 10 10 10 empty empty Gerard 0 5 1 11 -4033 -1 1.04858e+06
;
#X obj 69 27 cnv 10 10 10 empty empty Paresys 0 5 1 11 -4033 -1 1.04858e+06
;
#X obj 12 40 pddp/pddplink http://gerard.paresys.free.fr/ARGOPd/;
#X obj 13 121 pddp/pddplink http://puredata.info/downloads/pd-extended
;
#X obj 13 97 pddp/pddplink http://puredata.info/downloads/pure-data
;
#X text 13 85 Construit sous / Build under Pd-0.49...;
#X text 12 109 or Pd 0.43.4-extended;
#X obj 12 53 pddp/pddplink https://paresys.pagesperso-orange.fr/ARGOPd/
;
#X restore 407 406 pd ?...;
#X text 312 85 29 8 2019;
#X connect 7 0 15 1;
#X connect 8 0 15 0;
#X connect 9 0 15 2;
#X connect 15 0 10 0;
#X connect 15 1 27 0;
#X connect 15 1 42 0;
#X connect 15 2 9 0;
#X connect 15 3 7 0;
#X connect 18 0 21 1;
#X connect 19 0 21 0;
#X connect 21 0 35 1;
#X connect 21 0 36 0;
#X connect 21 0 36 1;
#X connect 21 0 38 0;
#X connect 21 1 20 0;
#X connect 23 0 26 1;
#X connect 24 0 26 0;
#X connect 26 0 42 1;
#X connect 26 1 25 0;
#X connect 27 0 28 0;
#X connect 27 0 33 0;
#X connect 27 0 52 0;
#X connect 28 0 29 0;
#X connect 29 0 30 0;
#X connect 29 0 1 0;
#X connect 30 0 34 0;
#X connect 31 0 32 0;
#X connect 32 0 35 0;
#X connect 33 0 31 0;
#X connect 34 0 4 0;
#X connect 35 0 30 1;
#X connect 36 0 54 0;
#X connect 37 0 34 1;
#X connect 38 0 40 0;
#X connect 39 0 40 1;
#X connect 40 0 37 1;
#X connect 41 0 33 1;
#X connect 41 0 39 0;
#X connect 42 0 41 0;
#X connect 52 0 53 0;
#X connect 53 0 16 0;
#X connect 54 0 37 0;
#X coords 0 -1 1 1 246 48 1 100 100;
#X restore 201 105 pd ARGO;
#X obj 453 91 pddp/pddplink http://aspress.co.uk/sd/chapter17.html
;
#N canvas 358 220 508 434 ARGO 0;
#X obj 101 101 cnv 20 244 43 empty ColorTime empty 0 0 1 14 -208064
-1 1.04858e+06;
#X obj 57 392 outlet~;
#X obj 101 140 cnv 4 10 4 empty empty empty 20 12 0 14 -1 -66577 0
;
#X obj 101 101 cnv 4 10 4 empty empty empty 20 12 0 14 -1728 -66577
0;
#X obj 110 392 outlet~;
#X obj 217 140 cnv 4 10 4 empty empty empty 0 0 0 9 -1 -66577 0;
#X obj 273 182 phasor~;
#X obj 110 249 -~ 0.5;
#X obj 118 310 *~;
#X obj 220 343 +~ 0.125;
#X obj 220 392 outlet~;
#X obj 57 367 *~ 2;
#X obj 110 367 *~ -2;
#X obj 220 367 *~ 8;
#X obj 163 392 outlet~;
#X obj 177 140 cnv 4 10 4 empty empty empty 0 0 0 9 -1 -66577 0;
#X obj 137 140 cnv 4 10 4 empty empty empty 0 0 0 9 -1 -66577 0;
#X obj 289 106 nbx 7 12 0 20000 0 1 \$0-A ColorTime Hz -13 7 1 9 -208064
-1 -1 0.0804755 256;
#X obj 47 26 inlet~;
#X obj 103 118 hsl 241 12 0 1 0 0 \$0-A ColorTime empty 0 7 1 9 -262144
-1 -1 2800 0;
#X obj 103 118 hsl 241 12 0 1 0 0 \$0-A ColorTime E-9 0 7 1 9 -208064
-1728 -1 2800 0;
#X obj 20 178 cnv 15 60 30 empty empty empty 20 12 0 14 -24198 -66577
0;
#N canvas 443 143 425 238 Help 0;
#X obj 8 85 cnv 15 400 100 empty empty empty 20 12 0 14 -233017 -66577
0;
#X text 12 87 Citation;
#X text 21 103 The phasor~ object outputs a sawtooth signal...;
#X text 10 45 Sensibilité de l'entrée de contrôle de la fréquence:
;
#X text 10 33 Frequency control input sensitivity:;
#X text 10 57 1 = 240 x semitone = 20 octaves;
#X restore 27 184 pd Help;
#X text 350 122 2 HSLIDER superposés;
#X text 375 101 ATTENTION;
#N canvas 686 258 365 341 Freq-v7-sig- 0;
#X obj 235 61 ftom;
#X obj 289 220 mtof;
#X obj 150 140 +~;
#X obj 18 192 snapshot~;
#X obj 18 214 change;
#X msg 18 239 set \$1;
#X obj 150 248 clip~ 0 20000;
#X obj 150 225 mtof~;
#X obj 150 277 outlet~;
#X obj 289 38 inlet;
#X obj 234 37 inlet;
#X obj 78 277 outlet;
#X obj 289 277 outlet;
#X text 75 295 Hslider;
#X obj 150 42 inlet~;
#X obj 18 41 loadbang;
#X obj 235 277 outlet;
#X obj 289 159 * 240;
#X obj 289 182 - 108;
#X obj 150 173 *~ 240;
#X obj 150 195 -~ 108;
#X obj 235 84 + 108;
#X obj 235 106 / 240;
#X obj 18 90 metro 200;
#X obj 73 41 r SendFluid;
#X text 84 306 Over;
#X text 291 295 Number;
#X text 231 20 Number;
#X text 234 294 Hslider;
#X text 236 305 Under;
#X text 290 8 Hslider;
#X text 295 19 Under;
#X msg 235 247 set \$1;
#N canvas 618 373 538 314 pitchb 0;
#X obj 70 111 mod 12;
#X obj 70 135 sel 0 1 2 3 4 5 6 7 8 9 10 11;
#X msg 246 170 A;
#X msg 300 170 B;
#X msg 192 170 G;
#X msg 3 170 C;
#X msg 57 170 D;
#X msg 111 170 E;
#X msg 138 170 F;
#X obj 204 1 inlet;
#X obj 377 115 div 12;
#X obj 204 79 t f f;
#X text 384 184 -> Numero de l'octave;
#X text 213 64 -> Numero MIDI de la note (69 = A3 = 440Hz);
#X msg 260 260 label \$1;
#X obj 260 283 outlet;
#X msg 30 170 Db;
#X msg 84 170 Eb;
#X msg 165 170 Gb;
#X msg 219 170 Ab;
#X msg 273 170 Bb;
#X text 369 78 (70 = A#3 = Bb3);
#X obj 260 238 symbol;
#X text 11 231 Impossible d'afficher # dans un label;
#X text 11 243 donc j'affiche b;
#X obj 204 51 int;
#X text 255 23 -> pour corriger certaines erreurs de calcul;
#X obj 204 25 + 120.1;
#X obj 377 144 - 12;
#X text 255 35 et le pb du passage a zero de mod 12;
#X obj 260 213 cyclone/sprintf %s%d;
#X connect 0 0 1 0;
#X connect 1 0 5 0;
#X connect 1 1 16 0;
#X connect 1 2 6 0;
#X connect 1 3 17 0;
#X connect 1 4 7 0;
#X connect 1 5 8 0;
#X connect 1 6 18 0;
#X connect 1 7 4 0;
#X connect 1 8 19 0;
#X connect 1 9 2 0;
#X connect 1 10 20 0;
#X connect 1 11 3 0;
#X connect 2 0 30 0;
#X connect 3 0 30 0;
#X connect 4 0 30 0;
#X connect 5 0 30 0;
#X connect 6 0 30 0;
#X connect 7 0 30 0;
#X connect 8 0 30 0;
#X connect 9 0 27 0;
#X connect 10 0 28 0;
#X connect 11 0 0 0;
#X connect 11 1 10 0;
#X connect 14 0 15 0;
#X connect 16 0 30 0;
#X connect 17 0 30 0;
#X connect 18 0 30 0;
#X connect 19 0 30 0;
#X connect 20 0 30 0;
#X connect 22 0 14 0;
#X connect 25 0 11 0;
#X connect 27 0 25 0;
#X connect 28 0 30 1;
#X connect 30 0 22 0;
#X restore 78 133 pd pitchb;
#X connect 0 0 21 0;
#X connect 0 0 33 0;
#X connect 1 0 12 0;
#X connect 2 0 3 0;
#X connect 2 0 19 0;
#X connect 3 0 4 0;
#X connect 4 0 5 0;
#X connect 5 0 11 0;
#X connect 6 0 8 0;
#X connect 7 0 6 0;
#X connect 9 0 17 0;
#X connect 10 0 0 0;
#X connect 14 0 2 0;
#X connect 15 0 23 0;
#X connect 17 0 18 0;
#X connect 18 0 1 0;
#X connect 19 0 20 0;
#X connect 20 0 7 0;
#X connect 21 0 22 0;
#X connect 22 0 2 1;
#X connect 22 0 32 0;
#X connect 23 0 3 0;
#X connect 24 0 23 1;
#X connect 32 0 16 0;
#X connect 33 0 11 0;
#X restore 47 63 pd Freq-v7-sig-;
#X obj 133 276 expr~ ($v1 < 0) - 0.5;
#X text 326 145 Alea;
#X obj 376 276 samphold~;
#X obj 376 182 noise~;
#X obj 273 392 outlet~;
#X obj 376 392 outlet~;
#X obj 296 140 cnv 4 10 4 empty empty empty 0 0 0 9 -1 -66577 0;
#X obj 335 140 cnv 4 10 4 empty empty empty 0 0 0 9 -1 -66577 0;
#X text 93 145 Ramp;
#X text 98 156 Up;
#X text 136 145 Ramp;
#X text 137 156 Down;
#X obj 442 393 cnv 15 34 16 empty empty empty 20 12 0 14 -24198 -66577
0;
#N canvas 353 174 333 161 ?? 0;
#X obj 17 89 cnv 15 300 56 empty empty empty 20 12 0 14 -224896 -66577
0;
#X obj 17 12 cnv 18 300 70 empty empty ARGOPdMiniModules 3 10 1 14
-4033 -1 1.04858e+06;
#X obj 40 32 cnv 10 10 10 empty empty Gerard 0 5 1 11 -4033 -1 1.04858e+06
;
#X obj 78 32 cnv 10 10 10 empty empty Paresys 0 5 1 11 -4033 -1 1.04858e+06
;
#X obj 20 54 pddp/pddplink http://gerard.paresys.free.fr/ARGOPd/;
#X obj 22 126 pddp/pddplink http://puredata.info/downloads/pd-extended
;
#X obj 22 102 pddp/pddplink http://puredata.info/downloads/pure-data
;
#X text 22 90 Construit sous / Build under Pd-0.49...;
#X text 21 114 or Pd 0.43.4-extended;
#X obj 20 66 pddp/pddplink https://paresys.pagesperso-orange.fr/ARGOPd/
;
#X obj 20 42 pddp/pddplink https://github.com/gerardparesys/ARGOPd
;
#X restore 442 393 pd ??;
#X obj 163 367 *~ 2;
#X obj 325 276 cos~;
#X obj 325 249 -~ 0.25;
#X obj 273 276 cos~;
#X obj 247 134 cnv 4 4 4 empty ColorTime Sinus 1 1 1 10 -208064 -1
1.04858e+06;
#X obj 102 134 cnv 4 4 4 empty ColorTime RUp -1 1 1 10 -208064 -1 1.04858e+06
;
#X obj 126 134 cnv 4 4 4 empty ColorTime RDown 1 1 1 10 -208064 -1
1.04858e+06;
#X obj 325 392 outlet~;
#X obj 164 134 cnv 4 4 4 empty ColorTime Square 1 1 1 10 -208064 -1
1.04858e+06;
#X obj 215 134 cnv 4 4 4 empty ColorTime Tri 1 1 1 10 -208064 -1 1.04858e+06
;
#X obj 280 134 cnv 4 4 4 empty ColorTime Cosinus 1 1 1 10 -208064 -1
1.04858e+06;
#X obj 324 134 cnv 4 4 4 empty ColorTime Alea 1 1 1 10 -208064 -1 1.04858e+06
;
#X obj 256 140 cnv 4 10 4 empty empty empty 0 0 0 9 -1 -66577 0;
#X text 196 156 Triangle;
#X text 245 145 Sinus;
#X text 281 156 Cosinus;
#X obj 335 101 cnv 4 10 4 empty empty empty 20 12 0 14 -260097 -66577
0;
#X obj 113 19 cnv 15 240 30 empty empty empty 20 12 0 14 -261682 -66577
0;
#X obj 316 26 inlet;
#X text 114 27 NoteMIDI;
#X obj 289 65 mtof;
#X text 168 26 -108 ..132 = C-11..C9 ->;
#X text 351 112 2 overlapping HSLIDER;
#X text 164 145 Square;
#X obj 209 109 cnv 5 1 1 empty ColorTime Oscill. 0 0 1 14 -208064 -1
1.04858e+06;
#X obj 151 103 tgl 12 1 \$0-A \$0-B On 14 6 1 10 -262144 -1 -1 1 1
;
#X obj 6 392 switch~;
#X text 294 84 8 5 2020;
#X connect 6 0 7 0;
#X connect 6 0 28 1;
#X connect 6 0 43 0;
#X connect 6 0 42 0;
#X connect 7 0 11 0;
#X connect 7 0 12 0;
#X connect 7 0 8 0;
#X connect 7 0 26 0;
#X connect 8 0 9 0;
#X connect 9 0 13 0;
#X connect 11 0 1 0;
#X connect 12 0 4 0;
#X connect 13 0 10 0;
#X connect 17 0 25 1;
#X connect 18 0 25 0;
#X connect 19 0 25 2;
#X connect 25 0 20 0;
#X connect 25 1 6 0;
#X connect 25 2 19 0;
#X connect 25 3 17 0;
#X connect 26 0 8 1;
#X connect 26 0 40 0;
#X connect 28 0 31 0;
#X connect 29 0 28 0;
#X connect 40 0 14 0;
#X connect 41 0 47 0;
#X connect 42 0 41 0;
#X connect 43 0 30 0;
#X connect 58 0 60 0;
#X connect 60 0 17 0;
#X connect 65 0 66 0;
#X coords 0 -1 1 1 246 45 1 100 100;
#X restore 201 7 pd ARGO;
#X obj 703 484 cnv 15 34 16 empty empty empty 20 12 0 14 -24198 -66577
0;
#N canvas 353 174 333 161 ?? 0;
#X obj 17 89 cnv 15 300 56 empty empty empty 20 12 0 14 -224896 -66577
0;
#X obj 17 12 cnv 18 300 70 empty empty ARGOPdMiniModules 3 10 1 14
-4033 -1 1.04858e+06;
#X obj 40 32 cnv 10 10 10 empty empty Gerard 0 5 1 11 -4033 -1 1.04858e+06
;
#X obj 78 32 cnv 10 10 10 empty empty Paresys 0 5 1 11 -4033 -1 1.04858e+06
;
#X obj 20 54 pddp/pddplink http://gerard.paresys.free.fr/ARGOPd/;
#X obj 22 126 pddp/pddplink http://puredata.info/downloads/pd-extended
;
#X obj 22 102 pddp/pddplink http://puredata.info/downloads/pure-data
;
#X text 22 90 Construit sous / Build under Pd-0.49...;
#X text 21 114 or Pd 0.43.4-extended;
#X obj 20 66 pddp/pddplink https://paresys.pagesperso-orange.fr/ARGOPd/
;
#X obj 20 42 pddp/pddplink https://github.com/gerardparesys/ARGOPd
;
#X restore 703 484 pd ??;
#N canvas 462 219 430 320 ARGO 0;
#X obj 40 -35 inlet~;
#X obj 251 108 cnv 10 44 10 empty empty Scope. 1 5 1 14 -262144 -1
1.04858e+06;
#X obj 101 101 cnv 4 10 4 empty empty empty 20 12 0 14 -1 -66577 0
;
#X msg -36 168 frgb 255 0 0;
#X obj 124 105 nbx 4 12 1 2000 0 1 \$0-A ColorTime ms/div 40 7 1 9
-208064 -1 -1 5 256;
#X obj 205 105 tgl 12 1 \$0-A \$0-B Sync 15 6 1 9 -262144 -1 -1 1 1
;
#X msg 128 52 delay 0 \, triglevel 0 \, trigger 0;
#X obj 126 5 sel 0 1;
#X msg -39 192 brgb 255 255 255;
#X obj 85 64 * 2;
#X msg 146 28 delay 1 \, triglevel 0.1 \, trigger 1;
#X obj 277 -36 inlet~;
#X obj 289 101 cnv 4 10 4 empty empty empty 20 12 0 14 -1 -66577 0
;
#X obj -14 80 t b b b b;
#X obj -15 57 bng 15 250 50 0 empty empty empty 17 7 0 10 -262144 -1
-1;
#X obj 196 -34 cnv 15 60 30 empty empty empty 20 12 0 14 -24198 -66577
0;
#N canvas 374 104 413 135 Help 0;
#X text 24 54 Voir MSP46ReferenceManual.pdf;
#X text 23 1 utilise l'objet Scope~ de la library cyclone;
#X text 24 26 Voir Browser -> Pure Data/examples/cyclone/scope-test.pd
;
#X text 24 40 Voir Browser -> Pure Data/examples/cyclone/pink-test.pd
;
#X text 24 -20 Scope;
#X restore 203 -28 pd Help;
#X obj 101 121 cnv 15 199 129 empty empty empty 20 12 0 14 -1 -66577
0;
#X obj 40 -11 clip~ -1 1;
#X obj 277 -12 clip~ -1 1;
#X msg -24 136 range -1 1;
#X msg -33 111 bufsize 176;
#X obj 101 123 cyclone/scope~ 198 61 10 3 176 -1 1 1 0 1 0.1 255 0
0 255 255 255 0 98 102 0 empty;
#X obj 101 187 cyclone/scope~ 198 61 10 3 176 -1 1 1 0 1 0.1 255 0
0 255 255 255 0 98 102 0 empty;
#X text 243 85 29 3 2021;
#X obj 307 234 cnv 15 34 16 empty empty empty 20 12 0 14 -24198 -66577
0;
#N canvas 353 174 333 161 ?? 0;
#X obj 17 89 cnv 15 300 56 empty empty empty 20 12 0 14 -224896 -66577
0;
#X obj 17 12 cnv 18 300 70 empty empty ARGOPdMiniModules 3 10 1 14
-4033 -1 1.04858e+06;
#X obj 40 32 cnv 10 10 10 empty empty Gerard 0 5 1 11 -4033 -1 1.04858e+06
;
#X obj 78 32 cnv 10 10 10 empty empty Paresys 0 5 1 11 -4033 -1 1.04858e+06
;
#X obj 20 54 pddp/pddplink http://gerard.paresys.free.fr/ARGOPd/;
#X obj 22 126 pddp/pddplink http://puredata.info/downloads/pd-extended
;
#X obj 22 102 pddp/pddplink http://puredata.info/downloads/pure-data
;
#X text 22 90 Construit sous / Build under Pd-0.49...;
#X text 21 114 or Pd 0.43.4-extended;
#X obj 20 66 pddp/pddplink https://paresys.pagesperso-orange.fr/ARGOPd/
;
#X obj 20 42 pddp/pddplink https://github.com/gerardparesys/ARGOPd
;
#X restore 307 234 pd ??;
#X connect 0 0 18 0;
#X connect 3 0 22 0;
#X connect 3 0 23 0;
#X connect 4 0 9 0;
#X connect 5 0 7 0;
#X connect 6 0 22 0;
#X connect 6 0 23 0;
#X connect 7 0 6 0;
#X connect 7 1 10 0;
#X connect 8 0 22 0;
#X connect 8 0 23 0;
#X connect 9 0 22 0;
#X connect 9 0 23 0;
#X connect 10 0 22 0;
#X connect 10 0 23 0;
#X connect 11 0 19 0;
#X connect 13 0 21 0;
#X connect 13 1 20 0;
#X connect 13 2 3 0;
#X connect 13 3 8 0;
#X connect 14 0 13 0;
#X connect 18 0 22 0;
#X connect 19 0 23 0;
#X connect 20 0 22 0;
#X connect 20 0 23 0;
#X connect 21 0 22 0;
#X connect 21 0 23 0;
#X coords 0 -1 1 1 200 150 2 100 100;
#X restore 427 191 pd ARGO;
#N canvas 632 394 787 373 ARGO 0;
#X obj 372 95 rfft~;
#X msg 132 69 slide 10 10;
#X obj 372 27 inlet~;
#X msg 112 99 slide 1 1;
#X obj 213 69 *~ 0.361;
#X obj 201 201 cnv 12 198 34 empty empty empty 20 12 0 14 -262144 -1
1.04858e+06;
#X obj 201 201 cnv 4 10 4 empty empty empty 20 12 0 14 -1 -66577 0
;
#X obj 113 45 sel 0 1;
#X msg 37 209 frgb 255 0 0;
#X msg 36 233 brgb 255 255 255;
#X obj 64 155 cnv 15 60 30 empty empty empty 20 12 0 14 -24198 -66577
0;
#N canvas 686 130 433 175 Help 0;
#X text 19 82 Doc Pd-extended -> /cyclone/examples/pink-test.pd;
#X text 130 96 /cyclone/Scope~-help.pd;
#X obj 38 115 pddp/pddplink http://cycling74.com/docs/max5/refpages/msp-ref/scope~.html
;
#X text 21 116 cf;
#X text 19 21 Spectrum;
#X text 18 42 With scope~ object of cyclone library;
#X text 18 62 Avec l'objet scope~ de la library cyclone;
#X restore 71 161 pd Help;
#X msg 38 258 range 0 256;
#X obj 200 216 vsl 12 131 0.01 100 1 1 \$0-A \$0-B empty 0 -9 0 10
-262144 -1 -1 9100 0;
#X obj 372 69 *~;
#X msg 22 99 slide 100 100;
#X obj 213 27 cyclone/count~ 0 1024 1 1;
#X obj 213 144 cyclone/vectral~ 1024;
#X obj 213 214 cyclone/scope~ 514 135 4 3 256 0 256 0 0 0 0 255 0 0
255 255 255 0 98 102 0 empty;
#X obj 372 122 cyclone/cartopol~;
#X obj 219 201 tgl 12 1 \$0-A \$0-B On 15 7 1 9 -262144 -1 -1 1 1;
#X obj 334 201 tgl 12 1 \$0-SendLoop \$0-ReceiveLoop Gliss 15 6 1 9
-262144 -1 -1 1 1;
#X obj 626 93 cnv 15 100 70 empty empty empty 20 12 0 14 -24198 -66577
0;
#X text 649 95 library:;
#X text 630 106 pddp;
#X text 630 119 cyclone;
#X msg 40 281 4 \, bufsize 256;
#X obj 95 335 switch~ 1024 1 1;
#X obj 737 334 cnv 15 34 16 empty empty empty 20 12 0 14 -24198 -66577
0;
#N canvas 353 174 333 161 ?? 0;
#X obj 17 89 cnv 15 300 56 empty empty empty 20 12 0 14 -224896 -66577
0;
#X obj 17 12 cnv 18 300 70 empty empty ARGOPdMiniModules 3 10 1 14
-4033 -1 1.04858e+06;
#X obj 40 32 cnv 10 10 10 empty empty Gerard 0 5 1 11 -4033 -1 1.04858e+06
;
#X obj 78 32 cnv 10 10 10 empty empty Paresys 0 5 1 11 -4033 -1 1.04858e+06
;
#X obj 20 54 pddp/pddplink http://gerard.paresys.free.fr/ARGOPd/;
#X obj 22 126 pddp/pddplink http://puredata.info/downloads/pd-extended
;
#X obj 22 102 pddp/pddplink http://puredata.info/downloads/pure-data
;
#X text 22 90 Construit sous / Build under Pd-0.49...;
#X text 21 114 or Pd 0.43.4-extended;
#X obj 20 66 pddp/pddplink https://paresys.pagesperso-orange.fr/ARGOPd/
;
#X obj 20 42 pddp/pddplink https://github.com/gerardparesys/ARGOPd
;
#X restore 737 334 pd ??;
#X obj 563 27 loadbang;
#X obj 566 200 hsl 160 18 0 127 0 0 \$0-A \$0-B Spectrum(2000Hz/div).
-2 9 1 14 -262144 -262144 -1 0 1;
#X obj 523 89 bang;
#X obj 625 27 r pd-dsp-started;
#X text 675 184 2 5 2021;
#N canvas 735 342 333 296 label 0;
#X obj 68 93 samplerate~;
#X msg 68 186 label \$1;
#X obj 68 165 cyclone/tosymbol;
#X obj 68 141 cyclone/sprintf Spectrum(%sHz/div).;
#X obj 68 68 inlet;
#X obj 68 215 outlet;
#X obj 68 118 expr int(2000 * $f1 / 44100);
#X connect 0 0 6 0;
#X connect 1 0 5 0;
#X connect 2 0 1 0;
#X connect 3 0 2 0;
#X connect 4 0 0 0;
#X connect 6 0 3 0;
#X restore 563 127 pd label;
#X connect 0 0 19 0;
#X connect 0 1 19 1;
#X connect 1 0 17 0;
#X connect 2 0 14 0;
#X connect 3 0 17 0;
#X connect 4 0 17 0;
#X connect 7 0 3 0;
#X connect 7 1 1 0;
#X connect 8 0 18 0;
#X connect 9 0 18 0;
#X connect 12 0 18 0;
#X connect 13 0 14 1;
#X connect 14 0 0 0;
#X connect 15 0 17 0;
#X connect 16 0 4 0;
#X connect 16 0 17 1;
#X connect 17 0 18 0;
#X connect 19 0 17 2;
#X connect 20 0 27 0;
#X connect 20 0 32 0;
#X connect 21 0 7 0;
#X connect 26 0 18 0;
#X connect 30 0 35 0;
#X connect 32 0 35 0;
#X connect 33 0 35 0;
#X connect 35 0 31 0;
#X coords 0 -1 1 1 528 150 2 200 200;
#X restore 167 352 pd ARGO;
#X connect 3 0 2 0;
#X connect 20 0 0 0;
#X connect 20 0 0 1;
#X connect 20 0 22 0;
#X connect 20 0 29 0;
#X connect 21 0 23 1;
#X connect 23 1 28 0;
#X connect 23 2 20 0;
#X connect 23 2 28 1;
#X connect 25 3 21 0;
