#N canvas 523 23 784 449 10;
#X text 32 162 NoteMIDI 0..127 = C-2..G8 ->;
#X obj 7 7 cnv 15 15 15 empty empty ExMM96b-Alea-Nbr.pd 0 8 1 14 -262144
-66577 0;
#X text 101 262 Niveau general ->;
#X text 107 273 General level ->;
#X obj 49 108 switch~;
#N canvas 608 166 228 173 ARGOnOff 0;
#X obj 100 100 tgl 18 1 \$0-SendOnOff \$0-ReceiveOnOff On/Off 20 11
1 14 -4033 -1 -1 1 1;
#X obj 99 10 loadbang;
#X msg 99 33 \; pd dsp 1;
#X obj 100 129 outlet;
#X text -50 99 Audio On/Off du patch ->;
#X text -22 45 Audio General On ->;
#X text 107 82 17 3 2010;
#X connect 0 0 3 0;
#X connect 1 0 2 0;
#X coords 0 -1 1 1 65 18 2 100 100;
#X restore 49 90 pd ARGOnOff;
#X text 54 74 V;
#X text 54 67 |;
#X text 42 56 On/Off Patch;
#N canvas 446 99 425 236 ARGO 0;
#X obj -40 48 cnv 15 60 30 empty empty empty 20 12 0 14 -24198 -66577
0;
#N canvas 424 180 418 133 Help 0;
#X text 10 51 Un "Bang" sort chaque X msec.;
#X text 8 83 A "Bang" outputs every X msec.;
#X restore -33 54 pd Help;
#X obj 100 32 inlet;
#X obj 95 198 cnv 15 170 24 empty empty empty 20 12 0 14 -261682 -66577
0;
#X obj 100 202 outlet;
#X obj 101 101 cnv 10 132 36 empty ColorForm Oscill 80 9 1 14 -208064
-1 1.04858e+06;
#X obj 100 125 bng 12 50 50 0 \$0-A \$0-B empty 14 6 1 9 -262144 -1
-1;
#X obj 101 133 cnv 4 10 4 empty empty empty 20 12 0 14 -260097 -66577
0;
#X obj 100 113 nbx 6 12 1 999999 0 1 \$0-A ColorTime ms 40 17 1 9 -208064
-1 -1 100 256;
#X text 146 206 -> Bang;
#X text 145 196 -> Bang;
#X obj 100 100 tgl 12 1 \$0-A \$0-B empty 17 7 0 10 -262144 -1 -1 1
1;
#X obj -93 96 cnv 15 190 20 empty empty empty 20 12 0 14 -261682 -66577
0;
#X text -92 97 1: Play 0: Stop bang: Change ->;
#X obj 101 101 cnv 4 10 4 empty empty empty 20 12 0 14 -260097 -66577
0;
#X obj 28 145 metro 300;
#X text 177 83 1 1 2012;
#X obj 223 101 cnv 4 10 4 empty empty empty 20 12 0 14 -260097 -66577
0;
#X obj 215 32 inlet;
#X obj 271 197 cnv 15 48 25 empty empty empty 20 12 0 14 -24198 -66577
0;
#N canvas 350 196 308 136 ??? 0;
#X obj -6 87 cnv 15 300 38 empty empty empty 20 12 0 14 -224896 -66577
0;
#X obj -6 10 cnv 18 300 70 empty empty ARGOPdMiniModules 3 10 1 14
-4033 -1 1.04858e+06;
#X obj 13 31 cnv 10 10 10 empty empty Gerard 0 5 1 11 -4033 -1 1.04858e+06
;
#X obj 55 30 cnv 10 10 10 empty empty Paresys 0 5 1 11 -4033 -1 1.04858e+06
;
#X text -1 89 Construit sous / Build under Pd 0.42.5-extended;
#X obj 6 43 pddp/pddplink http://pagesperso-orange.fr/Paresys/ARGOPd/
;
#X obj 6 58 pddp/pddplink http://gerard.paresys.free.fr/ARGOPd/;
#X obj 46 105 pddp/pddplink http://puredata.info/downloads;
#X restore 275 201 pd ???;
#X text 238 95 <- ms;
#X connect 2 0 11 0;
#X connect 6 0 4 0;
#X connect 8 0 15 1;
#X connect 11 0 15 0;
#X connect 15 0 6 0;
#X connect 18 0 8 0;
#X coords 0 -1 1 1 134 38 2 100 100;
#X restore 207 13 pd ARGO;
#X msg 380 46 0;
#X text 348 114 <- Change;
#X msg 395 70 62;
#X msg 368 23 76;
#N canvas 64 92 441 457 ARGO 0;
#X obj 176 428 outlet~;
#X obj 68 117 cnv 15 60 30 empty empty empty 20 12 0 14 -24198 -66577
0;
#N canvas 387 113 445 156 Help 0;
#X text 40 122 + Enveloppe Decay/Sustain;
#X text 16 7 Synth3 = Synthétiseur 3 = Synthesizer 3;
#X text 44 64 Bruit blanc + 2 x Filtre Passe-bande;
#X text 42 90 cyclone/tanh~ a la sortie bp~ pour eviter enorme saturation
au changement brusque de frequence;
#X text 42 43 Filtered noise;
#X text 42 27 Bruit filtré;
#X restore 75 123 pd Help;
#N canvas 499 145 264 245 Freq-v6 0;
#X obj 34 35 inlet;
#X obj 34 189 outlet;
#X text 31 206 Hslider;
#X text 29 14 Hslider;
#X obj 158 161 clip 0 20000;
#X obj 158 137 mtof;
#X obj 158 188 outlet;
#X text 155 206 Freq Hz;
#N canvas 73 193 583 317 pitchb-11-2010 0;
#X obj 70 111 mod 12;
#X obj 70 135 sel 0 1 2 3 4 5 6 7 8 9 10 11;
#X msg 246 170 A;
#X msg 300 170 B;
#X msg 192 170 G;
#X msg 3 170 C;
#X msg 57 170 D;
#X msg 111 170 E;
#X msg 138 170 F;
#X obj 204 1 inlet;
#X obj 363 131 div 12;
#X obj 204 79 t f f;
#X text 366 186 -> Numero de l'octave;
#X text 213 64 -> Numero MIDI de la note (69 = A3 = 440Hz);
#X msg 246 260 label \$1;
#X obj 246 283 outlet;
#X msg 30 170 Db;
#X msg 84 170 Eb;
#X msg 165 170 Gb;
#X msg 219 170 Ab;
#X msg 273 170 Bb;
#X text 369 78 (70 = A#3 = Bb3);
#X obj 246 238 symbol;
#X text 11 231 Impossible d'afficher # dans un label;
#X text 11 243 donc j'affiche b;
#X obj 204 51 int;
#X text 255 23 -> pour corriger certaines erreurs de calcul;
#X obj 363 160 - 12;
#X text 255 35 et le pb du passage a zero de mod 12;
#X obj 204 25 + 120.5;
#X obj 246 213 cyclone/sprintf %s%d;
#X connect 0 0 1 0;
#X connect 1 0 5 0;
#X connect 1 1 16 0;
#X connect 1 2 6 0;
#X connect 1 3 17 0;
#X connect 1 4 7 0;
#X connect 1 5 8 0;
#X connect 1 6 18 0;
#X connect 1 7 4 0;
#X connect 1 8 19 0;
#X connect 1 9 2 0;
#X connect 1 10 20 0;
#X connect 1 11 3 0;
#X connect 2 0 30 0;
#X connect 3 0 30 0;
#X connect 4 0 30 0;
#X connect 5 0 30 0;
#X connect 6 0 30 0;
#X connect 7 0 30 0;
#X connect 8 0 30 0;
#X connect 9 0 29 0;
#X connect 10 0 27 0;
#X connect 11 0 0 0;
#X connect 11 1 10 0;
#X connect 14 0 15 0;
#X connect 16 0 30 0;
#X connect 17 0 30 0;
#X connect 18 0 30 0;
#X connect 19 0 30 0;
#X connect 20 0 30 0;
#X connect 22 0 14 0;
#X connect 25 0 11 0;
#X connect 27 0 30 1;
#X connect 29 0 25 0;
#X connect 30 0 22 0;
#X restore 34 100 pd pitchb-11-2010;
#X connect 0 0 5 0;
#X connect 0 0 8 0;
#X connect 4 0 6 0;
#X connect 5 0 4 0;
#X connect 8 0 1 0;
#X restore 213 202 pd Freq-v6;
#X obj 176 398 *~;
#X obj 201 101 cnv 6 132 68 empty ColorForm Synth3. 83 8 1 14 -262144
-1 1.04858e+06;
#X obj 200 101 bng 12 50 50 0 \$0-A \$0-B empty 14 6 1 9 -262144 -1
-1;
#X obj 201 101 cnv 4 10 4 empty empty empty 20 12 0 14 -260097 -66577
0;
#X obj 201 165 cnv 4 10 4 empty empty empty 20 12 0 14 -1 -66577 0
;
#X obj 203 117 hsl 129 12 0 128 0 1 \$0-A ColorTime F3 0 7 1 9 -208064
-1 -1 6515 0;
#X obj 246 69 t b f;
#X obj 202 143 cnv 6 2 2 empty ColorForm Decay 0 4 1 9 -262144 -1 1.04858e+06
;
#X obj 202 132 cnv 6 2 2 empty ColorForm Attack 0 4 1 9 -262144 -1
1.04858e+06;
#X obj 323 165 cnv 4 10 4 empty empty empty 0 0 0 9 -1 -66577 0;
#X obj 126 48 noise~;
#X obj 176 273 bp~;
#X obj 263 346 bp~;
#X obj 263 428 outlet~;
#X obj 263 398 *~;
#N canvas 178 189 285 327 Q 0;
#X obj 19 278 line;
#X obj 22 215 + 1;
#X obj 21 236 clip 1 200;
#X msg 20 257 \$1 100;
#X obj 22 173 * 1;
#X obj 23 152 * 1;
#X obj 24 129 t f f f;
#X obj 19 300 outlet;
#X obj 21 194 * 200;
#X obj 70 9 inlet;
#X obj 94 300 outlet;
#X msg 164 162 label \$1;
#X obj 164 88 * 100;
#X obj 164 112 int;
#X obj 164 140 cyclone/tosymbol;
#X connect 0 0 7 0;
#X connect 1 0 2 0;
#X connect 2 0 3 0;
#X connect 3 0 0 0;
#X connect 4 0 8 0;
#X connect 5 0 4 0;
#X connect 6 0 5 0;
#X connect 6 1 5 1;
#X connect 6 2 4 1;
#X connect 8 0 1 0;
#X connect 9 0 12 0;
#X connect 9 0 6 0;
#X connect 11 0 10 0;
#X connect 12 0 13 0;
#X connect 13 0 14 0;
#X connect 14 0 11 0;
#X restore 172 203 pd Q;
#X obj 233 153 hsl 99 12 0 1 0 1 \$0-A ColorForm 50 0 7 1 9 -188398
-1 -1 4900 0;
#X obj 221 156 cnv 6 2 2 empty ColorForm Q 0 4 1 9 -262144 -1 1.04858e+06
;
#X text 189 173 Noise;
#X text 313 173 Noise;
#X obj 203 154 cnv 6 2 2 empty ColorForm ms 0 4 1 9 -262144 -1 1.04858e+06
;
#X obj 233 129 hsl 99 12 0.1 10000 1 1 \$0-A ColorForm 0.65 0 7 1 9
-208064 -1 -1 1600 0;
#X obj 233 141 hsl 99 12 0.1 10000 1 1 \$0-A ColorForm 163.78 0 7 1
9 -208064 -1 -1 6300 0;
#N canvas 283 162 450 300 label-ms 0;
#X msg 154 171 label \$1;
#X obj 154 111 expr (int(100 * $f1) / 100) \;;
#X obj 154 84 inlet;
#X obj 154 196 outlet;
#X obj 154 151 cyclone/tosymbol;
#X obj 154 131 cyclone/sprintf %s;
#X connect 0 0 3 0;
#X connect 1 0 5 0;
#X connect 2 0 1 0;
#X connect 4 0 0 0;
#X connect 5 0 4 0;
#X restore 344 120 pd label-ms;
#N canvas 285 156 450 300 label-ms 0;
#X msg 154 171 label \$1;
#X obj 154 111 expr (int(100 * $f1) / 100) \;;
#X obj 154 84 inlet;
#X obj 154 196 outlet;
#X obj 153 131 cyclone/sprintf %s;
#X obj 154 151 cyclone/tosymbol;
#X connect 0 0 3 0;
#X connect 1 0 4 0;
#X connect 2 0 1 0;
#X connect 4 0 5 0;
#X connect 5 0 0 0;
#X restore 345 142 pd label-ms;
#X obj 323 307 vline~;
#X obj 362 230 pack 1 2;
#X obj 380 206 t b f;
#X obj 299 346 *~;
#X obj 323 259 list append 0 0;
#X obj 176 300 cyclone/tanh~;
#X obj 263 371 cyclone/tanh~;
#X obj 200 44 route bang float;
#X obj 14 8 cnv 15 240 30 empty empty empty 20 12 0 14 -261682 -66577
0;
#X obj 200 15 inlet;
#X text 22 9 NoteMIDI;
#X text 77 9 0..127 = C-2..G8 ->;
#X text 150 23 Bang ->;
#X msg 323 283 1 \$1 \, 0 \$2 \$1;
#X text 168 185 1 x filtered;
#X text 292 185 2 x filtered;
#X obj 383 405 cnv 15 42 25 empty empty empty 20 12 0 14 -24198 -66577
0;
#N canvas 336 174 309 137 ?. 0;
#X obj 3 83 cnv 15 300 46 empty empty empty 20 12 0 14 -224896 -66577
0;
#X obj 3 6 cnv 18 300 70 empty empty ARGOPdMiniModules 3 10 1 14 -4033
-1 1.04858e+06;
#X obj 26 26 cnv 10 10 10 empty empty Gerard 0 5 1 11 -4033 -1 1.04858e+06
;
#X obj 64 26 cnv 10 10 10 empty empty Paresys 0 5 1 11 -4033 -1 1.04858e+06
;
#X obj 7 37 pddp/pddplink http://gerard.paresys.free.fr/ARGOPd/;
#X text 8 85 Construit sous / Build under Pd 0.43.4-extended;
#X obj 8 111 pddp/pddplink http://puredata.info/downloads/pd-extended
;
#X obj 7 50 pddp/pddplink http://paresys.pagesperso-orange.fr/ARGOPd/
;
#X text 7 98 or Pd-0.46-7 + deken;
#X restore 387 409 pd ?.;
#X text 304 80 13 1 2018;
#X obj 316 7 cnv 15 100 70 empty empty empty 20 12 0 14 -24198 -66577
0;
#X text 320 9 library:;
#X text 320 20 pddp;
#X text 320 31 cyclone;
#X connect 3 0 9 0;
#X connect 3 1 15 1;
#X connect 3 1 16 1;
#X connect 4 0 0 0;
#X connect 6 0 33 0;
#X connect 9 0 3 0;
#X connect 10 0 6 0;
#X connect 10 1 9 0;
#X connect 14 0 15 0;
#X connect 15 0 34 0;
#X connect 16 0 35 0;
#X connect 18 0 17 0;
#X connect 19 0 15 2;
#X connect 19 0 16 2;
#X connect 19 1 20 0;
#X connect 20 0 19 0;
#X connect 25 0 27 0;
#X connect 25 0 30 0;
#X connect 26 0 28 0;
#X connect 26 0 31 0;
#X connect 27 0 25 0;
#X connect 28 0 26 0;
#X connect 29 0 32 0;
#X connect 29 0 32 1;
#X connect 30 0 33 1;
#X connect 31 0 30 0;
#X connect 31 1 30 1;
#X connect 32 0 18 1;
#X connect 32 0 4 1;
#X connect 33 0 42 0;
#X connect 34 0 4 0;
#X connect 34 0 16 0;
#X connect 35 0 18 0;
#X connect 36 0 6 0;
#X connect 36 1 10 0;
#X connect 38 0 36 0;
#X connect 42 0 29 0;
#X coords 0 -1 1 1 134 70 2 200 100;
#X restore 207 160 pd ARGO;
#X obj 206 410 dac~ 1 2;
#N canvas 432 42 236 269 ARGO 0;
#X obj 101 101 cnv 30 37 130 empty ColorAmpli empty 20 12 0 14 -1 -258113
0;
#X obj 102 108 vu 8 120 \$0-B empty 0 0 1 11 -1 -4034 1 0;
#X obj 74 31 inlet~;
#X obj 10 30 cnv 15 60 30 empty empty empty 20 12 0 14 -24198 -66577
0;
#N canvas 300 65 442 264 Help 0;
#X obj 12 48 cnv 15 400 150 empty empty empty 20 12 0 14 -233017 -66577
0;
#X text 16 50 Citation;
#X text 28 67 peakamp~ tracks and outputs the absolute value of the
peak amplitude of the incoming signal. It outputs when banged or using
its own internal clock. The peak value is reset each time peakamp~
outputs a value.;
#X text 29 123 cyclone library;
#X text 28 135 http://suita.chopin.edu.pl/~czaja/miXed/externs/cyclone.html
;
#X text 29 155 Voir doc Max/MSP MSP46ReferenceManual.pdf;
#X text 18 14 MM-Vumetre;
#X restore 17 36 pd Help;
#N canvas 541 112 317 265 VuMetre 0;
#X obj 48 19 inlet~;
#X obj 41 54 *~;
#X obj -25 132 snapshot~;
#X obj -25 155 sqrt;
#X obj -25 100 lop~ 10;
#X obj -25 179 rmstodb;
#X obj -88 19 loadbang;
#X obj -25 202 - 100;
#X obj 58 156 sqrt;
#X obj 58 180 rmstodb;
#X obj 58 203 - 100;
#X obj -89 102 metro 200;
#X obj -28 19 r SendFluid;
#X obj 58 102 cyclone/peakamp~ 1000;
#X obj -25 228 outlet;
#X obj 58 227 outlet;
#X connect 0 0 1 0;
#X connect 0 0 1 1;
#X connect 1 0 4 0;
#X connect 1 0 13 0;
#X connect 2 0 3 0;
#X connect 3 0 5 0;
#X connect 4 0 2 0;
#X connect 5 0 7 0;
#X connect 6 0 11 0;
#X connect 7 0 14 0;
#X connect 8 0 9 0;
#X connect 9 0 10 0;
#X connect 10 0 15 0;
#X connect 11 0 2 0;
#X connect 12 0 11 1;
#X connect 13 0 8 0;
#X restore 74 56 pd VuMetre;
#X obj 172 208 cnv 15 42 25 empty empty empty 20 12 0 14 -24198 -66577
0;
#N canvas 336 174 309 137 ?. 0;
#X obj 3 83 cnv 15 300 46 empty empty empty 20 12 0 14 -224896 -66577
0;
#X obj 3 6 cnv 18 300 70 empty empty ARGOPdMiniModules 3 10 1 14 -4033
-1 1.04858e+06;
#X obj 26 26 cnv 10 10 10 empty empty Gerard 0 5 1 11 -4033 -1 1.04858e+06
;
#X obj 64 26 cnv 10 10 10 empty empty Paresys 0 5 1 11 -4033 -1 1.04858e+06
;
#X obj 7 37 pddp/pddplink http://gerard.paresys.free.fr/ARGOPd/;
#X text 8 85 Construit sous / Build under Pd 0.43.4-extended;
#X obj 8 111 pddp/pddplink http://puredata.info/downloads/pd-extended
;
#X obj 7 50 pddp/pddplink http://paresys.pagesperso-orange.fr/ARGOPd/
;
#X text 7 98 or Pd-0.46-7 + deken;
#X restore 176 212 pd ?.;
#X text 127 84 6 3 2016;
#X connect 2 0 5 0;
#X connect 5 0 1 0;
#X connect 5 1 1 1;
#X coords 0 -1 1 1 39 132 2 100 100;
#X restore 268 294 pd ARGO;
#N canvas 175 68 374 396 ARGO 0;
#X obj 101 101 cnv 20 116 34 empty ColorAmpli empty 20 12 0 14 -261299
-1 1.04858e+06;
#X obj 85 353 outlet~;
#X obj 157 104 cnv 10 20 10 empty ColorAmpli Ampli. 1 5 1 14 -261299
-1 1.04858e+06;
#X obj 85 43 inlet~;
#X obj 85 330 *~;
#X obj 115 118 hsl 101 12 -80 20 0 1 \$0-A ColorAmpli 10dB 0 7 1 9
-261299 -1 -1 9000 0;
#X obj 101 101 cnv 4 10 4 empty empty empty 20 12 0 14 -1 -66577 0
;
#X obj 101 131 cnv 4 10 4 empty empty empty 20 12 0 14 -1 -66577 0
;
#X msg -42 139 label \$1;
#X text 148 194 -> 0.0001..10 = -80dB..20dB;
#X obj 142 175 expr (pow(10 \, $f1 / 20));
#X obj 142 215 sel 0.0001;
#X msg 100 244 0;
#X obj 100 118 tgl 12 1 \$0-A \$0-B Mute 2 -5 1 9 -261299 -1 -1 0 1
;
#X obj 99 146 select 0 1;
#X obj 140 295 line~;
#X obj 140 275 pack 0 10;
#X msg 123 74 set 0;
#X obj -42 93 cyclone/sprintf %ddB;
#X obj -42 116 cyclone/tosymbol;
#X obj 261 342 cnv 15 42 25 empty empty empty 20 12 0 14 -24198 -66577
0;
#N canvas 336 174 309 137 ?. 0;
#X obj 3 83 cnv 15 300 46 empty empty empty 20 12 0 14 -224896 -66577
0;
#X obj 3 6 cnv 18 300 70 empty empty ARGOPdMiniModules 3 10 1 14 -4033
-1 1.04858e+06;
#X obj 26 26 cnv 10 10 10 empty empty Gerard 0 5 1 11 -4033 -1 1.04858e+06
;
#X obj 64 26 cnv 10 10 10 empty empty Paresys 0 5 1 11 -4033 -1 1.04858e+06
;
#X obj 7 37 pddp/pddplink http://gerard.paresys.free.fr/ARGOPd/;
#X text 8 85 Construit sous / Build under Pd 0.43.4-extended;
#X obj 8 111 pddp/pddplink http://puredata.info/downloads/pd-extended
;
#X obj 7 50 pddp/pddplink http://paresys.pagesperso-orange.fr/ARGOPd/
;
#X text 7 98 or Pd-0.46-7 + deken;
#X restore 265 346 pd ?.;
#X text 228 110 17 3 2016;
#X connect 3 0 4 0;
#X connect 4 0 1 0;
#X connect 5 0 10 0;
#X connect 5 0 18 0;
#X connect 8 0 5 0;
#X connect 10 0 11 0;
#X connect 11 0 12 0;
#X connect 11 1 16 0;
#X connect 11 1 17 0;
#X connect 12 0 16 0;
#X connect 12 0 19 0;
#X connect 13 0 14 0;
#X connect 14 0 5 0;
#X connect 14 1 12 0;
#X connect 15 0 4 1;
#X connect 16 0 15 0;
#X connect 17 0 13 0;
#X connect 18 0 19 0;
#X connect 19 0 8 0;
#X coords 0 -1 1 1 118 36 1 100 100;
#X restore 207 243 pd ARGO;
#N canvas 538 207 391 247 ARGO 0;
#X obj 34 152 cnv 15 60 30 empty empty empty 20 12 0 14 -24198 -66577
0;
#N canvas 344 122 417 366 Help 0;
#X obj 4 73 cnv 15 400 200 empty empty empty 20 12 0 14 -233017 -66577
0;
#X text 7 72 Citation;
#X text 5 37 Library unauthorized;
#X text 19 146 (invoke with <right mouse>Properties );
#X text 20 135 You can set the following properties :;
#X text 40 167 * Width : graphical x size;
#X text 40 179 * Height : graphical y size;
#X text 40 192 * Values : number of values ( range is [ 1 \, nvalues
] );
#X text 41 206 * Max Occurrences : max number of occurences in a serial
;
#X text 22 97 probalizer : outputs integer values according to a drawn
probability curve \, version 0.4 (ydegoyon@free.fr);
#X text 6 4 MM-Statistic;
#X text 5 23 Utilise l'object probalizer de Yves de Goyon;
#X obj 6 287 cnv 15 350 60 empty empty empty 20 12 0 14 -258113 -66577
0;
#X text 13 310 Ne fonctionne pas sous Pd-0.42.5-extended sous Windows
7;
#X obj 5 51 pddp/pddplink http://ydegoyon.free.fr/software.html;
#X restore 41 158 pd Help;
#X obj 88 31 inlet;
#X msg 53 106 zero;
#X obj 127 32 loadbang;
#X obj 88 57 + 1;
#X obj 115 209 cnv 5 7 12 empty empty 0 2 7 1 11 -262144 -66577 0;
#X obj 129 143 cnv 15 120 58 empty empty empty 20 12 0 14 -258113 -66577
0;
#X text 133 142 Pd-0.42.5-extended;
#X text 133 153 + Windows 7;
#X text 131 176 ne fonctionne pas;
#X text 132 165 MM Statistic;
#X text 131 186 don't work;
#X text 270 157 <- Message caché;
#X obj 127 115 unauthorized/probalizer 128 100 128 100 0;
#X obj 101 101 cnv 5 165 13 empty empty Statistic. 110 8 1 14 -262144
-66577 0;
#X obj 101 104 cnv 5 25 124 empty empty 100 5 14 1 11 -262144 -66577
0;
#X obj 101 101 cnv 4 10 4 empty empty empty 20 12 0 14 -260097 -66577
0;
#X obj 109 216 cnv 5 150 12 empty empty 0 16 7 1 11 -262144 -66577
0;
#X obj 127 103 bng 12 50 50 0 \$0-A \$0-B Reset 15 7 1 9 -262144 -1
-1;
#X obj 245 216 cnv 5 15 12 empty empty 127 2 7 1 11 -262144 -66577
0;
#X text 219 82 15 1 2018;
#X obj 329 206 cnv 15 42 25 empty empty empty 20 12 0 14 -24198 -66577
0;
#N canvas 336 174 309 137 ?. 0;
#X obj 3 83 cnv 15 300 46 empty empty empty 20 12 0 14 -224896 -66577
0;
#X obj 3 6 cnv 18 300 70 empty empty ARGOPdMiniModules 3 10 1 14 -4033
-1 1.04858e+06;
#X obj 26 26 cnv 10 10 10 empty empty Gerard 0 5 1 11 -4033 -1 1.04858e+06
;
#X obj 64 26 cnv 10 10 10 empty empty Paresys 0 5 1 11 -4033 -1 1.04858e+06
;
#X obj 7 37 pddp/pddplink http://gerard.paresys.free.fr/ARGOPd/;
#X text 8 85 Construit sous / Build under Pd 0.43.4-extended;
#X obj 8 111 pddp/pddplink http://puredata.info/downloads/pd-extended
;
#X obj 7 50 pddp/pddplink http://paresys.pagesperso-orange.fr/ARGOPd/
;
#X text 7 98 or Pd-0.46-7 + deken;
#X restore 333 210 pd ?.;
#X obj 250 22 cnv 15 100 50 empty empty empty 20 12 0 14 -24198 -66577
0;
#X text 254 24 library:;
#X text 254 46 unauthorized;
#X text 254 35 pddp;
#X connect 2 0 5 0;
#X connect 3 0 14 0;
#X connect 4 0 19 0;
#X connect 5 0 14 0;
#X connect 19 0 3 0;
#X coords 0 -1 1 1 167 129 1 100 100;
#X restore 26 297 pd ARGO;
#N canvas 495 130 534 528 ARGO 0;
#X obj 25 278 cnv 15 60 30 empty empty empty 20 12 0 14 -24198 -66577
0;
#N canvas 402 65 405 152 Help 0;
#X text 9 25 Nbr = Nombre - Number;
#X text 21 76 - Chaque valeur depend + ou - de la precedente:;
#X text 60 89 de 0 a 100 (100 = independance complete);
#X text 9 58 Alea:;
#X restore 32 284 pd Help;
#X obj 43 77 cnv 15 170 24 empty empty empty 20 12 0 14 -261682 -66577
0;
#X obj 200 80 inlet;
#X obj 337 477 cnv 15 170 24 empty empty empty 20 12 0 14 -261682 -66577
0;
#X obj 342 481 outlet;
#X obj 201 201 cnv 5 138 58 empty ColorForm Nbr. 112 19 1 14 -261476
-1 1.04858e+06;
#X obj 200 201 bng 12 50 50 0 \$0-A \$0-B empty 14 6 1 9 -262144 -1
-1;
#X obj 201 201 cnv 4 10 4 empty empty empty 20 12 0 14 -260097 -66577
0;
#X obj 267 200 nbx 4 12 61 9999 0 1 \$0-A ColorTime max 40 7 1 9 -262144
-1 -1 84 256;
#X text 43 84 Input anything message ->;
#X text 43 74 N'importe quel message ->;
#X obj 267 224 nbx 4 12 -999 9999 0 1 \$0-A ColorTime min 40 7 1 9
-262144 -1 -1 60 256;
#X text 387 475 -> Nombre;
#X text 388 485 -> Number;
#X obj 20 408 + 1;
#X obj 222 200 vradio 12 1 1 4 \$0-A \$0-B --> 16 6 1 9 -262144 -1
-1 3;
#X obj 236 212 cnv 5 5 5 empty empty <-- 0 6 1 9 -261476 -1 0;
#X obj 236 223 cnv 5 5 5 empty empty <--> 0 6 1 9 -261476 -1 0;
#X obj 202 235 cnv 5 5 5 empty empty Alea 0 7 1 9 -261476 -1 0;
#X obj 321 313 t b f f f f f b f;
#X obj 258 212 nbx 5 12 -999 9999 0 1 \$0-A ColorTime empty 40 7 1
9 -262144 -1 -1 65.1501 256;
#X msg 386 154 65.1501;
#X obj 359 80 loadbang;
#X msg 350 155 1;
#X obj 342 456 spigot 0;
#X obj 359 107 delay 300;
#X obj 237 236 hsl 101 12 0 100 0 1 \$0-A \$0-B 5% 25 7 1 9 -262144
-1 -1 500 0;
#N canvas 297 381 197 155 label 0;
#X msg 15 103 label \$1;
#X obj 14 12 inlet;
#X obj 15 126 outlet;
#X obj 14 36 expr (int(100 * $f1) / 100) \;;
#X obj 15 81 cyclone/tosymbol;
#X obj 15 59 cyclone/sprintf %s%%;
#X connect 0 0 2 0;
#X connect 1 0 3 0;
#X connect 3 0 5 0;
#X connect 4 0 0 0;
#X connect 5 0 4 0;
#X restore 128 237 pd label;
#X obj 253 148 clip;
#X obj 329 201 cnv 4 10 4 empty empty empty 20 12 0 14 -260097 -66577
0;
#X obj 242 77 cnv 15 100 24 empty empty empty 20 12 0 14 -261682 -66577
0;
#X obj 301 80 inlet;
#X text 242 76 Nombre ->;
#X text 242 86 Number ->;
#X obj 359 130 t b b;
#X obj 82 184 select 1;
#X obj 21 184 select 1;
#X obj 21 205 delay 5;
#X obj 82 206 delay 5;
#X obj 82 229 int;
#X obj 21 228 int;
#X obj 82 161 >;
#X obj 21 162 <;
#X obj 82 138 t b f;
#X obj 21 139 t b f;
#X msg 407 129 set \$1;
#X obj 420 336 + 1;
#X msg 420 359 range \$1 9999;
#X msg 408 220 range \$1 \$2;
#X obj 408 197 pack 1 2;
#X obj 426 173 t b f;
#N canvas 577 384 196 152 label 0;
#X msg 15 103 label \$1;
#X obj 14 12 inlet;
#X obj 15 126 outlet;
#X obj 14 36 expr (int(100 * $f1) / 100) \;;
#X obj 15 81 cyclone/tosymbol;
#X obj 15 59 cyclone/sprintf %s;
#X connect 0 0 2 0;
#X connect 1 0 3 0;
#X connect 3 0 5 0;
#X connect 4 0 0 0;
#X connect 5 0 4 0;
#X restore 428 242 pd label;
#X msg 211 122 set \$1;
#X obj 203 248 hsl 135 12 60 84 0 0 \$0-A \$0-B empty 55 7 1 9 -260818
-1 -1 0 0;
#X obj 203 248 hsl 135 12 60 84 0 0 \$0-A \$0-B 65.15 65 7 1 9 -262144
-1 -1 2875 0;
#X obj 201 255 cnv 4 10 4 empty empty empty 20 12 0 14 -260097 -66577
0;
#N canvas 584 246 334 323 plus 0;
#X obj 200 28 inlet;
#X obj 239 28 inlet;
#X obj 30 28 inlet;
#X text 32 11 Trig;
#X text 207 11 min;
#X text 244 11 max;
#X obj 147 274 outlet;
#X obj 135 28 inlet;
#X text 142 11 Nbr;
#X obj 135 65 + 1;
#X obj 135 198 int;
#X obj 135 88 t f f;
#X obj 135 165 select 1;
#X obj 135 135 >;
#X obj 147 246 int;
#X connect 0 0 10 1;
#X connect 1 0 13 1;
#X connect 2 0 14 0;
#X connect 7 0 9 0;
#X connect 9 0 11 0;
#X connect 10 0 14 1;
#X connect 11 0 13 0;
#X connect 11 1 14 1;
#X connect 12 0 10 0;
#X connect 13 0 12 0;
#X connect 14 0 6 0;
#X restore 49 408 pd plus;
#N canvas 578 236 315 327 moins 0;
#X obj 197 31 inlet;
#X obj 236 31 inlet;
#X obj 27 31 inlet;
#X text 29 14 Trig;
#X text 204 14 min;
#X text 241 14 max;
#X obj 144 277 outlet;
#X obj 132 31 inlet;
#X text 139 14 Nbr;
#X obj 132 201 int;
#X obj 132 91 t f f;
#X obj 132 168 select 1;
#X obj 144 249 int;
#X obj 132 68 - 1;
#X obj 132 138 <;
#X connect 0 0 14 1;
#X connect 1 0 9 1;
#X connect 2 0 12 0;
#X connect 7 0 13 0;
#X connect 9 0 12 1;
#X connect 10 0 14 0;
#X connect 10 1 12 1;
#X connect 11 0 9 0;
#X connect 12 0 6 0;
#X connect 13 0 10 0;
#X connect 14 0 11 0;
#X restore 101 408 pd moins;
#N canvas 568 56 271 295 palindrome 0;
#X obj 173 22 inlet;
#X obj 212 22 inlet;
#X obj 27 22 inlet;
#X text 29 5 Trig;
#X text 180 5 min;
#X text 220 5 max;
#X obj 73 270 outlet;
#X obj 77 22 inlet;
#X text 84 5 Nbr;
#X obj 77 92 + 1;
#X obj 93 118 t f f;
#X obj 87 184 select 1;
#X obj 87 156 >;
#X msg 106 55 -1;
#X obj 157 184 select 1;
#X obj 157 156 <;
#X msg 141 55 1;
#X obj 157 221 t b b;
#X obj 84 221 t b b;
#X obj 73 246 int;
#X obj 77 55 int;
#X connect 0 0 15 1;
#X connect 1 0 12 1;
#X connect 2 0 19 0;
#X connect 7 0 20 0;
#X connect 9 0 10 0;
#X connect 10 0 12 0;
#X connect 10 0 15 0;
#X connect 10 1 19 1;
#X connect 11 0 18 0;
#X connect 12 0 11 0;
#X connect 13 0 9 1;
#X connect 14 0 17 0;
#X connect 15 0 14 0;
#X connect 16 0 9 1;
#X connect 17 0 9 0;
#X connect 17 1 16 0;
#X connect 18 0 9 0;
#X connect 18 1 13 0;
#X connect 19 0 6 0;
#X connect 20 0 9 0;
#X restore 159 408 pd palindrome;
#N canvas 740 94 360 355 alea 0;
#X obj 209 22 inlet;
#X obj 283 22 inlet;
#X obj 28 22 inlet;
#X text 30 5 Trig;
#X text 216 5 min;
#X text 291 5 max;
#X obj 28 310 outlet;
#X obj 166 22 inlet;
#X text 173 5 Nbr;
#X obj 42 144 t b f f;
#X obj 28 282 expr if ($f1 < $f2 \, ($f2 * 2.0) - $f1 \, $f1);
#X obj 28 259 expr if ($f1 > $f2 \, ($f2 * 2.0) - $f1 \, $f1);
#X obj 28 211 random;
#X obj 61 166 * 10;
#X obj 61 188 + 1;
#X obj 28 235 expr ((($f1 / 10 - ($f4 / 2.0)) * $f2) / 50.0) + $f3
\;;
#X obj 124 22 inlet;
#X text 126 5 Alea;
#X obj 43 119 -;
#X obj 43 96 t b f;
#X connect 0 0 10 1;
#X connect 0 0 19 0;
#X connect 1 0 11 1;
#X connect 1 0 18 0;
#X connect 2 0 12 0;
#X connect 7 0 15 2;
#X connect 9 1 13 0;
#X connect 9 2 15 3;
#X connect 10 0 6 0;
#X connect 11 0 10 0;
#X connect 12 0 15 0;
#X connect 13 0 14 0;
#X connect 14 0 12 1;
#X connect 15 0 11 0;
#X connect 16 0 15 1;
#X connect 18 0 9 0;
#X connect 19 0 18 0;
#X connect 19 1 18 1;
#X restore 278 408 pd alea;
#X obj 100 445 cyclone/switch 4;
#X text 275 175 19 8 2019;
#X obj 454 445 cnv 15 52 22 empty empty empty 20 12 0 14 -24198 -66577
0;
#N canvas 353 174 321 152 ?... 0;
#X obj 8 84 cnv 15 300 56 empty empty empty 20 12 0 14 -224896 -66577
0;
#X obj 8 7 cnv 18 300 70 empty empty ARGOPdMiniModules 3 10 1 14 -4033
-1 1.04858e+06;
#X obj 31 27 cnv 10 10 10 empty empty Gerard 0 5 1 11 -4033 -1 1.04858e+06
;
#X obj 69 27 cnv 10 10 10 empty empty Paresys 0 5 1 11 -4033 -1 1.04858e+06
;
#X obj 12 40 pddp/pddplink http://gerard.paresys.free.fr/ARGOPd/;
#X obj 13 121 pddp/pddplink http://puredata.info/downloads/pd-extended
;
#X obj 13 97 pddp/pddplink http://puredata.info/downloads/pure-data
;
#X text 13 85 Construit sous / Build under Pd-0.49...;
#X text 12 109 or Pd 0.43.4-extended;
#X obj 12 53 pddp/pddplink https://paresys.pagesperso-orange.fr/ARGOPd/
;
#X restore 457 448 pd ?...;
#X connect 3 0 7 0;
#X connect 7 0 57 0;
#X connect 7 0 58 0;
#X connect 7 0 59 0;
#X connect 7 0 60 0;
#X connect 9 0 29 2;
#X connect 9 0 40 1;
#X connect 9 0 44 0;
#X connect 9 0 51 0;
#X connect 9 0 57 3;
#X connect 9 0 58 3;
#X connect 9 0 59 3;
#X connect 9 0 60 4;
#X connect 12 0 20 0;
#X connect 12 0 29 1;
#X connect 12 0 50 0;
#X connect 15 0 61 0;
#X connect 16 0 15 0;
#X connect 20 3 41 1;
#X connect 20 4 45 0;
#X connect 20 5 57 2;
#X connect 20 5 58 2;
#X connect 20 5 59 2;
#X connect 20 5 60 3;
#X connect 20 6 9 0;
#X connect 20 7 47 0;
#X connect 21 0 42 0;
#X connect 21 0 43 0;
#X connect 21 0 25 0;
#X connect 21 0 55 0;
#X connect 21 0 52 0;
#X connect 21 0 57 1;
#X connect 21 0 58 1;
#X connect 21 0 59 1;
#X connect 21 0 60 2;
#X connect 22 0 21 0;
#X connect 23 0 26 0;
#X connect 24 0 25 1;
#X connect 25 0 46 0;
#X connect 25 0 5 0;
#X connect 26 0 35 0;
#X connect 27 0 28 0;
#X connect 27 0 60 1;
#X connect 28 0 27 0;
#X connect 29 0 21 0;
#X connect 32 0 29 0;
#X connect 35 0 24 0;
#X connect 35 1 22 0;
#X connect 36 0 39 0;
#X connect 37 0 38 0;
#X connect 38 0 41 0;
#X connect 39 0 40 0;
#X connect 40 0 21 0;
#X connect 41 0 21 0;
#X connect 42 0 36 0;
#X connect 43 0 37 0;
#X connect 44 0 42 0;
#X connect 44 1 42 1;
#X connect 45 0 43 0;
#X connect 45 1 43 1;
#X connect 46 0 22 0;
#X connect 47 0 48 0;
#X connect 48 0 9 0;
#X connect 49 0 55 0;
#X connect 49 0 54 0;
#X connect 50 0 49 0;
#X connect 51 0 50 0;
#X connect 51 1 50 1;
#X connect 52 0 55 0;
#X connect 54 0 21 0;
#X connect 55 0 53 0;
#X connect 57 0 61 1;
#X connect 58 0 61 2;
#X connect 59 0 61 3;
#X connect 60 0 61 4;
#X connect 61 0 29 0;
#X coords 0 -1 1 1 140 60 2 200 200;
#X restore 207 68 pd ARGO;
#N canvas 464 118 528 453 Scroll 0;
#N canvas 0 50 450 300 (subpatch) 0;
#X array \$0-MMScroll 115 float 0;
#X coords 0 66 114 -66 400 133 2 0 0;
#X restore 112 100 graph;
#X obj 16 335 list;
#X obj 16 361 list prepend 0;
#X obj 16 386 list trim;
#X obj 37 309 list split 64;
#X obj 16 20 inlet;
#X msg 138 386 resize \$1;
#X obj 16 285 clip -64 64;
#X obj 16 258 *;
#X obj 100 100 cnv 4 10 4 empty empty empty 20 12 0 14 -260097 -66577
0;
#X obj 457 104 cnv 10 20 10 empty ColorAmpli Scroll. 1 5 1 14 -262144
-1 1.04858e+06;
#X msg 219 386 xticks 0 5 5;
#X obj 149 14 cnv 15 360 66 empty empty empty 20 12 0 14 -258113 -66577
0;
#X text 152 17 ATTENTION: Ce MiniModule ne peut pas être présent à
2 exemplaires dans un même patch.;
#X text 152 49 WARNING: This MiniModule can not be present at 2 copies
in a single patch., f 55;
#X obj 115 233 hsl 395 12 64 2000 1 1 \$0-A \$0-B empty 30 7 1 9 -208064
-1 -1 6800 0;
#X obj 100 114 vsl 12 128 0.01 100 1 1 \$0-A \$0-B empty 0 -9 0 10
-261299 -1 -1 6000 0;
#X obj 90 422 s \$0-MMScroll;
#X text 453 250 5 11 2019;
#X obj 472 413 cnv 15 34 16 empty empty empty 20 12 0 14 -24198 -66577
0;
#N canvas 353 174 333 161 ?? 0;
#X obj 17 89 cnv 15 300 56 empty empty empty 20 12 0 14 -224896 -66577
0;
#X obj 17 12 cnv 18 300 70 empty empty ARGOPdMiniModules 3 10 1 14
-4033 -1 1.04858e+06;
#X obj 40 32 cnv 10 10 10 empty empty Gerard 0 5 1 11 -4033 -1 1.04858e+06
;
#X obj 78 32 cnv 10 10 10 empty empty Paresys 0 5 1 11 -4033 -1 1.04858e+06
;
#X obj 20 54 pddp/pddplink http://gerard.paresys.free.fr/ARGOPd/;
#X obj 22 126 pddp/pddplink http://puredata.info/downloads/pd-extended
;
#X obj 22 102 pddp/pddplink http://puredata.info/downloads/pure-data
;
#X text 22 90 Construit sous / Build under Pd-0.49...;
#X text 21 114 or Pd 0.43.4-extended;
#X obj 20 66 pddp/pddplink https://paresys.pagesperso-orange.fr/ARGOPd/
;
#X obj 20 42 pddp/pddplink https://github.com/gerardparesys/ARGOPd
;
#X restore 472 413 pd ??;
#X connect 1 0 4 0;
#X connect 1 0 2 0;
#X connect 2 0 3 0;
#X connect 3 0 17 0;
#X connect 4 0 1 1;
#X connect 4 2 1 1;
#X connect 5 0 8 0;
#X connect 6 0 17 0;
#X connect 7 0 1 0;
#X connect 8 0 7 0;
#X connect 11 0 17 0;
#X connect 15 0 6 0;
#X connect 15 0 4 1;
#X connect 16 0 8 1;
#X coords 0 -1 1 1 412 145 2 100 100;
#X restore 350 159 pd Scroll;
#X obj 721 410 cnv 15 34 16 empty empty empty 20 12 0 14 -24198 -66577
0;
#N canvas 353 174 333 161 ?? 0;
#X obj 17 89 cnv 15 300 56 empty empty empty 20 12 0 14 -224896 -66577
0;
#X obj 17 12 cnv 18 300 70 empty empty ARGOPdMiniModules 3 10 1 14
-4033 -1 1.04858e+06;
#X obj 40 32 cnv 10 10 10 empty empty Gerard 0 5 1 11 -4033 -1 1.04858e+06
;
#X obj 78 32 cnv 10 10 10 empty empty Paresys 0 5 1 11 -4033 -1 1.04858e+06
;
#X obj 20 54 pddp/pddplink http://gerard.paresys.free.fr/ARGOPd/;
#X obj 22 126 pddp/pddplink http://puredata.info/downloads/pd-extended
;
#X obj 22 102 pddp/pddplink http://puredata.info/downloads/pure-data
;
#X text 22 90 Construit sous / Build under Pd-0.49...;
#X text 21 114 or Pd 0.43.4-extended;
#X obj 20 66 pddp/pddplink https://paresys.pagesperso-orange.fr/ARGOPd/
;
#X obj 20 42 pddp/pddplink https://github.com/gerardparesys/ARGOPd
;
#X restore 721 410 pd ??;
#X connect 5 0 4 0;
#X connect 9 0 19 0;
#X connect 10 0 19 1;
#X connect 12 0 19 1;
#X connect 13 0 19 1;
#X connect 14 0 17 0;
#X connect 17 0 16 0;
#X connect 17 0 15 1;
#X connect 17 0 15 0;
#X connect 19 0 14 0;
#X connect 19 0 18 0;
#X connect 19 0 20 0;
